<!-- Generated by IcoMoon.io -->
<svg version="1.1" xmlns="http://www.w3.org/2000/svg" width="72" height="72" viewBox="0 0 72 72">
<title>BANANA</title>
<path d="M27.9 38.1c-3.6 3.45-5.7 7.8-7.5 12.45-1.35 3.3-1.65-4.050-1.65-5.1 0-3.45 0.75-6.75 1.8-9.9-0.45 0.6-1.050 1.050-1.5 1.5 1.5-0.6 5.85 1.5 7.35 1.95 2.55 0.75 4.8 1.35 6.6 3.3 1.95 2.1 5.1-1.050 3.15-3.15-3.9-4.2-10.8-5.4-16.2-6.6-5.7-1.2-5.7 9.15-5.85 12.75-0.15 3.75 1.35 13.35 7.2 11.55 2.1-0.6 2.7-3.45 3.3-5.1 1.5-3.9 3.3-7.5 6.3-10.5 2.25-1.8-0.9-5.1-3-3.15v0zM24 48c3.9 7.5 8.25 13.8 15.9 18 4.8 2.7 12.45 3.75 16.95 0 1.2-0.9 1.65-4.2 1.050-5.55-1.5-3.6-5.7-4.95-8.55-7.5-3-2.7-4.8-7.65-6.15-11.4-2.1-5.7 11.1 7.65 3 3.3-2.55-1.35-4.8 2.55-2.25 3.9 2.4 1.35 5.85 2.85 8.4 0.75s2.85-4.95 0.6-7.5c-2.55-2.85-15-13.050-15-2.7 0 2.85 1.95 6.15 3.15 8.7 2.1 4.65 4.65 7.95 8.7 10.95 1.95 1.5 5.7 3.6 1.65 4.5-3.75 0.9-7.65-0.6-10.8-2.4-6.3-3.45-9.6-9.45-12.75-15.6-1.35-2.1-5.25 0.15-3.9 2.55v0zM38.25 35.1c-1.050 0.3-2.1 0.75-3 1.35-1.050 0.75-1.5 1.95-0.75 3.15 0.6 1.050 2.1 1.5 3.15 0.75 0.75-0.6 1.2-0.75 1.95-0.9 1.2-0.3 1.95-1.65 1.5-2.7s-1.8-1.8-2.85-1.65v0zM40.050 35.25c-1.5-8.1 0.3-16.050-1.2-24-0.9-4.65-5.7-7.65-10.050-5.1-9.3 5.4-9.6 17.85-8.7 27.45 0.3 2.85 4.8 2.85 4.5 0-0.6-6.45-0.6-13.35 2.1-19.5 0.9-1.95 5.85-7.2 7.8-1.65 0.9 2.4 0.3 5.7 0 8.25-0.45 5.25 0.15 10.5 1.2 15.75 0.6 3 4.8 1.65 4.35-1.2v0z"></path>
</svg>
