<?xml version="1.0" encoding="utf-8"?>
<!-- Generator: Adobe Illustrator 19.0.0, SVG Export Plug-In . SVG Version: 6.00 Build 0)  -->
<svg version="1.1" id="Layer_1" xmlns="http://www.w3.org/2000/svg" xmlns:xlink="http://www.w3.org/1999/xlink" x="0px" y="0px"
	 viewBox="-255.5 370.5 48 46.8" style="enable-background:new -255.5 370.5 48 46.8;" xml:space="preserve">
<style type="text/css">
	.st0{clip-path:url(#SVGID_2_);}
	.st1{display:none;}
	.st2{display:inline;}
	.st3{clip-path:url(#SVGID_4_);}
	.st4{display:none;clip-path:url(#SVGID_6_);}
	.st5{fill:#EDBC5E;}
	.st6{display:none;clip-path:url(#SVGID_8_);}
	.st7{display:inline;fill:none;stroke:#EDBC5E;stroke-width:3;stroke-miterlimit:10;}
	.st8{display:none;clip-path:url(#SVGID_10_);}
	.st9{display:none;clip-path:url(#SVGID_12_);}
	.st10{fill:#9A3D58;}
	.st11{display:none;clip-path:url(#SVGID_14_);}
	.st12{clip-path:url(#SVGID_16_);fill:none;}
	.st13{clip-path:url(#SVGID_18_);fill:none;}
	.st14{display:none;clip-path:url(#SVGID_20_);}
	.st15{display:none;clip-path:url(#SVGID_22_);}
	.st16{display:none;clip-path:url(#SVGID_24_);}
	.st17{display:none;clip-path:url(#SVGID_26_);}
	.st18{display:none;clip-path:url(#SVGID_28_);}
	.st19{display:none;clip-path:url(#SVGID_30_);}
	.st20{display:none;clip-path:url(#SVGID_32_);}
	.st21{display:none;clip-path:url(#SVGID_34_);}
	.st22{display:none;clip-path:url(#SVGID_36_);}
	.st23{display:none;clip-path:url(#SVGID_38_);}
	.st24{display:none;clip-path:url(#SVGID_40_);}
	.st25{display:none;clip-path:url(#SVGID_42_);}
	.st26{fill:none;}
</style>
<g>
	<g id="Layer_2">
	</g>
	<g>
		<g>
			<g>
				<g>
					<defs>
						<rect id="SVGID_1_" x="-268.6" y="361.1" width="71.3" height="71.7"/>
					</defs>
					<clipPath id="SVGID_2_">
						<use xlink:href="#SVGID_1_"  style="overflow:visible;"/>
					</clipPath>
					<g class="st0">
						<g>
							<g class="st1">
								<g class="st2">
									<defs>
										<rect id="SVGID_3_" x="-295.4" y="346.8" width="102.9" height="93.5"/>
									</defs>
									<clipPath id="SVGID_4_">
										<use xlink:href="#SVGID_3_"  style="overflow:visible;"/>
									</clipPath>
									<g class="st3">
										
											<image style="overflow:visible;enable-background:new    ;" width="1592" height="897" xlink:href="C0052B39.jpeg"  transform="matrix(0.8995 0 0 0.898 -663.2467 156.9996)">
										</image>
									</g>
								</g>
							</g>
							<g>
								<g>
									<defs>
										<rect id="SVGID_5_" x="-268.6" y="361.1" width="71.3" height="71.7"/>
									</defs>
									<clipPath id="SVGID_6_">
										<use xlink:href="#SVGID_5_"  style="overflow:visible;"/>
									</clipPath>
									<g class="st4">
										<g class="st2">
											<path class="st5" d="M-203.1,396.9c-0.4,16.4-13.2,29.1-29.5,29.5s-29.2-13.7-29.5-29.5c-0.4-16.3,13.7-29.2,29.5-29.5
												C-216.3,367.1-203.4,381.1-203.1,396.9c0,1.9,3,1.9,3,0c-0.4-18-14.5-32.1-32.5-32.5s-32.1,15.1-32.5,32.5
												c-0.4,18,15.1,32.1,32.5,32.5c18,0.4,32.1-15.1,32.5-32.5C-200.1,395-203.1,395-203.1,396.9z"/>
											<path class="st5" d="M-234.1,377.5c0,6.5,0,12.9,0,19.4c0,1.9,3,1.9,3,0c0-6.5,0-12.9,0-19.4
												C-231.1,375.6-234.1,375.6-234.1,377.5L-234.1,377.5z"/>
											<path class="st5" d="M-214.9,388.8c-6,2.3-12.1,4.6-18.1,6.9c-1.8,0.7-1,3.6,0.8,2.9c6-2.3,12.1-4.6,18.1-6.9
												C-212.3,390.9-213.1,388-214.9,388.8L-214.9,388.8z"/>
										</g>
									</g>
								</g>
								<g>
									<g>
										<defs>
											<rect id="SVGID_7_" x="-268.6" y="361.1" width="71.3" height="71.7"/>
										</defs>
										<clipPath id="SVGID_8_">
											<use xlink:href="#SVGID_7_"  style="overflow:visible;"/>
										</clipPath>
										<g id="Layer_3" class="st6">
											<path class="st7" d="M-198.3,383l-13.5,13.4c-2.1,2.1-5.8,1.8-8.3-0.7l-5-5c-2.5-2.5-2.8-6.2-0.7-8.3l12.6-12.5
												l13.9,14.1"/>
											<g class="st2">
												<g>
													<path class="st5" d="M-224.4,391.9c-10.4,10.3-20.7,20.7-31.1,31c-1.4,1.4,0.8,3.5,2.1,2.1
														c10.4-10.3,20.7-20.7,31.1-31C-220.9,392.6-223,390.5-224.4,391.9L-224.4,391.9z"/>
												</g>
											</g>
											<g class="st2">
												<g>
													<path class="st5" d="M-246,375.4c4,4.3,6.1,11.1,1.7,15.9c-4.4,4.8-12,1.9-15.9-1.8c-4.3-4-5.9-11.3-1.7-15.9
														C-257.5,368.8-249.9,371.6-246,375.4c1.4,1.3,3.5-0.8,2.1-2.1c-5.6-5.2-14-7.3-20.1-1.8s-3,15,1.7,20.2
														c5.2,5.6,14.3,7.1,20.2,1.8c6.1-5.5,3-15-1.7-20.2C-245.3,371.9-247.3,373.9-246,375.4z"/>
												</g>
											</g>
											<g class="st2">
												<g>
													<path class="st5" d="M-243.8,393.9c10.6,10.6,21.2,21.2,31.7,31.9c1.4,1.4,3.5-0.8,2.1-2.1
														c-10.6-10.6-21.2-21.2-31.7-31.9C-242.9,390.4-245,392.5-243.8,393.9L-243.8,393.9z"/>
												</g>
											</g>
											<g class="st2">
												<g>
													<path class="st5" d="M-260.4,377c4.3,4.3,8.6,8.7,12.9,13c1.4,1.4,3.5-0.8,2.1-2.1c-4.3-4.3-8.6-8.7-12.9-13
														C-259.8,373.5-261.9,375.6-260.4,377L-260.4,377z"/>
												</g>
											</g>
											<g class="st2">
												<g>
													<path class="st5" d="M-255.5,376.4c2.8,2.7,5.5,5.5,8.3,8.2c1.4,1.4,3.5-0.8,2.1-2.1c-2.8-2.7-5.5-5.5-8.3-8.2
														C-254.8,372.9-256.9,375-255.5,376.4L-255.5,376.4z"/>
												</g>
											</g>
											<g class="st2">
												<g>
													<path class="st5" d="M-261.4,382.1c2.7,2.8,5.5,5.5,8.2,8.2c1.4,1.4,3.5-0.8,2.1-2.1c-2.7-2.8-5.5-5.5-8.2-8.2
														C-260.5,378.6-262.6,380.8-261.4,382.1L-261.4,382.1z"/>
												</g>
											</g>
										</g>
									</g>
									<g>
										<g>
											<defs>
												<rect id="SVGID_9_" x="-268.6" y="361.1" width="71.3" height="71.7"/>
											</defs>
											<clipPath id="SVGID_10_">
												<use xlink:href="#SVGID_9_"  style="overflow:visible;"/>
											</clipPath>
											<g class="st8">
												<g class="st2">
													<path class="st5" d="M-258.9,419.4c17.2,0,34.3,0,51.5,0c1.9,0,1.9-3,0-3c-17.2,0-34.3,0-51.5,0
														C-260.8,416.4-260.8,419.4-258.9,419.4L-258.9,419.4z"/>
													<path class="st5" d="M-205.8,417.9c-1.6-12.2-10.7-23.2-23.3-24.7c0.5,0.4,1,0.7,1.4,1.1c-0.5-1.8-1.1-6.7-3.6-6.9
														c-3.9-0.3-6.4-0.2-7.5,3.9c-0.9,3.3-3.7,3.3-6.6,4.7c-2.6,1.3-4.9,3.2-6.9,5.2c-4.4,4.3-7.1,10.4-8,16.4
														c-0.3,1.9,2.6,2.7,2.9,0.8c1.5-10.7,8.9-19.7,19.7-21.9c0.5-0.1,0.9-0.6,1-1c0.1-0.3,0.9-4.9,1.1-5
														c1.2-0.1,2.4-0.1,3.6-0.1c0.2,0,1.2,4.3,1.4,4.8c0.2,0.7,0.8,1,1.4,1.1c10.8,1.3,18.9,11.3,20.3,21.7
														C-208.6,419.6-205.6,419.8-205.8,417.9L-205.8,417.9z"/>
													<path class="st5" d="M-267.3,421.4c1.1,1,2.8,3.4,4.5,3.4c1.8,0,3.6,0,5.3,0c8,0,16.1,0,24.1,0c8.2,0,16.3,0,24.5,0
														c1.9,0,3.9,0,5.8,0c1.8,0,3.1-2.2,4.2-3.4c1.3-1.4-0.8-3.5-2.1-2.1c-0.9,0.9-1.8,1.9-2.7,2.8c0.5-0.5,1.3-0.3,0.2-0.3
														c-2,0-4,0-6,0c-7.6,0-15.2,0-22.9,0s-15.5,0-23.2,0c-2.1,0-4.3,0-6.4,0c-0.3,0-0.7,0-1,0c1.3,0,0.7,0.2-0.2-0.7
														c-0.7-0.6-1.3-1.2-2-1.8C-266.5,418-268.6,420.1-267.3,421.4L-267.3,421.4z"/>
													<path class="st5" d="M-244,373.6c2.2,2.1-1.3,5.3-2,7.4c-0.9,2.6,1.7,3.9,3.8,4.3c1.9,0.4,2.7-2.5,0.8-2.9
														c-1.4-0.3-2-0.2-1.3-1.6c0.8-1.6,2-2.8,2.3-4.6c0.3-1.6-0.2-3.6-1.5-4.7C-243.3,370.1-245.4,372.3-244,373.6
														L-244,373.6z"/>
													<path class="st5" d="M-236.1,369.4c2.2,2.1-1.3,5.3-2,7.4c-0.9,2.6,1.7,3.9,3.8,4.3c1.9,0.4,2.7-2.5,0.8-2.9
														c-1.4-0.3-2-0.2-1.3-1.6c0.8-1.6,2-2.8,2.3-4.6c0.3-1.6-0.2-3.6-1.5-4.7C-235.3,365.9-237.5,368-236.1,369.4
														L-236.1,369.4z"/>
													<path class="st5" d="M-227.8,373.6c2.2,2.1-1.3,5.3-2.1,7.4c-0.9,2.6,1.7,3.9,3.8,4.3c1.9,0.4,2.7-2.5,0.8-2.9
														c-1.4-0.3-2-0.2-1.3-1.6c0.8-1.6,2-2.8,2.3-4.6c0.3-1.6-0.2-3.6-1.5-4.7C-227,370.1-229.1,372.3-227.8,373.6
														L-227.8,373.6z"/>
												</g>
											</g>
										</g>
										<g>
											<g>
												<defs>
													<rect id="SVGID_11_" x="-268.6" y="361.1" width="71.3" height="71.7"/>
												</defs>
												<clipPath id="SVGID_12_">
													<use xlink:href="#SVGID_11_"  style="overflow:visible;"/>
												</clipPath>
												<g class="st9">
													<g class="st2">
														<path class="st10" d="M-200.4,390.4c-0.4,2.7-7.4,3.5-9.4,3.9c-6.8,1.4-13.9,1.7-20.8,1.8c-7.3,0.1-14.7-0.3-21.9-1.3
															c-2.5-0.4-10.9-1.1-12.1-4c-0.6-1.5,9.8-3.6,10.7-3.8c7-1.3,14.3-1.5,21.4-1.6c7.1,0,14.3,0.4,21.4,1.6
															c2.1,0.4,10.4,1.3,10.8,4.2c0.3,1.9,3.1,1.1,2.9-0.8c-0.5-3.6-6.3-4.8-9.1-5.5c-8.4-2.1-17.4-2.4-26-2.5
															c-8.7,0-17.5,0.5-26,2.5c-2.7,0.6-9.1,2-9.1,5.9c0,3.6,5.4,4.9,8,5.6c8.1,2.3,16.9,2.6,25.2,2.7
															c8.9,0.2,17.9-0.4,26.7-2.2c3-0.6,9.7-1.8,10.3-5.8C-197.3,389.3-200.3,388.4-200.4,390.4z"/>
														<path class="st10" d="M-267.4,391.8c5.2,6.3,10.4,12.5,15.6,18.8c1.3,1.6,2.4,1.3,4.4,1.3c4.7,0,9.4,0,14.1,0
															c5,0,9.9,0,14.9,0c1.5,0,4.1,0.6,5.1-0.8c5.1-6.5,10.1-12.9,15.2-19.4c1.2-1.5-0.9-3.6-2.1-2.1
															c-4.8,6.1-9.6,12.3-14.4,18.4c-0.3,0.4-0.6,0.8-0.9,1.2c-0.4,0.5,1.5-0.3,0.6-0.3c-1.2,0-2.3,0-3.5,0
															c-4.6,0-9.3,0-13.9,0c-4.6,0-9.3,0-13.9,0c-1.2,0-2.3,0-3.5,0c-0.9,0,1,0.8,0.6,0.3c-0.3-0.4-0.6-0.7-0.9-1.1
															c-5.1-6.2-10.2-12.3-15.3-18.5C-266.4,388.1-268.5,390.4-267.4,391.8L-267.4,391.8z"/>
													</g>
												</g>
											</g>
											<g>
												<g>
													<defs>
														<rect id="SVGID_13_" x="-268.6" y="361.1" width="71.3" height="71.7"/>
													</defs>
													<clipPath id="SVGID_14_">
														<use xlink:href="#SVGID_13_"  style="overflow:visible;"/>
													</clipPath>
													<g class="st11">
														<g class="st2">
															<path class="st10" d="M-205.5,374.6c0,15.1,0,30.2,0,45.2c0.5-0.5,1-1,1.5-1.5c-8.2,0-16.6,1.5-24.8,2.3
																c-8.7,0.9-17.5,1.8-26.2,2.6c0.5,0.5,1,1,1.5,1.5c0-9.9,0-19.8,0-29.7c0-4.7,0-9.5,0-14.2c0-3.1-4.8-5.5-6.9-7.4
																c-1.5-1.3-3.6,0.9-2.1,2.1c2.4,2.1,5.3,6.3,8.7,5.9c5.3-0.6,10.7-1.2,16-1.8c11.3-1.2,22.5-2.5,33.8-3.7
																c1.2-0.1,2.1-1.6,1.1-2.6c-2.2-2.1-4.7-6.3-7.9-5.9c-5.5,0.6-11,1.2-16.5,1.8c-11.4,1.2-22.7,2.5-34.1,3.7
																c-0.8,0.1-1.5,0.6-1.5,1.5c0,9.9,0,19.8,0,29.7c0,4.7,0,9.5,0,14.2c0,3.1,4.8,5.5,6.9,7.4c1.5,1.3,3.6-0.9,2.1-2.1
																c-1.7-1.4-3.3-2.9-5-4.3c-1.2-1.1-1-1.5-1-0.3c0-0.4,0-0.8,0-1.2c0-4.8,0-9.7,0-14.5c0-9.6,0-19.1,0-28.7
																c-0.5,0.5-1,1-1.5,1.5c10.4-1.1,20.8-2.3,31.2-3.4c5.9-0.6,11.8-1.3,17.8-1.9c0.6-0.1,1.3-0.1,1.9-0.2
																c1.2-0.1,0.5,0.2-0.1-0.4c1.9,1.8,3.8,3.7,5.6,5.5c0.4-0.9,0.7-1.7,1.1-2.6c-10.3,1.1-20.6,2.3-30.9,3.4
																c-5.7,0.6-11.5,1.3-17.2,1.9c-0.6,0.1-1.3,0.1-1.9,0.2c-1.2,0.1-0.7-0.2,0.1,0.4c-2.1-1.8-4.2-3.7-6.4-5.5
																c-1.5-1.3-3.6,0.9-2.1,2.1c1.7,1.4,3.3,2.9,5,4.3c1.2,1.1,1,1.5,1,0.3c0,0.4,0,0.8,0,1.2c0,4.8,0,9.7,0,14.5
																c0,9.6,0,19.1,0,28.7c0,0.8,0.7,1.6,1.5,1.5c8.7-0.9,17.5-1.8,26.2-2.6c8.2-0.8,16.5-2.3,24.8-2.3
																c0.8,0,1.5-0.7,1.5-1.5c0-15.1,0-30.2,0-45.2C-202.5,372.8-205.5,372.8-205.5,374.6L-205.5,374.6z"/>
															<path class="st10" d="M-204.9,393.6c-7.9,2.1-14.8,5.7-21.3,10.7c-5.6,4.3-10.5,8.8-12.4,15.9
																c-0.5,1.9,2.4,2.7,2.9,0.8c3.3-12.7,19.8-21.3,31.5-24.5C-202.3,396-203,393.1-204.9,393.6L-204.9,393.6z"/>
															<path class="st10" d="M-215.3,397.4c-4.6,2.4-9.1,6.3-11.3,11c-2.6,5.5,0.1,11,6.4,10.6c4.9-0.3,11.7-4.5,10.7-10.1
																c-1.1-5.6-9.2-0.3-9.3,3.6c0,1.9,3,1.9,3,0c0-2.4,4.6-3.9,3.1-1c-0.8,1.5-2.6,2.5-4,3.3c-3.7,2-8.7,1.5-7.6-3.8
																c1-4.9,6.5-8.9,10.6-11.1C-211.9,399.1-213.5,396.5-215.3,397.4L-215.3,397.4z"/>
														</g>
													</g>
												</g>
												<g>
													<g>
														<defs>
															<rect id="SVGID_15_" x="-268.6" y="361.1" width="71.3" height="71.7"/>
														</defs>
														<clipPath id="SVGID_16_">
															<use xlink:href="#SVGID_15_"  style="overflow:visible;"/>
														</clipPath>
														<line class="st12" x1="-268.4" y1="361.1" x2="-197.1" y2="361.1"/>
													</g>
													<g>
														<g>
															<defs>
																<rect id="SVGID_17_" x="-268.6" y="361.1" width="71.3" height="71.7"/>
															</defs>
															<clipPath id="SVGID_18_">
																<use xlink:href="#SVGID_17_"  style="overflow:visible;"/>
															</clipPath>
															<line class="st13" x1="-268.4" y1="432.9" x2="-197.1" y2="432.9"/>
														</g>
														<g>
															<g>
																<defs>
																	<rect id="SVGID_19_" x="-268.6" y="361.1" width="71.3" height="71.7"/>
																</defs>
																<clipPath id="SVGID_20_">
																	<use xlink:href="#SVGID_19_"  style="overflow:visible;"/>
																</clipPath>
																<g class="st14">
																	<g class="st2">
																		<path class="st10" d="M-199.8,386.4c-11.6,1.4-23.2,2.8-34.8,4.2c-6.5,0.8-13.1,1.6-19.6,2.4
																			c-0.8,0.1-1.6,0.2-2.4,0.3c-1.3,0.2-0.9-0.2-0.1,0.5c-2.3-1.9-4.5-3.8-6.8-5.7c-0.4,0.9-0.7,1.7-1.1,2.6
																			c11.6-1.4,23.1-2.8,34.7-4.2c6.1-0.7,12.2-1.5,18.2-2.2c0.5-0.1,1.1-0.1,1.6-0.2c0.4-0.1,0,0.1-0.4-0.2
																			c0.4,0.2,0.9,0.5,1.3,0.7c2.8,1.5,5.7,3.1,8.5,4.6c1.7,0.9,3.2-1.7,1.5-2.6c-3-1.6-7.9-5.9-11.5-5.5
																			c-5.8,0.7-11.5,1.4-17.3,2.1c-12.2,1.5-24.4,2.9-36.6,4.4c-1.1,0.1-2.2,1.6-1.1,2.6c2.8,2.4,5.7,6.5,9.6,6
																			c6.2-0.7,12.3-1.5,18.5-2.2c12.6-1.5,25.1-3,37.6-4.5C-197.9,389-197.8,386-199.8,386.4z"/>
																		<path class="st10" d="M-262.9,405.9c0-5.6,0-11.2,0-16.8c0-1.9-3-1.9-3,0c0,5.6,0,11.2,0,16.8
																			C-265.9,407.8-262.9,407.8-262.9,405.9L-262.9,405.9z"/>
																		<path class="st10" d="M-256.3,411.5c0-5.6,0.1-11.2,0.1-16.8c0-1.9-3-1.9-3,0c0,5.6-0.1,11.2-0.1,16.8
																			C-259.3,413.5-256.3,413.5-256.3,411.5L-256.3,411.5z"/>
																		<path class="st10" d="M-256.6,410.5c-2.2-1.9-4.5-3.8-6.7-5.8c-1.5-1.3-3.6,0.9-2.1,2.1c2.2,1.9,4.5,3.8,6.7,5.8
																			C-257.4,413.9-255.3,411.8-256.6,410.5L-256.6,410.5z"/>
																		<path class="st10" d="M-257.4,413c18.9-3.2,37.9-6.4,56.8-9.6c1.9-0.3,1.1-3.2-0.8-2.9
																			c-18.9,3.2-37.9,6.4-56.8,9.6C-260,410.4-259.3,413.4-257.4,413L-257.4,413z"/>
																		<path class="st10" d="M-199.4,402c0.4-4.7,0.7-9.5,1.1-14.2c0.1-1.9-2.9-1.9-3,0c-0.4,4.7-0.7,9.5-1.1,14.2
																			C-202.5,403.9-199.5,403.9-199.4,402L-199.4,402z"/>
																		<path class="st10" d="M-260.4,401.9c1.4-1.9,2.8-3.8,4.2-5.8c1.1-1.6-1.5-3.1-2.6-1.5c-1.4,1.9-2.8,3.8-4.2,5.8
																			C-264.3,401.9-261.6,403.4-260.4,401.9L-260.4,401.9z"/>
																		<path class="st10" d="M-256.4,411.1c-1.3-3.5-2.7-6.9-4-10.4c-0.7-1.8-3.6-1-2.9,0.8c1.3,3.5,2.7,6.9,4,10.4
																			C-258.5,413.8-255.5,412.9-256.4,411.1L-256.4,411.1z"/>
																	</g>
																</g>
															</g>
															<g>
																<g>
																	<defs>
																		<rect id="SVGID_21_" x="-268.6" y="361.1" width="71.3" height="71.7"/>
																	</defs>
																	<clipPath id="SVGID_22_">
																		<use xlink:href="#SVGID_21_"  style="overflow:visible;"/>
																	</clipPath>
																	<g class="st15">
																		<g class="st2">
																			<path class="st10" d="M-226.9,380.1c6.2,0,12.3,0,18.5,0c1.9,0,1.9-3,0-3c-6.2,0-12.3,0-18.5,0
																				C-228.8,377.1-228.8,380.1-226.9,380.1L-226.9,380.1z"/>
																			<path class="st10" d="M-228.3,378.6c-4.1,10.2-6.1,25,6.3,30c5.7,2.3,13.1-0.9,16.5-5.7
																				c5.4-7.7,0.1-16.3-1.8-24.3c-0.4-1.9-3.3-1.1-2.9,0.8c1.5,6.2,5.5,12.7,3.7,19.2c-2,7.3-11.8,9.2-17.4,5.7
																				c-8-4.9-4.2-18.1-1.5-24.9C-224.8,377.6-227.6,376.9-228.3,378.6L-228.3,378.6z"/>
																			<path class="st10" d="M-230.5,397.8c8,1.5,16.1,0.5,24.1,0.5c1.9,0,1.9-3,0-3c-7.8,0.1-15.6,1.1-23.3-0.3
																				C-231.6,394.5-232.4,397.4-230.5,397.8L-230.5,397.8z"/>
																			<path class="st10" d="M-211.6,393c1.9,0,1.9-3,0-3S-213.5,393-211.6,393L-211.6,393z"/>
																			<path class="st10" d="M-224.1,393c1.9,0,1.9-3,0-3S-226,393-224.1,393L-224.1,393z"/>
																			<path class="st10" d="M-209.4,380.3c1.8,5.3,7.6,4.3,10.9,1.1c0.6-0.6,0.5-1.5,0-2.1c-2.6-3-6.2-3.9-9.9-2.2
																				c-1.8,0.8-0.2,3.4,1.5,2.6c2.5-1.1,4.5-0.1,6.2,1.8c0-0.7,0-1.4,0-2.1c-1.6,1.5-4.9,3.3-5.9,0.3
																				C-207.3,377.6-210.1,378.4-209.4,380.3L-209.4,380.3z"/>
																			<path class="st10" d="M-227.3,377.4c-1.8-1-3.7-1.9-5.8-1.6c-2.3,0.2-3.9,1.9-5.1,3.8c-0.3,0.4-0.3,1.1,0,1.5
																				c1.5,2.2,3.8,3.6,6.5,3.9c3.1,0.3,4.9-2.3,5.2-5c0.2-1.9-2.8-1.9-3,0c-0.4,3.7-4.7,1.6-6-0.4c0,0.5,0,1,0,1.5
																				c0.7-1.1,1.5-2.2,2.9-2.3c1.4-0.1,2.8,0.6,3.9,1.3C-227.1,380.9-225.6,378.3-227.3,377.4L-227.3,377.4z"/>
																			<path class="st10" d="M-231.3,387.6c-7-0.1-20.7-3-24.3,5.5c-3,7-2.5,19.4,1.7,25.9c0.6,1,1.9,0.9,2.6,0
																				c3.9-5.3,9.2-7.6,15.7-7.5c-0.5-0.5-1-1-1.5-1.5c0.2,2.9,0.9,5.7,2.1,8.4c0.5,1.1,2.1,0.9,2.6,0
																				c1.4-2.5,5.6-6.3,8.2-2.2c0.5,0.8,0.9,1.5,1.5,2.2c1.2,1.4,3.1,1.3,4.7,1c0.5-0.1,1-0.6,1-1
																				c0.4-3.2,0.7-6.4,0.5-9.6c-0.1-1.9-3.1-1.9-3,0c0.1,1.6,0.4,10.3-2.1,5.9c-0.7-1.2-1.7-2.6-3.1-3.1
																				c-4.3-1.4-8.2,1.7-10.2,5.2c0.9,0,1.7,0,2.6,0c-1-2.2-1.5-4.5-1.7-6.9c-0.1-0.8-0.6-1.5-1.5-1.5
																				c-7.6-0.2-13.8,2.8-18.3,9c0.9,0,1.7,0,2.6,0c-3.6-5.6-3.5-14.9-2.2-21.1c1.8-8.9,15.7-5.8,22.2-5.7
																				C-229.4,390.6-229.4,387.6-231.3,387.6L-231.3,387.6z"/>
																			<path class="st10" d="M-264.6,396.9c2.6,1.8,5.6,4.3,8.7,2c1.5-1.1,0-3.7-1.5-2.6c-2,1.4-4.1-0.9-5.7-2
																				S-266.3,395.8-264.6,396.9L-264.6,396.9z"/>
																			<path class="st10" d="M-264.8,401.9c2-0.1,3.6-1.1,5.2-2.2s0.1-3.7-1.5-2.6c-1.1,0.7-2.3,1.8-3.7,1.8
																				C-266.6,398.9-266.6,401.9-264.8,401.9L-264.8,401.9z"/>
																			<path class="st10" d="M-220.4,376.6c-0.8-1.6-2.3-3.1-4.3-2.8c-1.7,0.3-2.6,2-2.9,3.5c-0.1,0.8,0.2,1.6,1,1.8
																				c0.7,0.2,1.7-0.2,1.8-1c0.1-0.4,0.1-0.7,0.3-1.1c0.1-0.3,0.2-0.3,0.3-0.3c-0.3,0.1,0.2,0.1,0,0
																				c-0.2,0,0.3,0.1,0.3,0.2c0.4,0.2,0.6,0.8,0.8,1.2C-222,379.9-219.5,378.4-220.4,376.6L-220.4,376.6z"/>
																			<path class="st10" d="M-208.9,376.4c-0.8-1.5-2-3.1-3.9-2.8c-1.6,0.3-2.3,2.1-2.5,3.5c-0.1,0.8,0.2,1.6,1,1.8
																				c0.7,0.2,1.7-0.2,1.8-1c0.1-0.3,0.2-1,0.3-1.1s0.1-0.3,0.2-0.4c-0.1,0.1-0.1,0.1,0,0c-0.2,0.1-0.2,0.1,0,0
																				c-0.2,0.1-0.3,0.1-0.5,0.1c0.1,0,0,0,0,0c0.4,0.4,0.7,0.9,0.9,1.3C-210.6,379.6-208,378.1-208.9,376.4
																				L-208.9,376.4z"/>
																			<path class="st10" d="M-250,415.3c0.5,1.9,1.1,3.7,2.7,4.9c0.5,0.4,1.4,0.2,1.8-0.2c2-2.1,3.7-5.3,4.4-8
																				c0.5-1.9-2.4-2.7-2.9-0.8c-0.6,2.3-2.1,5-3.7,6.7c0.6-0.1,1.2-0.2,1.8-0.2c-0.9-0.7-1.1-2.1-1.3-3.1
																				C-247.6,412.5-250.5,413.4-250,415.3L-250,415.3z"/>
																			<path class="st10" d="M-246.8,391c1.4,2.8-1.2,4.6-2.4,6.9c-1.4,2.8,0.4,5.3,2.7,6.9c2.6,1.8,6.3,3.6,8.9,0.8
																				c2.3-2.6,1.4-6.8,0.2-9.6c-0.3,0.7-0.6,1.5-0.9,2.2c4.2-1.4,8.1-3.2,7.9-8.3c-0.1-1.9-3.1-1.9-3,0
																				c0.1,3.5-2.9,4.4-5.7,5.4c-1,0.3-1.3,1.3-0.9,2.2c0.7,1.7,1.8,6.5-1.2,6.6c-1.8,0.1-6.5-2.7-5.3-5
																				c0.8-1.4,2-2.5,2.6-4c0.8-1.9,0.5-3.8-0.4-5.6C-244.9,387.9-247.5,389.4-246.8,391L-246.8,391z"/>
																			<path class="st10" d="M-218,402.3c1.9,0,1.9-3,0-3C-220,399.3-220,402.3-218,402.3L-218,402.3z"/>
																			<path class="st10" d="M-215.6,402.3c1.9,0,1.9-3,0-3C-217.6,399.3-217.6,402.3-215.6,402.3L-215.6,402.3z"/>
																		</g>
																	</g>
																</g>
																<g>
																	<g>
																		<defs>
																			<rect id="SVGID_23_" x="-268.6" y="361.1" width="71.3" height="71.7"/>
																		</defs>
																		<clipPath id="SVGID_24_">
																			<use xlink:href="#SVGID_23_"  style="overflow:visible;"/>
																		</clipPath>
																		<g class="st16">
																			<g class="st2">
																				<path class="st10" d="M-240.9,392.1c0-4.1,4-4.5,7.3-4.3c4.2,0.2,6.5,2.9,8.9,6.2c1.5,2.1,6.1,9.2,2.3,10.8
																					c-3.1,1.3-6.7,1.3-10,1.3c-1.5,0-10.9-0.4-7.8-4.3c1.8-2.3,5-3.6,6-6.5c2.6-7.4-4-8.2-9-4.5
																					c-1.5,1.1,0,3.8,1.5,2.6c0.5-0.4,4.9-3.8,5.2-1.1c0.2,1.7-1.4,3.3-2.5,4.3c-1.3,1.3-3.1,2.4-4.1,4
																					c-1.7,2.8-0.4,5.7,2.5,7.1c5.4,2.5,16.7,2.6,21.5-1.5c2.5-2.1,0.3-7.1-0.6-9.4c-1.6-3.8-5.1-9.4-9.1-11
																					c-5.7-2.3-15.1-1.5-15.1,6.3C-243.9,394.1-240.9,394.1-240.9,392.1L-240.9,392.1z"/>
																			</g>
																		</g>
																	</g>
																	<g>
																		<g>
																			<defs>
																				<rect id="SVGID_25_" x="-268.6" y="361.1" width="71.3" height="71.7"/>
																			</defs>
																			<clipPath id="SVGID_26_">
																				<use xlink:href="#SVGID_25_"  style="overflow:visible;"/>
																			</clipPath>
																			<g class="st17">
																				<g class="st2">
																					<path class="st10" d="M-232.8,411c0.2,5.9,0.5,11.8,0.7,17.7c0.1,1.9,3.1,1.9,3,0c-0.2-5.9-0.5-11.8-0.7-17.7
																						C-229.8,409.1-232.8,409.1-232.8,411L-232.8,411z"/>
																					<path class="st10" d="M-244.5,398.6c3.6,2,6.8,4.3,9.7,7.2c1.4,1.1,1.8,2.7,0.9,4.7c-1.1-0.2-2.1-0.6-3.1-0.9
																						c-1.9-0.6-3.6-1.7-5.3-2.8c-2.3-1.5-4.3-3.7-5.9-5.9c-0.4-0.5-0.7-1-1-1.6
																						C-250.6,396.6-245.5,398.3-244.5,398.6c1.8,0.7,3.3-1.8,1.5-2.6c-3.2-1.4-10.6-2.7-9.4,3.1
																						c0.7,3.7,5.1,7.6,7.9,9.7c2.6,1.9,12.8,8.2,14.8,2.6c2.3-6.7-8.5-12.8-13.2-15.4
																						C-244.8,395-246.3,397.6-244.5,398.6z"/>
																					<path class="st10" d="M-243.8,385c2.7,2,5.1,4.2,7.4,6.7c0.7,0.8,1.3,1.6,1.9,2.4c1.2,1.1,1,2.4-0.5,3.8
																						c-1.7-0.5-3.4-1.5-5-2.4c-2.9-1.7-5.2-4.2-6.9-7c-0.8-1.2-1.3-2.6-1.8-4C-249.6,382.1-244.4,384.6-243.8,385
																						c1.7,1,3.2-1.6,1.5-2.6c-2.7-1.6-10.3-3.8-9.6,2c0.7,5.4,5.3,10.2,9.5,13.2c3.3,2.3,10.9,6.5,12.1-0.1
																						c0.5-2.6-1.9-5.1-3.4-7c-2.5-3.1-5.5-5.8-8.7-8.1C-243.9,381.3-245.4,383.9-243.8,385z"/>
																					<path class="st10" d="M-228.3,409.9c-4.2-0.7,4.2-7.5,5.1-8.2c2.7-2,6.1-4.1,9.6-4.4c2.5-0.2-0.6,3.9-0.8,4.2
																						c-1.3,1.6-2.8,2.9-4.4,4.1c-2.7,2.1-6.3,4.3-9.8,4.2c-1.9-0.1-1.9,2.9,0,3c5.7,0.2,11.3-4.2,15.2-7.9
																						c2.5-2.4,7-9.5,0.8-10.5c-5.3-0.9-11.7,4.2-15.4,7.4c-3.1,2.6-7.8,9.8-1,11
																						C-227.3,413-226.4,410.1-228.3,409.9z"/>
																					<path class="st10" d="M-231.3,386.9c-4.4,4-4-22.8-0.3-19.7c2.3,2,2.3,6.9,2.4,9.6c0.1,3.4-0.2,7.6-2.4,10.4
																						c-1.2,1.5,1.4,3,2.6,1.5c3.3-4.3,3.2-11.3,2.4-16.4c-0.6-3.7-3.5-11.7-8.2-7.2c-3.8,3.6-3.3,12.3-2.9,16.9
																						c0.5,4.4,3.4,11.6,8.4,7C-227.6,387.8-229.8,385.6-231.3,386.9z"/>
																					<path class="st10" d="M-228.4,397.5c-3.9,0.1,2.9-8.1,3.5-8.8c2.4-2.6,5.5-5.3,9-6.2c2.1-0.6,0,3.8-0.1,4.1
																						c-1,1.9-2.4,3.6-3.8,5.1c-2.3,2.5-5.4,5.3-9,5.8c-1.9,0.3-1.1,3.2,0.8,2.9c5.7-0.8,10.7-6.5,13.8-11
																						c2-2.9,4.4-10.9-1.9-9.9c-5.6,0.9-10.6,6.4-13.9,10.7c-2.5,3.3-4.9,10.4,1.6,10.3
																						C-226.4,400.5-226.4,397.5-228.4,397.5z"/>
																				</g>
																			</g>
																		</g>
																		<g>
																			<g>
																				<defs>
																					<rect id="SVGID_27_" x="-268.6" y="361.1" width="71.3" height="71.7"/>
																				</defs>
																				<clipPath id="SVGID_28_">
																					<use xlink:href="#SVGID_27_"  style="overflow:visible;"/>
																				</clipPath>
																				<g id="Layer_4" class="st18">
																					<g class="st2">
																						<g>
																							<path class="st10" d="M-236.1,421.3c0.1-11.4,0.3-22.9,0.4-34.3c0-1.9-3-1.9-3,0
																								c-0.1,11.4-0.3,22.9-0.4,34.3C-239.1,423.3-236.1,423.3-236.1,421.3L-236.1,421.3z"/>
																						</g>
																					</g>
																					<g class="st2">
																						<g>
																							<path class="st10" d="M-207.1,379.6c0.3,10.1,0.7,20.2,0.2,30.3c-0.1,1.1-0.5,1.3,0.2,0.8
																								c-0.6,0.4-1.4,0.7-2.1,0.9c-2.6,1-5.3,1.9-8,2.7c-6.2,2-12.5,3.9-18.8,5.4c-4.4,1-9.5-2.4-13.4-4.1
																								c-2.3-1-4.6-2-6.9-3c-1.2-0.5,0.2,1.7,0.2,0.7c0-0.8,0-1.6,0-2.5c0-10,0-20,0-30c0-1.9-3-1.9-3,0
																								c0,10.9,0,21.8,0,32.8c0,0.5,0.3,1.1,0.7,1.3c3.4,1.5,6.8,3,10.3,4.5c3,1.3,6.7,3.6,10,3.7
																								c3.2,0.1,6.9-1.5,10-2.4c5.4-1.5,10.8-3.2,16.2-5c1.8-0.6,6.1-1.4,7.2-3.3c1.2-2.1,0.6-6,0.6-8.2
																								c0.1-8.2-0.1-16.5-0.3-24.7C-204.1,377.6-207.1,377.6-207.1,379.6L-207.1,379.6z"/>
																						</g>
																					</g>
																					<g class="st2">
																						<g>
																							<path class="st10" d="M-237.3,385.4c-4.5-0.1-9.6-2.7-13.8-4.2c-2.7-1-5.4-2.1-7.9-3.5
																								c-1.5-0.9-0.7,0.1-1.1,0.3c0.9-0.5,1.9-0.8,2.9-1.1c5.3-1.7,10.9-2.8,16.4-3.8c4.1-0.8,8.7-2,12.9-1.3
																								c5.4,1,10.8,2.6,16.1,4.3c2.4,0.8,4.8,1.6,7,2.8c0.8,0.4,1.2-1.4,0-0.7c-0.9,0.5-2,0.7-3,1
																								C-217,381.9-227.5,384.8-237.3,385.4c-1.9,0.1-1.9,3.1,0,3c5.5-0.4,11-1.9,16.4-3c5.9-1.3,12.5-2.2,18-4.9
																								c4.4-2.2-1.9-5.1-3.7-5.8c-6.7-2.7-14-4.7-21.1-5.9c-5.1-0.9-10.9,0.8-15.9,1.8c-5.7,1.1-13.2,1.8-18.3,5
																								c-4.4,2.7,4.3,6.2,5.8,6.9c5.5,2.4,12.6,5.9,18.7,6C-235.3,388.5-235.3,385.5-237.3,385.4z"/>
																						</g>
																					</g>
																					<g class="st2">
																						<g>
																							<path class="st10" d="M-235.8,409.4c2.4-8.1,10.8-7.2,17.6-8.3c5.5-0.8,11.5-3.3,14.2-8.4
																								c0.9-1.7-1.7-3.2-2.6-1.5c-6.7,12.7-27.5,1.8-32.1,17.3C-239.3,410.4-236.3,411.3-235.8,409.4L-235.8,409.4z
																								"/>
																						</g>
																					</g>
																				</g>
																			</g>
																			<g>
																				<g>
																					<defs>
																						<rect id="SVGID_29_" x="-268.6" y="361.1" width="71.3" height="71.7"/>
																					</defs>
																					<clipPath id="SVGID_30_">
																						<use xlink:href="#SVGID_29_"  style="overflow:visible;"/>
																					</clipPath>
																					<g class="st19">
																						<g class="st2">
																							<path class="st10" d="M-224.8,400.9c-0.5,9.7-14.5,9.7-15,0S-225.3,391.3-224.8,400.9c0.1,1.9,3.1,1.9,3,0
																								c-0.3-5.9-4.6-10.2-10.5-10.5s-10.2,5-10.5,10.5c-0.3,5.9,5,10.2,10.5,10.5c5.9,0.3,10.2-5,10.5-10.5
																								C-221.6,398.9-224.6,398.9-224.8,400.9z"/>
																							<path class="st10" d="M-222.9,383.5c-0.6-6-3-15.1-10.3-16c-8.8-1.1-14.7,6.5-18.5,13.3s-7.6,14.9-8.7,22.6
																								c-0.4,3.2,0,6.2,1.9,8.8c2,2.8,6,2.2,9,2c6.3-0.4,10.7,4.8,15.1,8.4c2.8,2.3,6,4.1,9.5,4.9
																								c7.1,1.7,16-0.7,20.6-6.5c5.1-6.4,2.1-15.9-1.5-22.2c-1.7-3.1-4.1-5.2-7.2-6.9c-4.2-2.3-8.9-3.6-10-8.8
																								c-0.4-1.9-3.3-1.1-2.9,0.8c1,4.7,4.3,7.1,8.4,9.1c2.5,1.3,5.1,2.4,7.1,4.4c2.7,2.6,4.2,7.2,5.2,10.7
																								c2.5,9.4-4,15.5-12.8,16.7s-13.8-4.3-20.1-9.3c-4.7-3.8-9.2-4.3-15-4.1c-9.3,0.3-1.8-16.7-0.2-20.3
																								c2.6-5.9,5.2-11.9,9.7-16.7c2.9-3.1,7.7-5.4,11.9-3.4s5.4,8.3,5.9,12.4
																								C-225.8,385.4-222.8,385.4-222.9,383.5L-222.9,383.5z"/>
																						</g>
																					</g>
																				</g>
																				<g>
																					<g>
																						<defs>
																							<rect id="SVGID_31_" x="-268.6" y="361.1" width="71.3" height="71.7"/>
																						</defs>
																						<clipPath id="SVGID_32_">
																							<use xlink:href="#SVGID_31_"  style="overflow:visible;"/>
																						</clipPath>
																						<g id="Layer_5" class="st20">
																							<g class="st2">
																								<g>
																									<path class="st10" d="M-235.1,367.8c2.2,0,4.4,0,6.6,0c1.9,0,1.9-3,0-3c-2.2,0-4.4,0-6.6,0
																										C-237.1,364.8-237.1,367.8-235.1,367.8L-235.1,367.8z"/>
																								</g>
																							</g>
																							<g class="st2">
																								<g>
																									<path class="st10" d="M-228.3,367.8c-0.3,0-0.3-0.2-0.1,0.2c0.1,0.2,0.2,0.7,0.2,1.1s-0.1,0.7-0.3,1.1
																										c-0.1,0.2-0.1,0.1-0.3,0.3c0.1,0,0.1,0-0.1,0c0.2,0-0.4,0-0.3,0c-1.9-0.1-1.9,2.9,0,3
																										c5.2,0.3,5.3-9.4,0.1-8.5C-230.9,365.1-230,368-228.3,367.8L-228.3,367.8z"/>
																								</g>
																							</g>
																							<g class="st2">
																								<g>
																									<path class="st10" d="M-234.8,364.9c-5.2-0.9-5.1,8.8,0.1,8.5c1.9-0.1,1.9-3.1,0-3c-0.7,0-0.9-0.4-1-1.2
																										c0-0.5,0-0.8,0.2-1.3c0,0,0.1-0.2,0.2-0.2c-0.2,0.2,0,0.1-0.3,0.1C-233.8,368-232.9,365.1-234.8,364.9
																										L-234.8,364.9z"/>
																								</g>
																							</g>
																							<g class="st2">
																								<g>
																									<path class="st10" d="M-228.9,372.9c3.4,3.1,9.5,3.7,10.7,8.6c0.7,2.8,0.8,7-1.3,9.1c-1,1.1-2,2.1-3,3.2
																										c-0.5,0.5-0.5,1.2-0.2,1.8c1.6,3.6,3.3,6.3,2.4,10.4c-0.9,4.3-1.3,8-0.8,12.4c0.3,2.3,0.9,4.5,1.7,6.7
																										c0.3,0.8-4.4,1.4-4.8,1.5c-2.1,0.3-4.3,0.3-6.5,0.3c-1.9,0-3.7-0.1-5.6-0.2c-1.6-0.1-3.1-0.4-4.6-0.8
																										c-2.2-0.6,0-4.2,0.1-5.9c0.3-4.2,0-8.5-1-12.6c-0.6-2.5-1.1-4.5,0.1-7c0.7-1.6,1.4-3.1,2.1-4.7
																										c0.3-0.6,0.3-1.3-0.2-1.8c-1-1.1-2-2.1-3-3.2c-2.2-2.3-1.8-6.2-1.3-9.1c0.8-4.7,6.9-5.7,10.1-8.6
																										c1.4-1.3-0.7-3.4-2.1-2.1c-4.6,4.2-9.9,4.3-11.1,11.2c-0.4,2.4-0.6,7.7,1.2,9.7c1.4,1.4,2.7,2.9,4.1,4.3
																										c-0.1-0.6-0.2-1.2-0.2-1.8c-1.4,3.2-3.8,6.6-3.2,10.2c1.2,7.4,2.1,13,0.4,20.5c-1.3,5.5,11.4,5.1,14.3,5.1
																										c2.9-0.1,15.6,0.5,14.3-5.1c-0.8-3.5-1.9-6.6-2.1-10.3c-0.1-3.1,0.7-6,1.3-9c0.9-4.4-1.3-7.5-3-11.4
																										c-0.1,0.6-0.2,1.2-0.2,1.8c1.3-1.4,2.6-2.8,3.9-4.1c2-2.1,1.7-6.8,1.4-9.4c-0.7-7.4-6.9-7.3-11.7-11.6
																										C-228.3,369.4-230.3,371.5-228.9,372.9L-228.9,372.9z"/>
																								</g>
																							</g>
																							<g class="st2">
																								<g>
																									<path class="st10" d="M-243.9,405.6c8.5,0,17,0,25.4,0c1.9,0,1.9-3,0-3c-8.5,0-17,0-25.4,0
																										C-245.8,402.6-245.8,405.6-243.9,405.6L-243.9,405.6z"/>
																								</g>
																							</g>
																							<g class="st2">
																								<g>
																									<path class="st10" d="M-242.4,422.1c7.7,0,15.4,0,23.1,0c1.9,0,1.9-3,0-3c-7.7,0-15.4,0-23.1,0
																										C-244.3,419.1-244.3,422.1-242.4,422.1L-242.4,422.1z"/>
																								</g>
																							</g>
																							<g class="st2">
																								<g>
																									<path class="st10" d="M-232.3,415.9c0.3,0.4,0.4,0.4,0.3-0.1c0-0.6,0.1-1.2,0.2-1.8
																										c0.3-1.3,0.9-2.5,1.7-3.7c0.3-0.4,0.7-0.8,1-1.1c0.4-0.3-0.9-1.1-0.9-0.2c0.1,1.2-0.4,2.5-0.9,3.6
																										c-0.7,1.8,2.2,2.6,2.9,0.8c0.7-1.6,1.7-4.5,0.6-6.2c-0.9-1.5-2.6-1.2-3.8-0.1c-1.8,1.6-2.9,3.8-3.5,6.1
																										c-0.5,1.7-0.6,4,0.9,5.2C-232.3,419.8-230.8,417.1-232.3,415.9L-232.3,415.9z"/>
																								</g>
																							</g>
																							<g class="st2">
																								<g>
																									<path class="st10" d="M-232.4,417c2-1.9,5.2-3.1,7.9-3.2c-0.5-0.6-1-1.3-1.4-1.9c-0.2,0.9-1.9,1.4-2.7,1.8
																										c-1.7,0.7-3.4,1.4-5.1,2.3c-1.7,0.9-0.2,3.5,1.5,2.6c1.9-1,3.8-1.7,5.8-2.6c1.4-0.6,3.1-1.6,3.4-3.3
																										c0.2-0.9-0.4-1.9-1.4-1.9c-3.5,0.2-7.4,1.6-10,4.1C-235.9,416.3-233.8,418.4-232.4,417L-232.4,417z"/>
																								</g>
																							</g>
																							<g class="st2">
																								<g>
																									<path class="st10" d="M-231.5,410.3c-1.1-1.2-2.2-2-3.8-1.4c-1.4,0.5-3,1.7-4,2.8c-0.9,1-0.3,2.5,1.1,2.6
																										c0.6,0,2.3-0.6,2.7-0.1c0.6,0.8,0.8,1.9,1,2.8c0.5,1.9,3.4,1.1,2.9-0.8c-0.4-1.4-0.8-2.9-1.7-4.1
																										c-0.5-0.7-1.3-1-2.1-1.1c-0.9-0.1-1.8,0.3-2.7,0.2c0.4,0.9,0.7,1.7,1.1,2.6c0.6-0.7,1.3-1.1,2-1.6
																										c0.3-0.2,0.6-0.5,1-0.6c-0.2,0.1,0.3,0.5,0.5,0.7C-232.4,413.8-230.3,411.6-231.5,410.3L-231.5,410.3z"/>
																								</g>
																							</g>
																						</g>
																					</g>
																					<g>
																						<g>
																							<defs>
																								<rect id="SVGID_33_" x="-268.6" y="361.1" width="71.3" height="71.7"/>
																							</defs>
																							<clipPath id="SVGID_34_">
																								<use xlink:href="#SVGID_33_"  style="overflow:visible;"/>
																							</clipPath>
																							<g class="st21">
																								<g class="st2">
																									<path class="st10" d="M-239.6,385.4c0.7-2.9,3.1-16,7.7-13.9c4.4,1.9,8,10,8.6,14.5
																										c0.1,0.6,0.8,1.2,1.4,1.1c4.6-0.5,10.4-1.4,14.7,0.7c5.1,2.4-6.5,13.4-8.9,14.7c-0.6,0.3-0.8,1-0.7,1.7
																										c0.9,4.1,1.4,8.3,1.1,12.5c-0.6,8.6-13.4-1.6-15.7-5c-0.5-0.8-1.6-1-2.4-0.3c-3.3,3.2-7,6.5-11.2,8.2
																										c-6.2,2.5-3.9-13.6-2.5-16.5c0.3-0.6,0.3-1.4-0.2-1.8c-3.8-3.3-7.6-7-10.1-11.4
																										c-3.5-6.3,13.5-3.6,16.6-3.2c1.9,0.2,1.9-2.8,0-3c-5-0.6-18-3.8-20.2,3.1c-1.8,5.7,7.9,13.4,11.5,16.6
																										c-0.1-0.6-0.2-1.2-0.2-1.8c-2.2,4.6-4.6,18.4,1.8,21c5.5,2.2,13.1-5.6,16.6-9c-0.8-0.1-1.6-0.2-2.4-0.3
																										c3,4.5,13.4,13.4,19.1,9.1c4.6-3.5,1.9-14.2,1-18.9c-0.2,0.6-0.5,1.1-0.7,1.7c4.5-2.4,13.2-10.8,11.4-16.6
																										c-2.1-6.7-13.5-4.9-18.7-4.3c0.5,0.4,1,0.7,1.4,1.1c-0.9-5.8-5.6-15.4-11.8-16.9
																										c-6.9-1.7-9.4,12.1-10.4,16.4C-242.9,386.4-240,387.3-239.6,385.4L-239.6,385.4z"/>
																									<path class="st10" d="M-242.8,390.1c-2.3,2.5-2.4,4.9-0.7,7.8c2.3,3.9-1,7.6,2.6,11.2
																										c2.4,2.4,5.8,0.6,7.9-1c1.5-1.1,5.6,0.4,7.5,0.4c1.6,0,3.4-0.8,4.5-1.9c0.7-0.7,1.6-2.1,1.6-3.2
																										c-0.1-1.8-2-4.1-1.7-5.7c0.8-3.4,0.7-6.2-1.8-8.9c-2.2-2.3-6.7-0.9-9.4-1.9c-4.3-1.6-6.4,0.7-10.2,2.8
																										c-1.7,0.9-0.2,3.5,1.5,2.6c1.1-0.6,6.1-3.1,6.7-2.9c2.1,0.5,3.5,1.4,5.7,1.3c3.8-0.2,5.8,2.3,4.5,6.1
																										c-0.5,1.5-0.1,2.7,0.6,4c3.4,6.5-7.8,2.8-11.1,4.5c-2.8,1.5-5.9-1.1-5.2-4.2c0.1-0.6,0.2-1.3,0.1-1.9
																										c-0.6-2.5-3.4-4.6-1.1-7.2C-239.4,390.9-241.5,388.8-242.8,390.1z"/>
																									<path class="st10" d="M-231.9,400.5c0.8-1.1,1.7-2.2,2.2-3.4c0.4-0.7,0.2-1.6-0.5-2.1
																										c-0.7-0.4-1.7-0.2-2.1,0.5c-0.6,1.2-1.5,2.3-2.2,3.4c-0.5,0.7-0.1,1.7,0.5,2.1
																										C-233.3,401.5-232.4,401.1-231.9,400.5L-231.9,400.5z"/>
																									<path class="st10" d="M-235.5,397.4c1.5,1.4,3.4,2.4,5,3.7c0.6,0.5,1.7,0.1,2.1-0.5
																										c0.5-0.8,0.1-1.6-0.5-2.1c-1.4-1.1-3.1-1.9-4.4-3.2C-234.8,393.9-236.9,396-235.5,397.4L-235.5,397.4z"/>
																									<path class="st10" d="M-233.8,395.4c0.1,0.6,0.2,1.2,0.4,1.7c0.3,0.8,1,1.3,1.8,1c0.7-0.2,1.3-1.1,1-1.8
																										c-0.2-0.6-0.3-1.1-0.4-1.7c-0.2-0.8-1.1-1.3-1.8-1C-233.5,393.9-233.9,394.6-233.8,395.4L-233.8,395.4z"/>
																								</g>
																							</g>
																						</g>
																						<g>
																							<g>
																								<defs>
																									<rect id="SVGID_35_" x="-268.6" y="361.1" width="71.3" height="71.7"/>
																								</defs>
																								<clipPath id="SVGID_36_">
																									<use xlink:href="#SVGID_35_"  style="overflow:visible;"/>
																								</clipPath>
																								<g id="Layer_6" class="st22">
																									<g class="st2">
																										<g>
																											<path class="st10" d="M-208.6,391.9c-0.3,1.4-0.6,2.9-1,4.3c-0.2,0.9-0.4,1.7-0.6,2.6
																												c-0.3,1.5-0.8,1.4,0.3,0.8c-2,1.1-4.1,2.1-6.1,3.2c-7.3,3.9-14.7,7.7-22,11.6c-0.8,0.4-1.5,0.8-2.3,1.2
																												c-0.6,0.3,2,0.4,1.1-0.1c-0.6-0.3-1.2-0.6-1.8-0.9c-3.6-1.9-7.3-3.7-10.9-5.6c-0.5-0.3-1-0.5-1.5-0.8
																												c-1-0.5,0.1,0.5-0.1,0c-0.7-1.4-1.4-2.8-2.1-4.3c-1.4-3-2.8-5.9-4.3-8.9c-0.8-1.7-3.4-0.2-2.6,1.5
																												c2.3,4.9,4,12.4,9,15c3.8,2,7.7,3.9,11.5,5.9c1.9,1,2.6,0.9,4.5-0.1c7.9-4.1,15.8-8.3,23.7-12.4
																												c1.7-0.9,4.4-1.7,5.8-3.1c1.7-1.7,1.8-7,2.3-9.3C-205.3,390.8-208.1,389.9-208.6,391.9L-208.6,391.9z"/>
																										</g>
																									</g>
																									<g class="st2">
																										<g>
																											<path class="st10" d="M-264.4,396.1c5.7,2.7,11.4,5.4,17.2,8.1c4,1.9,6.3,4.1,10.3,2.3
																												c11.9-5.3,23.9-10.5,35.8-15.8c1-0.4,1-2.1,0-2.6c-5.9-2.7-11.8-5.4-17.6-8.2c-3.3-1.5-7.3-4.8-10.8-3.1
																												c-11.6,5.5-23.2,11.1-34.8,16.6c-1.7,0.8-0.2,3.4,1.5,2.6c11.2-5.3,22.4-10.7,33.5-16
																												c0.7-0.3,1.4-0.7,2.1-1c1.2-0.6-2-0.6-0.4,0.1c2.7,1.3,5.5,2.5,8.2,3.8c5.6,2.6,11.2,5.2,16.8,7.8
																												c0-0.9,0-1.7,0-2.6c-11.4,5-22.9,10.1-34.3,15.1c-0.9,0.4-1.8,0.8-2.6,1.2c-1.5,0.7-0.6-0.1,0.5,0.4
																												c-2.2-1.1-4.5-2.1-6.7-3.2c-5.7-2.7-11.4-5.4-17.2-8.2C-264.5,392.6-266.1,395.3-264.4,396.1
																												L-264.4,396.1z"/>
																										</g>
																									</g>
																									<g class="st2">
																										<g>
																											<path class="st10" d="M-248.4,394.4c2.7,1.3,5.3,2.5,8,3.8c1.7,0.8,3,1.9,4.8,1.1
																												c5.5-2.4,11.1-4.9,16.6-7.3c1-0.4,1-2.1,0-2.6c-2.8-1.3-5.5-2.6-8.3-3.8c-1.5-0.7-3.4-2.2-5-1.4
																												c-5.3,2.6-10.7,5.1-16,7.7c-1.7,0.8-0.2,3.4,1.5,2.6c5-2.4,9.9-4.7,14.9-7.1c1.9-0.9,0.6-0.3,0.2-0.5
																												c1.2,0.6,2.5,1.2,3.7,1.7c2.5,1.2,5,2.3,7.5,3.5c0-0.9,0-1.7,0-2.6c-5.1,2.2-10.1,4.5-15.2,6.7
																												c-0.6,0.3-1.2,0.5-1.8,0.8c1-0.5,1.9,0.2,0.7-0.4c-0.7-0.3-1.3-0.6-2-0.9c-2.7-1.3-5.3-2.5-8-3.8
																												C-248.8,391-250.3,393.6-248.4,394.4L-248.4,394.4z"/>
																										</g>
																									</g>
																									<g class="st2">
																										<g>
																											<path class="st10" d="M-238.3,417c-0.3-3.2-0.5-6.4-0.8-9.6c-0.2-1.9-3.2-1.9-3,0
																												c0.3,3.2,0.5,6.4,0.8,9.6C-241,418.9-238,418.9-238.3,417L-238.3,417z"/>
																										</g>
																									</g>
																								</g>
																							</g>
																							<g>
																								<g>
																									<defs>
																										<rect id="SVGID_37_" x="-268.6" y="361.1" width="71.3" height="71.7"/>
																									</defs>
																									<clipPath id="SVGID_38_">
																										<use xlink:href="#SVGID_37_"  style="overflow:visible;"/>
																									</clipPath>
																									<g id="Layer_7" class="st23">
																										<g class="st2">
																											<g>
																												<path class="st10" d="M-237.1,408.3c-1.3,3-2.6,5.9-4,8.9c-0.8,1.8,1.8,3.3,2.6,1.5
																													c1.3-3,2.6-5.9,4-8.9C-233.8,408-236.3,406.5-237.1,408.3L-237.1,408.3z"/>
																											</g>
																										</g>
																										<g class="st2">
																											<g>
																												<path class="st10" d="M-231.1,393.5c-1.3,3-2.6,5.9-4,8.9c-0.8,1.8,1.8,3.3,2.6,1.5
																													c1.3-3,2.6-5.9,4-8.9C-227.8,393.4-230.3,391.9-231.1,393.5L-231.1,393.5z"/>
																											</g>
																										</g>
																										<g class="st2">
																											<g>
																												<path class="st10" d="M-234.5,385.4c2.5-0.3,3.8,1.6,4.7,3.7c0.8,1.8,3.4,0.2,2.6-1.5
																													c-1.3-3-3.8-5.5-7.3-5.1C-236.4,382.6-236.5,385.6-234.5,385.4L-234.5,385.4z"/>
																											</g>
																										</g>
																										<g class="st2">
																											<g>
																												<path class="st10" d="M-222.4,375.4c-2.8,2.9-4.6,6.8-5.6,10.7c-0.5,1.9,2.4,2.7,2.9,0.8
																													c0.9-3.4,2.4-6.8,4.8-9.3C-218.9,376-221.1,373.9-222.4,375.4L-222.4,375.4z"/>
																											</g>
																										</g>
																										<g class="st2">
																											<g>
																												<path class="st10" d="M-218.9,384.4c-3.7-0.3-6.5,1.6-9.6,3.4c-1.7,1-0.2,3.6,1.5,2.6
																													c2.6-1.5,4.9-3.2,8.1-3C-217,387.6-217,384.6-218.9,384.4L-218.9,384.4z"/>
																											</g>
																										</g>
																									</g>
																								</g>
																								<g>
																									<g>
																										<defs>
																											<rect id="SVGID_39_" x="-268.6" y="361.1" width="71.3" height="71.7"/>
																										</defs>
																										<clipPath id="SVGID_40_">
																											<use xlink:href="#SVGID_39_"  style="overflow:visible;"/>
																										</clipPath>
																										<g class="st24">
																											<g class="st2">
																												<path class="st10" d="M-234.5,389.4c5.1-4.4,9.3-9.7,15.7-12.3c7.7-3,14.9,3,15.5,10.7
																													c0.6,8.6-6.8,12.5-14.2,13c-5.6,0.4-10,0.9-14.6,4.5c-4.8,3.8-7,9.4-13.1,11.7
																													c-7.2,2.7-16.2-1.3-16.2-9.5c-0.1-8.1,6.9-13.3,14.3-13.7C-242,393.5-238.3,393.3-234.5,389.4
																													c1.4-1.4-0.8-3.5-2.1-2.1c-5.9,6-15.2,1.6-21.5,7.3c-5,4.6-7.9,11.8-5.4,18.5c2.2,5.9,9.3,7.8,14.9,7.6
																													c8.2-0.2,12.7-6.9,17.7-12.2c6.6-7.1,17.2-2.5,24.8-7.9c5.7-4.1,6.9-12,4.7-18.3
																													c-2.2-6.2-8.8-9.3-15.1-8.7c-8.4,0.8-14.1,8.7-20,13.7C-238.1,388.4-235.9,390.5-234.5,389.4z"/>
																												<path class="st10" d="M-203.5,380.1c-5-0.4-10.2,0.3-15,1.6c-5.8,1.5-9.5,6.3-13.6,10.3
																													c-3,2.8-6.3,4.6-10.3,5.5c-3.6,0.9-7.3-0.4-11,0.6c-5,1.4-7.6,6.8-9.5,11.1c-0.8,1.8,1.8,3.3,2.6,1.5
																													c2.8-6.4,5.9-10.6,13.6-10.1c5.1,0.4,10.2-1.2,14.2-4.4c4.5-3.6,8.1-9.3,13.6-11.3
																													c4.7-1.7,10.3-2.2,15.3-1.8C-201.6,383.3-201.6,380.3-203.5,380.1L-203.5,380.1z"/>
																												<path class="st10" d="M-201.1,387.5c-3.5-1.6-6.8-2.4-10.6-1.4c-7.2,1.9-13.2,8.2-19.1,12.3
																													c-5.6,4-28.7,8.6-25.8,19.3c0.5,1.9,3.4,1.1,2.9-0.8c-1.1-4.3,7.3-8,10.2-9.4c4.8-2.3,9.8-3.5,14.3-6.6
																													c7.9-5.3,16.3-15.5,26.6-10.9C-200.8,390.9-199.3,388.4-201.1,387.5L-201.1,387.5z"/>
																												<path class="st10" d="M-206.6,398.4c-2.7-4.6-0.7-10.1-3.3-14.7c-2-3.5-6.7-4.9-9.9-6.9
																													c-1.7-1-3.2,1.6-1.5,2.6c4.3,2.6,9.3,4,10,9.8c0.5,3.9,0,7.2,2.1,10.8
																													C-208.3,401.5-205.8,400-206.6,398.4L-206.6,398.4z"/>
																												<path class="st10" d="M-216.6,401.5c-1-3.3-1.3-6.1-3.5-8.9c-2.6-3.5-5.4-6.6-7.5-10.5
																													c-0.9-1.7-3.5-0.2-2.6,1.5c1.5,2.8,3.4,5.4,5.3,7.9c1.2,1.5,2.5,2.9,3.5,4.5c1.2,1.8,1.2,4.2,1.8,6.2
																													C-218.9,404.1-216,403.4-216.6,401.5L-216.6,401.5z"/>
																												<path class="st10" d="M-236.5,387.8c0,3.3,0,6.5,1.5,9.6c1.4,2.9,4.3,5.1,6.7,7.2
																													c1.4,1.3,3.6-0.8,2.1-2.1c-2-1.8-4.2-3.5-5.7-5.8c-1.8-2.6-1.5-5.9-1.5-8.9
																													C-233.5,385.9-236.5,385.9-236.5,387.8L-236.5,387.8z"/>
																												<path class="st10" d="M-234,410.8c0.4-8-4.8-13.9-10.9-18.4c-1.6-1.2-3,1.5-1.5,2.6
																													c5.2,3.9,9.8,8.9,9.4,15.9C-237.1,412.6-234.1,412.6-234,410.8L-234,410.8z"/>
																												<path class="st10" d="M-254.9,394.5c2.7,8.2,7.5,15.9,14.3,21.2c1.5,1.2,3.6-0.9,2.1-2.1
																													c-6.4-5-11-12.2-13.6-19.9C-252.8,391.9-255.6,392.6-254.9,394.5L-254.9,394.5z"/>
																												<path class="st10" d="M-262.4,400.8c0.8,3.9,2.6,7.3,5.2,10.3c2.8,3.3,5.4,7,9.2,9.2
																													c1.7,1,3.2-1.6,1.5-2.6c-2.9-1.8-4.9-4.5-7.1-7.1c-2.8-3.4-5.1-6.3-5.9-10.7
																													C-259.9,398.1-262.9,398.9-262.4,400.8L-262.4,400.8z"/>
																											</g>
																										</g>
																									</g>
																									<g class="st1">
																										<g class="st2">
																											<defs>
																												<rect id="SVGID_41_" x="-268.6" y="361.1" width="71.3" height="71.7"/>
																											</defs>
																											<clipPath id="SVGID_42_">
																												<use xlink:href="#SVGID_41_"  style="overflow:visible;"/>
																											</clipPath>
																											<g class="st25">
																												<g class="st2">
																													<path class="st10" d="M-241.6,407.9c-0.4,8.7-14.1,15.6-19,6.5c-0.9-1.7-3.5-0.2-2.6,1.5
																														c6.4,11.8,24,3.5,24.6-8C-238.5,405.9-241.5,405.9-241.6,407.9L-241.6,407.9z"/>
																													<path class="st10" d="M-238.9,407.6c6.7-2.6,53.9-22.3,38-33.7c-6.5-4.6-17.7,6.7-21.8,10.4
																														c-7,6.4-13.9,13.5-19.5,21.1c-1.2,1.6,1.5,3.1,2.6,1.5c4.1-5.6,9.1-10.7,14-15.6
																														c5.3-5.3,13.3-14.5,21.3-15.2c4.4-0.4,3.3,4.9,1.7,7.1c-2.9,4.1-7.8,7-12,9.6
																														c-7.9,4.8-16.5,8.6-25.1,12C-241.5,405.4-240.8,408.4-238.9,407.6L-238.9,407.6z"/>
																													<path class="st10" d="M-240.1,403.1c-7.8,3.2-16.1,5-23.3,9.6c-1.6,1-0.1,3.6,1.5,2.6
																														c7-4.4,15-6.2,22.6-9.3C-237.6,405.4-238.3,402.4-240.1,403.1L-240.1,403.1z"/>
																													<path class="st10" d="M-242.5,402.9c-6.5-8.9-17.3-0.2-18.4,8.3c-0.2,1.9,2.8,1.9,3,0
																														c0.7-5.4,8.3-13,12.8-6.8C-243.9,405.9-241.3,404.4-242.5,402.9L-242.5,402.9z"/>
																												</g>
																											</g>
																										</g>
																										<g class="st2">
																											<g>
																												<g id="Layer_8">
																												</g>
																												<g id="Layer_9">
																												</g>
																												<g id="Layer_10">
																												</g>
																											</g>
																										</g>
																									</g>
																									<g id="Layer_2_1_">
																										<g>
																											<g>
																												<path class="st10" d="M-236.9,395.4c-2.4,2.3-3.8,5.2-5,8.3c-0.9,2.2-1.1-2.7-1.1-3.4
																													c0-2.3,0.5-4.5,1.2-6.6c-0.3,0.4-0.7,0.7-1,1c1-0.4,3.9,1,4.9,1.3c1.7,0.5,3.2,0.9,4.4,2.2
																													c1.3,1.4,3.4-0.7,2.1-2.1c-2.6-2.8-7.2-3.6-10.8-4.4c-3.8-0.8-3.8,6.1-3.9,8.5
																													c-0.1,2.5,0.9,8.9,4.8,7.7c1.4-0.4,1.8-2.3,2.2-3.4c1-2.6,2.2-5,4.2-7
																													C-233.4,396.3-235.5,394.1-236.9,395.4L-236.9,395.4z"/>
																												<path class="st10" d="M-239.5,402c2.6,5,5.5,9.2,10.6,12c3.2,1.8,8.3,2.5,11.3,0
																													c0.8-0.6,1.1-2.8,0.7-3.7c-1-2.4-3.8-3.3-5.7-5c-2-1.8-3.2-5.1-4.1-7.6c-1.4-3.8,7.4,5.1,2,2.2
																													c-1.7-0.9-3.2,1.7-1.5,2.6c1.6,0.9,3.9,1.9,5.6,0.5c1.7-1.4,1.9-3.3,0.4-5c-1.7-1.9-10-8.7-10-1.8
																													c0,1.9,1.3,4.1,2.1,5.8c1.4,3.1,3.1,5.3,5.8,7.3c1.3,1,3.8,2.4,1.1,3c-2.5,0.6-5.1-0.4-7.2-1.6
																													c-4.2-2.3-6.4-6.3-8.5-10.4C-237.8,398.9-240.4,400.4-239.5,402L-239.5,402z"/>
																												<path class="st10" d="M-230,393.4c-0.7,0.2-1.4,0.5-2,0.9c-0.7,0.5-1,1.3-0.5,2.1
																													c0.4,0.7,1.4,1,2.1,0.5c0.5-0.4,0.8-0.5,1.3-0.6c0.8-0.2,1.3-1.1,1-1.8
																													C-228.4,393.8-229.3,393.3-230,393.4L-230,393.4z"/>
																												<path class="st10" d="M-228.8,393.5c-1-5.4,0.2-10.7-0.8-16c-0.6-3.1-3.8-5.1-6.7-3.4
																													c-6.2,3.6-6.4,11.9-5.8,18.3c0.2,1.9,3.2,1.9,3,0c-0.4-4.3-0.4-8.9,1.4-13c0.6-1.3,3.9-4.8,5.2-1.1
																													c0.6,1.6,0.2,3.8,0,5.5c-0.3,3.5,0.1,7,0.8,10.5C-231.3,396.3-228.5,395.4-228.8,393.5L-228.8,393.5z"
																													/>
																											</g>
																										</g>
																									</g>
																								</g>
																							</g>
																						</g>
																					</g>
																				</g>
																			</g>
																		</g>
																	</g>
																</g>
															</g>
														</g>
													</g>
												</g>
											</g>
										</g>
									</g>
								</g>
							</g>
						</g>
					</g>
				</g>
			</g>
		</g>
	</g>
</g>
<rect x="-538" y="722" class="st26" width="71.3" height="71.7"/>
<rect x="-538" y="722" class="st26" width="71.3" height="71.7"/>
<rect x="-538" y="722" class="st26" width="71.3" height="71.7"/>
<rect x="-538" y="722" class="st26" width="71.3" height="71.7"/>
<rect x="-538" y="722" class="st26" width="71.3" height="71.7"/>
<rect x="-538" y="722" class="st26" width="71.3" height="71.7"/>
</svg>
