<!-- Generated by IcoMoon.io -->
<svg version="1.1" xmlns="http://www.w3.org/2000/svg" width="72" height="72" viewBox="0 0 72 72">
<title>BROWN_SUG</title>
<path d="M31.464 47.131c-1.317 2.953-2.634 5.906-3.952 8.859-0.781 1.75 1.804 3.277 2.591 1.514 1.317-2.953 2.634-5.906 3.952-8.859 0.78-1.75-1.804-3.278-2.591-1.514v0zM37.528 32.416c-1.316 2.951-2.633 5.903-3.951 8.856-0.78 1.75 1.805 3.277 2.592 1.514 1.316-2.951 2.633-5.904 3.951-8.856 0.78-1.751-1.805-3.278-2.592-1.514v0zM34.059 24.335c2.476-0.271 3.798 1.611 4.712 3.665 0.785 1.765 3.369 0.236 2.59-1.515-1.314-2.955-3.823-5.531-7.302-5.15-1.902 0.208-1.922 3.21 0 3v0zM46.214 14.167c-2.777 2.923-4.568 6.804-5.592 10.672-0.496 1.873 2.398 2.667 2.893 0.798 0.892-3.369 2.396-6.798 4.82-9.349 1.332-1.402-0.786-3.526-2.121-2.121v0zM49.678 23.339c-3.7-0.283-6.512 1.626-9.567 3.408-1.67 0.974-0.16 3.567 1.514 2.59 2.592-1.511 4.906-3.239 8.054-2.999 1.929 0.148 1.915-2.853-0.001-2.999v0z"></path>
</svg>
