<!-- Generated by IcoMoon.io -->
<svg version="1.1" xmlns="http://www.w3.org/2000/svg" width="72" height="72" viewBox="0 0 72 72">
<title>BUTTER</title>
<path d="M68.833 25.158c-11.593 1.4-23.187 2.8-34.779 4.2-6.539 0.79-13.078 1.579-19.616 2.369-0.791 0.096-1.582 0.191-2.373 0.287-1.259 0.152-0.906-0.213-0.079 0.481-2.252-1.89-4.505-3.781-6.758-5.671-0.354 0.854-0.707 1.707-1.061 2.561 11.571-1.398 23.142-2.796 34.713-4.194 6.080-0.735 12.161-1.469 18.242-2.204 0.527-0.063 1.055-0.127 1.582-0.191 0.434-0.053 0.022 0.080-0.449-0.176 0.43 0.233 0.86 0.467 1.29 0.701 2.844 1.545 5.688 3.089 8.531 4.634 1.7 0.923 3.214-1.667 1.514-2.591-3.035-1.648-7.927-5.925-11.494-5.495-5.773 0.698-11.547 1.395-17.32 2.093-12.204 1.473-24.406 2.948-36.609 4.422-1.142 0.138-2.186 1.616-1.061 2.56 2.849 2.39 5.674 6.465 9.609 5.99 6.156-0.743 12.313-1.487 18.469-2.23 12.55-1.516 25.099-3.031 37.648-4.546 1.897-0.229 1.919-3.231 0.001-3zM5.667 44.662c0-5.593 0-11.186 0-16.778 0-1.935-3-1.935-3 0 0 5.593 0 11.186 0 16.778 0 1.935 3 1.935 3 0v0zM12.402 50.417c0.041-5.593 0.082-11.186 0.123-16.778 0.014-1.935-2.986-1.934-3 0-0.041 5.593-0.082 11.186-0.123 16.778-0.014 1.936 2.986 1.934 3 0v0zM11.963 49.356c-2.245-1.918-4.49-3.837-6.735-5.755-1.462-1.249-3.594 0.862-2.121 2.121 2.245 1.918 4.49 3.837 6.735 5.755 1.462 1.25 3.594-0.862 2.121-2.121v0zM11.301 51.863c18.942-3.185 37.885-6.368 56.828-9.553 1.905-0.32 1.095-3.211-0.797-2.893-18.943 3.185-37.886 6.368-56.829 9.553-1.904 0.321-1.094 3.212 0.798 2.893v0zM69.23 40.864c0.367-4.735 0.735-9.471 1.103-14.206 0.149-1.93-2.852-1.916-3 0-0.367 4.735-0.735 9.471-1.103 14.206-0.149 1.931 2.852 1.916 3 0v0zM8.156 40.766c1.388-1.919 2.776-3.838 4.165-5.758 1.136-1.57-1.468-3.065-2.591-1.514-1.388 1.919-2.776 3.838-4.165 5.758-1.135 1.57 1.469 3.065 2.591 1.514v0zM12.349 50.019c-1.347-3.47-2.694-6.939-4.042-10.408-0.692-1.783-3.594-1.009-2.893 0.797 1.347 3.47 2.694 6.939 4.042 10.408 0.692 1.783 3.594 1.008 2.893-0.797v0z"></path>
</svg>
