<?xml version="1.0" encoding="utf-8"?>
<!-- Generator: Adobe Illustrator 16.0.0, SVG Export Plug-In . SVG Version: 6.00 Build 0)  -->
<!DOCTYPE svg PUBLIC "-//W3C//DTD SVG 1.1//EN" "http://www.w3.org/Graphics/SVG/1.1/DTD/svg11.dtd">
<svg version="1.1" id="Layer_1" xmlns="http://www.w3.org/2000/svg" xmlns:xlink="http://www.w3.org/1999/xlink" x="0px" y="0px"
	 width="223.488px" height="244.487px" viewBox="0 0 223.488 244.487" enable-background="new 0 0 223.488 244.487"
	 xml:space="preserve">
<g>
	<g>
		<path d="M96.611,41.495c2.693-7.415,1.039-15.435-6.758-18.56c-8.581-3.439-15.734,5.172-18.474,12.066
			c2.285-0.298,4.569-0.597,6.854-0.896c-5.276-9.961-16.786-15.913-26.139-7.134c-3.559,3.34-4.803,8.298-3.917,12.976
			c1.143,6.039,7.14,9.578,12.321,11.666c-0.299-2.285-0.597-4.569-0.896-6.854c-6.483,3.57-14.922,9.299-13.73,17.82
			c0.896,6.406,7.715,9.974,13.287,11.566c6.628,1.894,14.398,1.649,20.499-1.743c7.119-3.959,8.402-12.115,6.452-19.402
			c-1.837,1.412-3.673,2.823-5.509,4.235c15.777,6.801,12.712,27.467,10.135,41.155c-3.33,17.679-9.855,34.654-12.751,52.409
			c-2.466,15.111,2.946,30.031,9.303,43.556c7.192,15.303,18.057,31.942,33.687,39.65c16.044,7.912,32.046-0.626,41.573-14.32
			c11.386-16.364,8.91-39.571,5.913-58.06c-3.234-19.955-9.139-39.422-13.694-59.095c-2.969-12.816-6.326-26.111-4.112-39.324
			c1.024-6.113,3.618-12.495,7.803-17.134c2.485-2.756,6.592-3.282,9.986-4.184c10.714-2.848,12.843-16.407,5.817-24.487
			c-7.712-8.869-19.903-2.08-23.387,7.101c2.285-0.298,4.569-0.597,6.854-0.896c-3.596-7.29-11.809-13.073-19.953-8.837
			c-8.39,4.362-8.689,14.132-4.522,21.622c1.079-1.881,2.159-3.762,3.238-5.643c-33.069,2.229-15.587,56.911-10.547,75.065
			c1.67,6.014,3.492,11.989,5.033,18.038c2.652,10.407,3.274,21.957,3.396,32.666c0.274,24.056-8.75,44.662-26.033,61.32
			c-3.488,3.362,1.821,8.659,5.303,5.304c15.842-15.269,25.609-33.833,27.789-55.8c1.769-17.819-0.638-36.68-5.515-53.845
			c-4.285-15.083-8.813-30.292-10.605-45.917c-1.108-9.669-2.565-28.404,11.179-29.33c2.825-0.19,4.686-3.042,3.238-5.643
			c-2.032-3.652-2.962-8.4,1.11-10.986c4.564-2.898,8.638,2.173,10.412,5.772c1.575,3.192,5.811,1.855,6.854-0.896
			c1.166-3.074,4.525-6.309,8.086-5.71c4.362,0.733,5.529,8.718,3.832,11.984c-1.074,2.067-5.514,2.367-7.476,2.89
			c-3.868,1.031-7.369,2.863-10.068,5.855c-16.971,18.818-8.533,47.417-3.613,69.07c4.639,20.416,11.05,40.406,13.532,61.271
			c2.303,19.357,1.413,41.243-15.862,53.635c-15.057,10.801-30.394-1.792-39.891-13.662c-10.717-13.393-18.797-30.8-21.546-47.764
			c-1.052-6.489,0.269-12.948,1.71-19.268c2.022-8.862,4.628-17.589,6.947-26.375c4.267-16.166,9.63-35.202,4.623-51.791
			c-2.155-7.14-7.139-12.917-13.994-15.873c-2.883-1.243-6.438,0.766-5.509,4.235c2.987,11.157-7.406,14.184-16.541,12.215
			c-3.142-0.677-7.939-2.455-8.967-5.359c-1.491-4.216,6.69-8.783,10.018-10.616c3.116-1.716,1.913-5.723-0.896-6.854
			c-5.205-2.097-9.878-7.011-5.095-12.106c5.424-5.779,11.72,0.634,14.358,5.616c1.669,3.15,5.749,1.885,6.854-0.896
			c1.335-3.359,4.263-7.848,8.519-7.041c4.498,0.853,3.329,6.571,2.248,9.546C87.724,44.057,94.973,46.003,96.611,41.495
			L96.611,41.495z"/>
	</g>
</g>
<g>
	<g>
		<path d="M90.344,43.149c10.483,10.513,22.273,21.508,29.206,34.825c2.234,4.292,8.706,0.499,6.477-3.785
			c-7.221-13.87-19.466-25.399-30.38-36.344C92.229,34.418,86.926,39.722,90.344,43.149L90.344,43.149z"/>
	</g>
</g>
</svg>
