<!-- Generated by IcoMoon.io -->
<svg version="1.1" xmlns="http://www.w3.org/2000/svg" width="72" height="72" viewBox="0 0 72 72">
<title>CLOCK</title>
<path d="M65.507 35.843c-0.357 16.351-13.157 29.15-29.508 29.508s-29.161-13.699-29.507-29.508c-0.357-16.349 13.697-29.161 29.507-29.507 16.35-0.357 29.162 13.696 29.508 29.507 0.042 1.932 3.042 1.936 3 0-0.394-17.994-14.515-32.114-32.508-32.507s-32.126 15.105-32.507 32.507c-0.393 17.992 15.105 32.127 32.507 32.508 17.992 0.394 32.127-15.105 32.508-32.508 0.042-1.936-2.958-1.932-3 0zM34.499 16.436c0 6.469 0 12.938 0 19.407 0 1.935 3 1.935 3 0 0-6.469 0-12.938 0-19.407 0-1.935-3-1.935-3 0v0zM53.736 27.584c-6.046 2.306-12.090 4.612-18.136 6.919-1.789 0.683-1.013 3.584 0.798 2.893 6.045-2.307 12.090-4.612 18.135-6.919 1.789-0.683 1.014-3.584-0.797-2.893v0z"></path>
</svg>
