<!-- Generated by IcoMoon.io -->
<svg version="1.1" xmlns="http://www.w3.org/2000/svg" width="72" height="72" viewBox="0 0 72 72">
<title>COCOA2</title>
<path d="M43.897 39.721c-0.521 9.671-14.488 9.671-15.009 0-0.52-9.676 14.491-9.625 15.009 0 0.104 1.924 3.104 1.934 3 0-0.32-5.943-4.56-10.183-10.503-10.503-5.931-0.319-10.211 5.040-10.505 10.503-0.32 5.934 5.042 10.209 10.505 10.503 5.932 0.319 10.209-5.039 10.503-10.503 0.105-1.934-2.896-1.924-3 0zM45.733 22.377c-0.622-5.983-3-15.133-10.284-16.046-8.77-1.1-14.733 6.455-18.535 13.301-3.759 6.77-7.61 14.91-8.675 22.612-0.439 3.18 0.034 6.183 1.906 8.806 2.017 2.825 6.009 2.225 8.957 2.030 6.256-0.413 10.745 4.847 15.104 8.449 2.84 2.348 5.952 4.060 9.546 4.894 7.146 1.659 16.002-0.737 20.623-6.535 5.078-6.372 2.070-15.863-1.454-22.177-1.746-3.128-4.121-5.206-7.23-6.901-4.188-2.283-8.882-3.553-10.011-8.832-0.404-1.891-3.296-1.089-2.893 0.798 1.008 4.713 4.267 7.094 8.396 9.149 2.548 1.268 5.054 2.394 7.141 4.386 2.74 2.618 4.231 7.198 5.153 10.721 2.467 9.43-4.012 15.511-12.816 16.668-8.813 1.158-13.832-4.26-20.125-9.299-4.719-3.778-9.203-4.323-14.975-4.109-9.3 0.346-1.842-16.686-0.24-20.254 2.647-5.897 5.182-11.877 9.665-16.653 2.936-3.127 7.692-5.397 11.887-3.443 4.235 1.973 5.433 8.333 5.86 12.435 0.199 1.904 3.201 1.923 3 0v0z"></path>
</svg>
