<?xml version="1.0" encoding="utf-8"?>
<!-- Generator: Adobe Illustrator 16.0.0, SVG Export Plug-In . SVG Version: 6.00 Build 0)  -->
<!DOCTYPE svg PUBLIC "-//W3C//DTD SVG 1.1//EN" "http://www.w3.org/Graphics/SVG/1.1/DTD/svg11.dtd">
<svg version="1.1" xmlns="http://www.w3.org/2000/svg" xmlns:xlink="http://www.w3.org/1999/xlink" x="0px" y="0px" width="72px"
	 height="72px" viewBox="0 0 72 72" enable-background="new 0 0 72 72" xml:space="preserve">
<g id="Layer_1" display="none">
	<g id="Layer_2" display="inline">
	</g>
	<g display="inline">
		<g>
			<defs>
				<rect id="SVGID_1_" width="71.303" height="71.688"/>
			</defs>
			<clipPath id="SVGID_2_">
				<use xlink:href="#SVGID_1_"  overflow="visible"/>
			</clipPath>
			<g display="none" clip-path="url(#SVGID_2_)">
				<g display="inline">
					<defs>
						<rect id="SVGID_3_" x="-26.743" y="-14.406" width="102.927" height="93.508"/>
					</defs>
					<clipPath id="SVGID_4_">
						<use xlink:href="#SVGID_3_"  overflow="visible"/>
					</clipPath>
					<g clip-path="url(#SVGID_4_)">
						
							<image overflow="visible" enable-background="new    " width="1592" height="897" xlink:href="8F82BB17.jpeg"  transform="matrix(0.8995 0 0 0.898 -394.5967 -204.1504)">
						</image>
					</g>
				</g>
			</g>
			<g display="none" clip-path="url(#SVGID_2_)">
				<g display="inline">
					<path fill="#EDBC5E" d="M65.507,35.843C65.15,52.193,52.35,64.993,35.999,65.352C19.649,65.708,6.838,51.652,6.492,35.843
						C6.135,19.494,20.189,6.682,35.999,6.336C52.35,5.979,65.161,20.032,65.507,35.843c0.042,1.933,3.042,1.937,3,0
						C68.113,17.849,53.992,3.729,35.999,3.336C18.007,2.942,3.873,18.441,3.492,35.843C3.099,53.835,18.597,67.971,35.999,68.352
						c17.992,0.394,32.127-15.105,32.508-32.509C68.549,33.907,65.549,33.911,65.507,35.843z"/>
					<path fill="#EDBC5E" d="M34.499,16.436c0,6.469,0,12.938,0,19.407c0,1.935,3,1.935,3,0c0-6.469,0-12.938,0-19.407
						C37.499,14.501,34.499,14.501,34.499,16.436L34.499,16.436z"/>
					<path fill="#EDBC5E" d="M53.736,27.584c-6.047,2.306-12.09,4.612-18.136,6.919c-1.789,0.683-1.013,3.584,0.798,2.894
						c6.045-2.308,12.09-4.612,18.135-6.919C56.322,29.794,55.547,26.893,53.736,27.584L53.736,27.584z"/>
				</g>
			</g>
			<g id="Layer_3" display="none" clip-path="url(#SVGID_2_)">
				<path display="inline" fill="none" stroke="#EDBC5E" stroke-width="3" stroke-miterlimit="10" d="M70.297,21.945L56.811,35.393
					c-2.111,2.114-5.847,1.804-8.34-0.689l-4.955-4.956c-2.494-2.493-2.805-6.227-0.692-8.341L55.376,8.868L69.258,22.98"/>
				<g display="inline">
					<g>
						<path fill="#EDBC5E" d="M44.223,30.762c-10.364,10.339-20.728,20.681-31.09,31.022c-1.371,1.366,0.75,3.487,2.121,2.12
							c10.363-10.34,20.726-20.68,31.089-31.021C47.714,31.516,45.592,29.395,44.223,30.762L44.223,30.762z"/>
					</g>
				</g>
				<g display="inline">
					<g>
						<path fill="#EDBC5E" d="M22.594,14.228c4.023,4.331,6.135,11.055,1.738,15.914c-4.384,4.845-11.976,1.872-15.909-1.808
							C4.112,24.3,2.494,17.051,6.688,12.419C11.075,7.574,18.66,10.543,22.594,14.228c1.41,1.321,3.536-0.796,2.121-2.121
							c-5.578-5.224-14.01-7.323-20.148-1.809C-1.557,15.8,1.555,25.34,6.303,30.455c5.194,5.595,14.301,7.059,20.151,1.808
							c6.127-5.498,3.009-15.047-1.738-20.156C23.396,10.686,21.279,12.813,22.594,14.228z"/>
					</g>
				</g>
				<g display="inline">
					<g>
						<path fill="#EDBC5E" d="M24.943,32.735C35.521,43.355,46.102,53.979,56.68,64.6c1.366,1.371,3.487-0.75,2.121-2.121
							C48.223,51.855,37.643,41.234,27.064,30.614C25.698,29.242,23.577,31.363,24.943,32.735L24.943,32.735z"/>
					</g>
				</g>
				<g display="inline">
					<g>
						<path fill="#EDBC5E" d="M8.185,15.911c4.309,4.327,8.618,8.653,12.927,12.98c1.366,1.372,3.487-0.75,2.121-2.121
							c-4.309-4.327-8.618-8.653-12.927-12.98C8.94,12.417,6.819,14.539,8.185,15.911L8.185,15.911z"/>
					</g>
				</g>
				<g display="inline">
					<g>
						<path fill="#EDBC5E" d="M13.132,15.306c2.752,2.735,5.505,5.47,8.258,8.204c1.373,1.364,3.495-0.756,2.121-2.121
							c-2.752-2.735-5.505-5.47-8.258-8.204C13.88,11.82,11.758,13.941,13.132,15.306L13.132,15.306z"/>
					</g>
				</g>
				<g display="inline">
					<g>
						<path fill="#EDBC5E" d="M7.326,21.013c2.738,2.75,5.477,5.499,8.215,8.248c1.366,1.372,3.487-0.75,2.121-2.121
							c-2.738-2.75-5.477-5.499-8.215-8.248C8.081,17.52,5.96,19.641,7.326,21.013L7.326,21.013z"/>
					</g>
				</g>
			</g>
			<g display="none" clip-path="url(#SVGID_2_)">
				<g display="inline">
					<path fill="#EDBC5E" d="M9.825,58.154c17.153,0,34.307,0,51.46,0c1.936,0,1.936-3,0-3c-17.153,0-34.307,0-51.46,0
						C7.89,55.154,7.89,58.154,9.825,58.154L9.825,58.154z"/>
					<path fill="#EDBC5E" d="M62.785,56.654C61.146,44.459,52.1,33.485,39.51,31.932c0.482,0.367,0.965,0.734,1.446,1.101
						c-0.461-1.843-1.103-6.724-3.634-6.949c-3.93-0.349-6.433-0.186-7.517,3.909c-0.878,3.316-3.715,3.261-6.588,4.656
						c-2.588,1.256-4.852,3.191-6.883,5.192c-4.411,4.347-7.086,10.351-7.955,16.415c-0.271,1.891,2.619,2.706,2.893,0.797
						c1.53-10.675,8.927-19.652,19.666-21.914c0.485-0.102,0.938-0.568,1.047-1.047c0.073-0.322,0.923-4.947,1.07-4.957
						c1.21-0.076,2.419-0.114,3.63-0.108c0.188,0.001,1.242,4.26,1.379,4.803c0.177,0.704,0.785,1.02,1.445,1.101
						c10.799,1.332,18.877,11.311,20.275,21.723C60.039,58.543,63.042,58.568,62.785,56.654L62.785,56.654z"/>
					<path fill="#EDBC5E" d="M1.413,60.33c1.137,1.048,2.774,3.416,4.483,3.416c1.777,0,3.555,0,5.333,0c8.039,0,16.078,0,24.117,0
						c8.166,0,16.329,0,24.493,0c1.935,0,3.869,0,5.804,0c1.813,0,3.116-2.232,4.248-3.416c1.338-1.396-0.781-3.521-2.121-2.121
						c-0.896,0.938-1.793,1.874-2.69,2.813c0.487-0.51,1.3-0.274,0.151-0.274c-2.012,0-4.022,0-6.035,0c-7.617,0-15.236,0-22.855,0
						c-7.727,0-15.454,0-23.18,0c-2.146,0-4.293,0-6.44,0c-0.331,0-0.662,0-0.994,0c1.299,0,0.736,0.16-0.232-0.731
						c-0.653-0.603-1.306-1.203-1.959-1.806C2.114,56.9-0.013,59.018,1.413,60.33L1.413,60.33z"/>
					<path fill="#EDBC5E" d="M24.579,12.456c2.155,2.065-1.34,5.332-2.05,7.406c-0.903,2.639,1.744,3.872,3.823,4.296
						c1.889,0.385,2.692-2.506,0.798-2.893c-1.434-0.292-2.039-0.153-1.299-1.551c0.838-1.584,1.954-2.829,2.311-4.636
						c0.325-1.646-0.239-3.573-1.461-4.744C25.303,8.997,23.179,11.116,24.579,12.456L24.579,12.456z"/>
					<path fill="#EDBC5E" d="M32.538,8.217c2.155,2.065-1.34,5.333-2.05,7.406c-0.903,2.639,1.745,3.872,3.824,4.296
						c1.889,0.385,2.692-2.506,0.798-2.893c-1.435-0.293-2.04-0.153-1.3-1.552c0.838-1.584,1.955-2.829,2.311-4.636
						c0.325-1.646-0.239-3.572-1.461-4.743C33.262,4.758,31.138,6.877,32.538,8.217L32.538,8.217z"/>
					<path fill="#EDBC5E" d="M40.916,12.456c2.154,2.065-1.34,5.332-2.05,7.406c-0.903,2.639,1.743,3.872,3.823,4.296
						c1.889,0.385,2.692-2.506,0.797-2.893c-1.434-0.292-2.038-0.153-1.299-1.551c0.838-1.584,1.953-2.829,2.311-4.636
						c0.324-1.646-0.239-3.572-1.461-4.744C41.643,8.997,39.518,11.115,40.916,12.456L40.916,12.456z"/>
				</g>
			</g>
			<g display="none" clip-path="url(#SVGID_2_)">
				<g display="inline">
					<path fill="#9A3D58" d="M68.159,29.18c-0.364,2.666-7.425,3.527-9.435,3.938c-6.816,1.394-13.881,1.702-20.817,1.821
						c-7.318,0.125-14.685-0.275-21.926-1.348c-2.528-0.375-10.891-1.105-12.087-4.02c-0.621-1.512,9.828-3.613,10.703-3.774
						C21.625,24.502,28.87,24.248,36,24.208c7.15-0.041,14.346,0.421,21.402,1.588c2.149,0.355,10.363,1.305,10.757,4.182
						c0.261,1.909,3.149,1.093,2.893-0.798c-0.497-3.646-6.293-4.801-9.079-5.506C53.576,21.552,44.609,21.257,36,21.208
						c-8.669-0.049-17.501,0.542-25.973,2.467c-2.741,0.623-9.133,2.042-9.133,5.905c0,3.575,5.437,4.895,8.013,5.621
						c8.075,2.277,16.858,2.596,25.186,2.738c8.908,0.151,17.947-0.398,26.688-2.186c2.969-0.607,9.732-1.842,10.271-5.776
						C71.311,28.087,68.42,27.271,68.159,29.18z"/>
					<path fill="#9A3D58" d="M1.333,30.64c5.206,6.275,10.412,12.549,15.618,18.825c1.309,1.577,2.445,1.328,4.418,1.328
						c4.694,0,9.388,0,14.083,0c4.954,0,9.907,0,14.862,0c1.5,0,4.078,0.563,5.14-0.788c5.069-6.455,10.142-12.909,15.212-19.365
						c1.182-1.503-0.928-3.642-2.121-2.121c-4.816,6.132-9.634,12.263-14.449,18.395c-0.305,0.387-0.609,0.773-0.912,1.161
						c-0.398,0.508,1.537-0.281,0.621-0.281c-1.164,0-2.326,0-3.49,0c-4.627,0-9.254,0-13.879,0c-4.627,0-9.253,0-13.88,0
						c-1.164,0-2.327,0-3.49,0c-0.918,0,1.027,0.779,0.621,0.289c-0.306-0.368-0.612-0.737-0.917-1.104
						c-5.105-6.155-10.21-12.308-15.314-18.459C2.218,27.028,0.108,29.163,1.333,30.64L1.333,30.64z"/>
				</g>
			</g>
			<g display="none" clip-path="url(#SVGID_2_)">
				<g display="inline">
					<path fill="#9A3D58" d="M63.105,13.539c0,15.082,0,30.163,0,45.245c0.5-0.5,1-1,1.5-1.5c-8.207,0-16.601,1.513-24.756,2.329
						c-8.747,0.875-17.493,1.75-26.239,2.627c0.5,0.5,1,1,1.5,1.5c0-9.891,0-19.78,0-29.67c0-4.744,0-9.487,0-14.231
						c0-3.058-4.81-5.547-6.907-7.36C6.748,11.22,4.617,13.333,6.083,14.6c2.382,2.06,5.312,6.274,8.715,5.9
						c5.334-0.585,10.669-1.169,16.003-1.754c11.268-1.235,22.537-2.471,33.805-3.707c1.226-0.134,2.082-1.567,1.061-2.561
						c-2.152-2.096-4.666-6.262-7.95-5.907C52.218,7.166,46.721,7.76,41.223,8.354c-11.36,1.228-22.719,2.456-34.078,3.684
						c-0.813,0.088-1.5,0.616-1.5,1.5c0,9.891,0,19.781,0,29.672c0,4.744,0,9.488,0,14.231c0,3.059,4.81,5.545,6.907,7.356
						c1.456,1.259,3.587-0.854,2.121-2.121c-1.669-1.442-3.338-2.885-5.007-4.325C8.42,57.273,8.645,56.9,8.645,58.033
						c0-0.414,0-0.828,0-1.242c0-4.846,0-9.689,0-14.536c0-9.573,0-19.145,0-28.717c-0.5,0.5-1,1-1.5,1.5
						c10.408-1.125,20.816-2.25,31.225-3.376c5.922-0.64,11.843-1.28,17.765-1.92c0.627-0.067,1.254-0.135,1.879-0.203
						c1.205-0.13,0.541,0.201-0.113-0.437c1.883,1.833,3.765,3.665,5.646,5.497c0.354-0.854,0.707-1.707,1.061-2.561
						c-10.308,1.13-20.615,2.26-30.923,3.391c-5.749,0.63-11.498,1.261-17.246,1.891c-0.648,0.071-1.296,0.142-1.944,0.213
						c-1.17,0.128-0.675-0.203,0.071,0.442c-2.119-1.833-4.239-3.665-6.358-5.497c-1.456-1.259-3.587,0.854-2.121,2.121
						c1.669,1.443,3.338,2.886,5.007,4.329c1.246,1.077,1.021,1.452,1.021,0.318c0,0.414,0,0.828,0,1.242c0,4.845,0,9.69,0,14.536
						c0,9.572,0,19.144,0,28.715c0,0.756,0.685,1.581,1.5,1.5c8.746-0.876,17.492-1.751,26.237-2.628
						c8.156-0.815,16.549-2.328,24.758-2.328c0.816,0,1.5-0.684,1.5-1.5c0-15.082,0-30.163,0-45.245
						C66.105,11.604,63.105,11.604,63.105,13.539L63.105,13.539z"/>
					<path fill="#9A3D58" d="M63.745,32.539c-7.884,2.134-14.8,5.747-21.271,10.72c-5.638,4.334-10.532,8.827-12.368,15.858
						c-0.49,1.873,2.404,2.668,2.893,0.797c3.319-12.707,19.79-21.301,31.542-24.482C66.407,34.927,65.615,32.033,63.745,32.539
						L63.745,32.539z"/>
					<path fill="#9A3D58" d="M53.424,36.304c-4.611,2.395-9.122,6.252-11.345,11.004c-2.574,5.508,0.05,11.043,6.401,10.604
						c4.877-0.336,11.744-4.519,10.666-10.075c-1.086-5.607-9.217-0.313-9.267,3.619c-0.024,1.936,2.976,1.934,3,0
						c0.03-2.359,4.552-3.938,3.079-0.958c-0.754,1.524-2.627,2.51-4.048,3.285c-3.683,2.01-8.697,1.495-7.604-3.808
						c1-4.853,6.476-8.926,10.631-11.084C56.654,38.003,55.139,35.414,53.424,36.304L53.424,36.304z"/>
				</g>
			</g>
			<line clip-path="url(#SVGID_2_)" fill="none" x1="0.224" y1="0" x2="71.527" y2="0"/>
			<line clip-path="url(#SVGID_2_)" fill="none" x1="0.224" y1="71.688" x2="71.527" y2="71.688"/>
			<g display="none" clip-path="url(#SVGID_2_)">
				<g display="inline">
					<path fill="#9A3D58" d="M68.833,25.158c-11.593,1.4-23.187,2.8-34.779,4.2c-6.539,0.79-13.078,1.579-19.616,2.369
						c-0.791,0.096-1.582,0.191-2.373,0.287c-1.259,0.152-0.906-0.213-0.079,0.481c-2.252-1.89-4.505-3.781-6.758-5.671
						c-0.354,0.854-0.707,1.707-1.061,2.561c11.571-1.398,23.142-2.796,34.713-4.194c6.08-0.735,12.161-1.469,18.242-2.204
						c0.526-0.063,1.055-0.127,1.582-0.191c0.435-0.053,0.022,0.08-0.449-0.176c0.431,0.233,0.86,0.467,1.29,0.701
						c2.844,1.545,5.688,3.089,8.531,4.634c1.699,0.923,3.214-1.667,1.514-2.591c-3.035-1.648-7.927-5.925-11.494-5.495
						c-5.772,0.698-11.547,1.395-17.32,2.093C28.572,23.435,16.37,24.91,4.167,26.384C3.025,26.522,1.981,28,3.106,28.944
						c2.849,2.39,5.674,6.465,9.609,5.99c6.156-0.743,12.313-1.487,18.469-2.23c12.55-1.516,25.099-3.031,37.648-4.546
						C70.729,27.929,70.751,24.927,68.833,25.158z"/>
					<path fill="#9A3D58" d="M5.667,44.662c0-5.594,0-11.186,0-16.778c0-1.935-3-1.935-3,0c0,5.593,0,11.187,0,16.778
						C2.667,46.598,5.667,46.598,5.667,44.662L5.667,44.662z"/>
					<path fill="#9A3D58" d="M12.402,50.417c0.041-5.593,0.082-11.187,0.123-16.778c0.014-1.935-2.986-1.934-3,0
						c-0.041,5.593-0.082,11.186-0.123,16.778C9.388,52.354,12.388,52.352,12.402,50.417L12.402,50.417z"/>
					<path fill="#9A3D58" d="M11.963,49.355c-2.245-1.918-4.49-3.836-6.735-5.754c-1.462-1.25-3.594,0.861-2.121,2.121
						c2.245,1.918,4.49,3.836,6.735,5.754C11.304,52.727,13.436,50.615,11.963,49.355L11.963,49.355z"/>
					<path fill="#9A3D58" d="M11.301,51.863c18.942-3.186,37.885-6.368,56.828-9.553c1.905-0.32,1.096-3.211-0.797-2.894
						c-18.943,3.185-37.886,6.368-56.829,9.554C8.599,49.291,9.409,52.182,11.301,51.863L11.301,51.863z"/>
					<path fill="#9A3D58" d="M69.23,40.864c0.367-4.735,0.734-9.471,1.103-14.206c0.149-1.93-2.853-1.916-3,0
						c-0.367,4.735-0.735,9.471-1.103,14.206C66.081,42.795,69.082,42.779,69.23,40.864L69.23,40.864z"/>
					<path fill="#9A3D58" d="M8.156,40.766c1.388-1.918,2.776-3.838,4.165-5.758c1.136-1.57-1.468-3.065-2.591-1.514
						c-1.388,1.919-2.776,3.838-4.165,5.758C4.43,40.822,7.034,42.316,8.156,40.766L8.156,40.766z"/>
					<path fill="#9A3D58" d="M12.349,50.02c-1.347-3.471-2.694-6.939-4.042-10.408c-0.692-1.783-3.594-1.01-2.893,0.797
						c1.347,3.47,2.694,6.939,4.042,10.408C10.148,52.6,13.05,51.824,12.349,50.02L12.349,50.02z"/>
				</g>
			</g>
			<g display="none" clip-path="url(#SVGID_2_)">
				<g display="inline">
					<path fill="#9A3D58" d="M41.725,19.006c6.164,0,12.328,0,18.492,0c1.936,0,1.936-3,0-3c-6.164,0-12.328,0-18.492,0
						C39.79,16.006,39.79,19.006,41.725,19.006L41.725,19.006z"/>
					<path fill="#9A3D58" d="M40.277,17.509c-4.063,10.232-6.138,25.002,6.285,30.013c5.668,2.285,13.133-0.877,16.515-5.685
						c5.446-7.743,0.065-16.31-1.815-24.329c-0.441-1.883-3.335-1.084-2.894,0.798c1.455,6.199,5.485,12.709,3.717,19.217
						c-1.978,7.276-11.765,9.223-17.403,5.729c-7.964-4.936-4.227-18.105-1.511-24.946C43.887,16.507,40.982,15.734,40.277,17.509
						L40.277,17.509z"/>
					<path fill="#9A3D58" d="M38.111,36.643c7.979,1.549,16.058,0.531,24.115,0.453c1.934-0.019,1.936-3.019,0-3
						c-7.764,0.075-15.629,1.147-23.317-0.346C37.02,33.382,36.213,36.273,38.111,36.643L38.111,36.643z"/>
					<path fill="#9A3D58" d="M57.001,31.872c1.935,0,1.935-3,0-3S55.066,31.872,57.001,31.872L57.001,31.872z"/>
					<path fill="#9A3D58" d="M44.539,31.872c1.936,0,1.936-3,0-3S42.604,31.872,44.539,31.872L44.539,31.872z"/>
					<path fill="#9A3D58" d="M59.174,19.112c1.834,5.333,7.564,4.289,10.947,1.062c0.62-0.591,0.529-1.519,0-2.121
						c-2.65-3.021-6.176-3.919-9.855-2.245c-1.76,0.801-0.233,3.386,1.514,2.591c2.47-1.124,4.539-0.142,6.222,1.775
						c0-0.707,0-1.414,0-2.121c-1.588,1.515-4.903,3.253-5.935,0.261C61.441,16.496,58.543,17.277,59.174,19.112L59.174,19.112z"/>
					<path fill="#9A3D58" d="M41.275,16.21c-1.787-0.967-3.736-1.854-5.819-1.638c-2.313,0.239-3.893,1.919-5.076,3.784
						c-0.271,0.428-0.285,1.087,0,1.514c1.479,2.212,3.839,3.596,6.476,3.873c3.129,0.33,4.875-2.253,5.164-5.03
						c0.198-1.924-2.804-1.904-3,0c-0.381,3.66-4.749,1.588-6.048-0.356c0,0.504,0,1.009,0,1.514
						c0.674-1.063,1.512-2.197,2.865-2.337c1.374-0.142,2.768,0.641,3.926,1.268C41.464,19.721,42.979,17.131,41.275,16.21
						L41.275,16.21z"/>
					<path fill="#9A3D58" d="M37.305,26.457c-6.963-0.102-20.729-2.955-24.283,5.499c-2.951,7.022-2.512,19.36,1.681,25.873
						c0.647,1.006,1.927,0.921,2.591,0c3.853-5.347,9.188-7.646,15.687-7.466c-0.5-0.5-1-1-1.5-1.5
						c0.195,2.941,0.931,5.699,2.116,8.396c0.469,1.065,2.071,0.89,2.591,0c1.44-2.463,5.635-6.306,8.166-2.151
						c0.479,0.789,0.935,1.507,1.524,2.217c1.162,1.396,3.103,1.269,4.688,1.025c0.451-0.067,0.986-0.592,1.049-1.048
						c0.438-3.237,0.711-6.374,0.453-9.645c-0.149-1.915-3.15-1.931-3,0c0.127,1.608,0.4,10.308-2.125,5.937
						c-0.707-1.225-1.695-2.605-3.111-3.068c-4.34-1.42-8.151,1.656-10.235,5.221c0.864,0,1.727,0,2.591,0
						c-0.965-2.196-1.547-4.487-1.707-6.883c-0.055-0.834-0.641-1.478-1.5-1.5c-7.628-0.211-13.813,2.759-18.277,8.951
						c0.864,0,1.727,0,2.591,0c-3.583-5.563-3.483-14.898-2.185-21.146c1.841-8.856,15.687-5.807,22.195-5.711
						C39.238,29.485,39.236,26.485,37.305,26.457L37.305,26.457z"/>
					<path fill="#9A3D58" d="M3.987,35.712c2.624,1.793,5.618,4.308,8.748,2.009c1.542-1.132,0.048-3.738-1.514-2.591
						c-1.953,1.435-4.12-0.915-5.721-2.009C3.898,32.027,2.4,34.628,3.987,35.712L3.987,35.712z"/>
					<path fill="#9A3D58" d="M3.939,40.742c1.984-0.081,3.582-1.145,5.178-2.215c1.598-1.071,0.098-3.671-1.514-2.59
						c-1.087,0.729-2.3,1.75-3.665,1.805C2.011,37.82,2.004,40.82,3.939,40.742L3.939,40.742z"/>
					<path fill="#9A3D58" d="M48.247,15.544c-0.845-1.608-2.313-3.109-4.283-2.761c-1.672,0.295-2.624,1.979-2.88,3.521
						c-0.134,0.806,0.198,1.612,1.048,1.845c0.726,0.2,1.711-0.24,1.845-1.047c0.063-0.372,0.133-0.738,0.31-1.073
						c0.146-0.279,0.165-0.281,0.33-0.328c-0.275,0.078,0.202,0.079-0.042,0.022c-0.172-0.039,0.259,0.147,0.27,0.154
						c0.372,0.239,0.619,0.809,0.814,1.18C46.557,18.771,49.146,17.255,48.247,15.544L48.247,15.544z"/>
					<path fill="#9A3D58" d="M59.704,15.305c-0.765-1.476-1.989-3.079-3.853-2.766c-1.604,0.27-2.289,2.132-2.508,3.526
						c-0.127,0.807,0.193,1.61,1.049,1.845c0.719,0.198,1.717-0.239,1.844-1.047c0.054-0.338,0.18-0.963,0.252-1.132
						c0.061-0.14,0.139-0.27,0.22-0.398c-0.099,0.122-0.093,0.123,0.019,0.002c-0.152,0.107-0.16,0.119-0.022,0.036
						c-0.179,0.101-0.322,0.125-0.522,0.086c0.123,0.024,0.037,0.028,0.041,0.032c0.405,0.352,0.65,0.863,0.894,1.331
						C58.003,18.538,60.592,17.02,59.704,15.305L59.704,15.305z"/>
					<path fill="#9A3D58" d="M18.572,54.085c0.49,1.948,1.063,3.656,2.699,4.916c0.515,0.396,1.399,0.209,1.817-0.233
						c1.969-2.086,3.678-5.277,4.443-8.037c0.518-1.866-2.376-2.658-2.893-0.797c-0.626,2.258-2.06,5.006-3.671,6.713
						c0.606-0.078,1.212-0.156,1.817-0.234c-0.874-0.674-1.069-2.127-1.32-3.123C20.993,51.412,18.099,52.208,18.572,54.085
						L18.572,54.085z"/>
					<path fill="#9A3D58" d="M21.939,29.921c1.447,2.847-1.194,4.58-2.408,6.894c-1.448,2.759,0.442,5.283,2.69,6.854
						c2.633,1.841,6.283,3.615,8.895,0.76c2.335-2.554,1.444-6.769,0.248-9.589c-0.299,0.734-0.598,1.469-0.896,2.203
						c4.193-1.403,8.121-3.235,7.935-8.28c-0.07-1.929-3.07-1.936-3,0c0.131,3.545-2.885,4.435-5.732,5.388
						c-1.002,0.335-1.285,1.288-0.896,2.203c0.701,1.652,1.809,6.504-1.171,6.622c-1.822,0.07-6.494-2.715-5.313-4.966
						c0.753-1.434,1.982-2.527,2.643-4.03c0.836-1.903,0.516-3.767-0.402-5.572C23.653,26.682,21.064,28.201,21.939,29.921
						L21.939,29.921z"/>
					<path fill="#9A3D58" d="M50.568,41.116c1.935,0,1.935-3,0-3C48.633,38.116,48.634,41.116,50.568,41.116L50.568,41.116z"/>
					<path fill="#9A3D58" d="M52.98,41.116c1.936,0,1.936-3,0-3C51.046,38.116,51.047,41.116,52.98,41.116L52.98,41.116z"/>
				</g>
			</g>
			<g display="none" clip-path="url(#SVGID_2_)">
				<g display="inline">
					<path fill="#9A3D58" d="M27.699,31.021c-0.017-4.121,3.996-4.493,7.253-4.314c4.229,0.232,6.511,2.928,8.88,6.237
						c1.506,2.103,6.064,9.203,2.348,10.759c-3.066,1.283-6.729,1.343-9.997,1.32c-1.454-0.01-10.856-0.407-7.76-4.273
						c1.814-2.268,4.982-3.613,5.997-6.512c2.578-7.362-4.045-8.209-8.978-4.512c-1.528,1.146-0.036,3.752,1.514,2.591
						c0.524-0.393,4.929-3.806,5.196-1.082c0.165,1.678-1.388,3.263-2.46,4.297c-1.346,1.298-3.147,2.38-4.123,4.022
						c-1.681,2.828-0.431,5.721,2.472,7.084c5.426,2.547,16.729,2.551,21.486-1.521c2.471-2.11,0.31-7.099-0.65-9.368
						c-1.593-3.768-5.105-9.377-9.068-10.996c-5.663-2.313-15.141-1.505-15.107,6.267C24.707,32.955,27.707,32.956,27.699,31.021
						L27.699,31.021z"/>
				</g>
			</g>
			<g display="none" clip-path="url(#SVGID_2_)">
				<g display="inline">
					<path fill="#9A3D58" d="M35.87,49.893c0.236,5.898,0.471,11.799,0.707,17.697c0.077,1.928,3.077,1.936,3,0
						c-0.235-5.898-0.472-11.799-0.707-17.697C38.793,47.964,35.792,47.956,35.87,49.893L35.87,49.893z"/>
					<path fill="#9A3D58" d="M24.059,37.461c3.587,1.969,6.786,4.326,9.705,7.198c1.444,1.101,1.76,2.667,0.946,4.7
						c-1.051-0.157-2.099-0.58-3.097-0.924c-1.883-0.646-3.617-1.688-5.264-2.785c-2.313-1.543-4.333-3.659-5.932-5.924
						c-0.356-0.504-0.678-1.035-0.971-1.578C18.004,35.47,23.125,37.063,24.059,37.461c1.759,0.748,3.289-1.836,1.514-2.591
						c-3.21-1.364-10.558-2.652-9.426,3.131c0.732,3.741,5.072,7.625,7.912,9.679c2.573,1.861,12.789,8.248,14.757,2.61
						c2.324-6.659-8.503-12.819-13.243-15.42C23.875,33.939,22.362,36.529,24.059,37.461z"/>
					<path fill="#9A3D58" d="M24.804,23.851c2.732,1.971,5.148,4.204,7.366,6.734c0.671,0.784,1.306,1.597,1.904,2.438
						c1.175,1.121,1.002,2.384-0.519,3.79c-1.736-0.487-3.428-1.52-4.966-2.436c-2.877-1.714-5.175-4.159-6.934-6.982
						c-0.77-1.235-1.346-2.599-1.814-3.971C19.027,21.035,24.164,23.479,24.804,23.851c1.675,0.975,3.185-1.618,1.514-2.591
						c-2.742-1.596-10.289-3.783-9.576,1.964c0.667,5.375,5.305,10.242,9.509,13.208c3.329,2.349,10.938,6.524,12.146-0.083
						c0.482-2.644-1.892-5.104-3.367-6.995c-2.455-3.146-5.488-5.77-8.711-8.095C24.746,20.126,23.25,22.73,24.804,23.851z"/>
					<path fill="#9A3D58" d="M40.27,48.663c-4.198-0.738,4.168-7.501,5.101-8.177c2.724-1.976,6.138-4.07,9.56-4.384
						c2.514-0.231-0.609,3.934-0.814,4.189c-1.258,1.561-2.844,2.893-4.432,4.1c-2.703,2.055-6.293,4.336-9.812,4.219
						c-1.937-0.064-1.929,2.936,0,3c5.68,0.188,11.349-4.17,15.194-7.922c2.509-2.448,6.955-9.514,0.847-10.524
						c-5.323-0.881-11.731,4.19-15.421,7.387c-3.057,2.647-7.794,9.814-1.02,11.005C41.363,51.889,42.173,48.997,40.27,48.663z"/>
					<path fill="#9A3D58" d="M37.41,25.785c-4.386,3.982-4.021-22.833-0.268-19.687c2.334,1.957,2.32,6.875,2.397,9.585
						c0.099,3.438-0.207,7.579-2.365,10.405c-1.175,1.538,1.433,3.029,2.591,1.514c3.262-4.27,3.236-11.349,2.411-16.381
						c-0.608-3.72-3.454-11.696-8.233-7.181c-3.781,3.573-3.325,12.286-2.851,16.869c0.453,4.378,3.385,11.583,8.438,6.996
						C40.967,26.604,38.839,24.488,37.41,25.785z"/>
					<path fill="#9A3D58" d="M40.232,36.39c-3.917,0.064,2.943-8.138,3.547-8.777c2.41-2.551,5.502-5.315,8.975-6.223
						c2.112-0.552,0.041,3.758-0.122,4.073c-0.987,1.903-2.401,3.568-3.845,5.138c-2.319,2.524-5.436,5.344-8.953,5.843
						c-1.909,0.271-1.094,3.162,0.797,2.893c5.73-0.813,10.721-6.511,13.773-11.004c1.979-2.909,4.443-10.946-1.932-9.918
						c-5.599,0.902-10.615,6.407-13.85,10.668c-2.505,3.301-4.871,10.415,1.607,10.308C42.165,39.357,42.168,36.358,40.232,36.39z"
						/>
				</g>
			</g>
			<g id="Layer_4" display="none" clip-path="url(#SVGID_2_)">
				<g display="inline">
					<g>
						<path fill="#9A3D58" d="M32.487,60.132c0.13-11.437,0.26-22.872,0.391-34.309c0.022-1.936-2.978-1.933-3,0
							c-0.13,11.437-0.26,22.872-0.391,34.309C29.465,62.066,32.465,62.064,32.487,60.132L32.487,60.132z"/>
					</g>
				</g>
				<g display="inline">
					<g>
						<path fill="#9A3D58" d="M61.52,18.461c0.265,10.065,0.744,20.238,0.191,30.298c-0.061,1.087-0.506,1.279,0.213,0.775
							c-0.613,0.431-1.41,0.668-2.1,0.937c-2.61,1.019-5.292,1.865-7.959,2.723c-6.198,1.988-12.463,3.894-18.804,5.38
							c-4.427,1.036-9.5-2.382-13.448-4.083c-2.318-0.998-4.628-2.016-6.934-3.043c-1.233-0.549,0.228,1.679,0.228,0.726
							c0-0.819,0-1.642,0-2.462c0-9.986,0-19.973,0-29.959c0-1.935-3-1.935-3,0c0,10.92,0,21.841,0,32.762
							c0,0.483,0.276,1.086,0.743,1.295c3.41,1.526,6.835,3.02,10.273,4.481c2.971,1.265,6.731,3.59,10.034,3.679
							c3.21,0.086,6.932-1.506,9.964-2.354c5.431-1.521,10.828-3.178,16.17-4.985c1.832-0.62,6.05-1.377,7.155-3.266
							c1.21-2.065,0.588-5.987,0.607-8.232c0.07-8.222-0.119-16.451-0.334-24.669C64.469,16.53,61.469,16.525,61.52,18.461
							L61.52,18.461z"/>
					</g>
				</g>
				<g display="inline">
					<g>
						<path fill="#9A3D58" d="M31.377,24.323c-4.509-0.132-9.618-2.669-13.763-4.241c-2.699-1.023-5.387-2.133-7.907-3.549
							c-1.545-0.868-0.716,0.077-1.083,0.304c0.858-0.531,1.932-0.791,2.884-1.095c5.344-1.704,10.938-2.751,16.441-3.791
							c4.13-0.78,8.66-2.039,12.867-1.29c5.438,0.968,10.817,2.575,16.068,4.261c2.389,0.767,4.827,1.564,7.029,2.78
							c0.755,0.417,1.221-1.358-0.042-0.74c-0.938,0.459-2.002,0.728-2.996,1.033C51.602,20.844,41.091,23.621,31.377,24.323
							c-1.918,0.139-1.931,3.14,0,3c5.486-0.396,11.042-1.888,16.402-3.032c5.9-1.26,12.494-2.234,17.963-4.912
							c4.412-2.16-1.912-5.088-3.693-5.806c-6.689-2.693-13.98-4.656-21.076-5.919c-5.116-0.91-10.898,0.835-15.888,1.8
							c-5.749,1.112-13.184,1.83-18.272,4.977c-4.378,2.708,4.327,6.193,5.838,6.853c5.538,2.416,12.573,5.86,18.727,6.04
							C33.313,27.38,33.308,24.379,31.377,24.323z"/>
					</g>
				</g>
				<g display="inline">
					<g>
						<path fill="#9A3D58" d="M32.824,48.227c2.428-8.121,10.791-7.23,17.601-8.265c5.464-0.829,11.534-3.25,14.231-8.361
							c0.902-1.709-1.688-3.226-2.59-1.514C55.339,42.835,34.569,31.91,29.931,47.43C29.375,49.288,32.271,50.076,32.824,48.227
							L32.824,48.227z"/>
					</g>
				</g>
			</g>
			<g display="none" clip-path="url(#SVGID_2_)">
				<g display="inline">
					<path fill="#9A3D58" d="M43.896,39.721c-0.521,9.672-14.487,9.672-15.008,0C28.368,30.045,43.379,30.096,43.896,39.721
						c0.104,1.924,3.104,1.934,3,0c-0.319-5.943-4.56-10.183-10.502-10.503c-5.931-0.319-10.211,5.04-10.505,10.503
						c-0.32,5.934,5.042,10.209,10.505,10.504c5.932,0.318,10.209-5.039,10.502-10.504C47.002,37.787,44.001,37.797,43.896,39.721z"
						/>
					<path fill="#9A3D58" d="M45.732,22.377c-0.621-5.983-3-15.133-10.283-16.046c-8.77-1.1-14.733,6.455-18.535,13.301
						c-3.759,6.77-7.61,14.91-8.675,22.612c-0.439,3.18,0.034,6.183,1.906,8.806c2.017,2.825,6.009,2.226,8.957,2.03
						c6.256-0.413,10.745,4.847,15.104,8.449c2.84,2.348,5.952,4.06,9.546,4.894c7.146,1.659,16.002-0.737,20.623-6.534
						c5.078-6.373,2.07-15.863-1.454-22.178c-1.746-3.128-4.121-5.206-7.229-6.901c-4.188-2.283-8.883-3.553-10.012-8.832
						c-0.404-1.891-3.296-1.089-2.893,0.798c1.008,4.713,4.268,7.094,8.396,9.149c2.547,1.268,5.053,2.394,7.141,4.386
						c2.74,2.619,4.23,7.198,5.152,10.721c2.467,9.43-4.012,15.511-12.815,16.668c-8.813,1.157-13.832-4.261-20.125-9.3
						c-4.719-3.777-9.203-4.322-14.975-4.108c-9.3,0.347-1.842-16.686-0.24-20.254c2.647-5.897,5.182-11.877,9.665-16.653
						c2.936-3.127,7.692-5.397,11.887-3.443c4.234,1.973,5.434,8.333,5.859,12.435C42.932,24.281,45.934,24.3,45.732,22.377
						L45.732,22.377z"/>
				</g>
			</g>
			<g id="Layer_5" display="none" clip-path="url(#SVGID_2_)">
				<g display="inline">
					<g>
						<path fill="#9A3D58" d="M33.471,6.623c2.191,0,4.382,0,6.573,0c1.935,0,1.935-3,0-3c-2.19,0-4.382,0-6.573,0
							C31.536,3.623,31.536,6.623,33.471,6.623L33.471,6.623z"/>
					</g>
				</g>
				<g display="inline">
					<g>
						<path fill="#9A3D58" d="M40.441,6.569c-0.267,0.046-0.313-0.249-0.08,0.168c0.093,0.165,0.166,0.664,0.162,1.052
							c-0.002,0.418-0.092,0.73-0.295,1.088c-0.108,0.19-0.09,0.146-0.267,0.251c0.108-0.039,0.074-0.03-0.106,0.025
							c0.166-0.047-0.35-0.012-0.34-0.012c-1.933-0.121-1.92,2.88,0,3c5.246,0.328,5.336-9.372,0.129-8.465
							C37.742,4.008,38.551,6.898,40.441,6.569L40.441,6.569z"/>
					</g>
				</g>
				<g display="inline">
					<g>
						<path fill="#9A3D58" d="M33.846,3.676c-5.204-0.907-5.116,8.793,0.128,8.465c1.921-0.12,1.933-3.121,0-3
							c-0.681,0.042-0.926-0.356-0.998-1.173c-0.048-0.549-0.002-0.795,0.178-1.304c-0.008,0.023,0.145-0.165,0.177-0.196
							c-0.203,0.193-0.029,0.145-0.283,0.1C34.939,6.899,35.749,4.008,33.846,3.676L33.846,3.676z"/>
					</g>
				</g>
				<g display="inline">
					<g>
						<path fill="#9A3D58" d="M39.711,11.659c3.43,3.062,9.479,3.703,10.671,8.594c0.691,2.835,0.798,6.951-1.29,9.146
							c-1.009,1.061-2.019,2.122-3.027,3.183c-0.51,0.536-0.51,1.174-0.233,1.818c1.551,3.625,3.294,6.34,2.44,10.394
							c-0.914,4.349-1.347,7.99-0.791,12.445c0.285,2.301,0.937,4.483,1.705,6.661c0.293,0.826-4.433,1.442-4.777,1.485
							c-2.145,0.269-4.34,0.329-6.5,0.291c-1.88-0.032-3.745-0.053-5.623-0.202c-1.557-0.125-3.079-0.396-4.573-0.845
							c-2.158-0.647-0.008-4.194,0.11-5.93c0.29-4.229-0.004-8.487-0.958-12.613c-0.586-2.535-1.087-4.513,0.065-6.973
							c0.728-1.556,1.401-3.137,2.077-4.715c0.275-0.644,0.275-1.282-0.235-1.818c-1.01-1.061-2.02-2.122-3.03-3.183
							c-2.18-2.29-1.787-6.204-1.289-9.146c0.789-4.656,6.947-5.675,10.078-8.557c1.426-1.313-0.701-3.429-2.121-2.121
							c-4.616,4.249-9.905,4.3-11.068,11.173c-0.408,2.41-0.644,7.701,1.219,9.658c1.363,1.432,2.727,2.864,4.09,4.296
							c-0.078-0.606-0.156-1.212-0.235-1.818c-1.389,3.245-3.807,6.588-3.206,10.248c1.212,7.389,2.115,13.023,0.404,20.467
							c-1.266,5.504,11.421,5.129,14.293,5.077c2.861-0.051,15.566,0.489,14.285-5.077c-0.807-3.498-1.879-6.619-2.051-10.271
							c-0.146-3.117,0.652-5.98,1.287-9c0.916-4.354-1.341-7.542-3.01-11.442c-0.078,0.606-0.156,1.212-0.234,1.818
							c1.315-1.383,2.631-2.766,3.947-4.149c1.977-2.078,1.656-6.814,1.414-9.406c-0.693-7.434-6.923-7.33-11.715-11.609
							C40.395,8.254,38.266,10.368,39.711,11.659L39.711,11.659z"/>
					</g>
				</g>
				<g display="inline">
					<g>
						<path fill="#9A3D58" d="M24.696,44.514c8.48,0,16.96,0,25.439,0c1.936,0,1.936-3,0-3c-8.479,0-16.959,0-25.439,0
							C22.762,41.514,22.762,44.514,24.696,44.514L24.696,44.514z"/>
					</g>
				</g>
				<g display="inline">
					<g>
						<path fill="#9A3D58" d="M26.215,61.021c7.711,0,15.422,0,23.133,0c1.935,0,1.935-3,0-3c-7.711,0-15.422,0-23.133,0
							C24.281,58.021,24.281,61.021,26.215,61.021L26.215,61.021z"/>
					</g>
				</g>
				<g display="inline">
					<g>
						<path fill="#9A3D58" d="M36.379,54.809c0.313,0.42,0.398,0.395,0.26-0.08c-0.048-0.59,0.071-1.178,0.188-1.75
							c0.271-1.34,0.914-2.547,1.678-3.664c0.268-0.39,0.66-0.807,1.042-1.092c0.445-0.334-0.95-1.111-0.897-0.199
							c0.069,1.237-0.422,2.511-0.871,3.637c-0.717,1.799,2.187,2.57,2.894,0.797c0.656-1.646,1.651-4.514,0.601-6.23
							c-0.941-1.541-2.645-1.199-3.836-0.139c-1.792,1.594-2.896,3.803-3.5,6.094c-0.458,1.734-0.639,4.026,0.932,5.217
							C36.407,58.566,37.898,55.96,36.379,54.809L36.379,54.809z"/>
					</g>
				</g>
				<g display="inline">
					<g>
						<path fill="#9A3D58" d="M36.196,55.877c1.994-1.891,5.167-3.075,7.902-3.197c-0.482-0.633-0.965-1.266-1.447-1.897
							c-0.176,0.942-1.92,1.426-2.705,1.758c-1.709,0.724-3.438,1.399-5.08,2.269c-1.71,0.904-0.194,3.494,1.515,2.59
							c1.858-0.982,3.836-1.728,5.767-2.561c1.444-0.623,3.086-1.582,3.397-3.259c0.17-0.911-0.403-1.944-1.446-1.897
							c-3.539,0.156-7.438,1.627-10.021,4.075C32.668,55.089,34.793,57.207,36.196,55.877L36.196,55.877z"/>
					</g>
				</g>
				<g display="inline">
					<g>
						<path fill="#9A3D58" d="M37.057,49.059c-1.073-1.188-2.167-1.998-3.829-1.384c-1.394,0.517-3.016,1.706-3.987,2.824
							c-0.882,1.015-0.277,2.465,1.061,2.562c0.591,0.041,2.325-0.563,2.659-0.064c0.55,0.82,0.783,1.876,1.03,2.818
							c0.491,1.869,3.385,1.076,2.893-0.797c-0.368-1.404-0.794-2.914-1.717-4.063c-0.548-0.685-1.275-1.022-2.143-1.117
							c-0.938-0.104-1.796,0.289-2.722,0.224c0.354,0.854,0.707,1.707,1.061,2.561c0.588-0.678,1.269-1.073,2.008-1.563
							c0.339-0.224,0.637-0.483,1.025-0.627c-0.211,0.077,0.345,0.532,0.54,0.748C36.236,52.616,38.352,50.488,37.057,49.059
							L37.057,49.059z"/>
					</g>
				</g>
			</g>
			<g display="none" clip-path="url(#SVGID_2_)">
				<g display="inline">
					<path fill="#9A3D58" d="M29.021,24.261c0.657-2.95,3.094-15.971,7.728-13.947c4.392,1.919,7.953,10.001,8.64,14.451
						c0.092,0.599,0.846,1.167,1.445,1.101c4.619-0.513,10.396-1.418,14.73,0.654c5.056,2.418-6.48,13.358-8.91,14.653
						c-0.616,0.329-0.822,1.05-0.688,1.693c0.854,4.104,1.378,8.349,1.109,12.541c-0.55,8.582-13.412-1.604-15.703-5.041
						c-0.538-0.808-1.631-1.007-2.355-0.304c-3.256,3.153-6.968,6.478-11.222,8.17c-6.163,2.455-3.874-13.639-2.504-16.515
						c0.275-0.577,0.302-1.356-0.235-1.817c-3.793-3.254-7.644-6.956-10.077-11.354c-3.51-6.347,13.535-3.556,16.596-3.185
						c1.918,0.232,1.896-2.77,0-3c-5.015-0.608-18.021-3.809-20.15,3.107c-1.757,5.707,7.884,13.444,11.51,16.554
						c-0.078-0.604-0.156-1.211-0.235-1.816c-2.208,4.638-4.638,18.438,1.831,21.014c5.54,2.207,13.063-5.602,16.607-9.035
						c-0.786-0.102-1.571-0.201-2.355-0.304c2.975,4.466,13.431,13.394,19.113,9.077c4.615-3.505,1.943-14.174,0.963-18.889
						c-0.229,0.564-0.459,1.13-0.689,1.693c4.458-2.375,13.2-10.79,11.387-16.625c-2.096-6.745-13.523-4.85-18.722-4.273
						c0.481,0.367,0.964,0.734,1.446,1.101c-0.891-5.782-5.578-15.37-11.774-16.87c-6.902-1.67-9.433,12.128-10.377,16.366
						C25.709,25.348,28.601,26.149,29.021,24.261L29.021,24.261z"/>
					<path fill="#9A3D58" d="M25.8,29.049c-2.252,2.473-2.384,4.898-0.729,7.774c2.25,3.909-1.034,7.585,2.639,11.235
						c2.386,2.371,5.777,0.553,7.915-1.002c1.459-1.062,5.579,0.438,7.473,0.439c1.588,0.001,3.375-0.801,4.484-1.909
						c0.713-0.713,1.645-2.08,1.564-3.163c-0.133-1.791-2.021-4.104-1.676-5.665c0.754-3.42,0.719-6.195-1.807-8.886
						c-2.16-2.303-6.711-0.879-9.388-1.865c-4.342-1.599-6.383,0.706-10.173,2.805c-1.692,0.938-0.18,3.529,1.514,2.591
						c1.064-0.59,6.105-3.077,6.739-2.917c2.094,0.53,3.451,1.441,5.685,1.344c3.777-0.164,5.799,2.285,4.535,6.13
						c-0.486,1.48-0.094,2.657,0.592,3.962c3.423,6.524-7.75,2.794-11.058,4.542c-2.758,1.458-5.905-1.07-5.189-4.195
						c0.138-0.6,0.219-1.289,0.074-1.893c-0.599-2.498-3.407-4.647-1.075-7.208C29.22,29.744,27.105,27.616,25.8,29.049z"/>
					<path fill="#9A3D58" d="M36.671,39.383c0.789-1.115,1.659-2.186,2.248-3.427c0.351-0.738,0.212-1.613-0.538-2.052
						c-0.658-0.386-1.701-0.2-2.052,0.539c-0.589,1.241-1.46,2.31-2.248,3.427c-0.473,0.669-0.122,1.666,0.538,2.052
						C35.37,40.361,36.2,40.05,36.671,39.383L36.671,39.383z"/>
					<path fill="#9A3D58" d="M33.084,36.26c1.505,1.45,3.368,2.398,5.016,3.661c0.65,0.499,1.678,0.103,2.053-0.538
						c0.451-0.771,0.109-1.556-0.539-2.053c-1.441-1.105-3.092-1.924-4.407-3.191C33.813,32.797,31.688,34.916,33.084,36.26
						L33.084,36.26z"/>
					<path fill="#9A3D58" d="M34.84,34.313c0.114,0.58,0.221,1.159,0.428,1.715c0.285,0.765,1.004,1.279,1.845,1.048
						c0.736-0.203,1.334-1.079,1.048-1.846c-0.207-0.556-0.313-1.135-0.429-1.715c-0.157-0.803-1.102-1.252-1.844-1.047
						C35.056,32.696,34.682,33.511,34.84,34.313L34.84,34.313z"/>
				</g>
			</g>
			<g id="Layer_6" display="none" clip-path="url(#SVGID_2_)">
				<g display="inline">
					<g>
						<path fill="#9A3D58" d="M60.034,30.721c-0.319,1.446-0.64,2.892-0.958,4.338c-0.192,0.873-0.387,1.746-0.578,2.618
							c-0.336,1.519-0.814,1.413,0.275,0.841c-2.049,1.075-4.097,2.15-6.146,3.227C45.285,45.6,37.941,49.454,30.6,53.309
							c-0.768,0.403-1.536,0.808-2.304,1.209c-0.638,0.336,1.971,0.373,1.13-0.059c-0.589-0.303-1.179-0.604-1.768-0.907
							c-3.633-1.862-7.267-3.727-10.9-5.59c-0.489-0.251-0.979-0.502-1.469-0.753c-1.018-0.521,0.083,0.454-0.15-0.031
							c-0.684-1.422-1.368-2.843-2.053-4.265c-1.42-2.952-2.84-5.903-4.261-8.855c-0.839-1.743-3.425-0.22-2.591,1.515
							c2.34,4.862,4.018,12.42,9.009,14.979c3.825,1.961,7.65,3.924,11.475,5.885c1.93,0.989,2.6,0.931,4.476-0.056
							c7.886-4.141,15.773-8.28,23.66-12.421c1.713-0.898,4.375-1.709,5.771-3.105c1.736-1.735,1.782-6.982,2.302-9.336
							C63.343,29.633,60.451,28.832,60.034,30.721L60.034,30.721z"/>
					</g>
				</g>
				<g display="inline">
					<g>
						<path fill="#9A3D58" d="M4.284,34.961c5.717,2.716,11.435,5.434,17.152,8.15c3.963,1.884,6.299,4.054,10.343,2.271
							c11.94-5.262,23.88-10.523,35.821-15.785c0.996-0.439,0.969-2.143,0-2.591c-5.884-2.722-11.767-5.444-17.649-8.166
							c-3.347-1.548-7.263-4.79-10.849-3.08C27.496,21.298,15.89,26.834,4.284,32.371c-1.746,0.833-0.223,3.419,1.514,2.591
							c11.181-5.333,22.362-10.667,33.542-16c0.717-0.342,1.434-0.684,2.148-1.025c1.195-0.57-1.953-0.622-0.442,0.077
							c2.745,1.271,5.491,2.541,8.237,3.812c5.601,2.591,11.201,5.183,16.803,7.774c0-0.864,0-1.727,0-2.591
							C54.646,32.048,43.207,37.09,31.768,42.131c-0.879,0.387-1.758,0.773-2.637,1.162c-1.5,0.66-0.571-0.105,0.503,0.404
							c-2.228-1.059-4.456-2.117-6.684-3.176c-5.718-2.717-11.435-5.435-17.153-8.151C4.06,31.545,2.537,34.131,4.284,34.961
							L4.284,34.961z"/>
					</g>
				</g>
				<g display="inline">
					<g>
						<path fill="#9A3D58" d="M20.169,33.343c2.656,1.262,5.313,2.525,7.97,3.788c1.689,0.803,3.01,1.896,4.815,1.102
							c5.524-2.436,11.051-4.871,16.575-7.306c0.996-0.439,0.97-2.143,0-2.591c-2.768-1.281-5.536-2.562-8.305-3.843
							c-1.457-0.674-3.391-2.167-5.01-1.395c-5.349,2.552-10.697,5.103-16.046,7.654c-1.746,0.833-0.223,3.419,1.514,2.591
							c4.971-2.371,9.941-4.742,14.913-7.113c1.95-0.931,0.594-0.314,0.182-0.505c1.248,0.578,2.498,1.156,3.746,1.734
							c2.498,1.156,4.996,2.312,7.494,3.468c0-0.864,0-1.727,0-2.591c-5.065,2.232-10.131,4.464-15.197,6.696
							c-0.611,0.269-1.222,0.539-1.833,0.808c1.036-0.457,1.917,0.246,0.658-0.353c-0.664-0.316-1.328-0.631-1.993-0.947
							c-2.657-1.262-5.313-2.525-7.97-3.788C19.946,29.927,18.422,32.513,20.169,33.343L20.169,33.343z"/>
					</g>
				</g>
				<g display="inline">
					<g>
						<path fill="#9A3D58" d="M30.421,55.883c-0.255-3.191-0.51-6.382-0.765-9.572c-0.153-1.916-3.154-1.931-3,0
							c0.255,3.19,0.51,6.381,0.765,9.572C27.574,57.798,30.576,57.813,30.421,55.883L30.421,55.883z"/>
					</g>
				</g>
			</g>
			<g id="Layer_7" display="none" clip-path="url(#SVGID_2_)">
				<g display="inline">
					<g>
						<path fill="#9A3D58" d="M31.464,47.131c-1.317,2.953-2.634,5.906-3.952,8.859c-0.781,1.75,1.804,3.277,2.591,1.514
							c1.317-2.953,2.634-5.906,3.952-8.859C34.835,46.895,32.251,45.367,31.464,47.131L31.464,47.131z"/>
					</g>
				</g>
				<g display="inline">
					<g>
						<path fill="#9A3D58" d="M37.527,32.416c-1.315,2.951-2.632,5.902-3.95,8.855c-0.78,1.75,1.805,3.277,2.592,1.515
							c1.315-2.951,2.633-5.904,3.951-8.856C40.9,32.179,38.314,30.652,37.527,32.416L37.527,32.416z"/>
					</g>
				</g>
				<g display="inline">
					<g>
						<path fill="#9A3D58" d="M34.059,24.335c2.476-0.271,3.798,1.611,4.712,3.665c0.785,1.765,3.369,0.236,2.59-1.515
							c-1.314-2.955-3.823-5.531-7.302-5.15C32.157,21.543,32.137,24.545,34.059,24.335L34.059,24.335z"/>
					</g>
				</g>
				<g display="inline">
					<g>
						<path fill="#9A3D58" d="M46.214,14.167c-2.776,2.923-4.567,6.804-5.592,10.672c-0.496,1.873,2.397,2.667,2.894,0.798
							c0.892-3.369,2.396-6.798,4.819-9.349C49.667,14.886,47.549,12.762,46.214,14.167L46.214,14.167z"/>
					</g>
				</g>
				<g display="inline">
					<g>
						<path fill="#9A3D58" d="M49.678,23.339c-3.699-0.283-6.512,1.626-9.566,3.408c-1.67,0.974-0.16,3.567,1.514,2.59
							c2.592-1.511,4.906-3.239,8.055-2.999C51.607,26.486,51.594,23.485,49.678,23.339L49.678,23.339z"/>
					</g>
				</g>
			</g>
			<g display="none" clip-path="url(#SVGID_2_)">
				<g display="inline">
					<path fill="#9A3D58" d="M34.125,28.176c5.118-4.364,9.285-9.748,15.707-12.264c7.745-3.035,14.945,3.023,15.465,10.743
						c0.575,8.563-6.842,12.509-14.201,13.005c-5.628,0.379-10.019,0.932-14.593,4.492c-4.823,3.754-7.045,9.396-13.141,11.683
						c-7.203,2.7-16.167-1.345-16.245-9.489c-0.077-8.051,6.946-13.286,14.29-13.664C26.591,32.416,30.318,32.054,34.125,28.176
						c1.356-1.381-0.764-3.503-2.121-2.121c-5.911,6.019-15.217,1.555-21.513,7.289c-5.047,4.596-7.912,11.834-5.442,18.479
						c2.177,5.854,9.282,7.781,14.874,7.646c8.175-0.2,12.683-6.852,17.738-12.239c6.633-7.068,17.243-2.487,24.771-7.893
						c5.721-4.108,6.916-12.044,4.688-18.292c-2.225-6.239-8.828-9.317-15.092-8.718c-8.426,0.806-14.094,8.671-20.023,13.729
						C30.53,27.313,32.663,29.424,34.125,28.176z"/>
					<path fill="#9A3D58" d="M65.077,18.954c-5.009-0.378-10.16,0.287-15.009,1.551c-5.793,1.51-9.476,6.347-13.625,10.326
						c-2.97,2.848-6.296,4.565-10.272,5.493c-3.638,0.85-7.319-0.364-10.989,0.65c-5.029,1.391-7.593,6.754-9.495,11.092
						c-0.769,1.754,1.815,3.281,2.591,1.514c2.807-6.398,5.871-10.63,13.591-10.102c5.091,0.351,10.213-1.215,14.209-4.422
						c4.5-3.611,8.106-9.279,13.649-11.309c4.733-1.733,10.345-2.171,15.349-1.793C67.008,22.1,66.994,19.099,65.077,18.954
						L65.077,18.954z"/>
					<path fill="#9A3D58" d="M67.533,26.387c-3.492-1.557-6.842-2.395-10.588-1.413c-7.178,1.88-13.166,8.17-19.088,12.327
						c-5.628,3.952-28.701,8.646-25.839,19.348c0.499,1.867,3.393,1.074,2.893-0.797c-1.146-4.287,7.323-7.992,10.211-9.393
						c4.818-2.336,9.757-3.527,14.25-6.566c7.892-5.341,16.33-15.514,26.647-10.915C67.771,29.758,69.298,27.173,67.533,26.387
						L67.533,26.387z"/>
					<path fill="#9A3D58" d="M61.953,37.23c-2.66-4.586-0.66-10.083-3.311-14.741c-1.979-3.479-6.656-4.925-9.867-6.889
						c-1.654-1.012-3.16,1.583-1.514,2.591c4.32,2.643,9.323,3.958,10.045,9.783c0.485,3.91-0.002,7.225,2.057,10.771
						C60.333,40.418,62.926,38.908,61.953,37.23L61.953,37.23z"/>
					<path fill="#9A3D58" d="M52,40.386c-1.043-3.292-1.348-6.091-3.497-8.939c-2.612-3.46-5.435-6.577-7.46-10.455
						c-0.896-1.715-3.484-0.199-2.59,1.514c1.482,2.84,3.354,5.394,5.311,7.922c1.178,1.52,2.495,2.888,3.521,4.525
						c1.157,1.848,1.18,4.197,1.823,6.229C49.689,43.021,52.586,42.234,52,40.386L52,40.386z"/>
					<path fill="#9A3D58" d="M32.136,26.638c0.009,3.338,0.031,6.485,1.473,9.558c1.382,2.945,4.301,5.131,6.675,7.224
						c1.444,1.273,3.575-0.84,2.12-2.121c-2.049-1.807-4.152-3.535-5.723-5.798c-1.782-2.568-1.538-5.892-1.545-8.863
						C35.13,24.704,32.13,24.703,32.136,26.638L32.136,26.638z"/>
					<path fill="#9A3D58" d="M34.638,49.57c0.429-8.025-4.84-13.935-10.917-18.445c-1.555-1.154-3.049,1.452-1.514,2.591
						c5.234,3.886,9.801,8.938,9.431,15.854C31.534,51.505,34.535,51.494,34.638,49.57L34.638,49.57z"/>
					<path fill="#9A3D58" d="M13.658,33.363c2.738,8.173,7.49,15.892,14.337,21.241c1.505,1.176,3.645-0.933,2.121-2.121
						c-6.45-5.039-10.981-12.203-13.566-19.917C15.939,30.741,13.042,31.523,13.658,33.363L13.658,33.363z"/>
					<path fill="#9A3D58" d="M6.202,39.65c0.768,3.943,2.632,7.25,5.19,10.314c2.774,3.323,5.45,6.979,9.203,9.249
						c1.659,1.005,3.166-1.59,1.514-2.59c-2.921-1.769-4.926-4.468-7.063-7.063c-2.792-3.392-5.087-6.273-5.95-10.707
						C8.725,36.957,5.834,37.762,6.202,39.65L6.202,39.65z"/>
				</g>
			</g>
			<g display="none" clip-path="url(#SVGID_2_)">
				<g display="inline">
					<path fill="#9A3D58" d="M26.974,46.675C26.555,55.357,12.87,62.23,8.001,53.173c-0.917-1.705-3.506-0.188-2.591,1.515
						c6.35,11.813,24.006,3.543,24.563-8.013C30.067,44.74,27.066,44.749,26.974,46.675L26.974,46.675z"/>
					<path fill="#9A3D58" d="M29.679,46.509c6.706-2.62,53.938-22.348,38.023-33.703c-6.474-4.619-17.731,6.719-21.812,10.417
						c-7.013,6.356-13.875,13.457-19.52,21.082c-1.152,1.557,1.454,3.051,2.591,1.514c4.138-5.592,9.118-10.706,14.005-15.632
						c5.276-5.32,13.26-14.508,21.29-15.208c4.429-0.386,3.28,4.854,1.729,7.11c-2.852,4.145-7.84,7.017-12.049,9.554
						c-7.91,4.767-16.465,8.614-25.059,11.973C27.1,44.313,27.875,47.214,29.679,46.509L29.679,46.509z"/>
					<path fill="#9A3D58" d="M28.478,42.004c-7.836,3.178-16.118,4.987-23.334,9.559c-1.629,1.03-0.126,3.629,1.514,2.59
						c6.993-4.428,15.027-6.178,22.619-9.256C31.044,44.18,30.271,41.275,28.478,42.004L28.478,42.004z"/>
					<path fill="#9A3D58" d="M26.138,41.752c-6.465-8.871-17.329-0.191-18.381,8.279c-0.238,1.917,2.765,1.894,3,0
						c0.667-5.372,8.277-12.959,12.791-6.766C24.675,44.813,27.28,43.318,26.138,41.752L26.138,41.752z"/>
				</g>
			</g>
			<g display="none" clip-path="url(#SVGID_2_)">
				<g display="inline">
					<path fill="#9A3D58" d="M17.225,61.036c9.792-7.507,22.434-21.604,21.8-34.819c-0.646-13.496-22.188-15.974-30-7.529
						c-8.742,9.453-3.573,25.453,4.433,33.444c12.901,12.878,38.02,9.858,49.372-3.405c5.229-6.108,8.302-17.072,4.771-24.687
						c-3.818-8.235-14.012-12.188-22.604-10.025c-9.1,2.291-13.017,11.89-11.72,20.414c0.809,5.317,5.681,10.238,9.341,13.813
						c4.453,4.349,9.764,7.928,15.275,10.777c1.715,0.888,3.231-1.701,1.514-2.59c-10.813-5.593-27.106-16.953-22.59-31.083
						c4.545-14.225,26.082-10.007,28.957,2.938c2.914,13.108-8.596,24.59-20.217,27.59c-9.976,2.575-21.345,1.704-29.328-5.255
						C7.069,42.632,1.99,20.001,18.36,16.941c8.444-1.578,19.023,3.064,17.485,12.752c-1.274,8.024-7.186,15.468-12.408,21.364
						c-2.352,2.654-4.906,5.228-7.726,7.389C14.198,59.605,15.689,62.214,17.225,61.036L17.225,61.036z"/>
				</g>
			</g>
			<g id="Layer_8" display="none" clip-path="url(#SVGID_2_)">
				<g display="inline">
					<g>
						<path fill="#9A3D58" d="M56.698,55.384c-5.712,0.158-11.423,0.315-17.134,0.474c0.5,0.5,1,1,1.5,1.5
							c-0.148-5.355-0.297-10.713-0.444-16.069c-0.5,0.5-1,1-1.5,1.5c5.711-0.159,11.422-0.317,17.133-0.478c-0.5-0.5-1-1-1.5-1.5
							c0.147,5.357,0.297,10.715,0.445,16.073c0.054,1.931,3.054,1.937,3,0c-0.148-5.358-0.298-10.716-0.445-16.073
							c-0.022-0.801-0.666-1.523-1.5-1.5c-5.711,0.158-11.422,0.317-17.133,0.478c-0.8,0.022-1.522,0.665-1.5,1.5
							c0.147,5.356,0.296,10.714,0.444,16.069c0.021,0.801,0.666,1.523,1.5,1.5c5.711-0.157,11.422-0.314,17.134-0.474
							C58.629,58.33,58.634,55.33,56.698,55.384z"/>
					</g>
				</g>
				<g display="inline">
					<g>
						<path fill="#9A3D58" d="M45.661,33.663c5.711-0.158,11.422-0.315,17.133-0.473c-0.5-0.5-1-1-1.5-1.5
							c0.147,5.356,0.298,10.714,0.446,16.07c0.054,1.932,3.054,1.936,3,0c-0.148-5.355-0.299-10.714-0.446-16.07
							c-0.022-0.8-0.665-1.523-1.5-1.5c-5.711,0.158-11.422,0.315-17.133,0.473C43.73,30.716,43.727,33.716,45.661,33.663
							L45.661,33.663z"/>
					</g>
				</g>
				<g display="inline">
					<g>
						<path fill="#9A3D58" d="M44.366,31.406c-2.181,3.042-4.361,6.083-6.541,9.125c-1.13,1.574,1.474,3.07,2.59,1.514
							c2.181-3.041,4.36-6.083,6.541-9.124C48.086,31.344,45.482,29.848,44.366,31.406L44.366,31.406z"/>
					</g>
				</g>
				<g display="inline">
					<g>
						<path fill="#9A3D58" d="M61.499,30.933c-2.181,3.04-4.36,6.081-6.541,9.12c-1.13,1.575,1.474,3.071,2.59,1.514
							c2.181-3.039,4.361-6.08,6.541-9.12C65.219,30.871,62.615,29.375,61.499,30.933L61.499,30.933z"/>
					</g>
				</g>
				<g display="inline">
					<g>
						<path fill="#9A3D58" d="M61.945,47.003c-2.182,3.041-4.361,6.082-6.543,9.124c-1.129,1.575,1.475,3.071,2.591,1.514
							c2.181-3.041,4.36-6.082,6.542-9.123C65.665,46.941,63.063,45.445,61.945,47.003L61.945,47.003z"/>
					</g>
				</g>
				<g display="inline">
					<g>
						<path fill="#9A3D58" d="M26.879,56.21c-5.711,0.159-11.422,0.319-17.133,0.479c0.5,0.5,1,1,1.5,1.5
							c-0.148-5.358-0.297-10.717-0.446-16.075c-0.5,0.5-1,1-1.5,1.5c5.711-0.158,11.422-0.315,17.133-0.474c-0.5-0.5-1-1-1.5-1.5
							c0.148,5.355,0.297,10.713,0.446,16.069c0.054,1.931,3.054,1.937,3,0c-0.148-5.356-0.297-10.714-0.446-16.069
							c-0.022-0.801-0.666-1.523-1.5-1.5c-5.711,0.157-11.422,0.314-17.133,0.474c-0.8,0.021-1.523,0.665-1.5,1.5
							c0.148,5.358,0.297,10.717,0.446,16.075c0.022,0.8,0.666,1.522,1.5,1.5c5.711-0.16,11.422-0.319,17.133-0.479
							C28.81,59.156,28.815,56.156,26.879,56.21z"/>
					</g>
				</g>
				<g display="inline">
					<g>
						<path fill="#9A3D58" d="M15.842,34.489c5.711-0.158,11.422-0.316,17.133-0.474c-0.5-0.5-1-1-1.5-1.5
							c0.148,5.357,0.297,10.713,0.446,16.071c0.054,1.932,3.054,1.936,3,0c-0.148-5.357-0.297-10.714-0.446-16.071
							c-0.022-0.8-0.666-1.523-1.5-1.5c-5.711,0.158-11.422,0.316-17.133,0.474C13.911,31.542,13.906,34.542,15.842,34.489
							L15.842,34.489z"/>
					</g>
				</g>
				<g display="inline">
					<g>
						<path fill="#9A3D58" d="M14.546,32.231c-2.18,3.042-4.361,6.083-6.542,9.125c-1.129,1.576,1.474,3.071,2.591,1.515
							c2.18-3.041,4.361-6.083,6.542-9.124C18.267,32.17,15.663,30.674,14.546,32.231L14.546,32.231z"/>
					</g>
				</g>
				<g display="inline">
					<g>
						<path fill="#9A3D58" d="M28.407,36.322c-1.089,1.52-2.179,3.04-3.269,4.561c-1.129,1.575,1.474,3.071,2.591,1.514
							c1.089-1.52,2.179-3.039,3.269-4.561C32.127,36.26,29.524,34.765,28.407,36.322L28.407,36.322z"/>
					</g>
				</g>
				<g display="inline">
					<g>
						<path fill="#9A3D58" d="M32.125,47.829c-2.18,3.041-4.361,6.082-6.542,9.124c-1.129,1.574,1.474,3.07,2.591,1.514
							c2.18-3.041,4.361-6.082,6.542-9.124C35.846,47.768,33.242,46.271,32.125,47.829L32.125,47.829z"/>
					</g>
				</g>
				<g display="inline">
					<g>
						<path fill="#9A3D58" d="M41.604,35.247c-5.711,0.159-11.422,0.318-17.135,0.477c0.5,0.5,1,1,1.5,1.5
							c-0.148-5.358-0.297-10.717-0.445-16.075c-0.5,0.5-1,1-1.5,1.5c5.711-0.158,11.422-0.316,17.134-0.474c-0.5-0.5-1-1-1.5-1.5
							c0.148,5.357,0.297,10.714,0.445,16.071c0.054,1.93,3.054,1.937,3,0c-0.148-5.357-0.297-10.714-0.445-16.071
							c-0.021-0.8-0.666-1.523-1.5-1.5c-5.711,0.158-11.422,0.316-17.134,0.474c-0.8,0.022-1.523,0.666-1.5,1.5
							c0.148,5.358,0.297,10.716,0.445,16.075c0.022,0.799,0.666,1.522,1.5,1.5c5.711-0.16,11.422-0.318,17.135-0.479
							C43.533,38.191,43.538,35.193,41.604,35.247z"/>
					</g>
				</g>
				<g display="inline">
					<g>
						<path fill="#9A3D58" d="M30.565,13.526c5.711-0.159,11.421-0.317,17.133-0.476c-0.5-0.5-1-1-1.5-1.5
							c0.147,5.358,0.297,10.717,0.444,16.076c0.055,1.931,3.055,1.936,3,0c-0.147-5.358-0.297-10.717-0.444-16.076
							c-0.022-0.8-0.666-1.523-1.5-1.5c-5.712,0.159-11.422,0.317-17.133,0.476C28.635,10.58,28.63,13.58,30.565,13.526
							L30.565,13.526z"/>
					</g>
				</g>
				<g display="inline">
					<g>
						<path fill="#9A3D58" d="M29.27,11.269c-2.181,3.041-4.361,6.082-6.542,9.124c-1.13,1.576,1.474,3.071,2.591,1.514
							c2.181-3.041,4.361-6.082,6.542-9.124C32.991,11.207,30.387,9.712,29.27,11.269L29.27,11.269z"/>
					</g>
				</g>
				<g display="inline">
					<g>
						<path fill="#9A3D58" d="M46.402,10.793c-2.18,3.042-4.36,6.083-6.541,9.125c-1.129,1.576,1.475,3.071,2.591,1.514
							c2.181-3.042,4.36-6.083,6.541-9.125C50.123,10.731,47.52,9.236,46.402,10.793L46.402,10.793z"/>
					</g>
				</g>
				<g display="inline">
					<g>
						<path fill="#9A3D58" d="M46.85,26.869c-2.182,3.04-4.361,6.08-6.541,9.12c-1.131,1.575,1.474,3.071,2.59,1.515
							c2.181-3.041,4.36-6.081,6.541-9.121C50.568,26.808,47.965,25.312,46.85,26.869L46.85,26.869z"/>
					</g>
				</g>
				
					<rect x="27.635" y="23.534" transform="matrix(-0.9996 0.0277 -0.0277 -0.9996 66.3522 56.6732)" display="inline" fill="#FFFFFF" stroke="#FFFFFF" stroke-width="4" stroke-miterlimit="10" width="10.296" height="10.525"/>
			</g>
			<g id="Layer_9" display="none" clip-path="url(#SVGID_2_)">
				<g display="inline">
					<g>
						<path fill="#9A3D58" d="M24.975,61.191c-10.6-0.306-15.319-7.807-15.894-17.686c-0.34-5.85,1.005-11.801,3.51-17.07
							c1.321-2.78,2.985-5.278,5.63-6.956c1.316-0.834,4.751,0.767,6.323,0.925c1.924,0.194,1.906-2.808,0-3
							c-2.454-0.247-4.053-2.148-6.587-1.055c-2.941,1.269-4.84,3.335-6.549,5.997c-3.973,6.186-5.51,13.903-5.327,21.16
							c0.292,11.599,6.891,20.339,18.894,20.685C26.91,64.247,26.905,61.247,24.975,61.191L24.975,61.191z"/>
						<path fill="#9A3D58" d="M47.432,65.109c12.693-0.394,17.992-10.18,18.309-21.856c0.191-7.075-1.934-13.794-5.176-19.987
							c-1.398-2.671-3.603-4.775-6.336-5.997c-2.455-1.099-4.054,0.812-6.379,1.054c-1.904,0.198-1.924,3.2,0,3
							c1.361-0.142,1.832-0.257,3.072-0.793c3.831-1.659,6.264,2.745,7.684,5.458c2.813,5.371,4.108,11.214,4.135,17.265
							c0.043,9.933-4.549,18.522-15.309,18.856C45.501,62.169,45.495,65.169,47.432,65.109L47.432,65.109z"/>
						<path fill="#9A3D58" d="M32.876,17.21c-5.216-1.257-8.336-0.737-11.763,3.618c-4.261,5.415-5.442,12.24-5.701,18.958
							c-0.242,6.293,0.943,12.631,3.933,18.19c1.77,3.293,5.934,8.479,10.317,7.516c7.514-1.653,8.947-14.247,9.787-20.342
							c1.176-8.547,1.996-22.292-6.216-27.79c-1.612-1.08-3.112,1.521-1.514,2.591c6.516,4.361,5.645,16.078,5.012,22.882
							c-0.534,5.721-1.697,11.999-4.563,17.027c-2.352,4.127-5.384,2.477-8.087-0.375c-3.854-4.065-5.145-10.143-5.588-15.522
							c-0.415-5.034,0.167-10.167,1.62-14.991c0.934-3.102,2.706-5.74,4.879-8.099c1.965-2.134,4.655-1.356,7.086-0.771
							C33.959,20.556,34.756,17.663,32.876,17.21L32.876,17.21z"/>
						<path fill="#9A3D58" d="M32.821,62.213c1.835,7.053,13.588,4.428,17.171,0.572c3.938-4.236,3.518-14.368,3.554-19.814
							c0.042-6.412-0.021-13.799-2.836-19.684c-1.137-2.379-2.927-6.208-6.108-6.191c-3.645,0.02-7.729-1.376-10.385,1.846
							c-1.221,1.48,0.889,3.615,2.122,2.121c1.886-2.288,8.563-1.467,10.163,0.745c1.318,1.822,2.167,4.076,2.729,6.23
							c1.176,4.499,1.262,9.381,1.313,14.01c0.031,2.833-0.192,5.668-0.444,8.486c-0.264,2.934-0.728,5.827-1.521,8.664
							c-0.814,2.909-3.962,4.134-6.637,4.351c-1.432,0.116-5.723-0.188-6.229-2.133C35.227,59.545,32.333,60.339,32.821,62.213
							L32.821,62.213z"/>
						<path fill="#9A3D58" d="M43.221,17.215c-3.621-3.181-2.205-6.347-1.684-10.353c0.113-0.871-0.773-1.423-1.5-1.5
							c-2.271-0.241-6.978-0.849-8.495,1.181c-0.881,1.18-0.418,3.058-0.82,4.427c-0.859,2.925-3.573,5.875-6.578,6.489
							c-1.895,0.387-1.091,3.279,0.798,2.893c3.85-0.787,7.004-4.252,8.381-7.829c0.321-0.834,0.63-1.683,0.693-2.584
							c0.113-1.603-0.107-1.415,1.618-1.598c1.558-0.166,2.843-0.145,4.402,0.021c-0.5-0.5-1-1-1.5-1.5
							c-0.644,4.937-1.755,8.683,2.562,12.474C42.546,20.608,44.676,18.495,43.221,17.215L43.221,17.215z"/>
					</g>
				</g>
			</g>
			<g display="none" clip-path="url(#SVGID_2_)">
				<g display="inline">
					<path fill="#9A3D58" d="M33.956,37.654c1.935,0,1.935-3,0-3S32.021,37.654,33.956,37.654L33.956,37.654z"/>
					<path fill="#9A3D58" d="M37.928,36.857c1.936,0,1.936-3,0-3C35.993,33.857,35.993,36.857,37.928,36.857L37.928,36.857z"/>
					<path fill="#9A3D58" d="M36.734,42.021c1.936,0,1.936-3,0-3C34.8,39.021,34.801,42.021,36.734,42.021L36.734,42.021z"/>
					<path fill="#9A3D58" d="M41.898,40.035c1.936,0,1.936-3,0-3C39.964,37.035,39.965,40.035,41.898,40.035L41.898,40.035z"/>
					<path fill="#9A3D58" d="M29.587,42.42c1.935,0,1.935-3,0-3S27.652,42.42,29.587,42.42L29.587,42.42z"/>
					<path fill="#9A3D58" d="M30.381,37.654c1.935,0,1.935-3,0-3S28.447,37.654,30.381,37.654L30.381,37.654z"/>
					<path fill="#9A3D58" d="M32.367,33.283c1.935,0,1.935-3,0-3C30.432,30.283,30.433,33.283,32.367,33.283L32.367,33.283z"/>
					<path fill="#9A3D58" d="M37.134,32.887c1.935,0,1.935-3,0-3S35.199,32.887,37.134,32.887L37.134,32.887z"/>
					<path fill="#9A3D58" d="M42.297,36.064c1.936,0,1.936-3,0-3S40.361,36.064,42.297,36.064L42.297,36.064z"/>
					<path fill="#9A3D58" d="M39.911,44.404c1.935,0,1.935-3,0-3S37.977,44.404,39.911,44.404L39.911,44.404z"/>
					<path fill="#9A3D58" d="M34.353,45.994c1.934,0,1.934-3,0-3C32.418,42.994,32.418,45.994,34.353,45.994L34.353,45.994z"/>
					<path fill="#9A3D58" d="M33.161,42.816c1.935,0,1.935-3,0-3S31.226,42.816,33.161,42.816L33.161,42.816z"/>
					<path fill="#9A3D58" d="M27.204,38.051c1.935,0,1.935-3,0-3S25.27,38.051,27.204,38.051L27.204,38.051z"/>
					<path fill="#9A3D58" d="M28.395,34.08c1.935,0,1.935-3,0-3S26.46,34.08,28.395,34.08L28.395,34.08z"/>
					<path fill="#9A3D58" d="M27.601,29.315c1.935,0,1.935-3,0-3S25.666,29.315,27.601,29.315L27.601,29.315z"/>
					<path fill="#9A3D58" d="M32.367,30.108c1.935,0,1.935-3,0-3C30.432,27.108,30.433,30.108,32.367,30.108L32.367,30.108z"/>
					<path fill="#9A3D58" d="M35.94,31.696c1.935,0,1.935-3,0-3S34.006,31.696,35.94,31.696L35.94,31.696z"/>
					<path fill="#9A3D58" d="M41.503,33.283c1.935,0,1.935-3,0-3S39.568,33.283,41.503,33.283L41.503,33.283z"/>
					<path fill="#9A3D58" d="M43.885,31.696c1.936,0,1.936-3,0-3C41.95,28.696,41.95,31.696,43.885,31.696L43.885,31.696z"/>
					<path fill="#9A3D58" d="M45.076,37.258c1.936,0,1.936-3,0-3S43.143,37.258,45.076,37.258L45.076,37.258z"/>
					<path fill="#9A3D58" d="M45.87,41.625c1.935,0,1.935-3,0-3S43.936,41.625,45.87,41.625L45.87,41.625z"/>
					<path fill="#9A3D58" d="M41.898,47.581c1.936,0,1.936-3,0-3C39.964,44.581,39.965,47.581,41.898,47.581L41.898,47.581z"/>
					<path fill="#9A3D58" d="M37.134,49.568c1.935,0,1.935-3,0-3S35.199,49.568,37.134,49.568L37.134,49.568z"/>
					<path fill="#9A3D58" d="M31.175,45.2c1.935,0,1.935-3,0-3C29.24,42.2,29.241,45.2,31.175,45.2L31.175,45.2z"/>
					<path fill="#9A3D58" d="M31.572,40.432c1.935,0,1.935-3,0-3C29.637,37.432,29.637,40.432,31.572,40.432L31.572,40.432z"/>
					<path fill="#9A3D58" d="M37.928,39.639c1.936,0,1.936-3,0-3C35.993,36.639,35.993,39.639,37.928,39.639L37.928,39.639z"/>
					<path fill="#9A3D58" d="M34.353,34.873c1.934,0,1.934-3,0-3C32.418,31.873,32.418,34.873,34.353,34.873L34.353,34.873z"/>
					<path fill="#9A3D58" d="M31.97,36.064c1.935,0,1.935-3,0-3C30.035,33.064,30.036,36.064,31.97,36.064L31.97,36.064z"/>
					<path fill="#9A3D58" d="M34.75,39.639c1.934,0,1.934-3,0-3C32.815,36.639,32.815,39.639,34.75,39.639L34.75,39.639z"/>
					<path fill="#9A3D58" d="M35.94,37.258c1.935,0,1.935-3,0-3S34.006,37.258,35.94,37.258L35.94,37.258z"/>
					<path fill="#9A3D58" d="M39.117,38.447c1.936,0,1.936-3,0-3C37.184,35.447,37.184,38.447,39.117,38.447L39.117,38.447z"/>
					<path fill="#9A3D58" d="M37.134,34.873c1.935,0,1.935-3,0-3S35.199,34.873,37.134,34.873L37.134,34.873z"/>
					<path fill="#9A3D58" d="M39.516,35.667c1.935,0,1.935-3,0-3C37.58,32.667,37.58,35.667,39.516,35.667L39.516,35.667z"/>
					<path fill="#9A3D58" d="M35.146,43.609c1.935,0,1.935-3,0-3S33.212,43.609,35.146,43.609L35.146,43.609z"/>
					<path fill="#9A3D58" d="M39.516,42.021c1.935,0,1.935-3,0-3C37.58,39.021,37.58,42.021,39.516,42.021L39.516,42.021z"/>
					<path fill="#9A3D58" d="M37.134,44.404c1.935,0,1.935-3,0-3S35.199,44.404,37.134,44.404L37.134,44.404z"/>
					<path fill="#9A3D58" d="M24.821,34.873c1.935,0,1.935-3,0-3C22.886,31.873,22.887,34.873,24.821,34.873L24.821,34.873z"/>
					<path fill="#9A3D58" d="M23.232,40.432c1.935,0,1.935-3,0-3S21.298,40.432,23.232,40.432L23.232,40.432z"/>
					<path fill="#9A3D58" d="M39.911,31.696c1.935,0,1.935-3,0-3S37.977,31.696,39.911,31.696L39.911,31.696z"/>
					<path fill="#9A3D58" d="M45.076,34.08c1.936,0,1.936-3,0-3S43.143,34.08,45.076,34.08L45.076,34.08z"/>
					<path fill="#9A3D58" d="M48.65,38.846c1.935,0,1.935-3,0-3C46.715,35.845,46.716,38.846,48.65,38.846L48.65,38.846z"/>
					<path fill="#9A3D58" d="M47.457,32.093c1.936,0,1.936-3,0-3S45.521,32.093,47.457,32.093L47.457,32.093z"/>
					<path fill="#9A3D58" d="M38.611,28.289c1.935,0,1.935-3,0-3C36.676,25.289,36.677,28.289,38.611,28.289L38.611,28.289z"/>
					<path fill="#9A3D58" d="M33.559,26.534c1.935,0,1.935-3,0-3C31.625,23.534,31.625,26.534,33.559,26.534L33.559,26.534z"/>
					<path fill="#9A3D58" d="M27.204,44.404c1.935,0,1.935-3,0-3S25.27,44.404,27.204,44.404L27.204,44.404z"/>
					<path fill="#9A3D58" d="M30.637,38.184c1.935,0,1.935-3,0-3C28.702,35.184,28.702,38.184,30.637,38.184L30.637,38.184z"/>
					<path fill="#9A3D58" d="M33.196,41.253c1.935,0,1.935-3,0-3C31.261,38.253,31.262,41.253,33.196,41.253L33.196,41.253z"/>
					<path fill="#9A3D58" d="M33.708,40.229c1.935,0,1.935-3,0-3S31.773,40.229,33.708,40.229L33.708,40.229z"/>
					<path fill="#9A3D58" d="M34.732,41.766c1.934,0,1.934-3,0-3C32.797,38.766,32.797,41.766,34.732,41.766L34.732,41.766z"/>
					<path fill="#9A3D58" d="M31.148,38.693c1.935,0,1.935-3,0-3S29.213,38.693,31.148,38.693L31.148,38.693z"/>
					<path fill="#9A3D58" d="M46.505,46.885c1.935,0,1.935-3,0-3S44.57,46.885,46.505,46.885L46.505,46.885z"/>
					<path fill="#9A3D58" d="M31.148,49.568c1.935,0,1.935-3,0-3S29.213,49.568,31.148,49.568L31.148,49.568z"/>
					<path fill="#9A3D58" d="M41.898,27.433c1.936,0,1.936-3,0-3C39.964,24.433,39.965,27.433,41.898,27.433L41.898,27.433z"/>
					<path fill="#9A3D58" d="M46.505,27.946c1.935,0,1.935-3,0-3S44.57,27.946,46.505,27.946L46.505,27.946z"/>
					<path fill="#9A3D58" d="M34.221,34.088c1.935,0,1.935-3,0-3S32.286,34.088,34.221,34.088L34.221,34.088z"/>
					<path fill="#9A3D58" d="M36.779,34.598c1.936,0,1.936-3,0-3C34.845,31.598,34.846,34.598,36.779,34.598L36.779,34.598z"/>
					<path fill="#9A3D58" d="M38.314,37.158c1.936,0,1.936-3,0-3C36.381,34.158,36.381,37.158,38.314,37.158L38.314,37.158z"/>
					<path fill="#9A3D58" d="M34.221,39.717c1.935,0,1.935-3,0-3S32.286,39.717,34.221,39.717L34.221,39.717z"/>
					<path fill="#9A3D58" d="M36.268,39.717c1.934,0,1.934-3,0-3C34.333,36.717,34.333,39.717,36.268,39.717L36.268,39.717z"/>
					<path fill="#9A3D58" d="M20.17,32.344c1.935,0,1.935-3,0-3S18.236,32.344,20.17,32.344L20.17,32.344z"/>
					<path fill="#9A3D58" d="M24.317,24.05c1.935,0,1.935-3,0-3S22.382,24.05,24.317,24.05L24.317,24.05z"/>
					<path fill="#9A3D58" d="M38.141,23.359c1.936,0,1.936-3,0-3C36.206,20.359,36.206,23.359,38.141,23.359L38.141,23.359z"/>
					<path fill="#9A3D58" d="M31.229,19.212c1.935,0,1.935-3,0-3S29.295,19.212,31.229,19.212L31.229,19.212z"/>
					<path fill="#9A3D58" d="M50.58,21.977c1.936,0,1.936-3,0-3S48.646,21.977,50.58,21.977L50.58,21.977z"/>
					<path fill="#9A3D58" d="M57.523,28.289c1.936,0,1.936-3,0-3C55.589,25.289,55.59,28.289,57.523,28.289L57.523,28.289z"/>
					<path fill="#9A3D58" d="M52.654,33.727c1.936,0,1.936-3,0-3C50.721,30.727,50.721,33.727,52.654,33.727L52.654,33.727z"/>
					<path fill="#9A3D58" d="M53.346,42.711c1.934,0,1.934-3,0-3C51.41,39.711,51.41,42.711,53.346,42.711L53.346,42.711z"/>
					<path fill="#9A3D58" d="M47.457,53.078c1.936,0,1.936-3,0-3S45.521,53.078,47.457,53.078L47.457,53.078z"/>
					<path fill="#9A3D58" d="M57.523,36.857c1.936,0,1.936-3,0-3C55.589,33.857,55.59,36.857,57.523,36.857L57.523,36.857z"/>
					<path fill="#9A3D58" d="M38.832,53.078c1.936,0,1.936-3,0-3C36.898,50.078,36.898,53.078,38.832,53.078L38.832,53.078z"/>
					<path fill="#9A3D58" d="M22.935,51.695c1.935,0,1.935-3,0-3S21,51.695,22.935,51.695L22.935,51.695z"/>
					<path fill="#9A3D58" d="M33.196,56.534c1.935,0,1.935-3,0-3C31.261,53.534,31.262,56.534,33.196,56.534L33.196,56.534z"/>
					<path fill="#9A3D58" d="M16.023,41.329c1.935,0,1.935-3,0-3S14.089,41.329,16.023,41.329L16.023,41.329z"/>
					<path fill="#9A3D58" d="M42.287,18.521c1.936,0,1.936-3,0-3S40.352,18.521,42.287,18.521L42.287,18.521z"/>
				</g>
			</g>
			<g display="none" clip-path="url(#SVGID_2_)">
				<g display="inline">
					<path fill="#9A3D58" d="M51.695,27.197c-0.625,4.021-10.111,4.269-12.867,4.425c-4.859,0.273-12.039,0.104-15.934-3.331
						c-1.952-1.722,4.609-3.6,5.096-3.736c2.942-0.83,6.05-0.963,9.087-1.02c2.957-0.055,13.938,0.089,14.618,4.459
						c0.297,1.907,3.188,1.095,2.893-0.797c-0.997-6.408-12.898-6.576-17.511-6.662c-4.179-0.078-17.563,0.457-17.563,7.061
						c0,6.205,11.814,6.801,15.813,7.026c4.776,0.269,18.207,0.14,19.261-6.628C54.884,26.103,51.993,25.29,51.695,27.197z"/>
					<path fill="#9A3D58" d="M19.569,45.807c0.997,6.404,12.899,6.572,17.509,6.658c4.585,0.086,16.529-0.361,17.511-6.658
						c0.295-1.893-2.596-2.705-2.894-0.798c-1.021,6.558-28.213,6.558-29.234,0C22.165,43.102,19.274,43.914,19.569,45.807
						L19.569,45.807z"/>
					<path fill="#9A3D58" d="M22.515,45.407c0-5.938,0-11.874,0-17.812c0-1.935-3-1.935-3,0c0,5.938,0,11.874,0,17.812
						C19.515,47.342,22.515,47.342,22.515,45.407L22.515,45.407z"/>
					<path fill="#9A3D58" d="M51.643,27.596c0,5.938,0,11.875,0,17.812c0,1.935,3,1.935,3,0c0-5.938,0-11.874,0-17.812
						C54.643,25.661,51.643,25.661,51.643,27.596L51.643,27.596z"/>
					<path fill="#9A3D58" d="M36.818,29.078c1.935,0,1.935-3,0-3C34.883,26.078,34.884,29.078,36.818,29.078L36.818,29.078z"/>
				</g>
			</g>
			<g id="Layer_10" clip-path="url(#SVGID_2_)">
				<g>
					<g>
						<path fill="#9A3D58" d="M46.066,21.976c-0.623-5.983-3-15.133-10.284-16.046c-8.77-1.1-14.733,6.455-18.535,13.301
							c-3.759,6.77-7.61,14.91-8.675,22.613c-0.439,3.18,0.034,6.184,1.906,8.807c2.017,2.824,6.009,2.225,8.957,2.029
							c6.256-0.412,10.745,4.848,15.104,8.448c2.84,2.349,5.952,4.062,9.546,4.896c7.146,1.658,16.002-0.738,20.623-6.535
							c5.078-6.373,2.069-15.864-1.454-22.178c-1.746-3.127-4.121-5.207-7.23-6.901c-4.188-2.283-8.881-3.553-10.01-8.832
							c-0.404-1.891-3.297-1.089-2.894,0.798c1.008,4.713,4.267,7.094,8.396,9.149c2.549,1.268,5.055,2.394,7.142,4.386
							c2.739,2.619,4.231,7.199,5.153,10.721c2.467,9.43-4.013,15.51-12.816,16.668c-8.813,1.158-13.832-4.26-20.125-9.299
							c-4.719-3.779-9.203-4.324-14.975-4.109c-9.3,0.346-1.842-16.686-0.24-20.253c2.647-5.897,5.182-11.877,9.665-16.653
							c2.936-3.127,7.692-5.397,11.888-3.443c4.234,1.973,5.434,8.333,5.859,12.435C43.266,23.88,46.268,23.899,46.066,21.976
							L46.066,21.976z"/>
					</g>
				</g>
			</g>
		</g>
	</g>
	<g display="inline">
		<g>
			<path fill="#9A3D58" d="M31.712,34.295c-2.442,2.298-3.766,5.233-5,8.296c-0.905,2.246-1.104-2.675-1.118-3.425
				c-0.04-2.256,0.496-4.486,1.249-6.597c-0.349,0.35-0.698,0.699-1.047,1.048c0.977-0.384,3.904,0.994,4.927,1.276
				c1.664,0.459,3.217,0.938,4.434,2.23c1.328,1.411,3.446-0.714,2.121-2.121c-2.587-2.75-7.219-3.639-10.772-4.351
				c-3.847-0.771-3.834,6.068-3.911,8.514c-0.079,2.539,0.891,8.865,4.776,7.665c1.354-0.418,1.785-2.312,2.234-3.443
				c1.028-2.587,2.173-5.038,4.228-6.972C35.245,35.088,33.12,32.971,31.712,34.295L31.712,34.295z"/>
			<path fill="#9A3D58" d="M29.137,40.945c2.623,5.025,5.524,9.167,10.61,12.026c3.165,1.779,8.305,2.492,11.277-0.013
				c0.767-0.646,1.093-2.781,0.72-3.678c-1.012-2.431-3.838-3.29-5.729-4.97c-2.038-1.811-3.151-5.083-4.082-7.552
				c-1.427-3.789,7.383,5.137,1.994,2.186c-1.697-0.93-3.211,1.661-1.514,2.59c1.622,0.889,3.941,1.938,5.618,0.527
				c1.655-1.393,1.898-3.292,0.425-4.983c-1.677-1.927-10.049-8.663-10.049-1.814c0,1.885,1.34,4.137,2.083,5.812
				c1.355,3.052,3.125,5.332,5.813,7.285c1.318,0.958,3.765,2.352,1.141,3.012c-2.511,0.632-5.086-0.375-7.237-1.584
				c-4.156-2.336-6.367-6.309-8.48-10.357C30.832,37.716,28.243,39.232,29.137,40.945L29.137,40.945z"/>
			<path fill="#9A3D58" d="M38.565,32.349c-0.7,0.194-1.377,0.496-1.968,0.922c-0.663,0.477-0.981,1.296-0.539,2.052
				c0.384,0.655,1.388,1.017,2.052,0.538c0.486-0.35,0.77-0.485,1.252-0.619c0.787-0.218,1.265-1.056,1.048-1.845
				C40.194,32.609,39.354,32.131,38.565,32.349L38.565,32.349z"/>
			<path fill="#9A3D58" d="M39.799,32.438c-0.99-5.361,0.205-10.723-0.773-15.982c-0.58-3.118-3.842-5.091-6.734-3.43
				c-6.21,3.568-6.389,11.946-5.758,18.299c0.189,1.906,3.191,1.925,3,0c-0.426-4.292-0.441-8.942,1.374-12.971
				c0.578-1.281,3.883-4.775,5.225-1.101c0.586,1.604,0.152,3.813,0.023,5.474c-0.273,3.53,0.109,7.041,0.75,10.508
				C37.258,35.137,40.148,34.329,39.799,32.438L39.799,32.438z"/>
		</g>
	</g>
</g>
<g id="Layer_2_1_">
	<g>
		<g>
			<path fill="#9A3D58" d="M31.3,33.503c-0.077,6.753-0.154,13.506-0.23,20.26c-0.022,1.936,2.978,1.934,3,0
				c0.077-6.754,0.154-13.507,0.23-20.26C34.322,31.568,31.322,31.57,31.3,33.503L31.3,33.503z"/>
			<path fill="#9A3D58" d="M19.507,29.918c0,6.448,0,12.897,0,19.345c0,0.483,0.276,1.086,0.743,1.295
				c3.442,1.539,8.563,4.97,12.403,4.896c5.169-0.099,11.167-2.87,15.995-4.522c4.28-1.466,4.478-2.482,4.531-6.92
				c0.06-4.95-0.065-9.908-0.194-14.856c-0.05-1.931-3.051-1.936-3,0c0.147,5.688,0.318,11.394,0.15,17.083
				c-0.053,1.769,0.501,0.76-0.886,1.297c-1.617,0.626-3.28,1.141-4.932,1.669c-3.546,1.133-7.128,2.203-10.752,3.059
				c-2.479,0.586-5.78-1.662-7.974-2.61c-1.246-0.538-2.487-1.087-3.727-1.64c1.112,0.496,0.642,1.646,0.642-0.762
				c0-5.778,0-11.556,0-17.333C22.507,27.984,19.507,27.984,19.507,29.918L19.507,29.918z"/>
			<path fill="#9A3D58" d="M54.516,28.177c-0.623-2.354-5.202-3.152-7.076-3.746c-3.404-1.079-7.538-2.681-11.177-2.371
				c-2.314,0.197-20.711,2.394-19.202,6.175c0.979,2.452,4.873,3.358,7.09,4.222c2.841,1.107,6.48,2.896,9.619,2.429
				c4.215-0.628,8.397-1.554,12.546-2.52c2.212-0.515,6.643-0.906,8.049-3.033c1.07-1.619-1.528-3.12-2.59-1.515
				c0.307-0.465-1.397,0.372-1.968,0.545c-1.413,0.429-2.854,0.766-4.289,1.11c-3.142,0.753-6.312,1.396-9.485,1.996
				c-5.232,0.989-10.225-1.274-14.939-3.561c-1.757-0.853-1.731,0.841,0.172,0.225c1.45-0.47,2.949-0.802,4.432-1.147
				c3.284-0.765,6.622-1.416,9.965-1.858c2.357-0.312,4.638,0.445,6.906,1.03c1.441,0.372,8.882,2.159,9.056,2.816
				C52.117,30.843,55.012,30.049,54.516,28.177z"/>
			<path fill="#9A3D58" d="M50.392,35.71c-4.086,7.442-16.075,0.918-19.038,10.39c-0.579,1.852,2.317,2.637,2.893,0.797
				c1.446-4.623,6.584-3.868,10.45-4.541c3.267-0.567,6.643-2.139,8.285-5.131C53.913,35.528,51.322,34.014,50.392,35.71
				L50.392,35.71z"/>
		</g>
	</g>
</g>
</svg>
