<!-- Generated by IcoMoon.io -->
<svg version="1.1" xmlns="http://www.w3.org/2000/svg" width="72" height="72" viewBox="0 0 72 72">
<title>COCOA</title>
<path d="M31.3 33.503c-0.077 6.753-0.154 13.506-0.23 20.26-0.022 1.936 2.978 1.934 3 0 0.077-6.754 0.154-13.507 0.23-20.26 0.022-1.935-2.978-1.933-3 0v0zM19.507 29.918c0 6.448 0 12.897 0 19.345 0 0.483 0.276 1.086 0.743 1.295 3.442 1.539 8.563 4.97 12.403 4.896 5.169-0.099 11.167-2.87 15.995-4.522 4.28-1.466 4.478-2.482 4.531-6.92 0.060-4.95-0.065-9.908-0.194-14.856-0.050-1.931-3.051-1.936-3 0 0.147 5.688 0.318 11.394 0.15 17.083-0.053 1.769 0.501 0.76-0.886 1.297-1.617 0.626-3.28 1.141-4.932 1.669-3.546 1.133-7.128 2.203-10.752 3.059-2.479 0.586-5.78-1.662-7.974-2.61-1.246-0.538-2.487-1.087-3.727-1.64 1.112 0.496 0.642 1.646 0.642-0.762 0-5.778 0-11.556 0-17.333 0.001-1.935-2.999-1.935-2.999-0.001v0zM54.516 28.177c-0.623-2.354-5.202-3.152-7.076-3.746-3.404-1.079-7.538-2.681-11.177-2.371-2.314 0.197-20.711 2.394-19.202 6.175 0.979 2.452 4.873 3.358 7.090 4.222 2.841 1.107 6.48 2.896 9.619 2.429 4.215-0.628 8.397-1.554 12.546-2.52 2.212-0.515 6.643-0.906 8.049-3.033 1.070-1.619-1.528-3.12-2.59-1.515 0.307-0.465-1.397 0.372-1.968 0.545-1.413 0.429-2.854 0.766-4.289 1.11-3.142 0.753-6.312 1.396-9.485 1.996-5.232 0.989-10.225-1.274-14.939-3.561-1.757-0.853-1.731 0.841 0.172 0.225 1.45-0.47 2.949-0.802 4.432-1.147 3.284-0.765 6.622-1.416 9.965-1.858 2.357-0.312 4.638 0.445 6.906 1.030 1.441 0.372 8.882 2.159 9.056 2.816 0.492 1.869 3.387 1.075 2.891-0.797zM50.392 35.71c-4.086 7.442-16.075 0.918-19.038 10.39-0.579 1.852 2.317 2.637 2.893 0.797 1.446-4.623 6.584-3.868 10.45-4.541 3.267-0.567 6.643-2.139 8.285-5.131 0.931-1.697-1.66-3.211-2.59-1.515v0z"></path>
</svg>
