<!-- Generated by IcoMoon.io -->
<svg version="1.1" xmlns="http://www.w3.org/2000/svg" width="72" height="72" viewBox="0 0 72 72">
<title>COW</title>
<path d="M41.725 19.006c6.164 0 12.328 0 18.492 0 1.935 0 1.935-3 0-3-6.164 0-12.328 0-18.492 0-1.935 0-1.935 3 0 3v0zM40.278 17.509c-4.063 10.232-6.139 25.002 6.285 30.012 5.668 2.285 13.132-0.877 16.514-5.684 5.446-7.743 0.066-16.31-1.816-24.329-0.441-1.883-3.334-1.084-2.893 0.798 1.455 6.199 5.485 12.709 3.717 19.217-1.977 7.277-11.764 9.223-17.403 5.729-7.964-4.936-4.227-18.105-1.511-24.946 0.715-1.799-2.188-2.572-2.893-0.797v0zM38.111 36.642c7.98 1.55 16.058 0.532 24.115 0.454 1.934-0.019 1.936-3.019 0-3-7.763 0.075-15.629 1.147-23.317-0.346-1.889-0.368-2.696 2.523-0.798 2.892v0zM57.001 31.872c1.935 0 1.935-3 0-3s-1.935 3 0 3v0zM44.539 31.872c1.935 0 1.935-3 0-3s-1.935 3 0 3v0zM59.174 19.112c1.834 5.333 7.564 4.289 10.947 1.062 0.62-0.591 0.529-1.519 0-2.121-2.65-3.021-6.176-3.919-9.856-2.245-1.759 0.801-0.233 3.386 1.514 2.591 2.47-1.124 4.539-0.142 6.222 1.775 0-0.707 0-1.414 0-2.121-1.588 1.515-4.904 3.253-5.934 0.261-0.626-1.818-3.524-1.037-2.893 0.798v0zM41.276 16.21c-1.788-0.967-3.737-1.854-5.82-1.638-2.313 0.239-3.893 1.919-5.076 3.784-0.271 0.428-0.285 1.087 0 1.514 1.479 2.212 3.839 3.596 6.475 3.873 3.13 0.33 4.876-2.253 5.164-5.030 0.199-1.924-2.803-1.904-3 0-0.38 3.66-4.748 1.588-6.048-0.356 0 0.504 0 1.009 0 1.514 0.674-1.063 1.512-2.197 2.865-2.337 1.374-0.142 2.767 0.641 3.926 1.268 1.702 0.919 3.217-1.671 1.514-2.592v0zM37.304 26.457c-6.962-0.102-20.729-2.955-24.282 5.499-2.951 7.022-2.512 19.36 1.681 25.873 0.647 1.006 1.927 0.921 2.591 0 3.853-5.346 9.188-7.646 15.687-7.466-0.5-0.5-1-1-1.5-1.5 0.195 2.942 0.931 5.7 2.116 8.396 0.469 1.065 2.071 0.889 2.591 0 1.44-2.463 5.635-6.306 8.165-2.151 0.48 0.789 0.935 1.506 1.525 2.216 1.162 1.397 3.103 1.269 4.689 1.026 0.45-0.068 0.986-0.592 1.048-1.048 0.438-3.237 0.711-6.374 0.454-9.645-0.15-1.915-3.151-1.93-3 0 0.126 1.609 0.4 10.308-2.126 5.937-0.707-1.225-1.695-2.606-3.111-3.069-4.34-1.419-8.151 1.657-10.235 5.221 0.864 0 1.727 0 2.591 0-0.965-2.196-1.547-4.487-1.707-6.883-0.055-0.833-0.641-1.477-1.5-1.5-7.628-0.211-13.813 2.759-18.277 8.952 0.864 0 1.727 0 2.591 0-3.583-5.564-3.483-14.899-2.185-21.146 1.841-8.856 15.687-5.807 22.195-5.711 1.934 0.027 1.931-2.973-0.001-3.001v0zM3.987 35.712c2.624 1.793 5.618 4.308 8.748 2.009 1.542-1.132 0.048-3.738-1.514-2.591-1.953 1.434-4.12-0.915-5.721-2.009-1.602-1.094-3.1 1.507-1.513 2.591v0zM3.939 40.742c1.984-0.081 3.582-1.144 5.178-2.215 1.598-1.071 0.098-3.671-1.514-2.59-1.087 0.729-2.3 1.75-3.665 1.805-1.927 0.078-1.934 3.079 0.001 3v0zM48.247 15.544c-0.845-1.608-2.313-3.109-4.283-2.761-1.672 0.295-2.624 1.979-2.88 3.521-0.134 0.806 0.198 1.612 1.048 1.845 0.726 0.2 1.711-0.24 1.845-1.047 0.062-0.372 0.132-0.738 0.309-1.073 0.146-0.279 0.165-0.281 0.33-0.328-0.275 0.078 0.203 0.079-0.042 0.022-0.171-0.039 0.259 0.147 0.27 0.154 0.372 0.239 0.619 0.809 0.814 1.18 0.899 1.714 3.488 0.198 2.589-1.513v0zM59.704 15.305c-0.764-1.476-1.989-3.079-3.852-2.766-1.605 0.27-2.29 2.132-2.508 3.526-0.127 0.807 0.193 1.61 1.048 1.845 0.72 0.198 1.718-0.239 1.845-1.047 0.053-0.338 0.179-0.963 0.251-1.132 0.061-0.14 0.139-0.27 0.22-0.398-0.099 0.122-0.093 0.123 0.018 0.002-0.152 0.107-0.16 0.119-0.022 0.036-0.179 0.101-0.322 0.125-0.523 0.086 0.124 0.024 0.038 0.028 0.042 0.032 0.405 0.352 0.65 0.863 0.893 1.331 0.887 1.718 3.476 0.2 2.588-1.515v0zM18.572 54.085c0.49 1.948 1.063 3.656 2.699 4.916 0.515 0.396 1.399 0.209 1.817-0.234 1.969-2.086 3.678-5.277 4.443-8.036 0.518-1.867-2.376-2.659-2.893-0.797-0.626 2.257-2.060 5.005-3.671 6.712 0.606-0.078 1.212-0.156 1.817-0.234-0.874-0.673-1.069-2.127-1.32-3.123-0.471-1.877-3.365-1.081-2.892 0.796v0zM21.939 29.921c1.447 2.847-1.194 4.58-2.408 6.893-1.448 2.759 0.442 5.283 2.69 6.854 2.633 1.841 6.283 3.615 8.895 0.76 2.335-2.554 1.444-6.769 0.248-9.589-0.299 0.734-0.598 1.469-0.896 2.203 4.193-1.403 8.121-3.235 7.935-8.28-0.071-1.929-3.071-1.936-3 0 0.131 3.545-2.885 4.435-5.732 5.388-1.002 0.335-1.285 1.288-0.896 2.203 0.701 1.652 1.809 6.504-1.171 6.621-1.822 0.071-6.494-2.714-5.313-4.965 0.753-1.434 1.982-2.527 2.643-4.030 0.836-1.903 0.516-3.767-0.402-5.572-0.879-1.725-3.468-0.206-2.593 1.514v0zM50.568 41.116c1.935 0 1.935-3 0-3s-1.934 3 0 3v0zM52.981 41.116c1.935 0 1.935-3 0-3s-1.934 3 0 3v0z"></path>
</svg>
