<!-- Generated by IcoMoon.io -->
<svg version="1.1" xmlns="http://www.w3.org/2000/svg" width="72" height="72" viewBox="0 0 72 72">
<title>COW_F</title>
<path d="M19.172 51.549c0.532 2.205 0.736 4.802 2.659 6.283 0.524 0.404 1.388 0.198 1.817-0.234 1.251-1.259 2.268-2.543 2.748-4.28 0.517-1.867-2.378-2.659-2.893-0.797-0.342 1.237-1.088 2.063-1.977 2.956 0.606-0.078 1.212-0.156 1.817-0.234-0.406-0.313-0.577-1.443-0.701-1.917-0.223-0.851-0.373-1.719-0.579-2.573-0.452-1.882-3.345-1.084-2.891 0.796v0zM41.418 18.916c6.040 0 12.079 0 18.119 0 1.935 0 1.935-3 0-3-6.040 0-12.079 0-18.119 0-1.935 0-1.935 3 0 3v0zM57.697 18.213c1.438 6.144 5.991 13.363 3.279 19.708-2.827 6.615-11.882 8.454-17.29 4.264-6.906-5.351-3.461-17.307-0.822-23.971 0.713-1.801-2.189-2.574-2.893-0.798-3.983 10.060-6.014 24.518 6.143 29.488 6.24 2.551 13.164-1.416 16.816-6.37 4.991-6.77-0.732-16.242-2.341-23.118-0.44-1.884-3.332-1.085-2.892 0.797v0zM37.869 36.232c7.822 1.524 15.738 0.526 23.637 0.449 1.934-0.019 1.936-3.019 0-3-7.603 0.074-15.31 1.126-22.84-0.342-1.889-0.368-2.695 2.524-0.797 2.893v0zM56.386 31.548c1.935 0 1.935-3 0-3s-1.935 3 0 3v0zM44.176 31.548c1.935 0 1.935-3 0-3s-1.935 3 0 3v0zM61.081 18.317c2.41-1.097 4.423-0.129 6.061 1.742 0-0.707 0-1.414 0-2.121-1.541 1.472-4.765 3.178-5.765 0.266-0.624-1.818-3.522-1.037-2.893 0.798 1.803 5.253 7.444 4.241 10.778 1.057 0.62-0.592 0.528-1.518 0-2.121-2.604-2.976-6.075-3.858-9.695-2.211-1.758 0.799-0.233 3.384 1.514 2.59v0zM40.994 16.121c-1.757-0.95-3.673-1.822-5.718-1.609-2.279 0.237-3.835 1.891-5 3.729-0.271 0.429-0.285 1.086 0 1.514 1.454 2.18 3.775 3.542 6.371 3.815 3.087 0.325 4.808-2.23 5.090-4.968 0.198-1.924-2.804-1.905-3 0-0.367 3.559-4.611 1.526-5.87-0.361 0 0.504 0 1.009 0 1.514 0.653-1.032 1.467-2.145 2.781-2.282 1.34-0.14 2.7 0.626 3.832 1.238 1.702 0.921 3.216-1.669 1.514-2.59v0zM37.087 26.18c-6.844-0.101-20.411-2.903-23.844 5.472-2.846 6.942-2.441 18.938 1.674 25.374 0.592 0.925 2.020 1.018 2.591 0 1.524-2.717 2.21-5.74 2.564-8.817-0.854 0.354-1.707 0.707-2.561 1.061 3.727 3.894 8.507 7.389 14.090 5.398 2.959-1.056 4.682-3.499 6.474-5.883-0.932-0.253-1.863-0.505-2.795-0.757-0.247 1.962 0.528 6.199 1.54 8.692 0.571 1.408 2.33 1.436 2.893 0 0.313-0.796 1.387-6.611 3.993-2.803 0.529 0.773 0.875 1.779 1.58 2.427 1.503 1.38 2.828 1.488 4.802 1.205 0.45-0.064 0.987-0.595 1.048-1.048 0.43-3.181 0.699-6.263 0.447-9.477-0.15-1.915-3.151-1.93-3 0 0.127 1.617 0.196 9.625-2.286 5.379-0.882-1.509-2.071-2.329-3.693-2.88-4.201-1.427-4.82 3.942-5.783 6.399 0.964 0 1.929 0 2.893 0-0.95-2.341-1.75-5.376-1.433-7.896 0.209-1.665-2.024-1.783-2.795-0.758-0.909 1.209-1.709 2.347-2.859 3.363-4.485 3.963-9.716-0.061-12.994-3.485-0.992-1.036-2.421-0.153-2.561 1.061-0.292 2.532-0.902 5.069-2.155 7.304 0.864 0 1.727 0 2.591 0-3.58-5.598-3.52-15.253-1.948-21.479 1.984-7.855 15.654-4.939 21.527-4.853 1.935 0.029 1.933-2.971 0-2.999v0zM4.427 34.789c2.58 1.765 5.524 4.236 8.603 1.974 1.542-1.133 0.047-3.738-1.514-2.591-1.9 1.396-4.019-0.908-5.576-1.974-1.6-1.096-3.099 1.506-1.513 2.591v0zM7.972 34.957c-1.058 0.715-2.245 1.718-3.576 1.772-1.928 0.079-1.935 3.079 0 3 1.951-0.079 3.523-1.122 5.089-2.182 1.593-1.077 0.094-3.677-1.513-2.59v0zM43.652 17.029c0.061-0.363 0.128-0.721 0.3-1.049 0.144-0.273 0.146-0.264 0.306-0.309-0.284 0.081 0.197 0.081-0.058 0.022-0.187-0.043 0.241 0.139 0.257 0.149 0.357 0.23 0.599 0.791 0.786 1.148 0.897 1.714 3.486 0.198 2.59-1.514-0.833-1.589-2.283-3.066-4.229-2.723-1.65 0.292-2.591 1.956-2.844 3.478-0.134 0.806 0.198 1.612 1.048 1.845 0.725 0.2 1.711-0.239 1.844-1.047v0zM55.665 16.793c0.051-0.325 0.186-0.968 0.244-1.105 0.060-0.138 0.137-0.265 0.216-0.391-0.102 0.125-0.098 0.127 0.013 0.007-0.156 0.109-0.165 0.123-0.028 0.040-0.182 0.103-0.331 0.127-0.537 0.087-0.362-0.070 0.159 0.139 0.027 0.024 0.396 0.344 0.634 0.845 0.87 1.302 0.887 1.72 3.476 0.202 2.59-1.514-0.754-1.462-1.964-3.040-3.807-2.73-1.586 0.266-2.264 2.104-2.48 3.481-0.127 0.807 0.193 1.61 1.048 1.845 0.719 0.2 1.717-0.237 1.844-1.046v0zM22.006 29.623c1.41 2.779-1.175 4.479-2.359 6.739-1.426 2.722 0.428 5.212 2.647 6.767 2.59 1.815 6.183 3.556 8.751 0.742 2.298-2.519 1.425-6.664 0.247-9.446-0.299 0.734-0.598 1.469-0.896 2.203 4.127-1.384 7.98-3.195 7.796-8.158-0.071-1.929-3.071-1.936-3 0 0.128 3.464-2.811 4.332-5.594 5.266-1.002 0.336-1.285 1.287-0.896 2.203 0.676 1.596 1.768 6.346-1.121 6.458-1.765 0.069-6.323-2.65-5.179-4.833 0.738-1.408 1.942-2.481 2.589-3.956 0.824-1.879 0.51-3.716-0.394-5.498-0.876-1.727-3.464-0.208-2.591 1.513v0zM50.084 40.628c1.935 0 1.935-3 0-3s-1.935 3 0 3v0zM52.447 40.628c1.935 0 1.935-3 0-3s-1.934 3 0 3v0z"></path>
</svg>
