<!-- Generated by IcoMoon.io -->
<svg version="1.1" xmlns="http://www.w3.org/2000/svg" width="72" height="72" viewBox="0 0 72 72">
<title>CREAM_CH</title>
<path d="M11.52 35.28c4.32 3 8.76 6 13.080 9 1.92 1.32 3.72-1.8 1.8-3.12-4.32-3-8.76-6-13.080-9-1.92-1.32-3.72 1.8-1.8 3.12v0zM23.76 42.72c0 3.36 0 6.84 0 10.2 0 2.28 3.6 2.28 3.6 0 0-3.36 0-6.84 0-10.2 0-2.28-3.6-2.28-3.6 0v0zM8.4 34.44c0 2.28 0 4.68 0 6.96s3.6 2.28 3.6 0c0-2.28 0-4.68 0-6.96 0-2.4-3.6-2.4-3.6 0v0zM7.56 41.4c5.64 4.32 11.28 8.64 16.92 13.080 1.8 1.44 3.6-1.68 1.8-3.12-5.64-4.32-11.28-8.64-16.92-13.080-1.8-1.44-3.6 1.68-1.8 3.12v0zM26.040 44.52c1.8-0.72 3.48-1.44 5.28-2.16 0.96-0.36 1.56-1.2 1.2-2.16-0.24-0.84-1.32-1.68-2.16-1.2-1.8 0.72-3.48 1.44-5.28 2.16-0.96 0.36-1.56 1.2-1.2 2.16 0.24 0.72 1.32 1.56 2.16 1.2v0zM28.2 53.4c3.24-7.92 6.36-15.84 9.6-23.76 0.84-2.16-2.64-3.12-3.48-0.96-3.24 7.92-6.36 15.84-9.6 23.76-0.84 2.16 2.64 3.12 3.48 0.96v0zM11.4 35.52c7.8-0.48 15.6-1.080 23.4-1.56 2.28-0.12 2.28-3.72 0-3.6-7.8 0.48-15.6 1.080-23.4 1.56-2.28 0.12-2.28 3.72 0 3.6v0zM55.2 26.52c2.4 0.84 4.68 1.68 7.080 2.64 2.16 0.84 3.12-2.64 0.96-3.48-2.4-0.84-4.68-1.68-7.080-2.64-2.16-0.72-3.12 2.76-0.96 3.48v0zM60.96 27.36c0 3 0 6 0 9 0 2.28 3.6 2.28 3.6 0 0-3 0-6 0-9 0-2.28-3.6-2.28-3.6 0v0zM61.92 25.8c-6.24 2.76-12.48 5.52-18.72 8.28-2.16 0.96-0.24 4.080 1.8 3.12 6.24-2.76 12.48-5.52 18.72-8.28 2.16-0.84 0.24-3.96-1.8-3.12v0zM61.92 34.8c-12.12 5.52-24.24 11.040-36.36 16.56-2.16 0.96-0.24 4.080 1.8 3.12 12.12-5.52 24.24-11.040 36.36-16.56 2.16-0.96 0.24-4.080-1.8-3.12v0zM46.56 40.8c-1.68-5.16-2.28-8.88-7.32-11.88-5.52-3.36-10.92-5.040-15.84-9.36-0.6-0.48-1.56-0.72-2.16-0.24-1.92 1.44-3 3.48-4.68 5.28-2.28 2.4-4.92 4.080-7.32 6.36-3.6 3.48-3.84 6.96-2.28 11.64s6.6 8.040 10.44 10.92c3.6 2.64 6.84 2.76 10.68 0.48 2.040-1.2 0.12-4.32-1.8-3.12-3.84 2.28-9-2.040-11.88-4.56-4.56-3.96-6.48-7.92-1.56-13.56 1.32-1.56 3.48-2.76 5.040-4.32s3.48-4.8 5.16-6c-0.72-0.12-1.44-0.24-2.16-0.24 2.88 2.52 5.76 4.92 9.24 6.48 2.88 1.32 5.88 2.28 8.4 4.2 3.24 2.52 3.36 5.4 4.56 9 0.72 2.040 4.2 1.080 3.48-1.080v0zM43.92 39.72c-5.88 3.72-11.76 7.32-17.64 11.040-1.92 1.2-0.12 4.32 1.8 3.12 5.88-3.72 11.76-7.32 17.64-11.040 2.040-1.32 0.24-4.44-1.8-3.12v0zM42.36 32.52c5.52-2.4 10.92-4.68 16.44-7.080 2.16-0.96 0.24-3.96-1.8-3.12-5.52 2.4-10.92 4.68-16.44 7.080-2.16 0.84-0.36 3.96 1.8 3.12v0zM58.32 22.2c-3.48-1.44-6.84-2.76-10.32-4.2-2.16-0.84-3.12 2.64-0.96 3.48 3.48 1.44 6.84 2.76 10.32 4.2 2.16 0.84 3.12-2.64 0.96-3.48v0zM46.56 18c-5.4 2.28-10.8 4.56-16.2 6.72-2.16 0.84-1.2 4.32 0.96 3.48 5.4-2.28 10.8-4.56 16.2-6.72 2.040-0.96 1.2-4.44-0.96-3.48v0z"></path>
</svg>
