<?xml version="1.0" encoding="utf-8"?>
<!-- Generator: Adobe Illustrator 19.0.0, SVG Export Plug-In . SVG Version: 6.00 Build 0)  -->
<svg version="1.1" id="Layer_1" xmlns="http://www.w3.org/2000/svg" xmlns:xlink="http://www.w3.org/1999/xlink" x="0px" y="0px"
	 viewBox="-264.3 377.8 59.7 36" style="enable-background:new -264.3 377.8 59.7 36;" xml:space="preserve">
<style type="text/css">
	.st0{fill:#9A3D58;}
</style>
<g>
	<g>
		<path class="st0" d="M-254.7,395.2c3.6,2.5,7.3,5,10.9,7.5c1.6,1.1,3.1-1.5,1.5-2.6c-3.6-2.5-7.3-5-10.9-7.5
			C-254.8,391.5-256.3,394.1-254.7,395.2L-254.7,395.2z"/>
	</g>
</g>
<g>
	<g>
		<path class="st0" d="M-244.5,401.4c0,2.8,0,5.7,0,8.5c0,1.9,3,1.9,3,0c0-2.8,0-5.7,0-8.5C-241.5,399.5-244.5,399.5-244.5,401.4
			L-244.5,401.4z"/>
	</g>
</g>
<g>
	<g>
		<path class="st0" d="M-257.3,394.5c0,1.9,0,3.9,0,5.8c0,1.9,3,1.9,3,0c0-1.9,0-3.9,0-5.8C-254.3,392.5-257.3,392.5-257.3,394.5
			L-257.3,394.5z"/>
	</g>
</g>
<g>
	<g>
		<path class="st0" d="M-258,400.3c4.7,3.6,9.4,7.2,14.1,10.9c1.5,1.2,3-1.4,1.5-2.6c-4.7-3.6-9.4-7.2-14.1-10.9
			C-258,396.5-259.5,399.1-258,400.3L-258,400.3z"/>
	</g>
</g>
<g>
	<g>
		<path class="st0" d="M-242.6,402.9c1.5-0.6,2.9-1.2,4.4-1.8c0.8-0.3,1.3-1,1-1.8c-0.2-0.7-1.1-1.4-1.8-1c-1.5,0.6-2.9,1.2-4.4,1.8
			c-0.8,0.3-1.3,1-1,1.8C-244.2,402.5-243.3,403.2-242.6,402.9L-242.6,402.9z"/>
	</g>
</g>
<g>
	<g>
		<path class="st0" d="M-240.8,410.3c2.7-6.6,5.3-13.2,8-19.8c0.7-1.8-2.2-2.6-2.9-0.8c-2.7,6.6-5.3,13.2-8,19.8
			C-244.4,411.3-241.5,412.1-240.8,410.3L-240.8,410.3z"/>
	</g>
</g>
<g>
	<g>
		<path class="st0" d="M-254.8,395.4c6.5-0.4,13-0.9,19.5-1.3c1.9-0.1,1.9-3.1,0-3c-6.5,0.4-13,0.9-19.5,1.3
			C-256.7,392.5-256.7,395.5-254.8,395.4L-254.8,395.4z"/>
	</g>
</g>
<g>
	<g>
		<path class="st0" d="M-218.3,387.9c2,0.7,3.9,1.4,5.9,2.2c1.8,0.7,2.6-2.2,0.8-2.9c-2-0.7-3.9-1.4-5.9-2.2
			C-219.3,384.4-220.1,387.3-218.3,387.9L-218.3,387.9z"/>
	</g>
</g>
<g>
	<g>
		<path class="st0" d="M-213.5,388.6c0,2.5,0,5,0,7.5c0,1.9,3,1.9,3,0c0-2.5,0-5,0-7.5C-210.5,386.7-213.5,386.7-213.5,388.6
			L-213.5,388.6z"/>
	</g>
</g>
<g>
	<g>
		<path class="st0" d="M-212.7,387.3c-5.2,2.3-10.4,4.6-15.6,6.9c-1.8,0.8-0.2,3.4,1.5,2.6c5.2-2.3,10.4-4.6,15.6-6.9
			C-209.4,389.2-211,386.6-212.7,387.3L-212.7,387.3z"/>
	</g>
</g>
<g>
	<g>
		<path class="st0" d="M-212.7,394.8c-10.1,4.6-20.2,9.2-30.3,13.8c-1.8,0.8-0.2,3.4,1.5,2.6c10.1-4.6,20.2-9.2,30.3-13.8
			C-209.4,396.6-211,394-212.7,394.8L-212.7,394.8z"/>
	</g>
</g>
<g>
	<g>
		<path class="st0" d="M-225.5,399.8c-1.4-4.3-1.9-7.4-6.1-9.9c-4.6-2.8-9.1-4.2-13.2-7.8c-0.5-0.4-1.3-0.6-1.8-0.2
			c-1.6,1.2-2.5,2.9-3.9,4.4c-1.9,2-4.1,3.4-6.1,5.3c-3,2.9-3.2,5.8-1.9,9.7c1.3,3.9,5.5,6.7,8.7,9.1c3,2.2,5.7,2.3,8.9,0.4
			c1.7-1,0.1-3.6-1.5-2.6c-3.2,1.9-7.5-1.7-9.9-3.8c-3.8-3.3-5.4-6.6-1.3-11.3c1.1-1.3,2.9-2.3,4.2-3.6c1.3-1.3,2.9-4,4.3-5
			c-0.6-0.1-1.2-0.2-1.8-0.2c2.4,2.1,4.8,4.1,7.7,5.4c2.4,1.1,4.9,1.9,7,3.5c2.7,2.1,2.8,4.5,3.8,7.5
			C-227.8,402.4-224.9,401.6-225.5,399.8L-225.5,399.8z"/>
	</g>
</g>
<g>
	<g>
		<path class="st0" d="M-227.7,398.9c-4.9,3.1-9.8,6.1-14.7,9.2c-1.6,1-0.1,3.6,1.5,2.6c4.9-3.1,9.8-6.1,14.7-9.2
			C-224.5,400.4-226,397.8-227.7,398.9L-227.7,398.9z"/>
	</g>
</g>
<g>
	<g>
		<path class="st0" d="M-229,392.9c4.6-2,9.1-3.9,13.7-5.9c1.8-0.8,0.2-3.3-1.5-2.6c-4.6,2-9.1,3.9-13.7,5.9
			C-232.3,391-230.8,393.6-229,392.9L-229,392.9z"/>
	</g>
</g>
<g>
	<g>
		<path class="st0" d="M-215.7,384.3c-2.9-1.2-5.7-2.3-8.6-3.5c-1.8-0.7-2.6,2.2-0.8,2.9c2.9,1.2,5.7,2.3,8.6,3.5
			C-214.7,387.9-213.9,385-215.7,384.3L-215.7,384.3z"/>
	</g>
</g>
<g>
	<g>
		<path class="st0" d="M-225.5,380.8c-4.5,1.9-9,3.8-13.5,5.6c-1.8,0.7-1,3.6,0.8,2.9c4.5-1.9,9-3.8,13.5-5.6
			C-223,382.9-223.7,380-225.5,380.8L-225.5,380.8z"/>
	</g>
</g>
</svg>
