<?xml version="1.0" encoding="utf-8"?>
<!-- Generator: Adobe Illustrator 19.0.0, SVG Export Plug-In . SVG Version: 6.00 Build 0)  -->
<svg version="1.1" id="Layer_1" xmlns="http://www.w3.org/2000/svg" xmlns:xlink="http://www.w3.org/1999/xlink" x="0px" y="0px"
	 viewBox="-252.3 376.3 39.2 39.3" style="enable-background:new -252.3 376.3 39.2 39.3;" xml:space="preserve">
<style type="text/css">
	.st0{fill:#9A3D58;}
</style>
<g>
	<g>
		<path class="st0" d="M-229.7,398c-0.3,5.1-8,5.1-8,0C-237.7,392.9-230,392.9-229.7,398c0.1,1.9,3.1,1.9,3,0c-0.2-3.8-3-7-7-7
			c-3.8,0-7,3.2-7,7c0,3.7,3,6.8,6.7,7c4.1,0.2,7.1-3.1,7.3-7C-226.6,396.1-229.6,396.1-229.7,398z"/>
		<path class="st0" d="M-227.5,387.5c-0.5-4.1-2-9.5-6.7-10.4c-4.7-0.9-8.6,3-10.9,6.6c-2.9,4.5-12,21.5-1.9,23.1
			c1.7,0.3,3.2-0.3,5,0.3c2,0.6,3.5,2.1,5.1,3.4c2,1.7,4,3.4,6.6,4.1c4.2,1.2,9.9,0.3,13.1-2.9c3.7-3.7,3-9.4,0.9-13.7
			c-1-2.2-2.3-4-4.4-5.3c-2.6-1.7-6-2.2-6.9-5.6c-0.5-1.9-3.4-1.1-2.9,0.8c0.6,2.2,1.7,3.7,3.6,5c3.6,2.4,6.7,3.2,8.4,7.8
			c2.3,6.1-0.8,11.1-7.3,11.5c-5.1,0.3-7.6-2.9-11.3-5.7c-2.1-1.6-4.4-2.6-7-2.7c-2.5-0.1-4.4,0.2-4.5-3.1c-0.1-1.9,0.8-4,1.4-5.7
			c1.3-3.3,2.7-6.7,4.6-9.7c1.3-2,3.3-4.5,5.8-5c4.7-0.9,5.8,4,6.2,7.3C-230.2,389.4-227.2,389.4-227.5,387.5L-227.5,387.5z"/>
	</g>
</g>
</svg>
