<!-- Generated by IcoMoon.io -->
<svg version="1.1" xmlns="http://www.w3.org/2000/svg" width="72" height="72" viewBox="0 0 72 72">
<title>EGG</title>
<path d="M41.405 39.756c-0.55 9.343-14.656 9.343-14.656 0s14.107-9.343 14.656 0c0.183 3.481 5.679 3.481 5.496 0-0.366-6.962-5.496-12.824-12.824-12.824-6.962 0-12.824 5.863-12.824 12.824 0 6.779 5.496 12.458 12.275 12.824 7.511 0.366 13.008-5.679 13.374-12.824 0.183-3.481-5.313-3.481-5.496 0zM45.435 20.519c-0.916-7.511-3.664-17.405-12.275-19.053s-15.756 5.496-19.969 12.092c-5.313 8.244-21.985 39.389-3.481 42.321 3.114 0.55 5.863-0.55 9.16 0.55 3.664 1.099 6.412 3.847 9.343 6.229 3.664 3.114 7.328 6.229 12.092 7.511 7.695 2.198 18.137 0.55 24-5.313 6.779-6.779 5.496-17.221 1.649-25.099-1.832-4.031-4.214-7.328-8.061-9.71-4.763-3.114-10.992-4.031-12.641-10.26-0.916-3.481-6.229-2.015-5.313 1.466 1.099 4.031 3.114 6.779 6.595 9.16 6.595 4.397 12.275 5.863 15.389 14.29 4.214 11.176-1.466 20.336-13.374 21.069-9.343 0.55-13.924-5.313-20.702-10.443-3.847-2.931-8.061-4.763-12.824-4.947-4.58-0.183-8.061 0.366-8.244-5.679-0.183-3.481 1.466-7.328 2.565-10.443 2.382-6.046 4.947-12.275 8.428-17.771 2.382-3.664 6.046-8.244 10.626-9.16 8.611-1.649 10.626 7.328 11.359 13.374 0.733 3.298 6.229 3.298 5.679-0.183v0z"></path>
</svg>
