<!-- Generated by IcoMoon.io -->
<svg version="1.1" xmlns="http://www.w3.org/2000/svg" width="72" height="72" viewBox="0 0 72 72">
<title>FLOUR</title>
<path d="M33.527 50.015c0.183 5.863 0.55 11.725 0.733 17.588 0.183 3.481 5.679 3.481 5.496 0-0.183-5.863-0.55-11.725-0.733-17.588-0.183-3.481-5.679-3.481-5.496 0v0zM22.351 38.84c3.847 2.015 7.328 4.58 10.26 7.878 0.916 0.916 1.832 1.466 0.55 1.466-0.916 0-2.198-0.733-2.931-0.916-1.649-0.733-3.298-1.649-4.763-2.748-1.832-1.466-3.664-3.114-4.947-5.13-0.366-0.366-0.55-1.282-0.916-1.649-0.916-0.916-0.183 0.366-0.366 0.366 0.916 0.366 2.198 0.183 3.114 0.733 3.298 1.282 6.046-3.298 2.748-4.763-2.748-1.099-6.046-2.198-8.977-0.733-2.382 1.282-2.931 3.664-2.015 6.046 1.466 4.031 5.13 7.511 8.611 10.076 3.847 2.748 13.191 7.878 16.122 1.649 3.114-6.962-8.794-14.107-13.74-16.672-3.114-2.015-5.863 2.565-2.748 4.397zM23.084 25.282c2.748 2.015 5.313 4.214 7.328 6.962 0.55 0.733 1.832 1.832 2.015 2.748 0.183 1.282 0.183 0.916-0.916 0.55-1.282-0.366-2.748-1.282-4.031-2.198-2.382-1.649-4.58-3.664-6.046-6.229-0.55-1.099-0.916-2.748-1.649-3.664-0.733-0.733 0.183 0.55 0.55 0.733 0.733 0.366 2.198 0.733 2.748 1.099 3.114 1.832 5.863-2.931 2.748-4.763-2.382-1.466-5.496-2.748-8.428-1.832-2.198 0.733-3.298 2.565-3.114 4.763 0.55 5.863 5.863 11.359 10.443 14.473 4.031 2.565 12.824 6.412 13.557-1.466 0.366-3.298-2.198-5.863-4.031-8.244-2.565-2.931-5.313-5.496-8.611-7.695-2.565-2.015-5.313 2.748-2.565 4.763zM39.389 47.634c-0.366 0.733-0.55 0.733-0.183 0.183 0-0.366 0.183-0.55 0.366-0.916 0.366-0.733 0.916-1.282 1.466-1.832 1.099-1.282 2.382-2.198 3.847-3.298 1.649-1.099 3.298-2.198 4.947-2.931 0.55-0.366 3.664-1.466 3.664-1.466 0.55 0.366-5.313 5.679-6.046 6.412-2.382 1.832-5.496 3.847-8.794 3.664-3.481-0.183-3.481 5.313 0 5.496 5.863 0.183 12.092-4.214 15.939-8.244 3.114-3.298 7.695-11.725 0-12.641-5.863-0.55-12.458 4.214-16.489 8.061-3.664 3.298-7.695 11.359-0.183 12.641 3.481 0.733 4.947-4.58 1.466-5.13zM35.359 25.282c0 0-1.099-3.481-1.099-3.664-0.366-1.832-0.366-3.664-0.183-5.496 0-1.832 0.183-3.664 0.733-5.496 0.183-0.733 0.733-1.649 0.733-2.565 0.183-0.916-0.366-0.55-0.183-0.366 2.382 4.947 3.114 13.557-0.366 18.137-2.198 2.748 2.565 5.496 4.763 2.748 3.481-4.58 3.481-12.275 2.382-17.771-0.733-4.397-5.13-12.824-10.26-7.145-3.847 4.214-3.847 12.275-3.114 17.588 0.55 5.496 4.397 13.374 10.443 7.878 2.748-2.382-1.282-6.229-3.847-3.847zM39.023 35.359c0 0 0-0.366 0.366-1.099 0.366-0.55 0.733-1.282 1.099-1.832 1.099-1.649 2.382-2.931 3.664-4.214s2.565-2.382 4.031-3.481c0.55-0.366 1.282-0.916 2.015-1.099 0.55-0.183 2.015-0.366 1.282-0.916s-0.183 0.366-0.55 0.916c-0.366 0.733-0.733 1.466-1.099 2.198-0.916 1.466-2.015 2.931-3.298 4.214-2.198 2.382-4.947 4.947-8.244 5.496-3.481 0.55-2.015 5.863 1.466 5.313 5.863-0.916 11.359-6.779 14.473-11.542 2.565-4.031 4.397-13.008-3.298-11.725-5.863 0.916-11.176 6.595-14.473 11.176-2.931 4.214-4.947 12.275 2.748 12.092 3.481 0 3.481-5.496-0.183-5.496z"></path>
</svg>
