<?xml version="1.0" encoding="utf-8"?>
<!-- Generator: Adobe Illustrator 19.0.0, SVG Export Plug-In . SVG Version: 6.00 Build 0)  -->
<svg version="1.1" id="Layer_1" xmlns="http://www.w3.org/2000/svg" xmlns:xlink="http://www.w3.org/1999/xlink" x="0px" y="0px"
	 viewBox="-252.3 376.3 39.2 39.3" style="enable-background:new -252.3 376.3 39.2 39.3;" xml:space="preserve">
<style type="text/css">
	.st0{fill:#9A3D58;}
</style>
<g>
	<g>
		<path class="st0" d="M-234,403.6c0.1,3.2,0.3,6.4,0.4,9.6c0.1,1.9,3.1,1.9,3,0c-0.1-3.2-0.3-6.4-0.4-9.6
			C-231.1,401.7-234.1,401.7-234,403.6L-234,403.6z"/>
		<path class="st0" d="M-240.1,397.5c2.1,1.1,4,2.5,5.6,4.3c0.5,0.5,1,0.8,0.3,0.8c-0.5,0-1.2-0.4-1.6-0.5c-0.9-0.4-1.8-0.9-2.6-1.5
			c-1-0.8-2-1.7-2.7-2.8c-0.2-0.2-0.3-0.7-0.5-0.9c-0.5-0.5-0.1,0.2-0.2,0.2C-241.3,397.3-240.6,397.2-240.1,397.5
			c1.8,0.7,3.3-1.8,1.5-2.6c-1.5-0.6-3.3-1.2-4.9-0.4c-1.3,0.7-1.6,2-1.1,3.3c0.8,2.2,2.8,4.1,4.7,5.5c2.1,1.5,7.2,4.3,8.8,0.9
			c1.7-3.8-4.8-7.7-7.5-9.1C-240.3,394-241.8,396.5-240.1,397.5z"/>
		<path class="st0" d="M-239.7,390.1c1.5,1.1,2.9,2.3,4,3.8c0.3,0.4,1,1,1.1,1.5c0.1,0.7,0.1,0.5-0.5,0.3c-0.7-0.2-1.5-0.7-2.2-1.2
			c-1.3-0.9-2.5-2-3.3-3.4c-0.3-0.6-0.5-1.5-0.9-2c-0.4-0.4,0.1,0.3,0.3,0.4C-240.8,389.7-240,389.9-239.7,390.1
			c1.7,1,3.2-1.6,1.5-2.6c-1.3-0.8-3-1.5-4.6-1c-1.2,0.4-1.8,1.4-1.7,2.6c0.3,3.2,3.2,6.2,5.7,7.9c2.2,1.4,7,3.5,7.4-0.8
			c0.2-1.8-1.2-3.2-2.2-4.5c-1.4-1.6-2.9-3-4.7-4.2C-239.7,386.4-241.2,389-239.7,390.1z"/>
		<path class="st0" d="M-230.8,402.3c-0.2,0.4-0.3,0.4-0.1,0.1c0-0.2,0.1-0.3,0.2-0.5c0.2-0.4,0.5-0.7,0.8-1
			c0.6-0.7,1.3-1.2,2.1-1.8c0.9-0.6,1.8-1.2,2.7-1.6c0.3-0.2,2-0.8,2-0.8c0.3,0.2-2.9,3.1-3.3,3.5c-1.3,1-3,2.1-4.8,2
			c-1.9-0.1-1.9,2.9,0,3c3.2,0.1,6.6-2.3,8.7-4.5c1.7-1.8,4.2-6.4,0-6.9c-3.2-0.3-6.8,2.3-9,4.4c-2,1.8-4.2,6.2-0.1,6.9
			C-229.7,405.5-228.9,402.6-230.8,402.3z"/>
		<path class="st0" d="M-233,390.1c0,0-0.6-1.9-0.6-2c-0.2-1-0.2-2-0.1-3c0-1,0.1-2,0.4-3c0.1-0.4,0.4-0.9,0.4-1.4
			c0.1-0.5-0.2-0.3-0.1-0.2c1.3,2.7,1.7,7.4-0.2,9.9c-1.2,1.5,1.4,3,2.6,1.5c1.9-2.5,1.9-6.7,1.3-9.7c-0.4-2.4-2.8-7-5.6-3.9
			c-2.1,2.3-2.1,6.7-1.7,9.6c0.3,3,2.4,7.3,5.7,4.3C-229.4,390.9-231.6,388.8-233,390.1z"/>
		<path class="st0" d="M-231,395.6c0,0,0-0.2,0.2-0.6c0.2-0.3,0.4-0.7,0.6-1c0.6-0.9,1.3-1.6,2-2.3c0.7-0.7,1.4-1.3,2.2-1.9
			c0.3-0.2,0.7-0.5,1.1-0.6c0.3-0.1,1.1-0.2,0.7-0.5c-0.4-0.3-0.1,0.2-0.3,0.5c-0.2,0.4-0.4,0.8-0.6,1.2c-0.5,0.8-1.1,1.6-1.8,2.3
			c-1.2,1.3-2.7,2.7-4.5,3c-1.9,0.3-1.1,3.2,0.8,2.9c3.2-0.5,6.2-3.7,7.9-6.3c1.4-2.2,2.4-7.1-1.8-6.4c-3.2,0.5-6.1,3.6-7.9,6.1
			c-1.6,2.3-2.7,6.7,1.5,6.6C-229,398.6-229,395.6-231,395.6z"/>
	</g>
</g>
</svg>
