<!-- Generated by IcoMoon.io -->
<svg version="1.1" xmlns="http://www.w3.org/2000/svg" width="72" height="72" viewBox="0 0 72 72">
<title>KISS</title>
<path d="M27.699 31.021c-0.017-4.121 3.996-4.493 7.253-4.314 4.229 0.232 6.511 2.928 8.88 6.237 1.506 2.103 6.065 9.203 2.347 10.759-3.066 1.284-6.728 1.343-9.996 1.321-1.454-0.010-10.856-0.408-7.76-4.274 1.814-2.267 4.982-3.613 5.997-6.512 2.578-7.362-4.045-8.209-8.978-4.512-1.528 1.146-0.036 3.752 1.514 2.591 0.524-0.393 4.929-3.806 5.196-1.082 0.165 1.678-1.388 3.263-2.46 4.297-1.346 1.298-3.147 2.38-4.123 4.022-1.681 2.829-0.431 5.722 2.472 7.084 5.426 2.547 16.728 2.551 21.487-1.52 2.47-2.11 0.309-7.098-0.651-9.368-1.593-3.768-5.106-9.377-9.068-10.996-5.663-2.313-15.141-1.505-15.108 6.267 0.006 1.934 3.006 1.935 2.998 0v0z"></path>
</svg>
