<!-- Generated by IcoMoon.io -->
<svg version="1.1" xmlns="http://www.w3.org/2000/svg" width="72" height="72" viewBox="0 0 72 72">
<title>MIT</title>
<path d="M45.862 26.978c-0.15-7.568 0.296-16.247-5.599-21.856-5.493-5.23-14.117-3.822-19.439 0.707-2.426 2.064-4.176 5.621-4.389 8.78-0.463 6.9-0.214 13.907-0.222 20.822-0.007 6.498 0.021 12.995 0.046 19.492 0.012 3.227-1.629 11.188 1.326 13.684 2.917 2.463 7.026 1.588 10.582 1.547 6.992-0.081 13.986-0.014 20.979 0.048 2.033 0.018 4.389-0.545 5.101-2.729 1.681-5.162 1.371-11.379 2.029-16.759 0.775-6.331 1.692-12.645 2.533-18.967 0.692-5.208 1.273-8.461-2.14-12.65-4.938-6.059-11.639 3.104-13.602 7.124-0.845 1.73 1.742 3.252 2.592 1.514 1.117-2.289 2.531-4.854 4.6-6.399 5.652-4.223 6.213 5.254 5.797 8.515-1.047 8.226-2.266 16.426-3.236 24.661-0.443 3.759-0.535 7.623-1.201 11.349-0.434 2.428-10.283 1.281-12.008 1.272-3.815-0.021-7.629-0.011-11.443 0.021-1.907 0.016-3.814 0.051-5.721 0.087-4.367 0.082-3.164-6.068-3.172-8.419-0.026-7.797-0.062-15.594-0.060-23.391 0.001-3.898 0.019-7.796 0.046-11.694 0.032-4.435-0.517-9.128 1.591-13.181 3.514-6.757 13.010-7.391 18.176-2.472 4.47 4.254 3.723 13.188 3.836 18.894 0.036 1.931 3.036 1.935 2.998 0v0zM52.483 61.834c-11.126 0-22.25 0-33.376 0-1.935 0-1.935 3 0 3 11.125 0 22.25 0 33.376 0 1.935 0 1.935-3 0-3v0z"></path>
</svg>
