<!-- Generated by IcoMoon.io -->
<svg version="1.1" xmlns="http://www.w3.org/2000/svg" width="72" height="72" viewBox="0 0 72 72">
<title>PEANUT</title>
<path d="M34.125 28.176c5.118-4.364 9.285-9.748 15.707-12.264 7.745-3.035 14.946 3.023 15.465 10.743 0.575 8.563-6.842 12.509-14.201 13.005-5.628 0.379-10.019 0.932-14.593 4.492-4.823 3.754-7.045 9.397-13.141 11.683-7.203 2.7-16.167-1.345-16.245-9.489-0.077-8.051 6.946-13.286 14.29-13.664 5.184-0.266 8.911-0.628 12.718-4.506 1.356-1.381-0.764-3.503-2.121-2.121-5.911 6.019-15.217 1.555-21.513 7.289-5.047 4.596-7.912 11.834-5.442 18.478 2.177 5.855 9.282 7.781 14.874 7.646 8.175-0.2 12.683-6.852 17.738-12.239 6.633-7.069 17.243-2.488 24.77-7.893 5.722-4.108 6.917-12.044 4.688-18.292-2.225-6.239-8.828-9.317-15.091-8.718-8.426 0.806-14.094 8.671-20.024 13.729-1.474 1.258 0.659 3.369 2.121 2.121zM65.077 18.954c-5.009-0.378-10.16 0.287-15.008 1.551-5.793 1.51-9.476 6.347-13.625 10.326-2.97 2.848-6.296 4.565-10.272 5.493-3.638 0.85-7.319-0.364-10.989 0.651-5.029 1.39-7.593 6.754-9.495 11.091-0.769 1.754 1.815 3.282 2.591 1.514 2.807-6.399 5.871-10.63 13.591-10.101 5.091 0.35 10.213-1.215 14.209-4.423 4.5-3.611 8.106-9.279 13.65-11.309 4.733-1.733 10.344-2.171 15.348-1.793 1.931 0.146 1.917-2.855 0-3v0zM67.533 26.387c-3.492-1.557-6.842-2.395-10.587-1.413-7.179 1.88-13.167 8.17-19.088 12.327-5.629 3.952-28.702 8.646-25.84 19.347 0.499 1.867 3.393 1.074 2.893-0.797-1.146-4.286 7.323-7.991 10.211-9.392 4.818-2.336 9.757-3.527 14.25-6.567 7.891-5.34 16.33-15.513 26.647-10.914 1.752 0.78 3.279-1.805 1.514-2.591v0zM61.953 37.231c-2.66-4.587-0.66-10.084-3.311-14.742-1.979-3.479-6.655-4.925-9.866-6.889-1.655-1.012-3.161 1.583-1.514 2.591 4.32 2.643 9.323 3.958 10.045 9.783 0.485 3.91-0.002 7.225 2.056 10.771 0.97 1.673 3.563 0.163 2.59-1.514v0zM52 40.386c-1.043-3.292-1.348-6.091-3.497-8.939-2.612-3.46-5.434-6.577-7.46-10.455-0.896-1.715-3.485-0.199-2.59 1.514 1.483 2.84 3.354 5.394 5.311 7.922 1.177 1.52 2.495 2.888 3.52 4.525 1.157 1.848 1.18 4.197 1.824 6.229 0.581 1.839 3.478 1.053 2.892-0.796v0zM32.136 26.638c0.009 3.338 0.031 6.485 1.473 9.558 1.382 2.945 4.301 5.131 6.675 7.224 1.445 1.273 3.575-0.84 2.121-2.121-2.049-1.807-4.153-3.536-5.723-5.798-1.782-2.568-1.538-5.892-1.546-8.863-0.006-1.934-3.006-1.935-3 0v0zM34.638 49.57c0.429-8.025-4.84-13.934-10.917-18.445-1.555-1.154-3.049 1.452-1.514 2.591 5.234 3.885 9.801 8.939 9.431 15.854-0.104 1.935 2.897 1.924 3 0v0zM13.658 33.363c2.738 8.173 7.49 15.892 14.337 21.24 1.505 1.176 3.645-0.932 2.121-2.121-6.45-5.038-10.981-12.203-13.566-19.917-0.611-1.824-3.508-1.042-2.892 0.798v0zM6.202 39.651c0.768 3.943 2.632 7.25 5.19 10.314 2.774 3.323 5.45 6.978 9.203 9.249 1.659 1.005 3.166-1.59 1.514-2.59-2.921-1.769-4.926-4.468-7.063-7.064-2.792-3.391-5.087-6.273-5.95-10.706-0.371-1.897-3.262-1.092-2.894 0.797v0z"></path>
</svg>
