<!-- Generated by IcoMoon.io -->
<svg version="1.1" xmlns="http://www.w3.org/2000/svg" width="72" height="72" viewBox="0 0 72 72">
<title>PIE_SHELL</title>
<path d="M68.159 29.18c-0.364 2.666-7.424 3.527-9.434 3.938-6.817 1.394-13.881 1.702-20.818 1.821-7.318 0.125-14.685-0.275-21.926-1.348-2.528-0.375-10.891-1.105-12.087-4.020-0.621-1.512 9.828-3.613 10.703-3.774 7.028-1.295 14.273-1.549 21.403-1.589 7.151-0.041 14.346 0.421 21.402 1.588 2.15 0.355 10.364 1.305 10.757 4.182 0.261 1.909 3.15 1.093 2.893-0.798-0.497-3.646-6.293-4.801-9.080-5.506-8.396-2.122-17.363-2.417-25.972-2.466-8.669-0.049-17.501 0.542-25.973 2.467-2.741 0.623-9.133 2.042-9.133 5.905 0 3.575 5.437 4.895 8.013 5.621 8.075 2.277 16.858 2.596 25.186 2.738 8.908 0.152 17.947-0.398 26.688-2.185 2.969-0.607 9.733-1.842 10.271-5.776 0.258-1.891-2.632-2.707-2.893-0.798zM1.333 30.64c5.206 6.275 10.412 12.55 15.618 18.825 1.309 1.577 2.445 1.328 4.418 1.328 4.694 0 9.388 0 14.083 0 4.954 0 9.908 0 14.862 0 1.5 0 4.079 0.562 5.14-0.788 5.070-6.455 10.142-12.91 15.212-19.365 1.181-1.503-0.927-3.642-2.121-2.121-4.816 6.132-9.634 12.263-14.45 18.395-0.304 0.387-0.608 0.774-0.912 1.161-0.398 0.508 1.538-0.281 0.621-0.281-1.163 0-2.326 0-3.489 0-4.627 0-9.254 0-13.88 0s-9.253 0-13.88 0c-1.164 0-2.327 0-3.49 0-0.918 0 1.027 0.779 0.621 0.289-0.306-0.368-0.612-0.737-0.917-1.105-5.105-6.155-10.21-12.307-15.314-18.459-1.237-1.491-3.347 0.644-2.122 2.121v0z"></path>
</svg>
