<?xml version="1.0" encoding="utf-8"?>
<!-- Generator: Adobe Illustrator 16.0.0, SVG Export Plug-In . SVG Version: 6.00 Build 0)  -->
<!DOCTYPE svg PUBLIC "-//W3C//DTD SVG 1.1//EN" "http://www.w3.org/Graphics/SVG/1.1/DTD/svg11.dtd">
<svg version="1.1" id="Layer_1" xmlns="http://www.w3.org/2000/svg" xmlns:xlink="http://www.w3.org/1999/xlink" x="0px" y="0px"
	 width="223.488px" height="244.487px" viewBox="0 0 223.488 244.487" enable-background="new 0 0 223.488 244.487"
	 xml:space="preserve">
<g>
	<g>
		<path d="M73.534,91.391c3.404-12.855-0.957-26.071,2.06-38.864C78.45,40.41,91.65,33.152,102.564,29.699
			c21.723-6.873,42.615,3.91,53.33,23.164c9.75,17.519,11.152,39.128,10.439,58.746c-0.786,21.6-1.874,44.999-11.395,64.795
			c-6.688,13.905-19.345,25.715-34.514,29.586c-14.973,3.821-29.589-5.806-39.666-15.882c-10.8-10.8-19.093-24.985-22.748-39.834
			c-2.658-10.802-1.927-21.354,1.38-31.888c2.951-9.404,9.515-17.292,13.765-26.1c2.091-4.335-4.375-8.141-6.477-3.785
			c-6.055,12.552-14.223,23.046-16.94,37.062c-2.396,12.36-0.197,25.429,4.358,37.032c7.681,19.559,22.518,38.812,41.996,47.643
			c20.274,9.191,41.65,0.174,55.763-15.66c14.394-16.148,18.428-38.518,20.42-59.34c3.385-35.361,5.086-81.832-26.751-105.578
			c-17.205-12.832-39.377-11.774-57.629-1.809c-9.515,5.194-17.353,13.425-19.882,24.152c-2.904,12.319,1.547,25.085-1.713,37.393
			C65.063,94.078,72.297,96.062,73.534,91.391L73.534,91.391z"/>
	</g>
</g>
<g>
	<g>
		<path d="M129.934,52.379c3.042,2.551,4.42,5.813,5.035,9.678c0.322,2.021,2.81,3.115,4.613,2.619
			c2.132-0.586,2.94-2.596,2.619-4.613c-0.793-4.982-3.056-9.71-6.965-12.988C131.558,43.99,126.223,49.267,129.934,52.379
			L129.934,52.379z"/>
	</g>
</g>
<g>
	<g>
		<path d="M74.969,152.057c1.78,7.216,7.61,11.627,14.619,13.286c4.703,1.113,6.699-6.119,1.994-7.232
			c-4.542-1.075-8.21-3.3-9.381-8.048C81.043,145.369,73.811,147.361,74.969,152.057L74.969,152.057z"/>
	</g>
</g>
<g>
	<g>
		<path d="M131.251,130.144c2.674,0.062,4.806,1.368,5.718,3.914c0.688,1.922,2.529,3.192,4.613,2.619
			c1.858-0.511,3.309-2.688,2.619-4.613c-2.063-5.759-6.797-9.278-12.95-9.419C126.412,122.532,126.423,130.033,131.251,130.144
			L131.251,130.144z"/>
	</g>
</g>
<g>
	<g>
		<path d="M129.918,191.477c4.837,0,4.837-7.5,0-7.5S125.081,191.477,129.918,191.477L129.918,191.477z"/>
	</g>
</g>
<g>
	<g>
		<path d="M93.918,98.81c4.837,0,4.837-7.5,0-7.5S89.081,98.81,93.918,98.81L93.918,98.81z"/>
	</g>
</g>
</svg>
