<!-- Generated by IcoMoon.io -->
<svg version="1.1" xmlns="http://www.w3.org/2000/svg" width="72" height="72" viewBox="0 0 72 72">
<title>POW_SUGAR</title>
<path d="M33.956 37.654c1.935 0 1.935-3 0-3s-1.935 3 0 3v0zM37.928 36.857c1.935 0 1.935-3 0-3s-1.935 3 0 3v0zM36.735 42.022c1.935 0 1.935-3 0-3s-1.934 3 0 3v0zM41.899 40.035c1.935 0 1.935-3 0-3s-1.934 3 0 3v0zM29.587 42.42c1.935 0 1.935-3 0-3s-1.935 3 0 3v0zM30.381 37.654c1.935 0 1.935-3 0-3s-1.934 3 0 3v0zM32.367 33.283c1.935 0 1.935-3 0-3s-1.934 3 0 3v0zM37.134 32.887c1.935 0 1.935-3 0-3s-1.935 3 0 3v0zM42.297 36.064c1.935 0 1.935-3 0-3s-1.936 3 0 3v0zM39.911 44.404c1.935 0 1.935-3 0-3s-1.934 3 0 3v0zM34.353 45.994c1.934 0 1.934-3 0-3s-1.935 3 0 3v0zM33.161 42.816c1.935 0 1.935-3 0-3s-1.935 3 0 3v0zM27.204 38.051c1.935 0 1.935-3 0-3s-1.934 3 0 3v0zM28.395 34.080c1.935 0 1.935-3 0-3s-1.935 3 0 3v0zM27.601 29.315c1.935 0 1.935-3 0-3s-1.935 3 0 3v0zM32.367 30.108c1.935 0 1.935-3 0-3s-1.934 3 0 3v0zM35.94 31.696c1.935 0 1.935-3 0-3s-1.934 3 0 3v0zM41.503 33.283c1.935 0 1.935-3 0-3s-1.935 3 0 3v0zM43.885 31.696c1.935 0 1.935-3 0-3s-1.935 3 0 3v0zM45.076 37.258c1.935 0 1.935-3 0-3s-1.934 3 0 3v0zM45.87 41.625c1.935 0 1.935-3 0-3s-1.934 3 0 3v0zM41.899 47.581c1.935 0 1.935-3 0-3s-1.934 3 0 3v0zM37.134 49.568c1.935 0 1.935-3 0-3s-1.935 3 0 3v0zM31.175 45.2c1.935 0 1.935-3 0-3s-1.934 3 0 3v0zM31.572 40.432c1.935 0 1.935-3 0-3s-1.935 3 0 3v0zM37.928 39.639c1.935 0 1.935-3 0-3s-1.935 3 0 3v0zM34.353 34.873c1.934 0 1.934-3 0-3s-1.935 3 0 3v0zM31.97 36.064c1.935 0 1.935-3 0-3s-1.934 3 0 3v0zM34.75 39.639c1.934 0 1.934-3 0-3s-1.935 3 0 3v0zM35.94 37.258c1.935 0 1.935-3 0-3s-1.934 3 0 3v0zM39.117 38.447c1.936 0 1.936-3 0-3-1.933 0-1.933 3 0 3v0zM37.134 34.873c1.935 0 1.935-3 0-3s-1.935 3 0 3v0zM39.515 35.667c1.935 0 1.935-3 0-3s-1.935 3 0 3v0zM35.146 43.61c1.935 0 1.935-3 0-3s-1.934 3 0 3v0zM39.515 42.022c1.935 0 1.935-3 0-3s-1.935 3 0 3v0zM37.134 44.404c1.935 0 1.935-3 0-3s-1.935 3 0 3v0zM24.821 34.873c1.935 0 1.935-3 0-3s-1.934 3 0 3v0zM23.232 40.432c1.935 0 1.935-3 0-3s-1.934 3 0 3v0zM39.911 31.696c1.935 0 1.935-3 0-3s-1.934 3 0 3v0zM45.076 34.080c1.935 0 1.935-3 0-3s-1.934 3 0 3v0zM48.65 38.845c1.935 0 1.935-3 0-3s-1.934 3 0 3v0zM47.457 32.093c1.935 0 1.935-3 0-3s-1.935 3 0 3v0zM38.611 28.289c1.935 0 1.935-3 0-3s-1.934 3 0 3v0zM33.559 26.534c1.935 0 1.935-3 0-3s-1.934 3 0 3v0zM27.204 44.404c1.935 0 1.935-3 0-3s-1.934 3 0 3v0zM30.637 38.184c1.935 0 1.935-3 0-3s-1.935 3 0 3v0zM33.196 41.253c1.935 0 1.935-3 0-3s-1.934 3 0 3v0zM33.708 40.229c1.935 0 1.935-3 0-3s-1.935 3 0 3v0zM34.732 41.766c1.934 0 1.934-3 0-3s-1.935 3 0 3v0zM31.148 38.694c1.935 0 1.935-3 0-3s-1.935 3 0 3v0zM46.505 46.885c1.935 0 1.935-3 0-3s-1.935 3 0 3v0zM31.148 49.568c1.935 0 1.935-3 0-3s-1.935 3 0 3v0zM41.899 27.433c1.935 0 1.935-3 0-3s-1.934 3 0 3v0zM46.505 27.946c1.935 0 1.935-3 0-3s-1.935 3 0 3v0zM34.221 34.088c1.935 0 1.935-3 0-3s-1.935 3 0 3v0zM36.78 34.598c1.935 0 1.935-3 0-3s-1.934 3 0 3v0zM38.314 37.158c1.936 0 1.936-3 0-3-1.933 0-1.933 3 0 3v0zM34.221 39.717c1.935 0 1.935-3 0-3s-1.935 3 0 3v0zM36.268 39.717c1.934 0 1.934-3 0-3s-1.935 3 0 3v0zM20.17 32.344c1.935 0 1.935-3 0-3s-1.934 3 0 3v0zM24.317 24.050c1.935 0 1.935-3 0-3s-1.935 3 0 3v0zM38.141 23.359c1.935 0 1.935-3 0-3s-1.935 3 0 3v0zM31.229 19.212c1.935 0 1.935-3 0-3s-1.934 3 0 3v0zM50.58 21.977c1.935 0 1.935-3 0-3s-1.934 3 0 3v0zM57.524 28.289c1.935 0 1.935-3 0-3s-1.934 3 0 3v0zM52.655 33.727c1.935 0 1.935-3 0-3s-1.934 3 0 3v0zM53.345 42.711c1.935 0 1.935-3 0-3s-1.935 3 0 3v0zM47.457 53.078c1.935 0 1.935-3 0-3s-1.935 3 0 3v0zM57.524 36.857c1.935 0 1.935-3 0-3s-1.934 3 0 3v0zM38.832 53.078c1.936 0 1.936-3 0-3-1.934 0-1.934 3 0 3v0zM22.935 51.695c1.935 0 1.935-3 0-3s-1.935 3 0 3v0zM33.196 56.534c1.935 0 1.935-3 0-3s-1.934 3 0 3v0zM16.023 41.329c1.935 0 1.935-3 0-3s-1.934 3 0 3v0zM42.287 18.521c1.935 0 1.935-3 0-3s-1.935 3 0 3v0z"></path>
</svg>
