<!-- Generated by IcoMoon.io -->
<svg version="1.1" xmlns="http://www.w3.org/2000/svg" width="72" height="72" viewBox="0 0 72 72">
<title>PRETZEL</title>
<path d="M17.225 61.036c9.792-7.507 22.434-21.604 21.801-34.819-0.646-13.496-22.189-15.974-30-7.529-8.742 9.453-3.573 25.453 4.433 33.444 12.901 12.878 38.019 9.858 49.372-3.406 5.229-6.108 8.302-17.071 4.771-24.686-3.819-8.235-14.012-12.188-22.604-10.025-9.1 2.291-13.017 11.89-11.72 20.414 0.809 5.317 5.681 10.238 9.341 13.813 4.453 4.349 9.764 7.928 15.275 10.777 1.715 0.888 3.232-1.701 1.514-2.59-10.813-5.592-27.106-16.953-22.59-31.083 4.545-14.225 26.082-10.007 28.958 2.938 2.913 13.108-8.597 24.59-20.217 27.59-9.976 2.575-21.345 1.704-29.328-5.255-9.162-7.987-14.241-30.618 2.129-33.678 8.444-1.578 19.023 3.064 17.485 12.752-1.274 8.024-7.186 15.468-12.408 21.363-2.352 2.655-4.906 5.228-7.726 7.39-1.513 1.159-0.022 3.768 1.514 2.59v0z"></path>
</svg>
