<!-- Generated by IcoMoon.io -->
<svg version="1.1" xmlns="http://www.w3.org/2000/svg" width="72" height="72" viewBox="0 0 72 72">
<title>PUDDING</title>
<path d="M63.106 13.539c0 15.082 0 30.163 0 45.245 0.5-0.5 1-1 1.5-1.5-8.208 0-16.601 1.513-24.757 2.329-8.746 0.876-17.492 1.751-26.238 2.627 0.5 0.5 1 1 1.5 1.5 0-9.89 0-19.78 0-29.67 0-4.744 0-9.487 0-14.231 0-3.058-4.81-5.547-6.907-7.36-1.456-1.259-3.587 0.854-2.121 2.121 2.382 2.060 5.312 6.274 8.715 5.9 5.334-0.585 10.669-1.169 16.003-1.754 11.268-1.235 22.537-2.471 33.804-3.707 1.226-0.134 2.082-1.567 1.061-2.561-2.152-2.096-4.666-6.262-7.95-5.907-5.498 0.595-10.996 1.189-16.494 1.783-11.359 1.228-22.718 2.456-34.077 3.684-0.813 0.088-1.5 0.616-1.5 1.5 0 9.891 0 19.781 0 29.672 0 4.744 0 9.488 0 14.232 0 3.058 4.81 5.545 6.907 7.356 1.456 1.258 3.587-0.854 2.121-2.121-1.669-1.442-3.338-2.885-5.007-4.326-1.246-1.077-1.021-1.451-1.021-0.318 0-0.414 0-0.828 0-1.242 0-4.846 0-9.69 0-14.536 0-9.573 0-19.145 0-28.717-0.5 0.5-1 1-1.5 1.5 10.408-1.125 20.816-2.25 31.225-3.376 5.922-0.64 11.843-1.28 17.765-1.92 0.626-0.067 1.253-0.135 1.879-0.203 1.205-0.13 0.541 0.201-0.114-0.437 1.883 1.833 3.765 3.665 5.647 5.497 0.354-0.854 0.707-1.707 1.061-2.561-10.308 1.13-20.616 2.26-30.924 3.391-5.749 0.63-11.498 1.261-17.246 1.891-0.648 0.071-1.296 0.142-1.944 0.213-1.17 0.128-0.675-0.203 0.071 0.442-2.119-1.833-4.239-3.665-6.358-5.497-1.456-1.259-3.587 0.854-2.121 2.121 1.669 1.443 3.338 2.886 5.007 4.329 1.246 1.077 1.021 1.452 1.021 0.318 0 0.414 0 0.828 0 1.242 0 4.845 0 9.69 0 14.536 0 9.571 0 19.144 0 28.715 0 0.756 0.685 1.582 1.5 1.5 8.746-0.876 17.492-1.751 26.238-2.627 8.156-0.816 16.549-2.329 24.757-2.329 0.817 0 1.5-0.683 1.5-1.5 0-15.082 0-30.163 0-45.245-0.003-1.934-3.003-1.934-3.003 0.001v0zM63.745 32.539c-7.884 2.134-14.8 5.747-21.27 10.72-5.638 4.334-10.532 8.827-12.368 15.858-0.49 1.873 2.404 2.668 2.893 0.797 3.319-12.707 19.79-21.301 31.542-24.482 1.865-0.505 1.073-3.399-0.797-2.893v0zM53.424 36.304c-4.611 2.395-9.122 6.252-11.345 11.005-2.574 5.507 0.050 11.042 6.401 10.604 4.877-0.336 11.744-4.519 10.667-10.075-1.087-5.607-9.217-0.313-9.267 3.619-0.024 1.936 2.976 1.934 3 0 0.030-2.359 4.552-3.937 3.079-0.958-0.754 1.525-2.627 2.51-4.048 3.285-3.683 2.010-8.697 1.495-7.604-3.808 1-4.852 6.475-8.925 10.63-11.083 1.718-0.89 0.201-3.479-1.513-2.589v0z"></path>
</svg>
