<!-- Generated by IcoMoon.io -->
<svg version="1.1" xmlns="http://www.w3.org/2000/svg" width="72" height="72" viewBox="0 0 72 72">
<title>PUMPKIN</title>
<path d="M24.975 61.191c-10.6-0.305-15.319-7.806-15.894-17.685-0.34-5.85 1.005-11.801 3.51-17.070 1.321-2.78 2.985-5.278 5.63-6.956 1.316-0.834 4.751 0.767 6.323 0.925 1.924 0.194 1.906-2.808 0-3-2.454-0.247-4.053-2.148-6.587-1.055-2.941 1.269-4.84 3.335-6.549 5.997-3.973 6.186-5.51 13.903-5.327 21.16 0.292 11.599 6.891 20.339 18.894 20.685 1.935 0.055 1.93-2.945 0-3.001v0zM47.431 65.109c12.694-0.393 17.993-10.179 18.309-21.856 0.192-7.075-1.934-13.794-5.176-19.987-1.398-2.671-3.602-4.775-6.335-5.997-2.456-1.099-4.054 0.812-6.379 1.054-1.904 0.198-1.924 3.2 0 3 1.361-0.142 1.832-0.257 3.072-0.793 3.831-1.659 6.263 2.745 7.684 5.458 2.812 5.371 4.108 11.214 4.134 17.265 0.043 9.932-4.548 18.523-15.309 18.856-1.93 0.060-1.936 3.060 0 3v0zM32.876 17.21c-5.216-1.257-8.336-0.737-11.763 3.618-4.261 5.415-5.442 12.24-5.701 18.958-0.242 6.293 0.943 12.631 3.933 18.191 1.77 3.293 5.934 8.479 10.317 7.515 7.514-1.653 8.948-14.247 9.787-20.341 1.176-8.548 1.996-22.292-6.216-27.79-1.612-1.080-3.112 1.521-1.514 2.591 6.515 4.361 5.645 16.078 5.011 22.882-0.533 5.721-1.697 11.999-4.563 17.028-2.352 4.126-5.384 2.476-8.087-0.376-3.854-4.065-5.145-10.142-5.588-15.522-0.415-5.034 0.167-10.167 1.62-14.991 0.934-3.102 2.706-5.74 4.879-8.099 1.965-2.134 4.655-1.356 7.086-0.771 1.882 0.453 2.679-2.44 0.799-2.893v0zM32.821 62.213c1.835 7.053 13.588 4.427 17.171 0.572 3.938-4.236 3.518-14.368 3.554-19.815 0.042-6.411-0.021-13.798-2.836-19.683-1.137-2.379-2.927-6.208-6.109-6.191-3.644 0.020-7.728-1.376-10.384 1.846-1.221 1.48 0.889 3.615 2.122 2.121 1.886-2.288 8.563-1.467 10.163 0.745 1.319 1.822 2.167 4.076 2.729 6.23 1.175 4.499 1.261 9.381 1.313 14.010 0.031 2.833-0.192 5.668-0.445 8.486-0.263 2.934-0.727 5.828-1.521 8.664-0.815 2.91-3.962 4.134-6.637 4.351-1.431 0.116-5.722-0.187-6.228-2.133-0.486-1.871-3.38-1.077-2.892 0.797v0zM43.22 17.215c-3.621-3.181-2.204-6.347-1.683-10.353 0.113-0.871-0.773-1.423-1.5-1.5-2.271-0.241-6.978-0.849-8.495 1.181-0.881 1.18-0.418 3.058-0.82 4.427-0.859 2.925-3.573 5.875-6.578 6.489-1.895 0.387-1.091 3.279 0.798 2.893 3.85-0.787 7.004-4.252 8.381-7.829 0.321-0.834 0.63-1.683 0.693-2.584 0.113-1.603-0.107-1.415 1.618-1.598 1.558-0.166 2.842-0.145 4.402 0.021-0.5-0.5-1-1-1.5-1.5-0.643 4.937-1.755 8.683 2.562 12.474 1.448 1.272 3.578-0.841 2.122-2.121v0z"></path>
</svg>
