<!-- Generated by IcoMoon.io -->
<svg version="1.1" xmlns="http://www.w3.org/2000/svg" width="72" height="72" viewBox="0 0 72 72">
<title>RIBS</title>
<path d="M10.237 38.137c0 0.563-0.225 1.8-1.012 1.8s-1.013-1.238-1.013-1.8c0-0.563 0.225-1.8 1.013-1.8s0.9 1.35 1.012 1.8c0.113 2.138 3.488 2.138 3.375 0-0.112-2.475-1.575-5.175-4.387-5.175-2.7 0-4.388 2.7-4.388 5.175 0 2.363 1.575 5.063 4.162 5.175 2.813 0.113 4.388-2.587 4.5-5.175 0.112-2.137-3.263-2.137-3.263 0zM21.488 8.662c-6.188 7.65-12.487 15.412-18.675 23.063-1.35 1.688 0.675 3.825 2.362 2.363 2.138-1.8 5.625-3.15 7.875-0.9 1.463 1.462 2.025 5.175 0.787 6.975s1.688 3.375 2.925 1.688c6.188-8.325 12.375-16.65 18.45-25.087 1.237-1.8-1.688-3.488-2.925-1.688-0.112 0.112-0.225 0.338-0.337 0.45 1.012 0.563 1.913 1.125 2.925 1.688 2.25-3.6 2.025-8.775-1.8-11.362-4.275-2.813-9.225-0.337-12.038 3.15-1.35 1.688 1.012 4.050 2.363 2.363 1.575-2.025 4.5-4.163 7.087-3.038 2.7 1.125 2.7 4.838 1.35 7.088-1.125 1.912 1.688 3.375 2.925 1.687 0.113-0.112 0.225-0.337 0.338-0.45-1.013-0.563-1.913-1.125-2.925-1.688-6.188 8.325-12.375 16.65-18.45 25.088 1.012 0.563 1.912 1.125 2.925 1.688 2.363-3.263 1.125-9.225-1.8-11.7-3.488-3.037-8.888-1.125-12.037 1.575 0.788 0.787 1.575 1.575 2.362 2.363 6.187-7.65 12.487-15.412 18.675-23.063 1.35-1.575-1.012-3.938-2.363-2.25v0zM53.775 32.4c-5.288 8.325-10.575 16.763-15.863 25.088-1.012 1.575 1.35 3.375 2.7 2.025 1.8-1.913 5.063-3.712 7.425-2.25 1.8 1.013 3.15 5.175 2.025 7.087-1.012 1.913 1.8 3.6 2.925 1.688 5.175-9 10.35-18 15.412-27-1.012-0.563-1.912-1.125-2.925-1.688-0.112 0.225-0.225 0.337-0.337 0.563 1.012 0.563 1.912 1.125 2.925 1.688 1.913-4.050 1.125-9.337-3.375-11.363-4.613-2.137-9 1.125-11.363 4.95-1.125 1.8 1.8 3.6 2.925 1.688 1.462-2.25 3.6-4.5 6.525-3.488 2.812 0.9 3.6 3.938 2.25 6.638-0.9 1.913 1.8 3.6 2.925 1.688 0.112-0.225 0.225-0.337 0.337-0.563 1.125-1.913-1.8-3.6-2.925-1.688-5.175 9-10.35 18-15.413 27 1.013 0.563 1.913 1.125 2.925 1.688 2.025-3.6 0.225-9.113-2.813-11.475-3.825-2.813-9-0.45-11.925 2.587 0.9 0.675 1.8 1.35 2.7 2.025 5.288-8.325 10.575-16.762 15.862-25.087 1.238-1.913-1.688-3.6-2.925-1.8v0zM20.925 47.25c0 0.563-0.225 1.8-1.012 1.8s-1.012-1.238-1.012-1.8c0-0.563 0.225-1.8 1.012-1.8s1.012 1.35 1.012 1.8c0.113 2.137 3.488 2.137 3.375 0-0.113-2.475-1.575-5.175-4.387-5.175-2.7 0-4.387 2.7-4.387 5.175 0 2.363 1.575 5.063 4.163 5.175 2.813 0.112 4.387-2.587 4.5-5.175 0.225-2.137-3.15-2.137-3.262 0zM34.65 54.675c-0.112 0.9-0.45 2.25-1.575 2.362s-1.575-1.462-1.463-2.362c0.113-0.9 0.675-2.25 1.688-2.138 1.237 0.113 1.35 1.688 1.35 2.587-0.112 2.137 3.263 2.137 3.375 0 0.112-2.7-1.462-5.738-4.5-5.962-2.925-0.225-4.95 2.363-5.288 5.063s1.125 5.625 4.050 6.075c2.925 0.45 5.287-2.025 5.625-4.837 0.225-2.025-3.037-2.925-3.262-0.788zM46.238 63.337c-0.113 0.9-0.45 2.25-1.575 2.363s-1.575-1.463-1.462-2.363c0.113-0.9 0.675-2.25 1.688-2.138 1.238 0.113 1.35 1.688 1.35 2.587-0.113 2.138 3.262 2.138 3.375 0 0.112-2.7-1.462-5.737-4.5-5.962-2.925-0.225-4.95 2.363-5.288 5.063s1.125 5.625 4.050 6.075c2.925 0.45 5.288-2.025 5.625-4.837 0.337-2.025-2.925-2.925-3.262-0.788zM35.55 16.762c4.612-6.412 12.825-1.8 8.663 5.175-1.125 1.912 1.688 3.488 2.925 1.688 0.113-0.225 0.225-0.338 0.337-0.563 1.238-1.8-1.688-3.488-2.925-1.688-6.413 9.45-12.825 19.012-19.238 28.462-1.238 1.8 1.688 3.487 2.925 1.688 2.475-3.6 1.125-10.125-1.8-13.050-3.488-3.487-9.225-1.237-12.487 1.688 0.9 0.675 1.8 1.35 2.7 2.025 6.525-8.775 12.938-17.438 19.463-26.213 1.35-1.8-1.688-3.375-2.925-1.688-6.525 8.775-12.938 17.438-19.462 26.213-1.238 1.575 1.35 3.262 2.7 2.025 2.25-2.138 5.962-3.6 8.212-0.9 1.462 1.688 2.137 6.188 0.787 8.212 1.012 0.563 1.913 1.125 2.925 1.688 6.412-9.45 12.825-19.013 19.238-28.463-1.013-0.563-1.913-1.125-2.925-1.688-0.112 0.225-0.225 0.337-0.337 0.563 1.013 0.563 1.913 1.125 2.925 1.688 2.363-3.938 2.137-10.013-2.025-12.713-4.725-3.038-9.675 0.225-12.487 4.050-1.35 1.912 1.575 3.6 2.813 1.8v0zM47.813 22.838c1.462-2.137 3.938-4.838 6.863-3.375 3.038 1.575 2.7 6.3 1.35 8.887-1.013 1.913 1.8 3.6 2.925 1.688 0.113-0.225 0.225-0.337 0.337-0.563 1.125-1.8-1.8-3.6-2.925-1.688-6.075 9.9-12.263 19.8-18.338 29.7-1.125 1.8 1.8 3.487 2.925 1.688 2.363-3.712 1.238-10.463-1.8-13.5-3.488-3.488-9-1.238-12.038 1.8 0.9 0.675 1.8 1.35 2.7 2.025 6.187-9.113 12.375-18.225 18.563-27.338 1.238-1.8-1.688-3.488-2.925-1.688-6.188 9.113-12.375 18.225-18.562 27.338-1.125 1.575 1.35 3.375 2.7 2.025 2.25-2.25 5.737-3.825 7.987-0.788 1.238 1.8 1.913 6.3 0.563 8.325 1.013 0.563 1.913 1.125 2.925 1.688 6.075-9.9 12.262-19.8 18.337-29.7-1.013-0.563-1.913-1.125-2.925-1.688-0.112 0.225-0.225 0.338-0.337 0.563 1.013 0.563 1.913 1.125 2.925 1.688 2.137-4.050 2.25-10.35-2.025-13.162-4.612-3.15-9.45 0.337-12.038 4.275-1.35 1.913 1.575 3.6 2.813 1.8v0zM2.475 33.75c0.9 1.238 1.688 2.587 2.587 3.825 0.563 0.788 1.462 1.125 2.362 0.563 0.788-0.45 1.125-1.575 0.563-2.362-0.9-1.238-1.688-2.588-2.588-3.825-0.563-0.788-1.462-1.125-2.362-0.563-0.675 0.563-1.125 1.687-0.563 2.363v0zM10.912 42.525c1.463 0.112 2.813 0.225 4.275 0.337 0.9 0.112 1.688-0.788 1.688-1.688 0-1.013-0.787-1.575-1.688-1.688-1.463-0.113-2.813-0.225-4.275-0.337-0.9-0.113-1.688 0.788-1.688 1.688s0.787 1.575 1.688 1.688v0zM21.488 51.75c1.8 0.225 3.6 0.45 5.288 0.675 0.9 0.112 1.688-0.9 1.688-1.688 0-1.013-0.788-1.575-1.688-1.688-1.8-0.225-3.6-0.45-5.288-0.675-0.9-0.113-1.688 0.9-1.688 1.688 0 1.012 0.788 1.575 1.688 1.688v0zM13.5 41.512c0.675 2.025 1.463 4.163 2.138 6.188s3.937 1.125 3.263-0.9c-0.675-2.025-1.463-4.163-2.138-6.188s-3.937-1.125-3.262 0.9v0zM25.65 51.975c1.012 1.238 2.025 2.475 3.037 3.712 0.563 0.675 1.8 0.563 2.363 0 0.675-0.675 0.563-1.688 0-2.363-1.012-1.237-2.025-2.475-3.037-3.712-0.563-0.675-1.8-0.563-2.363 0-0.675 0.675-0.563 1.688 0 2.362v0zM34.875 59.063c1.35 0.337 2.7 0.675 4.050 1.012 2.137 0.563 3.038-2.7 0.9-3.262-1.35-0.337-2.7-0.675-4.050-1.012-2.138-0.563-3.038 2.7-0.9 3.262v0zM37.913 59.288c0.675 1.125 1.462 2.363 2.138 3.488 1.125 1.913 4.050 0.112 2.925-1.688-0.675-1.125-1.462-2.363-2.137-3.488-1.125-1.913-4.050-0.225-2.925 1.688v0zM47.587 66.825c1.35 0 2.587 0 3.938 0 2.137 0 2.137-3.375 0-3.375-1.35 0-2.587 0-3.938 0-2.25 0-2.25 3.375 0 3.375v0z"></path>
</svg>
