<?xml version="1.0" encoding="utf-8"?>
<!-- Generator: Adobe Illustrator 19.0.0, SVG Export Plug-In . SVG Version: 6.00 Build 0)  -->
<svg version="1.1" xmlns="http://www.w3.org/2000/svg" xmlns:xlink="http://www.w3.org/1999/xlink" x="0px" y="0px"
	 viewBox="-251.8 367 38.8 55.8" style="enable-background:new -251.8 367 38.8 55.8;" xml:space="preserve">
<style type="text/css">
	.st0{display:none;}
	.st1{display:inline;fill:none;}
	.st2{display:inline;}
	.st3{fill:#9A3D58;}
</style>
<g id="Layer_1" class="st0">
	<rect x="-538" y="722" class="st1" width="71.3" height="71.7"/>
	<rect x="-538" y="722" class="st1" width="71.3" height="71.7"/>
	<rect x="-538" y="722" class="st1" width="71.3" height="71.7"/>
	<rect x="-538" y="722" class="st1" width="71.3" height="71.7"/>
	<rect x="-538" y="722" class="st1" width="71.3" height="71.7"/>
	<rect x="-538" y="722" class="st1" width="71.3" height="71.7"/>
	<g class="st2">
		<g>
			<path class="st3" d="M-255.2,398c0,0.5-0.2,1.6-0.9,1.6c-0.7,0-0.9-1.1-0.9-1.6c0-0.5,0.2-1.6,0.9-1.6
				C-255.4,396.4-255.3,397.6-255.2,398c0.1,1.9,3.1,1.9,3,0c-0.1-2.2-1.4-4.6-3.9-4.6c-2.4,0-3.9,2.4-3.9,4.6
				c0,2.1,1.4,4.5,3.7,4.6c2.5,0.1,3.9-2.3,4-4.6C-252.2,396.1-255.2,396.1-255.2,398z"/>
		</g>
	</g>
	<g class="st2">
		<g>
			<path class="st3" d="M-245.2,371.8c-5.5,6.8-11.1,13.7-16.6,20.5c-1.2,1.5,0.6,3.4,2.1,2.1c1.9-1.6,5-2.8,7-0.8
				c1.3,1.3,1.8,4.6,0.7,6.2c-1.1,1.6,1.5,3,2.6,1.5c5.5-7.4,11-14.8,16.4-22.3c1.1-1.6-1.5-3.1-2.6-1.5c-0.1,0.1-0.2,0.3-0.3,0.4
				c0.9,0.5,1.7,1,2.6,1.5c2-3.2,1.8-7.8-1.6-10.1c-3.8-2.5-8.2-0.3-10.7,2.8c-1.2,1.5,0.9,3.6,2.1,2.1c1.4-1.8,4-3.7,6.3-2.7
				c2.4,1,2.4,4.3,1.2,6.3c-1,1.7,1.5,3,2.6,1.5c0.1-0.1,0.2-0.3,0.3-0.4c-0.9-0.5-1.7-1-2.6-1.5c-5.5,7.4-11,14.8-16.4,22.3
				c0.9,0.5,1.7,1,2.6,1.5c2.1-2.9,1-8.2-1.6-10.4c-3.1-2.7-7.9-1-10.7,1.4c0.7,0.7,1.4,1.4,2.1,2.1c5.5-6.8,11.1-13.7,16.6-20.5
				C-241.9,372.4-244,370.3-245.2,371.8L-245.2,371.8z"/>
		</g>
	</g>
	<g class="st2">
		<g>
			<path class="st3" d="M-216.5,392.9c-4.7,7.4-9.4,14.9-14.1,22.3c-0.9,1.4,1.2,3,2.4,1.8c1.6-1.7,4.5-3.3,6.6-2
				c1.6,0.9,2.8,4.6,1.8,6.3c-0.9,1.7,1.6,3.2,2.6,1.5c4.6-8,9.2-16,13.7-24c-0.9-0.5-1.7-1-2.6-1.5c-0.1,0.2-0.2,0.3-0.3,0.5
				c0.9,0.5,1.7,1,2.6,1.5c1.7-3.6,1-8.3-3-10.1c-4.1-1.9-8,1-10.1,4.4c-1,1.6,1.6,3.2,2.6,1.5c1.3-2,3.2-4,5.8-3.1
				c2.5,0.8,3.2,3.5,2,5.9c-0.8,1.7,1.6,3.2,2.6,1.5c0.1-0.2,0.2-0.3,0.3-0.5c1-1.7-1.6-3.2-2.6-1.5c-4.6,8-9.2,16-13.7,24
				c0.9,0.5,1.7,1,2.6,1.5c1.8-3.2,0.2-8.1-2.5-10.2c-3.4-2.5-8-0.4-10.6,2.3c0.8,0.6,1.6,1.2,2.4,1.8c4.7-7.4,9.4-14.9,14.1-22.3
				C-212.8,392.8-215.4,391.3-216.5,392.9L-216.5,392.9z"/>
		</g>
	</g>
	<g class="st2">
		<g>
			<path class="st3" d="M-245.7,406.1c0,0.5-0.2,1.6-0.9,1.6c-0.7,0-0.9-1.1-0.9-1.6c0-0.5,0.2-1.6,0.9-1.6
				C-245.9,404.5-245.7,405.7-245.7,406.1c0.1,1.9,3.1,1.9,3,0c-0.1-2.2-1.4-4.6-3.9-4.6c-2.4,0-3.9,2.4-3.9,4.6
				c0,2.1,1.4,4.5,3.7,4.6c2.5,0.1,3.9-2.3,4-4.6C-242.6,404.2-245.6,404.2-245.7,406.1z"/>
		</g>
	</g>
	<g class="st2">
		<g>
			<path class="st3" d="M-233.5,412.7c-0.1,0.8-0.4,2-1.4,2.1c-1,0.1-1.4-1.3-1.3-2.1c0.1-0.8,0.6-2,1.5-1.9
				c1.1,0.1,1.2,1.5,1.2,2.3c-0.1,1.9,2.9,1.9,3,0c0.1-2.4-1.3-5.1-4-5.3c-2.6-0.2-4.4,2.1-4.7,4.5c-0.3,2.4,1,5,3.6,5.4
				c2.6,0.4,4.7-1.8,5-4.3C-230.4,411.6-233.3,410.8-233.5,412.7z"/>
		</g>
	</g>
	<g class="st2">
		<g>
			<path class="st3" d="M-223.2,420.4c-0.1,0.8-0.4,2-1.4,2.1c-1,0.1-1.4-1.3-1.3-2.1c0.1-0.8,0.6-2,1.5-1.9
				c1.1,0.1,1.2,1.5,1.2,2.3c-0.1,1.9,2.9,1.9,3,0c0.1-2.4-1.3-5.1-4-5.3c-2.6-0.2-4.4,2.1-4.7,4.5c-0.3,2.4,1,5,3.6,5.4
				c2.6,0.4,4.7-1.8,5-4.3C-220,419.3-222.9,418.5-223.2,420.4z"/>
		</g>
	</g>
	<g class="st2">
		<g>
			<path class="st3" d="M-232.7,379c4.1-5.7,11.4-1.6,7.7,4.6c-1,1.7,1.5,3.1,2.6,1.5c0.1-0.2,0.2-0.3,0.3-0.5
				c1.1-1.6-1.5-3.1-2.6-1.5c-5.7,8.4-11.4,16.9-17.1,25.3c-1.1,1.6,1.5,3.1,2.6,1.5c2.2-3.2,1-9-1.6-11.6
				c-3.1-3.1-8.2-1.1-11.1,1.5c0.8,0.6,1.6,1.2,2.4,1.8c5.8-7.8,11.5-15.5,17.3-23.3c1.2-1.6-1.5-3-2.6-1.5
				c-5.8,7.8-11.5,15.5-17.3,23.3c-1.1,1.4,1.2,2.9,2.4,1.8c2-1.9,5.3-3.2,7.3-0.8c1.3,1.5,1.9,5.5,0.7,7.3c0.9,0.5,1.7,1,2.6,1.5
				c5.7-8.4,11.4-16.9,17.1-25.3c-0.9-0.5-1.7-1-2.6-1.5c-0.1,0.2-0.2,0.3-0.3,0.5c0.9,0.5,1.7,1,2.6,1.5c2.1-3.5,1.9-8.9-1.8-11.3
				c-4.2-2.7-8.6,0.2-11.1,3.6C-236.4,379.1-233.8,380.6-232.7,379L-232.7,379z"/>
		</g>
	</g>
	<g class="st2">
		<g>
			<path class="st3" d="M-221.8,384.4c1.3-1.9,3.5-4.3,6.1-3c2.7,1.4,2.4,5.6,1.2,7.9c-0.9,1.7,1.6,3.2,2.6,1.5
				c0.1-0.2,0.2-0.3,0.3-0.5c1-1.6-1.6-3.2-2.6-1.5c-5.4,8.8-10.9,17.6-16.3,26.4c-1,1.6,1.6,3.1,2.6,1.5c2.1-3.3,1.1-9.3-1.6-12
				c-3.1-3.1-8-1.1-10.7,1.6c0.8,0.6,1.6,1.2,2.4,1.8c5.5-8.1,11-16.2,16.5-24.3c1.1-1.6-1.5-3.1-2.6-1.5
				c-5.5,8.1-11,16.2-16.5,24.3c-1,1.4,1.2,3,2.4,1.8c2-2,5.1-3.4,7.1-0.7c1.1,1.6,1.7,5.6,0.5,7.4c0.9,0.5,1.7,1,2.6,1.5
				c5.4-8.8,10.9-17.6,16.3-26.4c-0.9-0.5-1.7-1-2.6-1.5c-0.1,0.2-0.2,0.3-0.3,0.5c0.9,0.5,1.7,1,2.6,1.5c1.9-3.6,2-9.2-1.8-11.7
				c-4.1-2.8-8.4,0.3-10.7,3.8C-225.5,384.5-222.9,386-221.8,384.4L-221.8,384.4z"/>
		</g>
	</g>
	<g class="st2">
		<g>
			<path class="st3" d="M-262.1,394.1c0.8,1.1,1.5,2.3,2.3,3.4c0.5,0.7,1.3,1,2.1,0.5c0.7-0.4,1-1.4,0.5-2.1
				c-0.8-1.1-1.5-2.3-2.3-3.4c-0.5-0.7-1.3-1-2.1-0.5C-262.2,392.5-262.6,393.5-262.1,394.1L-262.1,394.1z"/>
		</g>
	</g>
	<g class="st2">
		<g>
			<path class="st3" d="M-254.6,401.9c1.3,0.1,2.5,0.2,3.8,0.3c0.8,0.1,1.5-0.7,1.5-1.5c0-0.9-0.7-1.4-1.5-1.5
				c-1.3-0.1-2.5-0.2-3.8-0.3c-0.8-0.1-1.5,0.7-1.5,1.5C-256.1,401.2-255.4,401.8-254.6,401.9L-254.6,401.9z"/>
		</g>
	</g>
	<g class="st2">
		<g>
			<path class="st3" d="M-245.2,410.1c1.6,0.2,3.2,0.4,4.7,0.6c0.8,0.1,1.5-0.8,1.5-1.5c0-0.9-0.7-1.4-1.5-1.5
				c-1.6-0.2-3.2-0.4-4.7-0.6c-0.8-0.1-1.5,0.8-1.5,1.5C-246.7,409.5-246,410-245.2,410.1L-245.2,410.1z"/>
		</g>
	</g>
	<g class="st2">
		<g>
			<path class="st3" d="M-252.3,401c0.6,1.8,1.3,3.7,1.9,5.5c0.6,1.8,3.5,1,2.9-0.8c-0.6-1.8-1.3-3.7-1.9-5.5
				C-250,398.4-252.9,399.2-252.3,401L-252.3,401z"/>
		</g>
	</g>
	<g class="st2">
		<g>
			<path class="st3" d="M-241.5,410.3c0.9,1.1,1.8,2.2,2.7,3.3c0.5,0.6,1.6,0.5,2.1,0c0.6-0.6,0.5-1.5,0-2.1
				c-0.9-1.1-1.8-2.2-2.7-3.3c-0.5-0.6-1.6-0.5-2.1,0C-242.1,408.8-242,409.7-241.5,410.3L-241.5,410.3z"/>
		</g>
	</g>
	<g class="st2">
		<g>
			<path class="st3" d="M-233.3,416.6c1.2,0.3,2.4,0.6,3.6,0.9c1.9,0.5,2.7-2.4,0.8-2.9c-1.2-0.3-2.4-0.6-3.6-0.9
				C-234.4,413.2-235.2,416.1-233.3,416.6L-233.3,416.6z"/>
		</g>
	</g>
	<g class="st2">
		<g>
			<path class="st3" d="M-230.6,416.8c0.6,1,1.3,2.1,1.9,3.1c1,1.7,3.6,0.1,2.6-1.5c-0.6-1-1.3-2.1-1.9-3.1
				C-229,413.6-231.6,415.1-230.6,416.8L-230.6,416.8z"/>
		</g>
	</g>
	<g class="st2">
		<g>
			<path class="st3" d="M-222,423.5c1.2,0,2.3,0,3.5,0c1.9,0,1.9-3,0-3c-1.2,0-2.3,0-3.5,0C-224,420.5-224,423.5-222,423.5
				L-222,423.5z"/>
		</g>
	</g>
</g>
<g id="Layer_2">
	<g>
		<g>
			<path class="st3" d="M-238.9,380.7c-0.3,2.3-0.9,6.1-2,8.1c-1,2-2.3,3.6-3.1,5.7c-1.8,5.2-1.6,10.8-1,16.1
				c0.4,3.1,0.5,6.5,3.9,7.6c4.1,1.4,9.5,0.5,13.7,0.5c1.9,0,1.9-3,0-3c-2.3,0-4.7,0-7,0c-1.3,0-4.2,0.5-5.4-0.2
				c-3.6-2-2.9-11.2-2.6-14.5c0.3-2.8,1-5.6,2.3-8.1c0.7-1.3,1.9-2.4,2.4-3.7c1-2.5,1.3-5.8,1.6-8.5
				C-235.7,378.8-238.7,378.8-238.9,380.7L-238.9,380.7z"/>
		</g>
	</g>
	<g>
		<g>
			<path class="st3" d="M-228.5,379.8c0.3,2.8,0.3,6.5,1.3,9.1c1.4,3.4,3.7,5.7,4.5,9.5c0.4,2,0.5,4.1,0.5,6.2
				c0,1.9,0.2,6.9-0.8,8.4c-2.5,3.8-7.2,2.8-11.1,2.9c-1.9,0-1.9,3,0,3c3.3-0.1,7.9,0.9,11-0.6c3.4-1.6,3.3-6.1,3.6-9.3
				c0.5-4.8,0.5-9.8-1.2-14.4c-0.8-2.1-2.1-3.8-3.1-5.7c-1.2-2.5-1.6-6.4-1.8-9.1C-225.7,377.8-228.7,377.8-228.5,379.8
				L-228.5,379.8z"/>
		</g>
	</g>
	<g>
		<g>
			<path class="st3" d="M-227.2,373.6c-0.2,1.1-4,1.1-4.8,1.1c-0.3,0-4.6-0.4-4.5-0.7c0.4-1.2,9-1.2,9.4,0.4
				c0.4,1.9,3.3,1.1,2.9-0.8c-0.7-3.2-5.7-3.4-8.2-3.3c-2.2,0.1-7.3,0.5-7.3,3.7c0,3,4.7,3.6,6.9,3.7c2.5,0.1,8,0,8.7-3.3
				C-223.9,372.5-226.8,371.7-227.2,373.6z"/>
		</g>
	</g>
	<g>
		<g>
			<path class="st3" d="M-227.5,377.8c-0.4,2.1-9.4,2-9.7,0c-0.3-1.9-3.2-1.1-2.9,0.8c0.5,3.1,5.3,3.6,7.7,3.6
				c2.5,0,7.2-0.5,7.7-3.6C-224.3,376.7-227.1,375.9-227.5,377.8L-227.5,377.8z"/>
		</g>
	</g>
	<g>
		<g>
			<path class="st3" d="M-237.1,378.2c0.1-1.3,0.2-2.6,0.3-3.9c0.1-0.8-0.7-1.5-1.5-1.5c-0.9,0-1.4,0.7-1.5,1.5
				c-0.1,1.3-0.2,2.6-0.3,3.9c-0.1,0.8,0.7,1.5,1.5,1.5C-237.7,379.7-237.2,379-237.1,378.2L-237.1,378.2z"/>
		</g>
	</g>
	<g>
		<g>
			<path class="st3" d="M-224.5,378.2c0.1-1.3,0.2-2.6,0.3-3.9c0.1-0.8-0.7-1.5-1.5-1.5c-0.9,0-1.4,0.7-1.5,1.5
				c-0.1,1.3-0.2,2.6-0.3,3.9c-0.1,0.8,0.7,1.5,1.5,1.5C-225.2,379.7-224.6,379-224.5,378.2L-224.5,378.2z"/>
		</g>
	</g>
	<g>
		<g>
			<path class="st3" d="M-243.7,397.6c2.5,1.6,6.8,1.7,9.7,2c4.1,0.4,9,0,12.9-1.5c1.8-0.7,1-3.6-0.8-2.9c-3.4,1.4-7.6,1.7-11.3,1.5
				c-2.4-0.1-6.8-0.2-9-1.7C-243.8,394-245.3,396.5-243.7,397.6L-243.7,397.6z"/>
		</g>
	</g>
	<g>
		<g>
			<path class="st3" d="M-243.7,412.2c2.5,1.6,6.8,1.7,9.7,2c4.1,0.4,9,0,12.9-1.5c1.8-0.7,1-3.6-0.8-2.9c-3.4,1.4-7.6,1.7-11.3,1.5
				c-2.4-0.1-6.8-0.2-9-1.7C-243.8,408.6-245.3,411.1-243.7,412.2L-243.7,412.2z"/>
		</g>
	</g>
</g>
</svg>
