<!-- Generated by IcoMoon.io -->
<svg version="1.1" xmlns="http://www.w3.org/2000/svg" width="72" height="72" viewBox="0 0 72 72">
<title>SAUCE</title>
<path d="M27.514 17.614c-0.386 2.957-1.157 7.843-2.571 10.414-1.286 2.571-2.957 4.629-3.986 7.329-2.314 6.686-2.057 13.886-1.286 20.7 0.514 3.986 0.643 8.357 5.014 9.771 5.271 1.8 12.214 0.643 17.614 0.643 2.443 0 2.443-3.857 0-3.857-2.957 0-6.043 0-9 0-1.671 0-5.4 0.643-6.943-0.257-4.629-2.571-3.729-14.4-3.343-18.643 0.386-3.6 1.286-7.2 2.957-10.414 0.9-1.671 2.443-3.086 3.086-4.757 1.286-3.214 1.671-7.457 2.057-10.929 0.514-2.443-3.343-2.443-3.6 0v0zM40.886 16.457c0.386 3.6 0.386 8.357 1.671 11.7 1.8 4.371 4.757 7.329 5.786 12.214 0.514 2.571 0.643 5.271 0.643 7.971 0 2.443 0.257 8.871-1.029 10.8-3.214 4.886-9.257 3.6-14.271 3.729-2.443 0-2.443 3.857 0 3.857 4.243-0.129 10.157 1.157 14.143-0.771 4.371-2.057 4.243-7.843 4.629-11.957 0.643-6.171 0.643-12.6-1.543-18.514-1.029-2.7-2.7-4.886-3.986-7.329-1.543-3.214-2.057-8.229-2.314-11.7-0.129-2.571-3.986-2.571-3.729 0v0zM42.557 8.486c-0.257 1.414-5.143 1.414-6.171 1.414-0.386 0-5.914-0.514-5.786-0.9 0.514-1.543 11.571-1.543 12.086 0.514 0.514 2.443 4.243 1.414 3.729-1.029-0.9-4.114-7.329-4.371-10.543-4.243-2.829 0.129-9.386 0.643-9.386 4.757 0 3.857 6.043 4.629 8.871 4.757 3.214 0.129 10.286 0 11.186-4.243 0.257-2.443-3.471-3.471-3.986-1.029zM42.171 13.886c-0.514 2.7-12.086 2.571-12.471 0-0.386-2.443-4.114-1.414-3.729 1.029 0.643 3.986 6.814 4.629 9.9 4.629 3.214 0 9.257-0.643 9.9-4.629 0.514-2.443-3.086-3.471-3.6-1.029v0zM29.829 14.4c0.129-1.671 0.257-3.343 0.386-5.014 0.129-1.029-0.9-1.929-1.929-1.929-1.157 0-1.8 0.9-1.929 1.929-0.129 1.671-0.257 3.343-0.386 5.014-0.129 1.029 0.9 1.929 1.929 1.929 1.157 0 1.8-0.9 1.929-1.929v0zM46.029 14.4c0.129-1.671 0.257-3.343 0.386-5.014 0.129-1.029-0.9-1.929-1.929-1.929-1.157 0-1.8 0.9-1.929 1.929-0.129 1.671-0.257 3.343-0.386 5.014-0.129 1.029 0.9 1.929 1.929 1.929s1.8-0.9 1.929-1.929v0zM21.343 39.343c3.214 2.057 8.743 2.186 12.471 2.571 5.271 0.514 11.571 0 16.586-1.929 2.314-0.9 1.286-4.629-1.029-3.729-4.371 1.8-9.771 2.186-14.529 1.929-3.086-0.129-8.743-0.257-11.571-2.186-2.057-1.286-3.986 1.929-1.929 3.343v0zM21.343 58.114c3.214 2.057 8.743 2.186 12.471 2.571 5.271 0.514 11.571 0 16.586-1.929 2.314-0.9 1.286-4.629-1.029-3.729-4.371 1.8-9.771 2.186-14.529 1.929-3.086-0.129-8.743-0.257-11.571-2.186-2.057-1.286-3.986 1.929-1.929 3.343v0z"></path>
</svg>
