<!-- Generated by IcoMoon.io -->
<svg version="1.1" xmlns="http://www.w3.org/2000/svg" width="72" height="72" viewBox="0 0 72 72">
<title>SERVE</title>
<path d="M9.825 58.155c17.153 0 34.307 0 51.46 0 1.935 0 1.935-3 0-3-17.153 0-34.307 0-51.46 0-1.935 0-1.935 3 0 3v0zM62.785 56.655c-1.638-12.196-10.685-23.17-23.275-24.723 0.482 0.367 0.964 0.734 1.446 1.101-0.461-1.843-1.102-6.724-3.634-6.949-3.93-0.349-6.433-0.186-7.517 3.909-0.878 3.316-3.715 3.261-6.588 4.656-2.588 1.256-4.852 3.191-6.883 5.192-4.411 4.346-7.086 10.35-7.955 16.415-0.271 1.891 2.619 2.706 2.893 0.797 1.53-10.675 8.927-19.653 19.666-21.914 0.485-0.102 0.938-0.568 1.047-1.047 0.073-0.322 0.923-4.947 1.070-4.957 1.21-0.076 2.419-0.114 3.631-0.108 0.187 0.001 1.242 4.26 1.378 4.803 0.177 0.704 0.785 1.020 1.446 1.101 10.799 1.332 18.877 11.311 20.275 21.723 0.254 1.889 3.257 1.914 3 0.001v0zM1.413 60.33c1.137 1.048 2.774 3.416 4.483 3.416 1.777 0 3.555 0 5.333 0 8.039 0 16.078 0 24.117 0 8.165 0 16.329 0 24.493 0 1.935 0 3.869 0 5.804 0 1.812 0 3.116-2.232 4.248-3.416 1.337-1.396-0.781-3.521-2.121-2.121-0.897 0.938-1.794 1.874-2.691 2.812 0.487-0.509 1.3-0.274 0.151-0.274-2.011 0-4.022 0-6.034 0-7.618 0-15.237 0-22.856 0-7.727 0-15.454 0-23.18 0-2.146 0-4.293 0-6.44 0-0.331 0-0.662 0-0.994 0 1.299 0 0.736 0.16-0.232-0.732-0.653-0.602-1.306-1.203-1.959-1.805-1.421-1.31-3.548 0.807-2.122 2.12v0zM24.579 12.456c2.155 2.065-1.34 5.332-2.050 7.406-0.903 2.639 1.744 3.872 3.823 4.296 1.889 0.385 2.692-2.506 0.798-2.893-1.434-0.292-2.039-0.153-1.299-1.551 0.838-1.584 1.954-2.829 2.311-4.636 0.325-1.646-0.239-3.573-1.461-4.744-1.398-1.337-3.522 0.782-2.122 2.122v0zM32.538 8.217c2.155 2.065-1.34 5.333-2.050 7.406-0.903 2.639 1.745 3.872 3.824 4.296 1.889 0.385 2.692-2.506 0.798-2.893-1.435-0.293-2.040-0.153-1.3-1.552 0.838-1.584 1.955-2.829 2.311-4.636 0.325-1.646-0.239-3.572-1.461-4.743-1.398-1.337-3.522 0.782-2.122 2.122v0zM40.916 12.456c2.154 2.065-1.34 5.332-2.050 7.406-0.903 2.639 1.744 3.872 3.824 4.296 1.888 0.385 2.692-2.506 0.797-2.893-1.434-0.292-2.039-0.153-1.3-1.551 0.838-1.584 1.954-2.829 2.311-4.636 0.324-1.646-0.239-3.572-1.461-4.744-1.395-1.337-3.52 0.781-2.121 2.122v0z"></path>
</svg>
