<!-- Generated by IcoMoon.io -->
<svg version="1.1" xmlns="http://www.w3.org/2000/svg" width="72" height="72" viewBox="0 0 72 72">
<title>SHORT</title>
<path d="M51.696 27.197c-0.626 4.021-10.112 4.269-12.868 4.425-4.859 0.273-12.039 0.104-15.934-3.331-1.952-1.722 4.609-3.6 5.096-3.736 2.942-0.83 6.050-0.963 9.087-1.020 2.957-0.055 13.938 0.089 14.618 4.459 0.297 1.907 3.188 1.095 2.893-0.797-0.997-6.408-12.898-6.576-17.511-6.662-4.179-0.078-17.563 0.457-17.563 7.061 0 6.205 11.814 6.801 15.813 7.026 4.776 0.269 18.207 0.14 19.261-6.628 0.296-1.891-2.595-2.704-2.892-0.797zM19.569 45.806c0.997 6.405 12.899 6.573 17.509 6.659 4.585 0.086 16.53-0.362 17.511-6.659 0.295-1.892-2.596-2.704-2.893-0.797-1.021 6.557-28.214 6.557-29.235 0-0.296-1.907-3.187-1.095-2.892 0.797v0zM22.515 45.407c0-5.938 0-11.874 0-17.812 0-1.935-3-1.935-3 0 0 5.938 0 11.874 0 17.812 0 1.935 3 1.935 3 0v0zM51.643 27.596c0 5.938 0 11.874 0 17.812 0 1.935 3 1.935 3 0 0-5.938 0-11.874 0-17.812 0-1.935-3-1.935-3 0v0zM36.818 29.078c1.935 0 1.935-3 0-3s-1.934 3 0 3v0z"></path>
</svg>
