<!-- Generated by IcoMoon.io -->
<svg version="1.1" xmlns="http://www.w3.org/2000/svg" width="72" height="72" viewBox="0 0 72 72">
<title>SOUR_CRM</title>
<path d="M56.563 14.861c-0.716 3.711-14.377 3.506-16.899 3.586-6.291 0.199-14.325 0.288-20.001-2.841-1.092-0.602 5.065-2.393 5.558-2.499 4.118-0.882 8.411-1.009 12.606-1.053 3.757-0.040 7.527 0.249 11.24 0.807 1.515 0.228 7.114 0.815 7.496 2.797 0.365 1.898 3.257 1.092 2.893-0.798-1.244-6.457-17.311-5.76-21.63-5.805-3.675-0.039-21.685-0.464-21.685 6.206 0 6.341 16.248 6.073 19.847 6.187 5.891 0.186 11.948-0.256 17.672-1.71 2.139-0.543 5.313-1.584 5.794-4.078 0.365-1.891-2.525-2.697-2.891-0.799zM19.077 18.145c0.808 9.696 1.616 19.392 2.424 29.088 0.304 3.648 0.608 7.296 0.912 10.943 0.662 7.939 9.736 7.622 15.388 7.636 6.951 0.017 14.565 1.298 16.824-6.914 0.887-3.222 0.619-7.186 0.896-10.494 0.833-9.989 1.665-19.979 2.498-29.968 0.161-1.929-2.841-1.914-3 0-0.679 8.144-1.357 16.289-2.037 24.433-0.368 4.424-0.737 8.848-1.106 13.271-0.045 0.546-0.51 2.734-0.119 1.881-2.372 5.184-7.179 4.809-12.185 4.796-5.745-0.015-13.719 0.627-14.313-6.495-0.382-4.581-0.764-9.163-1.146-13.744-0.679-8.145-1.357-16.289-2.036-24.433-0.16-1.914-3.161-1.929-3 0v0z"></path>
</svg>
