<!-- Generated by IcoMoon.io -->
<svg version="1.1" xmlns="http://www.w3.org/2000/svg" width="72" height="72" viewBox="0 0 72 72">
<title>SPOON</title>
<path d="M26.888 40.186c-0.756 5.482-6.448 8.36-10.072 3.544-0.36 1.368-0.718 2.736-1.078 4.104 4.772-2.784 9.996-4.214 15.118-6.182-1.23-0.698-2.46-1.396-3.69-2.096 0.092 0.372 0.184 0.742 0.278 1.114 0.364 1.462 2.192 2.686 3.69 2.096 6.944-2.734 38.346-14.558 27.534-26.17-8.242-8.85-28.008 16.436-32.036 21.764 1.572-0.204 3.142-0.404 4.712-0.608-2.928-2.648-4.72-5.068-8.994-4.612-4.598 0.492-7.72 5.272-8.706 9.362-0.906 3.76 4.878 5.356 5.786 1.594 1.256-5.212 4.642-4.84 7.672-2.102 1.556 1.408 3.518 0.972 4.712-0.608 5.364-7.096 12.26-14.45 19.842-19.128 3.92-2.42 2.314 0.888 0.306 2.766-2.376 2.222-5.446 3.826-8.264 5.402-4.532 2.536-9.334 4.654-14.162 6.554 1.23 0.698 2.46 1.396 3.69 2.096-0.092-0.372-0.184-0.742-0.278-1.114-0.366-1.472-2.188-2.672-3.69-2.096-5.636 2.164-11.308 3.728-16.55 6.788-1.29 0.752-2.062 2.794-1.078 4.104 2.884 3.832 5.166 6.124 10.324 5.56 5.412-0.59 9.988-5.27 10.714-10.54 0.528-3.78-5.254-5.412-5.78-1.592v0z"></path>
</svg>
