<?xml version="1.0" encoding="utf-8"?>
<!-- Generator: Adobe Illustrator 16.0.0, SVG Export Plug-In . SVG Version: 6.00 Build 0)  -->
<!DOCTYPE svg PUBLIC "-//W3C//DTD SVG 1.1//EN" "http://www.w3.org/Graphics/SVG/1.1/DTD/svg11.dtd">
<svg version="1.1" xmlns="http://www.w3.org/2000/svg" xmlns:xlink="http://www.w3.org/1999/xlink" x="0px" y="0px" width="36px"
	 height="36px" viewBox="18 18 36 36" enable-background="new 18 18 36 36" xml:space="preserve">
<g id="Layer_1" display="none">
	<g id="Layer_2" display="inline">
	</g>
	<g display="inline">
		<g>
			<defs>
				<rect id="SVGID_1_" width="71.303" height="71.688"/>
			</defs>
			<clipPath id="SVGID_2_">
				<use xlink:href="#SVGID_1_"  overflow="visible"/>
			</clipPath>
			<g display="none" clip-path="url(#SVGID_2_)">
				<g display="inline">
					<defs>
						<rect id="SVGID_3_" x="-26.743" y="-14.406" width="102.927" height="93.508"/>
					</defs>
					<clipPath id="SVGID_4_">
						<use xlink:href="#SVGID_3_"  overflow="visible"/>
					</clipPath>
					<g clip-path="url(#SVGID_4_)">
						
							<image overflow="visible" enable-background="new    " width="1592" height="897" xlink:href="5B190C58.jpeg"  transform="matrix(0.8995 0 0 0.898 -394.5967 -204.1504)">
						</image>
					</g>
				</g>
			</g>
			<g display="none" clip-path="url(#SVGID_2_)">
				<g display="inline">
					<path fill="#EDBC5E" d="M65.507,35.843C65.15,52.193,52.35,64.993,35.999,65.352C19.649,65.708,6.838,51.652,6.492,35.843
						C6.135,19.494,20.189,6.682,35.999,6.336C52.35,5.979,65.161,20.032,65.507,35.843c0.042,1.933,3.042,1.937,3,0
						C68.113,17.849,53.992,3.729,35.999,3.336C18.007,2.942,3.873,18.441,3.492,35.843C3.099,53.835,18.597,67.971,35.999,68.352
						c17.992,0.394,32.127-15.105,32.508-32.509C68.549,33.907,65.549,33.911,65.507,35.843z"/>
					<path fill="#EDBC5E" d="M34.499,16.436c0,6.469,0,12.938,0,19.407c0,1.935,3,1.935,3,0c0-6.469,0-12.938,0-19.407
						C37.499,14.501,34.499,14.501,34.499,16.436L34.499,16.436z"/>
					<path fill="#EDBC5E" d="M53.736,27.584c-6.047,2.306-12.09,4.612-18.136,6.919c-1.789,0.683-1.013,3.584,0.798,2.894
						c6.045-2.308,12.09-4.612,18.135-6.919C56.322,29.794,55.547,26.893,53.736,27.584L53.736,27.584z"/>
				</g>
			</g>
			<g id="Layer_3" display="none" clip-path="url(#SVGID_2_)">
				<path display="inline" fill="none" stroke="#EDBC5E" stroke-width="3" stroke-miterlimit="10" d="M70.297,21.945L56.811,35.393
					c-2.111,2.114-5.847,1.804-8.34-0.689l-4.955-4.956c-2.494-2.493-2.805-6.227-0.692-8.341L55.376,8.868L69.258,22.98"/>
				<g display="inline">
					<g>
						<path fill="#EDBC5E" d="M44.223,30.762c-10.364,10.339-20.728,20.681-31.09,31.022c-1.371,1.366,0.75,3.487,2.121,2.12
							c10.363-10.34,20.726-20.68,31.089-31.021C47.714,31.516,45.592,29.395,44.223,30.762L44.223,30.762z"/>
					</g>
				</g>
				<g display="inline">
					<g>
						<path fill="#EDBC5E" d="M22.594,14.228c4.023,4.331,6.135,11.055,1.738,15.914c-4.384,4.845-11.976,1.872-15.909-1.808
							C4.112,24.3,2.494,17.051,6.688,12.419C11.075,7.574,18.66,10.543,22.594,14.228c1.41,1.321,3.536-0.796,2.121-2.121
							c-5.578-5.224-14.01-7.323-20.148-1.809C-1.557,15.8,1.555,25.34,6.303,30.455c5.194,5.595,14.301,7.059,20.151,1.808
							c6.127-5.498,3.009-15.047-1.738-20.156C23.396,10.686,21.279,12.813,22.594,14.228z"/>
					</g>
				</g>
				<g display="inline">
					<g>
						<path fill="#EDBC5E" d="M24.943,32.735C35.521,43.355,46.102,53.979,56.68,64.6c1.366,1.371,3.487-0.75,2.121-2.121
							C48.223,51.855,37.643,41.234,27.064,30.614C25.698,29.242,23.577,31.363,24.943,32.735L24.943,32.735z"/>
					</g>
				</g>
				<g display="inline">
					<g>
						<path fill="#EDBC5E" d="M8.185,15.911c4.309,4.327,8.618,8.653,12.927,12.98c1.366,1.372,3.487-0.75,2.121-2.121
							c-4.309-4.327-8.618-8.653-12.927-12.98C8.94,12.417,6.819,14.539,8.185,15.911L8.185,15.911z"/>
					</g>
				</g>
				<g display="inline">
					<g>
						<path fill="#EDBC5E" d="M13.132,15.306c2.752,2.735,5.505,5.47,8.258,8.204c1.373,1.364,3.495-0.756,2.121-2.121
							c-2.752-2.735-5.505-5.47-8.258-8.204C13.88,11.82,11.758,13.941,13.132,15.306L13.132,15.306z"/>
					</g>
				</g>
				<g display="inline">
					<g>
						<path fill="#EDBC5E" d="M7.326,21.013c2.738,2.75,5.477,5.499,8.215,8.248c1.366,1.372,3.487-0.75,2.121-2.121
							c-2.738-2.75-5.477-5.499-8.215-8.248C8.081,17.52,5.96,19.641,7.326,21.013L7.326,21.013z"/>
					</g>
				</g>
			</g>
			<g display="none" clip-path="url(#SVGID_2_)">
				<g display="inline">
					<path fill="#EDBC5E" d="M9.825,58.154c17.153,0,34.307,0,51.46,0c1.936,0,1.936-3,0-3c-17.153,0-34.307,0-51.46,0
						C7.89,55.154,7.89,58.154,9.825,58.154L9.825,58.154z"/>
					<path fill="#EDBC5E" d="M62.785,56.654C61.146,44.459,52.1,33.485,39.51,31.932c0.482,0.367,0.965,0.734,1.446,1.101
						c-0.461-1.843-1.103-6.724-3.634-6.949c-3.93-0.349-6.433-0.186-7.517,3.909c-0.878,3.316-3.715,3.261-6.588,4.656
						c-2.588,1.256-4.852,3.191-6.883,5.192c-4.411,4.347-7.086,10.351-7.955,16.415c-0.271,1.891,2.619,2.706,2.893,0.797
						c1.53-10.675,8.927-19.652,19.666-21.914c0.485-0.102,0.938-0.568,1.047-1.047c0.073-0.322,0.923-4.947,1.07-4.957
						c1.21-0.076,2.419-0.114,3.63-0.108c0.188,0.001,1.242,4.26,1.379,4.803c0.177,0.704,0.785,1.02,1.445,1.101
						c10.799,1.332,18.877,11.311,20.275,21.723C60.039,58.543,63.042,58.568,62.785,56.654L62.785,56.654z"/>
					<path fill="#EDBC5E" d="M1.413,60.33c1.137,1.048,2.774,3.416,4.483,3.416c1.777,0,3.555,0,5.333,0c8.039,0,16.078,0,24.117,0
						c8.166,0,16.329,0,24.493,0c1.935,0,3.869,0,5.804,0c1.813,0,3.116-2.232,4.248-3.416c1.338-1.396-0.781-3.521-2.121-2.121
						c-0.896,0.938-1.793,1.874-2.69,2.813c0.487-0.51,1.3-0.274,0.151-0.274c-2.012,0-4.022,0-6.035,0c-7.617,0-15.236,0-22.855,0
						c-7.727,0-15.454,0-23.18,0c-2.146,0-4.293,0-6.44,0c-0.331,0-0.662,0-0.994,0c1.299,0,0.736,0.16-0.232-0.731
						c-0.653-0.603-1.306-1.203-1.959-1.806C2.114,56.9-0.013,59.018,1.413,60.33L1.413,60.33z"/>
					<path fill="#EDBC5E" d="M24.579,12.456c2.155,2.065-1.34,5.332-2.05,7.406c-0.903,2.639,1.744,3.872,3.823,4.296
						c1.889,0.385,2.692-2.506,0.798-2.893c-1.434-0.292-2.039-0.153-1.299-1.551c0.838-1.584,1.954-2.829,2.311-4.636
						c0.325-1.646-0.239-3.573-1.461-4.744C25.303,8.997,23.179,11.116,24.579,12.456L24.579,12.456z"/>
					<path fill="#EDBC5E" d="M32.538,8.217c2.155,2.065-1.34,5.333-2.05,7.406c-0.903,2.639,1.745,3.872,3.824,4.296
						c1.889,0.385,2.692-2.506,0.798-2.893c-1.435-0.293-2.04-0.153-1.3-1.552c0.838-1.584,1.955-2.829,2.311-4.636
						c0.325-1.646-0.239-3.572-1.461-4.743C33.262,4.758,31.138,6.877,32.538,8.217L32.538,8.217z"/>
					<path fill="#EDBC5E" d="M40.916,12.456c2.154,2.065-1.34,5.332-2.05,7.406c-0.903,2.639,1.743,3.872,3.823,4.296
						c1.889,0.385,2.692-2.506,0.797-2.893c-1.434-0.292-2.038-0.153-1.299-1.551c0.838-1.584,1.953-2.829,2.311-4.636
						c0.324-1.646-0.239-3.572-1.461-4.744C41.643,8.997,39.518,11.115,40.916,12.456L40.916,12.456z"/>
				</g>
			</g>
			<g display="none" clip-path="url(#SVGID_2_)">
				<g display="inline">
					<path fill="#9A3D58" d="M68.159,29.18c-0.364,2.666-7.425,3.527-9.435,3.938c-6.816,1.394-13.881,1.702-20.817,1.821
						c-7.318,0.125-14.685-0.275-21.926-1.348c-2.528-0.375-10.891-1.105-12.087-4.02c-0.621-1.512,9.828-3.613,10.703-3.774
						C21.625,24.502,28.87,24.248,36,24.208c7.15-0.041,14.346,0.421,21.402,1.588c2.149,0.355,10.363,1.305,10.757,4.182
						c0.261,1.909,3.149,1.093,2.893-0.798c-0.497-3.646-6.293-4.801-9.079-5.506C53.576,21.552,44.609,21.257,36,21.208
						c-8.669-0.049-17.501,0.542-25.973,2.467c-2.741,0.623-9.133,2.042-9.133,5.905c0,3.575,5.437,4.895,8.013,5.621
						c8.075,2.277,16.858,2.596,25.186,2.738c8.908,0.151,17.947-0.398,26.688-2.186c2.969-0.607,9.732-1.842,10.271-5.776
						C71.311,28.087,68.42,27.271,68.159,29.18z"/>
					<path fill="#9A3D58" d="M1.333,30.64c5.206,6.275,10.412,12.549,15.618,18.825c1.309,1.577,2.445,1.328,4.418,1.328
						c4.694,0,9.388,0,14.083,0c4.954,0,9.907,0,14.862,0c1.5,0,4.078,0.563,5.14-0.788c5.069-6.455,10.142-12.909,15.212-19.365
						c1.182-1.503-0.928-3.642-2.121-2.121c-4.816,6.132-9.634,12.263-14.449,18.395c-0.305,0.387-0.609,0.773-0.912,1.161
						c-0.398,0.508,1.537-0.281,0.621-0.281c-1.164,0-2.326,0-3.49,0c-4.627,0-9.254,0-13.879,0c-4.627,0-9.253,0-13.88,0
						c-1.164,0-2.327,0-3.49,0c-0.918,0,1.027,0.779,0.621,0.289c-0.306-0.368-0.612-0.737-0.917-1.104
						c-5.105-6.155-10.21-12.308-15.314-18.459C2.218,27.028,0.108,29.163,1.333,30.64L1.333,30.64z"/>
				</g>
			</g>
			<g display="none" clip-path="url(#SVGID_2_)">
				<g display="inline">
					<path fill="#9A3D58" d="M63.105,13.539c0,15.082,0,30.163,0,45.245c0.5-0.5,1-1,1.5-1.5c-8.207,0-16.601,1.513-24.756,2.329
						c-8.747,0.875-17.493,1.75-26.239,2.627c0.5,0.5,1,1,1.5,1.5c0-9.891,0-19.78,0-29.67c0-4.744,0-9.487,0-14.231
						c0-3.058-4.81-5.547-6.907-7.36C6.748,11.22,4.617,13.333,6.083,14.6c2.382,2.06,5.312,6.274,8.715,5.9
						c5.334-0.585,10.669-1.169,16.003-1.754c11.268-1.235,22.537-2.471,33.805-3.707c1.226-0.134,2.082-1.567,1.061-2.561
						c-2.152-2.096-4.666-6.262-7.95-5.907C52.218,7.166,46.721,7.76,41.223,8.354c-11.36,1.228-22.719,2.456-34.078,3.684
						c-0.813,0.088-1.5,0.616-1.5,1.5c0,9.891,0,19.781,0,29.672c0,4.744,0,9.488,0,14.231c0,3.059,4.81,5.545,6.907,7.356
						c1.456,1.259,3.587-0.854,2.121-2.121c-1.669-1.442-3.338-2.885-5.007-4.325C8.42,57.273,8.645,56.9,8.645,58.033
						c0-0.414,0-0.828,0-1.242c0-4.846,0-9.689,0-14.536c0-9.573,0-19.145,0-28.717c-0.5,0.5-1,1-1.5,1.5
						c10.408-1.125,20.816-2.25,31.225-3.376c5.922-0.64,11.843-1.28,17.765-1.92c0.627-0.067,1.254-0.135,1.879-0.203
						c1.205-0.13,0.541,0.201-0.113-0.437c1.883,1.833,3.765,3.665,5.646,5.497c0.354-0.854,0.707-1.707,1.061-2.561
						c-10.308,1.13-20.615,2.26-30.923,3.391c-5.749,0.63-11.498,1.261-17.246,1.891c-0.648,0.071-1.296,0.142-1.944,0.213
						c-1.17,0.128-0.675-0.203,0.071,0.442c-2.119-1.833-4.239-3.665-6.358-5.497c-1.456-1.259-3.587,0.854-2.121,2.121
						c1.669,1.443,3.338,2.886,5.007,4.329c1.246,1.077,1.021,1.452,1.021,0.318c0,0.414,0,0.828,0,1.242c0,4.845,0,9.69,0,14.536
						c0,9.572,0,19.144,0,28.715c0,0.756,0.685,1.581,1.5,1.5c8.746-0.876,17.492-1.751,26.237-2.628
						c8.156-0.815,16.549-2.328,24.758-2.328c0.816,0,1.5-0.684,1.5-1.5c0-15.082,0-30.163,0-45.245
						C66.105,11.604,63.105,11.604,63.105,13.539L63.105,13.539z"/>
					<path fill="#9A3D58" d="M63.745,32.539c-7.884,2.134-14.8,5.747-21.271,10.72c-5.638,4.334-10.532,8.827-12.368,15.858
						c-0.49,1.873,2.404,2.668,2.893,0.797c3.319-12.707,19.79-21.301,31.542-24.482C66.407,34.927,65.615,32.033,63.745,32.539
						L63.745,32.539z"/>
					<path fill="#9A3D58" d="M53.424,36.304c-4.611,2.395-9.122,6.252-11.345,11.004c-2.574,5.508,0.05,11.043,6.401,10.604
						c4.877-0.336,11.744-4.519,10.666-10.075c-1.086-5.607-9.217-0.313-9.267,3.619c-0.024,1.936,2.976,1.934,3,0
						c0.03-2.359,4.552-3.938,3.079-0.958c-0.754,1.524-2.627,2.51-4.048,3.285c-3.683,2.01-8.697,1.495-7.604-3.808
						c1-4.853,6.476-8.926,10.631-11.084C56.654,38.003,55.139,35.414,53.424,36.304L53.424,36.304z"/>
				</g>
			</g>
			<line clip-path="url(#SVGID_2_)" fill="none" x1="0.224" y1="0" x2="71.527" y2="0"/>
			<line clip-path="url(#SVGID_2_)" fill="none" x1="0.224" y1="71.688" x2="71.527" y2="71.688"/>
			<g clip-path="url(#SVGID_2_)">
				<g>
					<path fill="#9A3D58" d="M68.833,25.158c-11.593,1.4-23.187,2.8-34.779,4.2c-6.539,0.79-13.078,1.579-19.616,2.369
						c-0.791,0.096-1.582,0.191-2.373,0.287c-1.259,0.152-0.906-0.213-0.079,0.481c-2.252-1.89-4.505-3.781-6.758-5.671
						c-0.354,0.854-0.707,1.707-1.061,2.561c11.571-1.398,23.142-2.796,34.713-4.194c6.08-0.735,12.161-1.469,18.242-2.204
						c0.526-0.063,1.055-0.127,1.582-0.191c0.435-0.053,0.022,0.08-0.449-0.176c0.431,0.233,0.86,0.467,1.29,0.701
						c2.844,1.545,5.688,3.089,8.531,4.634c1.699,0.923,3.214-1.667,1.514-2.591c-3.035-1.648-7.927-5.925-11.494-5.495
						c-5.772,0.698-11.547,1.395-17.32,2.093C28.572,23.435,16.37,24.91,4.167,26.384C3.025,26.522,1.981,28,3.106,28.944
						c2.849,2.39,5.674,6.465,9.609,5.99c6.156-0.743,12.313-1.487,18.469-2.23c12.55-1.516,25.099-3.031,37.648-4.546
						C70.729,27.929,70.751,24.927,68.833,25.158z"/>
					<path fill="#9A3D58" d="M5.667,44.662c0-5.594,0-11.186,0-16.778c0-1.935-3-1.935-3,0c0,5.593,0,11.187,0,16.778
						C2.667,46.598,5.667,46.598,5.667,44.662L5.667,44.662z"/>
					<path fill="#9A3D58" d="M12.402,50.417c0.041-5.593,0.082-11.187,0.123-16.778c0.014-1.935-2.986-1.934-3,0
						c-0.041,5.593-0.082,11.186-0.123,16.778C9.388,52.354,12.388,52.352,12.402,50.417L12.402,50.417z"/>
					<path fill="#9A3D58" d="M11.963,49.355c-2.245-1.918-4.49-3.836-6.735-5.754c-1.462-1.25-3.594,0.861-2.121,2.121
						c2.245,1.918,4.49,3.836,6.735,5.754C11.304,52.727,13.436,50.615,11.963,49.355L11.963,49.355z"/>
					<path fill="#9A3D58" d="M11.301,51.863c18.942-3.186,37.885-6.368,56.828-9.553c1.905-0.32,1.096-3.211-0.797-2.894
						c-18.943,3.185-37.886,6.368-56.829,9.554C8.599,49.291,9.409,52.182,11.301,51.863L11.301,51.863z"/>
					<path fill="#9A3D58" d="M69.23,40.864c0.367-4.735,0.734-9.471,1.103-14.206c0.149-1.93-2.853-1.916-3,0
						c-0.367,4.735-0.735,9.471-1.103,14.206C66.081,42.795,69.082,42.779,69.23,40.864L69.23,40.864z"/>
					<path fill="#9A3D58" d="M8.156,40.766c1.388-1.918,2.776-3.838,4.165-5.758c1.136-1.57-1.468-3.065-2.591-1.514
						c-1.388,1.919-2.776,3.838-4.165,5.758C4.43,40.822,7.034,42.316,8.156,40.766L8.156,40.766z"/>
					<path fill="#9A3D58" d="M12.349,50.02c-1.347-3.471-2.694-6.939-4.042-10.408c-0.692-1.783-3.594-1.01-2.893,0.797
						c1.347,3.47,2.694,6.939,4.042,10.408C10.148,52.6,13.05,51.824,12.349,50.02L12.349,50.02z"/>
				</g>
			</g>
		</g>
	</g>
</g>
<g id="Layer_2_1_">
	<g>
		<g>
			<path fill="#9A3D58" d="M31.444,38.093c-0.378,2.741-3.224,4.18-5.036,1.772c-0.18,0.684-0.359,1.368-0.539,2.052
				c2.386-1.392,4.998-2.107,7.559-3.091c-0.615-0.349-1.23-0.698-1.845-1.048c0.046,0.186,0.092,0.371,0.139,0.557
				c0.182,0.731,1.096,1.343,1.845,1.048c3.472-1.367,19.173-7.279,13.767-13.085c-4.121-4.425-14.004,8.218-16.018,10.882
				c0.786-0.102,1.571-0.202,2.356-0.304c-1.464-1.324-2.36-2.534-4.497-2.306c-2.299,0.246-3.86,2.636-4.353,4.681
				c-0.453,1.88,2.439,2.678,2.893,0.797c0.628-2.606,2.321-2.42,3.836-1.051c0.778,0.704,1.759,0.486,2.356-0.304
				c2.682-3.548,6.13-7.225,9.921-9.564c1.96-1.21,1.157,0.444,0.153,1.383c-1.188,1.111-2.723,1.913-4.132,2.701
				c-2.266,1.268-4.667,2.327-7.081,3.277c0.615,0.349,1.23,0.698,1.845,1.048c-0.046-0.186-0.092-0.371-0.139-0.557
				c-0.183-0.736-1.094-1.336-1.845-1.048c-2.818,1.082-5.654,1.864-8.275,3.394c-0.645,0.376-1.031,1.397-0.539,2.052
				c1.442,1.916,2.583,3.062,5.162,2.78c2.706-0.295,4.994-2.635,5.357-5.27C34.598,36.999,31.707,36.183,31.444,38.093
				L31.444,38.093z"/>
		</g>
	</g>
</g>
<g id="Layer_3_1_" display="none">
	<line display="inline" fill="none" stroke="#9A3D58" stroke-miterlimit="10" x1="18" y1="18" x2="54" y2="18"/>
</g>
</svg>
