<!-- Generated by IcoMoon.io -->
<svg version="1.1" xmlns="http://www.w3.org/2000/svg" width="72" height="72" viewBox="0 0 72 72">
<title>SUGAR</title>
<path d="M46.482 48.92c-3.588-0.052-7.176-0.103-10.764-0.154 0.5 0.5 1 1 1.5 1.5 0.048-3.367 0.096-6.733 0.145-10.101-0.5 0.5-1 1-1.5 1.5 3.588 0.052 7.176 0.104 10.764 0.156-0.5-0.5-1-1-1.5-1.5-0.049 3.366-0.096 6.732-0.145 10.099-0.029 1.936 2.971 1.933 3 0 0.049-3.366 0.096-6.732 0.145-10.099 0.012-0.826-0.691-1.488-1.5-1.5-3.588-0.052-7.176-0.104-10.764-0.156-0.827-0.012-1.488 0.691-1.5 1.5-0.048 3.367-0.097 6.733-0.145 10.101-0.012 0.826 0.691 1.488 1.5 1.5 3.588 0.052 7.176 0.103 10.764 0.154 1.936 0.027 1.932-2.973 0-3zM40.209 36.112c3.588 0.052 7.176 0.104 10.764 0.155-0.5-0.5-1-1-1.5-1.5-0.049 3.365-0.098 6.731-0.145 10.097-0.027 1.936 2.973 1.933 3 0 0.047-3.365 0.096-6.731 0.145-10.097 0.012-0.826-0.691-1.488-1.5-1.5-3.588-0.052-7.176-0.104-10.764-0.155-1.936-0.028-1.934 2.972 0 3v0zM39.148 33.552c-1.449 1.851-2.897 3.702-4.346 5.553-0.503 0.644-0.63 1.491 0 2.121 0.525 0.525 1.616 0.646 2.121 0 1.449-1.851 2.896-3.702 4.346-5.553 0.503-0.644 0.63-1.491 0-2.121-0.525-0.526-1.617-0.646-2.121 0v0zM49.912 33.707c-1.449 1.852-2.896 3.702-4.346 5.554-0.502 0.644-0.631 1.491 0 2.121 0.525 0.525 1.617 0.646 2.121 0 1.449-1.852 2.896-3.702 4.346-5.554 0.504-0.644 0.631-1.491 0-2.121-0.525-0.525-1.617-0.645-2.121 0v0zM49.768 43.804c-1.449 1.852-2.898 3.704-4.346 5.556-0.504 0.644-0.631 1.491 0 2.121 0.525 0.525 1.615 0.646 2.121 0 1.447-1.852 2.896-3.704 4.346-5.556 0.502-0.644 0.631-1.491 0-2.121-0.526-0.526-1.618-0.646-2.121 0v0zM27.748 48.65c-3.588-0.052-7.176-0.103-10.764-0.154 0.5 0.5 1 1 1.5 1.5 0.048-3.366 0.096-6.733 0.145-10.1-0.5 0.5-1 1-1.5 1.5 3.588 0.052 7.176 0.104 10.764 0.156-0.5-0.5-1-1-1.5-1.5-0.048 3.366-0.096 6.731-0.145 10.098-0.028 1.936 2.972 1.933 3 0 0.048-3.366 0.096-6.731 0.145-10.098 0.012-0.826-0.691-1.488-1.5-1.5-3.588-0.052-7.176-0.104-10.764-0.156-0.827-0.012-1.488 0.691-1.5 1.5-0.048 3.366-0.096 6.733-0.145 10.1-0.012 0.826 0.691 1.488 1.5 1.5 3.588 0.052 7.176 0.103 10.764 0.154 1.936 0.028 1.933-2.972 0-3zM20.414 33.286c-1.449 1.85-2.897 3.7-4.346 5.55-0.504 0.643-0.63 1.491 0 2.121 0.525 0.525 1.616 0.646 2.121 0 1.449-1.85 2.897-3.7 4.346-5.55 0.504-0.643 0.63-1.491 0-2.121-0.526-0.525-1.617-0.645-2.121 0v0zM29.004 36.217c-0.724 0.925-1.448 1.851-2.172 2.775-0.503 0.644-0.63 1.491 0 2.121 0.525 0.525 1.616 0.646 2.121 0 0.724-0.925 1.448-1.851 2.172-2.775 0.503-0.644 0.63-1.491 0-2.121-0.525-0.526-1.616-0.646-2.121 0v0zM31.034 43.537c-1.449 1.851-2.897 3.702-4.346 5.553-0.503 0.644-0.63 1.491 0 2.121 0.525 0.525 1.616 0.646 2.121 0 1.449-1.851 2.897-3.702 4.346-5.553 0.503-0.644 0.63-1.491 0-2.121-0.526-0.525-1.616-0.645-2.121 0v0zM37.541 35.882c-3.588-0.051-7.177-0.101-10.765-0.151 0.5 0.5 1 1 1.5 1.5 0.048-3.366 0.096-6.731 0.145-10.098-0.5 0.5-1 1-1.5 1.5 3.588 0.051 7.176 0.102 10.764 0.152-0.5-0.5-1-1-1.5-1.5-0.048 3.365-0.096 6.731-0.144 10.097-0.028 1.936 2.973 1.933 3 0 0.047-3.365 0.096-6.731 0.144-10.097 0.012-0.826-0.691-1.489-1.5-1.5-3.588-0.051-7.176-0.102-10.764-0.152-0.827-0.012-1.488 0.691-1.5 1.5-0.048 3.366-0.096 6.731-0.145 10.098-0.012 0.826 0.691 1.488 1.5 1.5 3.588 0.051 7.176 0.101 10.765 0.151 1.936 0.027 1.933-2.973 0-3zM31.267 23.079c3.588 0.051 7.177 0.102 10.765 0.153-0.5-0.5-1-1-1.5-1.5-0.049 3.366-0.097 6.732-0.145 10.099-0.028 1.936 2.972 1.933 3 0 0.048-3.366 0.096-6.732 0.145-10.099 0.012-0.827-0.691-1.488-1.5-1.5-3.588-0.051-7.177-0.102-10.765-0.153-1.936-0.027-1.934 2.973 0 3v0zM30.206 20.519c-1.449 1.851-2.897 3.702-4.346 5.554-0.503 0.643-0.63 1.491 0 2.121 0.525 0.525 1.616 0.645 2.121 0 1.449-1.851 2.897-3.702 4.346-5.554 0.503-0.643 0.63-1.491 0-2.121-0.525-0.526-1.616-0.645-2.121 0v0zM40.971 20.672c-1.449 1.851-2.898 3.702-4.347 5.553-0.503 0.643-0.63 1.491 0 2.121 0.525 0.525 1.616 0.645 2.121 0 1.448-1.851 2.897-3.702 4.347-5.553 0.503-0.643 0.629-1.491 0-2.121-0.526-0.526-1.617-0.645-2.121 0v0zM40.826 30.771c-1.449 1.851-2.898 3.7-4.346 5.551-0.503 0.643-0.63 1.491 0 2.121 0.526 0.525 1.616 0.646 2.122 0 1.448-1.851 2.896-3.7 4.346-5.551 0.503-0.643 0.63-1.491 0-2.121-0.526-0.526-1.618-0.646-2.122 0v0zM21.474 35.847c1.78 0.075 3.56 0.149 5.34 0.225 1.935 0.081 1.927-2.919 0-3-1.78-0.075-3.56-0.149-5.34-0.225-1.935-0.081-1.927 2.919 0 3v0zM33.594 44.598c0.034-2.38 0.068-4.761 0.102-7.141 0.028-1.936-2.972-1.933-3 0-0.034 2.38-0.068 4.761-0.102 7.141-0.028 1.935 2.972 1.932 3 0v0z"></path>
</svg>
