<?xml version="1.0" encoding="utf-8"?>
<!-- Generator: Adobe Illustrator 16.0.0, SVG Export Plug-In . SVG Version: 6.00 Build 0)  -->
<!DOCTYPE svg PUBLIC "-//W3C//DTD SVG 1.1//EN" "http://www.w3.org/Graphics/SVG/1.1/DTD/svg11.dtd">
<svg version="1.1" id="Layer_1" xmlns="http://www.w3.org/2000/svg" xmlns:xlink="http://www.w3.org/1999/xlink" x="0px" y="0px"
	 width="223.488px" height="244.487px" viewBox="0 0 223.488 244.487" enable-background="new 0 0 223.488 244.487"
	 xml:space="preserve">
<image overflow="visible" width="617" height="546" xlink:href="E60896F4.jpg"  transform="matrix(1 0 0 1 -651.082 -262)">
</image>
<g>
	<g>
		<path d="M199.525,122.244c-0.388,48.29-41.891,86.197-89.943,82.722c-48.236-3.488-82.799-50.112-74.821-97.13
			c7.147-42.13,46.623-71.357,88.708-68.314C166.205,42.612,199.187,80.001,199.525,122.244c0.025,3.223,5.025,3.226,5,0
			c-0.358-44.65-34.065-82.113-78.32-87.458c-44.44-5.367-86.27,25.803-95.75,69.067c-9.566,43.656,16.731,87.858,58.634,102.026
			c42.488,14.367,89.909-7.654,107.985-48.184c4.975-11.153,7.354-23.266,7.451-35.451
			C204.551,119.018,199.551,119.021,199.525,122.244z"/>
	</g>
</g>
<g>
	<g>
		<path d="M225.418,23.394c-0.024,14.752-1.02,37.148,15.835,43.411c3.029,1.125,4.324-3.708,1.33-4.821
			c-13.928-5.175-12.185-26.708-12.165-38.589C230.423,20.169,225.423,20.169,225.418,23.394L225.418,23.394z"/>
	</g>
</g>
</svg>
