<!-- Generated by IcoMoon.io -->
<svg version="1.1" xmlns="http://www.w3.org/2000/svg" width="72" height="72" viewBox="0 0 72 72">
<title>uniF107</title>
<path d="M67.146 10.965c9.791 16.711 1.193 40.010-19.164 51.938-10.35 6.063-19.66 9.098-27.695 9.098-7.581 0-14.022-2.702-19.129-8.107-0.24-0.253-0.365-0.594-0.347-0.943 0.095-1.818 1.005-4.518 2.914-4.449 0.796 0.022 1.331 0.577 2.007 1.281 1.251 1.303 2.435 2.345 4.146 1.952 2.488-0.571 4.81-1.312 7.101-2.263 5.155-2.142 10.059-5.307 16.301-9.722 16.516-11.68 25.944-25.339 25.867-37.478-0.002-0.465-0.218-1.095-0.427-1.705-0.059-0.171-0.118-0.342-0.171-0.511l-3.301-6.341c-0.303-0.581-0.117-1.296 0.429-1.657l2.801-1.847c0.289-0.189 0.64-0.255 0.975-0.181 0.337 0.073 0.628 0.279 0.812 0.57l3.892 6.209c1.183 1.381 2.161 2.741 2.989 4.155zM17.959 61.831c-0.922 0.383-1.853 0.724-2.793 1.045 8.872 0.1 22.974-4.167 37.931-20.699 6.505-7.19 10.906-18.162 8.553-28.666-0.531 12.654-10.239 26.545-26.897 38.325-6.384 4.515-11.421 7.762-16.794 9.995zM46.69 60.698c19.142-11.215 27.331-32.947 18.25-48.444-0.504-0.863-1.082-1.706-1.731-2.552 4.367 12.329-0.553 25.714-8.22 34.187-16.359 18.082-30.771 21.474-39.281 21.474-4.819 0-7.746-1.087-8.061-1.211l0.006-0.015c-1.733-0.51-2.985-1.773-3.764-2.585-0.047-0.050-0.098-0.102-0.151-0.156-0.124 0.295-0.248 0.706-0.321 1.16 12.137 12.286 30.192 5.804 43.272-1.859z"></path>
</svg>
