<!-- Generated by IcoMoon.io -->
<svg version="1.1" xmlns="http://www.w3.org/2000/svg" width="72" height="72" viewBox="0 0 72 72">
<title>uniF13C</title>
<path d="M20.685 32.284c0.648-0.184 1.32 0.207 1.495 0.858 0.175 0.65-0.208 1.319-0.858 1.494l-5.261 1.423c-0.107 0.029-0.215 0.043-0.319 0.043-0.537 0-1.028-0.357-1.176-0.9-0.176-0.65 0.208-1.319 0.858-1.494zM35.413 42.852c0.639 0.212 0.983 0.903 0.77 1.542-0.171 0.511-0.646 0.834-1.156 0.834-0.127 0-0.257-0.021-0.385-0.063l-3.656-1.219c-0.639-0.212-0.983-0.903-0.77-1.542s0.902-0.986 1.542-0.77zM58.587 29.177c0.673 0 1.219 0.545 1.219 1.219v4.874c0 0.674-0.546 1.219-1.219 1.219s-1.219-0.545-1.219-1.219v-4.874c0-0.674 0.546-1.219 1.219-1.219zM28.93 16.11l-2.576-2.867c-0.45-0.5-0.409-1.271 0.091-1.721 0.501-0.449 1.271-0.407 1.721 0.093l2.576 2.867c0.45 0.5 0.41 1.271-0.091 1.721-0.233 0.208-0.524 0.312-0.814 0.312-0.334 0-0.667-0.136-0.907-0.405zM57.267 22.532c-0.639-0.211-0.983-0.902-0.77-1.542 0.213-0.639 0.902-0.987 1.542-0.77l3.656 1.219c0.639 0.212 0.983 0.903 0.77 1.542-0.171 0.511-0.646 0.834-1.156 0.834-0.127 0-0.257-0.021-0.385-0.063zM44.494 37.644c0.671 0.039 1.183 0.617 1.143 1.289l-0.102 1.719c-0.038 0.647-0.575 1.146-1.215 1.146-0.024 0-0.049-0.001-0.074-0.002-0.672-0.040-1.183-0.617-1.143-1.289l0.102-1.719c0.040-0.671 0.603-1.193 1.289-1.143zM53.054 44.261l-1.219-1.219c-0.476-0.477-0.476-1.247 0-1.723s1.247-0.476 1.723 0l1.219 1.219c0.477 0.476 0.477 1.247 0 1.723-0.238 0.238-0.55 0.357-0.861 0.357s-0.624-0.119-0.862-0.357zM19.234 41.927l1.219 1.219c0.476 0.476 0.476 1.247 0 1.723-0.238 0.238-0.55 0.357-0.862 0.357s-0.624-0.119-0.862-0.357l-1.219-1.219c-0.477-0.476-0.477-1.247 0-1.723s1.247-0.476 1.723 0zM53.951 17.77c-0.647 0-1.187-0.511-1.216-1.165l-0.076-1.722c-0.029-0.673 0.491-1.242 1.164-1.271 0.661-0.034 1.242 0.49 1.271 1.164l0.076 1.722c0.029 0.673-0.491 1.242-1.164 1.271-0.018 0.001-0.037 0.001-0.055 0.001zM16.317 24.125c-0.546 0-1.043-0.369-1.181-0.924l-1.219-4.874c-0.162-0.652 0.234-1.314 0.887-1.477 0.651-0.162 1.315 0.233 1.478 0.887l1.219 4.874c0.162 0.652-0.234 1.314-0.887 1.477-0.1 0.024-0.199 0.037-0.297 0.037zM10.095 27.583l1.219 1.219c0.476 0.476 0.476 1.247 0 1.723-0.238 0.238-0.55 0.357-0.862 0.357s-0.624-0.119-0.862-0.357l-1.219-1.219c-0.477-0.476-0.477-1.247 0-1.723s1.247-0.477 1.723 0zM44.726 17.16l-1.219-1.219c-0.476-0.476-0.476-1.247 0-1.723s1.247-0.476 1.723 0l1.219 1.219c0.477 0.476 0.477 1.247 0 1.723-0.238 0.238-0.55 0.357-0.861 0.357s-0.624-0.119-0.862-0.357zM71.994 33.419c0.004 0.278 0.002 0.558-0.001 0.851l0.006 7.249c0 14.091-16.172 25.553-36.051 25.553-20.096 0-35.837-11.008-35.837-25.058l-0.006-3.447c-0.002-0.044-0.013-0.086-0.013-0.132 0 0-0.094-6.906-0.094-7.921 0-14.11 16.127-25.591 35.949-25.591 0.617 0 1.229 0.011 1.839 0.033 0.18 0.007 0.358 0.021 0.539 0.029 0.427 0.019 0.853 0.039 1.275 0.069 0.235 0.017 0.468 0.043 0.702 0.063 0.362 0.032 0.726 0.060 1.084 0.099 0.257 0.028 0.511 0.065 0.767 0.096 0.332 0.041 0.665 0.079 0.993 0.127 0.262 0.038 0.519 0.084 0.78 0.127 0.316 0.051 0.635 0.099 0.948 0.156 0.266 0.049 0.526 0.106 0.79 0.158 0.302 0.061 0.607 0.118 0.907 0.184 0.271 0.060 0.535 0.127 0.803 0.191 0.286 0.069 0.574 0.134 0.857 0.207 0.269 0.069 0.532 0.147 0.798 0.222 0.277 0.077 0.556 0.151 0.829 0.233 0.264 0.079 0.523 0.166 0.785 0.25 0.266 0.085 0.534 0.168 0.797 0.257 0.263 0.090 0.522 0.188 0.782 0.283 0.253 0.093 0.509 0.182 0.76 0.278 0.26 0.1 0.512 0.207 0.766 0.311 0.245 0.1 0.491 0.196 0.732 0.3 0.255 0.11 0.503 0.225 0.754 0.34 0.234 0.106 0.469 0.21 0.698 0.319 0.249 0.119 0.49 0.244 0.734 0.367 0.224 0.113 0.451 0.223 0.671 0.34 0.243 0.129 0.479 0.263 0.717 0.396 0.213 0.118 0.428 0.234 0.636 0.356 0.235 0.136 0.464 0.28 0.695 0.422 0.204 0.126 0.409 0.247 0.608 0.375 0.224 0.144 0.442 0.294 0.662 0.442 0.196 0.132 0.394 0.262 0.585 0.397 0.216 0.152 0.424 0.31 0.635 0.466 0.185 0.138 0.373 0.274 0.555 0.414 0.206 0.16 0.403 0.324 0.603 0.487 0.177 0.144 0.356 0.286 0.528 0.433 0.195 0.167 0.381 0.338 0.57 0.507 0.167 0.15 0.336 0.299 0.499 0.451 0.184 0.173 0.361 0.351 0.539 0.528 0.156 0.155 0.313 0.307 0.464 0.464 0.173 0.179 0.339 0.363 0.506 0.547 0.146 0.161 0.294 0.321 0.435 0.483 0.158 0.184 0.311 0.371 0.463 0.558 0.138 0.168 0.277 0.334 0.408 0.505 0.146 0.189 0.284 0.38 0.423 0.57 0.127 0.174 0.256 0.347 0.378 0.524 0.133 0.194 0.257 0.389 0.384 0.585 0.116 0.179 0.233 0.357 0.342 0.539 0.121 0.198 0.232 0.399 0.345 0.598 0.104 0.184 0.208 0.368 0.307 0.554 0.106 0.201 0.204 0.403 0.302 0.607 0.093 0.191 0.186 0.38 0.273 0.573 0.091 0.204 0.175 0.41 0.26 0.615 0.081 0.195 0.161 0.391 0.235 0.589 0.077 0.206 0.146 0.414 0.216 0.623 0.068 0.201 0.136 0.402 0.198 0.606 0.062 0.208 0.117 0.418 0.172 0.629 0.054 0.207 0.108 0.413 0.156 0.621 0.048 0.21 0.088 0.42 0.128 0.633 0.040 0.213 0.082 0.425 0.115 0.64 0.033 0.21 0.057 0.422 0.083 0.634 0.027 0.218 0.052 0.436 0.071 0.656 0.017 0.211 0.028 0.424 0.038 0.636 0.007 0.149 0.023 0.295 0.027 0.444 0.063 0.139 0.099 0.29 0.099 0.449zM69.46 30.516c0-12.766-15.033-23.153-33.513-23.152-18.426 0-33.418 10.386-33.418 23.153 0 0 0.007 4.589 0.013 7.971 0.034 0.314 0.288 0.559 0.596 0.559 0.301 0 0.564-0.239 0.597-0.545 0.052-0.476 0.378-0.877 0.832-1.026 0.455-0.148 0.954-0.017 1.277 0.334 0.206 0.224 0.34 0.54 0.34 0.845v5.875c0 0.33 0.279 0.609 0.609 0.609s0.609-0.279 0.609-0.609c0-0.674 0.546-1.219 1.219-1.219s1.219 0.545 1.219 1.219v4.874c0 0.33 0.279 0.609 0.609 0.609s0.609-0.279 0.609-0.609v-2.437c0-0.674 0.546-1.219 1.219-1.219s1.219 0.545 1.219 1.219c0 0.33 0.279 0.609 0.609 0.609s0.609-0.279 0.609-0.609c0-0.674 0.546-1.219 1.219-1.219s1.219 0.545 1.219 1.219v6.093c0 0.33 0.279 0.609 0.609 0.609s0.609-0.279 0.609-0.609v-2.437c0-0.674 0.546-1.219 1.219-1.219s1.219 0.545 1.219 1.219c0 0.33 0.279 0.609 0.609 0.609s0.609-0.279 0.609-0.609c0-0.674 0.546-1.219 1.219-1.219s1.219 0.545 1.219 1.219v4.265c0 0.673 0.547 1.219 1.219 1.219s1.219-0.546 1.219-1.219v-1.828c0-0.674 0.546-1.219 1.219-1.219s1.219 0.545 1.219 1.219c0 0.33 0.279 0.609 0.609 0.609s0.609-0.279 0.609-0.609c0-0.674 0.546-1.219 1.219-1.219s1.219 0.545 1.219 1.219v4.265c0 0.673 0.547 1.219 1.219 1.219s1.219-0.546 1.219-1.219v-4.874c0-0.674 0.546-1.219 1.219-1.219s1.219 0.545 1.219 1.219c0 0.673 0.547 1.219 1.219 1.219s1.219-0.546 1.219-1.219c0-0.674 0.546-1.219 1.219-1.219s1.219 0.545 1.219 1.219v1.828c0 0.33 0.279 0.609 0.609 0.609s0.609-0.279 0.609-0.609v-4.265c0-0.674 0.546-1.219 1.219-1.219s1.219 0.545 1.219 1.219c0 0.673 0.547 1.219 1.219 1.219s1.219-0.546 1.219-1.219c0-0.674 0.546-1.219 1.219-1.219s1.219 0.545 1.219 1.219v4.265c0 0.33 0.279 0.609 0.609 0.609s0.609-0.279 0.609-0.609v-6.093c0-0.674 0.546-1.219 1.219-1.219s1.219 0.545 1.219 1.219c0 0.33 0.279 0.609 0.609 0.609s0.609-0.279 0.609-0.609c0-0.674 0.546-1.219 1.219-1.219s1.219 0.545 1.219 1.219v1.219c0 0.33 0.279 0.609 0.609 0.609s0.609-0.279 0.609-0.609v-4.874c0-0.674 0.546-1.219 1.219-1.219s1.219 0.545 1.219 1.219c0 0.33 0.279 0.609 0.609 0.609s0.609-0.279 0.609-0.609v-3.656c0-0.674 0.546-1.219 1.219-1.219s1.219 0.545 1.219 1.219c0 0.173 0.072 0.34 0.199 0.462 0.074 0.072 0.221 0.136 0.363 0.149 0.647-0.027 1.147-0.253 1.571-0.715 1.231-1.34 1.505-4.244 1.527-6.589v-0.72c-0.009-0.788-0.040-1.477-0.062-1.966-0.019-0.419-0.034-0.754-0.034-0.978zM35.949 64.637c17.963 0 32.682-9.74 33.571-21.946-0.818 0.756-1.806 1.182-2.965 1.227-0.227 0.004-0.445-0.007-0.658-0.049v0.659c0 1.68-1.367 3.046-3.047 3.046-0.208 0-0.412-0.022-0.609-0.061v1.889c0 1.68-1.367 3.046-3.047 3.046-1.081 0-2.033-0.567-2.574-1.417-0.52 0.199-1.136 0.249-1.691 0.138v3.107c0 1.68-1.367 3.047-3.047 3.047s-3.046-1.366-3.046-3.047v-0.818c-0.763 0.269-1.674 0.269-2.437 0v0.818c0 1.68-1.367 3.047-3.047 3.047-1.15 0-2.154-0.642-2.672-1.584-0.842 0.409-1.921 0.472-2.811 0.157v1.427c0 2.016-1.64 3.656-3.656 3.656s-3.656-1.64-3.656-3.656v-1.279c-0.452 0.090-0.95 0.078-1.393-0.041-0.473 1.472-1.855 2.54-3.482 2.54-2.016 0-3.656-1.64-3.656-3.656v-1.279c-0.409 0.082-0.859 0.078-1.266-0.011-0.255 1.425-1.503 2.509-2.999 2.509-1.679 0-3.046-1.366-3.046-3.047v-3.107c-0.41 0.081-0.858 0.078-1.266-0.011-0.255 1.425-1.503 2.509-2.999 2.509-1.679 0-3.046-1.366-3.046-3.046v-1.889c-0.198 0.039-0.401 0.061-0.609 0.061-1.679 0-3.046-1.366-3.046-3.047v-3.109c-0.197 0.040-0.401 0.062-0.609 0.062-0.202 0-0.4-0.022-0.591-0.060 0.001 0.367 0.001 0.593 0.001 0.593 0 12.686 14.671 22.621 33.399 22.621zM23.247 29.298c0-4.783 5.89-8.53 13.406-8.53s13.405 3.747 13.405 8.53c0 0.848-0.21 1.701-0.615 2.54-0.013 0.034-0.012 0.071-0.028 0.104-1.757 3.522-6.885 5.887-12.761 5.887s-11.004-2.365-12.761-5.887c-0.017-0.033-0.015-0.069-0.028-0.104-0.406-0.838-0.617-1.692-0.617-2.54zM26.831 31.957c1.841 2.068 5.631 3.434 9.822 3.434 4.188 0 7.978-1.367 9.821-3.434-0.029-0.011-0.060-0.019-0.089-0.030-0.647-0.239-1.317-0.45-2.002-0.639-0.098-0.027-0.193-0.057-0.291-0.083-0.685-0.179-1.388-0.33-2.102-0.458-0.14-0.026-0.28-0.050-0.42-0.073-0.716-0.117-1.444-0.212-2.184-0.277-0.121-0.011-0.243-0.017-0.364-0.027-0.781-0.058-1.57-0.098-2.368-0.098-0.799 0-1.588 0.038-2.368 0.098-0.121 0.010-0.244 0.016-0.364 0.027-0.74 0.065-1.467 0.16-2.184 0.277-0.141 0.023-0.28 0.048-0.42 0.073-0.715 0.128-1.418 0.278-2.103 0.458-0.098 0.026-0.193 0.056-0.29 0.083-0.685 0.189-1.355 0.398-2.003 0.639-0.029 0.011-0.060 0.019-0.089 0.030zM36.652 23.205c-5.946 0-10.967 2.791-10.965 6.094 0 0.157 0.012 0.313 0.038 0.472 0.011-0.005 0.022-0.007 0.033-0.011 0.745-0.286 1.516-0.535 2.304-0.758 0.118-0.033 0.235-0.069 0.355-0.101 0.764-0.206 1.546-0.381 2.343-0.528 0.144-0.027 0.286-0.051 0.43-0.076 0.805-0.136 1.622-0.246 2.453-0.322 0.117-0.011 0.235-0.016 0.353-0.026 0.876-0.069 1.761-0.113 2.656-0.113 0.897 0 1.782 0.044 2.658 0.113 0.118 0.010 0.236 0.015 0.353 0.026 0.831 0.076 1.649 0.185 2.454 0.322 0.143 0.024 0.285 0.049 0.428 0.074 0.798 0.146 1.581 0.322 2.346 0.528 0.117 0.032 0.233 0.067 0.35 0.1 0.79 0.224 1.563 0.474 2.309 0.76 0.010 0.004 0.021 0.006 0.031 0.010 0.026-0.158 0.038-0.314 0.038-0.472 0-3.302-5.023-6.093-10.967-6.093z"></path>
</svg>
