<!-- Generated by IcoMoon.io -->
<svg version="1.1" xmlns="http://www.w3.org/2000/svg" width="72" height="72" viewBox="0 0 72 72">
<title>uniF170</title>
<path d="M24.373 30.857c3.543 0 6.429 2.884 6.429 6.429s-2.884 6.429-6.429 6.429-6.429-2.884-6.429-6.429 2.884-6.429 6.429-6.429zM24.373 41.143c2.127 0 3.857-1.73 3.857-3.857s-1.731-3.857-3.857-3.857-3.857 1.731-3.857 3.857c0 2.127 1.731 3.857 3.857 3.857zM50.088 36c2.835 0 5.143 2.307 5.143 5.143s-2.307 5.143-5.143 5.143c-2.836 0-5.143-2.307-5.143-5.143s2.307-5.143 5.143-5.143zM50.088 43.714c1.418 0 2.571-1.153 2.571-2.571s-1.153-2.571-2.571-2.571c-1.418 0-2.571 1.153-2.571 2.571s1.153 2.571 2.571 2.571zM39.802 48.857c0 2.127-1.73 3.857-3.857 3.857s-3.857-1.731-3.857-3.857 1.73-3.857 3.857-3.857c2.127 0 3.857 1.731 3.857 3.857zM34.659 48.857c0 0.71 0.577 1.286 1.286 1.286s1.286-0.576 1.286-1.286-0.577-1.286-1.286-1.286c-0.708 0-1.286 0.576-1.286 1.286zM24.373 55.286c2.835 0 5.143 2.307 5.143 5.143s-2.307 5.143-5.143 5.143-5.143-2.307-5.143-5.143c0-2.836 2.307-5.143 5.143-5.143zM24.373 63c1.418 0 2.571-1.153 2.571-2.571s-1.153-2.571-2.571-2.571c-1.418 0-2.571 1.153-2.571 2.571s1.153 2.571 2.571 2.571zM50.088 55.286c2.127 0 3.857 1.731 3.857 3.857s-1.73 3.857-3.857 3.857c-2.127 0-3.857-1.731-3.857-3.857s1.73-3.857 3.857-3.857zM50.088 60.429c0.708 0 1.286-0.576 1.286-1.286s-0.577-1.286-1.286-1.286c-0.708 0-1.286 0.576-1.286 1.286s0.577 1.286 1.286 1.286zM35.028 37.623c-0.635-0.318-0.892-1.091-0.575-1.727s1.090-0.89 1.725-0.575l3.253 1.628c0.635 0.318 0.892 1.090 0.575 1.726-0.226 0.451-0.68 0.711-1.152 0.711-0.193 0-0.388-0.044-0.573-0.135zM47.516 52.714c-0.329 0-0.658-0.126-0.909-0.377l-2.571-2.571c-0.503-0.503-0.503-1.315 0-1.818s1.315-0.503 1.818 0l2.571 2.571c0.503 0.503 0.503 1.315 0 1.818-0.251 0.251-0.58 0.377-0.909 0.377zM38.548 59.919c0.675-0.225 1.401 0.14 1.626 0.813 0.225 0.675-0.139 1.403-0.813 1.626l-3.451 1.151c-0.135 0.045-0.273 0.067-0.406 0.067-0.539 0-1.040-0.341-1.22-0.879-0.225-0.675 0.139-1.403 0.813-1.627zM20.139 51.052c-0.252 0.251-0.58 0.377-0.909 0.377s-0.658-0.126-0.909-0.377c-0.503-0.503-0.503-1.315 0-1.818l2.571-2.571c0.503-0.503 1.315-0.503 1.818 0s0.503 1.315 0 1.818zM43.951 14.176c0.44 0.103 10.788 2.619 12.54 11.282 0.14 0.697-0.31 1.376-1.006 1.516-0.086 0.018-0.172 0.026-0.256 0.026-0.6 0-1.137-0.42-1.259-1.031-1.428-7.066-10.513-9.267-10.605-9.289-0.692-0.162-1.121-0.854-0.959-1.544 0.162-0.692 0.854-1.113 1.544-0.959zM55.935 14.188c2.958 1.405 7.010 3.327 7.008 10.374v33.498c0 7.687-6.252 13.94-13.938 13.94h-26.010c-7.686 0-13.94-6.252-13.938-13.938v-33.498c0-7.057 4.175-8.978 7.224-10.381 2.046-0.941 3.018-1.49 3.271-2.553h-0.154c-2.294 0-4.024-1.851-4.024-4.306v-3.019c0-2.454 1.729-4.305 4.024-4.305h33.093c2.294 0 4.024 1.851 4.024 4.305v3.018c0 0.301-0.027 0.591-0.077 0.872-0.017 0.098-0.051 0.186-0.075 0.282-0.042 0.176-0.082 0.355-0.144 0.521-0.040 0.107-0.095 0.203-0.143 0.305-0.066 0.141-0.127 0.284-0.206 0.415-0.062 0.103-0.138 0.193-0.208 0.289-0.082 0.113-0.162 0.23-0.256 0.334-0.082 0.091-0.177 0.17-0.267 0.252-0.098 0.090-0.193 0.183-0.3 0.262-0.102 0.076-0.212 0.136-0.32 0.202-0.112 0.067-0.22 0.136-0.338 0.192s-0.243 0.095-0.366 0.139c-0.122 0.044-0.243 0.087-0.37 0.118-0.131 0.031-0.268 0.049-0.404 0.067-0.090 0.013-0.174 0.038-0.266 0.045 0.261 1.143 1.297 1.687 3.16 2.571zM53.945 4.305c0-0.863-0.45-1.733-1.454-1.733h-2.404v6.485h0.050v-0.001h2.354c0.878 0 1.332-0.666 1.432-1.411 0.016-0.105 0.022-0.213 0.022-0.321v-3.019zM24.373 2.571v6.485h2.571v-6.485h-2.571zM29.516 2.571v6.485h2.571v-6.485h-2.571zM34.659 2.571v6.485h2.571v-6.485h-2.571zM39.802 2.571v6.485h2.571v-6.485h-2.571zM44.945 2.571v6.485h2.571v-6.485h-2.571zM17.945 4.305h-0.001v3.019c0 0.107 0.008 0.215 0.022 0.321 0.1 0.744 0.554 1.411 1.432 1.411h2.404v-6.484h-2.404c-1.003 0-1.453 0.87-1.453 1.733zM60.373 58.060h0.003v-15.070c0-3.308-1.309-6.398-3.684-8.699-2.399-2.329-5.559-3.578-8.929-3.448-6.512 0.194-11.316-1.635-13.078-2.434-0.389-0.177-0.786-0.351-1.191-0.489l-0.003-0.001c-2.628-0.906-5.412-1.534-8.275-1.867-0.468-0.054-0.936-0.081-1.401-0.081-2.975 0-5.873 1.089-8.115 3.087-2.587 2.305-4.071 5.615-4.071 9.078v19.923c0 6.268 5.099 11.368 11.367 11.368h26.010c6.268 0 11.367-5.1 11.367-11.368zM58.479 32.442c0.712 0.692 1.344 1.441 1.894 2.237v-10.117c0-5.422-2.691-6.7-5.54-8.052-2.044-0.971-4.316-2.084-4.632-4.883h-28.072c-0.324 2.808-2.665 3.921-4.772 4.89-2.946 1.356-5.728 2.636-5.728 8.046v5.292c0.672-0.987 1.452-1.907 2.359-2.715 3.14-2.799 7.343-4.127 11.523-3.641 3.047 0.354 6.013 1.024 8.817 1.99 0.481 0.165 0.953 0.368 1.416 0.577 1.248 0.567 5.786 2.411 11.938 2.205 4.044-0.072 7.894 1.356 10.799 4.172z"></path>
</svg>
