<!-- Generated by IcoMoon.io -->
<svg version="1.1" xmlns="http://www.w3.org/2000/svg" width="72" height="72" viewBox="0 0 72 72">
<title>uniF15C</title>
<path d="M17.453 55.463c0 2.065-1.68 3.745-3.746 3.745-0.741 0-1.345 0.604-1.345 1.345 0 2.066-1.68 3.746-3.745 3.746-0.741 0-1.345 0.604-1.345 1.345 0 0.663-0.536 1.2-1.2 1.2s-1.2-0.536-1.2-1.2c0-2.065 1.68-3.745 3.744-3.745 0.742 0 1.345-0.603 1.345-1.346 0-2.065 1.68-3.745 3.745-3.745 0.743 0 1.346-0.603 1.346-1.345 0-2.065 1.68-3.744 3.745-3.744 0.741 0 1.345-0.604 1.345-1.346 0-2.065 1.68-3.744 3.744-3.744 0.743 0 1.346-0.604 1.346-1.345 0-2.065 1.68-3.745 3.744-3.745 0.742 0 1.345-0.603 1.345-1.346 0-2.065 1.68-3.745 3.745-3.745 0.741 0 1.345-0.603 1.345-1.345 0-2.065 1.68-3.744 3.746-3.744 0.741 0 1.345-0.604 1.345-1.345 0-2.066 1.68-3.746 3.744-3.746 0.741 0 1.345-0.604 1.345-1.345 0-2.065 1.68-3.745 3.746-3.745 0.742 0 1.345-0.603 1.345-1.345 0-2.066 1.68-3.746 3.745-3.746 0.741 0 1.345-0.603 1.345-1.345 0-2.065 1.68-3.745 3.746-3.745 0.741 0 1.345-0.604 1.345-1.345 0-2.066 1.68-3.746 3.745-3.746 0.663 0 1.2 0.536 1.2 1.2s-0.536 1.2-1.2 1.2c-0.741 0-1.345 0.603-1.345 1.346 0 2.065-1.68 3.745-3.744 3.745-0.743 0-1.346 0.603-1.346 1.345 0 2.065-1.68 3.744-3.744 3.744-0.741 0-1.345 0.604-1.345 1.346 0 2.065-1.68 3.744-3.745 3.744-0.743 0-1.346 0.604-1.346 1.345 0 2.065-1.68 3.745-3.745 3.745-0.741 0-1.345 0.603-1.345 1.346 0 2.065-1.68 3.745-3.745 3.745-0.743 0-1.346 0.603-1.346 1.345 0 2.065-1.68 3.745-3.745 3.745-0.741 0-1.345 0.604-1.345 1.345 0 2.066-1.68 3.746-3.745 3.746-0.741 0-1.345 0.604-1.345 1.345 0 2.065-1.68 3.745-3.746 3.745-0.741 0-1.345 0.603-1.345 1.345 0 2.066-1.68 3.746-3.745 3.746-0.741 0-1.345 0.603-1.345 1.345zM70.729 14.873c0.23 0.408 5.496 10.109-7.257 22.863l-24.162 24.164c-6.904 6.902-12.913 8.526-17.038 8.526-3.496 0-5.637-1.165-5.824-1.271l-0.257-0.196c-0.086-0.086-0.146-0.189-0.217-0.287l-0.662 0.662c-1.775 1.776-4.107 2.662-6.437 2.662-2.331 0-4.664-0.888-6.438-2.662-3.028-3.361-3.15-8.865-0.418-12.367-0.244-0.113-0.473-0.256-0.667-0.45l-0.209-0.28c-0.217-0.406-5.181-10.060 7.422-22.989l24.448-24.449c12.888-12.889 22.614-7.651 23.020-7.419l0.262 0.198c0.187 0.188 0.324 0.405 0.437 0.636 3.573-3.085 8.989-2.943 12.379 0.449 1.713 1.712 2.656 3.999 2.656 6.437 0 1.897-0.577 3.698-1.638 5.212 0.142 0.089 0.282 0.182 0.403 0.304zM10.273 34.934c-10.293 10.56-7.794 18.348-7.136 19.901 0.288-0.013 1.011-0.198 1.745-0.931l48.8-48.8c0.735-0.734 0.939-1.47 0.92-1.758-1.517-0.68-9.344-3.397-19.891 7.15zM13.616 67.638l2.374-2.374c0.265-0.522 0.624-1.035 1.093-1.504l48.252-48.25c0.468-0.469 0.981-0.829 1.503-1.093l0.576-0.576c1.26-1.26 1.953-2.943 1.953-4.74s-0.693-3.481-1.953-4.74c-1.261-1.261-2.944-1.954-4.742-1.954-1.796 0-3.479 0.693-4.74 1.954l-53.798 53.798c-2.534 2.816-2.037 7.214 0.043 9.526 2.57 2.569 6.823 2.57 9.439-0.046zM61.777 36.038c10.439-10.44 7.664-18.246 6.984-19.74-0.1-0.016-0.292 0.025-0.517 0.107l-50.248 50.248c-0.082 0.227-0.122 0.423-0.113 0.536 1.497 0.682 9.298 3.447 19.732-6.987zM54.709 32.999c0-1.2 0.6-1.8 1.8-1.8s1.8 0.6 1.8 1.8c0 1.2-0.6 1.8-1.8 1.8s-1.8-0.6-1.8-1.8zM36.712 53.395c0-1.2 0.6-1.8 1.8-1.8s1.8 0.6 1.8 1.8c0 1.2-0.6 1.8-1.8 1.8s-1.8-0.6-1.8-1.8zM51.109 41.997c0-0.8 0.4-1.2 1.2-1.2s1.2 0.4 1.2 1.2c0 0.8-0.4 1.2-1.2 1.2s-1.2-0.4-1.2-1.2zM27.114 61.194c0-0.8 0.4-1.2 1.2-1.2s1.2 0.4 1.2 1.2c0 0.8-0.4 1.2-1.2 1.2s-1.2-0.4-1.2-1.2zM63.107 27.6c0-0.8 0.4-1.2 1.2-1.2s1.2 0.4 1.2 1.2c0 0.8-0.4 1.2-1.2 1.2s-1.2-0.4-1.2-1.2zM42.711 44.397c0-0.8 0.4-1.2 1.2-1.2s1.2 0.4 1.2 1.2c0 0.8-0.4 1.2-1.2 1.2s-1.2-0.4-1.2-1.2zM34.912 13.202c0-1.2 0.6-1.8 1.8-1.8s1.8 0.6 1.8 1.8-0.6 1.8-1.8 1.8c-1.2 0-1.8-0.6-1.8-1.8zM16.916 33.599c0-1.2 0.6-1.8 1.8-1.8s1.8 0.6 1.8 1.8-0.6 1.8-1.8 1.8c-1.2 0-1.8-0.6-1.8-1.8zM31.313 22.201c0-0.8 0.4-1.2 1.2-1.2s1.2 0.4 1.2 1.2c0 0.8-0.4 1.2-1.2 1.2s-1.2-0.4-1.2-1.2zM7.317 41.397c0-0.8 0.4-1.2 1.2-1.2s1.2 0.4 1.2 1.2c0 0.8-0.4 1.2-1.2 1.2s-1.2-0.4-1.2-1.2zM43.311 7.803c0-0.8 0.4-1.2 1.2-1.2s1.2 0.4 1.2 1.2c0 0.8-0.4 1.2-1.2 1.2s-1.2-0.4-1.2-1.2zM22.915 24.6c0-0.8 0.4-1.2 1.2-1.2s1.2 0.4 1.2 1.2c0 0.8-0.4 1.2-1.2 1.2s-1.2-0.4-1.2-1.2z"></path>
</svg>
