<!-- Generated by IcoMoon.io -->
<svg version="1.1" xmlns="http://www.w3.org/2000/svg" width="72" height="72" viewBox="0 0 72 72">
<title>uniF173</title>
<path d="M55.2 20.4c0 3.308-2.691 6-6 6h-0.002c0.754 1.003 1.202 2.25 1.202 3.6 0 2.927-2.106 5.371-4.883 5.896 0.803 1.021 1.283 2.308 1.283 3.704 0 2.927-2.106 5.371-4.883 5.896 0.803 1.021 1.283 2.308 1.283 3.704 0 3.308-2.692 6-6 6h-0.002c0.754 1.003 1.202 2.25 1.202 3.6 0 1.356-0.469 2.594-1.231 3.6h9.631v1.2c0 3.308-2.691 6-6 6h-13.2v1.2c0 0.664-0.538 1.2-1.2 1.2s-1.2-0.536-1.2-1.2v-1.2h-13.2c-3.308 0-6-2.692-6-6v-1.2h10.831c-0.762-1.006-1.231-2.244-1.231-3.6 0-1.35 0.449-2.597 1.202-3.6h-0.002c-3.308 0-6-2.691-6-6 0-1.397 0.48-2.683 1.283-3.704-2.777-0.524-4.883-2.969-4.883-5.896 0-1.397 0.48-2.683 1.283-3.704-2.777-0.524-4.883-2.969-4.883-5.896 0-1.397 0.48-2.683 1.283-3.704-2.777-0.524-4.883-2.969-4.883-5.896 0-3.308 2.692-6 6-6h19.2v-1.37c-2.064-0.536-3.6-2.399-3.6-4.63s1.536-4.093 3.6-4.63v-2.57c0-0.664 0.538-1.2 1.2-1.2s1.2 0.536 1.2 1.2v2.57c2.064 0.536 3.6 2.399 3.6 4.63s-1.536 4.093-3.6 4.63v1.37h21.6c3.308 0 6 2.691 6 6zM24 8.4c0 1.324 1.076 2.4 2.4 2.4s2.4-1.076 2.4-2.4-1.076-2.4-2.4-2.4-2.4 1.076-2.4 2.4zM40.8 67.2c1.565 0 2.899-1.003 3.395-2.4h-35.59c0.496 1.397 1.83 2.4 3.395 2.4h28.8zM45.6 24h3.6c1.985 0 3.6-1.615 3.6-3.6s-1.615-3.6-3.6-3.6h-43.2c-1.985 0-3.6 1.615-3.6 3.6s1.615 3.6 3.6 3.6h25.2c0.662 0 1.2 0.536 1.2 1.2s-0.538 1.2-1.2 1.2h-21.6c-1.985 0-3.6 1.615-3.6 3.6s1.615 3.6 3.6 3.6h8.4c0.662 0 1.2 0.536 1.2 1.2s-0.538 1.2-1.2 1.2h-4.8c-1.985 0-3.6 1.615-3.6 3.6s1.615 3.6 3.6 3.6h16.8c0.662 0 1.2 0.536 1.2 1.2s-0.538 1.2-1.2 1.2h-13.2c-1.985 0-3.6 1.615-3.6 3.6s1.615 3.6 3.6 3.6h4.8c0.662 0 1.2 0.536 1.2 1.2s-0.538 1.2-1.2 1.2c-1.985 0-3.6 1.615-3.6 3.6s1.615 3.6 3.6 3.6h10.8c1.985 0 3.6-1.615 3.6-3.6s-1.615-3.6-3.6-3.6h-6c-0.662 0-1.2-0.536-1.2-1.2s0.538-1.2 1.2-1.2h10.8c1.985 0 3.6-1.615 3.6-3.6s-1.615-3.6-3.6-3.6h-2.4c-0.662 0-1.2-0.536-1.2-1.2s0.538-1.2 1.2-1.2h6c1.985 0 3.6-1.615 3.6-3.6s-1.615-3.6-3.6-3.6h-18c-0.662 0-1.2-0.536-1.2-1.2s0.538-1.2 1.2-1.2h21.6c1.985 0 3.6-1.615 3.6-3.6s-1.615-3.6-3.6-3.6h-4.8c-0.662 0-1.2-0.536-1.2-1.2s0.538-1.2 1.2-1.2h6zM70.8 55.2c0.662 0 1.2 0.536 1.2 1.2s-0.538 1.2-1.2 1.2h-3.6v8.461c1.368 0.278 2.4 1.489 2.4 2.939 0 1.655-1.346 3-3 3h-6c-1.654 0-3-1.345-3-3 0-1.448 1.032-2.66 2.4-2.939v-8.461h-3.6c-0.662 0-1.2-0.536-1.2-1.2s0.538-1.2 1.2-1.2h1.2v-46.8c0-3.308 2.692-6 6-6s6 2.692 6 6v46.8h1.2zM66.6 69.6c0.331 0 0.6-0.27 0.6-0.6s-0.269-0.6-0.6-0.6h-6c-0.331 0-0.6 0.27-0.6 0.6s0.269 0.6 0.6 0.6h6zM64.8 66v-8.4h-2.4v8.4h2.4zM60 55.2h7.2v-46.8c0-1.985-1.615-3.6-3.6-3.6s-3.6 1.615-3.6 3.6v46.8zM63.6 7.2c0.662 0 1.2 0.536 1.2 1.2v16.8c0 0.664-0.538 1.2-1.2 1.2s-1.2-0.536-1.2-1.2v-16.8c0-0.664 0.538-1.2 1.2-1.2z"></path>
</svg>
