<!-- Generated by IcoMoon.io -->
<svg version="1.1" xmlns="http://www.w3.org/2000/svg" width="72" height="72" viewBox="0 0 72 72">
<title>uniF146</title>
<path d="M38.498 48.693c0-0.804 0.402-1.206 1.206-1.206s1.206 0.402 1.206 1.206-0.402 1.206-1.206 1.206-1.206-0.402-1.206-1.206zM42.116 54.722c0-0.804 0.402-1.206 1.206-1.206s1.206 0.402 1.206 1.206-0.402 1.206-1.206 1.206-1.206-0.402-1.206-1.206zM40.91 41.457c0-0.804 0.402-1.206 1.206-1.206s1.206 0.402 1.206 1.206c0 0.804-0.402 1.206-1.206 1.206s-1.206-0.402-1.206-1.206zM27.474 51.45c-0.694 0.649-1.517 0.973-2.471 0.972-1.049 0-1.93-0.382-2.643-1.146l-2.47-2.643c-0.681-0.729-1.004-1.593-0.97-2.593s0.415-1.84 1.144-2.52l2.643-2.47c0.728-0.68 1.592-1.004 2.592-0.97s1.84 0.415 2.521 1.144l2.47 2.643c0.68 0.727 1.003 1.591 0.969 2.591-0.032 1.001-0.413 1.841-1.142 2.521zM24.123 49.631c0.55 0.586 1.119 0.605 1.706 0.057l2.643-2.47c0.24-0.224 0.366-0.504 0.379-0.84 0.010-0.337-0.097-0.625-0.322-0.865l-2.47-2.643c-0.238-0.254-0.532-0.381-0.882-0.381-0.318 0-0.593 0.108-0.824 0.324l-2.643 2.47c-0.586 0.55-0.606 1.118-0.058 1.705zM22.47 37.027c-1.001-0.032-1.842-0.414-2.521-1.143l-2.47-2.643c-0.681-0.729-1.004-1.593-0.97-2.593s0.415-1.84 1.144-2.52l2.643-2.47c0.728-0.681 1.592-1.005 2.592-0.97s1.84 0.415 2.521 1.144l2.47 2.643c0.681 0.729 1.004 1.593 0.97 2.593s-0.415 1.84-1.144 2.52l-2.643 2.47c-0.693 0.648-1.515 0.972-2.466 0.972-0.056 0-0.098-0.001-0.126-0.002zM19.299 29.889c-0.587 0.549-0.606 1.118-0.058 1.705l2.47 2.643c0.224 0.24 0.504 0.366 0.841 0.379 0.341 0.006 0.629-0.101 0.865-0.322l2.643-2.47c0.586-0.55 0.605-1.118 0.058-1.705l-2.47-2.643c-0.238-0.254-0.532-0.381-0.882-0.381-0.319 0-0.593 0.108-0.824 0.324zM22.821 58.452c0-0.804 0.402-1.206 1.206-1.206s1.206 0.402 1.206 1.206-0.402 1.206-1.206 1.206-1.206-0.402-1.206-1.206zM51.452 20.421c0.338 0.138 0.617 0.338 0.836 0.601 0.428 0.513 0.583 1.097 0.464 1.752l-7.567 44.466c-0.248 1.381-0.907 2.52-1.977 3.416s-2.305 1.345-3.704 1.345h-14.070c-1.398 0-2.632-0.448-3.703-1.343s-1.73-2.031-1.977-3.407l-7.569-44.489c-0.118-0.647 0.037-1.227 0.466-1.74 0.22-0.263 0.498-0.463 0.836-0.601-0.053-1.302 0.233-2.543 0.856-3.721 1.784-3.367 4.3-6.028 7.547-7.984s6.774-2.933 10.58-2.933c5.91 0 10.887 2.149 14.929 6.448l0.827-2.161 2.251 0.862-1.319 3.444c0.541 0.76 1.021 1.535 1.439 2.324 0.622 1.176 0.908 2.417 0.856 3.721zM48.463 17.827c-0.049-0.094-0.175-0.312-0.377-0.656l-1.181 3.082h2.137c0.021-0.849-0.172-1.658-0.579-2.426zM16.473 17.827c-0.407 0.77-0.6 1.578-0.579 2.426h28.431l2.099-5.483c-3.612-4.384-8.264-6.576-13.956-6.576-3.36 0-6.472 0.863-9.338 2.588s-5.085 4.074-6.659 7.044zM42.809 66.823l7.516-44.161h-4.341l-13.563 35.411 1.141-1.065c0.728-0.68 1.592-1.004 2.592-0.97s1.84 0.415 2.521 1.144l2.47 2.643c0.681 0.729 1.005 1.593 0.97 2.593s-0.415 1.84-1.144 2.52l-2.643 2.47c-0.693 0.648-1.515 0.972-2.466 0.972-0.056 0-0.098-0.001-0.126-0.002-1.001-0.032-1.841-0.413-2.521-1.142l-2.47-2.643c-0.186-0.198-0.363-0.45-0.529-0.758l-1.445 3.772-2.027-0.777c-0.153 0.041-0.254 0.062-0.304 0.062-0.804 0-1.206-0.402-1.206-1.206s0.402-1.206 1.206-1.206c0.311 0 0.585 0.111 0.82 0.332l9.401-24.547-1.951 1.822c-0.693 0.648-1.515 0.972-2.466 0.972-0.056 0-0.098-0.001-0.126-0.002-1.001-0.032-1.841-0.413-2.521-1.142l-2.47-2.643c-0.681-0.729-1.004-1.593-0.97-2.593s0.415-1.84 1.144-2.52l2.643-2.47c0.727-0.68 1.591-1.004 2.591-0.97s1.841 0.415 2.522 1.144l2.47 2.643c0.367 0.393 0.634 0.863 0.801 1.408l5.074-13.248h-28.788l7.515 44.169c0.143 0.796 0.526 1.454 1.149 1.974s1.341 0.78 2.155 0.78h14.070c0.813 0 1.532-0.261 2.155-0.782s1.007-1.182 1.15-1.983zM35.706 37.856c0.586-0.548 0.606-1.118 0.058-1.708l-2.47-2.643c-0.238-0.254-0.532-0.381-0.882-0.381-0.319 0-0.593 0.108-0.824 0.324l-2.643 2.47c-0.586 0.55-0.605 1.118-0.058 1.705l2.47 2.646c0.224 0.24 0.504 0.366 0.84 0.379 0.345 0.001 0.633-0.106 0.865-0.322zM32.564 61.242c-0.587 0.549-0.606 1.117-0.058 1.705l2.47 2.643c0.224 0.24 0.504 0.366 0.84 0.379 0.34 0.006 0.628-0.101 0.865-0.322l2.643-2.47c0.586-0.55 0.606-1.118 0.058-1.705l-2.47-2.643c-0.238-0.254-0.532-0.381-0.882-0.381-0.319 0-0.593 0.108-0.824 0.324zM50.202 7.234l2.412 2.412-1.705 1.705-2.412-2.412zM53.322 8.942l-2.412-2.412 1.705-1.705 2.412 2.412zM55.734 6.53l-2.412-2.412 1.705-1.705 2.412 2.412zM55.733 1.705l1.705-1.705 2.412 2.412-1.705 1.705z"></path>
</svg>
