<!-- Generated by IcoMoon.io -->
<svg version="1.1" xmlns="http://www.w3.org/2000/svg" width="72" height="72" viewBox="0 0 72 72">
<title>uniF172</title>
<path d="M70.739 14.255c0.479 0.48 0.479 1.258 0.005 1.74l-4.343 4.343 1.303 1.303c1.675 1.677 1.675 4.403 0 6.078-0.839 0.838-1.941 1.256-3.041 1.256s-2.201-0.418-3.040-1.256l-0.372-0.372v6.228c0 1.355-1.102 2.456-2.456 2.456h-5.458c0.296 0.804 0.458 1.659 0.458 2.542 0 1.967-0.766 3.818-2.159 5.211-1.436 1.437-3.324 2.154-5.21 2.154-0.553 0-1.101-0.081-1.642-0.204 1.12 1.67 0.946 3.957-0.528 5.431-0.839 0.838-1.941 1.256-3.041 1.256s-2.201-0.418-3.040-1.256l-0.373-0.373v6.23c0 1.355-1.102 2.456-2.456 2.456h-5.468c1.668 1.675 1.667 4.398-0.007 6.071-0.839 0.836-1.941 1.256-3.041 1.256s-2.201-0.419-3.039-1.256l-1.303-1.303-3.407 3.407c-0.284 2.44-2.34 4.347-4.855 4.347-2.709 0-4.913-2.203-4.913-4.913s2.203-4.913 4.913-4.913c0.679 0 1.228 0.549 1.228 1.228s-0.549 1.228-1.228 1.228c-1.355 0-2.456 1.102-2.456 2.456s1.102 2.456 2.456 2.456 2.456-1.102 2.456-2.456c0-0.16 0.032-0.319 0.095-0.469 0.063-0.151 0.152-0.287 0.267-0.4l3.708-3.708-1.303-1.303c-1.675-1.675-1.675-4.402 0-6.078 1.674-1.672 4.393-1.674 6.071-0.007v-5.468c0-1.355 1.102-2.456 2.456-2.456h6.23l-0.373-0.373c-0.809-0.81-1.255-1.889-1.255-3.040 0-1.152 0.446-2.232 1.255-3.040 1.42-1.421 3.783-1.594 5.434-0.521-0.548-2.393 0.088-5.002 1.948-6.862 1.393-1.393 3.242-2.159 5.211-2.159 0.883 0 1.739 0.162 2.544 0.458v-5.457c0-1.355 1.102-2.456 2.456-2.456h6.228l-0.373-0.373c-0.809-0.81-1.255-1.889-1.255-3.040 0-1.152 0.446-2.232 1.255-3.040 1.616-1.619 4.462-1.619 6.078 0l1.303 1.303 4.343-4.343c0.48-0.48 1.256-0.48 1.737 0zM28.128 63.813c0.345-0.345 0.537-0.808 0.538-1.302 0-0.496-0.192-0.959-0.537-1.304l-4.342-4.342c-0.359-0.359-0.831-0.538-1.303-0.538-0.473 0-0.946 0.179-1.304 0.538-0.717 0.719-0.717 1.886 0 2.605l4.343 4.343c0.716 0.715 1.886 0.717 2.605 0zM35.34 57.022v-7.369h-7.369v7.366zM42.513 49.428c0.717-0.719 0.717-1.887 0.001-2.606l-4.343-4.342c-0.346-0.346-0.808-0.537-1.303-0.537s-0.957 0.19-1.303 0.537-0.537 0.808-0.537 1.303 0.192 0.958 0.537 1.303l4.342 4.342c0.689 0.69 1.915 0.691 2.606 0zM49.895 42.046c0.929-0.927 1.44-2.162 1.44-3.476 0-0.983-0.287-1.922-0.822-2.722-0.623-0.249-1.119-0.746-1.368-1.368-0.8-0.534-1.739-0.822-2.723-0.822-1.312 0-2.546 0.511-3.475 1.439-1.916 1.915-1.916 5.032 0 6.948 1.916 1.915 5.031 1.915 6.948 0zM58.791 33.573h-0.001v-7.369h-7.369v6.968c0.070 0.064 0.143 0.123 0.21 0.19 0.068 0.066 0.125 0.139 0.189 0.208zM65.962 25.979c0.717-0.719 0.717-1.887 0.001-2.606l-4.343-4.342c-0.346-0.346-0.808-0.537-1.303-0.537s-0.957 0.19-1.303 0.537-0.537 0.808-0.537 1.303 0.192 0.958 0.537 1.303l4.342 4.342c0.69 0.691 1.915 0.691 2.606 0zM10.035 48.904c1.102 1.883 0.863 4.339-0.748 5.949-0.957 0.957-2.217 1.436-3.475 1.436s-2.515-0.479-3.473-1.436c-1.916-1.915-1.916-5.032 0-6.948 0.48-0.48 1.257-0.48 1.737 0s0.48 1.256 0 1.737c-0.958 0.958-0.958 2.517 0 3.475s2.519 0.956 3.475 0c0.957-0.958 0.957-2.517 0-3.475-0.48-0.48-0.48-1.258 0-1.737 0.006-0.006 0.015-0.009 0.021-0.015l4.979-4.978-2.605-2.605c-0.463-0.462-0.719-1.080-0.719-1.737s0.255-1.275 0.72-1.738l2.604-2.604c0.807-0.807 2.142-0.91 3.085-0.309 0.075-1.782 0.768-3.543 2.125-4.901 1.314-1.315 3.040-2.063 4.886-2.143-0.614-0.951-0.507-2.237 0.325-3.068l2.605-2.605c0.838-0.836 2.133-0.942 3.086-0.316 0.076-1.78 0.769-3.54 2.125-4.896 1.357-1.356 3.116-2.049 4.897-2.125-0.261-0.397-0.403-0.861-0.403-1.349 0-0.657 0.254-1.274 0.717-1.737l2.605-2.605c0.801-0.802 2.126-0.908 3.068-0.318 0.079-1.848 0.827-3.577 2.143-4.893 2.575-2.577 6.589-2.824 9.465-0.78l1.825-1.825c0.48-0.48 1.256-0.48 1.737 0s0.48 1.257 0 1.737l-1.814 1.814c0.884 1.239 1.367 2.714 1.367 4.266 0 1.968-0.766 3.819-2.159 5.21-1.356 1.356-3.115 2.049-4.894 2.125 0.626 0.954 0.521 2.25-0.316 3.085l-2.605 2.606c-0.48 0.479-1.108 0.717-1.738 0.717-0.463 0-0.926-0.133-1.33-0.393-0.080 1.846-0.828 3.572-2.143 4.886-1.314 1.315-3.040 2.063-4.886 2.143 0.613 0.951 0.506 2.235-0.323 3.067l-2.606 2.606c-0.48 0.479-1.108 0.717-1.738 0.717-0.463 0-0.926-0.131-1.33-0.392-0.080 1.846-0.828 3.572-2.143 4.886-1.314 1.315-3.040 2.063-4.886 2.143 0.254 0.393 0.393 0.85 0.393 1.331 0 0.657-0.254 1.274-0.717 1.737l-2.606 2.605c-0.479 0.479-1.108 0.718-1.737 0.718s-1.258-0.239-1.737-0.718l-2.605-2.606zM45.553 4.702c-0.928 0.928-1.44 2.163-1.44 3.475s0.511 2.545 1.44 3.473c1.914 1.915 5.032 1.915 6.947 0 0.929-0.928 1.44-2.162 1.44-3.473s-0.511-2.546-1.44-3.475c-0.957-0.957-2.216-1.437-3.473-1.437s-2.517 0.48-3.473 1.437zM40.342 9.913l-2.605 2.605 6.946 6.945 2.607-2.604zM32.524 17.729c-1.914 1.914-1.915 5.028-0.004 6.944l0.006 0.006c1.857 1.853 5.090 1.853 6.945-0.002 0.929-0.929 1.44-2.162 1.44-3.473s-0.511-2.546-1.44-3.475c-0.957-0.957-2.216-1.436-3.473-1.436s-2.517 0.479-3.475 1.436zM27.314 22.94l-2.605 2.605 6.944 6.945 2.609-2.603zM19.498 30.757c-1.916 1.916-1.916 5.032 0 6.947 1.856 1.857 5.091 1.857 6.948 0 0.929-0.929 1.44-2.162 1.44-3.473s-0.511-2.545-1.44-3.473c-0.928-0.928-2.162-1.44-3.473-1.44s-2.546 0.511-3.475 1.44zM14.288 35.967l-2.605 2.605 6.944 6.945 2.609-2.603z"></path>
</svg>
