<!-- Generated by IcoMoon.io -->
<svg version="1.1" xmlns="http://www.w3.org/2000/svg" width="72" height="72" viewBox="0 0 72 72">
<title>uniF199</title>
<path d="M30.066 61.623c0.655 0.155 1.060 0.81 0.907 1.465-0.131 0.561-0.632 0.939-1.183 0.939-0.093 0-0.186-0.010-0.28-0.033-3.66-0.862-6.582-3.228-8.015-6.491-0.27-0.616 0.010-1.334 0.625-1.605 0.617-0.269 1.334 0.010 1.605 0.625 1.123 2.557 3.435 4.415 6.342 5.1zM21.629 51.511c-0.033 0-0.066-0.001-0.099-0.004-0.67-0.054-1.169-0.64-1.115-1.311 0.102-1.267 0.317-2.554 0.637-3.824 0.166-0.653 0.828-1.043 1.479-0.883 0.653 0.164 1.047 0.827 0.883 1.479-0.289 1.14-0.481 2.291-0.572 3.424-0.051 0.637-0.584 1.119-1.213 1.119zM37.535 10.805c0.475-0.475 1.246-0.476 1.722 0s0.476 1.245 0 1.722c-1.043 1.042-2.391 1.574-3.688 1.574-1.13 0-2.221-0.402-3.038-1.22-0.476-0.476-0.476-1.246 0-1.722s1.246-0.476 1.722 0c0.368 0.368 0.885 0.552 1.482 0.506 0.653-0.046 1.292-0.352 1.801-0.861zM58.216 45.506c1.282 3.968 1.159 8.438-0.345 12.585-2.531 6.982-9.047 12.162-17.004 13.517-1.517 0.258-3.094 0.39-4.687 0.39h-0.296c-1.655 0-3.231-0.131-4.748-0.39-7.956-1.354-14.473-6.534-17.005-13.517-1.505-4.149-1.627-8.62-0.345-12.588 0.734-2.269 1.953-4.367 3.133-6.396 0.418-0.72 0.833-1.434 1.221-2.148 0.337-0.621 0.686-1.244 1.037-1.871 1.373-2.456 2.794-4.993 3.625-7.592 0.532-1.667 0.997-3.405 1.448-5.087 0.427-1.591 0.867-3.236 1.37-4.844 0.189-0.604 0.365-1.23 0.544-1.863 0.522-1.848 1.063-3.76 1.967-5.471 1.077-2.039 2.969-3.537 5.154-4.215-0.804-1.795-1.86-3.139-3.002-3.712-0.601-0.302-0.844-1.034-0.542-1.634 0.301-0.602 1.031-0.842 1.634-0.542 2.183 1.097 3.55 3.397 4.383 5.489 0.039-0.001 0.078-0.009 0.118-0.009h0.151c3.25-0.016 6.341 1.778 7.844 4.623 0.903 1.712 1.444 3.622 1.966 5.47 0.179 0.633 0.357 1.26 0.545 1.865 0.503 1.61 0.944 3.256 1.37 4.848 0.449 1.68 0.914 3.417 1.446 5.083 0.83 2.597 2.25 5.134 3.623 7.589 0.353 0.63 0.703 1.253 1.040 1.875 0.387 0.715 0.804 1.428 1.221 2.148 1.18 2.029 2.398 4.126 3.133 6.397zM55.582 57.264c1.322-3.644 1.434-7.555 0.315-11.010-0.654-2.021-1.806-4.004-2.921-5.922-0.43-0.738-0.856-1.473-1.255-2.207-0.334-0.614-0.678-1.228-1.025-1.848-1.433-2.559-2.914-5.206-3.818-8.038-0.549-1.722-1.023-3.487-1.479-5.194-0.42-1.568-0.855-3.19-1.343-4.752-0.195-0.627-0.379-1.273-0.564-1.929-0.488-1.726-0.992-3.512-1.776-4.995-1.004-1.902-2.985-3.141-5.163-3.294 0.14 0.549 0.235 1.009 0.295 1.327 0.123 0.661-0.314 1.296-0.975 1.42-0.074 0.015-0.149 0.021-0.223 0.021-0.575 0-1.087-0.409-1.196-0.995-0.097-0.528-0.221-1.037-0.358-1.534-1.61 0.475-3.024 1.564-3.813 3.057-0.784 1.484-1.289 3.27-1.777 4.997-0.185 0.655-0.368 1.301-0.564 1.927-0.488 1.56-0.922 3.18-1.342 4.747-0.458 1.708-0.93 3.475-1.481 5.198-0.905 2.833-2.386 5.48-3.819 8.041-0.346 0.618-0.69 1.234-1.023 1.846-0.398 0.734-0.825 1.47-1.255 2.209-1.114 1.918-2.266 3.9-2.92 5.922-1.116 3.455-1.004 7.365 0.317 11.009 2.235 6.161 8.029 10.738 15.125 11.946 1.425 0.242 2.914 0.366 4.411 0.354 1.584 0.016 3.079-0.112 4.504-0.354 7.094-1.208 12.89-5.786 15.124-11.946z"></path>
</svg>
