<!-- Generated by IcoMoon.io -->
<svg version="1.1" xmlns="http://www.w3.org/2000/svg" width="72" height="72" viewBox="0 0 72 72">
<title>uniF10A</title>
<path d="M72 23.663c0 7.311-4.285 14.002-10.814 17.143 1.001 2.312 1.561 4.856 1.561 7.531 0 10.496-8.541 19.036-19.038 19.036-9.075 0-16.675-6.388-18.57-14.9-1.962 0.665-4.006 1.021-6.103 1.021-10.496 0-19.036-8.54-19.036-19.036s8.54-19.036 19.038-19.036c5.983 0 11.422 2.842 14.938 7.302 0.493-10.058 8.809-18.096 18.988-18.096 10.496 0 19.036 8.54 19.036 19.036zM19.036 50.89c1.877 0 3.71-0.311 5.46-0.931-0.055-0.575-0.082-1.107-0.082-1.623 0-7.334 4.172-13.946 10.714-17.124-1.525-7.583-8.277-13.187-16.092-13.187-9.061 0-16.433 7.371-16.433 16.433s7.372 16.433 16.433 16.433zM43.711 64.77c9.060 0 16.433-7.372 16.434-16.433 0-2.324-1.553-6.467-1.553-6.467l-0.531-1.032c-2.643-5.134-7.686-8.454-13.359-8.882-0.143-0.009-0.286-0.017-0.431-0.022-0.221-0.012-0.443-0.021-0.665-0.023-9.012 0.057-16.327 7.402-16.327 16.427 0 9.061 7.372 16.433 16.433 16.433zM59.977 38.498c5.682-2.693 9.42-8.494 9.42-14.835 0-9.061-7.372-16.433-16.433-16.433s-16.433 7.372-16.433 16.433c0 2.251 0.452 4.429 1.345 6.487 1.824-0.564 3.694-0.849 5.576-0.849 0.052 0 0.104 0.005 0.158 0.005 0.034 0 0.068-0.005 0.102-0.005 0.159 0 0.314 0.019 0.471 0.023 0.243 0.009 0.487 0.018 0.728 0.036 6.389 0.401 11.922 3.959 15.067 9.137zM45.666 39.253l2.818 2.393c0.548 0.466 0.614 1.287 0.15 1.836-0.466 0.548-1.289 0.614-1.836 0.15l-2.818-2.394c-0.462-0.393-1.159-0.427-1.656-0.083l-3.698 2.557c-0.225 0.155-0.483 0.23-0.738 0.23-0.414 0-0.82-0.197-1.073-0.562-0.409-0.591-0.262-1.402 0.331-1.811l3.698-2.557c1.475-1.017 3.458-0.917 4.822 0.242zM42.158 36.825c-0.358 1.418-1.912 2.486-3.618 2.486h-3.066c-0.719 0-1.302-0.583-1.302-1.302s0.583-1.302 1.302-1.302h3.066c0.625 0 1.055-0.367 1.092-0.518l0.586-2.328c0.176-0.699 0.884-1.122 1.58-0.945 0.698 0.176 1.121 0.883 0.945 1.58zM50.678 36.713c0.716 0.063 1.246 0.695 1.181 1.412-0.060 0.677-0.627 1.187-1.295 1.187-0.038 0-0.077-0.003-0.116-0.005l-3.767-0.333c-1.73-0.154-3.131-1.356-3.257-2.798l-0.164-1.882c-0.063-0.716 0.467-1.347 1.183-1.41 0.734-0.066 1.347 0.467 1.41 1.183l0.164 1.881c0.033 0.090 0.351 0.383 0.893 0.431zM21.139 25.582l2.818 2.393c0.548 0.466 0.614 1.287 0.15 1.836-0.466 0.549-1.286 0.615-1.836 0.15l-2.82-2.394c-0.46-0.392-1.156-0.426-1.655-0.083l-3.698 2.557c-0.225 0.155-0.483 0.23-0.738 0.23-0.414 0-0.82-0.197-1.073-0.563-0.409-0.591-0.262-1.402 0.331-1.811l3.698-2.557c1.474-1.017 3.458-0.918 4.822 0.242zM17.63 23.154c-0.357 1.418-1.912 2.486-3.616 2.486h-3.066c-0.719 0-1.302-0.583-1.302-1.302s0.583-1.302 1.302-1.302h3.065c0.625 0 1.054-0.367 1.092-0.518l0.586-2.328c0.176-0.699 0.883-1.12 1.58-0.945 0.698 0.176 1.121 0.883 0.945 1.58zM22.154 25.302c-1.731-0.154-3.131-1.357-3.258-2.799l-0.164-1.881c-0.063-0.716 0.467-1.347 1.183-1.41 0.734-0.075 1.347 0.469 1.41 1.183l0.164 1.881c0.033 0.091 0.351 0.384 0.893 0.432l3.769 0.333c0.716 0.063 1.246 0.695 1.182 1.411-0.060 0.677-0.627 1.187-1.295 1.187-0.038 0-0.077-0.003-0.116-0.005zM54.985 14.519l2.818 2.393c0.548 0.466 0.614 1.287 0.15 1.836-0.466 0.548-1.287 0.614-1.836 0.15l-2.82-2.394c-0.46-0.392-1.156-0.427-1.655-0.083l-3.698 2.557c-0.225 0.155-0.483 0.23-0.738 0.23-0.414 0-0.82-0.197-1.073-0.562-0.409-0.591-0.262-1.402 0.331-1.811l3.698-2.557c1.474-1.017 3.458-0.918 4.822 0.242zM51.477 12.091c-0.357 1.418-1.912 2.486-3.616 2.486h-3.066c-0.719 0-1.302-0.583-1.302-1.302s0.583-1.302 1.302-1.302h3.065c0.625 0 1.054-0.367 1.092-0.518l0.586-2.328c0.176-0.699 0.881-1.124 1.581-0.945 0.698 0.176 1.121 0.883 0.945 1.58zM59.997 11.979c0.716 0.063 1.246 0.695 1.181 1.41-0.060 0.677-0.628 1.187-1.295 1.187-0.038 0-0.077-0.003-0.116-0.005l-3.767-0.333c-1.73-0.154-3.131-1.356-3.257-2.798l-0.164-1.881c-0.063-0.716 0.467-1.347 1.183-1.41 0.732-0.074 1.347 0.467 1.41 1.183l0.164 1.881c0.033 0.091 0.351 0.384 0.893 0.432z"></path>
</svg>
