<!-- Generated by IcoMoon.io -->
<svg version="1.1" xmlns="http://www.w3.org/2000/svg" width="72" height="72" viewBox="0 0 72 72">
<title>uniF105</title>
<path d="M62.943 52.257c2.916 2.831 2.987 7.507 0.159 10.423-1.498 1.543-1.769 3.904-0.66 5.742 0.396 0.657 0.411 1.48 0.041 2.149-0.375 0.674-1.060 1.081-1.831 1.093l-15.798 0.238-0.391-0.379c-0.749-0.728-1.311-1.592-1.69-2.532l-6.388 3.010-0.513-0.184c-1.854-0.666-3.336-2.013-4.176-3.794-0.839-1.779-0.933-3.78-0.267-5.634 0.883-2.459-0.398-5.177-2.856-6.060-3.822-1.375-5.815-5.603-4.442-9.427 0.883-2.459-0.398-5.177-2.856-6.060-3.822-1.375-5.815-5.603-4.442-9.428 0.428-1.191 0.367-2.478-0.171-3.622s-1.492-2.009-2.683-2.437c-3.823-1.374-5.818-5.605-4.443-9.428 0.732-2.034-0.003-4.302-1.785-5.515-0.628-0.428-0.983-1.165-0.923-1.921 0.059-0.753 0.523-1.422 1.207-1.745l14.317-6.746 0.512 0.183c3.823 1.374 5.816 5.603 4.443 9.427-0.883 2.459 0.398 5.177 2.856 6.060 1.852 0.666 3.335 2.013 4.175 3.794 0.839 1.779 0.933 3.78 0.267 5.634-0.428 1.191-0.367 2.478 0.171 3.622s1.492 2.009 2.683 2.437c3.823 1.375 5.818 5.605 4.443 9.428-0.628 1.747-0.17 3.605 1.066 4.866 0.303-0.523 0.646-1.024 1.078-1.468 1.818-1.875 1.773-4.879-0.101-6.697-1.413-1.372-2.208-3.211-2.238-5.178-0.030-1.968 0.71-3.83 2.082-5.243 1.818-1.875 1.773-4.879-0.1-6.697-2.916-2.829-2.986-7.506-0.158-10.422 1.506-1.552 1.772-3.921 0.648-5.761-0.396-0.648-0.415-1.463-0.050-2.128 0.365-0.662 1.061-1.081 1.818-1.094l15.832-0.238 0.391 0.379c1.413 1.372 2.208 3.211 2.238 5.178 0.030 1.968-0.71 3.83-2.082 5.243-1.818 1.875-1.773 4.879 0.101 6.697 1.413 1.372 2.208 3.211 2.238 5.178 0.030 1.968-0.71 3.83-2.082 5.243-1.818 1.875-1.773 4.879 0.101 6.697 1.413 1.372 2.208 3.211 2.238 5.178 0.030 1.968-0.71 3.83-2.082 5.243-1.818 1.875-1.773 4.879 0.1 6.697zM22.453 2.864l-6.312 2.973c1.877 2.501 3.035 6.427 2.010 9.276-0.761 2.117 0.342 4.457 2.458 5.218 4.164 1.496 6.335 6.104 4.838 10.269-0.761 2.117 0.342 4.456 2.458 5.218 4.166 1.497 6.336 6.105 4.84 10.269-0.761 2.117 0.342 4.457 2.458 5.218 4.166 1.498 6.337 6.105 4.84 10.27-0.037 0.104-0.083 0.207-0.138 0.303-0.581 1.030-0.749 1.571-0.798 1.805 0.151 0.104 0.388 0.241 0.577 0.349 0.724 0.415 1.721 0.99 2.565 2.047 0.038-1.868 0.751-3.63 2.059-4.978 0.226-0.233 0.424-0.485 0.592-0.749 0.012-0.018 0.019-0.038 0.029-0.057 0.961-1.551 0.937-3.531-0.053-5.061-0.021-0.033-0.034-0.070-0.057-0.101-0.176-0.258-0.382-0.503-0.615-0.729-0.308-0.298-0.574-0.627-0.82-0.968-0.062-0.087-0.126-0.171-0.186-0.261-0.203-0.308-0.382-0.629-0.535-0.962-0.071-0.153-0.13-0.311-0.191-0.469-0.082-0.218-0.151-0.44-0.212-0.665-0.083-0.296-0.142-0.596-0.187-0.903-0.022-0.165-0.043-0.328-0.055-0.494-0.012-0.154-0.049-0.3-0.051-0.456-0.005-0.369 0.042-0.728 0.090-1.086-2.616-1.892-3.743-5.352-2.632-8.445 0.883-2.459-0.398-5.177-2.854-6.060-1.854-0.666-3.336-2.013-4.176-3.794-0.839-1.779-0.933-3.78-0.267-5.632 0.883-2.459-0.398-5.177-2.854-6.060-3.823-1.376-5.817-5.606-4.443-9.428 0.824-2.294-0.236-4.813-2.378-5.857zM36.286 69.136l2.338-1.102c-0.271-0.204-0.57-0.384-0.907-0.578-2.458-1.411-3.626-3.209-1.343-7.356 0.665-2.078-0.436-4.334-2.505-5.078-4.166-1.498-6.337-6.105-4.84-10.27 0.76-2.116-0.344-4.455-2.459-5.216-4.166-1.497-6.337-6.105-4.84-10.27 0.761-2.116-0.342-4.457-2.457-5.216-4.166-1.498-6.337-6.105-4.84-10.271 0.571-1.593-0.553-4.92-2.009-6.19l-2.502 1.178c2.269 1.972 3.129 5.162 2.092 8.049-0.428 1.192-0.367 2.479 0.171 3.622 0.538 1.145 1.492 2.010 2.683 2.438 1.854 0.666 3.336 2.013 4.176 3.794 0.839 1.779 0.933 3.78 0.267 5.632-0.883 2.459 0.398 5.178 2.854 6.060 3.823 1.376 5.816 5.606 4.443 9.428-0.428 1.191-0.367 2.478 0.171 3.622s1.492 2.009 2.683 2.437c3.823 1.376 5.817 5.606 4.443 9.428-0.824 2.293 0.236 4.813 2.378 5.859zM44.987 67.282c0.163 0.72 0.482 1.396 0.958 1.97l5.497-0.088c-0.579-3.016 0.018-6.89 2.060-8.993 1.565-1.614 1.527-4.201-0.087-5.766-3.176-3.082-3.252-8.175-0.17-11.351 1.567-1.613 1.527-4.201-0.087-5.767-3.177-3.083-3.255-8.176-0.172-11.351 1.565-1.613 1.527-4.201-0.087-5.767-3.177-3.082-3.253-8.175-0.171-11.351 0.078-0.080 0.162-0.154 0.251-0.218 0.953-0.698 1.328-1.122 1.471-1.315-0.095-0.158-0.254-0.38-0.382-0.555-0.548-0.761-1.322-1.854-1.592-3.434l-5.639 0.084c1.253 2.733 0.722 5.994-1.415 8.197-1.818 1.875-1.773 4.879 0.101 6.699 2.916 2.829 2.985 7.504 0.157 10.421-0.882 0.91-1.359 2.105-1.339 3.37 0.020 1.264 0.531 2.445 1.439 3.327 2.916 2.828 2.987 7.503 0.158 10.421-0.438 0.453-0.777 0.977-1.003 1.544l-0.137 0.498c-0.171 0.623-0.213 1.261-0.136 1.877 0.001 0.010 0.003 0.021 0.004 0.032 0.026 0.199 0.066 0.395 0.116 0.587 0.011 0.038 0.025 0.076 0.037 0.115 0.078 0.27 0.184 0.529 0.309 0.781 0.070 0.138 0.142 0.275 0.225 0.405 0.053 0.086 0.109 0.169 0.168 0.25 0.157 0.213 0.323 0.423 0.517 0.611 0.359 0.35 0.677 0.731 0.954 1.135 0.038 0.057 0.061 0.12 0.098 0.176 0.741 1.147 1.165 2.47 1.186 3.868 0.022 1.415-0.367 2.767-1.089 3.944-0.026 0.044-0.042 0.091-0.070 0.134-0.266 0.414-0.571 0.804-0.922 1.165-0.245 0.251-0.452 0.531-0.631 0.823-0.037 0.059-0.062 0.124-0.095 0.183-0.138 0.249-0.259 0.507-0.349 0.777-0.017 0.051-0.029 0.103-0.045 0.154-0.088 0.3-0.153 0.61-0.179 0.926-0.001 0.022-0.004 0.045-0.005 0.067-0.025 0.352-0.014 0.71 0.040 1.071zM61.212 60.846c1.818-1.875 1.773-4.879-0.101-6.697-2.916-2.829-2.985-7.504-0.157-10.421 0.882-0.91 1.359-2.105 1.339-3.37-0.020-1.264-0.531-2.445-1.439-3.327-2.916-2.828-2.987-7.503-0.158-10.421 0.882-0.91 1.359-2.105 1.339-3.37-0.020-1.264-0.531-2.445-1.439-3.327-1.414-1.372-2.209-3.211-2.238-5.178-0.032-1.967 0.708-3.828 2.080-5.242 0.882-0.91 1.359-2.105 1.339-3.37-0.016-1.090-0.399-2.118-1.086-2.946l-4.135 0.062c0.172 0.406 0.424 0.774 0.722 1.186 1.658 2.3 1.979 4.418-1.812 7.254-1.464 1.618-1.392 4.127 0.187 5.66 3.177 3.082 3.253 8.175 0.171 11.351-1.564 1.613-1.526 4.201 0.088 5.767 3.177 3.082 3.253 8.175 0.171 11.351-1.567 1.614-1.527 4.201 0.086 5.766 3.177 3.082 3.253 8.175 0.171 11.351-1.115 1.149-1.493 4.351-0.85 6.183l4.308-0.065c-1.251-2.732-0.719-5.998 1.415-8.197z"></path>
</svg>
