<!-- Generated by IcoMoon.io -->
<svg version="1.1" xmlns="http://www.w3.org/2000/svg" width="72" height="72" viewBox="0 0 72 72">
<title>uniF113</title>
<path d="M61.197 19.555c1.939 2.263 4.597 5.363 4.596 11.628v23.744c0 0.341-0.067 0.662-0.168 0.967-1.166 9.069-8.918 16.105-18.299 16.105h-22.652c-10.183 0-18.467-8.284-18.467-18.467v-22.349c0-6.275 2.663-9.379 4.606-11.644 0.836-0.976 1.561-1.832 1.917-2.733h-0.261c-2.611 0-4.733-2.124-4.733-4.733v-7.337c0-2.611 2.122-4.736 4.733-4.736h47.038c2.611 0 4.736 2.125 4.736 4.736v7.334c0 2.611-2.125 4.736-4.736 4.736h-0.231c0.354 0.908 1.080 1.769 1.921 2.749zM10.791 12.072c0 0.926 0.753 1.679 1.678 1.679h47.038c0.927 0 1.681-0.755 1.681-1.681v-7.334c0-0.927-0.755-1.681-1.681-1.681h-47.036c-0.926 0-1.679 0.755-1.679 1.681v7.335zM62.663 55.003c0.046-0.484 0.075-0.973 0.075-1.47v-3.207c-0.026 0.001-0.049 0.008-0.075 0.008h-15.35v-13.63h15.425v-4.619h-22.918v22.918h22.843zM62.738 39.759h-12.369v7.519h12.294c0.043 0 0.075-0.034 0.075-0.075v-7.444zM47.327 68.944c6.923 0 12.791-4.59 14.732-10.886h-25.294v-29.029h25.828c-0.47-3.662-2.11-5.61-3.717-7.485-1.117-1.303-2.174-2.535-2.652-4.2l-0.060-0.408h-40.329l-0.063 0.437c-0.484 1.641-1.531 2.863-2.642 4.156-1.902 2.217-3.868 4.51-3.868 9.655v22.349c0 8.498 6.913 15.412 15.411 15.412h22.654zM18.753 21.019c0.518-0.666 1.477-0.785 2.144-0.264 0.666 0.518 0.784 1.478 0.264 2.144-1.351 1.733-2.732 4.070-2.732 8.285v22.349c0 0.845-0.683 1.528-1.528 1.528s-1.528-0.683-1.528-1.528v-22.349c0-5.169 1.806-8.148 3.38-10.165z"></path>
</svg>
