<!-- Generated by IcoMoon.io -->
<svg version="1.1" xmlns="http://www.w3.org/2000/svg" width="72" height="72" viewBox="0 0 72 72">
<title>uniF1D7</title>
<path d="M54.080 28.178v0.001h12.465l-8.966 11.528c2.594 4.383 4.511 9.526 5.522 15.215 0.552 3.105-0.229 6.286-2.091 8.507-1.381 1.646-3.198 2.554-5.119 2.554h-45.295c-1.921 0-3.739-0.907-5.119-2.554-1.862-2.221-2.644-5.401-2.091-8.507 0.57-3.204 1.438-6.226 2.541-9.047-3.674-2.244-5.926-6.161-5.926-10.527 0-6.828 5.556-12.384 12.384-12.384 3.556 0 6.942 1.568 9.282 4.226 0.982-0.511 1.983-0.963 3.010-1.344 0.095-0.035 0.188-0.077 0.283-0.111 0.468-0.167 0.942-0.309 1.42-0.448 0.322-0.095 0.645-0.188 0.97-0.27 0.394-0.098 0.789-0.188 1.188-0.266 0.064-0.013 0.126-0.031 0.19-0.043-0.83-1.013-1.351-2.291-1.351-3.7 0-3.234 2.632-5.866 5.866-5.866s5.866 2.632 5.866 5.866c0 1.411-0.52 2.687-1.352 3.7 0.064 0.013 0.126 0.030 0.19 0.043 0.399 0.078 0.794 0.168 1.188 0.266 0.325 0.081 0.647 0.173 0.969 0.268 0.478 0.139 0.954 0.282 1.424 0.45 0.091 0.033 0.18 0.073 0.271 0.107 3.494 1.294 6.733 3.367 9.604 6.087zM37.523 27.322c-0.495-0.099-0.993-0.188-1.496-0.252-0.224-0.030-0.449-0.056-0.673-0.078-0.699-0.069-1.401-0.119-2.112-0.119s-1.413 0.051-2.112 0.119c-0.224 0.023-0.448 0.048-0.673 0.078-0.502 0.064-1 0.153-1.495 0.252-0.417 0.085-0.832 0.183-1.245 0.292-0.362 0.095-0.725 0.193-1.082 0.306-0.416 0.133-0.829 0.279-1.24 0.437-0.143 0.055-0.284 0.115-0.426 0.172-0.929 0.379-1.846 0.817-2.743 1.323l-0.141 0.081c-0.059 0.033-0.115 0.072-0.173 0.106-0.392 0.23-0.77 0.493-1.154 0.746h25.025c-1.377-0.91-2.807-1.66-4.273-2.257-0.139-0.056-0.279-0.115-0.42-0.168-0.412-0.158-0.825-0.305-1.242-0.438-0.356-0.113-0.717-0.211-1.078-0.306-0.415-0.109-0.829-0.209-1.248-0.293zM33.242 17.749c-1.798 0-3.259 1.461-3.259 3.259s1.461 3.259 3.259 3.259c1.798 0 3.259-1.461 3.259-3.259s-1.461-3.259-3.259-3.259zM2.607 35.348c0 3.319 1.639 6.324 4.352 8.123 2.972-6.444 7.286-11.598 12.417-14.939-1.829-1.875-4.354-2.961-6.991-2.961-5.392 0-9.777 4.385-9.777 9.777zM59.011 61.754c1.351-1.611 1.935-4.056 1.52-6.377-0.909-5.11-2.589-9.742-4.846-13.725l-0.821-1.314c-1.265-2.021-2.695-3.866-4.246-5.488l-0.748-0.781 0.004-0.005c-0.311-0.301-0.617-0.613-0.937-0.898-0.258 0.133-0.537 0.225-0.839 0.225h-29.711c-0.276 0-0.532-0.080-0.772-0.192-3.629 3.236-6.691 7.565-8.842 12.627l-0.446 1.051c-1.028 2.648-1.839 5.488-2.375 8.5-0.412 2.322 0.172 4.766 1.523 6.377 0.876 1.047 1.985 1.622 3.121 1.622h45.295c1.137 0 2.245-0.575 3.121-1.622zM53.25 33.826c0.997 1.109 1.954 2.28 2.835 3.55l5.126-6.591h-5.788zM58.661 25.57c-0.255 0-0.515-0.074-0.742-0.232-0.592-0.411-0.739-1.223-0.33-1.815l0.742-1.072c0.409-0.592 1.22-0.739 1.815-0.33 0.592 0.411 0.739 1.223 0.33 1.815l-0.742 1.072c-0.253 0.366-0.66 0.562-1.073 0.562zM61.769 21.083c-0.256 0-0.515-0.076-0.742-0.232-0.592-0.411-0.739-1.223-0.33-1.815l1.576-2.277c0.411-0.59 1.22-0.74 1.815-0.33 0.592 0.411 0.739 1.223 0.33 1.815l-1.576 2.277c-0.253 0.366-0.66 0.562-1.073 0.562zM65.71 15.389c-0.256 0-0.514-0.076-0.742-0.232-0.592-0.411-0.739-1.223-0.33-1.815l1.576-2.277c0.411-0.592 1.221-0.739 1.815-0.33 0.592 0.411 0.739 1.223 0.33 1.815l-1.576 2.277c-0.253 0.366-0.66 0.562-1.073 0.562zM69.652 9.696c-0.257 0-0.515-0.076-0.742-0.232-0.592-0.411-0.739-1.223-0.33-1.815l0.742-1.072c0.409-0.592 1.22-0.739 1.815-0.33 0.592 0.411 0.739 1.223 0.33 1.815l-0.742 1.072c-0.253 0.366-0.66 0.562-1.073 0.562zM63.547 22.453c0.411-0.592 1.221-0.74 1.813-0.33s0.739 1.223 0.33 1.815l-0.742 1.072c-0.253 0.366-0.66 0.562-1.073 0.562-0.256 0-0.514-0.076-0.74-0.232-0.592-0.411-0.739-1.223-0.33-1.815zM66.882 17.638c0.408-0.593 1.219-0.74 1.813-0.33 0.592 0.411 0.739 1.223 0.33 1.815l-1.334 1.927c-0.253 0.366-0.66 0.562-1.073 0.562-0.255 0-0.514-0.076-0.74-0.232-0.592-0.411-0.739-1.223-0.33-1.815zM71.438 13.346c0.592 0.409 0.739 1.221 0.329 1.815l-0.742 1.072c-0.253 0.366-0.66 0.562-1.073 0.562-0.256 0-0.514-0.076-0.74-0.232-0.592-0.411-0.739-1.223-0.33-1.815l0.742-1.072c0.411-0.592 1.221-0.74 1.815-0.33z"></path>
</svg>
