<!-- Generated by IcoMoon.io -->
<svg version="1.1" xmlns="http://www.w3.org/2000/svg" width="72" height="72" viewBox="0 0 72 72">
<title>uniF119</title>
<path d="M71.494 15.948c0.562 0.715 0.625 1.68 0.156 2.46-2.88 4.818-4.537 5.455-5.082 5.664l-0.207 0.060-11.556 2.365c1.198 4.311 0.541 9.291-1.689 13.982l0.012 0.012-0.443 0.851c-0.029 0.055-0.064 0.107-0.093 0.162-0.304 0.574-0.622 1.142-0.973 1.702-0.006 0.013-0.016 0.024-0.023 0.037-0.331 0.528-0.688 1.045-1.060 1.559-0.126 0.174-0.257 0.344-0.386 0.515-0.279 0.368-0.567 0.729-0.867 1.087-0.136 0.162-0.268 0.325-0.409 0.485-0.433 0.495-0.88 0.984-1.353 1.456-0.505 0.504-1.029 0.98-1.56 1.439-0.144 0.124-0.289 0.246-0.436 0.368-0.487 0.406-0.982 0.795-1.486 1.163-0.056 0.041-0.11 0.085-0.166 0.126-0.609 0.436-1.228 0.838-1.857 1.218-0.048 0.029-0.097 0.056-0.145 0.085-0.797 0.475-1.606 0.908-2.425 1.289l-0.374 0.183-0.013-0.013c-4.462 1.984-9.148 2.559-13.243 1.46l-1.637 10.596c-0.605 1.576-2.576 3.399-5.856 5.418-0.348 0.215-0.736 0.321-1.121 0.321-0.462 0-0.921-0.153-1.307-0.453-0.709-0.55-0.994-1.46-0.726-2.317l0.372-1.196-1.724 0.537c-0.753 0.238-1.572 0.035-2.132-0.525-0.561-0.559-0.762-1.378-0.526-2.133l0.537-1.725-1.723 0.538c-0.757 0.23-1.574 0.034-2.135-0.526-0.559-0.561-0.761-1.378-0.525-2.132l0.537-1.725-1.724 0.537c-0.753 0.237-1.57 0.037-2.132-0.525-0.561-0.559-0.762-1.378-0.526-2.133l0.537-1.724-1.197 0.373c-0.859 0.267-1.768-0.020-2.317-0.727-0.55-0.708-0.602-1.662-0.131-2.428 2.019-3.279 3.842-5.25 5.418-5.857l0.28-0.071 10.105-1.498c-1.247-4.195-0.71-9.027 1.349-13.632l-0.001-0.001 0.020-0.039c0.737-1.642 1.667-3.254 2.783-4.799 0-0.001 0.001-0.003 0.003-0.004 0.405-0.559 0.836-1.107 1.287-1.645 0.103-0.123 0.206-0.247 0.312-0.369 0.469-0.542 0.952-1.075 1.469-1.593 0.483-0.482 0.98-0.938 1.484-1.378 0.133-0.117 0.271-0.229 0.407-0.343 0.415-0.351 0.837-0.686 1.264-1.008 0.101-0.076 0.202-0.153 0.304-0.228 1.342-0.984 2.735-1.827 4.156-2.524l0.24-0.124 0.003 0.003c4.834-2.309 9.959-2.932 14.366-1.573l2.359-11.563c0.572-1.484 2.526-3.223 5.81-5.165 0.76-0.452 1.699-0.389 2.391 0.158 0.693 0.546 0.971 1.442 0.708 2.285l-0.401 1.282 1.727-0.538c0.754-0.233 1.572-0.034 2.131 0.527 0.559 0.559 0.761 1.375 0.525 2.131l-0.538 1.727 1.727-0.538c0.75-0.238 1.569-0.035 2.129 0.524s0.762 1.376 0.528 2.132l-0.538 1.727 1.727-0.538c0.757-0.23 1.574-0.034 2.132 0.527 0.558 0.559 0.76 1.375 0.524 2.131l-0.538 1.726 1.124-0.351c0.872-0.267 1.798 0.017 2.361 0.733zM49.865 41.042c0.013-0.023 0.026-0.046 0.041-0.066l-4.982-4.981-0.041-0.477c-0.195-2.306-1.202-4.475-2.835-6.107-1.632-1.633-3.801-2.64-6.107-2.837l-0.477-0.039-4.694-4.695c-0.124 0.072-0.251 0.137-0.376 0.211-0.149 0.088-0.297 0.182-0.445 0.274-0.308 0.191-0.614 0.385-0.917 0.591-0.152 0.102-0.299 0.213-0.448 0.32-0.289 0.207-0.579 0.414-0.863 0.634-0.19 0.147-0.372 0.304-0.558 0.457-0.236 0.194-0.474 0.384-0.705 0.587-0.416 0.368-0.825 0.749-1.223 1.147-0.42 0.422-0.821 0.855-1.209 1.298-0.152 0.175-0.295 0.355-0.443 0.533-0.221 0.267-0.441 0.537-0.652 0.811-0.17 0.223-0.334 0.448-0.495 0.673-0.173 0.242-0.342 0.486-0.505 0.732-0.161 0.241-0.32 0.483-0.47 0.728-0.153 0.247-0.297 0.5-0.441 0.753-0.106 0.186-0.214 0.372-0.314 0.561l4.575 4.573 0.041 0.477c0.196 2.304 1.204 4.47 2.835 6.102 1.63 1.632 3.798 2.639 6.103 2.837l0.477 0.041 4.855 4.854c0.551-0.295 1.092-0.612 1.621-0.948 0.003-0.003 0.005-0.004 0.008-0.005 0.47-0.3 0.929-0.621 1.382-0.954 0.105-0.077 0.211-0.154 0.316-0.234 0.364-0.275 0.72-0.566 1.071-0.862 0.122-0.103 0.246-0.203 0.368-0.309 0.448-0.393 0.888-0.799 1.315-1.226 0.403-0.405 0.791-0.82 1.164-1.243 0.102-0.115 0.195-0.236 0.295-0.352 0.27-0.316 0.536-0.633 0.788-0.959 0.093-0.121 0.18-0.244 0.271-0.365 0.254-0.34 0.503-0.682 0.739-1.032 0.063-0.094 0.123-0.19 0.186-0.286 0.261-0.399 0.513-0.804 0.751-1.215zM25.224 52.721c3.523 1.366 7.738 1.112 11.849-0.504l-3.522-3.522c-2.737-0.344-5.294-1.591-7.245-3.543-1.953-1.951-3.2-4.508-3.543-7.244l-3.226-3.226c-1.663 4.252-1.896 8.623-0.398 12.156l0.66 1.559-13.194 1.955c-0.824 0.39-2.013 1.7-3.299 3.619l0.819-0.255c0.754-0.233 1.573-0.035 2.132 0.525 0.561 0.559 0.762 1.378 0.527 2.133l-0.537 1.724 1.724-0.537c0.757-0.234 1.572-0.035 2.132 0.525 0.561 0.559 0.762 1.378 0.527 2.134l-0.537 1.725 1.723-0.538c0.758-0.232 1.575-0.034 2.135 0.528 0.559 0.561 0.761 1.376 0.525 2.132l-0.537 1.723 1.724-0.537c0.208-0.066 0.422-0.097 0.634-0.097 0.553 0 1.092 0.217 1.498 0.623 0.56 0.559 0.762 1.378 0.526 2.133l-0.254 0.817c1.919-1.287 3.228-2.475 3.617-3.298l2.016-13.302zM65.71 21.595c0.596-0.284 1.667-1.348 3.070-3.528l-0.898 0.28c-0.753 0.232-1.573 0.034-2.132-0.525-0.558-0.559-0.76-1.376-0.525-2.131l0.538-1.727-1.727 0.538c-0.756 0.234-1.572 0.034-2.132-0.527-0.559-0.561-0.76-1.376-0.524-2.131l0.538-1.726-1.727 0.538c-0.752 0.233-1.57 0.034-2.131-0.525-0.559-0.559-0.761-1.376-0.527-2.132l0.538-1.727-1.727 0.538c-0.753 0.236-1.572 0.034-2.131-0.525-0.558-0.559-0.76-1.376-0.525-2.131l0.28-0.898c-2.175 1.401-3.239 2.47-3.524 3.070l-2.894 14.296-1.481-0.636c-3.715-1.599-8.361-1.278-12.825 0.621l3.406 3.408c2.737 0.342 5.296 1.589 7.249 3.543 1.954 1.953 3.2 4.512 3.543 7.249l3.701 3.7c1.852-4.319 2.199-8.801 0.737-12.514l-0.571-1.45zM30.007 31.26c2.809-2.808 7.379-2.808 10.187 0s2.808 7.377 0 10.187c-1.404 1.404-3.248 2.106-5.093 2.106s-3.689-0.702-5.093-2.106c-2.808-2.808-2.808-7.377 0-10.187zM38.342 39.595c1.786-1.788 1.786-4.695 0-6.483-0.895-0.892-2.068-1.34-3.242-1.34s-2.348 0.447-3.241 1.34c-1.786 1.788-1.786 4.695 0 6.483 1.788 1.785 4.695 1.785 6.483 0zM56.429 18.875c0.707-0.081 1.373 0.419 1.463 1.137s-0.419 1.373-1.137 1.462c-0.791 0.098-1.469 0.122-2.069 0.143-1.655 0.058-2.34 0.081-3.478 1.426-0.259 0.306-0.629 0.464-1.001 0.464-0.299 0-0.598-0.101-0.845-0.309-0.208-0.177-0.325-0.409-0.393-0.654-0.394-0.052-0.761-0.274-0.971-0.647-0.354-0.63-0.128-1.428 0.503-1.783 2.635-1.475 4.305-5.127 3.883-8.497-0.090-0.718 0.419-1.373 1.137-1.462 0.712-0.084 1.373 0.418 1.462 1.137 0.343 2.74-0.364 5.563-1.792 7.798 0.465-0.055 0.93-0.073 1.403-0.090 0.571-0.020 1.162-0.041 1.835-0.124zM21.406 50.408c0.393 0.055 0.758 0.263 0.967 0.634 0.354 0.63 0.128 1.428-0.503 1.782-2.635 1.475-4.305 5.127-3.883 8.498 0.090 0.718-0.419 1.373-1.137 1.461-0.055 0.007-0.109 0.011-0.164 0.011-0.651 0-1.215-0.485-1.298-1.147-0.343-2.739 0.365-5.563 1.792-7.798-0.464 0.055-0.928 0.075-1.4 0.090-0.571 0.021-1.162 0.042-1.836 0.126-0.056 0.007-0.11 0.010-0.165 0.010-0.651 0-1.215-0.485-1.298-1.147-0.090-0.718 0.419-1.373 1.137-1.462 0.791-0.1 1.472-0.122 2.072-0.143 1.654-0.058 2.339-0.083 3.476-1.426 0.466-0.554 1.294-0.622 1.845-0.154 0.211 0.178 0.329 0.415 0.396 0.664z"></path>
</svg>
