<!-- Generated by IcoMoon.io -->
<svg version="1.1" xmlns="http://www.w3.org/2000/svg" width="72" height="72" viewBox="0 0 72 72">
<title>uniF11A</title>
<path d="M69.014 16.442c1.647 0 2.987 1.34 2.989 2.985v2.671c0 1.196-0.709 2.273-1.809 2.745l-5.197 2.227c-1.836 1.518-3.649 3.064-5.447 4.629l0.008 0.004-1.46 1.288c-3.373 2.975-6.695 6.052-9.942 9.205-0.015 0.014-0.030 0.030-0.045 0.044-1.602 1.555-3.185 3.13-4.748 4.721-0.039 0.039-0.077 0.079-0.116 0.119-1.547 1.577-3.075 3.17-4.58 4.777-3.998 4.269-7.877 8.645-11.597 13.142l-2.244 5.235c-0.459 1.075-1.513 1.77-2.683 1.77h-2.78c-1.61 0-2.919-1.31-2.919-2.919v-2.227c0-0.185-0.15-0.335-0.335-0.335h-2.227c-1.61 0-2.919-1.31-2.919-2.919v-2.227c0-0.186-0.15-0.336-0.336-0.336h-2.227c-1.61 0-2.919-1.31-2.919-2.919v-2.226c0-0.186-0.15-0.336-0.335-0.336h-2.227c-1.609 0-2.919-1.31-2.919-2.919v-2.78c0-1.169 0.694-2.222 1.768-2.684l5.237-2.244c1.834-1.518 3.649-3.064 5.447-4.63l-0.005-0.003 1.396-1.234c0.027-0.023 0.054-0.048 0.081-0.072 1.669-1.472 3.325-2.971 4.965-4.489 0.039-0.036 0.077-0.072 0.116-0.108 1.616-1.498 3.218-3.016 4.8-4.552 0.054-0.052 0.107-0.105 0.16-0.156 1.563-1.519 3.108-3.055 4.632-4.606 0.077-0.077 0.152-0.156 0.229-0.234 1.513-1.542 3.004-3.098 4.474-4.667 4.011-4.279 7.901-8.669 11.632-13.178l2.227-5.195c0.473-1.099 1.55-1.81 2.745-1.81h2.667c1.647 0 2.987 1.34 2.984 2.988v2.089c0 0.222 0.182 0.404 0.404 0.404h2.091c1.647 0 2.987 1.341 2.987 2.987v2.090c0 0.222 0.181 0.403 0.403 0.403h2.091c1.647 0 2.987 1.341 2.987 2.988v2.090c0 0.222 0.182 0.404 0.404 0.404h2.090zM50.585 36.316c1.436-1.34 2.884-2.665 4.348-3.975l-20.315-9.782c-1.337 1.418-2.692 2.821-4.057 4.212-0.094 0.096-0.189 0.192-0.283 0.289-1.327 1.347-2.669 2.68-4.021 4.002-0.141 0.137-0.28 0.274-0.421 0.411-1.346 1.308-2.702 2.604-4.073 3.885-0.136 0.126-0.273 0.253-0.408 0.38-1.396 1.302-2.804 2.59-4.226 3.863-0.021 0.018-0.040 0.037-0.061 0.056l20.315 9.782c1.361-1.444 2.741-2.871 4.132-4.288 0.058-0.059 0.116-0.119 0.174-0.178 1.355-1.377 2.724-2.738 4.106-4.087 0.111-0.108 0.222-0.217 0.333-0.326 1.373-1.336 2.758-2.658 4.157-3.965 0.1-0.093 0.2-0.186 0.3-0.279zM24.957 63.493c3.405-4.121 6.944-8.139 10.581-12.075l-20.565-9.902c-2.131 1.87-4.281 3.72-6.465 5.525l-0.314 0.191-5.407 2.317c-0.122 0.053-0.203 0.174-0.203 0.309v2.78c0 0.186 0.15 0.336 0.336 0.336h2.226c1.608 0 2.918 1.31 2.918 2.919v2.226c0 0.186 0.15 0.336 0.336 0.336h2.226c1.61 0 2.919 1.31 2.919 2.919v2.227c0 0.186 0.15 0.336 0.336 0.336h2.227c1.608 0 2.918 1.31 2.918 2.918v2.227c0 0.186 0.15 0.336 0.336 0.336h2.78c0.134 0 0.256-0.079 0.307-0.201zM69.417 22.095h0.004v-2.664c0-0.222-0.182-0.403-0.404-0.403h-2.090c-1.648 0-2.988-1.341-2.988-2.988v-2.090c0-0.222-0.181-0.404-0.403-0.404h-2.091c-1.647 0-2.987-1.341-2.987-2.986v-2.091c0-0.222-0.181-0.403-0.403-0.403h-2.091c-1.648 0-2.988-1.341-2.988-2.988v-2.090c0-0.222-0.181-0.404-0.403-0.404h-2.667c-0.162 0-0.307 0.096-0.369 0.244l-2.492 5.678c-3.404 4.121-6.943 8.14-10.58 12.072l20.564 9.902c2.131-1.87 4.281-3.72 6.465-5.525l0.314-0.191 5.367-2.299c0.147-0.065 0.243-0.209 0.243-0.371zM30.975 30.063c1.586-1.585 3.694-2.461 5.938-2.461s4.352 0.873 5.937 2.459c1.585 1.586 2.459 3.693 2.459 5.937s-0.873 4.352-2.459 5.938c-1.637 1.635-3.787 2.454-5.937 2.454-2.151 0-4.3-0.816-5.938-2.454-3.273-3.274-3.273-8.6 0-11.873zM42.726 36c0-1.553-0.605-3.012-1.701-4.109-1.098-1.098-2.556-1.702-4.11-1.702s-3.012 0.603-4.112 1.702c-2.266 2.266-2.266 5.954 0 8.22 2.268 2.266 5.955 2.266 8.221 0 1.098-1.099 1.702-2.559 1.702-4.112zM51.528 9.512c0.504 0.505 0.504 1.323 0 1.827l-1.827 1.827c-0.252 0.252-0.583 0.378-0.913 0.378s-0.661-0.126-0.913-0.378c-0.505-0.505-0.505-1.322 0-1.827l1.827-1.827c0.505-0.505 1.321-0.505 1.827 0zM55.181 13.165c0.504 0.504 0.504 1.323 0 1.827l-1.827 1.828c-0.252 0.252-0.583 0.378-0.913 0.378s-0.661-0.127-0.913-0.378c-0.505-0.504-0.505-1.321 0-1.827l1.827-1.828c0.505-0.505 1.321-0.505 1.827 0zM58.835 16.819c0.504 0.505 0.504 1.323 0 1.827l-1.827 1.827c-0.252 0.252-0.583 0.378-0.913 0.378s-0.661-0.127-0.913-0.378c-0.505-0.505-0.505-1.321 0-1.827l1.827-1.827c0.505-0.505 1.322-0.505 1.827 0zM60.661 20.474c0.505-0.505 1.321-0.505 1.827 0s0.505 1.322 0 1.827l-1.827 1.827c-0.252 0.252-0.583 0.378-0.913 0.378s-0.661-0.126-0.913-0.378c-0.505-0.505-0.505-1.321 0-1.827zM13.165 47.875c0.505 0.504 0.505 1.321 0 1.827l-1.827 1.827c-0.252 0.252-0.583 0.378-0.913 0.378s-0.661-0.127-0.913-0.378c-0.505-0.505-0.505-1.321 0-1.827l1.827-1.827c0.505-0.505 1.322-0.505 1.827 0zM16.819 51.529c0.504 0.504 0.504 1.322 0 1.827l-1.827 1.827c-0.252 0.252-0.583 0.378-0.913 0.378s-0.661-0.126-0.913-0.378c-0.505-0.505-0.505-1.321 0-1.827l1.827-1.827c0.505-0.505 1.321-0.505 1.827 0zM20.472 55.182c0.504 0.504 0.504 1.322 0 1.827l-1.827 1.827c-0.252 0.252-0.583 0.378-0.913 0.378s-0.661-0.126-0.913-0.378c-0.505-0.505-0.505-1.322 0-1.827l1.827-1.827c0.505-0.505 1.321-0.505 1.827 0zM22.3 58.835c0.504-0.505 1.322-0.505 1.827 0s0.505 1.322 0 1.827l-1.827 1.827c-0.252 0.252-0.583 0.378-0.913 0.378s-0.661-0.126-0.913-0.378c-0.505-0.505-0.505-1.322 0-1.827z"></path>
</svg>
