<!-- Generated by IcoMoon.io -->
<svg version="1.1" xmlns="http://www.w3.org/2000/svg" width="72" height="72" viewBox="0 0 72 72">
<title>uniF1BC</title>
<path d="M58.826 7.143c8.004 0 13.174 6.157 13.174 15.685s-5.171 15.683-13.174 15.683h-36.386c-7.122 0-13.139-4.777-15.045-11.29l-4.095 1.536c-0.261 0.097-0.531 0.144-0.797 0.144-0.624 0-1.23-0.261-1.667-0.747-0.624-0.694-0.757-1.679-0.34-2.512l1.157-2.314-1.562-5.467c-0.27-0.945 0.079-1.916 0.888-2.472 0.81-0.556 1.841-0.539 2.627 0.053l3.821 2.866c1.945-6.452 7.936-11.167 15.014-11.167h36.386zM6.879 24.734c-0.002-0.021-0.001-0.041-0.005-0.063-0.072-0.606-0.118-1.22-0.118-1.846 0-0.61 0.044-1.208 0.112-1.799l-4.153-3.115 1.379 4.825c0.154 0.543 0.102 1.12-0.151 1.625l-0.908 1.814zM22.44 36.001v-0.001h28.629c-0.486-0.376-0.934-0.802-1.36-1.255h-12.116c-0.694 0-1.255-0.561-1.255-1.255s0.561-1.255 1.255-1.255h10.273c-0.227-0.401-0.438-0.819-0.631-1.255h-13.218c-0.694 0-1.255-0.561-1.255-1.255s0.561-1.255 1.255-1.255h12.344c-0.455-1.711-0.709-3.595-0.709-5.646s0.252-3.935 0.709-5.646h-21.45c-0.694 0-1.255-0.561-1.255-1.255s0.561-1.255 1.255-1.255h22.326c0.194-0.435 0.404-0.853 0.631-1.255h-10.41c-0.694 0-1.255-0.561-1.255-1.255s0.561-1.255 1.255-1.255h12.253c0.425-0.453 0.875-0.878 1.36-1.255h-28.631c-6.318 0-11.608 4.473-12.879 10.418l-0.102 0.611c-0.063 0.375-0.107 0.729-0.139 1.070-0.029 0.356-0.054 0.713-0.054 1.075 0 0.419 0.024 0.833 0.063 1.242 0.040 0.412 0.102 0.827 0.182 1.242l0.063 0.32c1.289 5.921 6.564 10.371 12.867 10.371zM58.826 36.001c7.863 0 10.665-6.805 10.665-13.174s-2.802-13.174-10.665-13.174c-7.863 0-10.665 6.805-10.665 13.174s2.802 13.174 10.665 13.174zM62.084 23.33c0.531-0.010 0.954 0.472 0.954 1.078 0 0.605-0.423 1.119-0.954 1.148-0.54 0.030-0.985-0.452-0.985-1.077s0.444-1.139 0.985-1.149zM54.434 25.981c0.674-0.038 1.21 0.483 1.21 1.164s-0.536 1.282-1.21 1.345c-0.687 0.064-1.255-0.456-1.255-1.162s0.567-1.31 1.255-1.347zM54.434 17.198c-0.686-0.051-1.255-0.666-1.255-1.371s0.567-1.215 1.255-1.138c0.674 0.074 1.21 0.686 1.21 1.366 0 0.681-0.536 1.193-1.21 1.143zM63.963 28.686c0.498-0.055 0.896 0.375 0.896 0.962 0 0.586-0.398 1.12-0.896 1.194-0.507 0.075-0.925-0.354-0.925-0.959s0.418-1.142 0.925-1.198zM59.028 28.065c1.161-0.108 2.071 0.821 2.070 2.071 0 1.25-0.91 2.414-2.070 2.607-1.205 0.201-2.216-0.714-2.216-2.051s1.011-2.516 2.216-2.627zM60.080 16.465c-1.164-0.108-2.141-1.263-2.142-2.577 0-1.315 0.977-2.217 2.142-2.023 1.123 0.187 2.004 1.33 2.004 2.56s-0.881 2.144-2.004 2.040zM54.434 22.217c0-1.386 1.087-2.469 2.378-2.421 1.242 0.046 2.216 1.129 2.216 2.421s-0.972 2.375-2.216 2.421c-1.292 0.048-2.378-1.036-2.378-2.421zM64.414 16.867c0.733 0.068 1.314 0.824 1.314 1.69s-0.581 1.547-1.314 1.519c-0.752-0.028-1.375-0.787-1.375-1.694s0.624-1.585 1.375-1.516zM37.254 48.509c1.11 2.345 1.006 4.238 0.522 5.651 0.63 2.154 0.338 4.189-0.878 5.908-2.156 3.042-6.999 4.789-13.291 4.789s-11.135-1.744-13.29-4.788c-1.217-1.719-1.508-3.754-0.878-5.908-0.486-1.413-0.591-3.306 0.521-5.652 1.962-4.14 6.936-6.517 13.647-6.517 6.713 0 11.686 2.375 13.647 6.517zM12.226 49.584c-0.713 1.506-0.813 2.863-0.31 4.045 0.066 0.152 0.144 0.301 0.23 0.447 0.013 0.021 0.021 0.043 0.034 0.064 0.030 0.051 0.070 0.099 0.104 0.151 0.176 0.266 0.378 0.522 0.616 0.763 0.022 0.023 0.046 0.043 0.069 0.065 0.24 0.233 0.512 0.453 0.807 0.662 0.048 0.034 0.090 0.070 0.139 0.103 0.296 0.2 0.624 0.383 0.969 0.558 0.085 0.043 0.166 0.086 0.253 0.128 0.341 0.162 0.708 0.31 1.090 0.448 0.11 0.040 0.221 0.080 0.335 0.118 0.392 0.13 0.803 0.248 1.232 0.354 0.12 0.030 0.242 0.058 0.365 0.085 0.453 0.1 0.921 0.191 1.409 0.265 0.105 0.016 0.213 0.029 0.32 0.044 0.526 0.072 1.064 0.132 1.626 0.172 0.068 0.005 0.138 0.008 0.206 0.011 0.61 0.039 1.236 0.063 1.883 0.063 0.649 0 1.273-0.024 1.884-0.063 0.068-0.004 0.138-0.006 0.204-0.011 0.562-0.040 1.103-0.1 1.629-0.172 0.105-0.015 0.212-0.029 0.316-0.044 0.491-0.075 0.961-0.166 1.415-0.267 0.12-0.026 0.238-0.054 0.356-0.083 0.433-0.107 0.847-0.225 1.242-0.356 0.11-0.036 0.217-0.074 0.324-0.113 0.388-0.139 0.758-0.29 1.103-0.453 0.082-0.040 0.158-0.082 0.238-0.122 0.35-0.178 0.683-0.364 0.982-0.567 0.044-0.030 0.082-0.061 0.124-0.092 0.305-0.215 0.586-0.442 0.831-0.683 0.014-0.013 0.029-0.025 0.043-0.039 0.248-0.248 0.456-0.513 0.637-0.788 0.029-0.044 0.064-0.086 0.092-0.132 0.023-0.038 0.040-0.076 0.061-0.114 0.074-0.13 0.144-0.261 0.203-0.396 0.511-1.182 0.412-2.541-0.304-4.053-2.172-4.586-8.682-5.081-11.38-5.081s-9.207 0.496-11.38 5.083zM34.849 58.619c0.271-0.385 0.469-0.79 0.592-1.223-0.054 0.044-0.118 0.082-0.173 0.124-0.182 0.143-0.375 0.277-0.572 0.41-0.202 0.136-0.412 0.266-0.629 0.393-0.222 0.129-0.446 0.258-0.684 0.378-0.235 0.117-0.486 0.222-0.734 0.329-0.365 0.157-0.741 0.305-1.138 0.439-0.355 0.122-0.714 0.241-1.094 0.344-0.26 0.070-0.535 0.127-0.804 0.188-0.341 0.078-0.686 0.152-1.045 0.216-0.268 0.048-0.542 0.090-0.819 0.129-0.417 0.060-0.844 0.108-1.28 0.148-0.24 0.023-0.474 0.049-0.72 0.065-0.695 0.048-1.407 0.078-2.144 0.078s-1.448-0.030-2.143-0.078c-0.247-0.016-0.484-0.043-0.726-0.065-0.432-0.041-0.856-0.088-1.269-0.147-0.281-0.039-0.557-0.083-0.829-0.13-0.351-0.063-0.69-0.136-1.026-0.212-0.277-0.063-0.557-0.12-0.823-0.192-0.354-0.095-0.686-0.208-1.020-0.32-0.428-0.143-0.836-0.3-1.227-0.469-0.24-0.103-0.483-0.204-0.709-0.317-0.242-0.122-0.467-0.251-0.693-0.383-0.215-0.126-0.422-0.255-0.621-0.389-0.197-0.134-0.391-0.268-0.573-0.412-0.054-0.043-0.119-0.079-0.172-0.123 0.123 0.429 0.321 0.836 0.594 1.221 1.652 2.335 5.854 3.729 11.241 3.729s9.59-1.395 11.242-3.73zM20.12 52.128c0.050-0.496 0.601-0.883 1.23-0.883s1.13 0.388 1.12 0.883c-0.010 0.513-0.563 0.942-1.233 0.942s-1.169-0.429-1.117-0.942zM19.607 47.536c-0.544 0-0.933-0.284-0.869-0.626 0.062-0.331 0.528-0.594 1.045-0.594s0.908 0.262 0.875 0.594c-0.035 0.341-0.505 0.626-1.050 0.626zM28.48 47.536c-0.544 0-1.038-0.284-1.102-0.625-0.062-0.331 0.309-0.593 0.825-0.593s1.005 0.262 1.094 0.593c0.092 0.341-0.273 0.625-0.818 0.625zM16.706 53.078c0.671 0 1.114 0.443 0.987 1.006-0.133 0.586-0.825 1.078-1.544 1.078s-1.148-0.492-0.967-1.078c0.174-0.563 0.854-1.006 1.524-1.006zM15.656 51.245c-1.257 0-2.016-0.747-1.713-1.613 0.284-0.813 1.409-1.435 2.528-1.435s1.911 0.622 1.76 1.435c-0.161 0.867-1.319 1.613-2.576 1.613zM29.132 50.413c-0.194-0.861 0.59-1.52 1.74-1.52s2.341 0.658 2.679 1.52c0.36 0.921-0.381 1.715-1.68 1.715s-2.531-0.794-2.739-1.715zM23.594 49.632c-1.184 0-2.104-0.662-2.056-1.435 0.045-0.726 0.94-1.285 2-1.285s1.977 0.558 2.053 1.285c0.080 0.773-0.812 1.435-1.996 1.435zM28.447 56.311c-1.117 0-2.102-0.785-2.197-1.705-0.089-0.867 0.656-1.536 1.663-1.536s1.972 0.669 2.169 1.536c0.208 0.92-0.518 1.705-1.635 1.705z"></path>
</svg>
