<!-- Generated by IcoMoon.io -->
<svg version="1.1" xmlns="http://www.w3.org/2000/svg" width="72" height="72" viewBox="0 0 72 72">
<title>uniF132</title>
<path d="M49.369 51.795c0.581 0.159 1.115 0.461 1.563 0.891 0.704 0.677 1.102 1.589 1.12 2.566 0.018 0.979-0.344 1.905-1.023 2.609-0.149 0.154-0.31 0.293-0.483 0.417 0.155 1.076 0.155 2.057 0.004 2.979-1.006 6.125-6.442 10.743-12.645 10.743-4.327 0-7.64-1.893-10.112-5.781-0.791-0.090-1.533-0.433-2.111-0.991-1.302-1.256-1.474-3.25-0.488-4.697-0.002-0.005-0.004-0.010-0.005-0.015-0.056-0.167-0.321-1.125-0.669-2.551-0.56-0.165-1.074-0.46-1.501-0.87-1.455-1.4-1.498-3.723-0.099-5.177 0.078-0.081 0.161-0.157 0.248-0.232-0.113-0.602-0.228-1.225-0.342-1.87-0.731-0.242-1.368-0.709-1.822-1.352-0.563-0.798-0.782-1.769-0.615-2.732 0.165-0.957 0.688-1.791 1.477-2.355-0.094-0.777-0.183-1.569-0.264-2.371-0.587-0.265-1.095-0.682-1.477-1.222-1.163-1.651-0.768-3.939 0.881-5.103 0.054-0.038 0.109-0.074 0.165-0.109-0.024-0.751-0.039-1.5-0.041-2.241-0.393-0.251-0.732-0.575-1.004-0.96-1.163-1.65-0.768-3.938 0.881-5.102 0.122-0.084 0.249-0.162 0.379-0.232 0.076-0.814 0.167-1.608 0.273-2.377-0.903-0.679-1.45-1.743-1.45-2.915 0-1.76 1.246-3.233 2.902-3.583 0.145-0.452 0.299-0.891 0.458-1.319-0.587-0.659-0.919-1.512-0.919-2.42 0-2.147 1.922-3.872 4.041-3.642 0.254-0.388 0.559-0.84 0.91-1.328-0.254-0.504-0.388-1.060-0.388-1.633 0-2.018 1.643-3.661 3.661-3.661 0.443 0 0.875 0.079 1.282 0.234 2.663-2.253 5.384-3.395 8.098-3.395 3.13 0 5.941 1.108 7.916 3.122 1.719 1.755 2.708 4.1 2.826 6.668 0.959 0.675 1.545 1.776 1.545 2.985 0 1.618-1.048 2.993-2.52 3.472-0.118 0.61-0.232 1.222-0.339 1.833 0.736 0.683 1.169 1.646 1.169 2.67 0 1.412-0.82 2.677-2.043 3.283-0.087 0.753-0.165 1.506-0.236 2.26 0.331 0.236 0.621 0.528 0.858 0.865 0.563 0.797 0.782 1.768 0.615 2.731-0.166 0.964-0.698 1.805-1.497 2.369-0.12 0.084-0.245 0.16-0.373 0.23-0.022 0.692-0.035 1.385-0.043 2.077 0.421 0.256 0.783 0.593 1.071 1.002 0.564 0.798 0.782 1.769 0.616 2.732-0.167 0.964-0.699 1.805-1.499 2.369-0.028 0.019-0.057 0.039-0.085 0.059 0.038 0.775 0.085 1.551 0.14 2.326 0.561 0.266 1.047 0.674 1.414 1.195 0.564 0.798 0.782 1.769 0.616 2.732-0.16 0.924-0.655 1.735-1.4 2.298 0.116 0.882 0.234 1.717 0.36 2.519zM49.27 56.169c0.226-0.234 0.347-0.543 0.344-0.869-0.006-0.325-0.139-0.629-0.373-0.854-0.238-0.228-0.549-0.331-0.887-0.338l-1.068 0.037-0.177-1.054c-0.223-1.342-0.427-2.754-0.621-4.319l-0.116-0.936 0.876-0.349c0.111-0.044 0.195-0.085 0.261-0.133 0.266-0.187 0.443-0.467 0.498-0.788 0.055-0.322-0.017-0.644-0.205-0.912-0.188-0.265-0.466-0.441-0.787-0.497l-0.932-0.163-0.074-0.943c-0.105-1.34-0.188-2.68-0.242-4.021l-0.037-0.915 0.869-0.29c0.139-0.046 0.242-0.095 0.322-0.151 0.265-0.187 0.442-0.467 0.497-0.788s-0.017-0.644-0.205-0.912c-0.194-0.276-0.461-0.399-0.651-0.455l-0.879-0.26 0.004-0.916c0.006-1.25 0.028-2.5 0.079-3.749l0.038-0.931 0.908-0.209c0.157-0.035 0.304-0.1 0.432-0.19 0.266-0.187 0.443-0.467 0.498-0.788 0.055-0.322-0.017-0.644-0.205-0.912-0.143-0.201-0.34-0.353-0.574-0.439l-0.871-0.323 0.079-0.926c0.112-1.297 0.244-2.591 0.405-3.886l0.107-0.869 0.857-0.177c0.563-0.116 0.97-0.619 0.97-1.195 0-0.439-0.247-0.846-0.643-1.063l-0.764-0.416 0.145-0.859c0.194-1.152 0.406-2.301 0.639-3.449l0.19-0.936 0.953-0.040c0.657-0.028 1.169-0.56 1.169-1.211 0-0.499-0.301-0.943-0.768-1.129l-0.783-0.315 0.016-0.842c0.043-2.199-0.716-4.209-2.139-5.659-1.51-1.54-3.701-2.387-6.171-2.387-2.305 0-4.695 1.12-7.102 3.328l-0.744 0.685-0.81-0.605c-0.151-0.112-0.399-0.247-0.724-0.247-0.672 0-1.22 0.547-1.22 1.22 0 0.389 0.182 0.665 0.337 0.821l0.701 0.749-0.618 0.819c-0.807 1.069-1.412 2.001-1.777 2.594l-0.548 0.89-0.963-0.404c-0.77-0.318-1.693 0.289-1.693 1.126 0 0.419 0.216 0.803 0.577 1.030l0.873 0.547-0.392 0.952c-0.345 0.838-0.663 1.75-0.943 2.712l-0.274 0.94-1.136-0.081c-0.597 0.004-1.145 0.55-1.145 1.224 0 0.504 0.306 0.95 0.781 1.134l0.915 0.355-0.153 0.971c-0.187 1.192-0.335 2.466-0.439 3.788l-0.069 0.88-0.858 0.21c-0.155 0.037-0.294 0.099-0.414 0.183-0.549 0.388-0.681 1.151-0.293 1.701 0.185 0.262 0.436 0.388 0.614 0.447l0.841 0.279-0.005 0.886c-0.007 1.22 0.017 2.471 0.070 3.717l0.040 0.952-0.915 0.27c-0.147 0.043-0.26 0.095-0.352 0.16-0.552 0.389-0.683 1.152-0.295 1.702 0.19 0.268 0.478 0.447 0.809 0.498l0.939 0.148 0.087 0.946c0.124 1.345 0.273 2.663 0.438 3.941l0.127 0.977-0.929 0.329c-0.131 0.046-0.225 0.091-0.297 0.142-0.55 0.389-0.683 1.152-0.295 1.702 0.215 0.304 0.559 0.487 0.943 0.505l0.984 0.045 0.164 0.971c0.206 1.22 0.42 2.37 0.63 3.44l0.183 0.931-0.858 0.406c-0.148 0.071-0.267 0.154-0.365 0.255-0.466 0.483-0.45 1.258 0.034 1.724 0.218 0.21 0.513 0.33 0.826 0.334l0.95 0.016 0.218 0.925c0.454 1.925 0.77 3.041 0.802 3.142 0.051 0.151 0.106 0.304 0.161 0.456l0.333 0.935-0.718 0.653c-0.41 0.43-0.394 1.205 0.090 1.671 0.345 0.336 0.759 0.347 0.977 0.323l0.787-0.085 0.399 0.685c2.057 3.524 4.715 5.167 8.364 5.167 5.020 0 9.422-3.738 10.236-8.697 0.137-0.825 0.1-1.743-0.107-2.809l-0.242-1.239 0.997-0.349c0.195-0.067 0.356-0.168 0.481-0.297zM38.343 12.203c-0.674 0-1.22-0.545-1.22-1.22 0-0.253-0.205-0.458-0.458-0.458s-0.458 0.205-0.458 0.458c0 0.675-0.547 1.22-1.22 1.22s-1.22-0.545-1.22-1.22c0-1.599 1.3-2.898 2.898-2.898s2.898 1.3 2.898 2.898c0 0.675-0.547 1.22-1.22 1.22zM41.413 15.864c1.597 0 2.898 1.3 2.898 2.898 0 0.675-0.547 1.22-1.22 1.22s-1.22-0.545-1.22-1.22c0-0.253-0.205-0.458-0.458-0.458s-0.458 0.205-0.458 0.458c0 0.675-0.547 1.22-1.22 1.22s-1.22-0.545-1.22-1.22c0-1.599 1.3-2.898 2.898-2.898zM30.351 39.456c0-0.253-0.205-0.458-0.458-0.458s-0.458 0.205-0.458 0.458c0 0.675-0.547 1.22-1.22 1.22s-1.22-0.545-1.22-1.22c0-1.599 1.3-2.898 2.898-2.898s2.898 1.3 2.898 2.898c0 0.675-0.547 1.22-1.22 1.22s-1.22-0.545-1.22-1.22zM40.498 58.576c1.597 0 2.898 1.3 2.898 2.898 0 0.675-0.547 1.22-1.22 1.22s-1.22-0.545-1.22-1.22c0-0.253-0.205-0.458-0.458-0.458s-0.458 0.205-0.458 0.458c0 0.675-0.547 1.22-1.22 1.22s-1.22-0.545-1.22-1.22c0-1.599 1.3-2.898 2.898-2.898zM38.515 32.949c-0.675 0-1.22-0.545-1.22-1.22 0-1.599 1.3-2.898 2.898-2.898s2.898 1.3 2.898 2.898c0 0.675-0.547 1.22-1.22 1.22s-1.22-0.545-1.22-1.22c0-0.253-0.205-0.458-0.458-0.458s-0.458 0.205-0.458 0.458c0 0.675-0.547 1.22-1.22 1.22zM32.792 50.798c1.597 0 2.898 1.3 2.898 2.898 0 0.675-0.547 1.22-1.22 1.22s-1.22-0.546-1.22-1.22c0-0.253-0.205-0.458-0.458-0.458s-0.458 0.205-0.458 0.458c0 0.675-0.547 1.22-1.22 1.22s-1.22-0.546-1.22-1.22c0-1.599 1.3-2.898 2.898-2.898zM32.871 21.966c1.597 0 2.898 1.3 2.898 2.898 0 0.675-0.547 1.22-1.22 1.22s-1.22-0.545-1.22-1.22c0-0.253-0.205-0.458-0.458-0.458s-0.458 0.205-0.458 0.458c0 0.675-0.547 1.22-1.22 1.22s-1.22-0.545-1.22-1.22c0-1.599 1.3-2.898 2.898-2.898zM40.498 41.034c1.597 0 2.898 1.3 2.898 2.898 0 0.675-0.547 1.22-1.22 1.22s-1.22-0.545-1.22-1.22c0-0.253-0.205-0.458-0.458-0.458s-0.458 0.205-0.458 0.458c0 0.675-0.547 1.22-1.22 1.22s-1.22-0.545-1.22-1.22c0-1.599 1.3-2.898 2.898-2.898z"></path>
</svg>
