<!-- Generated by IcoMoon.io -->
<svg version="1.1" xmlns="http://www.w3.org/2000/svg" width="72" height="72" viewBox="0 0 72 72">
<title>uniF19B</title>
<path d="M52.077 15.103c8.185 0 14.843 6.658 14.843 14.843l-2.479 27.323c0.005 8.906-4.85 14.731-12.364 14.731-2.861 0-5.613-0.831-8.021-2.396-2.323 1.509-5.087 2.396-8.058 2.396s-5.736-0.887-8.058-2.396c-2.408 1.565-5.16 2.396-8.021 2.396-7.514 0-12.369-5.826-12.369-14.843l-2.469-27.101c-0.005-8.296 6.653-14.954 14.838-14.954 2.861 0 5.614 0.83 8.021 2.396 2.323-1.509 5.087-2.396 8.058-2.396s5.736 0.887 8.058 2.396c2.408-1.565 5.16-2.396 8.021-2.396zM19.918 69.526c2.095 0 4.124-0.533 5.949-1.551-2.892-2.71-4.713-6.551-4.713-10.818v-27.212c0-4.267 1.821-8.108 4.713-10.818-1.826-1.018-3.854-1.551-5.949-1.551-6.82 0-12.369 5.549-12.369 12.369l2.469 27.1c0.005 6.091 2.605 12.48 9.9 12.48zM29.224 67.494c1.947 1.281 4.275 2.031 6.774 2.031s4.825-0.752 6.773-2.032l0.532-0.392c2.361-1.742 4.010-4.249 4.7-7.019 0.009-0.033 0.019-0.066 0.026-0.099 0.097-0.4 0.166-0.808 0.221-1.217 0.009-0.072 0.025-0.14 0.032-0.212 0.053-0.461 0.084-0.928 0.084-1.396v-27.212c0-0.469-0.030-0.935-0.084-1.396-0.007-0.072-0.022-0.141-0.032-0.211-0.056-0.41-0.125-0.816-0.221-1.217-0.009-0.033-0.017-0.066-0.026-0.099-0.69-2.771-2.339-5.277-4.7-7.019l-0.532-0.392c-1.947-1.281-4.273-2.032-6.773-2.032-2.499 0-4.823 0.75-6.769 2.029l-0.537 0.396c-2.36 1.742-4.009 4.247-4.699 7.017-0.007 0.033-0.019 0.067-0.026 0.101-0.096 0.4-0.166 0.806-0.221 1.216-0.009 0.072-0.023 0.141-0.032 0.213-0.053 0.461-0.084 0.928-0.084 1.396v27.212c0 0.469 0.030 0.935 0.084 1.396 0.007 0.072 0.022 0.141 0.032 0.213 0.056 0.409 0.125 0.816 0.221 1.216 0.008 0.033 0.017 0.067 0.026 0.101 0.69 2.771 2.339 5.277 4.699 7.018zM61.972 57.157l2.479-27.323c-0.005-6.709-5.554-12.258-12.374-12.258-2.095 0-4.124 0.533-5.949 1.551 2.892 2.71 4.713 6.551 4.713 10.818v27.212c0 4.266-1.819 8.108-4.713 10.818 1.824 1.018 3.854 1.551 5.949 1.551 7.295 0 9.895-6.39 9.895-12.369zM39.489 13.621c-1.278 0.001-2.783 0.011-4.255 0.073l-1.636 0.069 0.381-1.593c0.601-2.51 1.72-4.714 3.327-6.551 2.349-2.684 5.671-4.479 9.874-5.335l1.398-0.285 0.084 1.425c0.084 1.436 0.066 2.915 0.032 4.301l-0.022 0.942-0.915 0.228c-2.383 0.594-4.231 1.624-5.492 3.065-0.695 0.795-1.236 1.745-1.607 2.826l-0.287 0.834h-0.882zM39.167 7.25c-0.996 1.138-1.769 2.452-2.307 3.921 0.612-0.012 1.212-0.019 1.781-0.021 0.451-1.049 1.043-1.994 1.764-2.818 1.425-1.629 3.385-2.831 5.836-3.582 0.009-0.562 0.011-1.132 0.004-1.699-2.983 0.827-5.36 2.236-7.078 4.199z"></path>
</svg>
