<!-- Generated by IcoMoon.io -->
<svg version="1.1" xmlns="http://www.w3.org/2000/svg" width="72" height="72" viewBox="0 0 72 72">
<title>uniF1B8</title>
<path d="M71.742 44.45c0.398 0.775 0.33 1.695-0.176 2.401l-0.143 0.201-6.244 3.779c-0.285 0.494-0.478 1.192-0.667 1.869-0.433 1.556-1.025 3.685-3.308 3.685h-50.371c-2.284 0-2.876-2.13-3.308-3.685-0.188-0.678-0.383-1.373-0.667-1.867l-6.283-3.779-0.144-0.203c-0.505-0.709-0.573-1.629-0.175-2.403s1.186-1.255 2.057-1.255h1.337c0.062-1.413 1.406-2.31 2.234-2.794 0.054-0.724 0.247-1.827 0.886-2.52 0.361-0.392 0.815-0.607 1.317-0.624 0.139-0.005 0.628-0.204 1.013-0.667 0.197-0.236 0.419-0.608 0.354-1.033-0.020-0.145-0.026-0.29-0.019-0.434-0.951-0.685-1.287-1.98-0.727-3.049l1.671-3.187c0.296-0.565 0.796-0.983 1.409-1.174 0.613-0.192 1.259-0.134 1.828 0.163l3.187 1.671c0.566 0.296 0.985 0.797 1.175 1.41 0.080 0.26 0.107 0.525 0.1 0.789 1-0.24 2.029-0.469 3.092-0.684l4.898-5.435c0.815-0.904 2.216-0.979 3.119-0.163l1.174 1.058c0.904 0.818 0.976 2.216 0.162 3.121l-0.013 0.014c1.041-0.105 2.101-0.192 3.173-0.269 0.306-2.353 2.3-4.182 4.735-4.182 2.342 0 4.29 1.689 4.707 3.911 1.21 0.019 2.449 0.062 3.713 0.126-0.065-0.502 0.025-1.011 0.276-1.463 0.311-0.561 0.82-0.967 1.436-1.143l3.459-0.991c0.614-0.175 1.263-0.101 1.824 0.21s0.967 0.82 1.143 1.435l0.991 3.459c0.056 0.194 0.078 0.39 0.084 0.586 1.189 0.543 2.063 1.644 2.279 2.962 1.466 0.014 2.714 0.955 3.189 2.263 0.181 0.016 0.35 0.040 0.506 0.074 1.334 0.311 2.456 1.361 2.858 2.676 0.118 0.384 0.149 0.807 0.1 1.295-0.041 0.398 0.169 0.794 0.56 1.060 0.57 0.386 1.007 0.918 1.307 1.528h2.834c0.871 0 1.659 0.48 2.058 1.255zM52.672 27.952l-3.459 0.991 0.991 3.456 3.459-0.988zM38.419 27.605c-1.323 0-2.399 1.077-2.396 2.397 0 0.073 0.016 0.142 0.022 0.212l0.016 0.116c0.081 0.588 0.375 1.103 0.794 1.473 0.005 0.005 0.011 0.009 0.017 0.014 0.097 0.084 0.201 0.161 0.312 0.229 0.023 0.013 0.047 0.025 0.071 0.038 0.097 0.056 0.197 0.107 0.301 0.149 0.054 0.022 0.113 0.036 0.169 0.053 0.081 0.025 0.161 0.053 0.245 0.070 0.146 0.027 0.297 0.045 0.452 0.045 0.162 0 0.319-0.017 0.472-0.048 0.037-0.007 0.071-0.022 0.108-0.031 0.113-0.028 0.225-0.059 0.332-0.103 0.045-0.019 0.087-0.046 0.132-0.067 0.089-0.044 0.179-0.089 0.261-0.143 0.060-0.040 0.114-0.086 0.17-0.131s0.113-0.088 0.166-0.137c0.077-0.074 0.148-0.155 0.215-0.24 0.019-0.024 0.040-0.047 0.059-0.072 0.254-0.348 0.419-0.77 0.456-1.234l0.020-0.248c-0.030-1.296-1.089-2.343-2.393-2.343zM27.724 27.376l-4.818 5.345 0.891 0.802 4.818-5.345zM12.504 30.002l-1.671 3.188 3.184 1.668 1.673-3.185zM7.294 42.358c-0.716 0.41-1.040 0.674-1.179 0.839h12.791c-0.185-0.241-0.281-0.552-0.24-0.877l0.205-1.651c0.080-0.657 0.679-1.127 1.337-1.042 0.657 0.080 1.124 0.68 1.042 1.337l-0.205 1.651c-0.028 0.225-0.131 0.416-0.261 0.582h42.855c-0.759-0.757-1.153-1.789-1.046-2.83 0.024-0.235-0.001-0.336-0.007-0.354-0.154-0.501-0.599-0.92-1.106-1.039-0.167-0.038-0.625-0.040-0.775-0.041-1.346-0.005-1.384-1.082-1.384-1.205 0-0.566-0.461-1.028-1.028-1.028-1.121 0-2.313-0.617-2.313-1.757 0-0.687-0.449-1.277-1.076-1.489-0.002 0.002-0.006 0.002-0.010 0.005-0.179 0.108-0.368 0.202-0.574 0.261l-3.459 0.991c-0.009 0.002-0.017 0.001-0.025 0.004-0.187 0.053-0.377 0.074-0.567 0.080-0.023 0-0.045 0.010-0.068 0.010-0.031 0-0.062-0.011-0.094-0.012-0.135-0.005-0.267-0.022-0.399-0.050-0.050-0.011-0.102-0.019-0.152-0.034-0.176-0.050-0.35-0.115-0.514-0.206h-0.002c-0.325-0.181-0.59-0.434-0.796-0.73-0.15-0.214-0.272-0.447-0.347-0.705l-0.399-1.394c-1.551-0.090-3.070-0.144-4.541-0.168-0.005 0.013-0.012 0.025-0.017 0.038-0.074 0.217-0.162 0.426-0.265 0.628l-0.036 0.065c-0.431 0.811-1.080 1.479-1.878 1.93-0.089 0.052-0.176 0.101-0.269 0.146-0.137 0.066-0.276 0.126-0.42 0.179-0.146 0.055-0.295 0.098-0.447 0.139-0.114 0.030-0.225 0.064-0.342 0.085-0.282 0.053-0.57 0.087-0.866 0.087-0.293 0-0.578-0.035-0.857-0.086-0.104-0.019-0.205-0.048-0.307-0.073-0.164-0.042-0.325-0.091-0.483-0.15-0.124-0.046-0.243-0.091-0.362-0.146-0.116-0.055-0.227-0.121-0.338-0.185-0.306-0.174-0.59-0.374-0.849-0.608-0.019-0.018-0.040-0.031-0.059-0.049-0.142-0.132-0.268-0.276-0.392-0.423-0.043-0.051-0.087-0.102-0.128-0.156-0.12-0.154-0.229-0.313-0.33-0.481-0.028-0.044-0.050-0.091-0.076-0.138-0.098-0.179-0.196-0.356-0.271-0.547-2.017 0.144-3.989 0.339-5.874 0.585l-2.637 2.926c-0.018 0.019-0.040 0.032-0.058 0.052-0.090 0.091-0.182 0.179-0.284 0.253-0.038 0.028-0.079 0.047-0.119 0.072-0.089 0.056-0.179 0.112-0.275 0.155-0.042 0.019-0.087 0.030-0.131 0.047-0.096 0.036-0.192 0.070-0.293 0.092-0.049 0.011-0.101 0.016-0.151 0.023-0.073 0.011-0.144 0.029-0.218 0.032-0.022 0.001-0.043-0.004-0.065-0.004-0.016 0-0.032 0.005-0.049 0.005-0.091 0-0.183-0.013-0.275-0.025-0.017-0.002-0.035-0.002-0.051-0.005-0.275-0.041-0.543-0.131-0.79-0.276-0.004-0.001-0.007-0.002-0.011-0.005-0.122-0.073-0.24-0.157-0.35-0.257l-1.173-1.056c-0.118-0.106-0.22-0.221-0.308-0.344-0.025-0.035-0.042-0.073-0.065-0.109-0.059-0.092-0.115-0.183-0.16-0.282-0.004-0.006-0.008-0.012-0.011-0.018-1.287 0.276-2.528 0.572-3.703 0.886l-0.768 1.466c-0.044 0.084-0.102 0.157-0.155 0.234-0.037 0.054-0.068 0.114-0.109 0.164-0.031 0.037-0.068 0.066-0.101 0.102-0.074 0.081-0.149 0.164-0.235 0.235-0.010 0.008-0.022 0.014-0.032 0.023-0.229 0.182-0.491 0.326-0.778 0.416-0.008 0.002-0.017 0.001-0.025 0.004-0.196 0.059-0.398 0.084-0.603 0.092-0.030 0.001-0.061 0.014-0.091 0.014s-0.060-0.010-0.091-0.011c-0.113-0.004-0.224-0.020-0.337-0.041-0.061-0.012-0.122-0.018-0.182-0.034-0.162-0.043-0.321-0.102-0.476-0.181-0.007-0.004-0.014-0.005-0.022-0.008l-1.106-0.579c-0.127 0.598-0.415 1.193-0.855 1.722-0.667 0.802-1.608 1.368-2.473 1.502-0.124 0.288-0.233 0.896-0.209 1.38 0.036 0.772-0.546 1.106-0.97 1.349zM63.491 49.053l5.715-3.459h-20.267c-0.119 0.040-1.335 0-1.335 0h-44.802l5.747 3.458 0.144 0.203c0.599 0.837 0.889 1.883 1.145 2.805 0.426 1.533 0.631 1.93 0.997 1.93h50.371c0.366 0 0.571-0.397 0.997-1.93 0.257-0.922 0.547-1.968 1.145-2.805zM19.024 35.29c0.547 0.374 0.688 1.12 0.315 1.667l-0.937 1.374c-0.232 0.342-0.609 0.524-0.992 0.524-0.234 0-0.468-0.068-0.675-0.209-0.547-0.374-0.69-1.12-0.315-1.667l0.937-1.374c0.373-0.548 1.12-0.687 1.667-0.315zM14.84 39.452c0.564 0.348 0.738 1.085 0.39 1.649-0.227 0.367-0.62 0.57-1.022 0.57-0.213 0-0.432-0.056-0.628-0.179l-1.416-0.874c-0.564-0.348-0.738-1.085-0.39-1.65 0.347-0.563 1.083-0.741 1.65-0.39zM22.157 39.271c-0.66-0.051-1.154-0.627-1.102-1.288s0.63-1.169 1.288-1.103l1.657 0.128c0.661 0.051 1.155 0.627 1.103 1.288-0.049 0.63-0.573 1.107-1.194 1.107-0.031 0-0.062-0.001-0.094-0.004zM28.472 39.791c0.374-0.548 1.119-0.686 1.667-0.315 0.547 0.373 0.69 1.119 0.315 1.667l-0.937 1.374c-0.231 0.342-0.609 0.524-0.992 0.524-0.234 0-0.468-0.068-0.675-0.209-0.547-0.373-0.69-1.119-0.315-1.667zM26.864 36.427c-0.564-0.348-0.738-1.087-0.39-1.651 0.347-0.564 1.083-0.74 1.65-0.39l1.416 0.874c0.564 0.348 0.738 1.085 0.39 1.65-0.227 0.367-0.62 0.57-1.022 0.57-0.214 0-0.432-0.056-0.629-0.179zM55.293 41.667c-0.233 0-0.468-0.068-0.675-0.209-0.547-0.374-0.69-1.12-0.315-1.667l0.938-1.375c0.373-0.548 1.123-0.687 1.667-0.315 0.547 0.374 0.69 1.12 0.315 1.667l-0.938 1.374c-0.231 0.342-0.609 0.524-0.992 0.524zM50.599 37.021c-0.564-0.348-0.738-1.085-0.39-1.651 0.345-0.564 1.084-0.741 1.65-0.39l1.416 0.874c0.564 0.348 0.737 1.085 0.39 1.65-0.227 0.367-0.62 0.57-1.022 0.57-0.213 0-0.432-0.056-0.628-0.179zM33.615 36.458c-0.661-0.051-1.155-0.627-1.103-1.288s0.613-1.15 1.288-1.103l1.66 0.128c0.661 0.051 1.155 0.627 1.103 1.288-0.049 0.63-0.573 1.107-1.194 1.107-0.030 0-0.063-0.001-0.094-0.004zM34.809 39.208l1.607 0.431c0.64 0.171 1.021 0.83 0.848 1.469-0.144 0.536-0.628 0.889-1.157 0.889-0.103 0-0.207-0.013-0.312-0.041l-1.607-0.431c-0.64-0.171-1.021-0.83-0.848-1.469 0.173-0.64 0.833-1.022 1.469-0.848zM41.175 40.465c-0.2-0.631 0.149-1.306 0.779-1.506l1.587-0.504c0.637-0.203 1.307 0.15 1.506 0.779 0.2 0.632-0.149 1.306-0.779 1.506l-1.587 0.504c-0.121 0.038-0.243 0.056-0.364 0.056-0.51 0-0.981-0.325-1.143-0.836zM39.704 38.399c-0.308 0-0.615-0.117-0.85-0.354-0.468-0.47-0.465-1.229 0.005-1.696l1.18-1.174c0.47-0.469 1.228-0.465 1.696 0.005s0.465 1.229-0.005 1.696l-1.18 1.174c-0.234 0.233-0.54 0.349-0.846 0.349zM48.138 40.315l-0.425-1.61c-0.169-0.642 0.214-1.298 0.853-1.467 0.639-0.17 1.298 0.211 1.467 0.853l0.425 1.61c0.169 0.642-0.214 1.298-0.853 1.467-0.103 0.026-0.206 0.040-0.308 0.040-0.531 0-1.017-0.355-1.159-0.892zM44.151 34.665c-0.661-0.052-1.154-0.628-1.102-1.289 0.051-0.662 0.637-1.154 1.289-1.102l1.66 0.13c0.661 0.052 1.154 0.628 1.102 1.289-0.049 0.63-0.575 1.106-1.195 1.106-0.031 0-0.064-0.001-0.095-0.004zM29.057 24.668l-0.992-3.459c-0.176-0.615-0.101-1.263 0.21-1.824s0.82-0.967 1.436-1.143l3.459-0.991c0.614-0.177 1.263-0.101 1.824 0.21s0.967 0.82 1.143 1.436l0.991 3.459c0.176 0.615 0.101 1.263-0.21 1.824s-0.82 0.967-1.436 1.143l-3.459 0.991c-0.218 0.064-0.44 0.094-0.662 0.094-0.402 0-0.8-0.102-1.162-0.303-0.561-0.311-0.967-0.82-1.142-1.436zM33.83 19.557l-3.459 0.991 0.991 3.456 3.459-0.988zM31.362 24.007v0zM19.23 30.003c-2.646 0-4.797-2.152-4.797-4.797s2.152-4.797 4.797-4.797c2.646 0 4.797 2.152 4.797 4.797s-2.152 4.797-4.797 4.797zM19.23 22.808c-1.323 0-2.399 1.076-2.399 2.399s1.076 2.399 2.399 2.399 2.399-1.076 2.399-2.399c0-1.323-1.076-2.399-2.399-2.399zM42.355 26.236l-2.603-7.114c-0.203-0.554-0.177-1.154 0.072-1.689 0.248-0.535 0.691-0.942 1.245-1.144l1.481-0.542c0.555-0.203 1.155-0.178 1.689 0.072 0.535 0.247 0.941 0.69 1.144 1.242l2.604 7.117c0.201 0.555 0.176 1.155-0.073 1.69-0.248 0.535-0.691 0.94-1.245 1.143l-1.481 0.542c-0.247 0.090-0.505 0.136-0.76 0.136-0.317 0-0.632-0.070-0.928-0.207-0.535-0.248-0.942-0.691-1.144-1.245zM43.197 18.064l-1.126 0.413 2.473 6.758 1.125-0.413zM60.007 49.193c0.663 0 1.199 0.536 1.199 1.199s-0.536 1.199-1.199 1.199h-37.197c-0.663 0-1.199-0.536-1.199-1.199s0.536-1.199 1.199-1.199h37.197zM16.916 49.193c0.663 0 1.199 0.536 1.199 1.199s-0.536 1.199-1.199 1.199h-4.882c-0.663 0-1.199-0.536-1.199-1.199s0.536-1.199 1.199-1.199h4.882z"></path>
</svg>
