<!-- Generated by IcoMoon.io -->
<svg version="1.1" xmlns="http://www.w3.org/2000/svg" width="72" height="72" viewBox="0 0 72 72">
<title>uniF188</title>
<path d="M49.655 13.2c1.734 0 3.145 1.411 3.145 3.145v51.898c0 2.072-1.685 3.757-3.757 3.757h-26.086c-2.072 0-3.757-1.685-3.757-3.757v-51.898c0-1.734 1.411-3.145 3.145-3.145h5.657l5.538-13.2h4.92l5.538 13.2h5.657zM50.4 16.345c0-0.412-0.334-0.745-0.745-0.745h-2.855v4.8h3.6v-4.055zM27.6 15.6v4.8h3.6v-4.8h-3.6zM33.6 15.6v4.8h3.6v-4.8h-3.6zM39.6 15.6v4.8h4.8v-4.8h-4.8zM35.136 2.4l-4.532 10.8h10.79l-4.531-10.8h-1.727zM22.345 15.6c-0.412 0-0.745 0.334-0.745 0.745v4.055h3.6v-4.8h-2.855zM49.043 69.6c0.749 0 1.357-0.608 1.357-1.357v-45.443h-28.8v45.443c0 0.749 0.608 1.357 1.357 1.357h26.086zM22.303 45.6l13.697-13.697 13.697 13.697-13.697 13.697zM36 55.903l10.303-10.303-10.303-10.303-10.303 10.303z"></path>
</svg>
