<!-- Generated by IcoMoon.io -->
<svg version="1.1" xmlns="http://www.w3.org/2000/svg" width="72" height="72" viewBox="0 0 72 72">
<title>uniF101</title>
<path d="M58.070 21.909c4.69 3.692 6.943 10.999 6.884 22.339-0.044 8.376-4.867 18.040-11.732 23.502-3.532 2.81-7.27 4.25-10.963 4.25-1.047 0-2.091-0.116-3.127-0.349-2.050-0.462-4.212-0.462-6.263 0-4.682 1.057-9.557-0.294-14.091-3.901-6.865-5.46-11.69-15.125-11.732-23.502-0.058-11.339 2.194-18.646 6.885-22.338 5.235-4.122 12.657-2.98 18.534-1.525 0.556 0.139 1.119 0.238 1.687 0.31-0.895-4.026-2.944-8.032-6.657-10.012-0.592-0.316-0.818-1.052-0.501-1.646 0.318-0.592 1.052-0.819 1.647-0.501 2.675 1.427 4.614 3.69 5.962 6.278l0.395-2.655c0.866-5.818 5.358-10.309 11.176-11.176l6.594-0.982-0.238 1.607c0.009 0.165-0.013 0.328-0.072 0.485l-0.67 4.502c-0.866 5.818-5.358 10.31-11.176 11.176l-4.542 0.676c0.235 0.772 0.427 1.551 0.581 2.327 0.972-0.043 1.941-0.156 2.886-0.39 5.878-1.455 13.296-2.596 18.534 1.525zM40.251 15.363c4.752-0.707 8.421-4.375 9.127-9.127l0.159-1.067-10.353 10.353zM46.531 3.389c-4.752 0.708-8.421 4.375-9.128 9.127l-0.236 1.584 10.946-10.946zM51.708 65.846c6.227-4.954 10.776-14.043 10.814-21.609 0.055-10.54-1.893-17.218-5.956-20.415-3.441-2.705-8.515-3.036-16.447-1.075-1.021 0.252-2.064 0.378-3.112 0.439 0.060 0.586 0.103 1.166 0.122 1.73 0.021 0.672-0.505 1.232-1.177 1.254h-0.039c-0.653 0-1.193-0.52-1.214-1.177-0.019-0.596-0.066-1.21-0.135-1.833-0.904-0.075-1.803-0.196-2.683-0.414-7.932-1.962-13.007-1.631-16.447 1.075-4.062 3.197-6.010 9.873-5.956 20.414 0.039 7.57 4.587 16.657 10.814 21.612 2.744 2.185 7.067 4.554 12.041 3.43 1.199-0.27 2.433-0.405 3.666-0.405 1.235 0 2.468 0.135 3.667 0.405 4.984 1.126 9.297-1.246 12.041-3.43zM24.074 24.557c0.673 0 1.216 0.545 1.216 1.216s-0.544 1.216-1.216 1.216c-4.694 0-8.515 4.366-8.515 9.731 0 0.671-0.544 1.216-1.216 1.216s-1.216-0.545-1.216-1.216c0-6.707 4.911-12.164 10.948-12.164zM39.496 24.913c0.476-0.476 1.244-0.476 1.72 0 0.476 0.474 0.476 1.244 0 1.72-1.446 1.448-3.37 2.244-5.412 2.244s-3.967-0.798-5.413-2.244c-0.476-0.474-0.476-1.244 0-1.72s1.244-0.476 1.72 0c0.986 0.988 2.3 1.531 3.693 1.531s2.704-0.544 3.692-1.531z"></path>
</svg>
