<!-- Generated by IcoMoon.io -->
<svg version="1.1" xmlns="http://www.w3.org/2000/svg" width="72" height="72" viewBox="0 0 72 72">
<title>uniF14B</title>
<path d="M40.957 34.859c0-1.043 0.522-1.565 1.565-1.565s1.565 0.522 1.565 1.565c0 1.044-0.522 1.565-1.565 1.565s-1.565-0.522-1.565-1.565zM27.16 34.173c0-1.044 0.522-1.565 1.565-1.565s1.565 0.522 1.565 1.565-0.522 1.565-1.565 1.565c-1.043 0-1.565-0.522-1.565-1.565zM61.745 24.018c-0.064 0.586-0.257 1.114-0.579 1.585-0.276 0.678-0.45 1.090-0.521 1.237-2.254 4.632-5.511 8.32-9.772 11.064s-8.957 4.187-14.090 4.33v18.826c11.478 0.255 17.217 2.075 17.217 5.459 0 1.206-0.783 2.216-2.348 3.031s-3.57 1.378-6.014 1.688-4.45 0.514-6.017 0.612-3.035 0.147-4.404 0.147c-1.369 0-2.837-0.049-4.404-0.147s-3.573-0.302-6.017-0.612c-2.444-0.31-4.449-0.873-6.014-1.688s-2.348-1.825-2.348-3.031c0-3.385 5.739-5.205 17.218-5.459v-18.909c-4.817-0.403-9.204-1.959-13.16-4.667s-7.002-6.257-9.137-10.645c-0.071-0.145-0.244-0.558-0.521-1.237-0.322-0.47-0.515-0.997-0.579-1.582-1.584-4.949-1.467-9.923 0.351-14.92 0.561-1.541 1.599-2.723 3.116-3.547 1.042-1.943 3.81-3.355 8.303-4.234s9.151-1.319 13.975-1.319c4.822 0 9.479 0.44 13.972 1.319s7.261 2.29 8.304 4.233c1.517 0.823 2.557 2.005 3.118 3.548 1.817 4.999 1.934 9.972 0.351 14.918zM55.534 6.997c-0.202-0.494-1.061-1.028-2.577-1.602s-3.807-1.095-6.872-1.563c-3.065-0.467-6.427-0.701-10.086-0.701-3.643 0-6.992 0.232-10.047 0.695s-5.341 0.981-6.86 1.552c-1.518 0.572-2.389 1.105-2.611 1.6l-0.025 0.091c0.232 0.943 2.468 1.851 6.709 2.723 0.908 0.186 1.875 0.353 2.902 0.501 0.017 0.002 0.040 0.006 0.070 0.011s0.054 0.009 0.070 0.011c0.933 0.131 1.971 0.248 3.113 0.351 1.483 0.133 2.978 0.22 4.483 0.261 0.693 0.020 1.425 0.030 2.196 0.030 0.806 0 1.532-0.011 2.179-0.034 0.081-0.002 0.192-0.007 0.334-0.013s0.236-0.010 0.283-0.012c0.717-0.025 1.198-0.045 1.445-0.058 0.105-0.006 0.249-0.015 0.432-0.029 0.184-0.013 0.308-0.022 0.374-0.026 0.598-0.039 0.979-0.065 1.143-0.078 0.006-0 0.285-0.027 0.836-0.080 0.571-0.054 0.9-0.086 0.988-0.095 0.114-0.012 0.278-0.032 0.49-0.059s0.327-0.042 0.344-0.044c0.52-0.064 0.81-0.101 0.872-0.11 0.066-0.009 0.337-0.051 0.812-0.125 0.448-0.069 0.703-0.108 0.764-0.119 0.108-0.019 0.26-0.047 0.456-0.084s0.306-0.059 0.332-0.063c0.030-0.006 0.127-0.024 0.292-0.054s0.289-0.054 0.373-0.071c0.084-0.017 0.323-0.070 0.715-0.158 0.024-0.005 0.111-0.024 0.263-0.057s0.265-0.059 0.341-0.077c0.055-0.015 0.273-0.071 0.654-0.169 0.037-0.010 0.119-0.031 0.246-0.063s0.222-0.058 0.286-0.076c0.051-0.014 0.242-0.072 0.574-0.174 0.287-0.087 0.446-0.136 0.476-0.146 0.058-0.019 0.222-0.077 0.491-0.174 0.031-0.011 0.078-0.028 0.142-0.050 0.126-0.044 0.218-0.078 0.276-0.1 0.051-0.019 0.189-0.077 0.412-0.172 0.015-0.006 0.067-0.028 0.157-0.065 0.091-0.037 0.156-0.065 0.197-0.085 0.033-0.015 0.14-0.070 0.321-0.163 0.171-0.087 0.271-0.138 0.3-0.155 0.019-0.011 0.098-0.061 0.235-0.15 0.126-0.080 0.205-0.132 0.236-0.155 0-0 0.053-0.046 0.157-0.138 0.094-0.083 0.148-0.133 0.163-0.15s0.032-0.042 0.050-0.074 0.028-0.048 0.030-0.050c0.049-0.080 0.076-0.125 0.080-0.136zM13.548 10.171c-1.19 3.269-1.527 6.596-1.011 9.981 4.269-2.878 12.090-4.317 23.464-4.317 11.372 0 19.193 1.439 23.464 4.317 0.514-3.38 0.176-6.705-1.013-9.977-0.13-0.36-0.318-0.692-0.563-0.997-0.029 0.036-0.159 0.166-0.39 0.391-0.019 0.018-0.055 0.055-0.108 0.111-0.053 0.057-0.096 0.1-0.13 0.127-0.29 0.252-0.597 0.479-0.92 0.681-0.006 0.003-0.018 0.010-0.038 0.020s-0.034 0.018-0.044 0.024c-0.317 0.196-0.667 0.385-1.049 0.567-0.051 0.025-0.127 0.058-0.228 0.101s-0.166 0.071-0.196 0.084c-0.336 0.148-0.627 0.269-0.875 0.362-0.103 0.039-0.28 0.102-0.531 0.188-0.341 0.116-0.648 0.215-0.92 0.297-0.172 0.053-0.365 0.109-0.579 0.168-0.31 0.086-0.646 0.172-1.008 0.26-0.302 0.072-0.498 0.119-0.587 0.139-0.334 0.075-0.723 0.156-1.168 0.243-0.025 0.005-0.098 0.019-0.219 0.044s-0.214 0.043-0.28 0.055c-1.1 0.201-2.268 0.374-3.506 0.521-0.062 0.007-0.154 0.017-0.277 0.030s-0.215 0.023-0.276 0.030c-0.497 0.055-0.908 0.097-1.233 0.127-0.013 0.001-0.23 0.020-0.651 0.056-0.446 0.037-0.82 0.066-1.122 0.086-0.136 0.009-0.36 0.024-0.673 0.044-0.338 0.020-0.699 0.039-1.083 0.058-0.286 0.015-0.497 0.025-0.632 0.030-0.324 0.013-0.7 0.025-1.127 0.036-0.038 0.001-0.095 0.003-0.172 0.005-0.149 0.005-0.26 0.008-0.332 0.009-0.556 0.011-1.068 0.017-1.535 0.017s-0.979-0.006-1.535-0.017c-0.066-0.001-0.165-0.004-0.297-0.008s-0.201-0.006-0.207-0.006c-0.427-0.011-0.803-0.023-1.127-0.036-0.071-0.003-0.177-0.008-0.318-0.015s-0.245-0.012-0.314-0.015c-0.391-0.019-0.752-0.038-1.083-0.058-0.144-0.008-0.369-0.023-0.673-0.044-0.312-0.021-0.686-0.050-1.122-0.086-0.423-0.037-0.64-0.055-0.651-0.056-0.337-0.032-0.751-0.075-1.243-0.128-0.040-0.005-0.123-0.013-0.248-0.027-0.126-0.015-0.223-0.026-0.292-0.033-1.25-0.148-2.421-0.322-3.515-0.523-0.059-0.010-0.141-0.027-0.248-0.048s-0.18-0.036-0.22-0.044c-0.415-0.080-0.815-0.163-1.202-0.249-0.108-0.024-0.294-0.068-0.56-0.133-0.364-0.087-0.71-0.176-1.038-0.268-0.17-0.047-0.355-0.101-0.554-0.16-0.294-0.089-0.611-0.191-0.952-0.308-0.225-0.077-0.392-0.136-0.501-0.177-0.288-0.109-0.594-0.235-0.917-0.379-0.020-0.009-0.078-0.034-0.172-0.074s-0.165-0.072-0.213-0.095c-0.838-0.4-1.526-0.833-2.063-1.301-0.031-0.027-0.071-0.066-0.119-0.117s-0.082-0.085-0.1-0.102c-0.228-0.22-0.363-0.355-0.404-0.405-0.244 0.305-0.432 0.637-0.562 0.995zM58.348 24.237c0.178-0.449 0.269-0.682 0.275-0.698-0.17-0.556-1.074-1.171-2.711-1.844s-4.249-1.298-7.836-1.872-7.613-0.862-12.077-0.862c-4.464 0-8.49 0.287-12.078 0.862s-6.2 1.199-7.836 1.873c-1.636 0.674-2.54 1.289-2.71 1.845 0.012 0.033 0.104 0.265 0.275 0.697 0.974 0.977 3.451 1.914 7.432 2.813s8.953 1.348 14.916 1.348c5.962 0 10.934-0.449 14.916-1.348s6.459-1.836 7.432-2.813zM50.624 66.522c-2.122-1.412-6.736-2.19-13.841-2.332v1.55c0 0.433-0.153 0.802-0.458 1.107s-0.675 0.458-1.107 0.458c-0.432 0-0.801-0.153-1.107-0.458s-0.458-0.674-0.458-1.107v-1.55c-7.105 0.142-11.719 0.92-13.841 2.332 2.352 1.565 7.487 2.348 15.406 2.348s13.054-0.783 15.406-2.348zM36 39.13c3.976 0 7.696-0.898 11.16-2.693s6.328-4.29 8.593-7.484c-4.972 1.717-11.557 2.575-19.753 2.575-8.193 0-14.776-0.858-19.751-2.575 2.264 3.194 5.128 5.688 8.591 7.484s7.184 2.693 11.16 2.693z"></path>
</svg>
