<!-- Generated by IcoMoon.io -->
<svg version="1.1" xmlns="http://www.w3.org/2000/svg" width="72" height="72" viewBox="0 0 72 72">
<title>uniF1E4</title>
<path d="M70.968 3.319c0.666 0.664 1.031 1.551 1.031 2.495s-0.367 1.83-1.031 2.495l-20.714 20.715-2.843-2.843-7.325 7.324c0.204 0.759 0.257 1.671 0.262 2.641l0.004 0.313c0.023 1.284-0.119 2.656-0.423 4.076-0.525 2.444-1.498 4.999-2.975 7.814-2.223 4.241-5.312 8.601-9.442 13.328-1.678 1.923-3.653 4.135-5.821 6.080-2.972 2.666-6.7 4.018-10.229 4.018-3.124 0.001-6.091-1.060-8.245-3.208-4.586-4.586-4.226-12.877 0.803-18.482 1.953-2.177 4.161-4.147 6.078-5.825 11.543-10.092 20.683-14.187 27.911-12.518 0.12-0.020 0.24-0.044 0.361-0.060l7.271-7.271-2.473-2.473 20.715-20.714c1.328-1.329 3.66-1.331 4.989 0zM4.775 65.205l29.279-29.278c-1.839 1.065-3.64 2.428-5.237 3.635l-0.381 0.287c-3.615 2.731-7.42 5.995-11.977 10.274-2.178 2.048-3.961 3.785-5.61 5.468-3.073 3.073-5.044 5.981-5.867 8.655-0.104 0.337-0.165 0.655-0.207 0.959zM35.736 37.786l-29.264 29.264c1.231-0.139 2.875-0.873 4.911-2.207 1.623-1.062 3.244-2.414 5.101-4.251 2.262-2.237 4.523-4.591 6.912-7.196 2.805-3.059 6.432-7.14 9.624-11.586l0.137-0.189c0.817-1.137 1.764-2.464 2.58-3.834zM5.885 51.758c-2.929 3.263-3.983 7.574-3.074 11.12 1.038-2.883 3.131-5.923 6.258-9.050 1.665-1.698 3.471-3.46 5.675-5.53 4.623-4.343 8.495-7.662 12.183-10.448l0.379-0.287c1.511-1.144 3.197-2.406 4.968-3.482-5.573 0.927-12.35 4.915-20.527 12.065-1.861 1.627-4.003 3.537-5.862 5.612zM34.736 47.185c1.369-2.612 2.267-4.959 2.746-7.177 0.026-0.123 0.034-0.238 0.058-0.361-0.775 1.241-1.612 2.409-2.349 3.435l-0.135 0.188c-3.268 4.554-6.961 8.709-9.811 11.819-2.418 2.635-4.706 5.018-6.997 7.284-1.979 1.959-3.724 3.409-5.49 4.567-1.084 0.709-2.419 1.503-3.819 2.035 3.537 0.889 7.829-0.169 11.080-3.084 2.065-1.853 3.978-3.998 5.609-5.865 3.998-4.576 6.978-8.777 9.109-12.842zM52.363 16.285l-0.678 0.678 5.315 1.771 0.678-0.678zM46.71 21.938l3.543 3.542 4.767-4.767-5.315-1.771zM69.197 6.537c0.193-0.192 0.298-0.448 0.296-0.723 0-0.276-0.105-0.532-0.297-0.724l-2.096-2.096c-0.383-0.385-1.063-0.386-1.445 0l-11.312 11.311 5.315 1.771z"></path>
</svg>
