<!-- Generated by IcoMoon.io -->
<svg version="1.1" xmlns="http://www.w3.org/2000/svg" width="72" height="72" viewBox="0 0 72 72">
<title>uniF1AE</title>
<path d="M68.212 27.662c2.089 0 3.788 1.7 3.788 3.79s-1.7 3.789-3.79 3.789h-3.789v25.264c0 4.319-3.498 7.833-7.796 7.833h-41.249c-3.606 0-6.642-2.478-7.527-5.826-0.158-0.211-0.269-0.46-0.269-0.744 0-0.11 0.037-0.21 0.063-0.313-0.038-0.312-0.063-0.628-0.063-0.95v-25.264h-3.789c-2.089 0-3.79-1.7-3.79-3.789s1.7-3.79 3.79-3.79h3.762c-0.064-0.728-0.282-1.435-0.657-2.065l-2.060-3.451c-0.405-0.678-0.414-1.527-0.024-2.216 0.256-0.453 0.671-0.777 1.144-0.955 0.025-0.337 0.111-0.672 0.289-0.973l0.164-0.221c1.484-1.587 5.185-5.278 7.487-5.278h7.579v-1.263c0-4.18 3.399-7.579 7.579-7.579h12.632c4.18 0 7.579 3.399 7.579 7.579v1.263h8.842c2.301 0 6.003 3.691 7.488 5.278l0.164 0.221c0.178 0.301 0.265 0.635 0.289 0.973 0.474 0.178 0.887 0.502 1.144 0.955 0.39 0.688 0.38 1.537-0.025 2.216l-2.059 3.452c-0.375 0.629-0.592 1.336-0.657 2.064h3.76zM58.106 15.031h-14.268c0.24 0.801 0.373 1.648 0.373 2.526 0 0.429-0.042 0.849-0.101 1.263h18.976c-2.059-2.078-4.275-3.781-4.979-3.79zM41.037 20.292c0.076-0.158 0.152-0.317 0.215-0.484 0.269-0.702 0.433-1.457 0.433-2.251 0-1.238-0.371-2.385-0.984-3.361-0.067-0.105-0.135-0.208-0.207-0.308-0.171-0.237-0.356-0.464-0.557-0.675-0.062-0.064-0.122-0.13-0.187-0.192-0.221-0.214-0.46-0.407-0.71-0.586-0.104-0.075-0.208-0.144-0.316-0.211-0.231-0.147-0.472-0.278-0.724-0.394-0.081-0.038-0.158-0.081-0.24-0.115-0.311-0.128-0.635-0.224-0.968-0.301-0.102-0.024-0.206-0.044-0.31-0.063-0.363-0.064-0.73-0.112-1.112-0.112s-0.749 0.048-1.112 0.112c-0.104 0.019-0.207 0.039-0.31 0.063-0.332 0.077-0.657 0.173-0.968 0.301-0.082 0.034-0.159 0.078-0.24 0.115-0.25 0.116-0.491 0.248-0.724 0.394-0.107 0.068-0.214 0.136-0.316 0.211-0.25 0.179-0.489 0.373-0.71 0.586-0.064 0.062-0.125 0.128-0.187 0.192-0.202 0.212-0.387 0.437-0.557 0.675-0.072 0.101-0.141 0.203-0.207 0.308-0.618 0.977-0.989 2.124-0.989 3.361 0 0.796 0.164 1.55 0.435 2.255 0.064 0.166 0.139 0.326 0.216 0.484 0.088 0.183 0.186 0.361 0.29 0.534 0.086 0.139 0.172 0.279 0.267 0.411 0.138 0.189 0.289 0.368 0.447 0.542 0.087 0.096 0.167 0.2 0.259 0.29 0.25 0.244 0.522 0.467 0.81 0.668 0.104 0.072 0.217 0.129 0.325 0.195 0.208 0.126 0.421 0.246 0.643 0.349 0.131 0.061 0.266 0.113 0.402 0.164 0.229 0.086 0.464 0.158 0.704 0.218 0.125 0.032 0.25 0.067 0.378 0.091 0.371 0.068 0.75 0.115 1.142 0.115s0.77-0.047 1.144-0.119c0.128-0.024 0.253-0.059 0.378-0.091 0.24-0.059 0.475-0.131 0.704-0.219 0.135-0.050 0.27-0.104 0.402-0.164 0.222-0.102 0.435-0.222 0.643-0.349 0.107-0.066 0.221-0.122 0.325-0.194 0.288-0.2 0.559-0.423 0.81-0.668 0.092-0.090 0.172-0.195 0.259-0.291 0.157-0.173 0.31-0.351 0.447-0.542 0.096-0.131 0.182-0.27 0.267-0.41 0.106-0.173 0.202-0.351 0.291-0.534zM24 11.241v1.263h4.115c0.015-0.020 0.033-0.038 0.047-0.058 0.174-0.245 0.361-0.48 0.56-0.706 0.048-0.054 0.096-0.106 0.145-0.159 0.188-0.203 0.387-0.399 0.592-0.585 0.042-0.037 0.082-0.076 0.124-0.112 0.763-0.662 1.638-1.192 2.596-1.564 0.048-0.019 0.097-0.037 0.147-0.054 0.261-0.096 0.527-0.178 0.798-0.25 0.072-0.019 0.144-0.038 0.216-0.056 0.256-0.061 0.517-0.107 0.781-0.145 0.078-0.010 0.155-0.027 0.234-0.035 0.332-0.038 0.669-0.062 1.012-0.062s0.68 0.024 1.012 0.062c0.078 0.009 0.155 0.024 0.234 0.035 0.264 0.038 0.524 0.085 0.781 0.145 0.072 0.018 0.144 0.037 0.216 0.056 0.271 0.071 0.538 0.154 0.798 0.25 0.048 0.019 0.097 0.035 0.147 0.054 0.957 0.371 1.833 0.902 2.596 1.564 0.042 0.037 0.082 0.074 0.124 0.112 0.207 0.186 0.404 0.38 0.592 0.585 0.049 0.053 0.097 0.105 0.145 0.159 0.198 0.226 0.385 0.461 0.559 0.706 0.015 0.020 0.033 0.038 0.047 0.058h4.12v-1.263c0-2.787-2.266-5.053-5.053-5.053h-12.632c-2.787 0-5.053 2.266-5.053 5.053zM13.895 15.031c-0.693 0.009-2.943 1.741-4.978 3.79h17.711c-0.059-0.414-0.101-0.834-0.101-1.263 0-0.878 0.133-1.726 0.373-2.526h-13.005zM3.79 32.715h3.789v-2.526h-3.789c-0.696 0-1.263 0.566-1.263 1.263s0.567 1.263 1.263 1.263zM61.896 60.505v-32.843h0.029c0.068-1.183 0.404-2.337 1.013-3.358l1.765-2.958h-21.352c-0.010 0.020-0.024 0.039-0.034 0.059-0.346 0.71-0.781 1.368-1.296 1.957-0.040 0.047-0.082 0.091-0.124 0.136-0.243 0.265-0.498 0.517-0.769 0.752-0.018 0.015-0.034 0.032-0.052 0.047-0.296 0.25-0.608 0.479-0.935 0.69-0.039 0.025-0.081 0.048-0.12 0.073-0.298 0.184-0.606 0.352-0.926 0.502-0.040 0.019-0.080 0.039-0.121 0.058-0.352 0.158-0.715 0.296-1.090 0.407-0.034 0.010-0.069 0.016-0.105 0.027-0.325 0.092-0.656 0.164-0.994 0.218-0.090 0.015-0.179 0.029-0.27 0.042-0.376 0.049-0.757 0.083-1.146 0.083s-0.769-0.034-1.146-0.083c-0.091-0.013-0.181-0.027-0.27-0.042-0.338-0.056-0.669-0.126-0.994-0.218-0.034-0.009-0.069-0.016-0.105-0.027-0.375-0.111-0.738-0.249-1.090-0.407-0.041-0.018-0.081-0.039-0.121-0.058-0.32-0.149-0.629-0.317-0.926-0.502-0.041-0.025-0.081-0.048-0.12-0.073-0.326-0.21-0.639-0.44-0.935-0.69-0.018-0.015-0.034-0.032-0.052-0.047-0.273-0.234-0.528-0.486-0.769-0.752-0.042-0.045-0.083-0.090-0.124-0.136-0.515-0.589-0.95-1.246-1.296-1.957-0.010-0.020-0.024-0.038-0.034-0.059h-20.088l1.765 2.957c0.609 1.021 0.945 2.175 1.013 3.359h0.029v22.737h5.053c0.697 0 1.263 0.565 1.263 1.263s-0.566 1.263-1.263 1.263h-5.053v2.526h7.579c0.697 0 1.263 0.565 1.263 1.263s-0.566 1.263-1.263 1.263h-7.579v2.526h11.369c0.697 0 1.263 0.565 1.263 1.263s-0.566 1.263-1.263 1.263h-10.704c0.896 1.647 2.612 2.78 4.605 2.78h41.251c2.905 0 5.27-2.381 5.27-5.307zM68.212 32.715c0.696 0 1.263-0.566 1.263-1.263s-0.567-1.263-1.263-1.263h-3.79v2.526h3.79zM34.476 16.665l3.79-3.79 1.786 1.786-3.789 3.79z"></path>
</svg>
