<!-- Generated by IcoMoon.io -->
<svg version="1.1" xmlns="http://www.w3.org/2000/svg" width="72" height="72" viewBox="0 0 72 72">
<title>uniF125</title>
<path d="M19.678 64.035v-2.511h2.511v2.511h-2.511zM23.444 64.035v-2.511h2.511v2.511h-2.511zM27.211 64.035v-2.511h2.511v2.511h-2.511zM30.978 64.035v-2.511h2.511v2.511h-2.511zM34.744 64.035v-2.511h2.511v2.511h-2.511zM38.511 64.035v-2.511h2.511v2.511h-2.511zM42.278 64.035v-2.511h2.511v2.511h-2.511zM46.045 64.035v-2.511h2.511v2.511h-2.511zM49.811 64.035v-2.511h2.511v2.511h-2.511zM58.6 62.538l2.738 6.845-0.622 0.586c-1.428 1.346-4.050 2.039-6.617 2.028-1.995-0.009-3.956-0.445-5.291-1.332-2.551 1.763-5.987 1.763-8.54 0.001-2.553 1.762-5.987 1.76-8.538 0-2.553 1.76-5.988 1.762-8.54-0.001-1.35 0.898-3.337 1.335-5.354 1.335-2.546 0-5.139-0.694-6.554-2.029l-0.622-0.586 2.738-6.847v-44.96h8.789v-8.789h8.789v-8.789h27.623v62.538zM55.296 14.042l-39.135 24.171 29.055 12.786zM48.556 11.3h-6.278v6.278l2.511 0.001 3.767-2.327v-3.952zM42.278 8.789h6.278v-6.278h-6.278v6.278zM51.067 11.3v2.402l3.889-2.402h-3.889zM39.767 17.578v-6.278h-6.278v6.278h6.278zM39.767 20.089h-6.278v4.47l6.278-3.877v-0.593zM30.978 26.11v-6.021h-6.278v6.278h5.862zM26.497 28.878h-1.797v1.11zM22.189 31.539v-2.66h-6.278v6.538zM56.089 8.789v-6.278h-5.022v6.278h5.022zM33.489 2.511v6.278h6.278v-6.278h-6.278zM24.7 11.3v6.278h6.278v-6.278h-6.278zM22.189 20.089h-6.278v6.278h6.278v-6.278zM38.991 68.494c0.751-0.564 1.802-0.564 2.553-0.002 0.866 0.647 1.929 0.971 2.991 0.971s2.124-0.323 2.991-0.969c0.187-0.142 0.394-0.247 0.61-0.318s0.441-0.105 0.667-0.105c0.451 0 0.903 0.141 1.279 0.422 0.202 0.151 0.446 0.279 0.709 0.394 0.034 0.015 0.065 0.031 0.1 0.046 0.256 0.104 0.539 0.192 0.836 0.266 0.054 0.013 0.107 0.026 0.161 0.039 0.3 0.068 0.615 0.121 0.94 0.159 0.055 0.006 0.112 0.011 0.167 0.018 0.339 0.035 0.684 0.056 1.035 0.060 0.031 0 0.062-0.001 0.093-0.001 0.36 0.001 0.722-0.013 1.079-0.044 0.016-0.001 0.034-0.001 0.050-0.003 0.357-0.031 0.706-0.083 1.043-0.147 0.045-0.009 0.092-0.016 0.136-0.025 0.324-0.067 0.633-0.147 0.924-0.241 0.046-0.015 0.093-0.030 0.138-0.046 0.285-0.098 0.551-0.21 0.79-0.336 0.015-0.008 0.028-0.016 0.041-0.024l-2.235-5.589v-42.344l-8.833 32.389c-0.095 0.354-0.34 0.647-0.671 0.804-0.172 0.083-0.356 0.123-0.541 0.123-0.172 0-0.345-0.035-0.511-0.105l-29.628-13.037v22.173l-2.235 5.587c0.015 0.008 0.029 0.016 0.044 0.025 0.236 0.124 0.5 0.235 0.781 0.333 0.051 0.018 0.102 0.035 0.153 0.051 0.286 0.092 0.589 0.171 0.907 0.236 0.051 0.010 0.105 0.019 0.158 0.029 0.332 0.063 0.672 0.113 1.021 0.144 0.026 0.003 0.053 0.003 0.078 0.005 0.346 0.030 0.697 0.043 1.046 0.043 0.036 0 0.074 0.001 0.11 0.001 0.349-0.004 0.693-0.026 1.030-0.060 0.056-0.005 0.112-0.010 0.167-0.016 0.326-0.039 0.643-0.093 0.944-0.161 0.051-0.011 0.103-0.025 0.154-0.038 0.3-0.074 0.584-0.163 0.842-0.269 0.033-0.013 0.062-0.029 0.094-0.043 0.266-0.116 0.511-0.245 0.713-0.396 0.751-0.564 1.802-0.564 2.556-0.001 0.866 0.647 1.929 0.971 2.991 0.971s2.124-0.323 2.991-0.969c0.753-0.564 1.804-0.564 2.558 0 1.731 1.292 4.248 1.292 5.981 0z"></path>
</svg>
