<!-- Generated by IcoMoon.io -->
<svg version="1.1" xmlns="http://www.w3.org/2000/svg" width="72" height="72" viewBox="0 0 72 72">
<title>uniF167</title>
<path d="M26.4 12c-0.307 0-0.614-0.118-0.848-0.352-0.469-0.469-0.469-1.228 0-1.697l4.243-4.242 4.242 4.242c0.469 0.469 0.469 1.228 0 1.697s-1.228 0.469-1.697 0l-2.545-2.545-2.546 2.545c-0.234 0.234-0.541 0.352-0.848 0.352zM39.163 31.345l4.242-4.242 4.243 4.242c0.469 0.469 0.469 1.228 0 1.697-0.234 0.234-0.541 0.352-0.848 0.352s-0.614-0.118-0.848-0.352l-2.546-2.545-2.545 2.545c-0.469 0.469-1.228 0.469-1.697 0s-0.469-1.228 0-1.697zM44.752 13.552c0.469-0.469 1.228-0.469 1.697 0s0.469 1.228 0 1.697l-4.2 4.2c-0.234 0.234-0.541 0.352-0.848 0.352s-0.614-0.118-0.848-0.352c-0.469-0.469-0.469-1.228 0-1.697zM33.87 25.367c0.646 0.149 1.049 0.793 0.9 1.439-0.128 0.554-0.623 0.93-1.169 0.93-0.090 0-0.18-0.008-0.271-0.030l-5.788-1.336c-0.647-0.149-1.049-0.793-0.9-1.439 0.15-0.647 0.797-1.049 1.44-0.9zM36 0c9.264 0 16.8 7.536 16.8 16.8v26.984c0 2.987-2.429 5.416-5.416 5.416h-5.384v19.2c0 1.985-1.615 3.6-3.6 3.6h-4.8c-1.985 0-3.6-1.615-3.6-3.6v-19.2h-5.384c-2.987 0-5.416-2.429-5.416-5.416v-26.984c0-9.264 7.536-16.8 16.8-16.8zM39.6 57.401v-5.602c-0.643 0.413-1.2 1.446-1.2 2.801s0.557 2.388 1.2 2.801zM39.6 49.276v-0.076h-7.2v5.39c1.289 0.994 4.378 3.754 3.823 7.022-0.298 1.753 1.66 3.67 3.377 4.8v-6.488c-2.058-0.367-3.6-2.562-3.6-5.324s1.542-4.957 3.6-5.324zM38.4 69.6c0.412 0 0.757-0.221 0.973-0.538-2.344-1.232-6.136-4.207-5.516-7.85 0.198-1.164-0.572-2.402-1.457-3.378v10.566c0 0.662 0.539 1.2 1.2 1.2h4.8zM50.4 43.784v-26.984c0-7.94-6.46-14.4-14.4-14.4s-14.4 6.46-14.4 14.4v26.984c0 1.663 1.352 3.016 3.016 3.016h22.769c1.663 0 3.016-1.352 3.016-3.016zM29.4 36c2.316 0 4.2 1.884 4.2 4.2s-1.884 4.2-4.2 4.2c-2.316 0-4.2-1.884-4.2-4.2s1.884-4.2 4.2-4.2zM29.4 42c0.992 0 1.8-0.808 1.8-1.8s-0.807-1.8-1.8-1.8c-0.992 0-1.8 0.808-1.8 1.8s0.808 1.8 1.8 1.8z"></path>
</svg>
