<!-- Generated by IcoMoon.io -->
<svg version="1.1" xmlns="http://www.w3.org/2000/svg" width="72" height="72" viewBox="0 0 72 72">
<title>uniF103</title>
<path d="M69.488 0.742c1.135 2.703 0.537 4.529-0.167 5.585-0.823 1.238-2.293 2.128-4.13 2.584 1.089 1.145 1.877 2.411 2.308 3.75 0.643 1.992 0.462 3.981-0.521 5.81 1.015 1.294 1.135 3.118 0.17 4.495-0.726 1.035-1.842 1.587-2.987 1.61-0.589 2.317-1.253 4.062-1.412 4.466-6.399 26.197-21.538 36.77-29.998 40.743-3.114 1.463-6.345 2.216-9.461 2.216-0.695 0-1.384-0.036-2.064-0.112-8.928-0.993-16.221-7.229-18.579-15.888-2.64-9.693 1.661-19.864 10.458-24.732 0.027-0.014 1.263-0.656 1.817-0.898 1.107-0.481 2.372-0.842 3.985-1.135 13.249-2.416 22.797-11.222 22.893-11.31 1.676-1.854 3.396-3.479 5.092-4.836-0.984-1.29-1.105-3.081-0.151-4.441 0.583-0.829 1.461-1.369 2.478-1.524 0.616-0.093 1.233-0.037 1.813 0.156 2.759-3.013 7.334-3.21 11.613-0.452 2.169-0.065 3.943-0.753 4.664-1.84 0.545-0.819 0.528-1.934-0.050-3.312-0.259-0.615 0.031-1.323 0.647-1.582 0.615-0.261 1.325 0.031 1.582 0.647zM60.477 28.221c0.007-0.021 0.755-1.883 1.38-4.39-0.061-0.045-0.11-0.098-0.168-0.145-0.13-0.106-0.262-0.213-0.381-0.33-0.087-0.086-0.161-0.178-0.239-0.267-0.080-0.092-0.163-0.181-0.236-0.278-0.082-0.109-0.15-0.221-0.22-0.334-0.053-0.086-0.11-0.169-0.157-0.257-0.064-0.122-0.115-0.245-0.166-0.369-0.025-0.063-0.062-0.124-0.085-0.189-0.016-0.046-0.030-0.092-0.045-0.138-0.004-0.011-0.010-0.022-0.013-0.033-0.069 0.002-0.137 0.010-0.21 0.006-0.911 0-1.866-0.319-2.693-0.899-0.209-0.146-0.405-0.306-0.586-0.477-0.363-0.342-0.667-0.73-0.897-1.142-0.116-0.207-0.213-0.419-0.289-0.637-0.005-0.013-0.008-0.028-0.013-0.041-0.014-0.041-0.029-0.084-0.041-0.125-0.020 0.001-0.042-0.004-0.063-0.002-0.050 0.001-0.098 0.005-0.151 0.004-0.051 0-0.103-0.011-0.153-0.013-0.168-0.005-0.336-0.016-0.508-0.044-0.041-0.007-0.082-0.019-0.123-0.027-0.192-0.036-0.382-0.080-0.574-0.144-0.057-0.018-0.111-0.046-0.168-0.066-0.168-0.063-0.336-0.126-0.503-0.21-0.227-0.115-0.45-0.245-0.663-0.395-0.218-0.152-0.419-0.32-0.607-0.499-0.1-0.097-0.184-0.199-0.274-0.301-0.076-0.086-0.157-0.167-0.226-0.256-0.099-0.128-0.18-0.26-0.262-0.393-0.045-0.073-0.094-0.141-0.134-0.215-0.077-0.143-0.136-0.286-0.196-0.433-0.022-0.054-0.053-0.106-0.072-0.161-0.012-0.034-0.023-0.069-0.034-0.103-0.006-0.022-0.019-0.042-0.025-0.064-0.558 0.039-1.153-0.071-1.742-0.294-0.005-0.002-0.010-0.002-0.016-0.005-1.76 1.349-3.575 3.049-5.403 5.064-0.479 0.453-10.238 9.452-24.18 11.993-1.443 0.263-2.508 0.564-3.452 0.975-0.506 0.221-1.634 0.809-1.639 0.811-7.793 4.312-11.615 13.352-9.268 21.967 2.096 7.697 8.579 13.238 16.514 14.119 3.29 0.367 6.826-0.29 10.231-1.889 8.079-3.793 22.548-13.931 28.697-39.208zM64.454 17.97c1.009-1.438 1.259-2.974 0.744-4.56-0.499-1.546-1.727-3.066-3.456-4.28-2.823-1.982-6.977-3.075-9.388 0.359-0.184 0.264-0.465 0.441-0.781 0.497-0.312 0.056-0.641-0.017-0.903-0.202-0.325-0.229-0.714-0.324-1.089-0.266-0.358 0.054-0.662 0.242-0.862 0.523-0.422 0.602-0.233 1.465 0.42 1.924 0.009 0.006 0.018 0.012 0.027 0.019 0.11 0.077 0.218 0.117 0.328 0.174 0.145 0.075 0.288 0.141 0.423 0.184 0.040 0.012 0.077 0.017 0.116 0.027 0.137 0.034 0.27 0.060 0.386 0.065 0.040 0.001 0.071-0.006 0.109-0.008 0.1-0.004 0.199-0.010 0.274-0.033 0.093-0.031 0.164-0.075 0.21-0.129 0.005-0.006 0.018-0.008 0.023-0.014v-0.001l0.001 0.001c0.384-0.545 1.137-0.68 1.684-0.295 0.335 0.235 0.514 0.609 0.514 0.99 0 0.239-0.070 0.48-0.219 0.691v0c-0.045 0.064-0.059 0.162-0.055 0.273 0.001 0.040 0.017 0.087 0.025 0.13 0.015 0.085 0.035 0.172 0.075 0.267 0.015 0.034 0.030 0.066 0.047 0.1 0.066 0.134 0.151 0.273 0.267 0.412 0.015 0.017 0.033 0.033 0.047 0.050 0.132 0.15 0.288 0.298 0.48 0.434 0.203 0.143 0.419 0.251 0.634 0.33 0.051 0.018 0.093 0.018 0.141 0.033 0.161 0.047 0.318 0.081 0.469 0.087 0.099 0.004 0.187-0.005 0.268-0.019 0.039-0.007 0.083-0.007 0.117-0.018 0.108-0.034 0.195-0.082 0.239-0.147h0.001c0.382-0.546 1.136-0.679 1.682-0.295 0.336 0.235 0.515 0.609 0.515 0.99 0 0.239-0.071 0.481-0.22 0.693v0.001c-0.042 0.059-0.063 0.144-0.062 0.244s0.023 0.216 0.066 0.34c0.138 0.392 0.458 0.786 0.88 1.082s0.874 0.469 1.316 0.46c0.131-0.001 0.248-0.019 0.342-0.053 0.036-0.013 0.052-0.039 0.082-0.056 0.046-0.028 0.102-0.050 0.127-0.086 0.001 0 0.001 0 0.001-0.001h0.001c0.382-0.546 1.136-0.679 1.682-0.295 0.336 0.234 0.515 0.609 0.515 0.99 0 0.239-0.071 0.481-0.22 0.693-0.004 0.004-0.002 0.012-0.005 0.017-0.040 0.063-0.057 0.149-0.053 0.25 0.002 0.039 0.018 0.086 0.025 0.128 0.012 0.074 0.029 0.15 0.062 0.233 0.069 0.179 0.168 0.359 0.304 0.527 0.022 0.025 0.057 0.050 0.080 0.076 0.135 0.152 0.284 0.3 0.462 0.425l0.024 0.017c0.61 0.398 1.356 0.248 1.79-0.369 0.421-0.602 0.232-1.466-0.423-1.925-0.546-0.384-0.678-1.137-0.295-1.684zM12.775 44.774c-2.041 4.694-1.771 10.136 0.707 14.203 0.348 0.57 0.167 1.314-0.403 1.661-0.197 0.12-0.415 0.176-0.628 0.176-0.407 0-0.806-0.205-1.033-0.579-2.879-4.727-3.209-11.020-0.859-16.423 0.266-0.614 0.979-0.894 1.591-0.627 0.612 0.265 0.892 0.978 0.626 1.589zM18.554 35.738c0.618-0.256 1.322 0.045 1.575 0.662 0.251 0.619-0.045 1.323-0.664 1.575-1.695 0.691-3.24 1.809-4.473 3.239-0.239 0.278-0.576 0.421-0.916 0.421-0.279 0-0.56-0.097-0.788-0.292-0.505-0.436-0.562-1.199-0.126-1.704 1.481-1.719 3.344-3.069 5.392-3.9z"></path>
</svg>
