<!-- Generated by IcoMoon.io -->
<svg version="1.1" xmlns="http://www.w3.org/2000/svg" width="72" height="72" viewBox="0 0 72 72">
<title>uniF106</title>
<path d="M69.711 1.488c1.928 1.929 2.612 5.707 1.829 10.107-0.793 4.47-2.941 8.724-5.887 11.67l-43.028 43.028c-2.929 2.93-7.069 4.946-11.357 5.533-0.857 0.118-1.694 0.176-2.497 0.176-3.064 0-5.658-0.837-7.197-2.376-4.245-4.246 1.795-13.682 7.023-19.169 0.363-1.524 1.272-3.035 2.749-4.51 0.033-0.033 0.076-0.047 0.112-0.075 0.128-0.141 0.243-0.283 0.382-0.423 2.032-2.032 4.581-3.296 7.272-3.628 0.331-2.691 1.597-5.241 3.629-7.273 0.086-0.085 0.178-0.161 0.265-0.245 0.080-0.082 0.149-0.167 0.231-0.25 0.041-0.042 0.095-0.059 0.14-0.094 1.917-1.685 4.215-2.743 6.635-3.040 0.274-2.231 1.199-4.358 2.662-6.18 0.034-0.043 0.068-0.086 0.102-0.129 0.272-0.331 0.557-0.655 0.865-0.964 2.033-2.033 4.582-3.297 7.272-3.629 0.279-2.267 1.228-4.428 2.734-6.271 0.007-0.011 0.015-0.021 0.023-0.031 0.274-0.333 0.561-0.66 0.872-0.971 1.266-1.266 3.945-2.673 4.869-3.139 5.184-5.648 11.657-9.504 16.132-9.605 1.717-0.017 3.155 0.474 4.166 1.488zM69.121 11.163c0.622-3.501 0.171-6.617-1.152-7.932-0.511-0.511-1.265-0.77-2.244-0.77-0.042 0-0.085 0-0.128 0.001-2.91 0.065-7.069 2.221-10.965 5.532-0.011 0.011-0.014 0.026-0.025 0.037-1.743 1.743-2.567 3.461-2.385 4.968 0.198 1.633 1.545 2.766 2.642 3.43 0.581 0.352 0.767 1.106 0.416 1.688-0.23 0.381-0.637 0.593-1.052 0.593-0.218 0-0.436-0.058-0.636-0.178-2.244-1.358-3.561-3.168-3.811-5.238-0.039-0.326-0.044-0.698-0.020-1.095-1.323 0.707-2.799 1.604-3.483 2.287-1.983 1.983-3 4.697-2.718 7.261 0.213 1.941 1.179 3.549 2.722 4.531 0.573 0.365 0.743 1.125 0.378 1.698-0.235 0.368-0.633 0.569-1.039 0.569-0.225 0-0.454-0.063-0.659-0.192-2.060-1.311-3.381-3.393-3.773-5.886-2.123 0.274-4.201 1.31-5.811 2.921-0.252 0.252-0.488 0.516-0.711 0.792-0.007 0.010-0.015 0.020-0.022 0.029-1.551 1.939-2.351 4.401-2.11 6.648 0.145 1.349 0.728 3.225 2.69 4.487 0.57 0.369 0.735 1.129 0.368 1.7-0.236 0.365-0.632 0.563-1.035 0.563-0.229 0-0.459-0.064-0.665-0.196-2.091-1.349-3.41-3.479-3.757-6.019-1.969 0.289-3.885 1.233-5.419 2.676-2.187 2.289-3.285 4.729-2.997 6.742 0.242 1.695 1.453 3.15 3.596 4.324 0.595 0.325 0.814 1.073 0.487 1.668-0.224 0.408-0.644 0.639-1.079 0.639-0.199 0-0.402-0.048-0.589-0.151-2.863-1.567-4.084-3.458-4.585-5.037-2.18 0.242-4.321 1.283-5.971 2.933-0.955 0.957-1.545 1.887-2.032 3.21l-0.001 0.001c-0.156 0.423-0.385 0.792-0.647 1.133-0.025 0.235-0.037 0.47-0.018 0.701 0.129 1.609 1.308 3.231 3.502 4.818 0.551 0.398 0.674 1.167 0.277 1.716-0.242 0.332-0.616 0.509-0.998 0.509-0.25 0-0.502-0.075-0.719-0.232-2.193-1.587-3.589-3.295-4.187-5.092-4.99 5.843-7.46 11.916-5.441 13.935 1.361 1.362 4.348 1.951 7.623 1.503 3.768-0.516 7.395-2.279 9.952-4.836l43.028-43.028c2.6-2.6 4.497-6.377 5.205-10.362z"></path>
</svg>
