<!-- Generated by IcoMoon.io -->
<svg version="1.1" xmlns="http://www.w3.org/2000/svg" width="72" height="72" viewBox="0 0 72 72">
<title>uniF14E</title>
<path d="M32.211 34.737c0-0.842 0.421-1.263 1.263-1.263s1.263 0.421 1.263 1.263-0.421 1.263-1.263 1.263-1.263-0.421-1.263-1.263zM22.54 31.343c0-0.842 0.421-1.263 1.263-1.263s1.263 0.421 1.263 1.263-0.421 1.263-1.263 1.263-1.263-0.421-1.263-1.263zM34.737 41.053c0-0.842 0.421-1.263 1.263-1.263s1.263 0.421 1.263 1.263-0.421 1.263-1.263 1.263-1.263-0.421-1.263-1.263zM44.605 34.185c0-0.842 0.421-1.263 1.263-1.263s1.263 0.421 1.263 1.263-0.421 1.263-1.263 1.263-1.263-0.421-1.263-1.263zM25.698 36.711c0-0.842 0.421-1.263 1.263-1.263s1.263 0.421 1.263 1.263c0 0.842-0.421 1.263-1.263 1.263s-1.263-0.421-1.263-1.263zM37.263 33.474c0-0.842 0.421-1.263 1.263-1.263s1.263 0.421 1.263 1.263-0.421 1.263-1.263 1.263-1.263-0.421-1.263-1.263zM37.263 63.173c9.263 0.206 13.895 1.675 13.895 4.407 0 0.973-0.631 1.788-1.894 2.446s-2.881 1.112-4.853 1.362c-1.972 0.25-3.591 0.415-4.856 0.494s-2.45 0.119-3.554 0.119c-1.105 0-2.29-0.040-3.554-0.119s-2.883-0.244-4.856-0.494-3.59-0.704-4.853-1.362c-1.263-0.658-1.894-1.473-1.894-2.446 0-2.732 4.632-4.2 13.895-4.406v-16.504c-4.87-0.351-8.886-2.365-12.048-6.042-3.503-4.072-4.852-8.765-4.047-14.077l0.134-0.882-0.008-0.042c0-0.189 0.035-0.388 0.104-0.596l3.22-21.239c0.031-0.208 0.112-0.399 0.244-0.573 0.516-0.944 1.978-1.683 4.386-2.218s4.308-0.835 5.701-0.902 2.586-0.1 3.578-0.1c1 0 2.202 0.034 3.604 0.101s3.31 0.372 5.724 0.913 3.866 1.29 4.36 2.246c0.119 0.167 0.192 0.334 0.217 0.504l3.453 22.786c0.805 5.313-0.544 10.005-4.047 14.077-3.161 3.677-7.177 5.691-12.048 6.042v16.504zM46.747 4.002c-2.331-0.984-5.913-1.475-10.747-1.475-4.837 0-8.419 0.492-10.746 1.477l0.022 0.008c0.167 0.054 0.357 0.108 0.568 0.162 0.012 0.003 0.030 0.008 0.053 0.013s0.040 0.010 0.049 0.012c0.261 0.064 0.513 0.12 0.758 0.168l0.019 0.004c0.265 0.053 0.568 0.105 0.909 0.158 0.017 0.002 0.043 0.006 0.078 0.012s0.061 0.009 0.079 0.012c0.306 0.047 0.664 0.094 1.074 0.143 0.024 0.003 0.059 0.007 0.108 0.012s0.084 0.009 0.108 0.012c0.476 0.053 0.908 0.096 1.297 0.128l0.034 0.002c0.414 0.035 0.897 0.067 1.45 0.097 0.16 0.009 0.254 0.014 0.282 0.015 0.551 0.027 1.093 0.048 1.627 0.062 0.037 0.001 0.094 0.002 0.169 0.004s0.129 0.003 0.162 0.004c0.723 0.015 1.357 0.023 1.9 0.023 0.577 0 1.214-0.008 1.909-0.024 0.083-0.001 0.187-0.003 0.311-0.006 0.608-0.017 1.151-0.038 1.631-0.063 0.029-0.001 0.123-0.007 0.282-0.015 0.58-0.032 1.072-0.065 1.474-0.098l0.052-0.005c0.444-0.037 0.872-0.078 1.285-0.125 0.055-0.005 0.111-0.011 0.166-0.018 0.368-0.043 0.733-0.091 1.093-0.145 0.019-0.002 0.044-0.006 0.077-0.012 0.034-0.005 0.060-0.009 0.077-0.012 0.367-0.057 0.676-0.11 0.93-0.16l0.028-0.006c0.267-0.053 0.522-0.109 0.763-0.169l0.058-0.014c0.206-0.052 0.399-0.107 0.578-0.166zM24.263 6.321l-2.482 16.388c3.362-1.328 8.088-1.992 14.18-1.992 6.161 0 10.916 0.676 14.266 2.029l-2.488-16.424-0.047 0.015c-0.246 0.090-0.486 0.169-0.721 0.236l-0.024 0.006c-0.281 0.079-0.575 0.153-0.882 0.221l-0.057 0.013c-0.296 0.065-0.636 0.129-1.021 0.195-0.042 0.008-0.087 0.016-0.138 0.024-0.34 0.056-0.726 0.111-1.159 0.164-0.021 0.002-0.054 0.006-0.098 0.012s-0.078 0.010-0.102 0.012c-0.404 0.048-0.849 0.092-1.334 0.134-0.046 0.004-0.125 0.010-0.237 0.019-0.504 0.039-1.018 0.073-1.544 0.101-0.030 0.001-0.073 0.003-0.131 0.006s-0.094 0.004-0.109 0.005c-0.605 0.029-1.207 0.051-1.805 0.066-0.021 0-0.053 0.001-0.095 0.002s-0.075 0.001-0.095 0.002c-0.71 0.016-1.423 0.024-2.14 0.024-0.691 0-1.404-0.008-2.138-0.023-0.009-0-0.037-0.001-0.085-0.002s-0.083-0.001-0.106-0.002c-0.592-0.014-1.193-0.036-1.804-0.066-0.014-0.001-0.050-0.003-0.108-0.005s-0.103-0.005-0.133-0.006c-0.524-0.027-1.039-0.060-1.544-0.101-0.113-0.009-0.192-0.015-0.237-0.019-0.482-0.041-0.926-0.086-1.333-0.134-0.085-0.010-0.152-0.018-0.2-0.024-0.436-0.056-0.822-0.111-1.16-0.164-0.016-0.003-0.040-0.007-0.070-0.012s-0.053-0.009-0.069-0.012c-0.386-0.066-0.726-0.131-1.019-0.195l-0.058-0.014c-0.325-0.072-0.618-0.146-0.88-0.221l-0.025-0.008c-0.258-0.076-0.498-0.154-0.72-0.236zM50.382 25.584c-0.82-0.561-2.549-1.091-5.188-1.591s-5.717-0.751-9.235-0.751c-3.517 0-6.596 0.25-9.235 0.751s-4.368 1.031-5.188 1.591c2.082 1.134 6.889 1.7 14.423 1.7 7.529 0 12.337-0.567 14.423-1.7zM24.604 38.98c2.998 3.487 6.797 5.231 11.396 5.231s8.398-1.743 11.396-5.229c2.701-3.142 3.891-6.794 3.57-10.955-2.704 1.19-7.706 1.785-15.006 1.785-7.231 0-12.207-0.583-14.929-1.75-0.311 4.147 0.88 7.786 3.573 10.919zM36 69.474c6.391 0 10.535-0.632 12.433-1.895-1.713-1.14-5.436-1.767-11.17-1.882v1.429c0 0.842-0.421 1.263-1.263 1.263s-1.263-0.421-1.263-1.263v-1.429c-5.734 0.115-9.457 0.742-11.17 1.882 1.898 1.263 6.042 1.895 12.433 1.895z"></path>
</svg>
