<!-- Generated by IcoMoon.io -->
<svg version="1.1" xmlns="http://www.w3.org/2000/svg" width="72" height="72" viewBox="0 0 72 72">
<title>uniF151</title>
<path d="M51.993 23.334l-2.278 0.63-47.442 47.442c-0.26 0.26-0.601 0.39-0.941 0.39s-0.682-0.13-0.941-0.39c-0.52-0.52-0.52-1.362 0-1.882l47.557-47.557 0.579-2.099c0.571-3.587 3.339-6.354 6.925-6.924l4.789-1.323-1.323 4.79c-0.57 3.587-3.338 6.354-6.924 6.924zM51.146 20.344l-0.128 0.497 0.498-0.128c2.488-0.369 4.41-2.291 4.78-4.779l0.128-0.497-0.498 0.128c-2.488 0.369-4.41 2.291-4.78 4.78zM43.307 25.539l-2.451-4.32c-2.134-2.94-2.134-6.855 0-9.793l2.451-4.323 2.451 4.323c2.134 2.938 2.133 6.854 0 9.793zM43.046 12.942c-1.498 2.020-1.498 4.737 0.001 6.761l0.261 0.441 0.261-0.441c1.498-2.022 1.498-4.74 0-6.761l-0.261-0.442zM50.577 26.040c2.941-2.135 6.856-2.135 9.793 0l4.323 2.451-4.323 2.451c-1.47 1.068-3.183 1.6-4.897 1.6s-3.427-0.533-4.897-1.6l-4.321-2.451zM58.855 28.751l0.442-0.261-0.442-0.261c-2.020-1.5-4.736-1.5-6.759 0l-0.442 0.261 0.442 0.261c2.021 1.498 4.738 1.498 6.759 0zM34.834 34.013l-2.451-4.323c-2.133-2.94-2.133-6.852 0-9.792l2.451-4.323 2.451 4.323c2.134 2.94 2.134 6.852 0 9.792zM34.573 21.415c-1.498 2.021-1.498 4.738 0 6.758l0.261 0.442 0.262-0.442c1.498-2.020 1.498-4.737 0-6.758l-0.262-0.442zM42.106 34.511c2.94-2.133 6.854-2.133 9.796 0l4.32 2.451-4.32 2.451c-1.471 1.068-3.185 1.6-4.898 1.6-1.715 0-3.428-0.533-4.898-1.6l-4.322-2.451zM50.383 37.223l0.442-0.261-0.442-0.261c-2.021-1.498-4.738-1.496-6.76 0l-0.442 0.261 0.442 0.261c2.021 1.498 4.737 1.5 6.76 0zM26.362 42.486l-2.451-4.323c-2.134-2.938-2.134-6.854 0-9.793l2.451-4.32 2.451 4.32c2.133 2.941 2.133 6.855 0 9.793zM26.101 29.884c-1.499 2.024-1.499 4.741-0.001 6.761l0.262 0.442 0.261-0.442c1.498-2.020 1.498-4.737 0-6.761l-0.261-0.441zM33.634 42.983c2.94-2.131 6.854-2.131 9.793 0l4.321 2.451-4.321 2.451c-1.47 1.066-3.183 1.6-4.897 1.6s-3.427-0.534-4.897-1.6l-4.321-2.451zM41.91 45.695l0.442-0.261-0.442-0.261c-2.021-1.498-4.738-1.498-6.761 0l-0.442 0.261 0.442 0.261c2.024 1.499 4.739 1.498 6.761 0zM17.889 50.956l-2.451-4.32c-2.133-2.94-2.133-6.854 0-9.793l2.451-4.32 2.451 4.32c2.134 2.94 2.134 6.854 0 9.793zM17.628 38.358c-1.498 2.022-1.498 4.738 0 6.762l0.261 0.441 0.261-0.441c1.498-2.022 1.498-4.738 0-6.762l-0.261-0.441zM25.16 51.456c2.941-2.134 6.855-2.134 9.793 0l4.322 2.451-4.322 2.451c-1.47 1.068-3.183 1.6-4.897 1.6s-3.427-0.533-4.897-1.6l-4.322-2.451zM33.438 54.169l0.442-0.261-0.442-0.261c-2.021-1.5-4.738-1.5-6.761 0l-0.442 0.261 0.442 0.261c2.021 1.498 4.738 1.498 6.761 0zM9.417 59.431l-2.451-4.324c-2.134-2.94-2.134-6.852 0-9.792l2.451-4.323 2.451 4.324c2.134 2.94 2.134 6.852 0 9.792zM9.154 46.832c-1.498 2.020-1.498 4.737 0 6.758l0.262 0.442 0.262-0.442c1.498-2.020 1.498-4.737 0-6.758l-0.262-0.442zM16.688 59.929c2.941-2.133 6.855-2.133 9.795 0l4.321 2.451-4.321 2.451c-1.471 1.068-3.183 1.6-4.898 1.6-1.713 0-3.427-0.533-4.897-1.6l-4.321-2.451zM24.965 62.641l0.442-0.261-0.442-0.261c-2.022-1.498-4.738-1.498-6.76 0l-0.442 0.261 0.442 0.261c2.021 1.5 4.738 1.5 6.76 0zM48.074 10.399c-0.341 0-0.68-0.13-0.941-0.39-0.52-0.52-0.52-1.362 0-1.882l7.531-7.531c0.521-0.52 1.362-0.52 1.882 0s0.521 1.362 0 1.882l-7.531 7.531c-0.26 0.26-0.6 0.39-0.941 0.39zM52.782 11.892c-0.521-0.52-0.521-1.363 0-1.882l9.414-9.414c0.52-0.52 1.362-0.52 1.882 0s0.52 1.362 0 1.882l-9.414 9.414c-0.26 0.26-0.6 0.39-0.941 0.39s-0.682-0.13-0.941-0.39zM69.727 8.126c0.52-0.52 1.362-0.52 1.882 0s0.52 1.362 0 1.882l-9.414 9.414c-0.26 0.26-0.6 0.39-0.941 0.39s-0.682-0.13-0.941-0.39c-0.521-0.521-0.521-1.362 0-1.882zM61.255 10.95c-0.521-0.52-0.521-1.363 0-1.882l8.473-8.473c0.521-0.52 1.362-0.52 1.883 0s0.52 1.362 0 1.882l-8.473 8.473c-0.26 0.26-0.6 0.39-0.941 0.39s-0.682-0.13-0.941-0.39zM69.727 15.658c0.52-0.521 1.362-0.521 1.882 0s0.52 1.362 0 1.882l-7.531 7.53c-0.26 0.26-0.6 0.39-0.941 0.39s-0.682-0.131-0.941-0.39c-0.521-0.521-0.521-1.362 0-1.882z"></path>
</svg>
