<!-- Generated by IcoMoon.io -->
<svg version="1.1" xmlns="http://www.w3.org/2000/svg" width="72" height="72" viewBox="0 0 72 72">
<title>uniF131</title>
<path d="M71.496 44.452c1.038 2.784 0.449 5.839-1.539 7.975-1.331 1.431-3.072 2.195-4.883 2.195-0.618 0-1.245-0.089-1.866-0.271l-13.952-4.081c-2.524 2.018-5.006 3.294-7.257 3.294-0.526 0-1.039-0.069-1.538-0.215-0.452-0.047-0.89-0.163-1.318-0.32-0.969 0.989-2.31 1.593-3.765 1.593-1.431 0-2.748-0.586-3.713-1.545-0.391 0.133-0.788 0.231-1.195 0.273-0.499 0.145-1.013 0.215-1.539 0.215-2.164 0-4.541-1.188-6.962-3.070l-13.179 3.857c-0.621 0.183-1.247 0.271-1.866 0.271-1.811 0-3.553-0.765-4.883-2.195-1.985-2.135-2.573-5.191-1.535-7.974 1.59-4.266 4.072-8.159 7.362-11.596-0.751-3.060 0.468-6.058 3.527-8.278 3.889-2.825 9.209-4.628 13.049-4.489 0.109-0.159 0.222-0.314 0.346-0.463 0.821-0.981 1.907-1.663 3.107-2.002l1.3-0.222c0.089-0.006 11.968-0.022 11.968-0.022 0.272 0 1.787 0.268 1.787 0.268 1.167 0.346 2.222 1.022 3.023 1.979 0.128 0.151 0.243 0.312 0.355 0.474 3.858-0.207 9.238 1.589 13.215 4.476v0c2.75 1.997 4.006 4.623 3.686 7.356 3.689 3.594 6.548 7.903 8.268 12.519zM39.704 19.864h-8.65l1.627 6.147c0.324 1.223 1.432 2.077 2.697 2.077s2.373-0.854 2.697-2.077zM19.712 48.566c-0.092-0.087-0.183-0.183-0.276-0.268-0.355-0.339-0.71-0.689-1.064-1.050-0.077-0.078-0.153-0.155-0.23-0.235-2.738-2.828-5.421-6.24-7.803-9.589-0.368-0.515-0.718-1.017-1.050-1.498-0.132-0.189-0.254-0.381-0.37-0.572-2.692 2.994-4.738 6.339-6.090 9.967-0.845 2.268-0.024 4.285 1.028 5.415 1.149 1.235 2.691 1.683 4.235 1.231zM30.134 50.885c0.066-0.005 0.13-0.012 0.195-0.022-0.016-0.056-0.032-0.112-0.047-0.168l-6.838-25.843c-0.061-0.34-0.087-0.676-0.097-1.012-0.002-0.092-0.006-0.184-0.005-0.276 0.004-0.309 0.027-0.613 0.074-0.912 0.005-0.032 0.002-0.066 0.008-0.098-3.205 0.185-7.455 1.768-10.571 4.032-2.521 1.83-3.278 4.198-2.221 6.645 0.042 0.097 0.078 0.194 0.125 0.29 0.161 0.33 0.348 0.66 0.576 0.992 0.439 0.637 0.874 1.25 1.307 1.853 0.223 0.312 0.46 0.632 0.695 0.952 0.206 0.282 0.412 0.564 0.617 0.837 0.314 0.42 0.639 0.844 0.968 1.27 0.127 0.165 0.256 0.331 0.382 0.494 0.393 0.503 0.797 1.005 1.208 1.506 0.070 0.083 0.139 0.17 0.207 0.253 1.997 2.412 4.157 4.732 6.291 6.488l0.467 0.385c2.607 2.048 4.794 2.903 6.374 2.389zM33.071 50.913c0.509 0.748 1.365 1.225 2.308 1.224 0.927 0 1.768-0.462 2.279-1.188l0.076-0.119c0.159-0.251 0.273-0.509 0.343-0.77l6.838-25.839c0.037-0.215 0.042-0.438 0.037-0.66-0.003-0.097-0.013-0.195-0.024-0.294-0.014-0.122-0.036-0.242-0.061-0.363-0.026-0.119-0.050-0.238-0.087-0.356-0.032-0.105-0.079-0.206-0.122-0.309-0.040-0.098-0.073-0.197-0.122-0.293l-0.047-0.093c-0.122-0.22-0.258-0.434-0.423-0.632-0.487-0.582-1.133-0.978-1.842-1.187l-1.749 6.611c-0.611 2.31-2.707 3.924-5.097 3.924s-4.485-1.614-5.097-3.924l-1.75-6.61c-0.709 0.209-1.354 0.605-1.841 1.185-0.172 0.206-0.318 0.428-0.441 0.662l-0.022 0.042c-0.016 0.032-0.025 0.067-0.041 0.099-0.089 0.185-0.164 0.375-0.221 0.57-0.022 0.078-0.037 0.158-0.056 0.237-0.039 0.172-0.067 0.348-0.081 0.525-0.006 0.073-0.014 0.145-0.015 0.218-0.006 0.248 0.005 0.498 0.050 0.747l6.817 25.74c0.040 0.149 0.092 0.292 0.153 0.428 0.062 0.138 0.136 0.271 0.221 0.4zM41.084 50.941c1.75 0.566 4.244-0.551 7.231-3.096 0.469-0.401 0.939-0.823 1.406-1.27 0.029-0.027 0.055-0.051 0.083-0.078 0.521-0.499 1.040-1.023 1.554-1.566 0.002-0.002 0.005-0.004 0.006-0.006 0.489-0.516 0.973-1.053 1.451-1.596 0.108-0.123 0.217-0.253 0.327-0.379 0.377-0.436 0.751-0.875 1.118-1.32 0.138-0.166 0.277-0.338 0.415-0.508 0.333-0.41 0.66-0.819 0.982-1.23 0.169-0.216 0.34-0.438 0.511-0.66 0.281-0.366 0.558-0.73 0.829-1.091 0.227-0.304 0.457-0.617 0.686-0.931 0.209-0.285 0.42-0.572 0.62-0.85 0.431-0.601 0.864-1.211 1.301-1.845 0.227-0.33 0.412-0.659 0.573-0.988 0.023-0.047 0.050-0.094 0.072-0.142 0.143-0.311 0.253-0.619 0.338-0.927 0.016-0.058 0.032-0.118 0.047-0.176 0.505-2.103-0.359-4.101-2.551-5.694v0c-3.452-2.506-7.786-3.882-10.745-4.026 0.001 0.010 0.001 0.021 0.002 0.031 0.054 0.322 0.083 0.647 0.087 0.974 0.001 0.067-0.001 0.134-0.002 0.202-0.006 0.328-0.030 0.655-0.088 0.984v0.004l-6.861 25.939c-0.012 0.046-0.025 0.092-0.038 0.138 0.119 0.025 0.239 0.041 0.36 0.051zM68.141 50.735c1.053-1.13 1.876-3.147 1.028-5.417-1.45-3.889-3.769-7.555-6.758-10.699-0.013 0.025-0.031 0.048-0.043 0.073-0.209 0.412-0.443 0.824-0.725 1.231-0.325 0.472-0.669 0.962-1.029 1.467-2.321 3.266-4.929 6.598-7.599 9.388-0.133 0.139-0.267 0.272-0.4 0.408-0.288 0.295-0.576 0.586-0.865 0.866-0.092 0.091-0.183 0.187-0.274 0.276l12.432 3.637c1.547 0.453 3.087 0.002 4.234-1.231z"></path>
</svg>
