<!-- Generated by IcoMoon.io -->
<svg version="1.1" xmlns="http://www.w3.org/2000/svg" width="72" height="72" viewBox="0 0 72 72">
<title>uniF1E5</title>
<path d="M59.418 27.266l-0.075 0.067c-0.050 0.221-0.106 0.443-0.21 0.653l-20.891 42.423c-0.483 0.984-1.465 1.593-2.56 1.593h-0.017c-1.104-0.007-2.086-0.629-2.56-1.626l-20.255-42.429c-0.097-0.205-0.15-0.42-0.196-0.636l-0.074-0.066 0.007-0.567c0-0.040 0.009-0.079 0.011-0.119 0.008-0.114 0.013-0.224 0.033-0.335 0.034-0.202 0.089-0.397 0.162-0.583 0.024-0.056 0.051-0.109 0.077-0.164 0.102-0.217 0.224-0.425 0.381-0.609l20.251-23.861c0.538-0.634 1.324-1.002 2.155-1.008h0.023c0.823 0 1.605 0.355 2.15 0.977l20.893 23.865c0.156 0.18 0.279 0.383 0.383 0.597 0.036 0.072 0.072 0.141 0.102 0.216 0.070 0.177 0.124 0.362 0.157 0.553 0.024 0.129 0.030 0.257 0.036 0.388 0.001 0.036 0.010 0.070 0.010 0.106zM35.68 2.498c-0.039-0.027-0.177 0.015-0.272 0.127l-20.104 23.685c0.581 0.481 1.205 0.934 1.856 1.368 0.383-0.24 0.804-0.406 1.246-0.473 0.174-1.657 1.397-2.983 2.948-3.218 0.175-1.656 1.397-2.981 2.948-3.216 0.174-1.656 1.396-2.981 2.947-3.216 0.175-1.656 1.397-2.981 2.948-3.216 0.146-1.399 1.035-2.571 2.279-3.035 0.786-1.139 2.033-1.827 3.371-1.827s2.585 0.688 3.371 1.827c1.244 0.463 2.133 1.636 2.279 3.035 1.551 0.233 2.774 1.56 2.948 3.216 1.55 0.234 2.772 1.56 2.947 3.216 1.551 0.234 2.774 1.56 2.948 3.216 1.551 0.233 2.775 1.561 2.948 3.218 0.506 0.079 0.978 0.29 1.4 0.593 0.709-0.463 1.381-0.955 2.009-1.474l-20.752-23.704c-0.091-0.106-0.206-0.122-0.268-0.122zM47.685 31.072c1.466-0.473 2.852-1.046 4.168-1.692-0.601-0.367-1.034-1.046-1.034-1.772 0-0.642-0.432-1.164-0.963-1.164-1.039 0-1.986-0.979-1.986-2.053 0-0.642-0.432-1.164-0.963-1.164-1.039 0-1.986-0.979-1.986-2.053 0-0.642-0.432-1.164-0.963-1.164-1.039 0-1.986-0.979-1.986-2.053 0-0.642-0.432-1.164-0.963-1.164-1.039 0-1.986-0.979-1.986-2.053 0-0.571-0.357-1.063-0.829-1.144l-0.611-0.106-0.285-0.551c-0.315-0.607-0.857-0.97-1.449-0.97s-1.134 0.363-1.449 0.97l-0.285 0.551-0.611 0.106c-0.473 0.081-0.829 0.573-0.829 1.144 0 1.075-0.945 2.053-1.986 2.053-0.531 0-0.963 0.522-0.963 1.164 0 1.075-0.947 2.053-1.986 2.053-0.531 0-0.963 0.522-0.963 1.164 0 1.075-0.945 2.053-1.986 2.053-0.531 0-0.963 0.522-0.963 1.164 0 1.075-0.945 2.053-1.986 2.053-0.531 0-0.963 0.522-0.963 1.164 0 0.671-0.371 1.303-0.9 1.683 0.622 0.311 1.251 0.617 1.912 0.89 0.029 0.013 0.057 0.021 0.086 0.034 0.758 0.311 1.544 0.593 2.347 0.853 0.094 0.031 0.189 0.060 0.284 0.090-0.682-1.507-0.417-3.339 0.82-4.577l3.046-3.046c0.050-0.049 0.109-0.084 0.16-0.13-0.3-1.341 0.077-2.782 1.077-3.78l3.046-3.046c1.595-1.595 4.19-1.595 5.785 0l3.046 3.046c0.978 0.977 1.364 2.349 1.106 3.66 0.102 0.084 0.211 0.155 0.307 0.251l3.046 3.046c1.286 1.286 1.517 3.215 0.729 4.752 0.166-0.048 0.337-0.086 0.501-0.136 0.135-0.042 0.27-0.084 0.403-0.126zM27.2 30.601l1.568 1.57c0.286 0.052 0.566 0.115 0.854 0.162 0.284 0.046 0.566 0.091 0.852 0.131 0.602 0.085 1.211 0.149 1.825 0.206 0.291 0.026 0.58 0.061 0.871 0.081 0.036 0.003 0.074 0.006 0.111 0.009 0.031 0.002 0.065 0.001 0.096 0.004l0.606-0.604c-0.070-0.080-0.12-0.169-0.182-0.252-0.066-0.089-0.136-0.176-0.195-0.27-0.082-0.134-0.15-0.272-0.216-0.412-0.044-0.091-0.094-0.18-0.13-0.274-0.061-0.159-0.102-0.322-0.144-0.486-0.020-0.081-0.050-0.16-0.065-0.242-0.045-0.247-0.071-0.497-0.071-0.748v-0.001c0-0.252 0.025-0.503 0.071-0.751 0.015-0.081 0.044-0.159 0.064-0.239 0.041-0.166 0.083-0.331 0.145-0.491 0.035-0.092 0.084-0.177 0.126-0.267 0.019-0.037 0.035-0.076 0.055-0.115v0c0.001-0.001 0.002-0.004 0.004-0.005 0.051-0.101 0.102-0.202 0.164-0.3 0.039-0.063 0.083-0.124 0.126-0.185 0.006-0.008 0.010-0.017 0.016-0.026l0.004 0.002c0.013-0.017 0.028-0.032 0.040-0.050 0.064-0.086 0.116-0.179 0.189-0.261l-1.485-1.486c-0.139-0.139-0.301-0.233-0.468-0.311-0.067-0.030-0.14-0.049-0.211-0.069-0.1-0.029-0.2-0.049-0.302-0.059-0.091-0.008-0.184-0.011-0.277-0.003-0.077 0.006-0.154 0.026-0.23 0.045-0.106 0.025-0.212 0.049-0.313 0.096-0.16 0.077-0.317 0.167-0.45 0.3l-3.046 3.046c-0.621 0.621-0.621 1.632 0 2.253zM31.031 22.362c0.065-0.005 0.13-0.005 0.196-0.006 0.837-0.030 1.681 0.185 2.405 0.666 0.225 0.149 0.437 0.32 0.633 0.516l1.477 1.479 1.479-1.479c0.201-0.201 0.418-0.377 0.647-0.527 0.144-0.095 0.3-0.162 0.452-0.237 0.089-0.045 0.174-0.1 0.266-0.137 0.151-0.061 0.311-0.096 0.468-0.139 0.105-0.027 0.206-0.065 0.312-0.085 0.137-0.025 0.278-0.029 0.42-0.040 0.132-0.011 0.264-0.027 0.397-0.025 0.030 0.001 0.060-0.006 0.091-0.005-0.035-0.352-0.189-0.688-0.45-0.95l-3.046-3.046c-0.621-0.622-1.632-0.622-2.253 0l-3.046 3.046c-0.265 0.265-0.417 0.611-0.45 0.97zM44.286 30.601c0.621-0.621 0.621-1.632 0-2.255l-3.046-3.046c-0.15-0.151-0.326-0.262-0.511-0.34-0.036-0.015-0.075-0.016-0.111-0.029-0.145-0.049-0.292-0.080-0.443-0.086-0.054-0.001-0.106 0.005-0.159 0.008-0.137 0.009-0.273 0.035-0.406 0.079-0.049 0.016-0.097 0.030-0.145 0.051-0.171 0.077-0.336 0.176-0.477 0.317l-3.046 3.047c-0.621 0.621-0.621 1.632 0 2.253l2.184 2.184c0.181-0.009 0.363-0.008 0.543-0.020 0.271-0.017 0.543-0.042 0.815-0.066 0.655-0.057 1.303-0.131 1.946-0.22 0.257-0.036 0.515-0.067 0.771-0.107 0.131-0.021 0.257-0.051 0.387-0.074zM36.005 69.304l19.126-38.847c-0.059 0.036-0.124 0.066-0.183 0.101-0.483 0.287-0.983 0.557-1.491 0.819-0.231 0.119-0.462 0.234-0.697 0.347-0.566 0.274-1.138 0.538-1.73 0.783-0.126 0.052-0.256 0.097-0.383 0.149-1.921 0.766-3.964 1.374-6.108 1.817-0.261 0.055-0.517 0.121-0.781 0.171l-0.373 0.066c-0.039 0.008-0.080 0.010-0.119 0.018-0.453 0.079-0.912 0.145-1.373 0.208-0.353 0.050-0.707 0.099-1.064 0.14-0.26 0.030-0.52 0.051-0.78 0.076-0.34 0.033-0.678 0.067-1.022 0.091-0.301 0.021-0.603 0.036-0.905 0.051-0.14 0.008-0.28 0.026-0.42 0.031l-0.546 0.023-0.023-0.023c-0.376 0.010-0.748 0.035-1.125 0.035-0.552 0-1.098-0.030-1.645-0.051l-0.016 0.016-0.555-0.027c-0.034-0.001-0.067-0.007-0.102-0.009-0.242-0.013-0.483-0.027-0.726-0.045-0.398-0.027-0.788-0.072-1.183-0.111-0.302-0.030-0.607-0.049-0.907-0.085-0.013-0.003-0.025-0.003-0.036-0.004-0.262-0.032-0.52-0.076-0.781-0.114-0.498-0.070-0.989-0.147-1.479-0.235-0.202-0.036-0.407-0.066-0.608-0.105-0.005-0.001-0.011-0.001-0.018-0.002l-0.373-0.074-0.016-0.016c-0.077-0.016-0.152-0.036-0.23-0.052-0.567-0.12-1.133-0.238-1.685-0.381-0.165-0.042-0.324-0.096-0.488-0.141-1.405-0.382-2.757-0.838-4.052-1.367-0.096-0.039-0.196-0.072-0.291-0.113-0.573-0.24-1.123-0.503-1.67-0.772-0.261-0.129-0.523-0.256-0.779-0.39-0.478-0.252-0.945-0.514-1.402-0.788-0.057-0.035-0.121-0.065-0.179-0.1l18.572 38.903c0.080 0.167 0.218 0.204 0.321 0.204h0.002c0.101 0 0.239-0.035 0.32-0.199z"></path>
</svg>
