<!-- Generated by IcoMoon.io -->
<svg version="1.1" xmlns="http://www.w3.org/2000/svg" width="72" height="72" viewBox="0 0 72 72">
<title>uniF11E</title>
<path d="M70.921 32.862c0.618 0.081 1.079 0.607 1.077 1.229v24.256c0 0.532-0.342 1.007-0.847 1.176-5.749 1.923-15.19 3.098-25.254 3.145h-0.006c-0.174 0-0.341-0.041-0.496-0.109-0.051-0.022-0.089-0.062-0.136-0.091-0.083-0.051-0.171-0.092-0.242-0.161-0.014-0.015-0.020-0.036-0.033-0.051-0.013-0.015-0.032-0.020-0.045-0.035l-6.202-7.442c-0.185-0.223-0.287-0.505-0.287-0.795v-10.271c-1.669-0.562-3.623-1.217-4.961-1.662v8.345c0 0.68-0.546 1.233-1.225 1.24l-0.657 0.005c-16.837 0-31.605-4.701-31.605-10.060l0.005-22.548c0-0.017-0.005-0.036-0.005-0.055 0-5.77 16.603-9.646 32.113-9.647 14.45 0 29.845 3.366 31.878 8.494 0.004 0.011 0.010 0.022 0.015 0.034 0.056 0.145 0.097 0.292 0.13 0.439 0.006 0.030 0.017 0.059 0.024 0.089 0.027 0.134 0.038 0.27 0.047 0.407 0.002 0.038 0.011 0.074 0.012 0.113v0.031c0 0.015 0.004 0.027 0.004 0.050 0 0-0.004 0.011-0.004 0.020l0.002 12.967 6.625 0.871c0.014 0.001 0.026 0.010 0.040 0.012zM46.511 35.924c6.411-0.066 12.505-0.593 17.441-1.478l-7.066-0.928-13.738-1.481zM61.74 31.648l-0.001-7.627c-0.935 1.016-2.101 1.887-3.442 2.425v4.749zM29.95 26.682l-4.577-7.027c-0.136-0.21-0.203-0.452-0.201-0.691 0.002-0.241 0.076-0.48 0.217-0.687 0.036-0.052 0.084-0.090 0.126-0.135 0.272-0.292 0.659-0.437 1.060-0.383 0.031 0.004 0.063-0.001 0.094 0.005l30.717 6.405c2.795-1.113 4.33-4.246 4.35-5.17v-0.047c-0.001-0.035-0.010-0.072-0.016-0.109-0.006-0.040-0.010-0.078-0.021-0.119-0.115-0.388-0.494-0.817-1.103-1.266-0.040-0.030-0.076-0.058-0.118-0.088s-0.090-0.060-0.134-0.089c-3.67-2.467-14.319-5.469-28.235-5.469-17.307 0-29.565 4.643-29.626 7.156v0.030c0.052 2.293 10.373 7.374 27.465 7.685zM31.009 49.159v-19.986c-12.289-0.088-23.665-2.838-28.524-6.447l-0.004 18.856c0 2.29 10.762 7.464 28.528 7.577zM33.489 39.492c1.016 0.289 2.559 0.799 4.961 1.604v-11.086c0-0.038 0.014-0.074 0.016-0.115 0.006-0.065 0.014-0.127 0.030-0.191 0.016-0.061 0.037-0.118 0.062-0.175 0.016-0.036 0.021-0.074 0.040-0.11 0.011-0.021 0.031-0.036 0.043-0.057 0.034-0.053 0.072-0.101 0.113-0.149 0.040-0.047 0.079-0.093 0.125-0.133s0.096-0.072 0.148-0.105c0.056-0.035 0.109-0.068 0.169-0.094 0.021-0.010 0.038-0.026 0.061-0.035 0.035-0.013 0.069-0.011 0.104-0.021 0.066-0.019 0.13-0.034 0.198-0.041 0.059-0.005 0.119-0.005 0.179-0.002 0.038 0.002 0.076-0.006 0.114-0.001l0.008 0.001c0.017 0.001 0.035-0.004 0.052-0.001l15.904 2.090v-4.407l-26.726-5.651 4.2 6.449c0.030 0.047 0.046 0.1 0.069 0.151s0.054 0.1 0.071 0.154c0.020 0.066 0.025 0.134 0.035 0.201 0.005 0.045 0.017 0.087 0.019 0.131 0.001 0.015 0.006 0.027 0.006 0.041v11.554zM40.932 42.822v10.714l3.721 4.466v-20.364l-3.721-4.3v9.484zM47.133 60.174c8.855-0.124 17.059-1.129 22.386-2.736v-21.712c-5.523 1.564-13.661 2.54-22.386 2.669v21.779z"></path>
</svg>
