<!-- Generated by IcoMoon.io -->
<svg version="1.1" xmlns="http://www.w3.org/2000/svg" width="72" height="72" viewBox="0 0 72 72">
<title>uniF1E1</title>
<path d="M48.8 52.286c0.339 4.668 0.583 10.503 0.132 14.622-0.083 3.191-5.147 5.093-13.581 5.093-10.047 0-12.242-2.751-12.289-5.095-0.501-4.593-0.138-11.342 0.255-16.206 0.163-2.010 0.6-4.094 1.357-6.426 0.252-0.777 0.539-1.582 0.864-2.421 0.148-0.38 0.27-0.78 0.371-1.191 0.201-0.824 0.311-1.697 0.333-2.566 0.056-2.172-0.437-4.312-1.411-5.572-1.089-1.41-1.683-3.288-1.671-5.29 0.001-0.123 0.006-0.237 0.013-0.351l0.043-1.852 0.047 0.013c0.798-9.353 6.298-11.826 8.068-12.376 0.204-0.3 0.42-0.83 0.567-1.818 0.010-0.072 0.035-0.14 0.052-0.21-1.399-0.467-2.416-1.247-2.416-2.448v-5.174c0-2.227 3.483-3.018 6.467-3.018s6.467 0.79 6.467 3.018v5.174c0 1.202-1.017 1.983-2.417 2.45 0.016 0.071 0.041 0.137 0.052 0.211 0.146 0.983 0.362 1.515 0.519 1.788 1.815 0.578 7.317 3.052 8.116 12.404l0.035-0.009 0.054 1.833c0.008 0.119 0.013 0.237 0.014 0.365v0.003c0.006 1.615-0.396 3.138-1.116 4.409-0.172 0.304-0.345 0.607-0.555 0.878-1.074 1.388-1.544 3.841-1.362 6.229 0.083 1.081 0.287 2.152 0.653 3.1 1.297 3.358 2.003 6.17 2.221 8.847l0.128 1.587zM26.069 49.565c-0.037 0.257-0.069 0.512-0.096 0.766 2.807 0.631 6.317 0.975 10.028 0.975s7.221-0.343 10.028-0.975c-0.027-0.242-0.057-0.488-0.093-0.733-0.036-0.251-0.067-0.499-0.114-0.755-0.069-0.379-0.158-0.77-0.247-1.162-0.056-0.242-0.102-0.477-0.166-0.724-0.115-0.446-0.257-0.912-0.401-1.38-0.065-0.211-0.116-0.411-0.188-0.627-0.228-0.694-0.482-1.411-0.773-2.164-0.567-1.465-0.854-3.113-0.881-4.744-0.045-2.719 0.634-5.391 1.954-7.1 0.164-0.213 0.305-0.449 0.436-0.694 0.039-0.074 0.074-0.151 0.11-0.228 0.090-0.194 0.172-0.394 0.242-0.604 0.025-0.072 0.052-0.144 0.074-0.217 0.078-0.264 0.138-0.538 0.182-0.821-2.914 0.61-6.449 0.943-10.164 0.943s-7.251-0.333-10.165-0.944c0.044 0.282 0.104 0.557 0.181 0.821 0.022 0.074 0.049 0.145 0.074 0.217 0.071 0.21 0.151 0.413 0.243 0.607 0.035 0.075 0.070 0.151 0.109 0.225 0.124 0.233 0.26 0.457 0.415 0.661 0.008 0.010 0.014 0.023 0.022 0.034 0.645 0.834 1.116 1.913 1.446 3.1 0.749 2.702 0.676 6.027-0.373 8.743-0.29 0.75-0.544 1.467-0.772 2.16-0.072 0.221-0.127 0.428-0.193 0.644-0.142 0.463-0.283 0.925-0.397 1.367-0.062 0.243-0.109 0.476-0.163 0.714-0.092 0.397-0.182 0.794-0.251 1.178-0.044 0.243-0.074 0.48-0.109 0.718zM32.12 3.299v4.61c0.334 0.207 1.265 0.548 2.781 0.667 0.713 0.052 1.484 0.052 2.199 0 1.517-0.119 2.447-0.46 2.781-0.667v-4.61c-0.409-0.255-1.696-0.713-3.88-0.713s-3.472 0.458-3.88 0.713zM32.101 15.138c-1.394 0.433-5.762 2.45-6.294 10.575 2.833 0.657 6.401 1.017 10.195 1.017 3.795 0 7.363-0.36 10.195-1.015-0.534-8.126-4.901-10.144-6.295-10.578-0.653-0.203-1.195-0.634-1.526-1.215-0.388-0.676-0.669-1.584-0.833-2.695-0.547-0.040-1.035-0.018-1.542-0.018-0.445 0-0.9-0.019-1.354-0.057-0.035-0.002-0.074-0.001-0.107-0.004-0.247 1.194-0.528 2.102-0.916 2.777-0.33 0.578-0.871 1.010-1.522 1.213zM46.357 66.684c0.423-3.805 0.211-9.265-0.104-13.759-2.935 0.625-6.504 0.968-10.253 0.968s-7.318-0.343-10.253-0.968c-0.316 4.497-0.528 9.959-0.105 13.759l0.008 0.142c0 0.894 2.028 2.587 9.703 2.587 8.288 0 10.995-1.923 10.995-2.587zM35.757 6.299h-1.293c-0.715 0-1.293-0.578-1.293-1.293s0.578-1.293 1.293-1.293h1.293c0.715 0 1.293 0.578 1.293 1.293s-0.578 1.293-1.293 1.293zM34.010 64.228c0.658-0.030 1.314 0.526 1.341 1.242 0.027 0.714-0.528 1.315-1.242 1.343-0.215 0.009-0.425 0.013-0.63 0.013-2.323 0-3.999-0.541-4.992-1.612-0.726-0.785-0.934-1.724-0.894-2.335v-1.226c0-0.715 0.578-1.293 1.293-1.293s1.293 0.578 1.293 1.293l-0.009 1.428c0.001-0.002 0.001-0.004 0.001-0.004 0.006 0 0.030 0.204 0.257 0.423 0.263 0.253 1.141 0.824 3.58 0.728zM28.887 59.066c-0.715 0-1.293-0.578-1.293-1.293v-1.306c0-0.715 0.578-1.293 1.293-1.293s1.293 0.578 1.293 1.293v1.306c0 0.715-0.578 1.293-1.293 1.293zM29.951 24.123c-0.702-0.126-1.17-0.798-1.045-1.5 0.754-4.211 4.435-6.034 4.59-6.11 0.649-0.308 1.418-0.039 1.728 0.602 0.309 0.641 0.043 1.412-0.596 1.725-0.109 0.054-2.659 1.352-3.175 4.24-0.113 0.625-0.656 1.064-1.271 1.064-0.076 0-0.151-0.006-0.23-0.021z"></path>
</svg>
