<!-- Generated by IcoMoon.io -->
<svg version="1.1" xmlns="http://www.w3.org/2000/svg" width="72" height="72" viewBox="0 0 72 72">
<title>uniF1AA</title>
<path d="M13.613 30.722c0.681 0.358 0.945 1.199 0.587 1.881-2.417 4.607-3.072 9.711-1.843 14.372 0.196 0.744-0.248 1.506-0.992 1.702-0.118 0.032-0.238 0.047-0.356 0.047-0.617 0-1.181-0.414-1.346-1.039-1.407-5.335-0.673-11.151 2.069-16.376 0.357-0.68 1.199-0.944 1.882-0.587zM20.608 21.565c0.642-0.421 1.506-0.244 1.929 0.397 0.422 0.643 0.244 1.507-0.4 1.929-1.266 0.834-2.46 1.791-3.545 2.844-0.269 0.263-0.62 0.394-0.97 0.394-0.364 0-0.727-0.141-1-0.422-0.536-0.552-0.522-1.433 0.029-1.97 1.209-1.176 2.541-2.244 3.956-3.173zM41.781 10.237c16.339 2.512 28.348 15.301 28.347 30.691 0 16.396-14.039 30.045-31.959 31.072l-5.678-0.1c-17.502-1.679-30.62-14.99-30.62-30.971 0-15.099 11.773-27.862 27.78-30.596-1.953-1.439-4.735-1.672-4.771-1.674-0.687-0.046-1.237-0.586-1.296-1.272s0.393-1.311 1.062-1.472c3.126-0.754 5.817-0.825 8.036-0.216 0.748-3.577 1.725-4.993 1.847-5.161 0.525-0.715 1.722-0.715 2.247 0 0.123 0.169 1.099 1.584 1.847 5.161 2.216-0.609 4.91-0.538 8.036 0.216 0.67 0.162 1.12 0.787 1.061 1.472-0.057 0.685-0.609 1.226-1.295 1.272-0.032 0.003-2.698 0.212-4.644 1.58zM38.116 69.217c16.343-0.94 29.227-13.366 29.227-28.288 0-14.754-12.235-26.89-28.458-28.23-0.464-0.038-0.878-0.305-1.103-0.712-0.226-0.405-0.234-0.899-0.022-1.312 0.504-0.982 1.202-1.765 1.985-2.388-0.571 0.127-1.096 0.309-1.573 0.546-0.397 0.198-0.866 0.197-1.261-0.008s-0.667-0.584-0.737-1.022c-0.159-1.017-0.34-1.874-0.522-2.588-0.183 0.715-0.364 1.573-0.522 2.588-0.070 0.439-0.343 0.819-0.737 1.022-0.394 0.202-0.862 0.205-1.261 0.008-0.475-0.237-0.997-0.418-1.566-0.545 0.8 0.638 1.514 1.446 2.020 2.463 0.203 0.41 0.192 0.892-0.028 1.293-0.221 0.4-0.624 0.667-1.080 0.713-15.861 1.606-27.822 13.717-27.822 28.171 0 14.538 12.036 26.658 27.994 28.192z"></path>
</svg>
