<!-- Generated by IcoMoon.io -->
<svg version="1.1" xmlns="http://www.w3.org/2000/svg" width="72" height="72" viewBox="0 0 72 72">
<title>uniF183</title>
<path d="M28.086 28.552c0.686 0 1.241 0.555 1.241 1.241s-0.555 1.241-1.241 1.241h-4.966c-0.687 0-1.241-0.555-1.241-1.241s0.555-1.241 1.241-1.241h4.966zM23.121 36c-0.687 0-1.241-0.555-1.241-1.241s0.555-1.241 1.241-1.241h2.483c0.686 0 1.241 0.555 1.241 1.241s-0.555 1.241-1.241 1.241h-2.483zM28.086 48.414c0.686 0 1.241 0.555 1.241 1.241s-0.555 1.241-1.241 1.241h-4.966c-0.687 0-1.241-0.555-1.241-1.241s0.555-1.241 1.241-1.241h4.966zM28.086 38.483c0.686 0 1.241 0.555 1.241 1.241s-0.555 1.241-1.241 1.241h-4.966c-0.687 0-1.241-0.555-1.241-1.241s0.555-1.241 1.241-1.241h4.966zM23.121 45.931c-0.687 0-1.241-0.555-1.241-1.241s0.555-1.241 1.241-1.241h2.483c0.686 0 1.241 0.555 1.241 1.241s-0.555 1.241-1.241 1.241h-2.483zM59.121 18.621c2.053 0 3.724 1.671 3.724 3.724v23.586c0 2.053-1.671 3.724-3.724 3.724h-8.6l-0.268 1.83c-0.093 1.666-0.77 3.19-1.83 4.377h2.009c2.053 0 3.724 1.671 3.724 3.724v12.414h-42.207v-12.414c0-2.053 1.671-3.724 3.724-3.724h2.866c-0.556-0.73-0.972-1.577-1.161-2.521l-2.908-28.080-4.684-7.025c-0.767-1.151-0.838-2.624-0.186-3.843 0.653-1.221 1.919-1.979 3.302-1.979h2.771v-2.483c0-2.053 1.671-3.724 3.724-3.724h2.483v-2.483c0-2.053 1.671-3.724 3.724-3.724h14.897c2.053 0 3.724 1.671 3.724 3.724v2.483h2.483c2.053 0 3.724 1.671 3.724 3.724v2.541c1.247 0.139 2.397 0.679 3.274 1.608 1.015 1.076 1.528 2.482 1.444 3.958l-0.086 0.584h4.058zM24.362 3.724v2.483h17.379v-2.483c0-0.685-0.556-1.241-1.241-1.241h-14.897c-0.685 0-1.241 0.556-1.241 1.241zM18.155 9.931v2.483h29.793v-2.483c0-0.685-0.556-1.241-1.241-1.241h-27.31c-0.685 0-1.241 0.556-1.241 1.241zM50.431 58.345h-34.759c-0.685 0-1.241 0.556-1.241 1.241v9.931h37.241v-9.931c0-0.685-0.556-1.241-1.241-1.241zM48.353 47.356l4.326-29.569c0.034-0.679-0.241-1.429-0.782-2.002s-1.274-0.889-2.062-0.889h-36.935c-0.682 0-1.004 0.467-1.112 0.667-0.107 0.2-0.315 0.727 0.063 1.295l5.025 7.536 2.955 28.575c0.329 1.626 1.873 2.892 3.652 2.892h19.403c2.599 0 4.751-2.033 4.9-4.629l0.231-1.578h-0.014zM60.362 45.931v-23.586c0-0.685-0.556-1.241-1.241-1.241h-4.253l-3.975 26.069h8.228c0.685 0 1.241-0.556 1.241-1.241zM21.259 59.586c2.396 0 4.345 1.949 4.345 4.345s-1.949 4.345-4.345 4.345c-2.396 0-4.345-1.949-4.345-4.345s1.949-4.345 4.345-4.345zM21.259 65.793c1.027 0 1.862-0.836 1.862-1.862s-0.836-1.862-1.862-1.862c-1.027 0-1.862 0.836-1.862 1.862s0.836 1.862 1.862 1.862zM40.5 63.931c0-2.396 1.949-4.345 4.345-4.345s4.345 1.949 4.345 4.345c0 2.396-1.949 4.345-4.345 4.345s-4.345-1.949-4.345-4.345zM44.845 62.069c-1.027 0-1.862 0.836-1.862 1.862s0.835 1.862 1.862 1.862 1.862-0.836 1.862-1.862c0-1.027-0.835-1.862-1.862-1.862zM30.569 59.586c0.687 0 1.241 0.555 1.241 1.241v6.207c0 0.687-0.555 1.241-1.241 1.241s-1.241-0.555-1.241-1.241v-6.207c0-0.687 0.555-1.241 1.241-1.241zM35.534 59.586c0.687 0 1.241 0.555 1.241 1.241v6.207c0 0.687-0.555 1.241-1.241 1.241s-1.241-0.555-1.241-1.241v-6.207c0-0.687 0.555-1.241 1.241-1.241z"></path>
</svg>
