<!-- Generated by IcoMoon.io -->
<svg version="1.1" xmlns="http://www.w3.org/2000/svg" width="72" height="72" viewBox="0 0 72 72">
<title>uniF16A</title>
<path d="M52.014 34.234c-0.341 1.273-1.152 2.333-2.291 2.989l-0.038 0.018c0.542 0.374 1.021 0.857 1.391 1.453 1.432 2.304 0.722 5.344-1.582 6.777l-7.348 3.644v5.611c0.005 0.043 0.026 0.081 0.026 0.126s-0.021 0.082-0.026 0.125v5.899c0.005 0.043 0.026 0.081 0.026 0.125s-0.021 0.082-0.026 0.126v7.183c0 0.165-0.028 0.322-0.049 0.482 0.065 0.214 0.095 0.44 0.032 0.672-0.079 0.293-0.261 0.526-0.493 0.686-0.64 1.1-1.818 1.85-3.179 1.85h-4.92c-2.034 0-3.69-1.656-3.69-3.69v-17.986c-0.009-0.015-0.020-0.027-0.030-0.042-0.534-0.862-0.776-1.847-0.723-2.844l-1.8 0.892c-0.702 0.408-1.52 0.622-2.362 0.622-0.432 0-0.87-0.057-1.301-0.173-1.272-0.339-2.334-1.152-2.989-2.288-0.654-1.134-0.826-2.46-0.487-3.731 0.301-1.12 0.983-2.059 1.913-2.719-0.647-0.417-1.202-0.964-1.596-1.648-0.654-1.134-0.826-2.46-0.487-3.731 0.318-1.186 1.059-2.175 2.076-2.836-0.643-0.416-1.195-0.962-1.589-1.643-0.654-1.134-0.826-2.46-0.487-3.731 0.317-1.182 1.053-2.167 2.064-2.829-0.637-0.416-1.184-0.959-1.576-1.636-0.654-1.134-0.826-2.46-0.487-3.731 0.322-1.198 1.074-2.197 2.106-2.857-0.571-0.382-1.064-0.875-1.436-1.473-1.43-2.304-0.721-5.343 1.582-6.774l13.004-6.45c2.203-1.371 5.242-0.664 6.673 1.639 0.525 0.846 0.772 1.813 0.731 2.791l1.947-0.969c2.279-1.32 5.295-0.514 6.652 1.836 1.307 2.267 0.588 5.139-1.574 6.558 0.625 0.41 1.176 0.948 1.574 1.638 0.654 1.134 0.826 2.46 0.487 3.731-0.319 1.186-1.059 2.176-2.076 2.836 0.643 0.416 1.195 0.962 1.589 1.643 1.267 2.194 0.628 4.952-1.374 6.414 0.673 0.421 1.25 0.981 1.657 1.686 0.654 1.134 0.826 2.46 0.487 3.731zM25.46 38.278l22.82-11.32c1.108-0.642 1.512-2.15 0.833-3.324-0.327-0.566-0.857-0.97-1.494-1.141-0.214-0.058-0.431-0.086-0.647-0.086-0.363 0-0.713 0.097-1.044 0.256l-18.8 9.356c-0.196 0.113-0.403 0.208-0.615 0.292l-3.075 1.53c-1.108 0.642-1.512 2.149-0.833 3.323 0.584 1.012 1.783 1.449 2.856 1.116zM24.099 30.092c0.524 0.14 1.061 0.098 1.551-0.097l18.94-9.426c0.093-0.054 0.198-0.086 0.295-0.133l3.394-1.69c0.498-0.29 0.903-0.82 1.074-1.459 0.172-0.638 0.086-1.3-0.241-1.866-0.455-0.788-1.283-1.229-2.134-1.229-0.29 0-0.579 0.071-0.861 0.178l-18.991 9.451c-0.228 0.132-0.47 0.235-0.718 0.326l-2.971 1.478c-1.108 0.642-1.512 2.15-0.833 3.324 0.327 0.566 0.857 0.97 1.494 1.141zM45.754 6.325l-5.096 2.534c-0.111 0.082-0.21 0.177-0.328 0.251l-13.003 6.451c-0.35 0.219-0.738 0.387-1.147 0.503l-2.744 1.365c-0.498 0.29-0.903 0.82-1.074 1.459-0.172 0.638-0.086 1.3 0.241 1.866s0.857 0.97 1.494 1.141c0.464 0.123 0.94 0.108 1.384-0.033l19.109-9.508c0.202-0.117 0.416-0.198 0.628-0.282l3.061-1.523c1.108-0.642 1.512-2.15 0.833-3.324-0.455-0.788-1.283-1.229-2.134-1.229-0.417 0-0.839 0.106-1.225 0.33zM23.433 9.296c-1.049 0.658-1.405 2.178-0.689 3.329 0.344 0.555 0.889 0.943 1.531 1.093 0.376 0.087 0.758 0.077 1.123-0.009l14.034-6.985c0.319-0.305 0.577-0.738 0.693-1.234 0.15-0.643 0.043-1.302-0.301-1.857-0.344-0.553-0.889-0.941-1.531-1.091s-1.302-0.046-1.856 0.301zM34.025 52.619c-0.583 0-1.163-0.111-1.716-0.314v6.247c1.456 0.828 4.562 2.944 3.927 5.662-0.214 0.921 1.636 2.302 3.452 3.149v-5.248c-2.477-0.433-4.279-2.113-4.279-4.189s1.802-3.756 4.279-4.189v-3.305l-2.601 1.311c-0.138 0.076-0.262 0.129-0.389 0.177-0.754 0.467-1.606 0.683-2.458 0.684-0.073 0.004-0.144 0.015-0.215 0.015zM39.69 59.602v-3.353c-1.113 0.316-1.819 1.023-1.819 1.676s0.706 1.36 1.819 1.676zM33.541 69.54h4.92c0.028 0 0.053-0.013 0.081-0.016-2.307-1.090-5.332-3.147-4.698-5.868 0.143-0.612-0.59-1.449-1.532-2.167v6.821c0 0.679 0.551 1.23 1.23 1.23zM46.886 38.834c-0.194 0-0.386 0.033-0.576 0.080l-13.881 6.874c-0.376 0.306-0.691 0.78-0.822 1.339-0.082 0.354-0.080 0.711-0.010 1.054l0.52 0.82c0.438 0.693 1.177 1.087 1.943 1.132 0.424-0.010 0.85-0.119 1.235-0.359l13.003-6.45c1.050-0.658 1.404-2.177 0.689-3.329-0.344-0.555-0.889-0.943-1.531-1.093-0.189-0.044-0.381-0.068-0.571-0.068zM49.638 33.599c0.171-0.638 0.084-1.301-0.244-1.867s-0.857-0.972-1.494-1.143c-0.214-0.058-0.432-0.086-0.647-0.086-0.424 0-0.842 0.111-1.218 0.328l-5.157 2.553-13.753 6.843c-0.235 0.136-0.485 0.242-0.742 0.335l-2.778 1.376c-0.496 0.29-0.9 0.82-1.071 1.457-0.172 0.638-0.086 1.3 0.241 1.866v0.001c0.327 0.565 0.856 0.971 1.494 1.141 0.633 0.17 1.298 0.086 1.866-0.241l5.088-2.519c0.063-0.043 0.114-0.097 0.18-0.138l13.003-6.45c0.341-0.213 0.705-0.359 1.076-0.473l3.085-1.528c0.496-0.29 0.9-0.82 1.071-1.457zM27.877 16.636c0.608-0.303 1.345-0.058 1.651 0.551 0.304 0.608 0.058 1.347-0.55 1.651l-2.46 1.23c-0.176 0.087-0.364 0.129-0.549 0.129-0.453 0-0.886-0.248-1.102-0.68-0.304-0.608-0.058-1.347 0.55-1.65zM46.326 24.015c0.606-0.301 1.346-0.058 1.651 0.551 0.304 0.608 0.058 1.347-0.55 1.651l-2.46 1.23c-0.176 0.087-0.364 0.129-0.549 0.129-0.453 0-0.886-0.248-1.102-0.68-0.304-0.608-0.058-1.347 0.55-1.651zM44.417 43.563c-0.451 0-0.884-0.248-1.102-0.679-0.304-0.608-0.058-1.347 0.55-1.651l2.46-1.23c0.606-0.301 1.346-0.058 1.651 0.55 0.304 0.608 0.058 1.347-0.55 1.651l-2.46 1.23c-0.176 0.087-0.364 0.129-0.549 0.129zM34.578 7.896c-0.451 0-0.884-0.248-1.101-0.679-0.304-0.608-0.058-1.347 0.55-1.651l2.46-1.23c0.608-0.303 1.346-0.058 1.649 0.55s0.058 1.347-0.55 1.651l-2.46 1.23c-0.176 0.087-0.364 0.129-0.549 0.129z"></path>
</svg>
