<!-- Generated by IcoMoon.io -->
<svg version="1.1" xmlns="http://www.w3.org/2000/svg" width="72" height="72" viewBox="0 0 72 72">
<title>uniF1C6</title>
<path d="M48.289 69.488c0.695 0 1.256 0.561 1.256 1.256s-0.563 1.256-1.256 1.256h-23.866c-0.693 0-1.256-0.561-1.256-1.256s0.563-1.256 1.256-1.256h23.866zM60.97 2.506l-9.802 1.078-0.103 0.404c3.474 1.706 5.877 5.269 5.877 9.393 0 0.175-0.005 0.352-0.016 0.535 0.869 0.587 1.622 1.306 2.268 2.104 0.154 0.182 0.305 0.368 0.446 0.561 0.008 0.011 0.015 0.023 0.023 0.034 0.172 0.239 0.347 0.477 0.497 0.734 0.033 0.055 0.038 0.116 0.060 0.173 0.85 1.529 1.328 3.266 1.328 5.071 0 4.846-3.314 8.921-7.789 10.108-1.178 2.119-2.636 3.494-2.952 3.775-9.358 9.978-14.396 16.823-5.641 27.532 0.633 0.775 0.759 1.821 0.328 2.732-0.437 0.921-1.339 1.492-2.354 1.492h-14.052c-1.016 0-1.918-0.573-2.354-1.492-0.431-0.911-0.305-1.957 0.328-2.732 8.756-10.709 3.717-17.554-5.642-27.532-0.303-0.27-1.681-1.57-2.837-3.58-4.919-0.854-8.673-5.142-8.673-10.302 0-3.486 1.75-6.736 4.617-8.672-0.033-0.325-0.055-0.653-0.055-0.984 0-5.527 4.596-10.022 10.247-10.022 0.045 0 0.088 0.006 0.133 0.006 0.044 0 0.087-0.006 0.131-0.006 3.586 0 6.871 1.813 8.79 4.792 1.297-0.25 2.616-0.25 3.913 0 1.919-2.979 5.204-4.792 8.79-4.792 0.759 0 1.497 0.085 2.211 0.24l0.261-1.034c0.129-0.506 0.559-0.88 1.080-0.938l10.668-1.176c0.69-0.078 1.311 0.422 1.387 1.112s-0.422 1.31-1.112 1.387zM49.115 34.618c0.009-0.008 0.667-0.58 1.427-1.569-0.19-0.010-0.371-0.049-0.556-0.068-0.232-0.024-0.465-0.045-0.692-0.084-0.276-0.047-0.544-0.114-0.813-0.182-0.217-0.055-0.435-0.104-0.647-0.173-0.266-0.087-0.521-0.194-0.779-0.3-0.2-0.083-0.402-0.158-0.595-0.252-0.255-0.126-0.495-0.271-0.737-0.416-0.18-0.107-0.363-0.205-0.535-0.321-0.239-0.163-0.46-0.348-0.685-0.53-0.156-0.127-0.319-0.243-0.467-0.378-0.224-0.204-0.425-0.43-0.629-0.652-0.127-0.138-0.265-0.266-0.386-0.412-0.213-0.258-0.399-0.539-0.588-0.818-0.089-0.131-0.191-0.252-0.274-0.388-0.259-0.426-0.491-0.871-0.69-1.336-3.389 2.236-8.090 2.236-11.479 0-0.192 0.453-0.419 0.886-0.669 1.3-0.083 0.137-0.181 0.261-0.27 0.394-0.178 0.268-0.359 0.534-0.562 0.783-0.119 0.147-0.251 0.281-0.378 0.421-0.195 0.215-0.391 0.426-0.602 0.623-0.146 0.136-0.299 0.261-0.452 0.388-0.214 0.178-0.432 0.35-0.659 0.51-0.167 0.118-0.338 0.227-0.511 0.334-0.235 0.144-0.475 0.28-0.721 0.406-0.183 0.094-0.366 0.183-0.554 0.266-0.257 0.113-0.52 0.211-0.788 0.303-0.191 0.065-0.379 0.133-0.575 0.188-0.285 0.080-0.576 0.139-0.871 0.196-0.19 0.036-0.377 0.080-0.57 0.107-0.055 0.008-0.108 0.024-0.163 0.030 0.778 1.029 1.462 1.627 1.472 1.635l0.097 0.092c8.156 8.693 16.589 17.682 5.796 30.885l0.079 0.122h14.052l0.079-0.122c-10.794-13.203-2.36-22.191 5.796-30.885zM54.407 12.908c-0.163-2.746-1.721-5.119-3.977-6.417l-0.904 3.556c-0.144 0.568-0.656 0.946-1.217 0.946-0.102 0-0.206-0.013-0.31-0.039-0.672-0.171-1.079-0.854-0.908-1.527l0.974-3.835c-0.515-0.105-1.046-0.161-1.592-0.161-2.977 0-5.683 1.648-7.059 4.3-0.276 0.533-0.889 0.799-1.466 0.627-1.121-0.327-2.267-0.4-3.402-0.226 0.266 0.892 0.417 1.833 0.417 2.808 0 1.975-0.587 3.884-1.696 5.524-0.389 0.573-1.17 0.726-1.745 0.337-0.574-0.389-0.726-1.169-0.337-1.745 0.826-1.221 1.264-2.645 1.264-4.116 0-4.097-3.398-7.432-7.601-7.503-4.326 0.070-7.825 3.606-7.825 7.948 0 0.219 0.028 0.431 0.048 0.644 0.275 1.826 1.223 3.498 2.712 4.696 0.54 0.435 0.627 1.225 0.191 1.766-0.247 0.308-0.612 0.469-0.978 0.469-0.276 0-0.554-0.092-0.786-0.278-1.372-1.104-2.393-2.517-3.022-4.087-1.727 1.495-2.767 3.673-2.767 5.999 0 4.092 3.109 7.472 7.088 7.906h0.005c0.284 0.030 0.572 0.049 0.863 0.049 3.742 0 6.93-2.55 7.753-6.198l0.49-2.172 1.605 1.541c1.491 1.433 3.445 2.222 5.504 2.222 2.057 0 4.012-0.789 5.503-2.222l1.605-1.541 0.491 2.17c0.823 3.65 4.011 6.199 7.753 6.199 0.27 0 0.538-0.014 0.8-0.040 0.226-0.023 0.448-0.060 0.671-0.102 0.040-0.008 0.082-0.011 0.122-0.019l0.019-0.004c3.616-0.746 6.344-3.957 6.344-7.791 0-1.775-0.599-3.469-1.649-4.838-0.108-0.133-0.22-0.261-0.335-0.386-0.053-0.060-0.105-0.121-0.159-0.18-1.244-1.259-2.917-2.035-4.789-2.184-2.508-0.198-4.833 0.761-6.391 2.638-0.442 0.535-1.235 0.608-1.769 0.165s-0.608-1.235-0.165-1.768c2.057-2.476 5.238-3.797 8.525-3.536 0.724 0.058 1.424 0.202 2.104 0.405z"></path>
</svg>
