<!-- Generated by IcoMoon.io -->
<svg version="1.1" xmlns="http://www.w3.org/2000/svg" width="72" height="72" viewBox="0 0 72 72">
<title>uniF117</title>
<path d="M54.744 4.088c2.336 0.936 3.844 3.164 3.844 5.678v52.467c0 2.514-1.509 4.742-3.844 5.677-0.945 0.377-1.803 1.646-1.803 2.663 0 0.781-0.631 1.427-1.412 1.427h-31.059c-0.781 0-1.412-0.631-1.412-1.412 0-1.031-0.858-2.301-1.804-2.678-2.202-0.881-3.652-2.918-3.812-5.256l-0.031 0.010v-52.897c0-2.514 1.508-4.742 3.844-5.677 0.945-0.377 1.803-1.646 1.803-2.663 0-0.781 0.631-1.427 1.412-1.427h31.059c0.781 0 1.412 0.631 1.412 1.412 0 1.031 0.858 2.301 1.803 2.677zM16.235 36.312v16.789l39.529-13.176v-16.789zM55.765 62.233h-0.001v-13.686l-39.529 13.176v0.51c0 1.354 0.812 2.554 2.068 3.055 1.577 0.63 2.884 2.198 3.374 3.888h28.649c0.491-1.696 1.797-3.26 3.371-3.888 1.256-0.501 2.068-1.701 2.068-3.055zM55.765 45.57v-2.67l-39.529 13.176v2.67zM16.235 33.336l39.529-13.177v-2.67l-39.529 13.176v2.671zM16.235 27.689l39.531-13.177v-4.745c0-1.354-0.812-2.554-2.068-3.055-1.577-0.63-2.884-2.198-3.374-3.888h-28.649c-0.491 1.696-1.797 3.26-3.371 3.888-1.256 0.501-2.068 1.701-2.068 3.055v17.922zM27.529 8.471c0.781 0 1.412 0.631 1.412 1.412s-0.631 1.412-1.412 1.412h-7.059c-0.781 0-1.412-0.631-1.412-1.412s0.631-1.412 1.412-1.412h7.059zM51.529 8.471c0.781 0 1.412 0.631 1.412 1.412s-0.631 1.412-1.412 1.412h-18.353c-0.781 0-1.412-0.631-1.412-1.412s0.631-1.412 1.412-1.412h18.353zM20.471 64.941c-0.781 0-1.412-0.631-1.412-1.412s0.631-1.412 1.412-1.412h7.059c0.781 0 1.412 0.631 1.412 1.412s-0.631 1.412-1.412 1.412h-7.059zM33.177 64.941c-0.781 0-1.412-0.631-1.412-1.412s0.631-1.412 1.412-1.412h18.353c0.781 0 1.412 0.631 1.412 1.412s-0.631 1.412-1.412 1.412h-18.353z"></path>
</svg>
