<!-- Generated by IcoMoon.io -->
<svg version="1.1" xmlns="http://www.w3.org/2000/svg" width="72" height="72" viewBox="0 0 72 72">
<title>uniF149</title>
<path d="M66.923 22.135c0.573 2.108 0.286 4.32-0.807 6.229-1.075 1.876-2.798 3.227-4.861 3.816l-5.73 2.634c-2.464 1.573-6.208 5.036-4.36 10.862l5.893 10.286c3.935 1.232 6.38 5.231 5.621 9.352-0.711 3.874-4.205 6.686-8.305 6.686h-2.29c-0.090 0-0.177-0.005-0.265-0.013l-0.162-0.009c-0.104-0.004-0.205-0.009-0.308-0.018-0.405-0.037-0.822-0.109-1.237-0.212l-0.312-0.081c-0.376-0.109-0.764-0.255-1.148-0.433-0.112-0.052-0.227-0.106-0.345-0.167-0.34-0.178-0.664-0.379-0.973-0.599-0.134-0.095-0.268-0.193-0.399-0.301-0.278-0.224-0.543-0.472-0.793-0.737-0.115-0.12-0.229-0.24-0.337-0.369-0.251-0.298-0.483-0.623-0.71-0.992-0.027-0.024-0.078-0.097-0.126-0.178l-6.982-9.882c-0.494-0.704-1.632-0.704-2.128 0l-7.137 10.108c-0.196 0.321-0.428 0.645-0.678 0.944-0.109 0.129-0.222 0.249-0.337 0.37-0.25 0.263-0.515 0.512-0.801 0.741-0.122 0.101-0.258 0.2-0.395 0.297-0.306 0.217-0.629 0.418-0.966 0.595-0.119 0.062-0.234 0.116-0.354 0.17-0.378 0.176-0.765 0.322-1.148 0.433l-0.239 0.063c-0.481 0.12-0.898 0.192-1.306 0.229-0.1 0.009-0.201 0.014-0.304 0.018l-0.162 0.009c-0.087 0.006-0.176 0.011-0.264 0.011h-2.29c-4.1 0-7.593-2.812-8.307-6.686-0.759-4.12 1.686-8.12 5.621-9.352l5.893-10.286c1.875-5.907-1.971-9.38-4.503-10.953l-7.425-3.213c-4.314-1.225-6.86-5.712-5.68-10.050 1.187-4.369 5.712-6.957 10.075-5.771l0.346 0.151 10.127 6.426c-0.796-1.096-1.962-2.95-1.962-5.845 0-7.050 1.405-16.421 13.545-16.421 5.913 0 12.961 2.833 12.961 16.335 0 2.924-0.657 4.494-1.448 5.557l7.919-5.471 0.21-0.058c2.107-0.573 4.321-0.287 6.229 0.807s3.274 2.856 3.846 4.965zM8.075 26.433c0.544 0.95 1.333 1.695 2.27 2.194l4.167-10.417-0.2-0.128c-1.403-0.337-2.864-0.124-4.134 0.605-1.321 0.758-2.269 1.978-2.664 3.434-0.397 1.458-0.197 2.989 0.561 4.311zM20.267 54.978l-0.851 1.487 10.679 5.339 0.998-1.413zM26.741 66.556l1.881-2.663-11.022-5.511c-2.747 0.839-4.473 3.605-3.944 6.476 0.483 2.631 2.986 4.616 5.821 4.616l2.793-0.029c0.296-0.025 0.577-0.076 0.854-0.145l0.211-0.054c0.282-0.081 0.547-0.183 0.803-0.302 0.086-0.039 0.163-0.077 0.241-0.118 0.233-0.121 0.456-0.26 0.671-0.413 0.092-0.066 0.181-0.129 0.267-0.2 0.203-0.164 0.387-0.336 0.561-0.519 0.081-0.085 0.159-0.167 0.234-0.255 0.183-0.216 0.343-0.448 0.493-0.688zM43.314 61.177l1.044 1.479 10.142-6.085-0.895-1.569zM60.196 64.858c0.523-2.84-1.159-5.573-3.854-6.445l-10.523 6.313 1.273 1.802c0.066 0.087 0.111 0.149 0.152 0.216 0.154 0.248 0.313 0.479 0.496 0.695 0.074 0.088 0.154 0.171 0.234 0.254 0.173 0.183 0.357 0.356 0.553 0.514 0.094 0.076 0.182 0.14 0.27 0.203 0.219 0.155 0.441 0.294 0.677 0.417 0.076 0.039 0.154 0.077 0.234 0.114 0.263 0.12 0.528 0.222 0.803 0.302l0.141 0.038c0.351 0.087 0.634 0.138 0.925 0.164l0.413 0.023 2.384 0.005c2.834 0 5.338-1.984 5.822-4.616zM54.394 32.554l5.593-2.553-4.768-9.537-6.749 4.647c-0.814 0.378-1.752 0.261-2.449-0.297-0.701-0.562-1.019-1.46-0.83-2.343 0.141-0.662 0.56-1.076 0.927-1.441 0.643-0.639 1.523-1.513 1.523-4.696 0-9.292-3.413-13.809-10.435-13.809-9.71 0-11.018 7.024-11.018 13.895 0 2.376 1.028 3.755 1.708 4.67 0.371 0.499 0.663 0.893 0.767 1.386 0.182 0.861-0.129 1.746-0.811 2.303-0.686 0.558-1.614 0.685-2.426 0.336l-0.175-0.092-8.568-5.437-4.002 10.006 6.747 2.933c2.562 1.57 8.238 6.085 5.62 14.060l-0.105 0.234-3.418 5.965 11.040 5.52 1.232-1.746c0.718-1.016 1.886-1.622 3.129-1.622s2.413 0.606 3.127 1.621l1.801 2.552 10.501-6.299-3.55-6.224c-2.582-7.867 2.947-12.376 5.445-13.95zM63.925 27.109c0.757-1.323 0.957-2.853 0.561-4.312-0.395-1.458-1.341-2.677-2.664-3.434-1.264-0.724-2.717-0.936-4.112-0.611l-0.389 0.268 4.948 9.895c0.666-0.471 1.237-1.072 1.656-1.805zM36.926 41.684c2.437 0 4.421 1.983 4.421 4.421s-1.983 4.421-4.421 4.421-4.421-1.983-4.421-4.421 1.983-4.421 4.421-4.421zM36.926 48c1.045 0 1.895-0.85 1.895-1.895s-0.85-1.895-1.895-1.895-1.895 0.85-1.895 1.895c0 1.045 0.85 1.895 1.895 1.895zM36.926 30.316c2.437 0 4.421 1.983 4.421 4.421s-1.983 4.421-4.421 4.421-4.421-1.983-4.421-4.421 1.983-4.421 4.421-4.421zM36.926 36.632c1.045 0 1.895-0.85 1.895-1.895s-0.85-1.895-1.895-1.895-1.895 0.85-1.895 1.895 0.85 1.895 1.895 1.895zM38.821 10.105c0-1.684 0.842-2.526 2.526-2.526s2.526 0.842 2.526 2.526-0.842 2.526-2.526 2.526-2.526-0.842-2.526-2.526zM29.979 10.105c0-1.684 0.842-2.526 2.526-2.526s2.526 0.842 2.526 2.526-0.842 2.526-2.526 2.526-2.526-0.842-2.526-2.526zM42.61 15.158c0.697 0 1.263 0.565 1.263 1.263 0 3.256-3.661 5.526-6.947 5.526-3.361-0.034-6.947-2.264-6.947-5.526 0-0.698 0.565-1.263 1.263-1.263s1.263 0.565 1.263 1.263c0 1.518 2.155 2.976 4.435 3 2.218 0 4.407-1.487 4.407-3 0-0.698 0.565-1.263 1.263-1.263z"></path>
</svg>
