<!-- Generated by IcoMoon.io -->
<svg version="1.1" xmlns="http://www.w3.org/2000/svg" width="72" height="72" viewBox="0 0 72 72">
<title>uniF150</title>
<path d="M52.529 16.756c0.081 5.513-0.451 15.477-3.918 29.106-0.14 0.742-2.536 13.854 0.382 19.642 0.412 0.82 0.506 1.745 0.266 2.608-0.256 0.917-0.859 1.655-1.699 2.077-0.779 0.391-1.774 0.74-2.958 1.039-2.040 0.514-4.265 0.774-6.612 0.774h-0.925c-2.347 0-4.572-0.26-6.612-0.774-1.184-0.299-2.181-0.648-2.958-1.039-0.84-0.421-1.444-1.159-1.699-2.077-0.24-0.863-0.145-1.788 0.266-2.608 2.99-5.935 0.401-19.538 0.376-19.674-3.032-11.9-3.817-21.019-3.911-26.807-1.956-0.534-3.326-2.334-3.326-4.622v-6c0-2.641 1.876-4.658 4.463-4.799 0.806-0.037 1.494 0.083 2.057 0.386 0.223-0.567 0.541-1.098 0.992-1.552 0.814-0.82 1.92-1.236 3.288-1.236 1.164 0 2.232 0.416 3.065 1.108 0.924-1.477 2.779-2.308 5.335-2.308 2.748 0 5.070 1.856 5.778 4.38 0.754-0.493 1.655-0.78 2.622-0.78 2.388 0 6 1.915 6 4.8zM21.6 14.4c0 0.782 0.317 1.572 0.929 2.020 0.050-2.531 0.227-4.051 0.283-4.48 0.001-0.011 0.002-0.018 0.004-0.026 0.005-0.041 0.010-0.071 0.012-0.088l0.179-1.236 4.969 0.925c2.507 0.467 5.126 0.745 7.787 0.826l1.164 0.036v5.623c0 1.324 1.076 2.4 2.4 2.4s2.4-1.076 2.4-2.4v-5.81l1.072-0.115c1.213-0.131 2.204-0.264 3.122-0.42l4.398-0.749 0.083-2.544c-0.001-1.097-2.147-2.362-3.601-2.362-1.324 0-2.4 1.076-2.4 2.4 0 0.664-0.536 1.2-1.2 1.2s-1.2-0.536-1.2-1.2v-2.4c0-1.985-1.615-3.6-3.6-3.6-3.6 0-3.6 1.806-3.6 2.4v1.2c0 0.664-0.536 1.2-1.2 1.2s-1.2-0.536-1.2-1.2c0-1.324-1.076-2.4-2.4-2.4-0.715 0-1.233 0.173-1.585 0.527-0.668 0.672-0.794 1.987-0.815 3.113v1.16c0 0.664-0.536 1.2-1.2 1.2s-1.2-0.536-1.2-1.2l-0.001-0.338c-0.002-0.23-0.004-0.476-0.001-0.736-0.33-1.388-0.726-1.362-1.406-1.327-1.31 0.071-2.191 1.034-2.191 2.401v6zM46.946 67.466c0.078-0.283 0.043-0.605-0.097-0.884-0.449-0.892-0.787-1.916-1.042-3.020-0.526 0.152-1.109 0.3-1.712 0.451-1.942 0.49-4.032 0.734-6.24 0.734h-0.868c-2.208 0-4.298-0.245-6.212-0.727-0.589-0.148-1.090-0.29-1.534-0.43-0.253 1.093-0.59 2.108-1.036 2.993-0.142 0.278-0.176 0.601-0.098 0.883 0.050 0.181 0.173 0.43 0.466 0.576 0.622 0.313 1.451 0.601 2.466 0.857 1.848 0.466 3.875 0.701 6.025 0.701h0.925c2.15 0 4.178-0.235 6.025-0.701 1.015-0.256 1.844-0.544 2.466-0.857 0.293-0.146 0.415-0.395 0.466-0.576zM46.276 45.304c4.33-16.996 3.974-28.314 3.696-31.906l-3.649 0.62c-0.679 0.116-1.393 0.22-2.196 0.318v3.664c0 2.647-2.153 4.8-4.8 4.8s-4.8-2.153-4.8-4.8v-3.305c-2.383-0.124-4.729-0.397-6.989-0.817l-2.456-0.457c-0.275 3.62-0.616 14.959 3.696 31.884 0.101 0.51 1.714 9.002 0.876 15.9 0.397 0.134 0.946 0.298 1.706 0.488 1.723 0.434 3.616 0.655 5.626 0.655h0.868c2.009 0 3.901-0.221 5.626-0.655 0.636-0.161 1.355-0.341 1.918-0.512-0.83-6.89 0.775-15.35 0.864-15.809zM37.8 25.2c4.762 0 7.8 8.174 7.8 13.8 0 5.972-3.112 15-7.8 15s-7.8-9.028-7.8-15c0-5.626 3.038-13.8 7.8-13.8zM37.8 51.6c2.423 0 5.4-6.948 5.4-12.6 0-5.434-2.826-11.4-5.4-11.4s-5.4 5.966-5.4 11.4c0 5.652 2.977 12.6 5.4 12.6z"></path>
</svg>
