<!-- Generated by IcoMoon.io -->
<svg version="1.1" xmlns="http://www.w3.org/2000/svg" width="72" height="72" viewBox="0 0 72 72">
<title>uniF1E3</title>
<path d="M60.559 1.026c15.62 16.679 15.195 42.404-0.966 58.567-8.258 8.258-19.014 12.407-29.784 12.407-10.307 0-20.627-3.801-28.784-11.44l-1.025-0.961 13.965-13.967 0.453-0.061c1.14-0.156 2.358 0.636 3.762 1.555 0.707 0.463 2.025 1.325 2.47 1.325h0.001c1.241-0.397 2.215-1.399 2.669-2.807l0.65-2.010 2.18-0.712c0.875-0.285 1.466-1.139 1.378-1.965l-2.051-6.834 34.123-34.123zM16.692 49.401c-0.47-0.307-1.181-0.772-1.65-0.999l-3.983 3.983c4.997 5.004 11.207 7.718 18.032 7.864 7.815 0.179 15.77-3.225 21.85-9.306s9.473-14.045 9.306-21.85c-0.145-6.825-2.858-13.035-7.864-18.033l-23.837 23.836 1.654 5.557c0.345 2.169-1.033 4.341-3.207 5.052l-0.863 0.281-0.221 0.692c-0.723 2.24-2.372 3.91-4.523 4.581-1.452 0.454-3.028-0.572-4.693-1.659zM57.671 57.67c14.786-14.786 15.49-38.128 1.848-53.747l-5.239 5.239c5.436 5.45 8.528 12.441 8.687 19.87 0.181 8.542-3.501 17.229-10.102 23.83-6.445 6.446-14.877 10.109-23.223 10.109-0.202 0-0.405-0.003-0.608-0.007-7.43-0.158-14.42-3.251-19.87-8.686l-5.239 5.239c15.616 13.641 38.959 12.937 53.746-1.848zM6.032 25.037c0-1.359 0.68-2.039 2.039-2.039s2.039 0.68 2.039 2.039-0.68 2.039-2.039 2.039c-1.359 0-2.039-0.68-2.039-2.039zM22.341 54.938c0-1.359 0.68-2.039 2.039-2.039s2.039 0.68 2.039 2.039c0 1.359-0.68 2.039-2.039 2.039s-2.039-0.68-2.039-2.039zM35.209 36.768c0-1.359 0.68-2.039 2.039-2.039s2.039 0.68 2.039 2.039-0.68 2.039-2.039 2.039c-1.359 0-2.039-0.68-2.039-2.039zM41.937 30.040c0-1.359 0.68-2.039 2.039-2.039s2.039 0.68 2.039 2.039-0.68 2.039-2.039 2.039-2.039-0.68-2.039-2.039zM38.092 53.106c0-1.359 0.68-2.039 2.039-2.039s2.039 0.68 2.039 2.039c0 1.359-0.68 2.039-2.039 2.039s-2.039-0.68-2.039-2.039zM44.819 46.378c0-1.359 0.68-2.039 2.039-2.039s2.039 0.68 2.039 2.039-0.68 2.039-2.039 2.039-2.039-0.68-2.039-2.039zM51.547 39.651c0-1.359 0.68-2.039 2.039-2.039s2.039 0.68 2.039 2.039-0.68 2.039-2.039 2.039c-1.359 0-2.039-0.68-2.039-2.039zM48.664 23.313c0-1.359 0.68-2.039 2.039-2.039s2.039 0.68 2.039 2.039-0.68 2.039-2.039 2.039-2.039-0.68-2.039-2.039zM30.405 51.183c0-1.359 0.68-2.039 2.039-2.039s2.039 0.68 2.039 2.039-0.68 2.039-2.039 2.039-2.039-0.68-2.039-2.039zM37.291 44.065c0-1.359 0.68-2.039 2.039-2.039s2.039 0.68 2.039 2.039c0 1.359-0.68 2.039-2.039 2.039s-2.039-0.68-2.039-2.039zM44.087 37.269c0-1.359 0.68-2.039 2.039-2.039s2.039 0.68 2.039 2.039c0 1.359-0.68 2.039-2.039 2.039s-2.039-0.68-2.039-2.039zM10.109 38.628c0-1.359 0.68-2.039 2.039-2.039s2.039 0.68 2.039 2.039-0.68 2.039-2.039 2.039-2.039-0.68-2.039-2.039zM18.264 27.756c0-1.359 0.68-2.039 2.039-2.039s2.039 0.68 2.039 2.039c0 1.359-0.68 2.039-2.039 2.039s-2.039-0.68-2.039-2.039zM50.586 31.001c0-1.359 0.68-2.039 2.039-2.039s2.039 0.68 2.039 2.039-0.68 2.039-2.039 2.039c-1.359 0-2.039-0.68-2.039-2.039z"></path>
</svg>
