<!-- Generated by IcoMoon.io -->
<svg version="1.1" xmlns="http://www.w3.org/2000/svg" width="72" height="72" viewBox="0 0 72 72">
<title>uniF12E</title>
<path d="M63.356 7.556c5.259 0.066 8.644 2.983 8.644 7.47s-3.385 7.404-8.645 7.472l-6.051 1.641c-3.767 1.022-7.435 1.702-10.906 2.024-3.222 0.298-6.472 0.44-9.719 0.467v4.456c3.312 1.373 4.076 3.078 4.076 4.317 0 1.349-0.867 3.255-4.991 4.68-2.592 0.895-3.16 1.829-3.16 2.112s0.568 1.216 3.16 2.113c4.124 1.425 4.991 3.331 4.991 4.68s-0.867 3.255-4.991 4.68c-2.592 0.895-3.16 1.829-3.16 2.113s0.568 1.216 3.16 2.111c0.004 0.001 0.007 0.005 0.011 0.007 2.337 0.731 3.324 2.161 3.739 3.239 0.738 1.913 0.332 4.393-1.112 6.801-0.254 0.425-0.704 0.66-1.166 0.66-0.238 0-0.48-0.063-0.697-0.194-0.645-0.384-0.853-1.219-0.467-1.862 0.996-1.663 1.334-3.319 0.907-4.429-0.297-0.772-0.969-1.307-2.054-1.638-0.007-0.001-0.011-0.007-0.018-0.009-0.009-0.003-0.019-0.001-0.029-0.004-4.124-1.425-4.991-3.331-4.991-4.68s0.867-3.256 4.991-4.68c2.592-0.895 3.16-1.829 3.16-2.112s-0.568-1.217-3.16-2.113c-4.124-1.425-4.991-3.331-4.991-4.68s0.867-3.256 4.991-4.68c2.592-0.895 3.16-1.829 3.16-2.113s-0.568-1.217-3.157-2.114c-0.015-0.005-0.024-0.018-0.039-0.023-0.096-0.037-0.175-0.095-0.259-0.152-0.064-0.044-0.135-0.076-0.189-0.128-0.065-0.061-0.107-0.137-0.159-0.211-0.050-0.069-0.107-0.133-0.143-0.211-0.033-0.069-0.041-0.147-0.060-0.223-0.026-0.098-0.057-0.192-0.060-0.293 0-0.015-0.008-0.028-0.008-0.043v-5.384c-1.844-0.027-3.687-0.086-5.522-0.201-4.831-0.306-9.931-1.206-15.176-2.614-0.026-0.005-0.050-0.003-0.076-0.011-0.014-0.004-0.022-0.014-0.034-0.018-0.731-0.197-1.455-0.371-2.191-0.59l-2.335-0.693c-5.251-0.073-8.629-2.989-8.629-7.47s3.379-7.397 8.629-7.47l2.334-0.692c6.060-1.794 11.94-2.883 17.476-3.233 4.676-0.296 9.421-0.306 14.107-0.030 5.274 0.31 10.861 1.258 16.612 2.816zM42.386 6.313c-3.681-0.217-7.401-0.243-11.092-0.098 0.212 1.054 1.558 6.025 8.279 6.782-0.001 0 0 0 0.001 0 0.143 0 8.738 0.388 9.283 10.134 1.617-0.232 3.271-0.539 4.956-0.922-4.878-7.121-2.653-12.376-1.258-14.532-3.49-0.697-6.9-1.171-10.168-1.364zM2.717 15.026c0 3.858 3.577 4.604 5.434 4.73v-9.462c-1.857 0.128-5.434 0.874-5.434 4.732zM10.868 20.326l0.868 0.259c0.285 0.084 0.564 0.147 0.849 0.228 0.076-0.387 0.155-0.806 0.236-1.24 0.818-4.395 1.618-7.834 3.811-8.849 0.64-0.293 1.667-0.495 2.941 0.236 0.617 0.355 1.463 0.712 1.992 0.4 0.89-0.534 1.315-2.702 1.382-4.38-3.631 0.541-7.375 1.353-11.21 2.49l-0.868 0.239v10.617zM24.692 23.338c1.325 0.164 2.633 0.292 3.919 0.372 0.414 0.026 0.831 0.033 1.246 0.054-0.398-0.98-1.727-1.424-2.403-1.585-1.050-0.25-2.119 0.243-2.762 1.159zM35.912 23.916c3.421-0.005 6.844-0.147 10.239-0.462 0.004 0 0.008-0.001 0.012-0.001-0.333-7.531-6.495-7.745-6.763-7.749-7.749-0.868-10.464-6.484-10.834-9.334-0.001-0.008 0.003-0.015 0.001-0.023-0.95 0.060-1.922 0.168-2.892 0.274-0.009 1.565-0.273 5.602-2.713 7.065-0.913 0.549-2.475 0.931-4.741-0.371-0.122-0.069-0.341-0.174-0.45-0.125-1.094 0.505-1.924 4.972-2.28 6.878-0.096 0.522-0.187 1.007-0.279 1.451 2.254 0.57 4.468 1.026 6.646 1.384 1.047-2.502 3.657-3.984 6.227-3.368 2.679 0.643 4.342 2.308 4.563 4.351 0.696 0.019 1.392 0.016 2.089 0.023 0.178-0.086 0.371-0.143 0.581-0.143 0.215 0 0.41 0.060 0.591 0.148zM56.654 21.499l4.478-1.18v-10.551l-2.686-0.729c-1.009-0.273-2.005-0.504-3.002-0.739-0.048 0.069-0.076 0.147-0.137 0.209-0.213 0.22-4.669 5.035 1.348 12.991zM63.849 19.757c1.857-0.126 5.434-0.872 5.434-4.73s-3.577-4.605-5.434-4.732v9.462z"></path>
</svg>
