<!-- Generated by IcoMoon.io -->
<svg version="1.1" xmlns="http://www.w3.org/2000/svg" width="72" height="72" viewBox="0 0 72 72">
<title>uniF152</title>
<path d="M57.235 16.828c8.258 0.7 14.765 7.633 14.765 16.068v1.241h-1.241c-8.352 0-15.239-6.376-16.055-14.515-2.337 2.137-5.101 3.624-8.115 4.242 1.14 1.47 1.825 3.308 1.825 5.308v0.010c4.833-0.038 8.69 3.888 8.69 8.68 0 3.023-1.61 5.791-4.12 7.356 1.025 1.426 1.637 3.171 1.637 5.057 0 4.792-3.898 8.69-8.69 8.69-1.461 0-2.879-0.376-4.144-1.068-1.125 3.496-4.406 6.033-8.27 6.033-1.626 0-3.189-0.456-4.547-1.296-1.387 2.959-4.386 5.020-7.865 5.020-1.814 0-3.579-0.581-5.044-1.626-1.537 2.462-4.262 4.109-7.371 4.109-4.792 0-8.69-3.898-8.69-8.69 0-2.873 1.407-5.416 3.561-6.999-0.705-1.276-1.079-2.694-1.079-4.173 0-3.742 2.382-6.93 5.705-8.151-1.964-1.594-3.223-4.025-3.223-6.746 0-4.108 2.869-7.551 6.706-8.452-1.112-1.48-1.74-3.29-1.74-5.203 0-4.792 3.898-8.69 8.69-8.69 2.773 0 5.241 1.311 6.833 3.339 1.624-2.069 4.115-3.339 6.823-3.339 4.399 0 8.035 3.289 8.603 7.534 1.166 0.156 2.257 0.542 3.23 1.115 8.592-0.432 15.477-9.144 15.477-19.821h2.483c0 5.76-1.841 11-4.834 14.966zM45.824 30.306c0.068-0.368 0.107-0.746 0.107-1.133 0-3.423-2.785-6.207-6.207-6.207s-6.207 2.784-6.207 6.207c0 0.223 0.015 0.444 0.038 0.662l0.021 0.145c0.117 0.905 0.425 1.753 0.915 2.52l0.080 0.124c0.386 0.573 0.866 1.087 1.435 1.513 0.006 0 0.013 0.001 0.019 0.001 0.348 0.001 0.69 0.029 1.028 0.069 0.097 0.012 0.192 0.030 0.288 0.045 0.262 0.041 0.52 0.093 0.773 0.156 0.092 0.024 0.184 0.045 0.274 0.071 0.675 0.194 1.316 0.465 1.913 0.807 0.031 0.017 0.063 0.030 0.094 0.047 0.324-0.035 0.633-0.108 0.94-0.19 0.097-0.026 0.196-0.047 0.292-0.078 0.258-0.083 0.505-0.189 0.747-0.303 0.079-0.039 0.166-0.066 0.244-0.108 0.287-0.151 0.556-0.328 0.814-0.52 0.144-0.108 0.274-0.232 0.408-0.353 0.114-0.102 0.23-0.201 0.336-0.311 0.133-0.137 0.253-0.283 0.372-0.431 0.093-0.116 0.183-0.233 0.267-0.355 0.106-0.153 0.206-0.309 0.298-0.47 0.081-0.143 0.15-0.291 0.22-0.439 0.073-0.156 0.15-0.312 0.21-0.475 0.073-0.202 0.127-0.415 0.18-0.627 0.030-0.119 0.073-0.233 0.096-0.355 0-0.004 0.002-0.007 0.004-0.011zM41.416 45.816c0.019-0.034 0.036-0.067 0.051-0.101 0.402-0.766 0.652-1.62 0.705-2.518l0.026-0.436c-0.004-0.411-0.045-0.819-0.129-1.217-0.006-0.027-0.019-0.052-0.025-0.079-0.088-0.387-0.207-0.765-0.368-1.127-0.025-0.056-0.062-0.105-0.088-0.161-0.154-0.32-0.327-0.632-0.533-0.924-0.058-0.084-0.13-0.155-0.194-0.236-0.195-0.247-0.4-0.487-0.632-0.705-0.241-0.225-0.488-0.443-0.761-0.628l-0.009-0.006c-0.302-0.204-0.627-0.375-0.963-0.524-0.093-0.041-0.19-0.072-0.284-0.108-0.252-0.097-0.513-0.179-0.779-0.242-0.107-0.025-0.214-0.051-0.322-0.071-0.362-0.067-0.731-0.113-1.112-0.113-0.562 0-1.131 0.084-1.699 0.251-0.002 0.005-0.005 0.009-0.006 0.014-0.135 0.407-0.302 0.798-0.494 1.178-0.017 0.034-0.036 0.068-0.053 0.102-0.181 0.345-0.384 0.675-0.609 0.992-0.036 0.051-0.071 0.102-0.108 0.153-0.214 0.288-0.448 0.56-0.698 0.821-0.058 0.061-0.113 0.124-0.172 0.184-0.241 0.237-0.5 0.456-0.771 0.665-0.063 0.050-0.118 0.111-0.182 0.158l0.004 0.007c0.156 0.286 0.294 0.581 0.418 0.885 0.042 0.103 0.077 0.21 0.116 0.314 0.074 0.204 0.143 0.407 0.201 0.617 0.035 0.123 0.067 0.247 0.096 0.371 0.050 0.212 0.089 0.427 0.123 0.644 0.017 0.112 0.038 0.222 0.051 0.334 0.037 0.329 0.062 0.662 0.062 1.001 0 0.411-0.042 0.819-0.103 1.225-0.006 0.041-0.004 0.082-0.010 0.123 0.447-0.071 0.9-0.107 1.354-0.107 0.438 0 0.867 0.044 1.286 0.106 0.079 0.011 0.158 0.022 0.236 0.036 0.416 0.074 0.821 0.176 1.214 0.307 0.055 0.019 0.107 0.040 0.161 0.059 0.842 0.299 1.621 0.722 2.321 1.251 0.019 0.014 0.040 0.024 0.058 0.037 0.034-0.016 0.071-0.030 0.104-0.047 0.113-0.060 0.22-0.13 0.329-0.197 0.141-0.088 0.284-0.174 0.417-0.272 0.097-0.071 0.187-0.149 0.279-0.225 0.135-0.113 0.269-0.225 0.395-0.348 0.073-0.071 0.14-0.148 0.21-0.222 0.135-0.145 0.267-0.294 0.386-0.452 0.045-0.060 0.086-0.12 0.128-0.18 0.134-0.19 0.262-0.385 0.374-0.59zM24.125 50.828c0.046 0.017 0.092 0.032 0.136 0.050 0.317 0.124 0.627 0.262 0.925 0.421 0.243-0.071 0.497-0.163 0.761-0.277 0.794-1.437 1.951-2.617 3.367-3.395 0.096-0.23 0.151-0.462 0.218-0.694 0.048-0.168 0.111-0.335 0.144-0.504 0.073-0.371 0.117-0.745 0.117-1.118 0-0.395-0.046-0.778-0.119-1.153-0.022-0.118-0.058-0.232-0.088-0.349-0.062-0.25-0.135-0.494-0.227-0.731-0.053-0.138-0.114-0.272-0.178-0.405-0.093-0.197-0.197-0.387-0.31-0.572-0.088-0.144-0.177-0.288-0.278-0.426-0.183-0.251-0.374-0.495-0.591-0.716-0.040-0.041-0.083-0.075-0.124-0.114-0.23-0.221-0.475-0.426-0.737-0.609-0.045-0.031-0.088-0.066-0.133-0.096-0.293-0.194-0.605-0.361-0.928-0.504-0.055-0.024-0.109-0.047-0.165-0.070-0.33-0.134-0.674-0.244-1.029-0.32-0.047-0.010-0.097-0.016-0.145-0.025-0.375-0.071-0.758-0.117-1.153-0.117-0.364 0-0.721 0.041-1.075 0.104-0.057 0.010-0.114 0.017-0.17 0.029-0.335 0.069-0.665 0.17-0.989 0.297-0.030 0.013-0.058 0.025-0.088 0.037-0.189 0.34-0.405 0.663-0.636 0.973-0.021 0.030-0.042 0.058-0.065 0.087-0.475 0.624-1.031 1.181-1.656 1.656-0.029 0.021-0.057 0.042-0.086 0.063-0.315 0.235-0.642 0.454-0.987 0.644-0.17 0.422-0.293 0.859-0.366 1.306 0.032 0.034 0.060 0.071 0.091 0.104 0.147 0.159 0.288 0.32 0.422 0.489 0.034 0.043 0.065 0.088 0.098 0.132 0.135 0.179 0.267 0.359 0.388 0.547 0.024 0.035 0.043 0.072 0.066 0.108 0.125 0.199 0.245 0.401 0.353 0.611 0.014 0.027 0.026 0.055 0.040 0.082 0.111 0.217 0.214 0.438 0.305 0.665 0.010 0.026 0.019 0.053 0.029 0.079 0.088 0.227 0.171 0.457 0.241 0.693 0.012 0.040 0.020 0.081 0.031 0.12 0.062 0.222 0.12 0.446 0.165 0.674 0.017 0.086 0.025 0.174 0.040 0.261 0.031 0.185 0.063 0.369 0.082 0.556 0.029 0.278 0.043 0.558 0.043 0.84 0.044 0.032 0.087 0.063 0.13 0.094 0.39-0.055 0.757-0.081 1.111-0.081 0.338 0 0.669 0.025 0.997 0.062 0.078 0.010 0.154 0.025 0.232 0.036 0.261 0.037 0.518 0.084 0.771 0.144 0.075 0.017 0.147 0.036 0.22 0.056 0.273 0.072 0.54 0.156 0.802 0.254zM22.345 35.379c0 0.416-0.040 0.823-0.096 1.223-0.006 0.041-0.004 0.082-0.010 0.123 0.047-0.007 0.097-0.005 0.144-0.011 0.396-0.055 0.797-0.093 1.203-0.093 0.295 0 0.59 0.015 0.88 0.045 0.058 0.006 0.116 0.019 0.174 0.026 0.231 0.029 0.462 0.060 0.689 0.105 0.036 0.008 0.069 0.019 0.105 0.026 0.248 0.053 0.493 0.114 0.734 0.189 0.002 0.001 0.006 0.002 0.009 0.004 0.804 0.251 1.567 0.617 2.266 1.091l0.015 0.011c0.221 0.15 0.437 0.31 0.644 0.482 0.205 0.169 0.401 0.349 0.59 0.535 0.086-0.062 0.184-0.109 0.266-0.175 0.032-0.027 0.066-0.053 0.098-0.081 0.992-0.838 1.712-1.974 2.029-3.263l0.062-0.253c0.079-0.399 0.13-0.807 0.13-1.224 0-0.186-0.013-0.371-0.031-0.555-0.020-0.032-0.035-0.067-0.053-0.099-0.082-0.144-0.159-0.29-0.233-0.439-0.070-0.14-0.134-0.281-0.196-0.423s-0.125-0.284-0.18-0.431c-0.070-0.187-0.127-0.379-0.183-0.57-0.068-0.231-0.125-0.466-0.174-0.704-0.023-0.113-0.053-0.225-0.072-0.34-0.13-0.191-0.282-0.364-0.432-0.536l-0.078-0.086c-0.51-0.557-1.11-1.008-1.765-1.343-0.047-0.024-0.097-0.045-0.145-0.067-0.262-0.125-0.533-0.23-0.809-0.317-0.093-0.029-0.187-0.057-0.283-0.082-0.25-0.066-0.506-0.112-0.765-0.145-0.785-0.102-1.599-0.072-2.411 0.149-0.053 0.048-0.113 0.090-0.168 0.138-0.107 0.092-0.216 0.181-0.328 0.269-0.107 0.082-0.214 0.163-0.323 0.241-0.124 0.088-0.252 0.174-0.381 0.256-0.105 0.068-0.212 0.134-0.321 0.196-0.136 0.080-0.274 0.154-0.416 0.225-0.113 0.057-0.226 0.112-0.34 0.164-0.141 0.063-0.284 0.123-0.428 0.179-0.068 0.027-0.133 0.060-0.201 0.084-0.228 0.241-0.435 0.493-0.616 0.752 0.020 0.030 0.034 0.065 0.052 0.094 0.184 0.292 0.35 0.595 0.499 0.907 0.024 0.052 0.050 0.102 0.073 0.153 0.16 0.354 0.3 0.718 0.412 1.094 0.005 0.017 0.009 0.035 0.014 0.052 0.099 0.341 0.174 0.69 0.231 1.046 0.014 0.081 0.026 0.162 0.037 0.243 0.050 0.372 0.083 0.75 0.083 1.136zM26.803 18.801c0.010 0.029 0.012 0.058 0.022 0.088 0.143 0.411 0.257 0.833 0.336 1.269 0.014 0.072 0.022 0.144 0.034 0.217 0.069 0.441 0.116 0.889 0.116 1.349s-0.046 0.909-0.118 1.348c-0.012 0.072-0.020 0.144-0.034 0.216-0.080 0.436-0.194 0.858-0.335 1.267-0.010 0.029-0.014 0.060-0.023 0.088 0.17 0.312 0.374 0.616 0.608 0.909 0.078 0.012 0.153 0.037 0.23 0.051 0.071 0.012 0.139 0.031 0.21 0.046 0.369 0.077 0.729 0.178 1.081 0.302 0.073 0.025 0.145 0.048 0.216 0.076 0.754 0.287 1.469 0.667 2.118 1.153 0.013-0.052 0.035-0.099 0.048-0.151 0.083-0.325 0.183-0.643 0.302-0.953 0.025-0.062 0.045-0.125 0.069-0.187 0.144-0.349 0.31-0.685 0.497-1.010 0.041-0.073 0.086-0.143 0.129-0.214 0.174-0.286 0.362-0.56 0.567-0.823 0.034-0.044 0.063-0.089 0.098-0.132 0.236-0.289 0.491-0.561 0.761-0.818 0.063-0.059 0.127-0.117 0.191-0.174 0.254-0.23 0.52-0.446 0.801-0.643 0.035-0.023 0.066-0.051 0.101-0.074 0.31-0.211 0.637-0.399 0.973-0.57 0.079-0.040 0.159-0.078 0.239-0.116 0.327-0.154 0.66-0.292 1.007-0.405 0.024-0.007 0.047-0.019 0.071-0.026 0.365-0.116 0.745-0.2 1.129-0.266 0.045-0.007 0.087-0.024 0.132-0.031-0.536-2.881-3.069-5.070-6.103-5.070-2.301 0-4.399 1.274-5.473 3.283zM18.621 15.517c-3.423 0-6.207 2.785-6.207 6.207 0 2.041 0.991 3.925 2.663 5.090 0.019 0.002 0.036 0.007 0.055 0.011 0.211 0.036 0.417 0.081 0.622 0.132 0.068 0.016 0.135 0.034 0.204 0.052 0.186 0.051 0.369 0.108 0.55 0.171 0.083 0.029 0.166 0.060 0.248 0.091 0.169 0.065 0.334 0.133 0.498 0.207 0.084 0.040 0.169 0.081 0.253 0.123 0.16 0.080 0.318 0.161 0.472 0.251 0.031 0.017 0.063 0.032 0.093 0.050 0.181 0.019 0.364 0.030 0.55 0.030 0.813 0 1.586-0.168 2.3-0.453 0.056-0.024 0.113-0.042 0.169-0.066 0.315-0.138 0.616-0.304 0.901-0.49 0.066-0.042 0.132-0.088 0.196-0.134 0.93-0.657 1.675-1.557 2.131-2.613 0.15-0.348 0.258-0.705 0.341-1.068 0.010-0.043 0.030-0.081 0.038-0.124 0.086-0.412 0.129-0.833 0.129-1.259s-0.043-0.847-0.129-1.259c-0.009-0.043-0.029-0.082-0.038-0.124-0.084-0.362-0.192-0.72-0.341-1.068-0.952-2.206-3.147-3.756-5.698-3.756zM7.448 35.379c0 3.423 2.784 6.207 6.207 6.207 1.112 0 2.144-0.318 3.046-0.834 0.171-0.097 0.346-0.186 0.506-0.299 0.145-0.101 0.272-0.222 0.407-0.335 0.282-0.236 0.541-0.495 0.777-0.777 0.114-0.135 0.236-0.263 0.338-0.408 0.112-0.159 0.2-0.333 0.297-0.502 0.089-0.158 0.182-0.312 0.258-0.477 0.056-0.12 0.104-0.242 0.151-0.365 0.112-0.29 0.212-0.587 0.279-0.896 0.015-0.063 0.021-0.128 0.034-0.192 0.067-0.365 0.113-0.737 0.113-1.121 0-0.4-0.046-0.79-0.118-1.169-0.021-0.11-0.057-0.217-0.084-0.326-0.066-0.263-0.142-0.523-0.24-0.772-0.051-0.127-0.11-0.25-0.169-0.372-0.101-0.213-0.214-0.422-0.338-0.622-0.083-0.132-0.17-0.262-0.263-0.389-0.422-0.573-0.926-1.084-1.516-1.485l-0.035-0.022c-0.284-0.191-0.591-0.35-0.906-0.493-0.083-0.037-0.166-0.073-0.251-0.107-0.296-0.118-0.602-0.213-0.919-0.286-0.099-0.022-0.2-0.038-0.3-0.056-0.349-0.061-0.703-0.108-1.069-0.108-3.423 0-6.207 2.785-6.207 6.207zM5.743 53.275c0.030-0.011 0.061-0.014 0.091-0.024 0.413-0.144 0.838-0.261 1.276-0.341 0.072-0.014 0.145-0.022 0.218-0.034 0.444-0.071 0.897-0.118 1.362-0.118 0.41 0 0.809 0.038 1.207 0.093 0.098 0.014 0.198 0.027 0.296 0.045 0.38 0.067 0.754 0.151 1.115 0.266 0.072 0.022 0.139 0.052 0.21 0.077 0.305 0.105 0.602 0.228 0.891 0.366 0.098 0.047 0.198 0.092 0.294 0.143 0.329 0.173 0.645 0.365 0.948 0.576 0.029 0.019 0.060 0.032 0.087 0.052 0.084-0.135 0.19-0.256 0.282-0.386 0.116-0.165 0.229-0.332 0.355-0.488 0.125-0.153 0.264-0.293 0.4-0.437 0.156-0.168 0.308-0.339 0.477-0.493 0.099-0.092 0.21-0.17 0.314-0.256 0.538-0.448 1.113-0.847 1.742-1.155 0.048-0.307 0.073-0.6 0.073-0.886 0-0.433-0.047-0.863-0.136-1.281-0.006-0.029-0.020-0.056-0.026-0.084-0.088-0.384-0.207-0.761-0.366-1.121-0.025-0.058-0.063-0.111-0.090-0.168-0.153-0.319-0.324-0.629-0.529-0.919-0.060-0.084-0.133-0.156-0.196-0.237-0.194-0.247-0.399-0.487-0.631-0.704-1.11-1.043-2.593-1.693-4.232-1.693-3.423 0-6.207 2.785-6.207 6.207 0 1.062 0.267 2.084 0.777 2.999zM8.69 67.655c2.564 0 4.769-1.563 5.714-3.785l0.010-0.029c0.086-0.205 0.135-0.425 0.199-0.639 0.061-0.201 0.128-0.401 0.168-0.605 0.071-0.374 0.117-0.756 0.117-1.149 0-0.411-0.045-0.812-0.12-1.199-0.035-0.173-0.099-0.338-0.148-0.506-0.061-0.21-0.113-0.422-0.194-0.621-0.083-0.202-0.194-0.392-0.298-0.585-0.081-0.15-0.151-0.305-0.243-0.448-0.133-0.205-0.293-0.392-0.451-0.582-0.112-0.135-0.211-0.28-0.334-0.405-0.091-0.093-0.196-0.168-0.292-0.253-0.17-0.154-0.343-0.304-0.53-0.438-0.161-0.114-0.333-0.212-0.504-0.31-0.122-0.072-0.246-0.14-0.374-0.204-0.221-0.107-0.447-0.202-0.678-0.282-0.074-0.026-0.15-0.047-0.226-0.071-0.796-0.242-1.636-0.32-2.47-0.237-0.122 0.014-0.247 0.017-0.366 0.037-0.201 0.032-0.4 0.086-0.598 0.138-0.176 0.048-0.35 0.099-0.52 0.163-0.164 0.060-0.326 0.127-0.487 0.201-2.109 0.992-3.581 3.122-3.581 5.602 0 3.422 2.784 6.207 6.207 6.207zM21.103 65.172c2.967 0 5.448-2.096 6.058-4.884 0.016-0.076 0.025-0.15 0.038-0.226 0.063-0.358 0.111-0.721 0.111-1.097 0-1.028-0.276-1.984-0.72-2.838-0.116-0.22-0.22-0.446-0.361-0.652-0.063-0.093-0.145-0.169-0.214-0.258-0.183-0.238-0.368-0.475-0.587-0.689-0.535-0.521-1.162-0.947-1.856-1.25-0.088-0.040-0.181-0.063-0.271-0.098-0.251-0.096-0.509-0.178-0.775-0.241-0.111-0.027-0.222-0.051-0.334-0.071-0.355-0.063-0.716-0.11-1.090-0.11-0.223 0-0.443 0.023-0.664 0.048-0.143 0.017-0.291 0.037-0.45 0.067-0.361 0.067-0.712 0.166-1.053 0.296l-0.092 0.036c-0.412 0.161-0.802 0.365-1.164 0.605l-0.004 0.004c-0.346 0.228-0.663 0.494-0.955 0.783-0.020 0.020-0.042 0.037-0.062 0.058-0.275 0.282-0.519 0.592-0.736 0.921-0.042 0.063-0.078 0.13-0.118 0.196-0.081 0.133-0.139 0.281-0.21 0.42 0.009 0.011 0.015 0.025 0.023 0.036 0.528 0.7 0.951 1.478 1.25 2.319 0.020 0.055 0.042 0.109 0.061 0.165 0.13 0.392 0.232 0.797 0.305 1.211 0.014 0.080 0.023 0.158 0.036 0.237 0.063 0.421 0.107 0.849 0.107 1.287 0 0.356-0.029 0.705-0.069 1.049-0.009 0.071-0.021 0.142-0.032 0.212-0.045 0.305-0.105 0.606-0.181 0.901-0.006 0.025-0.009 0.050-0.015 0.073 1.122 0.964 2.526 1.488 4.022 1.488zM33.517 61.448c3.423 0 6.207-2.785 6.207-6.207 0-0.429-0.046-0.852-0.127-1.262-0.034-0.159-0.098-0.304-0.143-0.458-0.071-0.246-0.133-0.495-0.235-0.729-0.057-0.132-0.139-0.247-0.204-0.374-0.128-0.247-0.254-0.494-0.416-0.724-0.063-0.089-0.14-0.165-0.207-0.251-0.195-0.247-0.399-0.489-0.633-0.71-0.222-0.208-0.453-0.406-0.704-0.581-0.114-0.078-0.237-0.142-0.355-0.212-0.172-0.104-0.349-0.202-0.531-0.289-0.158-0.075-0.318-0.144-0.482-0.205-0.172-0.065-0.351-0.115-0.53-0.165-0.238-0.066-0.478-0.118-0.722-0.155-0.231-0.035-0.464-0.062-0.703-0.071-0.174-0.006-0.346-0.005-0.52 0.002-0.122 0.006-0.242 0.016-0.362 0.029-0.183 0.019-0.365 0.042-0.546 0.078-0.106 0.021-0.207 0.048-0.31 0.075-0.2 0.050-0.4 0.102-0.596 0.174-0.093 0.032-0.181 0.075-0.272 0.112l-0.325 0.16c-1.223 0.601-2.227 1.606-2.829 2.83l-0.14 0.286c-0.063 0.149-0.138 0.292-0.19 0.447 0.027 0.031 0.051 0.065 0.078 0.097 0.078 0.092 0.151 0.187 0.226 0.282 0.099 0.128 0.197 0.256 0.289 0.387 0.055 0.078 0.106 0.159 0.158 0.238 0.102 0.156 0.199 0.315 0.29 0.478 0.039 0.067 0.076 0.135 0.112 0.205 0.094 0.18 0.183 0.361 0.263 0.546 0.029 0.065 0.057 0.129 0.083 0.194 0.078 0.192 0.149 0.386 0.214 0.584 0.022 0.067 0.045 0.134 0.066 0.202 0.060 0.196 0.109 0.395 0.154 0.596 0.017 0.074 0.036 0.148 0.051 0.222 0.040 0.204 0.070 0.41 0.094 0.617 0.009 0.074 0.022 0.146 0.030 0.221 0.027 0.281 0.044 0.564 0.044 0.849 0 0.372-0.031 0.737-0.077 1.097-0.002 0.025-0.001 0.050-0.005 0.074 1.088 0.849 2.416 1.311 3.806 1.311zM45.931 56.483c3.422 0 6.207-2.785 6.207-6.207 0-1.923-0.898-3.624-2.275-4.762-0.186-0.154-0.37-0.31-0.57-0.441-0.146-0.096-0.306-0.168-0.462-0.251-0.189-0.102-0.375-0.211-0.572-0.292-0.201-0.082-0.416-0.134-0.627-0.195-0.166-0.048-0.329-0.112-0.5-0.145-0.389-0.077-0.79-0.122-1.2-0.122-0.338 0-0.918 0.122-1.382 0.241-0.045 0.252-0.111 0.498-0.176 0.744-0.010 0.036-0.016 0.072-0.026 0.108-0.066 0.231-0.144 0.454-0.227 0.678-0.053 0.145-0.113 0.288-0.174 0.429-0.080 0.183-0.156 0.366-0.248 0.543-0.155 0.302-0.328 0.594-0.518 0.876-0.068 0.102-0.146 0.196-0.22 0.296-0.165 0.223-0.339 0.439-0.525 0.647-0.080 0.088-0.159 0.176-0.242 0.262-0.482 0.495-1.017 0.94-1.61 1.31 0.001 0.002 0.002 0.005 0.004 0.008 0.254 0.357 0.482 0.734 0.681 1.127 0.006 0.013 0.013 0.025 0.019 0.037 0.375 0.751 0.643 1.563 0.788 2.417 0.012 0.072 0.022 0.144 0.034 0.216 0.057 0.396 0.096 0.798 0.097 1.209 0 0.005 0.001 0.010 0.001 0.016 1.075 0.811 2.377 1.251 3.724 1.251zM54.621 37.862c0-3.543-3.017-6.417-6.571-6.193-0.587 1.964-1.856 3.631-3.534 4.741-0.005 0.004-0.010 0.006-0.015 0.010-0.256 0.168-0.52 0.322-0.793 0.463-0.038 0.020-0.076 0.040-0.114 0.060-0.252 0.124-0.51 0.238-0.776 0.339-0.034 0.012-0.065 0.031-0.099 0.043 0.246 0.299 0.464 0.621 0.669 0.951 0.022 0.035 0.043 0.070 0.065 0.106 0.392 0.654 0.7 1.362 0.91 2.113 0.016 0.056 0.029 0.112 0.043 0.168 0.081 0.314 0.145 0.634 0.191 0.962 0.004 0.026 0.013 0.052 0.016 0.078 0.343-0.053 0.688-0.079 1.034-0.091 0.143-0.015 0.254-0.025 0.284-0.025 0.438 0 0.866 0.043 1.287 0.105 0.079 0.011 0.158 0.022 0.236 0.036 0.416 0.074 0.821 0.176 1.214 0.307 0.054 0.019 0.107 0.040 0.161 0.060 0.842 0.299 1.621 0.722 2.321 1.251 0.022 0.016 0.047 0.027 0.070 0.045 2.058-1.048 3.4-3.189 3.4-5.528zM57.166 19.303c0.617 6.491 5.798 11.673 12.29 12.29-0.617-6.491-5.798-11.673-12.29-12.29z"></path>
</svg>
