<!-- Generated by IcoMoon.io -->
<svg version="1.1" xmlns="http://www.w3.org/2000/svg" width="72" height="72" viewBox="0 0 72 72">
<title>uniF158</title>
<path d="M47.71 20.726l-3.927-2.618c-0.601-0.402-0.763-1.214-0.363-1.816 0.401-0.601 1.214-0.765 1.816-0.363l3.927 2.618c0.601 0.402 0.763 1.213 0.363 1.816-0.253 0.378-0.668 0.583-1.091 0.583-0.249 0-0.501-0.072-0.725-0.22zM29.524 15.572c-0.647-0.325-0.91-1.11-0.585-1.758l1.309-2.618c0.323-0.647 1.108-0.906 1.757-0.585 0.647 0.323 0.908 1.11 0.585 1.757l-1.309 2.618c-0.23 0.459-0.692 0.724-1.173 0.724-0.196 0-0.397-0.045-0.584-0.137zM15.124 19.499c-0.647-0.325-0.91-1.11-0.585-1.758l1.309-2.618c0.323-0.645 1.109-0.907 1.757-0.585 0.647 0.323 0.909 1.11 0.585 1.757l-1.309 2.618c-0.23 0.459-0.693 0.724-1.173 0.724-0.196 0-0.397-0.045-0.584-0.137zM16.436 52.584l3.927 2.618c0.601 0.402 0.763 1.213 0.363 1.816-0.253 0.378-0.668 0.583-1.091 0.583-0.249 0-0.501-0.072-0.725-0.22l-3.927-2.618c-0.601-0.402-0.763-1.214-0.363-1.816s1.212-0.765 1.816-0.363zM33.899 55.706l1.308 2.618c0.323 0.647 0.062 1.433-0.585 1.757-0.187 0.093-0.387 0.137-0.584 0.137-0.481 0-0.943-0.264-1.172-0.723l-1.309-2.618c-0.323-0.647-0.062-1.433 0.585-1.757 0.648-0.321 1.433-0.062 1.757 0.585zM45.094 49.883c0.647 0.325 0.91 1.11 0.587 1.757l-1.309 2.618c-0.23 0.459-0.692 0.724-1.173 0.724-0.196 0-0.397-0.045-0.585-0.139-0.647-0.323-0.908-1.11-0.585-1.757l1.309-2.618c0.323-0.645 1.107-0.907 1.757-0.585zM68.073 36.654c2.165 0 3.927 1.762 3.927 3.927v1.309c0 0.778-0.234 1.403-0.695 1.862-0.779 0.774-1.862 0.767-2.91 0.758l-8.177-0.001v1.309h3.883c2.165 0 3.927 1.762 3.927 3.927l-0.018 0.212c-0.025 0.154-2.728 15.497-18.265 15.497h-28.8c-15.536 0-18.239-15.343-18.266-15.497l-0.017-0.212c0-2.165 1.762-3.927 3.927-3.927h45.774v-1.309l-48.758 0.001c-1.049 0.012-2.131 0.016-2.91-0.758-0.461-0.458-0.695-1.084-0.695-1.862v-1.309c0-2.165 1.762-3.927 3.927-3.927h64.145zM64.101 48.436h-3.883v2.618c0 2.165-1.762 3.927-3.927 3.927s-3.927-1.762-3.927-3.927v-2.618h-45.774c-0.689 0-1.255 0.535-1.305 1.212 0.266 1.401 2.89 13.188 15.661 13.188h28.8c12.821 0 15.401-11.787 15.661-13.185-0.048-0.678-0.615-1.215-1.305-1.215zM69.382 41.866v-1.284c0-0.723-0.587-1.309-1.309-1.309h-64.145c-0.721 0-1.309 0.587-1.309 1.309v1.284c0.25 0.033 0.669 0.030 0.968 0.026l0.342-0.001h51.054v9.164c0 0.723 0.588 1.309 1.309 1.309s1.309-0.586 1.309-1.309v-9.164l10.814 0.001c0.299 0.001 0.719 0.004 0.967-0.026zM7.855 35.348c-2.888 0-5.236-2.349-5.236-5.236l0.045-7.865 0.017-0.204c0.026-0.154 2.729-15.497 18.266-15.497h28.8c15.536 0 18.24 15.343 18.266 15.497l0.017 0.204 0.045 7.855c0 2.897-2.348 5.247-5.236 5.247-1.541 0-2.957-0.673-3.927-1.771-0.969 1.097-2.385 1.771-3.927 1.771-1.541 0-2.956-0.673-3.927-1.771-0.97 1.098-2.386 1.771-3.927 1.771s-2.956-0.673-3.927-1.771c-0.97 1.098-2.386 1.771-3.927 1.771s-2.956-0.673-3.927-1.771c-0.97 1.098-2.386 1.771-3.927 1.771s-2.956-0.673-3.927-1.771c-0.97 1.098-2.386 1.771-3.927 1.771s-2.956-0.673-3.927-1.771c-0.97 1.098-2.386 1.771-3.927 1.771s-2.956-0.673-3.927-1.771c-0.97 1.098-2.386 1.771-3.927 1.771zM62.836 32.73c1.444 0 2.618-1.176 2.618-2.618l-0.023-4.16c-0.117 0.042-0.24 0.064-0.36 0.096-0.076 0.020-0.149 0.046-0.228 0.060-0.241 0.046-0.488 0.075-0.742 0.075h-57.511c-0.254 0-0.501-0.029-0.741-0.075-0.077-0.016-0.149-0.041-0.225-0.060-0.122-0.031-0.247-0.055-0.364-0.097l-0.024 4.167c0 1.437 1.174 2.613 2.618 2.613 1.191 0 2.233-0.803 2.533-1.953 0.166-0.637 0.74-1.083 1.394-1.083s1.227 0.444 1.393 1.083c0.301 1.151 1.343 1.953 2.534 1.953s2.233-0.803 2.533-1.953c0.166-0.637 0.74-1.083 1.394-1.083s1.227 0.444 1.393 1.083c0.301 1.151 1.343 1.953 2.534 1.953s2.233-0.803 2.533-1.953c0.166-0.637 0.74-1.083 1.394-1.083s1.227 0.444 1.393 1.083c0.301 1.151 1.343 1.953 2.534 1.953s2.233-0.803 2.533-1.953c0.166-0.637 0.74-1.083 1.394-1.083s1.227 0.444 1.393 1.083c0.301 1.151 1.343 1.953 2.534 1.953s2.233-0.803 2.533-1.953c0.166-0.637 0.74-1.083 1.394-1.083s1.227 0.444 1.393 1.083c0.301 1.151 1.343 1.953 2.534 1.953s2.233-0.803 2.533-1.953c0.166-0.637 0.74-1.083 1.394-1.083s1.227 0.444 1.393 1.083c0.301 1.151 1.342 1.953 2.534 1.953s2.233-0.803 2.533-1.952c0.169-0.64 0.742-1.084 1.394-1.084s1.224 0.444 1.393 1.077c0.301 1.156 1.343 1.958 2.534 1.958zM20.945 9.164c-12.739 0-15.363 11.625-15.653 13.146 0.004 0.098 0.031 0.187 0.056 0.279 0.018 0.068 0.026 0.14 0.055 0.203 0.041 0.088 0.103 0.161 0.161 0.238 0.040 0.054 0.071 0.115 0.119 0.162 0.076 0.073 0.17 0.123 0.262 0.177 0.051 0.030 0.092 0.072 0.147 0.094 0.153 0.064 0.321 0.101 0.498 0.101h57.511c0.177 0 0.344-0.037 0.497-0.101 0.056-0.022 0.1-0.065 0.151-0.096 0.090-0.052 0.183-0.102 0.258-0.174 0.050-0.047 0.081-0.109 0.122-0.164 0.056-0.076 0.119-0.148 0.158-0.236 0.030-0.066 0.038-0.139 0.056-0.208 0.024-0.089 0.051-0.177 0.055-0.272-0.295-1.523-2.963-13.15-15.653-13.15h-28.8z"></path>
</svg>
