<!-- Generated by IcoMoon.io -->
<svg version="1.1" xmlns="http://www.w3.org/2000/svg" width="72" height="72" viewBox="0 0 72 72">
<title>uniF182</title>
<path d="M57.353 23.176l0.002 0.011v41.492c0 0.554-0.373 1.039-0.91 1.18l-23.186 6.102c-0.103 0.027-0.206 0.040-0.31 0.040-0.152 0-0.299-0.037-0.441-0.090-0.013-0.005-0.027-0.002-0.040-0.009l-17.085-7.322c-0.449-0.192-0.74-0.633-0.74-1.122v-40.271c0-0.049 0.011-0.095 0.017-0.143 0.002-0.024 0.004-0.046 0.009-0.071 0.029-0.161 0.092-0.312 0.181-0.449 0.007-0.011 0.007-0.026 0.015-0.037l8.322-11.889v-4.497c0-0.577 0.404-1.075 0.969-1.194l23.187-4.881c0.359-0.076 0.735 0.015 1.020 0.247 0.286 0.231 0.452 0.578 0.452 0.947v4.592l8.415 16.833c0.018 0.038 0.015 0.082 0.029 0.121 0.050 0.133 0.094 0.268 0.095 0.409zM40.271 6.396l2.441-0.514v-2.387l-2.441 0.514v2.387zM37.831 6.91v-2.387l-2.441 0.514v2.387zM32.949 7.937v-2.387l-2.448 0.516c0 0.012 0.007 0.023 0.007 0.035v2.349zM26.163 11.86l7.461 15.988 20.748-5.46-7.449-14.899-8.898 1.873zM54.915 26.28v-1.512l-20.746 5.46v13.522zM17.085 24.918v13.329l14.644 6.276v-14.375zM17.085 40.901v15.65l14.644 6.276v-15.65zM34.169 46.94v15.219l20.746-16.377v-16.311zM46.373 5.111v-2.386l-1.22 0.256v2.386zM25.627 7.091v2.387l2.441-0.514v-2.387zM24.195 13.414l-6.413 9.16 12.826 4.581-3.206-6.871zM17.085 59.206v3.446l14.644 6.276v-3.446zM34.169 69.197l20.746-5.459v-14.847l-20.746 16.378v3.927zM39.173 21.798c-0.801-0.94-1.19-2.183-1.411-3.036-1.148-4.391 0.857-5.902 2.742-6.395 1.884-0.492 4.371-0.159 5.521 4.233 0.223 0.852 0.493 2.126 0.256 3.338-0.214 1.092-0.907 2.508-2.998 3.056-0.445 0.117-0.855 0.167-1.231 0.167-1.388 0-2.313-0.696-2.879-1.363zM41.121 14.729c-0.896 0.234-1.712 0.692-0.998 3.416 0.163 0.621 0.434 1.511 0.91 2.072 0.305 0.358 0.714 0.657 1.633 0.415 0.92-0.24 1.13-0.701 1.22-1.162 0.14-0.721-0.060-1.63-0.222-2.253-0.552-2.105-1.235-2.583-1.931-2.583-0.204 0-0.409 0.041-0.613 0.095z"></path>
</svg>
