<!-- Generated by IcoMoon.io -->
<svg version="1.1" xmlns="http://www.w3.org/2000/svg" width="72" height="72" viewBox="0 0 72 72">
<title>uniF147</title>
<path d="M58.689 60.903c-0.167 0.576-0.325 1.153-0.5 1.725-0.447 1.452-0.916 2.897-1.42 4.332l-0.073 0.441-0.064 0.045c-0.721 2.667-3.111 4.553-5.927 4.553h-29.415c-2.323 0-4.719-1.657-5.609-3.811l-0.025 0.005-0.392-1.128c-0.501-1.441-0.969-2.895-1.413-4.355-0.172-0.567-0.328-1.139-0.492-1.708-0.252-0.871-0.5-1.743-0.731-2.62-0.195-0.74-0.376-1.484-0.556-2.227-0.167-0.687-0.329-1.375-0.483-2.065-0.192-0.861-0.375-1.724-0.548-2.589-0.107-0.536-0.207-1.073-0.305-1.612-0.183-0.991-0.361-1.98-0.519-2.975-0.049-0.305-0.089-0.613-0.135-0.919-0.879-5.849-1.339-11.767-1.324-17.724v-0.229c0-2.249 1.029-4.043 2.617-4.919v-7.125h6.667v-4h6.667v-5.333h6.667v-6.667h9.333v6.667h6.667v5.333h6.667v4h6.667v7.18c1.535 0.895 2.525 2.659 2.525 4.864l0.001 0.195c0.044 6.060-0.413 12.076-1.319 18.020-0.029 0.193-0.053 0.388-0.084 0.581-0.164 1.043-0.351 2.081-0.544 3.119-0.089 0.484-0.179 0.967-0.275 1.449-0.179 0.896-0.369 1.789-0.569 2.68-0.148 0.656-0.303 1.311-0.461 1.964-0.185 0.761-0.372 1.523-0.573 2.281-0.228 0.86-0.473 1.715-0.721 2.569zM59.34 45.457c0.541-3.661 0.909-7.356 1.084-11.071 0.003-0.043 0.005-0.087 0.008-0.129-0.153-0.585-0.649-1.857-2.069-1.857h-3.812c-1.768 0-3.424 0.851-4.429 2.273-2.979 4.216-9.653 6.827-14.128 6.827-4.472 0-11.143-2.611-14.121-6.827-1.005-1.423-2.661-2.273-4.429-2.273h-3.812c-1.363 0-1.872 1.144-2.051 1.788 0.003 0.077 0.009 0.153 0.013 0.229 0.184 3.617 0.545 7.213 1.067 10.78 0.055 0.371 0.105 0.741 0.163 1.111 0.145 0.931 0.308 1.857 0.476 2.784 0.099 0.54 0.2 1.080 0.307 1.619 0.163 0.827 0.331 1.653 0.511 2.476 0.157 0.712 0.328 1.423 0.499 2.132 0.161 0.672 0.316 1.348 0.489 2.017 0.356 1.367 0.732 2.729 1.139 4.085 0.104 0.344 0.22 0.684 0.327 1.028 0.272 0.876 0.557 1.749 0.851 2.62 3.18-0.672 12.007-2.403 18.624-2.403 5.677 0 12.98 1.431 16.905 2.2 0.567 0.111 1.141 0.223 1.599 0.308 0.325-0.952 0.641-1.905 0.941-2.864 0.088-0.284 0.187-0.564 0.273-0.848 0.411-1.349 0.788-2.705 1.145-4.065 0.187-0.709 0.353-1.425 0.525-2.139 0.16-0.661 0.32-1.324 0.468-1.988 0.189-0.856 0.367-1.715 0.536-2.576 0.096-0.492 0.189-0.984 0.28-1.477 0.177-0.972 0.349-1.945 0.501-2.923 0.043-0.279 0.080-0.559 0.121-0.837zM11.427 28.277c-0.001 0.667 0.028 1.332 0.036 1.996 0.649-0.345 1.379-0.544 2.168-0.544h3.812c2.633 0 5.103 1.271 6.608 3.401 2.408 3.408 8.119 5.699 11.943 5.699 3.827 0 9.541-2.289 11.949-5.699 1.505-2.129 3.975-3.401 6.608-3.401h3.812c0.795 0 1.527 0.2 2.176 0.547 0.008-0.675 0.035-1.347 0.029-2.021l-0.001-0.203c0-1.167-0.501-2.393-1.575-2.744-0.247-0.072-0.448-0.107-0.629-0.107h-3.812c-0.475 0-0.972 0.073-1.475 0.217-1.2 0.343-2.264 1.093-2.996 2.113-0.013 0.020-0.031 0.035-0.045 0.055-0.713 0.98-1.623 1.871-2.659 2.661v0.021l-0.568 0.399c-0.053 0.037-0.109 0.068-0.163 0.104-1.801 1.231-3.891 2.177-5.935 2.777v0.032l-1.024 0.244c-0.007 0.003-0.012 0.003-0.019 0.004-0.639 0.153-1.265 0.268-1.872 0.348-0.019 0.003-0.039 0.005-0.057 0.008-0.608 0.077-1.193 0.117-1.744 0.117-0.525 0-1.084-0.039-1.661-0.109-0.027-0.004-0.052-0.004-0.080-0.008-0.563-0.072-1.147-0.179-1.74-0.315-0.036-0.008-0.068-0.011-0.104-0.019l-1.031-0.24v-0.032c-2.045-0.591-4.143-1.529-5.955-2.753-0.044-0.029-0.092-0.055-0.136-0.085l-0.576-0.397v-0.020c-1.065-0.8-1.997-1.708-2.728-2.707-0.023-0.029-0.048-0.052-0.069-0.083v-0.001c-0.711-0.992-1.747-1.733-2.915-2.088l-0.005-0.001c-0.532-0.16-1.053-0.241-1.551-0.241h-3.812c-0.173 0-0.361 0.027-0.579 0.085v0c-1.111 0.325-1.627 1.577-1.627 2.756v0.233zM58.044 18.667h-4v3.885c0.171-0.012 0.34-0.017 0.508-0.017h3.492v-3.868zM51.377 14.667h-4.001v11.943c0.181-0.181 0.344-0.376 0.496-0.581 0.023-0.032 0.049-0.061 0.072-0.092 0.871-1.232 2.071-2.165 3.433-2.743v-8.527zM44.711 9.333h-4v20.979c1.401-0.347 2.792-0.761 4-1.464v-19.515zM34.044 2.667v28.792c0.337 0.056 0.657 0.096 0.969 0.125 0.027 0.003 0.055 0.005 0.083 0.008 0.636 0.053 1.239 0.051 1.875-0.008 0.036-0.003 0.073-0.007 0.109-0.011 0.311-0.031 0.628-0.073 0.964-0.131v-28.776h-4zM27.377 9.333v19.572c1.212 0.691 2.603 1.085 4 1.419v-20.991h-4zM20.711 14.667v8.567c1.324 0.58 2.489 1.497 3.341 2.703 0.017 0.025 0.039 0.048 0.056 0.072 0.179 0.247 0.379 0.472 0.603 0.681v-12.023h-4zM14.044 18.667v3.868h3.4c0.199 0 0.399 0.008 0.6 0.025v-3.893h-4zM50.705 69.333c1.229 0 2.313-0.636 2.939-1.616-0.348-0.067-0.735-0.141-1.209-0.235-3.835-0.751-10.973-2.149-16.391-2.149-6.060 0-14.319 1.571-17.685 2.267 0.612 0.969 1.844 1.733 2.932 1.733h29.415zM36.711 44c5.881 0 10.667 3.588 10.667 8s-4.785 8-10.667 8c-5.881 0-10.667-3.588-10.667-8s4.785-8 10.667-8zM36.711 57.333c4.337 0 8-2.443 8-5.333s-3.664-5.333-8-5.333-8 2.443-8 5.333c0 2.891 3.664 5.333 8 5.333z"></path>
</svg>
