<!-- Generated by IcoMoon.io -->
<svg version="1.1" xmlns="http://www.w3.org/2000/svg" width="72" height="72" viewBox="0 0 72 72">
<title>uniF198</title>
<path d="M67.121 40.88c0 10.746-5.476 20.236-13.783 25.831-1.987 1.68-4.37 2.939-7.173 3.577-3.188 1.105-6.606 1.713-10.166 1.713-17.159 0-31.12-13.961-31.12-31.12s13.961-31.12 31.12-31.12c1.599 0 3.216 0.158 4.826 0.41l0.055-0.123c3.008-6.826 9.998-10.821 17.412-9.924l8.142 0.978-3.308 7.504c-1.583 3.588-4.272 6.385-7.539 8.109 7.257 5.89 11.534 14.764 11.534 24.165zM64.581 40.88c0-9.092-4.353-17.654-11.675-23.039-1.636 0.525-3.365 0.81-5.139 0.81-0.051 0-0.102-0.009-0.152-0.009-0.635-0.004-1.27-0.038-1.9-0.114l-5.020-0.602-1.090 8.173c4.212 0.141 6.826 0.996 7.508 1.25 0.079 0.006 0.155-0.005 0.234 0.015 9.844 2.685 13.965 12.895 13.68 21.822-0.081 2.553-0.537 5.183-1.357 7.695 3.098-4.568 4.911-10.077 4.911-16.001zM37.98 19.057h-1.163l0.582 4.362zM57.989 2.647c-6.291-0.756-12.231 2.631-14.787 8.425l-1.338 3.035 11.87-7.554c0.593-0.376 1.378-0.202 1.754 0.39s0.202 1.378-0.39 1.754l-11.107 7.069 2.022 0.243c0.521 0.062 1.047 0.089 1.572 0.093 0.074 0.001 0.147 0 0.221 0 1.649-0.014 3.297-0.303 4.85-0.875l0.517-0.19c3.324-1.365 6.089-3.969 7.625-7.454l1.926-4.366zM7.421 40.88c0 15.76 12.82 28.58 28.583 28.583 3.221 0 6.316-0.544 9.207-1.531 0.032-0.009 0.056-0.031 0.088-0.037 0.034-0.008 0.065-0.019 0.099-0.027 2.275-0.794 4.42-1.865 6.393-3.177 4.354-3.738 6.517-9.875 6.699-15.583 0.25-7.888-3.268-16.869-11.678-19.248-0.004 0-0.008 0.001-0.012 0.001-0.164 0-0.329-0.032-0.489-0.099-0.058-0.024-2.615-1.045-7.159-1.141-4.73-0.1-9.997-0.829-12.604-8.281-0.233-0.662 0.117-1.386 0.779-1.618 0.666-0.231 1.387 0.117 1.618 0.779 1.397 3.992 3.578 5.544 6.191 6.164l-1.219-9.149h4.113l1.747-3.964c-1.26-0.168-2.525-0.253-3.774-0.253-15.76 0-28.58 12.82-28.58 28.58zM14.869 34.285c-1.305 4.438-1.167 9.318 0.384 13.743 0.232 0.662-0.116 1.386-0.777 1.618-0.138 0.048-0.281 0.072-0.42 0.072-0.523 0-1.015-0.326-1.198-0.85-1.726-4.922-1.879-10.355-0.425-15.299 0.198-0.674 0.907-1.061 1.576-0.861 0.673 0.198 1.059 0.903 0.861 1.576zM18.059 23.804c0.484-0.508 1.289-0.526 1.796-0.043 0.508 0.484 0.527 1.288 0.043 1.796-1.18 1.239-2.21 2.619-3.060 4.104-0.235 0.409-0.663 0.639-1.104 0.639-0.215 0-0.431-0.053-0.63-0.168-0.608-0.348-0.819-1.124-0.471-1.733 0.951-1.664 2.103-3.21 3.426-4.596z"></path>
</svg>
