<!-- Generated by IcoMoon.io -->
<svg version="1.1" xmlns="http://www.w3.org/2000/svg" width="72" height="72" viewBox="0 0 72 72">
<title>uniF126</title>
<path d="M60.195 11.62c15.052 15.051 15.504 32.571 1.211 46.866-9.355 9.355-25.997 13.513-38.486 13.513h-0.35c-8.299-0.052-14.591-1.848-17.721-5.057-7.931-7.933-6.147-41.904 8.481-56.532 14.292-14.295 31.812-13.843 46.866 1.211zM59.3 56.38c13.169-13.169 12.728-28.716-1.211-42.654-7.181-7.181-14.791-10.78-22.281-10.78-7.048 0-13.991 3.185-20.375 9.57-5.991 5.991-10.412 16.774-11.828 28.842-1.245 10.609 0.138 20.268 3.361 23.492 2.506 2.57 8.342 4.125 15.621 4.171h0.339c11.87 0.001 27.621-3.888 36.373-12.64zM17.988 17.885c0.463-0.68 1.386-0.856 2.070-0.395 0.679 0.462 0.858 1.388 0.396 2.068-0.119 0.177-11.97 18.017-7.038 39.969 0.18 0.803-0.325 1.599-1.127 1.78-0.11 0.024-0.22 0.036-0.328 0.036-0.681 0-1.297-0.471-1.452-1.163-5.222-23.246 6.957-41.529 7.479-42.296zM36.995 14.415c0-2.281 1.141-3.422 3.422-3.422s3.422 1.141 3.422 3.422-1.141 3.422-3.422 3.422-3.422-1.141-3.422-3.422zM47.251 16.302c0-2.281 1.141-3.422 3.422-3.422s3.422 1.141 3.422 3.422-1.141 3.422-3.422 3.422c-2.282 0-3.422-1.141-3.422-3.422zM39.993 23.562c0-2.281 1.141-3.422 3.422-3.422s3.422 1.141 3.422 3.422-1.141 3.422-3.422 3.422-3.422-1.141-3.422-3.422z"></path>
</svg>
