<!-- Generated by IcoMoon.io -->
<svg version="1.1" xmlns="http://www.w3.org/2000/svg" width="72" height="72" viewBox="0 0 72 72">
<title>uniF130</title>
<path d="M71.648 68.752c0.469 0.469 0.469 1.228-0.001 1.697-0.234 0.234-0.541 0.352-0.848 0.352s-0.614-0.118-0.848-0.352l-17.82-17.82c-1.355 1.356-3.163 2.102-5.090 2.102s-3.736-0.746-5.091-2.102l-33.94-33.94c-1.741-1.742-2.398-4.162-1.978-6.419l-4.181-0.598c-0.93-0.132-1.642-0.815-1.813-1.739-0.17-0.924 0.25-1.817 1.072-2.274l4.753-2.64 0.782-2.346c0.283-0.846 1.039-1.423 1.93-1.469 0.866-0.060 1.704 0.448 2.072 1.259l1.446 3.181c2.326-0.647 4.947 0.012 6.948 2.014l33.94 33.941c1.398 1.397 2.267 2.945 2.512 4.476 0.288 1.801-0.288 3.481-1.663 4.856zM6.888 9.969c0.036-0.064 0.083-0.119 0.12-0.18 0.064-0.102 0.131-0.2 0.2-0.3 0.241-0.349 0.502-0.683 0.802-0.983l1.2-1.2c0.221-0.221 0.461-0.425 0.721-0.613l-1.21-2.664-0.614 1.841c-0.172 0.515-0.526 0.94-0.996 1.201l-4.195 2.329zM47.042 52.331c1.287 0 2.491-0.497 3.394-1.4l1.697-1.697c0.832-0.832 1.157-1.741 0.99-2.779-0.163-1.015-0.815-2.136-1.838-3.16l-33.94-33.941c-1.049-1.049-2.309-1.579-3.523-1.579-0.509 0-1.008 0.1-1.482 0.287l-0.328 0.168c-0.222 0.113-0.415 0.229-0.592 0.352-0.175 0.13-0.35 0.262-0.512 0.424l-1.2 1.2c-0.179 0.179-0.329 0.378-0.474 0.578-0.212 0.296-0.403 0.611-0.548 0.957l-0.032 0.078c-0.222 0.558-0.343 1.158-0.343 1.78 0 1.286 0.497 2.491 1.398 3.394l33.94 33.94c0.902 0.902 2.108 1.399 3.395 1.399zM32.878 33.323l6.78 6.779c0.469 0.469 0.469 1.228 0 1.697-0.234 0.234-0.541 0.352-0.848 0.352s-0.614-0.118-0.848-0.352l-6.78-6.779c-0.469-0.469-0.469-1.228 0-1.697s1.228-0.469 1.697 0zM23.503 18.368l4.156 4.156c0.469 0.469 0.469 1.228 0 1.697-0.234 0.234-0.541 0.352-0.848 0.352s-0.614-0.118-0.848-0.352l-4.155-4.156c-0.469-0.469-0.469-1.228 0-1.697s1.228-0.469 1.697 0zM21.146 16.011c0.469 0.469 0.469 1.228 0 1.697-0.234 0.234-0.541 0.352-0.848 0.352s-0.614-0.118-0.848-0.352l-1.469-1.469c-0.469-0.469-0.469-1.228 0-1.697s1.228-0.469 1.697 0z"></path>
</svg>
