<!-- Generated by IcoMoon.io -->
<svg version="1.1" xmlns="http://www.w3.org/2000/svg" width="72" height="72" viewBox="0 0 72 72">
<title>uniF18A</title>
<path d="M32.219 32.967c12.271 0 30.53 2.219 30.53 8.331v0.171c0 16.833-13.696 30.529-30.53 30.529s-30.529-13.695-30.529-30.529v-0.171c0-6.113 18.257-8.331 30.529-8.331zM32.219 35.504c-18.379 0-27.993 3.773-27.993 5.796 0 0.702 1.181 1.611 3.456 2.503l-0.627-0.52c0.923-1.114 2.17-1.726 3.514-1.726s2.59 0.613 3.514 1.726l-1.952 1.62c-0.708-0.855-1.763-0.998-2.599-0.454 4.626 1.425 12.235 2.646 22.688 2.646 18.379 0 27.993-3.771 27.993-5.794 0-1.624-6.212-4.373-18.167-5.394 0.44 0.274 0.856 0.604 1.213 1.034l-1.952 1.62c-0.866-1.045-2.255-1.045-3.122 0l-1.952-1.62c0.476-0.575 1.040-1.009 1.657-1.301-1.791-0.083-3.669-0.135-5.669-0.135zM32.219 69.463c14.234 0 26.013-10.682 27.761-24.449-5.567 3.325-18.401 4.619-27.761 4.619-9.359 0-22.192-1.294-27.76-4.619 1.747 13.767 13.526 24.449 27.76 24.449zM38.768 44.551c0.923-1.114 2.169-1.726 3.512-1.726s2.59 0.613 3.514 1.726l-1.952 1.62c-0.866-1.045-2.255-1.045-3.122 0zM46.379 43.282c0.923-1.114 2.169-1.726 3.512-1.726s2.59 0.613 3.514 1.726l-1.952 1.62c-0.866-1.045-2.255-1.045-3.122 0zM56.527 42.365c-0.866-1.045-2.257-1.045-3.123 0l-1.952-1.62c0.924-1.114 2.17-1.726 3.514-1.726s2.59 0.613 3.514 1.726zM48.916 41.097c-0.866-1.045-2.257-1.045-3.123 0l-1.952-1.62c0.924-1.114 2.17-1.726 3.514-1.726s2.59 0.613 3.514 1.726zM41.305 42.365c-0.866-1.045-2.257-1.045-3.123 0l-1.952-1.62c0.923-1.114 2.17-1.726 3.514-1.726s2.59 0.613 3.514 1.726zM33.694 41.097c-0.866-1.045-2.257-1.045-3.123 0l-1.952-1.62c0.924-1.114 2.17-1.726 3.514-1.726s2.59 0.613 3.514 1.726zM29.888 44.551c0.924-1.114 2.169-1.726 3.513-1.726s2.59 0.613 3.514 1.726l-1.952 1.62c-0.866-1.045-2.255-1.045-3.122 0zM22.277 44.551c0.923-1.114 2.169-1.726 3.512-1.726s2.59 0.613 3.514 1.726l-1.952 1.62c-0.866-1.045-2.255-1.045-3.122 0zM17.887 44.902l-1.953-1.62c0.924-1.114 2.17-1.726 3.514-1.726s2.59 0.613 3.514 1.726l-1.952 1.62c-0.866-1.045-2.255-1.045-3.122 0zM24.814 41.097c-0.866-1.045-2.257-1.045-3.123 0l-1.952-1.62c0.923-1.114 2.17-1.726 3.514-1.726s2.59 0.613 3.514 1.726zM14.666 41.097c-0.866-1.045-2.257-1.045-3.123 0l-1.952-1.62c0.924-1.114 2.17-1.726 3.514-1.726s2.59 0.613 3.514 1.726zM40.673 9.787l29.635 2.898-0.246 2.524-29.162-2.845c-0.219 0.973-0.772 1.858-1.617 2.559-0.521 0.433-0.809 0.987-0.809 1.56s0.287 1.126 0.809 1.56c1.115 0.924 1.728 2.17 1.728 3.514s-0.614 2.59-1.728 3.514c-0.521 0.432-0.809 0.987-0.809 1.56s0.287 1.126 0.809 1.56l-1.619 1.952c-1.115-0.923-1.728-2.17-1.728-3.514s0.614-2.59 1.728-3.514c0.521-0.433 0.809-0.987 0.809-1.56s-0.287-1.126-0.809-1.56c-1.115-0.924-1.728-2.17-1.728-3.514s0.614-2.59 1.728-3.514c0.303-0.251 0.516-0.545 0.651-0.859l-2.432-0.237c-0.127 1.162-0.691 2.234-1.674 3.048-0.521 0.433-0.809 0.987-0.809 1.56s0.287 1.126 0.809 1.56c1.115 0.923 1.728 2.17 1.728 3.514s-0.614 2.59-1.728 3.514c-0.521 0.433-0.809 0.987-0.809 1.56s0.287 1.126 0.809 1.56l-1.619 1.952c-1.115-0.924-1.728-2.17-1.728-3.514s0.614-2.59 1.728-3.514c0.521-0.433 0.809-0.987 0.809-1.56s-0.287-1.126-0.809-1.56c-1.115-0.923-1.728-2.17-1.728-3.514s0.614-2.59 1.728-3.514c0.455-0.377 0.719-0.847 0.783-1.341l-2.513-0.245c0 0.009 0.002 0.017 0.002 0.025 0 1.343-0.614 2.59-1.728 3.514-0.521 0.432-0.809 0.987-0.809 1.56s0.287 1.126 0.809 1.56c1.115 0.924 1.728 2.17 1.728 3.514s-0.614 2.59-1.728 3.514c-0.521 0.433-0.809 0.987-0.809 1.56s0.287 1.126 0.809 1.56l-1.619 1.952c-1.115-0.923-1.728-2.17-1.728-3.514s0.614-2.59 1.728-3.514c0.521-0.433 0.809-0.987 0.809-1.56s-0.287-1.126-0.809-1.56c-1.115-0.923-1.728-2.17-1.728-3.514s0.614-2.59 1.728-3.514c0.521-0.432 0.809-0.987 0.809-1.56 0-0.094-0.019-0.185-0.034-0.277l-2.562-0.25c0.022 0.175 0.061 0.348 0.061 0.526 0 1.343-0.614 2.59-1.728 3.514-0.521 0.433-0.809 0.987-0.809 1.56s0.287 1.126 0.809 1.56c1.115 0.924 1.728 2.17 1.728 3.514s-0.614 2.59-1.728 3.514c-0.521 0.433-0.809 0.987-0.809 1.56s0.287 1.126 0.809 1.56l-1.619 1.952c-1.115-0.923-1.728-2.17-1.728-3.514s0.614-2.59 1.728-3.514c0.521-0.433 0.809-0.987 0.809-1.56s-0.287-1.126-0.809-1.56c-1.115-0.924-1.728-2.17-1.728-3.514s0.614-2.59 1.728-3.514c0.521-0.433 0.809-0.987 0.809-1.56 0-0.27-0.070-0.535-0.192-0.787l-5.005-0.488 0.123-1.262-0.188-1.255 2.824-0.422c-0.057-0.282-0.099-0.567-0.099-0.859 0-1.343 0.614-2.59 1.728-3.514l1.619 1.952c-0.521 0.432-0.809 0.987-0.809 1.56 0 0.164 0.029 0.325 0.075 0.482l2.475-0.37c-0.001-0.037-0.013-0.072-0.013-0.11 0-1.343 0.614-2.59 1.728-3.514l1.619 1.952c-0.438 0.364-0.699 0.813-0.775 1.287l2.579-0.387c0.169-1.086 0.724-2.084 1.651-2.853l1.619 1.952c-0.175 0.145-0.312 0.307-0.433 0.474l2.441-0.365c0.278-0.774 0.751-1.485 1.447-2.061l1.36 1.64 29.706-4.456 0.377 2.51-30.455 4.568c0.137 0.296 0.345 0.573 0.633 0.812 0.646 0.535 1.1 1.187 1.388 1.896zM37.284 9.455c-0.572-0.584-0.979-1.257-1.181-1.997l-2.019 0.303c0.044 0.042 0.079 0.087 0.127 0.127 0.485 0.401 0.855 0.873 1.14 1.378zM29.666 8.427c0.094 0.103 0.192 0.203 0.274 0.313l1.797 0.175c-0.171-0.235-0.327-0.476-0.449-0.732z"></path>
</svg>
