<!-- Generated by IcoMoon.io -->
<svg version="1.1" xmlns="http://www.w3.org/2000/svg" width="72" height="72" viewBox="0 0 72 72">
<title>uniF135</title>
<path d="M36.517 27.718c-0.198-0.731 0.235-1.485 0.966-1.682l5.922-1.602c0.734-0.206 1.486 0.233 1.683 0.966 0.198 0.731-0.235 1.485-0.966 1.682l-5.922 1.603c-0.121 0.033-0.242 0.048-0.36 0.048-0.605 0-1.158-0.402-1.324-1.014zM14.986 35.127c-0.719-0.239-1.107-1.015-0.867-1.736 0.24-0.719 1.015-1.109 1.736-0.867l4.116 1.372c0.719 0.239 1.107 1.017 0.867 1.736-0.192 0.575-0.727 0.939-1.302 0.939-0.143 0-0.289-0.023-0.434-0.071zM29.915 32.707c-0.756-0.044-1.332-0.693-1.287-1.452l0.115-1.937c0.045-0.755 0.682-1.327 1.452-1.287 0.756 0.045 1.332 0.694 1.287 1.452l-0.115 1.937c-0.042 0.729-0.648 1.29-1.368 1.29-0.027 0-0.055-0.001-0.084-0.003zM54.239 38.604l-1.372-1.372c-0.536-0.537-0.536-1.404 0-1.94s1.404-0.537 1.94 0l1.372 1.372c0.536 0.536 0.536 1.404 0 1.94-0.268 0.268-0.619 0.402-0.97 0.402s-0.702-0.134-0.97-0.402zM41.772 35.291l1.372 1.372c0.537 0.536 0.537 1.404 0 1.94-0.268 0.268-0.619 0.402-0.97 0.402s-0.703-0.134-0.97-0.402l-1.372-1.372c-0.537-0.537-0.537-1.404 0-1.94s1.404-0.537 1.94 0zM37.158 14.206l-1.372-5.488c-0.182-0.734 0.264-1.479 0.999-1.663 0.733-0.181 1.48 0.262 1.664 0.999l1.372 5.488c0.183 0.734-0.263 1.479-0.999 1.663-0.113 0.027-0.224 0.041-0.335 0.041-0.615 0-1.173-0.416-1.33-1.040zM30.914 22.452l-1.372-1.372c-0.536-0.537-0.536-1.404 0-1.94s1.404-0.537 1.94 0l1.372 1.372c0.536 0.536 0.536 1.404 0 1.94-0.268 0.268-0.619 0.402-0.97 0.402s-0.702-0.134-0.97-0.402zM71.267 43.59l0.733 0.726-13.162 24.202c-0.83 2.048-2.857 3.418-5.072 3.418h-35.529c-2.216 0-4.242-1.369-5.072-3.418l-13.164-24.204 0.738-0.726c1.1-1.084 2.378-1.881 3.739-2.415-0.018-0.272-0.032-0.536-0.032-0.794 0-6.689 4.81-12.307 11.234-13.48-0.171-0.749-0.258-1.517-0.258-2.298 0-5.553 4.421-10.091 9.927-10.284-0.111-0.642-0.167-1.288-0.167-1.937 0-6.792 4.824-12.316 10.753-12.316h1.563c5.927 0 10.751 5.525 10.751 12.316 0 0.65-0.056 1.296-0.169 1.939 5.483 0.22 9.875 4.747 9.875 10.282 0 0.885-0.112 1.755-0.335 2.6 5.846 1.655 9.939 6.965 9.939 13.179 0 0.255-0.014 0.519-0.032 0.789 1.361 0.534 2.64 1.335 3.74 2.423zM7.188 40.472c0.093-0.012 0.187-0.008 0.283-0.019 0.288-0.029 0.578-0.047 0.867-0.054 0.085-0.001 0.169-0.015 0.253-0.015 0.048 0 0.095 0.012 0.143 0.012 0.525 0.005 1.048 0.051 1.568 0.129 0.092 0.015 0.184 0.030 0.276 0.047 0.532 0.095 1.059 0.225 1.575 0.396 0.063 0.021 0.125 0.045 0.188 0.067 0.531 0.187 1.051 0.407 1.553 0.676 0.037 0.019 0.071 0.042 0.107 0.062 0.516 0.283 1.018 0.601 1.491 0.971 4.023-3.143 9.761-3.143 13.785-0.004 3.987-3.137 9.668-3.139 13.656-0.003 3.726-2.931 8.91-3.086 12.83-0.539 0.276 0.18 0.561 0.335 0.823 0.541 0.288-0.225 0.585-0.431 0.889-0.624 0.036-0.023 0.073-0.041 0.108-0.063 0.27-0.167 0.545-0.324 0.826-0.465 0.056-0.029 0.115-0.052 0.171-0.080 0.265-0.128 0.531-0.247 0.803-0.353 0.073-0.029 0.145-0.052 0.218-0.078 0.258-0.093 0.516-0.181 0.779-0.255 0.091-0.026 0.183-0.048 0.274-0.071 0.244-0.063 0.49-0.119 0.737-0.165 0.111-0.021 0.224-0.038 0.336-0.056 0.226-0.036 0.454-0.064 0.682-0.085 0.132-0.012 0.263-0.022 0.396-0.030 0.209-0.012 0.417-0.016 0.626-0.016 0.15-0.001 0.299-0.001 0.449 0.004 0.189 0.008 0.377 0.025 0.565 0.041 0.123 0.011 0.246 0.011 0.368 0.026v-0.089c0-5.409-3.875-9.96-9.215-10.821-0.42-0.069-0.786-0.328-0.988-0.701-0.203-0.375-0.221-0.821-0.049-1.21 0.43-0.969 0.648-1.994 0.648-3.047 0-4.16-3.385-7.546-7.546-7.546-0.178 0-0.526 0.025-1.162 0.141-0.486 0.088-0.978-0.092-1.294-0.467-0.317-0.374-0.409-0.89-0.242-1.353 0.357-0.978 0.537-1.987 0.537-2.997 0-5.278-3.592-9.571-8.007-9.571h-1.563c-4.415 0-8.009 4.293-8.009 9.571 0 1.008 0.18 2.014 0.535 2.994 0.167 0.458 0.078 0.971-0.236 1.346-0.311 0.376-0.803 0.553-1.283 0.475-0.709-0.122-1.074-0.14-1.229-0.14-4.161 0-7.546 3.386-7.546 7.546 0 1.015 0.199 2 0.59 2.931 0.173 0.413 0.136 0.882-0.101 1.261-0.236 0.38-0.642 0.617-1.088 0.643-5.819 0.316-10.377 5.123-10.377 10.945v0.092zM56.387 67.28l12.192-22.407c-1.205-0.933-2.612-1.486-4.060-1.67-0.107-0.012-0.213-0.012-0.32-0.022-0.339-0.030-0.68-0.043-1.021-0.032-0.145 0.004-0.291 0.014-0.435 0.026-0.328 0.027-0.653 0.075-0.977 0.141-0.118 0.023-0.237 0.038-0.354 0.067-0.416 0.103-0.822 0.239-1.22 0.405-0.121 0.051-0.235 0.114-0.353 0.17-0.298 0.141-0.589 0.299-0.871 0.477-0.119 0.075-0.239 0.151-0.354 0.232-0.371 0.262-0.731 0.545-1.065 0.874l-0.969 0.958-0.966-0.96c-2.826-2.813-7.203-3.165-10.417-1.055-0.458 0.302-0.895 0.655-1.298 1.056h-0.001l-0.967 0.962-0.969-0.963c-0.403-0.402-0.838-0.753-1.298-1.055-1.314-0.863-2.825-1.296-4.344-1.336-0.073-0.001-0.144-0.021-0.215-0.021-0.063 0-0.126 0.016-0.189 0.018-2.058 0.047-4.103 0.834-5.669 2.394l-0.963 0.958-0.967-0.952c-3.075-3.031-7.943-3.172-11.236-0.506-0.209 0.17-0.432 0.314-0.628 0.506l-0.963 0.947-0.96-0.945c-0.001-0.001-0.003-0.001-0.003-0.001-0.005-0.005-0.012-0.009-0.018-0.015-0.329-0.322-0.686-0.601-1.052-0.859-0.118-0.084-0.24-0.159-0.362-0.236-0.283-0.177-0.575-0.335-0.873-0.476-0.119-0.058-0.235-0.121-0.357-0.171-0.402-0.167-0.814-0.305-1.232-0.407-0.111-0.027-0.225-0.040-0.337-0.063-0.332-0.067-0.667-0.117-1.004-0.144-0.141-0.011-0.284-0.021-0.427-0.025-0.347-0.011-0.694 0-1.040 0.032-0.104 0.008-0.207 0.008-0.311 0.022-1.456 0.185-2.873 0.738-4.085 1.673l12.261 22.567c0.402 1.045 1.426 1.749 2.547 1.749h35.529c1.121 0 2.145-0.702 2.547-1.749zM18.115 49.623l4.116 15.093c0.199 0.731-0.232 1.485-0.963 1.685-0.121 0.033-0.243 0.048-0.362 0.048-0.604 0-1.155-0.401-1.323-1.011l-4.116-15.093c-0.199-0.731 0.232-1.485 0.963-1.685 0.727-0.207 1.485 0.232 1.685 0.963zM55.57 48.659c0.731 0.2 1.162 0.955 0.963 1.685l-4.116 15.091c-0.166 0.611-0.719 1.011-1.323 1.011-0.119 0-0.241-0.015-0.362-0.048-0.731-0.2-1.162-0.955-0.963-1.685l4.116-15.091c0.199-0.731 0.951-1.162 1.685-0.963zM42.985 48.616c0.755 0.069 1.31 0.737 1.243 1.492l-1.372 15.091c-0.064 0.711-0.663 1.247-1.365 1.247-0.041 0-0.082-0.001-0.125-0.005-0.756-0.069-1.312-0.735-1.243-1.491l1.372-15.091c0.069-0.753 0.733-1.306 1.49-1.242zM29.016 48.616c0.763-0.062 1.421 0.49 1.49 1.242l1.372 15.091c0.069 0.756-0.488 1.423-1.243 1.491-0.041 0.004-0.084 0.005-0.125 0.005-0.702 0-1.301-0.535-1.365-1.247l-1.372-15.091c-0.069-0.755 0.488-1.423 1.243-1.492z"></path>
</svg>
