<!-- Generated by IcoMoon.io -->
<svg version="1.1" xmlns="http://www.w3.org/2000/svg" width="72" height="72" viewBox="0 0 72 72">
<title>uniF14A</title>
<path d="M60.020 4.052c0.024 2.25 0.477 55.566-9.792 65.948-1.313 1.327-2.783 2-4.367 2h-19.724c-1.574 0-3.034-0.669-4.34-1.988-10.248-10.348-9.841-63.707-9.819-65.975 0-1.197-0.001-4.038 24.020-4.038s24.021 2.84 24.021 4.052zM14.798 4.533c-0.040 5.198 0.092 13.179 0.577 21.779 1.681 1.657 3.14 2.5 4.45 2.562 1.374 0.082 2.824-0.706 4.475-2.359l0.998-0.998 0.998 0.998c3.295 3.295 5.658 3.271 9.031-0.103l0.998-0.998 0.998 0.998c1.652 1.653 3.106 2.458 4.443 2.458 0.010 0 0.020-0.001 0.031-0.001 1.355-0.011 2.846-0.848 4.556-2.56l0.998-0.998 0.998 0.998c1.679 1.677 2.993 2.461 4.136 2.461h0.024c1.135-0.011 2.452-0.796 4.134-2.455 0.477-8.606 0.601-16.591 0.558-21.782-4.378-2.324-38.027-2.324-42.404 0zM48.22 68.015c4.766-4.818 7.112-21.822 8.185-37.808-1.348 0.932-2.598 1.376-3.87 1.388-0.018 0.001-0.035 0.001-0.054 0.001-1.672 0-3.291-0.736-5.136-2.353-1.893 1.63-3.709 2.435-5.523 2.452-1.759-0.004-3.627-0.754-5.497-2.355-1.895 1.635-3.713 2.441-5.53 2.458-0.020 0-0.039 0.001-0.059 0.001-1.8 0-3.59-0.775-5.442-2.36-1.892 1.608-3.743 2.346-5.606 2.259-1.357-0.066-2.689-0.558-4.076-1.508 1.081 16.008 3.435 33.034 8.191 37.837 0.767 0.774 1.53 1.151 2.334 1.151h19.724c0.813 0 1.585-0.381 2.359-1.162zM39.182 38.505c0-0.941 0.471-1.412 1.412-1.412s1.412 0.471 1.412 1.412-0.471 1.412-1.412 1.412c-0.941 0-1.412-0.471-1.412-1.412zM42.006 45.563c0-0.941 0.471-1.412 1.412-1.412s1.412 0.471 1.412 1.412c0 0.941-0.471 1.412-1.412 1.412s-1.412-0.471-1.412-1.412zM46.241 52.622c0-0.941 0.471-1.412 1.412-1.412s1.412 0.471 1.412 1.412c0 0.941-0.471 1.412-1.412 1.412s-1.412-0.471-1.412-1.412zM34.947 48.387c0-0.941 0.471-1.412 1.412-1.412s1.412 0.471 1.412 1.412-0.471 1.412-1.412 1.412c-0.941 0-1.412-0.471-1.412-1.412zM44.829 37.093c0-0.941 0.471-1.412 1.412-1.412s1.412 0.471 1.412 1.412-0.471 1.412-1.412 1.412-1.412-0.471-1.412-1.412zM26.214 49.93c-0.049 0-0.1-0.001-0.15-0.004-1.132-0.038-2.181-0.514-2.951-1.338l-2.891-3.093c-0.771-0.825-1.173-1.902-1.135-3.034 0.038-1.134 0.514-2.183 1.338-2.952l3.095-2.891c1.706-1.595 4.391-1.502 5.986 0.203l2.891 3.095c1.594 1.705 1.502 4.391-0.203 5.984l-3.095 2.891c-0.786 0.738-1.807 1.139-2.886 1.139zM22.285 43.567l2.891 3.096c0.256 0.272 0.604 0.431 0.984 0.443 0.381-0.010 0.738-0.12 1.011-0.377l3.096-2.894c0.568-0.532 0.599-1.427 0.068-1.995l-2.891-3.095c-0.278-0.297-0.654-0.446-1.032-0.446-0.346 0-0.692 0.126-0.964 0.38l-3.095 2.891c-0.272 0.255-0.431 0.604-0.443 0.984s0.12 0.74 0.375 1.012zM42.212 55.505l2.89 3.093c0.771 0.824 1.175 1.902 1.135 3.034s-0.514 2.18-1.338 2.951l-3.093 2.893c-0.816 0.761-1.854 1.139-2.89 1.139-1.132 0-2.263-0.45-3.096-1.343l-2.891-3.093c-0.771-0.825-1.173-1.902-1.135-3.034 0.038-1.134 0.514-2.183 1.338-2.952l3.095-2.891c1.705-1.594 4.391-1.502 5.986 0.203zM42.973 62.523c0.569-0.532 0.599-1.427 0.068-1.996l-2.891-3.095c-0.278-0.297-0.654-0.446-1.032-0.446-0.346 0-0.692 0.126-0.964 0.38l-3.095 2.891c-0.272 0.255-0.431 0.604-0.443 0.984s0.12 0.74 0.376 1.012l2.891 3.093c0.532 0.569 1.427 0.6 1.996 0.069zM23.653 56.989c0-0.941 0.471-1.412 1.412-1.412s1.412 0.471 1.412 1.412-0.471 1.412-1.412 1.412-1.412-0.471-1.412-1.412zM26.476 65.459c0-0.941 0.471-1.412 1.412-1.412s1.412 0.471 1.412 1.412-0.471 1.412-1.412 1.412-1.412-0.471-1.412-1.412z"></path>
</svg>
