<!-- Generated by IcoMoon.io -->
<svg version="1.1" xmlns="http://www.w3.org/2000/svg" width="72" height="72" viewBox="0 0 72 72">
<title>uniF1DA</title>
<path d="M70.758 6.79l-28.853 28.854c-1.466 1.468-1.875 3.723-1.016 5.61 1.029 2.265 2.444 4.306 4.205 6.068l6.476 6.475c0.541 0.543 0.778 1.314 0.637 2.064-0.142 0.757-0.648 1.395-1.355 1.705-0.744 0.329-1.582 0.451-2.416 0.397 0.126 1.406-0.308 2.826-1.319 3.837-0.978 0.98-2.382 1.404-3.774 1.299 0.108 1.395-0.321 2.796-1.299 3.774-1.011 1.012-2.421 1.445-3.837 1.319 0.057 0.834-0.069 1.675-0.396 2.419-0.312 0.705-0.949 1.211-1.705 1.352-0.142 0.026-0.286 0.040-0.428 0.040-0.608 0-1.196-0.24-1.635-0.677l-14.088-14.088 0.316-0.797c0.562-1.413 0.288-2.965-0.694-3.955-1.035-1.029-2.591-1.301-4-0.738l-0.797 0.316-14.087-14.087c-0.54-0.541-0.777-1.314-0.637-2.064 0.141-0.757 0.647-1.395 1.353-1.705 0.743-0.329 1.584-0.454 2.419-0.396-0.126-1.406 0.308-2.826 1.319-3.837 0.933-0.933 2.219-1.402 3.646-1.32 0.043 0.003 0.085 0.005 0.126 0.009-0.104-1.391 0.325-2.787 1.301-3.762 1.011-1.012 2.425-1.438 3.837-1.319-0.057-0.835 0.069-1.676 0.397-2.419 0.312-0.705 0.948-1.211 1.705-1.353 0.752-0.14 1.521 0.097 2.063 0.635l6.476 6.477c1.762 1.762 3.804 3.177 6.066 4.205 1.889 0.86 4.145 0.451 5.611-1.016l28.965-28.964c0.813-0.814 1.931-1.224 3.093-1.13 1.151 0.095 2.196 0.691 2.87 1.636 1.091 1.532 0.857 3.742-0.541 5.14zM67.181 2.987l-11.069 11.069 1.845 1.845 10.957-10.957c0.501-0.501 0.614-1.282 0.261-1.781-0.311-0.435-0.735-0.531-0.962-0.551-0.38-0.026-0.761 0.104-1.032 0.374zM5.375 37.121c-0.586-0.586-1.652-0.851-2.506-0.66l2.374 2.374 13.836-13.836-2.374-2.374c-0.187 0.857 0.076 1.922 0.66 2.506l-1.845 1.845c-0.967-0.965-2.616-1.075-3.46-0.231s-0.735 2.493 0.231 3.458l-1.845 1.845c-0.963-0.964-2.612-1.075-3.459-0.231-0.844 0.844-0.733 2.494 0.231 3.46zM46.885 54.646c0.587 0.586 1.652 0.849 2.506 0.66l-2.374-2.374-13.838 13.838 2.374 2.374c0.187-0.857-0.076-1.922-0.66-2.506l1.845-1.845c0.967 0.964 2.616 1.074 3.46 0.231 0.539-0.539 0.583-1.265 0.56-1.65-0.039-0.689-0.327-1.348-0.789-1.809l1.845-1.845c0.963 0.965 2.613 1.075 3.458 0.231 0.844-0.844 0.733-2.494-0.231-3.46zM38.514 42.331c-1.307-2.871-0.685-6.3 1.547-8.533l16.050-16.050-1.845-1.845-16.052 16.049c-2.233 2.234-5.666 2.853-8.534 1.547-2.548-1.157-4.847-2.75-6.832-4.734l-1.923-1.924-13.839 13.838 8.368 8.368c2.142-0.54 4.391 0.026 5.916 1.542 1.566 1.573 2.136 3.826 1.597 5.971l8.368 8.368 13.838-13.839-1.924-1.923c-1.984-1.983-3.576-4.282-4.734-6.833z"></path>
</svg>
