<!-- Generated by IcoMoon.io -->
<svg version="1.1" xmlns="http://www.w3.org/2000/svg" width="72" height="72" viewBox="0 0 72 72">
<title>uniF175</title>
<path d="M34.162 42.712c0-0.814 0.407-1.22 1.22-1.22s1.22 0.407 1.22 1.22c0 0.814-0.407 1.22-1.22 1.22s-1.22-0.407-1.22-1.22zM34.162 47.593c0-0.814 0.407-1.22 1.22-1.22s1.22 0.407 1.22 1.22c0 0.814-0.407 1.22-1.22 1.22s-1.22-0.407-1.22-1.22zM38.959 2.053c0.813 0.817 1.414 1.959 1.805 3.425s0.613 2.808 0.666 4.026 0.073 3.075 0.060 5.574l-0.007 2.692c0.001 5.318-0.166 9.302-0.503 11.955s-1.209 4.889-2.616 6.712c1.266 0.986 1.899 2.264 1.899 3.836v26.847c0 1.346-0.477 2.496-1.431 3.45s-2.104 1.431-3.45 1.431c-1.346 0-2.496-0.477-3.45-1.431s-1.431-2.104-1.431-3.45v-26.847c0-1.249 0.432-2.344 1.296-3.286-0.050-0.154-0.076-0.279-0.076-0.375v-35.39c0-0.814 0.407-1.22 1.22-1.22 2.651 0 4.656 0.684 6.017 2.053zM37.823 67.119v-26.847c0-0.673-0.239-1.248-0.716-1.725s-1.052-0.716-1.725-0.716c-0.673 0-1.248 0.239-1.725 0.716s-0.716 1.052-0.716 1.725v26.847c0 0.673 0.239 1.248 0.716 1.725s1.052 0.716 1.725 0.716c0.673 0 1.248-0.239 1.725-0.716s0.716-1.052 0.716-1.725zM39.051 15.065c0.012-2.253-0.001-3.924-0.038-5.015s-0.197-2.261-0.479-3.513-0.717-2.173-1.304-2.764c-0.685-0.688-1.707-1.108-3.067-1.261v33.050c0.443-0.116 0.85-0.173 1.22-0.173 0.092 0 0.299 0.021 0.621 0.063 0.96-1.062 1.671-2.535 2.132-4.422s0.728-3.671 0.8-5.353c0.073-1.683 0.109-4.319 0.108-7.909z"></path>
</svg>
