<!-- Generated by IcoMoon.io -->
<svg version="1.1" xmlns="http://www.w3.org/2000/svg" width="72" height="72" viewBox="0 0 72 72">
<title>uniF1AF</title>
<path d="M36 0c19.85 0 36 16.15 36 36s-16.15 36-36 36-36-16.15-36-36 16.15-36 36-36zM36 69.382c18.407 0 33.382-14.975 33.382-33.382s-14.975-33.382-33.382-33.382-33.382 14.975-33.382 33.382 14.975 33.382 33.382 33.382zM40.982 35.643c0.56-0.458 1.384-0.377 1.843 0.181 0.457 0.56 0.377 1.384-0.182 1.843l-9.004 7.388c-0.245 0.2-0.538 0.297-0.83 0.297-0.378 0-0.754-0.164-1.013-0.478-0.457-0.56-0.377-1.384 0.182-1.843zM42.562 42.814l-9.004 7.387c-0.245 0.2-0.538 0.297-0.83 0.297-0.378 0-0.754-0.164-1.013-0.478-0.457-0.56-0.377-1.384 0.182-1.843l9.004-7.388c0.562-0.457 1.384-0.374 1.843 0.182 0.457 0.56 0.377 1.384-0.182 1.843zM47.25 40.659c0.56-0.458 1.382-0.376 1.843 0.181 0.457 0.56 0.377 1.384-0.182 1.843l-7.718 6.333c-0.245 0.2-0.538 0.297-0.83 0.297-0.378 0-0.754-0.164-1.013-0.478-0.457-0.56-0.377-1.384 0.182-1.843zM45.882 46.861c0.562-0.459 1.384-0.376 1.843 0.181 0.457 0.56 0.377 1.384-0.182 1.843l-9.004 7.389c-0.245 0.2-0.538 0.297-0.83 0.297-0.378 0-0.754-0.164-1.013-0.478-0.457-0.56-0.377-1.384 0.182-1.843zM9.596 31.314c0.094-0.517 0.216-1.024 0.336-1.528-0.895-2.104-1.016-4.4-0.331-6.485 0.715-2.174 2.211-3.858 4.21-4.74 0.765-0.338 1.567-0.538 2.384-0.609 0.331-0.364 0.66-0.729 1.009-1.072 0.515-0.507 1.344-0.501 1.851 0.016 0.384 0.39 0.47 0.958 0.267 1.433 0.278 0.092 0.554 0.196 0.826 0.319 1.031 0.465 1.958 1.126 2.748 1.94 0.001 0 0.001 0.001 0.003 0.001 0.089 0.090 0.154 0.199 0.238 0.293 0.285 0.319 0.569 0.641 0.812 1.003 0.315 0.47 0.592 0.969 0.825 1.496 0.136 0.31 0.251 0.624 0.353 0.941 0.008 0.025 0.020 0.048 0.027 0.073 0.004 0.010 0.001 0.021 0.004 0.033 0.444 1.426 0.542 2.91 0.291 4.337-0.003 0.018 0.005 0.035 0.001 0.054-0.008 0.048-0.026 0.094-0.035 0.143-0.056 0.284-0.126 0.566-0.211 0.843-0.018 0.058-0.030 0.119-0.050 0.178 0 0.003-0.001 0.005-0.001 0.006-0.105 0.322-0.233 0.628-0.372 0.928-0.039 0.085-0.084 0.166-0.126 0.25-0.126 0.246-0.262 0.485-0.408 0.714-0.039 0.059-0.075 0.119-0.114 0.177-0.133 0.195-0.276 0.382-0.425 0.563 0.384 0.11 0.765 0.238 1.14 0.407 2.039 0.916 3.681 2.599 4.624 4.735 1.966 4.456 0.247 9.547-3.83 11.347-0.974 0.429-1.998 0.632-3.016 0.632-3.244 0.001-6.45-2.063-7.946-5.456-1.436-3.256-0.899-6.844 1.080-9.246-0.179-0.051-0.356-0.11-0.533-0.174-0.081-0.029-0.166-0.039-0.248-0.072-0.039-0.016-0.066-0.047-0.103-0.067-1.166-0.479-2.242-1.221-3.147-2.195-0.233 0.198-0.525 0.327-0.843 0.327-0.079 0-0.158-0.007-0.238-0.022-0.711-0.131-1.182-0.813-1.051-1.524zM27.076 38.818c-0.681-1.542-1.854-2.752-3.302-3.402-0.733-0.33-1.491-0.495-2.233-0.495-0.681 0-1.348 0.137-1.975 0.414-2.756 1.215-3.872 4.759-2.49 7.895s4.755 4.7 7.51 3.483 3.874-4.759 2.49-7.895zM12.089 24.115c-0.491 1.496-0.392 3.161 0.272 4.69l0.058 0.119c0.147 0.319 0.315 0.62 0.5 0.906 0.077 0.12 0.165 0.232 0.25 0.346 0.877 1.186 2.068 2.013 3.354 2.364 0.056 0.016 0.111 0.041 0.168 0.054 0.308 0.073 0.621 0.111 0.933 0.13 0.093 0.005 0.186 0.005 0.278 0.005 0.263 0.001 0.526-0.018 0.787-0.059 0.063-0.010 0.127-0.013 0.19-0.026 0.342-0.068 0.68-0.168 1.008-0.313 0.647-0.285 1.212-0.706 1.68-1.23 0.030-0.034 0.055-0.075 0.085-0.11 0.177-0.211 0.336-0.438 0.481-0.679 0.047-0.077 0.092-0.156 0.135-0.237 0.144-0.27 0.272-0.552 0.374-0.854 0.006-0.022 0.018-0.042 0.025-0.064 0.491-1.505 0.389-3.181-0.291-4.721-0.169-0.382-0.368-0.744-0.594-1.083-0.226-0.336-0.482-0.652-0.763-0.942-0.003-0.003-0.004-0.008-0.006-0.010-0.559-0.575-1.214-1.039-1.937-1.365-0.3-0.135-0.604-0.222-0.909-0.302-0.143-0.037-0.285-0.068-0.427-0.093-0.192-0.034-0.385-0.052-0.577-0.064-0.124-0.008-0.241-0.025-0.372-0.026h-0.039c-0.648 0.012-1.284 0.141-1.882 0.404-1.312 0.577-2.299 1.702-2.778 3.161zM38.171 60.123c0.712-0.075 1.355 0.469 1.419 1.189s-0.467 1.355-1.189 1.419c-0.795 0.071-1.604 0.106-2.401 0.106-0.57 0-1.135-0.018-1.697-0.051-0.721-0.046-1.27-0.666-1.225-1.389 0.046-0.72 0.649-1.265 1.389-1.225 1.218 0.076 2.469 0.060 3.703-0.048zM57.168 24.225c-0.602-1.079-1.29-2.117-2.045-3.087-0.444-0.569-0.342-1.392 0.229-1.837 0.57-0.444 1.392-0.342 1.837 0.229 0.836 1.073 1.598 2.225 2.265 3.419 0.352 0.631 0.126 1.428-0.505 1.78-0.202 0.113-0.42 0.166-0.636 0.166-0.459 0-0.905-0.242-1.144-0.672zM58.718 27.587c-0.253-0.677 0.094-1.432 0.772-1.683 0.675-0.254 1.431 0.094 1.682 0.772 0.474 1.28 0.852 2.61 1.126 3.95 0.144 0.708-0.314 1.401-1.022 1.543-0.088 0.018-0.177 0.028-0.262 0.028-0.61 0-1.156-0.428-1.282-1.049-0.246-1.208-0.588-2.406-1.015-3.561zM45.337 58.354c0.666-0.284 1.435 0.035 1.712 0.702 0.28 0.668-0.034 1.435-0.7 1.714-1.257 0.527-2.568 0.961-3.9 1.288-0.105 0.026-0.211 0.038-0.314 0.038-0.588 0-1.123-0.399-1.27-0.996-0.174-0.702 0.255-1.411 0.957-1.584 1.199-0.296 2.383-0.687 3.515-1.161zM61.027 41.23c0.699 0.183 1.118 0.899 0.932 1.597-0.346 1.323-0.799 2.627-1.343 3.877-0.215 0.492-0.696 0.787-1.202 0.787-0.173 0-0.351-0.034-0.521-0.109-0.664-0.288-0.967-1.060-0.678-1.723 0.491-1.127 0.901-2.304 1.213-3.497 0.183-0.699 0.898-1.119 1.598-0.933zM35.802 11.783c-0.712 0-1.296-0.57-1.309-1.283-0.014-0.723 0.559-1.321 1.283-1.335l0.251-0.001c1.286 0 2.583 0.093 3.855 0.279 0.716 0.103 1.212 0.767 1.108 1.483-0.094 0.652-0.653 1.121-1.293 1.121-0.063 0-0.126-0.004-0.19-0.014-1.148-0.166-2.318-0.25-3.481-0.25h-0.025l-0.199 0.001zM52.631 18.397c-0.894-0.847-1.862-1.63-2.873-2.331-0.594-0.411-0.743-1.227-0.333-1.821 0.41-0.597 1.225-0.743 1.821-0.333 1.123 0.775 2.194 1.643 3.186 2.582 0.525 0.497 0.549 1.326 0.051 1.851-0.258 0.274-0.605 0.41-0.952 0.41-0.325 0-0.648-0.118-0.901-0.357zM43.117 12.846c-0.692-0.213-1.081-0.944-0.868-1.634 0.212-0.69 0.945-1.079 1.635-0.868 1.304 0.399 2.591 0.905 3.82 1.503 0.651 0.316 0.922 1.1 0.606 1.749-0.225 0.466-0.693 0.737-1.178 0.737-0.192 0-0.386-0.043-0.571-0.132-1.11-0.538-2.27-0.995-3.444-1.355zM62.806 34.696c0.020 0.432 0.030 0.867 0.030 1.304 0 0.936-0.048 1.876-0.144 2.795-0.071 0.672-0.639 1.173-1.301 1.173-0.045 0-0.090-0.003-0.136-0.007-0.719-0.076-1.242-0.719-1.168-1.439 0.088-0.829 0.131-1.677 0.131-2.523 0-0.397-0.010-0.791-0.027-1.181-0.034-0.723 0.524-1.337 1.246-1.369 0.022-0.001 0.042-0.001 0.063-0.001 0.694 0 1.274 0.547 1.306 1.248zM58.286 48.521c0.611 0.388 0.795 1.197 0.407 1.807-0.729 1.152-1.551 2.258-2.449 3.287-0.258 0.299-0.623 0.45-0.987 0.45-0.305 0-0.611-0.106-0.859-0.322-0.546-0.474-0.604-1.301-0.128-1.846 0.81-0.931 1.554-1.93 2.21-2.968 0.387-0.61 1.195-0.792 1.806-0.409zM15.87 49.471c0.685 1.022 1.454 2 2.29 2.909 0.49 0.531 0.453 1.36-0.079 1.85-0.251 0.232-0.57 0.346-0.886 0.346-0.352 0-0.706-0.141-0.963-0.423-0.924-1.005-1.778-2.091-2.537-3.223-0.403-0.601-0.242-1.414 0.359-1.817 0.598-0.403 1.413-0.243 1.817 0.359zM23.922 56.997c0.627 0.361 0.842 1.162 0.479 1.788-0.242 0.419-0.682 0.655-1.135 0.655-0.222 0-0.448-0.056-0.653-0.175-1.178-0.681-2.319-1.46-3.384-2.313-0.564-0.45-0.656-1.275-0.203-1.839 0.45-0.563 1.273-0.658 1.839-0.203 0.962 0.771 1.992 1.473 3.057 2.088zM30.8 59.659c0.706 0.154 1.153 0.854 0.999 1.558-0.133 0.613-0.675 1.029-1.278 1.029-0.093 0-0.187-0.009-0.281-0.030-1.338-0.292-2.659-0.69-3.93-1.182-0.673-0.261-1.008-1.021-0.747-1.694s1.017-1.009 1.694-0.747c1.145 0.442 2.338 0.802 3.544 1.067zM14.050 46.246c0.306 0.655 0.024 1.435-0.632 1.741-0.179 0.084-0.368 0.123-0.554 0.123-0.494 0-0.965-0.279-1.187-0.754-0.577-1.238-1.064-2.53-1.446-3.843-0.202-0.694 0.198-1.42 0.891-1.622 0.693-0.204 1.42 0.196 1.622 0.892 0.346 1.183 0.784 2.348 1.306 3.464zM51.633 54.496c0.555-0.466 1.378-0.397 1.846 0.154 0.467 0.552 0.398 1.378-0.153 1.846-1.039 0.88-2.157 1.689-3.325 2.403-0.213 0.13-0.449 0.192-0.682 0.192-0.44 0-0.872-0.222-1.118-0.626-0.378-0.617-0.185-1.422 0.432-1.8 1.054-0.645 2.063-1.376 3-2.17zM21.179 16.547c-0.408 0-0.809-0.191-1.066-0.547-0.423-0.588-0.287-1.406 0.301-1.826 1.113-0.797 2.291-1.513 3.504-2.13 0.647-0.327 1.434-0.069 1.761 0.573 0.327 0.645 0.071 1.433-0.573 1.761-1.096 0.556-2.16 1.203-3.167 1.923-0.23 0.166-0.497 0.246-0.761 0.246zM10.856 40.625c-0.058 0.008-0.114 0.012-0.17 0.012-0.648 0-1.211-0.48-1.296-1.14-0.151-1.149-0.226-2.325-0.226-3.497l0.006-0.596c0.016-0.72 0.658-1.275 1.337-1.282 0.721 0.016 1.296 0.613 1.282 1.337l-0.006 0.541c0 1.058 0.069 2.121 0.203 3.159 0.094 0.717-0.411 1.373-1.128 1.466zM28.118 13.029c-0.55 0-1.063-0.35-1.244-0.902-0.225-0.689 0.152-1.427 0.838-1.651 1.297-0.424 2.64-0.749 3.99-0.969 0.721-0.117 1.385 0.369 1.502 1.083 0.115 0.712-0.369 1.385-1.083 1.502-1.217 0.196-2.427 0.491-3.596 0.872-0.136 0.045-0.272 0.066-0.407 0.066zM29.52 14.612c3.686-1.626 7.989-0.064 10.267 3.552 1.704-0.454 3.525-0.304 5.235 0.465 2.040 0.916 3.681 2.599 4.624 4.735 1.966 4.456 0.249 9.547-3.83 11.347-0.974 0.429-1.998 0.632-3.016 0.632-2.811 0.001-5.588-1.553-7.255-4.173-0.628 0.173-1.271 0.266-1.915 0.266-3.209 0-6.437-2.067-7.94-5.476-1.965-4.458-0.247-9.549 3.83-11.347zM28.085 24.903c1.193 2.705 3.853 4.231 6.345 3.83-0.012-0.038-0.014-0.075-0.025-0.113-0.505-1.774-0.493-3.629 0.069-5.341 0.406-1.233 1.070-2.301 1.927-3.163 0.007-0.007 0.013-0.013 0.020-0.020 0.301-0.298 0.622-0.575 0.969-0.819 0.001-0.001 0.003-0.003 0.003-0.003-1.19-1.698-3.004-2.686-4.827-2.686-0.673 0-1.347 0.135-1.991 0.419-2.756 1.215-3.874 4.759-2.49 7.895zM43.948 21.016c-0.732-0.33-1.489-0.495-2.229-0.492-0.67 0-1.33 0.136-1.949 0.406l-0.050 0.022c-0.339 0.152-0.651 0.339-0.937 0.556-0.045 0.033-0.079 0.077-0.122 0.111-0.238 0.193-0.466 0.398-0.664 0.631-0.041 0.046-0.069 0.102-0.107 0.151-0.186 0.236-0.361 0.479-0.507 0.745-0.038 0.068-0.062 0.148-0.097 0.219-0.127 0.259-0.249 0.521-0.338 0.801-0.031 0.098-0.042 0.202-0.068 0.301-0.356 1.363-0.275 2.905 0.369 4.364 1.384 3.137 4.755 4.7 7.51 3.483 2.757-1.216 3.875-4.759 2.49-7.895-0.679-1.543-1.854-2.753-3.302-3.404z"></path>
</svg>
