<!-- Generated by IcoMoon.io -->
<svg version="1.1" xmlns="http://www.w3.org/2000/svg" width="72" height="72" viewBox="0 0 72 72">
<title>uniF17E</title>
<path d="M14.466 37.103c2.179 0 3.952 1.772 3.952 3.952 0 2.179-1.773 3.952-3.952 3.952s-3.952-1.773-3.952-3.952 1.773-3.952 3.952-3.952zM14.466 42.373c0.727 0 1.317-0.59 1.317-1.317s-0.59-1.317-1.317-1.317-1.317 0.59-1.317 1.317 0.59 1.317 1.317 1.317zM70.917 8.247c1.562 2.354 1.424 5.536-0.34 7.739-1.337 1.669-3.304 2.548-5.443 2.465-1.595-0.065-2.952 0.4-3.888 1.337l-11.192 11.191c-0.34 0.34-0.725 0.614-1.125 0.856h4.025l-1.374 2.051c-0.344 0.512-0.673 0.921-1.038 1.286-5.611 5.609-9.257 12.378-10.547 19.571-0.729 4.068-2.662 7.766-5.594 10.697-3.826 3.826-8.878 5.916-14.27 5.916-0.162 0-0.323-0.003-0.485-0.007-5.57-0.129-10.71-2.474-14.474-6.604-7.12-7.811-6.854-20.283 0.59-27.801 3.239-3.27 7.537-5.35 12.104-5.857 7.68-0.851 14.428-3.99 19.514-9.078 1.566-1.566 3.669-2.446 5.92-2.479l1.454-0.023 8.106-8.106c0.937-0.937 1.412-2.317 1.337-3.886-0.101-2.124 0.796-4.108 2.463-5.445 2.203-1.763 5.383-1.904 7.737-0.342 1.238 0.823 2.135 1.997 2.595 3.396 0.084 0.261 0.267 0.444 0.526 0.528 1.4 0.46 2.575 1.358 3.398 2.594zM37.4 54.275c1.298-7.232 4.798-14.048 10.157-19.808h-4.109v-4.758l-4.626 1.541 2.628-8.758c-0.827 0.287-1.581 0.754-2.208 1.379-5.514 5.516-12.806 8.916-21.087 9.834-4.026 0.447-7.664 2.208-10.52 5.092-6.475 6.538-6.705 17.381-0.515 24.172 3.275 3.592 7.745 5.633 12.587 5.745 4.885 0.103 9.403-1.713 12.831-5.139 2.548-2.549 4.23-5.763 4.862-9.301zM68.52 14.337c1.038-1.296 1.125-3.245 0.204-4.632-0.491-0.74-1.191-1.276-2.023-1.549-0.115-0.038-0.213-0.1-0.323-0.149-0.155 0.070-0.327 0.109-0.507 0.113-1.146 0.022-2.243 0.527-3.011 1.383-0.259 0.29-0.62 0.437-0.98 0.437-0.314 0-0.628-0.111-0.88-0.337-0.541-0.485-0.586-1.319-0.1-1.86 0.926-1.033 2.149-1.746 3.479-2.066-0.295-0.71-0.778-1.317-1.437-1.755-1.387-0.923-3.335-0.836-4.632 0.203-1.001 0.804-1.54 1.992-1.478 3.263 0.111 2.322-0.639 4.409-2.106 5.875l-11.078 11.078-0.842 2.805 3.278-1.093v3.992c0.794-0.042 1.541-0.364 2.108-0.931l11.191-11.191c1.466-1.469 3.542-2.214 5.877-2.106 1.265 0.071 2.459-0.477 3.262-1.479zM34.976 49.259c0.715 0.128 1.194 0.811 1.066 1.529-0.287 1.611-0.792 3.183-1.499 4.673-0.225 0.474-0.698 0.752-1.191 0.752-0.19 0-0.381-0.042-0.564-0.128-0.657-0.312-0.938-1.097-0.626-1.755 0.607-1.279 1.039-2.625 1.286-4.006 0.126-0.715 0.797-1.203 1.528-1.066zM29.92 57.85c0.461-0.561 1.294-0.643 1.854-0.179 0.563 0.462 0.643 1.292 0.179 1.854-3.204 3.888-7.901 6.595-12.884 7.426-0.074 0.013-0.145 0.019-0.217 0.019-0.632 0-1.191-0.457-1.298-1.101-0.12-0.717 0.365-1.395 1.083-1.515 4.363-0.729 8.476-3.098 11.283-6.502z"></path>
</svg>
