<!-- Generated by IcoMoon.io -->
<svg version="1.1" xmlns="http://www.w3.org/2000/svg" width="72" height="72" viewBox="0 0 72 72">
<title>uniF165</title>
<path d="M51.087 47.462c0.132 1.002-0.176 2.011-0.842 2.771s-1.627 1.196-2.637 1.196h-6.155v16.714c0 2.127-1.73 3.857-3.857 3.857h-3.857c-2.127 0-3.857-1.731-3.857-3.857v-16.714h-5.491c-1.009 0-1.968-0.436-2.635-1.196s-0.973-1.769-0.841-2.771l5.090-38.696c0.658-4.996 4.955-8.766 9.995-8.766 5.041 0 9.337 3.77 9.995 8.766l0.172 1.317-1.31 0.219c-0.188 0.019-0.33 0.030-0.472 0.063-1.702 0.422-2.748 2.156-2.325 3.865 0.225 0.903 0.849 1.661 1.711 2.083l2.705 1.318-2.822 1.044c-2.064 0.761-3.223 2.934-2.697 5.053 0.276 1.117 0.972 2.058 1.958 2.652 0.985 0.597 2.145 0.769 3.262 0.492 0.154-0.037 0.297-0.1 0.44-0.158l1.54-0.622 0.327 1.602zM38.883 53.14c-0.901 0.418-1.526 1.25-1.526 2.214s0.625 1.795 1.526 2.213v-4.427zM38.883 60.267c-2.346-0.548-4.097-2.534-4.096-4.913 0-1.591 0.795-2.994 2.012-3.925h-4.344v7.060c1.179 0.14 2.777 0.564 3.595 1.833 0.462 0.716 0.822 1.954-0.089 3.781-0.107 0.213-0.095 0.301-0.095 0.301 0.099 0.329 1.12 0.732 3.018 1.196v-5.333zM37.597 69.429c0.674 0 1.212-0.526 1.265-1.185-0.131-0.032-0.256-0.063-0.397-0.096-1.851-0.445-4.155-0.996-4.928-2.65-0.252-0.54-0.436-1.419 0.122-2.539 0.135-0.271 0.427-0.935 0.229-1.243-0.195-0.303-0.793-0.505-1.434-0.617v7.046c0 0.71 0.577 1.286 1.286 1.286h3.857zM48.313 48.538c0.104-0.12 0.272-0.374 0.224-0.739l-2.408-18.298c-1.574 0.23-3.162-0.087-4.54-0.918-1.574-0.948-2.685-2.453-3.127-4.238-0.663-2.677 0.348-5.405 2.424-7.036-0.633-0.693-1.089-1.534-1.319-2.461-0.717-2.894 0.9-5.828 3.649-6.813-0.933-3.212-3.852-5.464-7.215-5.464-3.756 0-6.957 2.808-7.447 6.531l-5.090 38.696c-0.049 0.365 0.12 0.62 0.224 0.739s0.334 0.319 0.703 0.319h23.219c0.369 0 0.599-0.199 0.705-0.319z"></path>
</svg>
