<!-- Generated by IcoMoon.io -->
<svg version="1.1" xmlns="http://www.w3.org/2000/svg" width="72" height="72" viewBox="0 0 72 72">
<title>uniF15E</title>
<path d="M40.135 41.16l2.728-2.727c0.503-0.503 1.315-0.503 1.818 0s0.503 1.315 0 1.818l-4.546 4.545-4.545-4.545c-0.503-0.503-0.503-1.315 0-1.818s1.315-0.503 1.818 0zM38.195 11.921l-4.545 4.546-4.546-4.546c-0.503-0.503-0.503-1.315 0-1.818s1.315-0.503 1.818 0l2.728 2.728 2.727-2.728c0.503-0.503 1.315-0.503 1.818 0s0.503 1.315 0 1.818zM36.688 30.099c0.501 0.503 0.501 1.317 0 1.818l-4.5 4.5c-0.251 0.251-0.58 0.377-0.909 0.377s-0.658-0.126-0.909-0.377c-0.503-0.503-0.503-1.315 0-1.818l4.5-4.5c0.503-0.503 1.315-0.503 1.818 0zM34.525 22.224c0.161-0.692 0.854-1.124 1.543-0.964l6.201 1.431c0.693 0.159 1.124 0.85 0.964 1.542-0.138 0.594-0.667 0.996-1.252 0.996-0.096 0-0.193-0.009-0.29-0.032l-6.201-1.431c-0.693-0.159-1.124-0.85-0.964-1.542zM51.087 47.462c0.132 1.002-0.174 2.011-0.84 2.771s-1.626 1.196-2.637 1.196h-6.156v16.714c0 2.127-1.731 3.857-3.857 3.857h-3.857c-2.127 0-3.857-1.731-3.857-3.857v-16.714h-5.491c-1.011 0-1.971-0.436-2.637-1.196s-0.972-1.769-0.841-2.771l5.091-38.697c0.657-4.996 4.955-8.765 9.995-8.765s9.338 3.768 9.995 8.765zM38.883 53.14c-0.901 0.418-1.525 1.25-1.525 2.214s0.623 1.795 1.525 2.213v-4.427zM38.883 60.267c-2.345-0.548-4.096-2.534-4.096-4.913 0-1.591 0.795-2.994 2.012-3.925h-4.344v7.060c1.179 0.14 2.777 0.564 3.595 1.833 0.462 0.716 0.822 1.954-0.087 3.781-0.107 0.215-0.095 0.301-0.095 0.302 0.099 0.328 1.119 0.73 3.016 1.194v-5.333zM37.597 69.429c0.674 0 1.212-0.526 1.266-1.185-0.131-0.032-0.256-0.063-0.397-0.096-1.851-0.445-4.155-0.996-4.928-2.65-0.252-0.54-0.436-1.419 0.122-2.539 0.134-0.271 0.427-0.936 0.228-1.245-0.192-0.297-0.791-0.503-1.434-0.617v7.047c0 0.71 0.577 1.286 1.286 1.286h3.857zM48.313 48.538c0.104-0.12 0.272-0.374 0.224-0.739l-5.090-38.697c-0.491-3.722-3.693-6.53-7.447-6.53s-6.956 2.808-7.447 6.53l-5.091 38.697c-0.048 0.365 0.121 0.62 0.225 0.739 0.105 0.12 0.336 0.319 0.705 0.319h23.219c0.369 0 0.599-0.199 0.703-0.319z"></path>
</svg>
