<!-- Generated by IcoMoon.io -->
<svg version="1.1" xmlns="http://www.w3.org/2000/svg" width="72" height="72" viewBox="0 0 72 72">
<title>uniF1D9</title>
<path d="M37.302 33.148c2.238 0.582 3.904 2.601 3.904 5.020v28.627c0 2.871-2.334 5.205-5.205 5.205s-5.205-2.334-5.205-5.205v-28.627c0-2.419 1.666-4.438 3.904-5.020v-9.619c-3.377-1.634-5.205-9.356-5.205-13.553 0-5.594 2.857-9.976 6.506-9.976s6.506 4.382 6.506 9.976c0 4.198-1.828 11.919-5.205 13.553v9.619zM32.097 9.976c0 5.302 2.547 11.276 3.904 11.276s3.904-5.974 3.904-11.276c0-4.346-2.057-7.374-3.904-7.374s-3.904 3.028-3.904 7.374zM38.603 66.795v-28.627c0-1.435-1.167-2.602-2.602-2.602s-2.603 1.167-2.603 2.602v28.627c0 1.435 1.167 2.603 2.603 2.603s2.602-1.167 2.602-2.603zM34.698 40.771c0-0.868 0.434-1.301 1.301-1.301s1.301 0.434 1.301 1.301c0 0.867-0.434 1.301-1.301 1.301s-1.301-0.434-1.301-1.301zM34.698 45.976c0-0.867 0.434-1.301 1.301-1.301s1.301 0.434 1.301 1.301-0.434 1.301-1.301 1.301c-0.867 0-1.301-0.434-1.301-1.301z"></path>
</svg>
