<!-- Generated by IcoMoon.io -->
<svg version="1.1" xmlns="http://www.w3.org/2000/svg" width="72" height="72" viewBox="0 0 72 72">
<title>uniF14D</title>
<path d="M68.238 0.233c0.63 0.424 0.8 1.279 0.378 1.911l-4.772 7.125c1.553 1.034 2.453 2.22 2.453 3.544 0 0.212-0.026 0.416-0.070 0.615-0.435 2.511-3.352 7.527-8.71 14.987-0.121 0.369-0.362 0.703-0.731 1.008-3.232 4.45-7.264 9.701-12.127 15.781-0.809 1.013-1.913 1.707-3.14 2.021v15.158c4.405 0.098 15.141 0.75 15.141 4.801 0 4.585-13.759 4.818-16.518 4.818s-16.518-0.233-16.518-4.818c0-4.051 10.736-4.703 15.141-4.801v-15.105c-1.247-0.279-2.38-0.958-3.222-1.961-3.189-3.793-8.388-10.081-13.002-16.117-0.249-0.224-0.436-0.467-0.555-0.728-1.217-1.605-2.381-3.18-3.451-4.68-1.217 0.421-2.48 0.64-3.771 0.64-6.403 0-11.613-5.21-11.613-11.615s5.21-11.615 11.613-11.615c3.875 0 7.302 1.915 9.414 4.84 4.574-0.962 9.814-1.487 15.276-1.487 8.308 0 16.793 1.225 21.939 3.422l4.933-7.366c0.423-0.632 1.28-0.8 1.911-0.377zM25.558 8.546c0.014 0.036 0.023 0.073 0.037 0.107 0.113 0.292 0.218 0.588 0.307 0.892 0.021 0.070 0.036 0.143 0.055 0.213 0.076 0.278 0.149 0.557 0.204 0.842 0.027 0.136 0.041 0.274 0.063 0.41 0.036 0.226 0.076 0.449 0.096 0.677 0.036 0.374 0.056 0.749 0.056 1.126 0 0.518-0.044 1.028-0.113 1.536-0.021 0.157-0.052 0.311-0.080 0.467-0.063 0.359-0.143 0.716-0.241 1.068-0.026 0.094-0.036 0.19-0.065 0.284 3.948 0.508 8.599 0.772 13.576 0.772 7.419 0 12.919-0.545 16.78-1.262l3.593-5.364c-3.992-1.525-11.039-3.009-20.373-3.009-4.864 0-9.727 0.436-13.897 1.24zM55.989 25.805c2.64-3.716 4.498-6.581 5.714-8.699-1.14 0.416-2.432 0.765-3.817 1.059l-4.508 6.73c1.129 0.271 1.979 0.581 2.611 0.911zM51.719 27.37l-0.763 1.14c1.233-0.216 2.242-0.449 2.937-0.672-0.555-0.16-1.287-0.318-2.175-0.468zM47.317 28.992l1.355-2.023c-2.328-0.235-5.21-0.392-8.529-0.392-6.801 0-11.993 0.636-14.395 1.264 2.515 0.725 8.032 1.489 14.395 1.489 2.714 0 5.113-0.135 7.174-0.337zM50.42 24.361l3.718-5.555c-5.635 0.776-11.729 0.885-14.684 0.885-5.421 0-10.467-0.314-14.695-0.902l-0.005 0.012-2.848-0.439 0.014-0.027c-0.622-0.117-1.206-0.242-1.765-0.372-1.008-0.234-1.917-0.487-2.72-0.762 0.204 0.332 0.418 0.674 0.644 1.025 0.056 0.088 0.118 0.183 0.178 0.274 0.224 0.347 0.456 0.698 0.694 1.052 0.088 0.133 0.173 0.261 0.267 0.399 0.239 0.354 0.49 0.716 0.743 1.080 0.069 0.098 0.129 0.187 0.2 0.288l0.070 0.1c0.995 1.416 2.092 2.917 3.246 4.452 2.118-1.086 6.782-2.048 16.668-2.048 4.417 0 7.755 0.205 10.277 0.538zM14.765 21.675c0.719 0 1.426-0.087 2.118-0.257-0.356-0.526-0.674-1.010-0.974-1.474-0.021-0.032-0.044-0.066-0.065-0.098-0.015-0.023-0.026-0.041-0.040-0.063-2.773-4.311-3.191-5.997-3.191-6.97h0.165c0.161-0.453 0.53-0.823 1.020-0.915 0.685-0.136 1.352 0.248 1.557 0.914h0.011c0 0.011 0.005 0.026 0.008 0.040l0.004-0.003c0.001 0.010 0.168 0.522 1.564 1.189 0.051 0.025 0.106 0.048 0.16 0.073 0.088 0.040 0.182 0.081 0.279 0.122 0.121 0.051 0.251 0.102 0.387 0.154 0.044 0.018 0.088 0.034 0.135 0.052 0.168 0.063 0.347 0.127 0.537 0.19 0.029 0.010 0.058 0.019 0.087 0.029 0.202 0.067 0.417 0.133 0.644 0.201 0.030 0.010 0.062 0.018 0.094 0.028 0.227 0.066 0.465 0.132 0.719 0.198 0.054 0.014 0.11 0.028 0.164 0.041 0.239 0.062 0.489 0.122 0.752 0.183 0.109 0.025 0.228 0.050 0.341 0.074 0.227 0.050 0.454 0.099 0.698 0.149 0.373 0.076 0.763 0.149 1.18 0.221 0.151-0.423 0.256-0.853 0.34-1.288 0.021-0.109 0.040-0.218 0.056-0.326 0.066-0.438 0.113-0.88 0.113-1.327 0-0.368-0.030-0.732-0.076-1.096-0.010-0.079-0.023-0.157-0.036-0.235-0.050-0.315-0.112-0.628-0.194-0.936-0.011-0.043-0.021-0.085-0.033-0.128-0.212-0.743-0.52-1.462-0.922-2.135-1.548-2.588-4.372-4.33-7.601-4.33-4.885 0-8.86 3.975-8.86 8.862s3.974 8.862 8.86 8.862zM53.693 67.182c-1.154-0.767-5.304-1.915-12.172-2.051v1.557c0 0.761-0.617 1.376-1.376 1.376s-1.377-0.615-1.377-1.376v-1.557c-6.869 0.138-11.020 1.284-12.172 2.051 1.226 0.816 5.855 2.065 13.549 2.065s12.321-1.248 13.548-2.065zM42.509 43.485c3.783-4.728 6.962-8.84 9.62-12.396-0.215 0.041-0.409 0.085-0.639 0.125-0.808 0.142-1.681 0.267-2.597 0.376l-7.294 10.889c-0.266 0.396-0.702 0.61-1.145 0.61-0.264 0-0.53-0.076-0.765-0.233-0.63-0.424-0.8-1.279-0.377-1.911l6.054-9.038c-1.701 0.112-3.467 0.175-5.222 0.175-1.821 0-7.973-0.074-12.647-0.994 3.778 4.801 7.61 9.426 10.156 12.453 0.602 0.714 1.477 1.122 2.407 1.122h0.040c0.942-0.011 1.821-0.442 2.41-1.178zM63.543 12.812c0-0.355-0.427-0.807-1.206-1.295l-2.153 3.213c2.293-0.714 3.359-1.444 3.359-1.917z"></path>
</svg>
