<!-- Generated by IcoMoon.io -->
<svg version="1.1" xmlns="http://www.w3.org/2000/svg" width="72" height="72" viewBox="0 0 72 72">
<title>uniF1BE</title>
<path d="M50.675 59.573c0.756 1.033 1.043 2.287 0.852 3.553 0.040 0.175 0.073 0.362 0.073 0.575v8.299h-31.2v-8.299c0-0.214 0.034-0.4 0.073-0.575-0.191-1.267 0.096-2.521 0.853-3.555 0.338-0.462 0.338-1.082 0-1.544-0.804-1.097-1.098-2.441-0.832-3.786 0.028-0.143 0.082-0.276 0.122-0.414-0.128-0.349-0.217-0.692-0.217-1.027v-0.432c0-2.102 0.466-4.222 1.384-6.3 2.96-6.708 2.956-12.202-0.019-18.961-0.906-2.059-1.364-4.164-1.364-6.257v-1.65c0-0.972 0.442-1.88 1.312-2.712-0.826-1.3-1.312-2.837-1.312-4.488 0-4.631 3.768-8.4 8.4-8.4h3.6v-3.6h7.2v3.6h3.6c4.632 0 8.4 3.769 8.4 8.4 0 1.651-0.486 3.189-1.313 4.489 0.871 0.832 1.313 1.739 1.313 2.711v1.657c0 2.089-0.457 4.19-1.358 6.241-2.98 6.781-2.988 12.275-0.031 18.962 0.922 2.083 1.39 4.208 1.39 6.315v0.424c0 0.335-0.089 0.678-0.216 1.028 0.041 0.138 0.094 0.271 0.122 0.414 0.266 1.345-0.029 2.689-0.832 3.786-0.338 0.462-0.338 1.082 0 1.544zM23.166 63.655c0.452 0.686 1.284 1.145 2.191 1.145h21.286c0.907 0 1.739-0.458 2.191-1.146 0.138-0.222 0.243-0.469 0.302-0.734l0.020-0.088c0.114-0.659-0.030-1.31-0.419-1.842-0.225-0.308-0.394-0.643-0.514-0.99h-11.024c-0.662 0-1.2-0.536-1.2-1.2s0.538-1.2 1.2-1.2h11.023c0.119-0.347 0.288-0.682 0.514-0.99 0.401-0.548 0.547-1.224 0.413-1.902-0.025-0.127-0.065-0.248-0.112-0.367l-0.026-0.063c-0.005-0.013-0.013-0.025-0.019-0.037-0.071-0.16-0.169-0.299-0.269-0.436-0.373-0.482-0.936-0.832-1.578-0.954-0.049-0.007-0.097-0.017-0.146-0.022-0.118-0.016-0.236-0.030-0.358-0.030h-21.284c-0.121 0-0.24 0.014-0.358 0.031-0.049 0.004-0.097 0.014-0.146 0.022-0.642 0.122-1.205 0.473-1.578 0.954-0.1 0.137-0.198 0.276-0.269 0.436-0.005 0.013-0.013 0.024-0.019 0.037l-0.027 0.062c-0.047 0.119-0.086 0.241-0.112 0.367-0.136 0.678 0.012 1.354 0.413 1.902 0.226 0.308 0.394 0.643 0.514 0.99h3.824c0.662 0 1.2 0.536 1.2 1.2s-0.538 1.2-1.2 1.2h-3.824c-0.119 0.347-0.287 0.682-0.513 0.99-0.39 0.533-0.534 1.184-0.42 1.842l0.020 0.088c0.059 0.265 0.164 0.511 0.302 0.734zM34.8 2.4v1.2h2.4v-1.2h-2.4zM28.8 6c-3.308 0-6 2.691-6 6 0 1.562 0.614 2.976 1.598 4.045 0.096 0.104 0.192 0.209 0.294 0.306 0.192 0.181 0.396 0.349 0.611 0.504 0.104 0.074 0.211 0.145 0.319 0.214 0.239 0.151 0.485 0.289 0.745 0.406 0.088 0.038 0.178 0.071 0.266 0.106 0.296 0.115 0.599 0.217 0.916 0.284 0.047 0.009 0.094 0.014 0.14 0.023 0.361 0.068 0.73 0.113 1.11 0.113h14.4c0.38 0 0.75-0.044 1.11-0.112 0.046-0.008 0.094-0.013 0.139-0.023 0.317-0.067 0.62-0.17 0.917-0.286 0.089-0.035 0.179-0.067 0.265-0.106 0.26-0.116 0.508-0.256 0.748-0.407 0.107-0.067 0.212-0.137 0.316-0.211 0.216-0.156 0.421-0.325 0.614-0.508 0.101-0.096 0.196-0.198 0.29-0.301 0.985-1.069 1.601-2.483 1.601-4.048 0-3.308-2.692-6-6-6h-14.4zM23.978 47.038c-0.581 1.315-0.949 2.644-1.1 3.964 0.697-0.386 1.493-0.601 2.322-0.601h21.6c0.829 0 1.625 0.215 2.321 0.6-0.152-1.321-0.522-2.651-1.105-3.967-3.262-7.375-3.253-13.429 0.029-20.899 0.767-1.746 1.156-3.521 1.156-5.276v-1.657c0-0.258-0.168-0.565-0.478-0.886-0.373 0.326-0.776 0.619-1.205 0.877-0.010 0.006-0.019 0.012-0.029 0.018-0.197 0.118-0.4 0.227-0.606 0.329-0.030 0.014-0.060 0.029-0.090 0.043-0.191 0.090-0.383 0.175-0.581 0.251-0.053 0.020-0.107 0.040-0.16 0.059-0.18 0.065-0.361 0.126-0.546 0.179-0.083 0.024-0.166 0.042-0.248 0.064-0.161 0.041-0.323 0.082-0.487 0.113-0.128 0.025-0.258 0.041-0.388 0.060-0.127 0.018-0.252 0.041-0.382 0.053-0.265 0.026-0.533 0.041-0.802 0.041h-14.4c-0.269 0-0.535-0.014-0.802-0.041-0.13-0.012-0.256-0.035-0.384-0.053s-0.258-0.035-0.385-0.059c-0.166-0.032-0.328-0.073-0.49-0.114-0.082-0.022-0.163-0.040-0.245-0.064-0.185-0.053-0.367-0.115-0.547-0.18-0.053-0.019-0.104-0.037-0.157-0.058-0.198-0.077-0.391-0.161-0.582-0.251-0.030-0.014-0.060-0.029-0.090-0.043-0.206-0.102-0.408-0.21-0.605-0.328-0.011-0.006-0.020-0.013-0.031-0.019-0.427-0.258-0.83-0.551-1.204-0.877-0.311 0.32-0.479 0.628-0.479 0.886v1.65c0 1.759 0.391 3.538 1.16 5.29 3.278 7.447 3.283 13.501 0.018 20.898zM49.2 69.6v-3.055c-0.714 0.418-1.539 0.655-2.4 0.655h-21.6c-0.863 0-1.686-0.238-2.4-0.655v3.055h26.4zM34.2 37.2c-2.316 0-4.2-1.884-4.2-4.2s1.884-4.2 4.2-4.2h6.6v2.4h-6.6c-0.992 0-1.8 0.808-1.8 1.8s0.807 1.8 1.8 1.8h3.6c2.316 0 4.2 1.884 4.2 4.2s-1.884 4.2-4.2 4.2h-6.6v-2.4h6.6c0.992 0 1.8-0.808 1.8-1.8s-0.807-1.8-1.8-1.8h-3.6z"></path>
</svg>
