<!-- Generated by IcoMoon.io -->
<svg version="1.1" xmlns="http://www.w3.org/2000/svg" width="72" height="72" viewBox="0 0 72 72">
<title>uniF108</title>
<path d="M69.443 3.774c1.030 3.871 4.165 15.651-2.925 26.933-0.178 0.264-15.102 22.134-32.508 35.387-5.184 3.945-10.711 5.907-15.978 5.907-5.832 0.002-11.345-2.403-15.723-7.179-0.717-0.782-1.075-1.282-1.239-1.724-0.221-0.596-0.059-1.269 0.41-1.698l0.125-0.114c0.125-0.205 0.303-0.484 0.537-0.84 0-0.001 0-0.003 0.001-0.005 0.016-0.025 0.038-0.058 0.055-0.083 0.152-0.229 0.329-0.493 0.532-0.792 0.045-0.067 0.088-0.13 0.136-0.2 0.194-0.282 0.418-0.604 0.66-0.95 0.102-0.146 0.21-0.299 0.318-0.451 0.16-0.225 0.33-0.466 0.51-0.717 0.128-0.18 0.255-0.357 0.39-0.544 0.113-0.156 0.238-0.327 0.357-0.493-0.998-1.859-1.577-3.956-1.577-6.165 0-7.192 5.851-13.041 13.041-13.041 0.347 0 0.688 0.025 1.030 0.052 0.421-6.276 5.286-11.345 11.475-12.069 0.371-5.843 4.594-10.648 10.16-11.889 0-0.011-0.001-0.020-0.001-0.031 0-7.192 5.851-13.041 13.041-13.041 2.939 0 5.701 0.992 7.919 2.693l0.108-0.059c1.44-0.79 3.036-1.651 4.704-2.219 0.208-0.088 0.419-0.182 0.626-0.266 0.081-0.033 0.164-0.058 0.249-0.078 0.468-0.098 2.053-0.354 3.015 0.739 0.327 0.372 0.795 1.167 0.423 2.441 0.036 0.141 0.081 0.308 0.131 0.498zM63.391 6.297c0.291-0.689 0.577-1.377 0.829-2.080-0.551 0.261-1.109 0.535-1.684 0.829 0.055 0.070 0.1 0.147 0.153 0.218 0.172 0.23 0.339 0.463 0.496 0.704 0.070 0.11 0.138 0.219 0.205 0.329zM52.268 3.156c-5.37 0-9.755 4.292-9.907 9.626 0.075 0.002 0.147 0.019 0.222 0.022 0.521 0.020 1.033 0.070 1.537 0.152 0.114 0.019 0.229 0.030 0.341 0.050 0.38 0.072 0.756 0.163 1.125 0.268 0.014 0.003 0.027 0 0.041 0.003h0.001v-0.003c0.15 0.042 0.305 0.1 0.457 0.15 0.1 0.033 0.2 0.064 0.299 0.099 0.128 0.045 0.26 0.099 0.39 0.15 0.095 0.037 0.188 0.077 0.28 0.116 0.122 0.052 0.239 0.094 0.365 0.15 0.022 0.011 0.036 0.030 0.056 0.041 0.027 0.011 0.055 0.008 0.081 0.020v0c0.001 0.002 0.003 0.003 0.005 0.003 0.056 0.025 0.105 0.063 0.161 0.089 0.285 0.136 0.555 0.291 0.828 0.448 0.166 0.095 0.335 0.183 0.496 0.286 0.041 0.027 0.089 0.045 0.13 0.072 0.027 0.017 0.045 0.041 0.070 0.059 0.014 0.008 0.030 0.008 0.044 0.017 0.005 0.003 0.008 0.005 0.013 0.008 0.036 0.023 0.066 0.055 0.1 0.080 0.196 0.133 0.383 0.272 0.571 0.416 0.164 0.125 0.318 0.264 0.476 0.397 0.005 0.005 0.009 0.008 0.014 0.013 0.133 0.113 0.272 0.218 0.401 0.335 0.25 0.228 0.482 0.473 0.714 0.72 0.106 0.114 0.213 0.229 0.315 0.346 0.055 0.063 0.121 0.116 0.174 0.18 0.003 0.002 0.005 0 0.006 0.008 0.013 0.016 0.016 0.036 0.028 0.053 0.003 0.001 0.005 0.005 0.006 0.006 0.017 0.019 0.041 0.027 0.056 0.045 0.020 0.025 0.036 0.056 0.056 0.081 0.213 0.265 0.402 0.545 0.595 0.826 0.099 0.142 0.199 0.283 0.291 0.43 0.034 0.055 0.077 0.102 0.11 0.156 0.011 0.019 0.014 0.041 0.025 0.059 0.006 0.011 0.013 0.023 0.019 0.034 0.008 0.016 0.019 0.028 0.028 0.044 0.005 0.009 0.014 0.014 0.020 0.023 0.006 0.011 0.011 0.023 0.017 0.034 0.117 0.202 0.222 0.41 0.329 0.618 0.147 0.285 0.279 0.576 0.404 0.872 0.036 0.086 0.078 0.167 0.113 0.253 0.036 0.088 0.086 0.169 0.119 0.258 0.113-0.153 0.222-0.307 0.332-0.457 0.202-0.277 0.402-0.555 0.591-0.818 0.158-0.221 0.307-0.43 0.455-0.64 0.172-0.243 0.346-0.487 0.505-0.713 0.144-0.204 0.275-0.391 0.408-0.582 0.142-0.205 0.291-0.416 0.422-0.606 0.127-0.183 0.239-0.347 0.355-0.515 0.117-0.172 0.241-0.352 0.347-0.507 0.098-0.146 0.181-0.268 0.269-0.397 0.099-0.146 0.205-0.302 0.289-0.429 0.083-0.124 0.149-0.219 0.218-0.324 0.061-0.094 0.135-0.203 0.186-0.28 0.041-0.061 0.063-0.094 0.095-0.144 0.149-0.224 0.244-0.371 0.249-0.377 0.951-1.479 1.84-3.009 2.646-4.554-0.152-0.458-0.346-0.895-0.559-1.318-0.070-0.138-0.152-0.268-0.227-0.402-0.158-0.282-0.327-0.555-0.512-0.818-0.099-0.141-0.202-0.279-0.308-0.415-0.194-0.249-0.402-0.485-0.618-0.713-0.109-0.116-0.214-0.233-0.329-0.343-1.8-1.723-4.223-2.765-6.838-2.765zM41.069 15.959c-4.727 0.476-8.484 4.283-8.877 9.032 0.061 0.008 0.117 0.028 0.178 0.036 0.565 0.077 1.116 0.191 1.656 0.338 0.081 0.023 0.164 0.041 0.246 0.064 0.581 0.171 1.142 0.383 1.687 0.631 0.092 0.042 0.182 0.089 0.274 0.133 0.541 0.261 1.067 0.549 1.565 0.879 0.005 0.003 0.008 0.005 0.013 0.008 0.51 0.34 0.987 0.721 1.443 1.128 0.070 0.063 0.138 0.124 0.207 0.188 0.911 0.848 1.698 1.821 2.338 2.896 0.025 0.042 0.052 0.083 0.077 0.125 0.322 0.557 0.604 1.138 0.843 1.742 0.005 0.009 0.008 0.019 0.011 0.028 0.243 0.618 0.441 1.256 0.588 1.915 0.336-0.386 0.671-0.779 1.008-1.172 0.318-0.372 0.637-0.74 0.955-1.119 0.429-0.51 0.856-1.031 1.283-1.551 0.313-0.38 0.627-0.756 0.94-1.142 0.452-0.558 0.903-1.13 1.354-1.698 0.283-0.357 0.568-0.709 0.851-1.070 0.523-0.668 1.041-1.349 1.56-2.028 0.18-0.238 0.371-0.48 0.549-0.717 0.020-0.027 0.041-0.055 0.061-0.081-0.022-0.168-0.074-0.322-0.103-0.485-0.059-0.325-0.127-0.646-0.218-0.959-0.061-0.208-0.125-0.413-0.199-0.617-0.124-0.338-0.268-0.665-0.426-0.986-0.080-0.163-0.152-0.329-0.239-0.487-0.247-0.441-0.524-0.862-0.834-1.258-0.023-0.030-0.044-0.066-0.067-0.095-0.358-0.446-0.753-0.861-1.18-1.238-0.036-0.033-0.078-0.058-0.114-0.089-0.383-0.329-0.79-0.629-1.221-0.898-0.113-0.069-0.236-0.13-0.354-0.196-0.352-0.2-0.715-0.382-1.092-0.538-0.186-0.078-0.371-0.141-0.552-0.205-1.012-0.352-2.087-0.567-3.211-0.567-0.336 0-0.67 0.019-0.998 0.052zM20.683 37.68c0.013 0.005 0.025 0.011 0.038 0.011 0.487 0.164 0.958 0.358 1.418 0.577 0.116 0.055 0.23 0.108 0.344 0.166 0.401 0.205 0.789 0.427 1.164 0.671 0.153 0.099 0.302 0.203 0.451 0.308 0.307 0.218 0.606 0.446 0.892 0.688 0.188 0.158 0.365 0.324 0.543 0.493 0.186 0.178 0.366 0.363 0.543 0.551 0.171 0.182 0.343 0.361 0.502 0.552 0.286 0.344 0.559 0.701 0.809 1.073 0.108 0.161 0.202 0.332 0.303 0.499 0.177 0.288 0.343 0.581 0.496 0.882 0.081 0.161 0.16 0.321 0.235 0.485 0.192 0.419 0.365 0.848 0.512 1.289 0.014 0.045 0.034 0.088 0.049 0.133 0.172 0.534 0.303 1.081 0.405 1.642 0.003 0.019 0.011 0.036 0.014 0.055 0.017 0.002 0.036 0.008 0.053 0.009 0.113 0.014 0.224 0.022 0.335 0.033 0.346 0.031 0.69 0.053 1.038 0.034 3.131-2.748 6.381-5.96 9.672-9.561 0.005-0.114 0.008-0.228 0.008-0.344 0-0.183-0.019-0.362-0.028-0.541 0-0.005-0.003-0.008-0.003-0.013-0.055-0.98-0.25-1.92-0.567-2.801-0.001-0.003-0.003-0.008-0.005-0.011-0.102-0.283-0.218-0.56-0.344-0.831-0.009-0.019-0.019-0.039-0.028-0.059-0.122-0.253-0.253-0.502-0.394-0.743-0.020-0.036-0.042-0.070-0.064-0.105-0.135-0.225-0.279-0.444-0.43-0.657-0.033-0.047-0.069-0.092-0.103-0.139-0.147-0.197-0.299-0.39-0.46-0.576-0.048-0.055-0.098-0.108-0.147-0.161-0.156-0.172-0.316-0.341-0.483-0.502-0.060-0.058-0.124-0.113-0.186-0.169-0.164-0.15-0.332-0.297-0.505-0.437-0.072-0.058-0.149-0.11-0.222-0.166-0.172-0.13-0.346-0.258-0.526-0.377-0.083-0.055-0.169-0.103-0.253-0.155-0.18-0.111-0.36-0.221-0.546-0.319-0.091-0.048-0.186-0.091-0.28-0.136-0.186-0.091-0.374-0.183-0.567-0.263-0.1-0.041-0.203-0.074-0.304-0.111-0.194-0.074-0.386-0.147-0.587-0.208-0.1-0.030-0.205-0.052-0.307-0.078-0.207-0.055-0.412-0.113-0.623-0.155-0.081-0.016-0.166-0.023-0.249-0.037-0.546-0.095-1.103-0.153-1.674-0.155h-0.002c-0.009 0-0.017-0.001-0.027-0.001-5.38 0-9.774 4.309-9.908 9.659zM16.565 40.135c-5.466 0-9.911 4.447-9.913 9.916 0 1.923 0.549 3.749 1.53 5.3 0.030 0.036 0.064 0.067 0.091 0.106 0.505 0.773 1.105 1.463 1.781 2.058 0.191 0.167 0.401 0.31 0.604 0.462 0.155 0.116 0.3 0.246 0.463 0.354 0.136 0.089 0.285 0.158 0.426 0.241 0.246 0.144 0.484 0.296 0.743 0.419 0.283-0.073 0.57-0.153 0.861-0.241h0.003c0.208-0.061 0.415-0.116 0.624-0.185 0.401-0.131 0.801-0.282 1.203-0.433 0.238-0.089 0.473-0.172 0.714-0.271 0.008-0.003 0.013-0.008 0.019-0.011 0.427-0.174 0.856-0.363 1.285-0.559v-0.001h0.001c0.003-0.002 0.006 0 0.008-0.002 0.34-0.156 0.685-0.328 1.031-0.501 0.321-0.158 0.642-0.316 0.962-0.487 0.006-0.003 0.014-0.003 0.020-0.006 0.311-0.166 0.629-0.354 0.943-0.532 0.329-0.185 0.657-0.368 0.986-0.565 0.291-0.175 0.587-0.365 0.881-0.549 1.519-0.953 3.040-2.020 4.538-3.159 0.069-0.476 0.105-0.959 0.105-1.44 0-0.275-0.019-0.546-0.041-0.815v-0.003c-0.042-0.516-0.128-1.020-0.246-1.512-0.013-0.050-0.025-0.099-0.038-0.147-0.122-0.479-0.274-0.948-0.463-1.397-0.002-0.005-0.005-0.009-0.006-0.014-0.172-0.405-0.382-0.79-0.604-1.166-0.066-0.111-0.13-0.222-0.2-0.33-0.222-0.341-0.462-0.67-0.723-0.981-0.091-0.11-0.191-0.213-0.288-0.318-0.221-0.243-0.454-0.473-0.698-0.692-0.091-0.080-0.175-0.166-0.269-0.244-0.329-0.272-0.679-0.521-1.044-0.751-0.088-0.055-0.175-0.108-0.263-0.16-0.851-0.499-1.781-0.886-2.782-1.117-0.003 0-0.006-0.003-0.009-0.003-0.72-0.167-1.466-0.264-2.236-0.264zM7.012 58.911c-0.233 0.325-0.426 0.598-0.624 0.878 0.582-0.037 1.086-0.091 1.38-0.128-0.224-0.205-0.438-0.424-0.648-0.646-0.034-0.036-0.073-0.067-0.108-0.103zM63.901 28.994c5.577-8.877 4.017-18.295 2.917-22.839-2.751 7.157-7.308 13.446-11.595 19.125-0.017 0.023-0.033 0.045-0.052 0.070-0.002 0.003-0.003 0.005-0.005 0.006-0.138 0.182-0.275 0.366-0.412 0.546-0.003 0.003-0.003 0.006-0.006 0.009-0.034 0.045-0.069 0.089-0.103 0.135-0.111 0.149-0.227 0.302-0.338 0.449-7.498 9.905-16.566 20.874-27.671 28.698-0.036 0.025-0.072 0.052-0.108 0.077-0.455 0.319-0.912 0.635-1.375 0.943-0.488 0.33-0.973 0.646-1.455 0.951-0.095 0.061-0.186 0.125-0.282 0.185-0.074 0.047-0.149 0.094-0.224 0.141-0.016 0.009-0.034 0.013-0.050 0.022-0.155 0.097-0.313 0.199-0.468 0.292-0.011 0.006-0.016 0.019-0.027 0.025-0.052 0.031-0.105 0.058-0.156 0.089-0.207 0.124-0.41 0.235-0.616 0.354-0.221 0.125-0.441 0.258-0.664 0.38-0.005 0.005-0.011 0.008-0.016 0.011-0.020 0.011-0.044 0.014-0.064 0.025-0.216 0.121-0.433 0.249-0.648 0.363-0.001 0.001-0.003 0.003-0.006 0.005-0.006 0.005-0.014 0.008-0.020 0.011-0.225 0.119-0.446 0.225-0.67 0.339-0.238 0.122-0.477 0.247-0.717 0.365-0.014 0.006-0.028 0.003-0.041 0.009-0.435 0.21-0.867 0.411-1.296 0.599-0.279 0.122-0.555 0.249-0.834 0.363-0.014 0.005-0.028 0.003-0.042 0.008-0.49 0.2-0.973 0.38-1.454 0.549-0.23 0.083-0.462 0.175-0.692 0.249-0.009 0.003-0.020 0.002-0.030 0.005-0.731 0.238-1.454 0.449-2.163 0.615h-0.001c-0.053 0.013-0.11 0.022-0.164 0.028-1.475 0.344-2.867 0.534-4.211 0.573-0.349 0.044-1.656 0.194-3.051 0.194-0.073 0-0.149-0.005-0.222-0.006 7.262 7.675 17.666 7.941 27.246 0.645 16.993-12.938 31.64-34.392 31.785-34.608z"></path>
</svg>
