<!-- Generated by IcoMoon.io -->
<svg version="1.1" xmlns="http://www.w3.org/2000/svg" width="72" height="72" viewBox="0 0 72 72">
<title>uniF134</title>
<path d="M41.496 9.176c-2.496 0-4.526-2.032-4.526-4.526 0-0.76 0.616-1.375 1.375-1.375s1.375 0.614 1.375 1.375c0 0.98 0.797 1.777 1.777 1.777 0.759 0 1.375 0.614 1.375 1.375s-0.616 1.374-1.375 1.374zM69.104 41.897c1.453 0.85 2.158 2.624 1.714 4.317l-0.165 0.628c-1.454 5.542-3.792 10.779-6.947 15.562-2.867 4.349-7.124 7.609-11.988 9.18-0.888 0.286-1.496 0.414-1.975 0.414h-27.49c-0.47 0-1.090-0.129-1.949-0.404-4.867-1.56-9.133-4.822-12.010-9.184-3.159-4.789-5.497-10.030-6.951-15.577l-0.161-0.612c-0.447-1.699 0.261-3.477 1.721-4.326 0.488-0.282 0.995-0.518 1.513-0.722-0.018-0.269-0.032-0.532-0.032-0.788 0-6.701 4.819-12.329 11.254-13.504-0.172-0.751-0.258-1.52-0.258-2.302 0-5.565 4.435-10.103 9.955-10.291-0.109-0.635-0.177-1.285-0.177-1.952 0-6.804 4.831-12.337 10.771-12.337h1.567c5.939 0 10.77 5.534 10.77 12.336 0 0.667-0.070 1.318-0.179 1.955 5.495 0.216 9.902 4.741 9.902 10.288 0 0.885-0.113 1.757-0.335 2.605 5.857 1.658 9.957 6.977 9.957 13.202 0 0.254-0.014 0.515-0.032 0.785 0.522 0.205 1.034 0.441 1.524 0.727zM35.929 2.749c-4.423 0-8.022 4.301-8.024 9.587 0 0.91 0.139 1.787 0.396 2.613l0.030 0.083c0.036 0.108 0.078 0.212 0.117 0.318 0.311 0.854 0.748 1.637 1.282 2.334 0.011 0.014 0.021 0.026 0.030 0.040 0.269 0.348 0.564 0.673 0.88 0.976l0.001 0.001c0.635 0.606 1.357 1.113 2.14 1.507 0.022 0.011 0.044 0.021 0.066 0.032 0.749 0.37 1.556 0.63 2.393 0.772 0.078 0.014 0.157 0.025 0.235 0.036 0.405 0.059 0.818 0.098 1.236 0.098 0.419 0 0.83-0.040 1.237-0.098 0.078-0.011 0.157-0.022 0.234-0.036 0.838-0.143 1.644-0.403 2.394-0.772 0.022-0.011 0.043-0.021 0.065-0.032 1.174-0.59 2.21-1.438 3.022-2.484 0.008-0.011 0.018-0.023 0.026-0.034 0.537-0.698 0.974-1.484 1.287-2.339 0.045-0.122 0.095-0.241 0.135-0.366l0.011-0.030c0.257-0.827 0.396-1.706 0.396-2.616 0-5.288-3.598-9.588-8.022-9.588h-1.567zM7.135 40.479c0.034-0.004 0.070-0.003 0.113-0.003 0.172-0.021 0.345-0.021 0.518-0.033 0.26-0.018 0.52-0.048 0.778-0.048 0.051 0 0.102 0.012 0.153 0.012 0.568 0.008 1.133 0.048 1.693 0.14h0.007c0.577 0.096 1.145 0.245 1.703 0.429 0.126 0.043 0.246 0.099 0.37 0.144 0.419 0.154 0.83 0.33 1.232 0.536 0.159 0.083 0.311 0.173 0.466 0.263 0.191 0.111 0.392 0.203 0.577 0.326 0.447 0.296 0.974 0.297 1.416 0.005 0.179-0.118 0.371-0.203 0.554-0.311 0.184-0.107 0.366-0.216 0.554-0.312 0.401-0.205 0.811-0.377 1.227-0.531 0.117-0.043 0.23-0.095 0.348-0.133 2.282-0.756 4.738-0.756 7.022-0.004 0.124 0.040 0.243 0.093 0.366 0.137 0.412 0.152 0.816 0.322 1.212 0.524 0.187 0.095 0.368 0.201 0.551 0.306 0.177 0.103 0.363 0.184 0.536 0.298 0.46 0.305 1.012 0.301 1.472-0.004 0.166-0.11 0.346-0.19 0.517-0.29 0.186-0.109 0.37-0.216 0.559-0.313 0.383-0.197 0.777-0.363 1.176-0.513 0.129-0.048 0.256-0.104 0.386-0.147 2.25-0.746 4.672-0.748 6.923-0.003 0.135 0.044 0.265 0.102 0.399 0.151 0.396 0.148 0.785 0.313 1.166 0.508 0.191 0.096 0.375 0.205 0.561 0.313 0.169 0.1 0.348 0.179 0.514 0.289 0.465 0.306 1.020 0.306 1.482 0 0.166-0.11 0.346-0.188 0.517-0.289 0.184-0.109 0.366-0.216 0.555-0.312 0.382-0.197 0.772-0.362 1.17-0.51 0.132-0.050 0.261-0.107 0.396-0.151 1.707-0.564 3.51-0.704 5.268-0.411 0.003 0 0.007 0.001 0.010 0.001 0.553 0.092 1.098 0.231 1.636 0.408 0.135 0.044 0.264 0.1 0.397 0.15 0.397 0.148 0.788 0.313 1.171 0.51 0.184 0.093 0.363 0.198 0.543 0.302 0.168 0.098 0.344 0.175 0.507 0.282 0.451 0.297 1.093 0.289 1.561-0.018 0.023-0.015 0.050-0.025 0.073-0.040 0.364-0.231 0.741-0.437 1.127-0.623 0.153-0.074 0.306-0.137 0.462-0.203 0.278-0.12 0.559-0.227 0.845-0.323 0.148-0.050 0.296-0.103 0.445-0.146 0.419-0.121 0.842-0.223 1.274-0.294 0.084-0.014 0.169-0.019 0.254-0.032 0.377-0.055 0.757-0.088 1.139-0.104 0.12-0.005 0.239-0.008 0.359-0.010 0.411-0.004 0.822 0.012 1.234 0.054 0.049 0.005 0.098 0.005 0.146 0.011 0.029 0.004 0.059 0.003 0.088 0.007v-0.089c0-5.418-3.882-9.977-9.231-10.841l-1.759-0.285 0.72-1.629c0.43-0.973 0.649-2 0.649-3.054 0-4.167-3.391-7.56-7.56-7.56-0.080 0-0.216 0.004-0.43 0.029-0.001 0.001-0.001 0.004-0.003 0.005-0.221 0.491-0.477 0.962-0.761 1.414-0.018 0.029-0.036 0.059-0.054 0.088-0.29 0.451-0.607 0.881-0.955 1.287-0.012 0.015-0.026 0.029-0.038 0.043-0.338 0.39-0.702 0.755-1.089 1.097-0.025 0.021-0.047 0.044-0.071 0.065-0.796 0.693-1.687 1.274-2.651 1.73-0.038 0.018-0.076 0.036-0.113 0.054-0.922 0.425-1.911 0.727-2.944 0.896-0.11 0.018-0.218 0.036-0.33 0.051-0.502 0.066-1.010 0.113-1.53 0.113s-1.028-0.045-1.53-0.113c-0.11-0.015-0.219-0.033-0.329-0.051-1.034-0.169-2.022-0.471-2.946-0.896-0.037-0.016-0.073-0.034-0.11-0.052-0.965-0.456-1.857-1.038-2.654-1.732-0.022-0.019-0.043-0.040-0.065-0.059-0.389-0.344-0.756-0.711-1.095-1.104-0.011-0.014-0.022-0.025-0.033-0.037-0.349-0.407-0.668-0.838-0.959-1.292-0.016-0.026-0.032-0.054-0.048-0.080-0.286-0.454-0.544-0.928-0.765-1.421-0.001-0.001-0.003-0.003-0.003-0.004-0.245-0.026-0.399-0.032-0.485-0.032-4.169 0-7.56 3.392-7.56 7.56 0 1.019 0.198 2.005 0.591 2.936l0.76 1.802-1.952 0.106c-5.829 0.316-10.395 5.132-10.395 10.964v0.092zM68.158 45.518c0.13-0.496-0.054-1.020-0.433-1.243-0.643-0.375-1.331-0.65-2.037-0.839-0.228-0.062-0.459-0.1-0.69-0.141-0.144-0.026-0.286-0.061-0.432-0.078-0.213-0.027-0.427-0.034-0.64-0.045-0.162-0.008-0.324-0.022-0.487-0.021-0.213 0.001-0.423 0.019-0.634 0.037-0.158 0.014-0.318 0.022-0.476 0.044-0.218 0.030-0.434 0.076-0.65 0.124-0.143 0.030-0.287 0.060-0.43 0.099-0.22 0.060-0.437 0.136-0.652 0.214-0.135 0.049-0.268 0.096-0.4 0.153-0.206 0.088-0.407 0.187-0.606 0.291-0.139 0.073-0.279 0.147-0.415 0.23-0.569 0.339-1.106 0.74-1.588 1.216l-0.97 0.959-0.968-0.962c-0.781-0.778-1.685-1.358-2.646-1.761-0.089-0.037-0.181-0.067-0.272-0.102-0.407-0.154-0.821-0.278-1.241-0.366-0.067-0.015-0.133-0.032-0.201-0.044-0.999-0.183-2.025-0.183-3.024 0-0.066 0.013-0.131 0.029-0.195 0.043-0.418 0.086-0.83 0.21-1.234 0.363-0.095 0.037-0.192 0.070-0.287 0.11-0.958 0.401-1.858 0.98-2.636 1.755l-0.97 0.965-0.97-0.965c-0.779-0.777-1.681-1.355-2.639-1.758-0.092-0.039-0.187-0.070-0.28-0.106-0.408-0.154-0.823-0.279-1.247-0.367-0.062-0.014-0.124-0.030-0.186-0.041-1.002-0.184-2.030-0.184-3.032 0-0.065 0.013-0.128 0.029-0.192 0.043-0.418 0.086-0.829 0.212-1.232 0.363-0.099 0.038-0.199 0.071-0.298 0.114-0.447 0.188-0.884 0.409-1.297 0.679-0.012 0.008-0.026 0.014-0.038 0.022-0.458 0.301-0.892 0.652-1.295 1.053l-0.965 0.959-0.969-0.954c-0.408-0.403-0.848-0.753-1.313-1.056-0.011-0.007-0.025-0.012-0.036-0.019-0.422-0.272-0.866-0.495-1.322-0.684-0.094-0.039-0.19-0.072-0.286-0.107-0.416-0.155-0.841-0.283-1.273-0.371-0.058-0.011-0.113-0.026-0.17-0.037-1.024-0.187-2.074-0.187-3.097 0.001-0.051 0.008-0.1 0.022-0.151 0.033-0.437 0.088-0.864 0.217-1.285 0.374-0.098 0.037-0.195 0.071-0.291 0.111-0.432 0.18-0.852 0.396-1.255 0.65-0.036 0.022-0.073 0.037-0.107 0.059-0.459 0.3-0.896 0.647-1.3 1.046l-0.965 0.948-0.965-0.95c-0.471-0.465-0.999-0.854-1.555-1.189-0.15-0.091-0.3-0.176-0.454-0.256-0.188-0.099-0.379-0.191-0.574-0.275-0.151-0.066-0.305-0.124-0.46-0.18-0.197-0.072-0.396-0.139-0.598-0.195-0.169-0.047-0.339-0.084-0.51-0.121-0.192-0.041-0.386-0.081-0.581-0.11-0.188-0.026-0.378-0.041-0.568-0.055-0.186-0.014-0.37-0.030-0.555-0.032-0.194-0.003-0.388 0.011-0.583 0.023-0.188 0.011-0.377 0.018-0.563 0.041-0.175 0.022-0.348 0.059-0.521 0.092-0.207 0.039-0.416 0.074-0.623 0.129-0.713 0.19-1.408 0.465-2.059 0.843-0.388 0.225-0.573 0.75-0.443 1.249l0.161 0.612c1.377 5.257 3.593 10.223 6.587 14.761 2.533 3.842 6.281 6.712 10.555 8.081 0.836 0.268 1.1 0.272 1.111 0.272h27.49c0.011 0 0.276-0.005 1.13-0.28 4.27-1.38 8.013-4.249 10.538-8.078 2.99-4.533 5.205-9.495 6.582-14.747z"></path>
</svg>
