<!-- Generated by IcoMoon.io -->
<svg version="1.1" xmlns="http://www.w3.org/2000/svg" width="72" height="72" viewBox="0 0 72 72">
<title>uniF1C8</title>
<path d="M34.78 42.712c0-0.814 0.407-1.22 1.22-1.22s1.22 0.407 1.22 1.22c0 0.814-0.407 1.22-1.22 1.22s-1.22-0.407-1.22-1.22zM34.78 47.593c0-0.814 0.407-1.22 1.22-1.22s1.22 0.407 1.22 1.22c0 0.814-0.407 1.22-1.22 1.22s-1.22-0.407-1.22-1.22zM48.288 1.147c0.652 0.766 0.899 1.646 0.741 2.64l-4.226 26.408c-0.127 0.798-0.495 1.456-1.104 1.976s-1.317 0.779-2.125 0.779h-4.353v2.614c1.063 0.276 1.939 0.85 2.628 1.72s1.033 1.867 1.033 2.988v26.847c0 1.346-0.477 2.496-1.431 3.45s-2.104 1.431-3.45 1.431-2.496-0.477-3.45-1.431-1.431-2.104-1.431-3.45v-26.847c0-1.121 0.344-2.117 1.033-2.988s1.565-1.444 2.628-1.72v-2.614h-4.353c-0.809 0-1.517-0.26-2.126-0.779s-0.976-1.178-1.103-1.977l-4.226-26.407c-0.159-0.994 0.088-1.873 0.741-2.638s1.482-1.148 2.488-1.148h19.598c1.006 0 1.835 0.382 2.488 1.147zM38.441 40.271c0-0.673-0.239-1.248-0.716-1.725s-1.052-0.716-1.725-0.716c-0.673 0-1.248 0.239-1.725 0.716s-0.715 1.052-0.715 1.725v26.847c0 0.673 0.239 1.248 0.715 1.725s1.052 0.716 1.725 0.716c0.673 0 1.248-0.239 1.725-0.716s0.716-1.052 0.716-1.725v-26.847zM46.619 3.401c0.040-0.251-0.023-0.474-0.188-0.67-0.168-0.194-0.379-0.29-0.632-0.29h-19.598c-0.255 0-0.466 0.097-0.632 0.292-0.166 0.194-0.228 0.417-0.188 0.669l4.226 26.408c0.074 0.466 0.348 0.699 0.82 0.699h11.148c0.472 0 0.745-0.233 0.819-0.698zM36 6.102c0.814 0 1.22 0.407 1.22 1.22v18.305c0 0.814-0.407 1.22-1.22 1.22s-1.22-0.407-1.22-1.22v-18.305c0-0.814 0.407-1.22 1.22-1.22zM42.205 6.186c0.807 0.106 1.159 0.562 1.056 1.367l-2.338 18.156c-0.092 0.709-0.495 1.064-1.209 1.064-0.047 0-0.1-0.003-0.158-0.010-0.806-0.105-1.157-0.56-1.054-1.367l2.337-18.156c0.102-0.787 0.558-1.138 1.367-1.054zM29.846 6.186c0.807-0.084 1.263 0.268 1.367 1.056l2.338 18.154c0.104 0.806-0.247 1.262-1.054 1.367-0.056 0.006-0.109 0.010-0.158 0.010-0.715 0-1.118-0.355-1.209-1.064l-2.338-18.155c-0.104-0.807 0.247-1.262 1.054-1.367z"></path>
</svg>
