<!-- Generated by IcoMoon.io -->
<svg version="1.1" xmlns="http://www.w3.org/2000/svg" width="72" height="72" viewBox="0 0 72 72">
<title>uniF10C</title>
<path d="M71.992 38.697l0.007 0.138c0 17.267-16.087 31.878-35.861 31.878-19.737 0-35.799-14.557-35.859-31.782l-0.194-1.865c-0.028-0.159-0.034-0.309-0.048-0.462l-0.031-0.288h0.005c-0.001-0.044-0.012-0.093-0.012-0.137v-2.656c0-0.792 0.238-1.429 0.707-1.893 0.786-0.784 1.881-0.764 2.938-0.764h21.32l-22.048-22.579c-1.45-1.45-1.449-4.428 0.012-5.89l0.162-0.163 0.34-0.161c1.414-1.207 3.617-1.007 5.132 0.509l27.632 28.284h31.884c1.053-0.016 2.15-0.019 2.938 0.764 0.467 0.465 0.705 1.102 0.705 1.894v2.587zM68.099 33.522h-9.658v5.313h9.297c0.425-0.059 1.328-1.567 1.328-2.656v-2.632c-0.25-0.032-0.668-0.024-0.967-0.024zM47.151 36.123c2.563 0 4.649 2.073 4.649 4.622v10.978c0 1.082 0.894 1.963 1.992 1.963s1.992-0.882 1.992-1.964v-18.2h-17.266v10.517c0 1.084 0.894 1.963 1.992 1.963s1.992-0.882 1.992-1.964v-3.293c0-2.547 2.085-4.621 4.649-4.621zM4.807 6.419l23.87 24.445h3.801l-25.806-26.417c-0.446-0.448-1.185-0.688-1.554-0.321l-0.163 0.163-0.255 0.12c-0.321 0.519-0.286 1.618 0.106 2.010zM3.623 33.521c-0.3-0.004-0.716-0.007-0.967 0.025v2.563l0.060 0.576c0.203 0.999 0.907 2.099 1.273 2.148h31.873v-5.313h-32.238zM36.139 68.055c17.463 0 31.809-12.085 33.1-27.030-0.454 0.284-0.954 0.466-1.501 0.466h-9.297v10.231c0 2.547-2.085 4.621-4.649 4.621s-4.649-2.073-4.649-4.621v-10.978c0-1.083-0.894-1.964-1.992-1.964s-1.992 0.882-1.992 1.964v3.293c0 2.547-2.085 4.621-4.649 4.621s-4.649-2.073-4.649-4.621v-2.547h-31.877c-0.323 0-0.628-0.066-0.921-0.173 1.452 14.811 15.726 26.738 33.075 26.738zM35.024 63.045c0.729 0.076 1.261 0.728 1.186 1.457-0.070 0.684-0.647 1.193-1.32 1.193-0.045 0-0.090-0.003-0.137-0.007-7.803-0.8-14.963-3.902-20.165-8.735-0.538-0.499-0.569-1.34-0.069-1.877 0.499-0.538 1.341-0.566 1.877-0.069 4.78 4.443 11.396 7.297 18.628 8.038zM10.839 49.426c0.367 0.489 0.78 0.942 1.226 1.346 0.546 0.49 0.59 1.329 0.1 1.875-0.263 0.292-0.624 0.44-0.988 0.44-0.316 0-0.634-0.113-0.887-0.341-0.578-0.519-1.108-1.1-1.578-1.729-0.438-0.586-0.319-1.418 0.268-1.858 0.588-0.441 1.42-0.319 1.859 0.268z"></path>
</svg>
