<!-- Generated by IcoMoon.io -->
<svg version="1.1" xmlns="http://www.w3.org/2000/svg" width="72" height="72" viewBox="0 0 72 72">
<title>uniF148</title>
<path d="M56.951 25.020c11.166 7.712 11.714 18.698 11.434 23.065h-0.004c-0.042 1.211-0.502 8.614-5.019 13.402-2.524 2.674-5.812 4.030-9.777 4.030-0.095 0-0.191-0.001-0.288-0.002-1.249-0.021-2.515-0.22-3.774-0.575-1.009 0.392-2.044 0.62-3.084 0.679 0.044 0.171 0.059 0.351 0.022 0.536-0.116 0.582-0.626 0.984-1.198 0.984-0.080 0-0.16-0.009-0.241-0.024l-4.131-0.828 2.001 2.005c0.478 0.478 0.477 1.253-0.001 1.73-0.24 0.239-0.552 0.357-0.865 0.357-0.314 0-0.628-0.119-0.866-0.359l-2.764-2.768v3.526c0 0.675-0.548 1.223-1.223 1.223s-1.223-0.548-1.223-1.223v-3.526l-2.764 2.768c-0.239 0.239-0.553 0.359-0.866 0.359s-0.626-0.119-0.865-0.357c-0.478-0.477-0.48-1.251-0.001-1.73l1.997-2-4.166 0.696c-0.068 0.012-0.136 0.017-0.203 0.017-0.587 0-1.105-0.423-1.205-1.022-0.027-0.16-0.017-0.316 0.016-0.465-0.042 0-0.084 0.001-0.126 0.001-1.179 0-2.291-0.135-3.348-0.373-1.035 0.24-2.021 0.371-2.995 0.371-5.701 0-10.173-1.704-13.294-5.066-4.494-4.841-4.553-11.431-4.535-12.411-0.473-7.712 5.099-16.747 14.208-23.030 2.333-1.725 5.109-3.143 7.794-4.514 2.129-1.086 4.139-2.118 5.944-3.287 0.874-1.599 1.643-3.386 2.58-5.569 0.582-1.355 1.231-2.859 1.997-4.54-0.298-2.502-0.61-4.064-0.623-4.124l-0.193-0.938 4.26-2.037 1.557 5.601c0.787 2.847 1.464 5.29 2.173 7.492 2.824 4.212 5.932 6.42 10.221 9.456 1.083 0.767 2.225 1.577 3.439 2.472zM41.024 14.030c-0.754-2.318-1.458-4.857-2.266-7.778l-0.465-1.678 0.146 1.249c0.805 5.894 1.775 18.43-2.421 28.824-0.002 0.004-0.004 0.007-0.005 0.011-0.273 0.675-0.57 1.338-0.888 1.993-0.047 0.094-0.093 0.19-0.139 0.284-0.311 0.623-0.641 1.234-0.996 1.834-0.056 0.095-0.115 0.187-0.172 0.281-0.373 0.613-0.763 1.217-1.187 1.8-0.235 0.324-0.46 0.651-0.672 0.98-0.005 0.006-0.007 0.013-0.012 0.020-1.468 2.279-2.365 4.649-2.676 6.99-0.007 0.060-0.013 0.119-0.021 0.177-0.028 0.233-0.049 0.465-0.065 0.696-0.007 0.108-0.016 0.215-0.021 0.321-0.011 0.225-0.013 0.45-0.013 0.674 0 0.203 0.006 0.4 0.016 0.595 0.004 0.081 0.009 0.162 0.013 0.242 0.039 0.597 0.113 1.154 0.209 1.656 0.001 0.001 0.001 0.002 0.001 0.004 0.080 0.415 0.182 0.822 0.299 1.222 0.012 0.041 0.024 0.083 0.037 0.125 0.119 0.393 0.253 0.777 0.406 1.154 0.006 0.016 0.011 0.032 0.017 0.048 0.146 0.355 0.311 0.697 0.484 1.035 0.235 0.454 0.491 0.892 0.77 1.307 0.035 0.053 0.076 0.1 0.113 0.152 0.235 0.339 0.485 0.662 0.746 0.971 0.137 0.163 0.285 0.317 0.431 0.471 0.16 0.171 0.324 0.339 0.493 0.499 0.204 0.192 0.412 0.378 0.628 0.555 0.11 0.090 0.224 0.176 0.336 0.263 0.262 0.199 0.527 0.394 0.805 0.571 1.571 1.001 3.318 1.577 5.081 1.577h4.013c0.060 0 0.121-0.009 0.181-0.015 0.117-0.011 0.262-0.026 0.423-0.026 0.104 0 0.215 0.006 0.332 0.022 1.294 0.18 2.613-0.029 3.892-0.564 0.024-0.012 0.044-0.033 0.070-0.044 1.999-0.865 3.814-2.485 5.267-4.592 0.029-0.042 0.057-0.084 0.086-0.126 0.144-0.213 0.284-0.432 0.421-0.655 0.049-0.081 0.097-0.162 0.144-0.243 0.117-0.198 0.231-0.399 0.342-0.603 0.055-0.102 0.108-0.206 0.162-0.308 0.097-0.187 0.191-0.376 0.283-0.567 0.15-0.317 0.297-0.641 0.434-0.976 0.027-0.066 0.055-0.133 0.082-0.201 0.154-0.388 0.3-0.787 0.433-1.198 0.017-0.050 0.033-0.101 0.049-0.152 1.765-5.557 1.55-13.024-3.46-19.918-0.042-0.059-0.081-0.116-0.123-0.174-0.356-0.482-0.745-0.959-1.15-1.435-0.082-0.097-0.155-0.193-0.24-0.29-0.482-0.551-0.993-1.096-1.544-1.634-0.385-0.401-0.749-0.796-1.101-1.189-0.125-0.139-0.246-0.278-0.368-0.417-0.219-0.251-0.433-0.5-0.641-0.749-0.136-0.163-0.274-0.325-0.405-0.487-0.203-0.25-0.395-0.497-0.586-0.744-0.221-0.287-0.435-0.574-0.644-0.86-0.126-0.175-0.254-0.35-0.376-0.524-0.147-0.209-0.29-0.42-0.429-0.63-0.109-0.163-0.213-0.325-0.317-0.487-0.133-0.207-0.268-0.415-0.394-0.623-0.196-0.321-0.384-0.642-0.565-0.964-0.103-0.182-0.199-0.366-0.298-0.549-0.111-0.205-0.22-0.414-0.327-0.62-0.090-0.175-0.179-0.351-0.265-0.527-0.136-0.278-0.267-0.555-0.394-0.834-0.084-0.184-0.168-0.371-0.25-0.557-0.125-0.284-0.247-0.57-0.364-0.857-0.073-0.181-0.147-0.365-0.219-0.547-0.087-0.219-0.171-0.439-0.254-0.661-0.181-0.481-0.358-0.971-0.531-1.471-0.012-0.035-0.026-0.071-0.038-0.106-0.109-0.319-0.218-0.646-0.324-0.974-0.006-0.016-0.011-0.031-0.016-0.046v-0.002zM10.024 58.893c2.302 2.42 5.519 3.797 9.578 4.108-6.078-4.502-6.661-13.562-6.706-14.915h-0.004c-0.283-4.369 0.267-15.363 11.448-23.076 1.349-0.997 2.472-1.933 3.439-2.882-0.357 0.183-0.713 0.366-1.068 0.547-2.597 1.326-5.283 2.698-7.486 4.326-8.338 5.752-13.623 14.153-13.185 20.928 0.004 0.056 0.002 0.114-0.001 0.17-0.002 0.049-0.197 6.398 3.986 10.795zM23.987 62.487c1.225 0.401 2.564 0.604 4.029 0.577 1.366-0.022 2.68-0.254 3.926-0.692-0.296-0.259-0.581-0.537-0.86-0.823-0.045-0.045-0.088-0.093-0.132-0.139-0.215-0.228-0.423-0.461-0.625-0.703-0.070-0.083-0.139-0.166-0.208-0.251-0.196-0.245-0.384-0.497-0.566-0.756-0.043-0.060-0.088-0.117-0.13-0.177-0.207-0.302-0.401-0.617-0.588-0.938-0.067-0.115-0.13-0.234-0.193-0.351-0.076-0.137-0.155-0.27-0.226-0.411-0.042-0.082-0.076-0.168-0.116-0.251-0.077-0.158-0.151-0.317-0.223-0.478-0.114-0.253-0.22-0.509-0.319-0.766-0.038-0.097-0.075-0.193-0.11-0.291-0.132-0.363-0.251-0.729-0.355-1.097-0.001-0.004-0.002-0.007-0.004-0.011-0.515-1.823-0.689-3.708-0.528-5.612 0.005-0.066 0.011-0.133 0.017-0.201 0.021-0.221 0.044-0.442 0.075-0.663 0.027-0.201 0.061-0.405 0.097-0.61 0.021-0.12 0.037-0.241 0.060-0.361 0.070-0.362 0.157-0.732 0.254-1.107 0.007-0.028 0.016-0.055 0.023-0.082 0.094-0.353 0.204-0.713 0.325-1.078 0.010-0.031 0.021-0.060 0.031-0.090 0.121-0.356 0.257-0.718 0.406-1.084 0.009-0.021 0.017-0.043 0.026-0.064 0.15-0.365 0.316-0.733 0.497-1.106 0.007-0.015 0.015-0.031 0.022-0.047 0.176-0.361 0.367-0.725 0.574-1.094 0.011-0.019 0.021-0.040 0.032-0.060 0.196-0.345 0.406-0.694 0.631-1.045 0.019-0.032 0.038-0.065 0.059-0.097 0.24-0.37 0.493-0.741 0.766-1.117 0.328-0.45 0.634-0.915 0.928-1.386 0.12-0.193 0.231-0.391 0.346-0.587 0.16-0.271 0.318-0.546 0.468-0.823 0.146-0.269 0.284-0.542 0.42-0.816 0.095-0.191 0.188-0.384 0.279-0.577 0.162-0.346 0.321-0.695 0.469-1.048 0.032-0.075 0.061-0.151 0.092-0.225 2.919-7.12 3.236-15.516 2.902-21.772-0.062 0.144-0.125 0.288-0.185 0.429-2.68 6.244-4.157 9.683-10.534 14.397-10.183 7.026-10.684 16.975-10.428 20.928l0.005 0.086-0.006 0.086c0.002 0.023 0.198 7.576 4.607 11.961 0.739 0.735 1.561 1.331 2.458 1.798 0.061 0.032 0.121 0.065 0.184 0.095 0.275 0.136 0.557 0.259 0.846 0.371 0.157 0.060 0.323 0.109 0.486 0.162zM65.939 48.049c0.257-4.075-0.243-14.025-10.394-21.025-0.010-0.007-0.021-0.016-0.032-0.023-1.204-0.891-2.339-1.693-3.414-2.454-2.205-1.561-4.177-2.957-5.986-4.556 0.037 0.069 0.071 0.138 0.109 0.207 0.088 0.162 0.177 0.323 0.269 0.483 0.12 0.212 0.245 0.422 0.371 0.633 0.094 0.158 0.187 0.316 0.286 0.473 0.162 0.258 0.332 0.515 0.504 0.773 0.138 0.207 0.283 0.415 0.428 0.621 0.164 0.234 0.329 0.467 0.504 0.701 0.121 0.163 0.25 0.327 0.375 0.491 0.16 0.207 0.323 0.415 0.492 0.623 0.131 0.162 0.263 0.322 0.399 0.485 0.194 0.232 0.396 0.467 0.603 0.702 0.12 0.137 0.236 0.273 0.36 0.41 0.339 0.377 0.688 0.756 1.058 1.141 0.526 0.515 1.020 1.047 1.499 1.588 0.176 0.198 0.347 0.398 0.516 0.597 0.269 0.322 0.527 0.648 0.781 0.977 0.454 0.587 0.873 1.177 1.264 1.771 0.048 0.075 0.1 0.147 0.148 0.221 0.281 0.439 0.544 0.878 0.793 1.32 0.009 0.016 0.017 0.033 0.027 0.049 0.77 1.373 1.386 2.755 1.861 4.135 0.027 0.076 0.054 0.152 0.080 0.229 0.135 0.405 0.262 0.81 0.373 1.214 0.066 0.231 0.121 0.465 0.18 0.699 0.072 0.295 0.153 0.59 0.213 0.883 0.644 3.045 0.7 6.184 0.122 9.302-0.075 0.4-0.176 0.789-0.27 1.182-0.028 0.119-0.053 0.241-0.082 0.358-0.083 0.324-0.176 0.641-0.273 0.959-0.095 0.318-0.193 0.633-0.299 0.94-0.062 0.177-0.125 0.352-0.191 0.526-0.18 0.482-0.371 0.948-0.575 1.398-0.018 0.040-0.036 0.081-0.054 0.121-0.073 0.159-0.14 0.328-0.215 0.482-1.308 2.667-3.035 4.827-4.982 6.362 0.184 0.011 0.366 0.020 0.547 0.022 3.274 0.041 5.94-0.959 8-3.007 4.408-4.382 4.606-11.94 4.606-12.013z"></path>
</svg>
