<!-- Generated by IcoMoon.io -->
<svg version="1.1" xmlns="http://www.w3.org/2000/svg" width="72" height="72" viewBox="0 0 72 72">
<title>uniF190</title>
<path d="M39.18 7.839c14.359 1.595 25.442 13.854 25.442 28.416 0 7.869-3.291 15.474-9.029 20.863-3.372 3.168-7.348 5.415-11.651 6.65l1.847 0.369c0.688 0.139 1.135 0.808 0.997 1.497-0.119 0.604-0.651 1.023-1.245 1.023-0.081 0-0.167-0.009-0.251-0.025l-4.784-0.957 2.372 2.372c0.497 0.497 0.497 1.301 0 1.799-0.248 0.248-0.574 0.373-0.899 0.373s-0.651-0.123-0.901-0.373l-3.171-3.171v4.053c0 0.702-0.569 1.272-1.272 1.272s-1.272-0.57-1.272-1.272v-4.054l-3.171 3.171c-0.248 0.248-0.574 0.373-0.899 0.373s-0.651-0.125-0.899-0.373c-0.497-0.497-0.497-1.301 0-1.799l2.536-2.536-4.99 0.832c-0.071 0.013-0.14 0.018-0.21 0.018-0.611 0-1.15-0.44-1.253-1.062-0.116-0.693 0.352-1.348 1.046-1.464l0.588-0.098c-11.608-3.38-20.3-14.032-20.715-26.503-0.482-14.399 10.046-27.023 24.153-29.238v-4.179c0-0.482 0.271-0.922 0.702-1.138l5.088-2.544c0.394-0.197 0.861-0.177 1.238 0.056 0.375 0.233 0.604 0.641 0.604 1.083v6.567zM53.851 55.264c5.305-4.984 8.227-11.735 8.227-19.010 0-13.629-10.655-25.042-24.257-25.984-0.668-0.047-1.184-0.602-1.184-1.27v-5.671l-2.544 1.272v4.503c0 0.645-0.485 1.189-1.126 1.263-13.365 1.549-23.479 13.312-23.030 26.78 0.383 11.459 8.434 21.243 19.145 24.229-4.822-3.451-8.906-8.505-11.215-14.167-3.199-7.845-2.837-16.237 1.022-23.63 0.326-0.622 1.090-0.865 1.717-0.539 0.622 0.326 0.864 1.094 0.539 1.716-4.495 8.613-2.982 16.442-0.922 21.493 2.377 5.827 6.773 10.945 11.863 14.078-5.766-8.665-9.098-25.808-5.17-39.064 0.198-0.673 0.907-1.056 1.581-0.859 0.673 0.2 1.057 0.907 0.859 1.581-4.214 14.224 0.365 31.721 6.007 38.509v-43.958c0-0.702 0.569-1.272 1.272-1.272s1.272 0.57 1.272 1.272v43.959c5.643-6.789 10.221-24.284 6.007-38.508-0.198-0.674 0.186-1.381 0.859-1.581 0.674-0.198 1.383 0.186 1.581 0.859 3.928 13.256 0.597 30.398-5.17 39.064 5.092-3.133 9.487-8.251 11.863-14.078 2.060-5.052 3.572-12.88-0.922-21.493-0.324-0.622-0.083-1.39 0.539-1.716 0.627-0.327 1.393-0.084 1.717 0.539 3.858 7.393 4.222 15.785 1.021 23.63-2.164 5.307-5.888 10.076-10.318 13.496 3.209-1.192 6.183-3.017 8.766-5.443z"></path>
</svg>
