<!-- Generated by IcoMoon.io -->
<svg version="1.1" xmlns="http://www.w3.org/2000/svg" width="72" height="72" viewBox="0 0 72 72">
<title>uniF116</title>
<path d="M26.605 27.6c0.008-0.009 0.022-0.010 0.031-0.018 2.496-2.221 5.77-3.582 9.364-3.582 7.785 0 14.118 6.333 14.118 14.118 0 4.155-1.816 7.886-4.681 10.47-0.016 0.014-0.024 0.032-0.038 0.045-0.038 0.034-0.078 0.062-0.116 0.095-0.239 0.207-0.483 0.406-0.734 0.598-0.1 0.076-0.2 0.153-0.302 0.226-0.248 0.181-0.502 0.352-0.764 0.515-0.114 0.072-0.229 0.141-0.345 0.209-0.257 0.151-0.517 0.295-0.783 0.431-0.13 0.066-0.26 0.129-0.391 0.189-0.26 0.123-0.522 0.24-0.791 0.346-0.148 0.059-0.299 0.112-0.45 0.165-0.257 0.092-0.514 0.182-0.778 0.258-0.181 0.052-0.363 0.095-0.545 0.14-0.241 0.059-0.481 0.123-0.727 0.169-0.239 0.047-0.481 0.076-0.723 0.11-0.196 0.027-0.391 0.062-0.59 0.082-0.45 0.044-0.904 0.069-1.36 0.069-7.785 0-14.118-6.333-14.118-14.118 0-0.5 0.028-0.995 0.079-1.479 0.004-0.040 0.014-0.079 0.018-0.119 0.052-0.456 0.123-0.905 0.217-1.345 0.004-0.025 0.013-0.048 0.018-0.073 0.1-0.457 0.222-0.905 0.366-1.345 0.010-0.030 0.023-0.058 0.033-0.088 0.144-0.432 0.308-0.854 0.491-1.266 0.023-0.051 0.049-0.099 0.072-0.148 0.178-0.387 0.37-0.767 0.582-1.134 0.040-0.072 0.085-0.14 0.127-0.21 0.203-0.342 0.419-0.673 0.649-0.995 0.061-0.085 0.124-0.165 0.186-0.248 0.227-0.303 0.466-0.597 0.717-0.881 0.075-0.085 0.15-0.167 0.226-0.248 0.26-0.281 0.529-0.549 0.812-0.807 0.044-0.041 0.083-0.088 0.129-0.129zM24.706 38.118c0 6.227 5.067 11.294 11.294 11.294 0.428 0 0.851-0.028 1.272-0.078 0.106-0.013 0.208-0.034 0.312-0.048 0.321-0.045 0.64-0.1 0.954-0.174 0.106-0.024 0.21-0.052 0.315-0.081 0.319-0.085 0.635-0.181 0.946-0.292 0.083-0.030 0.168-0.061 0.25-0.092 0.359-0.138 0.711-0.294 1.055-0.469 0.018-0.010 0.038-0.018 0.058-0.028-3.902-1.693-6.573-5.574-6.573-10.033 0-3.922-2.785-7.242-6.575-7.967-1.844 1.848-2.991 4.272-3.251 6.846-0.037 0.37-0.056 0.743-0.056 1.121zM47.294 38.118c0-6.227-5.067-11.294-11.294-11.294-1.864 0-3.618 0.462-5.17 1.265 3.905 1.691 6.582 5.568 6.582 10.029 0 3.93 2.808 7.224 6.61 7.938 2.022-2.042 3.272-4.847 3.272-7.938zM54.744 4.088c2.336 0.936 3.844 3.164 3.844 5.678v52.467c0 2.514-1.509 4.742-3.844 5.677-0.945 0.377-1.803 1.646-1.803 2.663 0 0.781-0.631 1.427-1.412 1.427h-31.059c-0.781 0-1.412-0.631-1.412-1.412 0-1.031-0.858-2.301-1.803-2.678-2.336-0.935-3.844-3.162-3.844-5.677v-52.467c0-2.514 1.508-4.742 3.844-5.677 0.945-0.377 1.803-1.646 1.803-2.663 0-0.781 0.631-1.427 1.412-1.427h31.059c0.781 0 1.412 0.631 1.412 1.412 0 1.031 0.858 2.301 1.803 2.677zM55.765 62.233h0.001v-52.467c0-1.354-0.812-2.554-2.068-3.055-1.577-0.63-2.884-2.198-3.374-3.888h-28.649c-0.491 1.696-1.797 3.26-3.373 3.888-1.256 0.501-2.068 1.701-2.068 3.055v52.467c0 1.354 0.812 2.554 2.068 3.055 1.577 0.63 2.884 2.198 3.374 3.888h28.649c0.491-1.696 1.797-3.26 3.371-3.888 1.256-0.501 2.068-1.701 2.068-3.055zM20.471 11.294c-0.781 0-1.412-0.631-1.412-1.412s0.631-1.412 1.412-1.412h7.059c0.781 0 1.412 0.631 1.412 1.412s-0.631 1.412-1.412 1.412h-7.059zM51.529 8.471c0.781 0 1.412 0.631 1.412 1.412s-0.631 1.412-1.412 1.412h-18.353c-0.781 0-1.412-0.631-1.412-1.412s0.631-1.412 1.412-1.412h18.353zM27.529 62.118c0.781 0 1.412 0.631 1.412 1.412s-0.631 1.412-1.412 1.412h-7.059c-0.781 0-1.412-0.631-1.412-1.412s0.631-1.412 1.412-1.412h7.059zM51.529 62.118c0.781 0 1.412 0.631 1.412 1.412s-0.631 1.412-1.412 1.412h-18.353c-0.781 0-1.412-0.631-1.412-1.412s0.631-1.412 1.412-1.412h18.353z"></path>
</svg>
