<!-- Generated by IcoMoon.io -->
<svg version="1.1" xmlns="http://www.w3.org/2000/svg" width="72" height="72" viewBox="0 0 72 72">
<title>uniF18D</title>
<path d="M70.477 36.003c0.735 0 1.33 0.596 1.33 1.33v5.319c0 0.735-0.594 1.33-1.33 1.33s-1.33-0.594-1.33-1.33v-5.319c0-0.735 0.594-1.33 1.33-1.33zM70.477 46.641c0.735 0 1.33 0.596 1.33 1.33v2.66c0 0.735-0.594 1.33-1.33 1.33s-1.33-0.594-1.33-1.33v-2.66c0-0.735 0.594-1.33 1.33-1.33zM70.477 54.62c0.735 0 1.33 0.596 1.33 1.33v1.33c0 0.735-0.594 1.33-1.33 1.33s-1.33-0.594-1.33-1.33v-1.33c0-0.735 0.594-1.33 1.33-1.33zM69.533 61.662c0.517-0.504 1.396-0.491 1.888 0 0.239 0.239 0.386 0.585 0.386 0.931 0 0.36-0.146 0.693-0.386 0.944-0.253 0.253-0.599 0.386-0.944 0.386s-0.693-0.133-0.944-0.386c-0.253-0.251-0.386-0.598-0.386-0.944s0.133-0.69 0.386-0.931zM27.335 56.323c0.52-0.52 1.36-0.52 1.88 0s0.52 1.36 0 1.88c-2.638 2.637-6.144 4.089-9.872 4.089-3.73 0-7.237-1.452-9.874-4.089-0.52-0.52-0.52-1.36 0-1.88s1.36-0.52 1.88 0c4.408 4.408 11.579 4.405 15.985 0zM49.735 6.319l22.265 22.261-4.71 4.71-1.084-1.1c-5.172-5.096-13.476-5.027-18.585 0.084l-7.416 7.416c4.112 8.14 2.557 18.129-3.936 24.622-4.032 4.032-9.351 6.233-15.031 6.233-0.171 0-0.344-0.001-0.517-0.005-5.868-0.137-11.285-2.612-15.249-6.967-7.282-7.997-7.299-20.545-0.040-28.564 5.596-6.178 13.991-8.43 21.674-6.185l-0.242-0.242c-3.165-3.165-4.859-7.553-4.649-12.037 0.214-4.545 2.267-8.652 5.786-11.564 6.258-5.178 15.805-4.592 21.734 1.338zM67.271 29.552l0.971-0.968-20.384-20.383c-4.969-4.967-12.944-5.484-18.157-1.169-2.934 2.428-4.646 5.851-4.824 9.64-0.175 3.739 1.237 7.395 3.872 10.032l4.704 4.703-2.182 2.177-0.879-0.499c-2.906-1.646-6.073-2.447-9.206-2.447-5.106 0-10.124 2.122-13.778 6.157-6.351 7.015-6.336 17.992 0.034 24.991 3.47 3.811 8.21 5.976 13.344 6.097 5.165 0.136 9.971-1.814 13.604-5.448 5.891-5.892 7.134-15.073 3.021-22.328l-0.499-0.88 8.83-8.83c5.899-5.902 15.352-6.201 21.529-0.844zM45.9 10.007l4.843 4.843c0.403 0.402 0.626 0.938 0.626 1.511 0 0.572-0.223 1.108-0.628 1.512l-12.024 12.025c-0.418 0.414-0.963 0.621-1.509 0.621s-1.093-0.207-1.509-0.621l-5.072-5.074c-2.16-2.158-3.286-5.149-3.090-8.205 0.194-3.052 1.703-5.882 4.14-7.762 4.205-3.247 10.319-2.755 14.224 1.15zM37.209 27.644l11.283-11.285-4.471-4.472c-1.662-1.662-3.844-2.517-5.993-2.517-1.682 0-3.343 0.521-4.725 1.589-1.859 1.435-2.964 3.505-3.112 5.827-0.148 2.294 0.697 4.537 2.316 6.156z"></path>
</svg>
