<!-- Generated by IcoMoon.io -->
<svg version="1.1" xmlns="http://www.w3.org/2000/svg" width="72" height="72" viewBox="0 0 72 72">
<title>uniF15D</title>
<path d="M8.149 58.848c0.484 0.462 0.503 1.226 0.045 1.711-0.254 0.278-1.417 1.732 0.060 3.56 0.423 0.521 0.342 1.287-0.181 1.71-0.225 0.182-0.495 0.27-0.763 0.27-0.354 0-0.705-0.154-0.945-0.451-2.315-2.867-0.969-5.674 0.067-6.759 0.463-0.487 1.233-0.503 1.718-0.040zM58.966 6.361c2.867-2.313 5.675-0.967 6.759 0.066 0.486 0.464 0.503 1.233 0.040 1.718-0.461 0.483-1.226 0.502-1.711 0.047-0.276-0.253-1.729-1.418-3.561 0.060-0.225 0.182-0.495 0.27-0.763 0.27-0.354 0-0.706-0.154-0.945-0.452-0.423-0.521-0.342-1.286 0.181-1.709zM24.497 51.637c0.671 0 1.215 0.545 1.215 1.215v1.719c0 0.672-0.545 1.215-1.215 1.215s-1.215-0.543-1.215-1.215v-1.719c0-0.672 0.544-1.215 1.215-1.215zM21.059 58.512c0.671 0 1.215 0.544 1.215 1.215v1.718c0 0.672-0.544 1.215-1.215 1.215s-1.215-0.543-1.215-1.215v-1.718c0-0.672 0.544-1.215 1.215-1.215zM27.934 58.512c0.671 0 1.215 0.544 1.215 1.215v1.718c0 0.672-0.545 1.215-1.215 1.215s-1.215-0.543-1.215-1.215v-1.718c0-0.672 0.544-1.215 1.215-1.215zM29.652 49.918c0.672 0 1.215 0.543 1.215 1.215v1.718c0 0.672-0.544 1.215-1.215 1.215s-1.215-0.543-1.215-1.215v-1.718c0-0.672 0.544-1.215 1.215-1.215zM35.165 46.837c0 0.672-0.544 1.215-1.215 1.215s-1.215-0.543-1.215-1.215v-1.72c0-0.672 0.544-1.215 1.215-1.215s1.215 0.543 1.215 1.215v1.72zM35.668 52.496c0.671 0 1.215 0.544 1.215 1.215v1.718c0 0.672-0.544 1.215-1.215 1.215s-1.215-0.543-1.215-1.215v-1.718c0-0.672 0.544-1.215 1.215-1.215zM39.106 45.622c0.671 0 1.215 0.543 1.215 1.215v1.718c0 0.672-0.544 1.215-1.215 1.215s-1.215-0.543-1.215-1.215v-1.718c0-0.672 0.544-1.215 1.215-1.215zM40.824 38.747c0.671 0 1.215 0.543 1.215 1.215v1.718c0 0.672-0.545 1.215-1.215 1.215s-1.215-0.543-1.215-1.215v-1.718c0-0.672 0.544-1.215 1.215-1.215zM45.979 43.902c0.672 0 1.215 0.543 1.215 1.215v1.72c0 0.672-0.544 1.215-1.215 1.215s-1.215-0.543-1.215-1.215v-1.72c0-0.672 0.544-1.215 1.215-1.215zM61.449 24.997c0.671 0 1.215 0.544 1.215 1.215v1.718c0 0.672-0.544 1.215-1.215 1.215s-1.215-0.543-1.215-1.215v-1.718c0-0.672 0.545-1.215 1.215-1.215zM60.944 21.056c0 0.672-0.544 1.215-1.215 1.215s-1.215-0.543-1.215-1.215v-1.718c0-0.672 0.544-1.215 1.215-1.215s1.215 0.543 1.215 1.215v1.718zM71.997 9.358c0 2.253-0.863 4.367-2.428 5.965l-2.33 2.958c1.451 1.57 2.254 3.6 2.254 5.763 0 2.248-0.859 4.359-2.422 5.954l-0.68 0.894c-10.403 13.688-22.647 25.86-36.396 36.18-1.65 1.616-3.8 2.425-5.951 2.425-2.066 0-4.126-0.755-5.748-2.246-0.988 0.779-1.979 1.557-2.979 2.322-1.652 1.619-3.804 2.428-5.956 2.428-2.179 0-4.357-0.83-6.016-2.488l-0.86-0.86c-1.599-1.601-2.482-3.737-2.482-6.015s0.882-4.414 2.483-6.014c0.039-0.038 0.079-0.074 0.122-0.106 1.462-1.119 2.891-2.277 4.331-3.423-1.462-3.578-0.684-7.78 2.089-10.554 1.232-1.232 2.776-2.108 4.464-2.537 0.572-0.145 1.016-0.589 1.162-1.162 0.427-1.688 1.304-3.231 2.538-4.464 1.231-1.233 2.776-2.111 4.465-2.539 0.571-0.145 1.016-0.589 1.161-1.161 0.428-1.689 1.305-3.233 2.538-4.465 1.235-1.234 2.778-2.111 4.465-2.539 0.572-0.145 1.017-0.588 1.162-1.161 0.427-1.688 1.305-3.231 2.538-4.465s2.777-2.111 4.465-2.539c0.571-0.145 1.016-0.588 1.161-1.159 0.428-1.688 1.305-3.231 2.538-4.466 2.816-2.813 7.061-3.568 10.665-2.039 0.645-0.806 1.311-1.593 1.948-2.406l2.231-2.846c0.031-0.038 0.063-0.075 0.097-0.109 1.602-1.6 3.738-2.484 6.016-2.484s4.414 0.884 6.016 2.484l0.859 0.859c1.601 1.601 2.483 3.737 2.483 6.014zM10.747 44.259c-1.913 1.913-2.576 4.735-1.822 7.267 0.061-0.049 0.124-0.096 0.185-0.146 1.009-0.819 2-1.661 2.998-2.494 1.127-0.939 2.253-1.88 3.365-2.837 1.034-0.89 2.057-1.793 3.078-2.697 1.062-0.941 2.117-1.889 3.165-2.844 1.003-0.914 2.003-1.831 2.992-2.76 1.091-1.023 2.167-2.062 3.241-3.103 0.907-0.877 1.82-1.748 2.715-2.636 1.845-1.834 3.668-3.689 5.463-5.572 0.68-0.713 1.339-1.445 2.011-2.164 1.236-1.325 2.469-2.652 3.68-3.998 0.767-0.852 1.519-1.716 2.275-2.578 1.108-1.263 2.208-2.531 3.293-3.814 0.738-0.87 1.471-1.744 2.197-2.623 0.394-0.476 0.777-0.963 1.167-1.441-0.715-0.226-1.455-0.339-2.191-0.339-1.89 0-3.761 0.729-5.159 2.126-0.922 0.925-1.58 2.081-1.901 3.344-0.362 1.435-1.481 2.553-2.919 2.919-1.264 0.318-2.42 0.976-3.343 1.9s-1.581 2.079-1.901 3.343c-0.364 1.437-1.483 2.556-2.92 2.92-1.263 0.318-2.418 0.976-3.343 1.9-0.922 0.924-1.58 2.079-1.901 3.343-0.362 1.435-1.481 2.556-2.919 2.92-1.264 0.318-2.42 0.976-3.342 1.9-0.924 0.924-1.581 2.079-1.901 3.342-0.365 1.439-1.484 2.557-2.922 2.92-1.263 0.32-2.42 0.977-3.342 1.9zM65.292 28.337c1.142-1.141 1.771-2.668 1.769-4.295 0-1.63-0.63-3.155-1.771-4.297l-0.523-0.523c0-0.001-0.001-0.001-0.001-0.001l-2.054-2.054c-0.122-0.122-0.219-0.203-0.306-0.266-1.317-1.107-2.969-1.603-4.589-1.441-0.074 0.009-0.148 0.024-0.222 0.035-0.158 0.022-0.317 0.041-0.474 0.075v11.776c0 3.015-2.454 5.469-5.469 5.469-0.631 0-1.244-0.107-1.823-0.314v0.921c0 2.345-1.908 4.253-4.253 4.253s-4.254-1.908-4.254-4.253v-1.016c-0.026 0.029-0.052 0.056-0.079 0.084-0.253 0.271-0.507 0.541-0.762 0.811-0.372 0.392-0.774 0.804-1.164 1.208-1.469 1.525-2.964 3.026-4.482 4.499-0.050 0.049-0.1 0.1-0.151 0.148-0.125 0.122-0.25 0.237-0.375 0.357-2.745 2.643-5.565 5.2-8.456 7.66-0.645 0.551-1.274 1.079-1.89 1.59-1.382 1.145-2.779 2.268-4.19 3.369-0.916 0.719-1.801 1.399-2.661 2.045-1.106 1.135-1.714 2.637-1.714 4.238 0 0.365 0.043 0.721 0.104 1.072 0.018 0.106 0.045 0.21 0.069 0.316 0.058 0.253 0.134 0.5 0.224 0.741 0.038 0.101 0.072 0.203 0.114 0.303 0.139 0.32 0.299 0.632 0.492 0.924 0.224 0.337 0.48 0.654 0.767 0.939l2.579 2.58c2.369 2.369 6.225 2.369 8.593 0 0.040-0.040 0.084-0.079 0.13-0.113 13.594-10.196 25.702-22.226 35.985-35.758l0.728-0.958c0.033-0.045 0.069-0.086 0.108-0.125zM67.796 13.655c1.141-1.142 1.771-2.668 1.771-4.297 0-1.628-0.63-3.155-1.771-4.296l-0.859-0.859c-1.142-1.141-2.669-1.772-4.297-1.772-1.605 0-3.111 0.611-4.251 1.721l-2.184 2.785c-0.542 0.691-1.109 1.361-1.658 2.046l0.025 0.015-0.9 1.117c-0.572 0.709-1.166 1.4-1.744 2.102-0.803 0.977-1.607 1.954-2.422 2.92-1.062 1.259-2.145 2.501-3.23 3.742-0.804 0.921-1.601 1.848-2.417 2.759-1.232 1.375-2.49 2.725-3.749 4.075-1.26 1.354-2.534 2.694-3.821 4.024-1.291 1.333-2.581 2.668-3.898 3.977-1.004 0.998-2.028 1.971-3.045 2.953-1.021 0.986-2.041 1.975-3.076 2.946-1.074 1.007-2.163 1.998-3.253 2.988-1.010 0.919-2.025 1.835-3.048 2.741-1.113 0.984-2.236 1.96-3.365 2.928-1.032 0.884-2.071 1.757-3.115 2.628-1.144 0.953-2.288 1.903-3.448 2.839-0.284 0.23-0.562 0.469-0.847 0.698l-1.131 0.907-0.015-0.028c-1.298 1.029-2.583 2.076-3.899 3.083-1.108 1.135-1.717 2.638-1.717 4.241 0 1.628 0.63 3.155 1.771 4.296l0.86 0.86c2.369 2.369 6.224 2.369 8.593 0 0.039-0.038 0.079-0.074 0.122-0.107 0.932-0.71 1.856-1.428 2.777-2.152l-1.105-1.105c-0.203-0.203-0.393-0.414-0.573-0.633-0.024-0.029-0.045-0.062-0.068-0.091-0.156-0.196-0.305-0.395-0.442-0.603-0.001-0.002-0.002-0.004-0.004-0.005-0.004-0.004-0.005-0.010-0.009-0.015-0.204-0.311-0.38-0.637-0.541-0.97-0.030-0.062-0.059-0.125-0.089-0.188-0.306-0.677-0.521-1.394-0.64-2.136-0.013-0.085-0.027-0.171-0.038-0.258-0.047-0.368-0.080-0.739-0.080-1.116 0-2.279 0.882-4.415 2.483-6.015 0.040-0.040 0.084-0.079 0.13-0.113 0.971-0.728 1.931-1.474 2.889-2.223 0.88-0.693 1.793-1.422 2.75-2.201 0.301-0.247 0.606-0.486 0.907-0.734 0.275-0.227 0.555-0.462 0.835-0.695 0.672-0.561 1.338-1.13 2.003-1.701 0.656-0.568 1.331-1.156 2.032-1.777 0.508-0.451 1.017-0.9 1.52-1.356 0.562-0.507 1.129-1.033 1.697-1.56 0.344-0.32 0.688-0.642 1.031-0.965 0.565-0.534 1.13-1.068 1.695-1.614 0.543-0.526 1.080-1.057 1.617-1.59 0.627-0.621 1.212-1.211 1.787-1.794 0.599-0.61 1.196-1.221 1.786-1.84 0.188-0.196 0.391-0.402 0.575-0.596 0.989-1.045 1.967-2.102 2.933-3.171 0.337-0.374 0.87-0.498 1.338-0.321 0.469 0.181 0.779 0.632 0.779 1.135v4.136c0 1.005 0.818 1.823 1.823 1.823s1.823-0.818 1.823-1.823v-3.115c0-0.493 0.299-0.939 0.757-1.125 0.458-0.187 0.982-0.078 1.328 0.277 0.582 0.595 1.351 0.925 2.168 0.925 1.675 0 3.038-1.362 3.038-3.038v-12.685c0-0.509 0.318-0.965 0.797-1.141 0.374-0.136 0.755-0.243 1.138-0.326 0.145-0.032 0.289-0.044 0.434-0.067 0.237-0.039 0.474-0.080 0.713-0.098 0.19-0.015 0.377-0.010 0.565-0.012 0.192-0.001 0.383-0.009 0.574 0.002 0.219 0.012 0.435 0.043 0.651 0.070 0.154 0.019 0.309 0.037 0.461 0.066 0.244 0.045 0.483 0.108 0.721 0.174 0.118 0.033 0.235 0.063 0.35 0.101 0.262 0.085 0.519 0.187 0.773 0.298 0.081 0.035 0.162 0.070 0.242 0.108 0.276 0.131 0.543 0.278 0.804 0.439 0.050 0.031 0.097 0.061 0.146 0.092 0.28 0.181 0.547 0.377 0.806 0.592 0.011 0.010 0.023 0.017 0.034 0.025 0.097 0.066 0.292 0.224 0.532 0.463l1.094 1.094 2.174-2.775c0.030-0.038 0.063-0.075 0.097-0.109zM51.338 17.439c0.438-0.508 1.206-0.568 1.714-0.131 0.509 0.436 0.568 1.203 0.131 1.714l-1.215 1.417c-0.241 0.281-0.581 0.424-0.924 0.424-0.279 0-0.561-0.096-0.79-0.293-0.509-0.436-0.568-1.203-0.131-1.713zM47.641 21.754c0.438-0.512 1.204-0.569 1.714-0.133s0.567 1.203 0.131 1.712l-3.595 4.193c-0.241 0.282-0.581 0.425-0.924 0.425-0.279 0-0.561-0.096-0.79-0.293-0.509-0.436-0.568-1.203-0.131-1.712z"></path>
</svg>
