<!-- Generated by IcoMoon.io -->
<svg version="1.1" xmlns="http://www.w3.org/2000/svg" width="72" height="72" viewBox="0 0 72 72">
<title>uniF121</title>
<path d="M18.094 56.053c0.651 0.146 1.060 0.791 0.914 1.442-0.126 0.563-0.624 0.945-1.178 0.945-0.087 0-0.176-0.010-0.265-0.029-4.295-0.963-7.788-4.102-9.116-8.195-0.205-0.635 0.143-1.317 0.777-1.522 0.637-0.204 1.316 0.143 1.522 0.777 1.050 3.236 3.934 5.819 7.346 6.582zM49.326 64.924c0.651 0.146 1.060 0.792 0.914 1.442-0.126 0.563-0.624 0.945-1.178 0.945-0.087 0-0.176-0.010-0.265-0.029-4.295-0.963-7.788-4.102-9.116-8.195-0.205-0.635 0.143-1.316 0.777-1.522 0.635-0.204 1.317 0.143 1.522 0.777 1.049 3.236 3.934 5.819 7.346 6.582zM9.102 44.92c-0.653-0.133-1.077-0.769-0.947-1.423 0.33-1.635 0.929-3.173 1.783-4.571 0.349-0.57 1.092-0.749 1.661-0.402 0.57 0.348 0.75 1.091 0.402 1.661-0.705 1.157-1.202 2.433-1.476 3.791-0.115 0.573-0.62 0.969-1.182 0.969-0.080 0-0.159-0.008-0.24-0.024zM60.066 38.985c5.066 3.010 8.545 9.092 8.545 16.106 0 9.324-7.585 16.909-16.909 16.909-9.259 0-16.794-7.481-16.899-16.715-2.955 4.937-8.342 8.26-14.503 8.26-9.324 0-16.909-7.585-16.909-16.909 0-9.99 7.044-18.117 15.701-18.117h2.416c4.7 0 8.912 2.406 11.792 6.194 7.924-3.036 15.869-12.514 16.422-23.135-0.277 0.018-0.553 0.031-0.832 0.031-2.599 0-5.252-0.773-7.504-2.219-2.977-1.91-4.884-4.704-5.371-7.868l-0.184-1.193 1.193-0.184c3.18-0.49 6.619 0.266 9.434 2.073 2.088 1.341 3.637 3.122 4.551 5.156 4.393-4.228 11.383-5.145 16.008-1.756l0.975 0.714-0.714 0.975c-1.902 2.596-4.869 4.493-8.137 5.206-0.954 0.208-1.899 0.31-2.819 0.31-0.882 0-1.731-0.126-2.558-0.312 6.049 9.61 8.951 17.647 6.302 26.474zM64.481 6.892c-3.749-1.874-8.981-0.769-12.166 2.581 3.75 1.875 8.981 0.772 12.166-2.581zM38.702 2.418c0.635 1.953 2.017 3.677 3.987 4.941 1.942 1.245 4.253 1.906 6.451 1.833-0.635-1.952-2.017-3.675-3.987-4.94-1.941-1.247-4.226-1.894-6.451-1.835zM51.905 14.090c-1.509 10.491-9.218 19.373-17.252 22.668 1.451 2.563 2.344 5.573 2.509 8.81 2.772-5.149 7.705-8.595 13.333-8.595h2.416c1.745 0 3.418 0.344 4.987 0.953 2.003-6.982 0.192-13.894-5.992-23.836zM20.299 61.13c7.991 0 14.494-6.501 14.495-14.492 0-3.382-0.919-6.51-2.464-9.075-1.382 0.374-2.756 0.587-4.093 0.587-0.667 0-1.208-0.541-1.208-1.208s0.541-1.208 1.208-1.208c0.843 0 1.707-0.099 2.58-0.28-2.399-2.791-5.685-4.518-9.31-4.518h-2.416c-7.325 0-13.286 7.044-13.286 15.701 0 7.992 6.502 14.493 14.493 14.493zM51.702 69.584c7.991 0 14.493-6.501 14.493-14.493 0-5.946-2.811-11.13-6.945-13.794-0.466 1.153-1 2.319-1.662 3.511-0.221 0.396-0.632 0.621-1.057 0.621-0.198 0-0.4-0.050-0.586-0.152-0.582-0.324-0.794-1.059-0.469-1.643 0.644-1.159 1.192-2.296 1.645-3.422-1.325-0.525-2.739-0.822-4.213-0.822h-2.416c-7.325 0-13.286 7.044-13.286 15.701 0 7.992 6.502 14.493 14.494 14.493zM29.962 39.39c0.667 0 1.208 0.541 1.208 1.208s-0.541 1.208-1.208 1.208c-3.997 0-7.247-3.25-7.247-7.247 0-0.667 0.541-1.208 1.208-1.208s1.208 0.541 1.208 1.208c0 2.664 2.167 4.831 4.831 4.831zM58.949 47.844c0.667 0 1.208 0.541 1.208 1.208s-0.541 1.208-1.208 1.208c-3.997 0-7.247-3.25-7.247-7.247 0-0.667 0.541-1.208 1.208-1.208s1.208 0.541 1.208 1.208c0 2.664 2.167 4.831 4.831 4.831z"></path>
</svg>
