<!-- Generated by IcoMoon.io -->
<svg version="1.1" xmlns="http://www.w3.org/2000/svg" width="72" height="72" viewBox="0 0 72 72">
<title>uniF1A4</title>
<path d="M43.777 26.913c0-0.822 0.411-1.233 1.233-1.233s1.233 0.411 1.233 1.233c0 0.822-0.411 1.233-1.233 1.233s-1.233-0.411-1.233-1.233zM50.211 23.648c0-0.822 0.411-1.233 1.233-1.233s1.233 0.411 1.233 1.233c0 0.822-0.411 1.233-1.233 1.233s-1.233-0.411-1.233-1.233zM48.594 26.751c0-0.822 0.411-1.233 1.233-1.233s1.233 0.411 1.233 1.233-0.411 1.233-1.233 1.233c-0.822 0-1.233-0.411-1.233-1.233zM16.345 21.035c0-0.822 0.411-1.233 1.233-1.233s1.233 0.411 1.233 1.233-0.411 1.233-1.233 1.233-1.233-0.411-1.233-1.233zM23.536 19.403c0-0.822 0.411-1.233 1.233-1.233s1.233 0.411 1.233 1.233c0 0.822-0.411 1.233-1.233 1.233s-1.233-0.411-1.233-1.233zM19.562 18.17c0-0.822 0.411-1.233 1.233-1.233s1.233 0.411 1.233 1.233c0 0.822-0.411 1.233-1.233 1.233s-1.233-0.411-1.233-1.233zM13.571 40.843c0-0.822 0.411-1.233 1.233-1.233s1.233 0.411 1.233 1.233c0 0.822-0.411 1.233-1.233 1.233s-1.233-0.411-1.233-1.233zM17.578 37.977c0-0.822 0.411-1.233 1.233-1.233s1.233 0.411 1.233 1.233c0 0.822-0.411 1.233-1.233 1.233s-1.233-0.411-1.233-1.233zM19.562 40.443c0-0.822 0.411-1.233 1.233-1.233s1.233 0.411 1.233 1.233c0 0.822-0.411 1.233-1.233 1.233s-1.233-0.411-1.233-1.233zM32.286 14.534c-0.806 0.162-1.292-0.157-1.46-0.958-0.168-0.806 0.151-1.292 0.957-1.459 0.881-0.184 1.698-0.041 2.454 0.428 0.774 0.479 1.253 1.158 1.435 2.038 0.099 0.486 0.424 0.669 0.974 0.55 0.882-0.182 1.699-0.040 2.453 0.428 0.774 0.479 1.253 1.158 1.435 2.038 0.038 0.186 0.144 0.333 0.318 0.441 0.199 0.122 0.416 0.157 0.654 0.107 0.806-0.162 1.292 0.157 1.458 0.957 0.168 0.806-0.151 1.292-0.957 1.459-0.23 0.048-0.463 0.072-0.698 0.072-0.635 0-1.22-0.166-1.755-0.498-0.775-0.481-1.253-1.16-1.434-2.038-0.039-0.188-0.145-0.335-0.319-0.441-0.198-0.126-0.416-0.162-0.653-0.107-0.896 0.181-1.723 0.030-2.482-0.451s-1.228-1.153-1.406-2.016c-0.039-0.186-0.145-0.333-0.319-0.441-0.2-0.125-0.418-0.161-0.654-0.107zM37.163 31.987c0.823 0.043 1.242 0.445 1.259 1.207 0.016 0.744-0.225 1.386-0.724 1.925s-1.107 0.816-1.826 0.832c-0.095 0.002-0.141 0.081-0.137 0.237 0.016 0.744-0.225 1.386-0.724 1.925s-1.107 0.816-1.826 0.833c-0.094 0.001-0.14 0.080-0.138 0.236 0.019 0.821-0.382 1.241-1.205 1.26h-0.028c-0.803 0-1.214-0.402-1.232-1.206-0.016-0.73 0.215-1.362 0.694-1.898 0.502-0.556 1.12-0.843 1.854-0.859 0.096-0.002 0.142-0.081 0.138-0.238-0.016-0.744 0.225-1.385 0.723-1.924s1.107-0.816 1.826-0.832c0.096-0.003 0.142-0.082 0.138-0.238-0.016-0.821 0.386-1.241 1.207-1.259zM28.33 27.487c0.362-0.825 0.952-1.408 1.769-1.751 0.838-0.352 1.669-0.348 2.493 0.013 0.178 0.076 0.36 0.075 0.545-0.004 0.211-0.089 0.366-0.246 0.466-0.471 0.332-0.755 0.873-0.965 1.625-0.633 0.753 0.329 0.964 0.87 0.633 1.624-0.363 0.825-0.953 1.409-1.771 1.752-0.839 0.352-1.669 0.348-2.492-0.014-0.175-0.076-0.357-0.075-0.545 0.004-0.211 0.089-0.366 0.246-0.466 0.471-0.368 0.835-0.969 1.423-1.802 1.762s-1.654 0.332-2.462-0.025c-0.175-0.076-0.357-0.075-0.545 0.004-0.211 0.089-0.366 0.246-0.466 0.471-0.217 0.492-0.593 0.737-1.129 0.737-0.173 0-0.338-0.035-0.496-0.105-0.753-0.329-0.964-0.87-0.633-1.624 0.363-0.825 0.953-1.409 1.771-1.752 0.839-0.352 1.669-0.348 2.492 0.014 0.449 0.197 0.786 0.039 1.012-0.475zM70.911 23.24c1.453 4.131 1.457 7.677 0.014 10.637-1.266 2.599-3.165 4.325-5.695 5.176l-23.155 9.389-0.012 0.030c-0.112 0.347-0.247 0.668-0.408 0.962l-0.012 0.025c-0.19 0.344-0.381 0.628-0.573 0.852-0.578 0.676-1.334 1.172-2.266 1.488l-0.049 0.015c-0.242 0.080-0.494 0.145-0.756 0.196-0.033 0.007-0.088 0.017-0.166 0.031-0.212 0.037-0.437 0.064-0.677 0.080-0.018 0.001-0.047 0.004-0.088 0.008s-0.072 0.006-0.094 0.007c-0.287 0.013-0.563 0.011-0.829-0.005-0.33-0.023-0.654-0.078-0.97-0.165-0.015-0.004-0.037-0.012-0.064-0.024s-0.047-0.019-0.059-0.023c-0.286-0.087-0.541-0.19-0.765-0.308l-0.012-0.005-20.217 8.196c1.575 2.282 1.974 4.235 1.198 5.858-0.873 1.827-2.724 2.832-5.553 3.017-0.232 0.022-0.476 0.033-0.733 0.033-1.975 0-3.53-0.519-4.663-1.556-1.064-0.972-1.581-2.291-1.551-3.954 0.046-2.59 0.495-6.582 1.345-11.976 0.052-0.33-0.153-0.554-0.616-0.672-1.417-0.355-2.445-1.66-3.084-3.914-1.337-4.723 0.391-8.613 5.184-11.668l1.852-23.669c0.002-0.022 0.007-0.053 0.015-0.093s0.013-0.071 0.015-0.092v-0.004c0.159-1.587 0.779-2.956 1.861-4.108s2.411-1.853 3.987-2.101c4.656-0.731 9.237-1.216 13.742-1.455l0.075-0.015 0.045 0.009c6.875-0.358 13.048-0.092 18.519 0.798 0.166-0.011 0.328 0.011 0.486 0.067l0.019 0.011c3.159 0.541 6.034 1.29 8.625 2.248 0.009 0.002 0.023 0.004 0.043 0.005s0.035 0.004 0.046 0.007c0.016 0.006 0.036 0.017 0.059 0.034s0.041 0.028 0.052 0.033c7.048 2.651 11.871 6.828 14.47 12.531 0.003 0.006 0.015 0.029 0.036 0.070s0.035 0.073 0.042 0.096c0.529 1.19 0.965 2.469 1.306 3.836zM67.821 25.762c0.324 0.703 0.477 1.417 0.457 2.141 0.525-0.977 0.68-2.007 0.464-3.087-0.207-1.034-0.494-2.060-0.861-3.076l-1.46 1.249c0.508 0.918 0.974 1.843 1.399 2.774zM66.853 19.374c-0.891-1.718-2.033-3.279-3.426-4.683l-1.502 2.18c1.169 1.186 2.237 2.512 3.205 3.978zM54.39 11.634c2.141 0.997 4.042 2.181 5.702 3.551l1.481-2.15c-1.813-1.438-3.932-2.663-6.358-3.677zM45.868 8.942c2.288 0.454 4.37 1.031 6.247 1.732l0.793-2.189c-1.929-0.653-4.035-1.192-6.317-1.616zM36.994 7.909c2.249 0.108 4.386 0.312 6.411 0.612l0.716-2.057c-2.245-0.32-4.621-0.535-7.127-0.642v2.088zM33.020 5.735c-1.423 0-2.975 0.037-4.657 0.112v2.075c2.197-0.097 4.252-0.129 6.165-0.095v-2.080c-0.475-0.008-0.978-0.012-1.508-0.012zM18.499 8.738c2.636-0.307 5.102-0.536 7.398-0.686v-2.073c-2.445 0.159-4.911 0.39-7.398 0.693v2.065zM13.696 7.34c-1.575 0.248-2.701 1.095-3.378 2.543 2.127-0.343 4.032-0.625 5.715-0.846v-2.042c-0.864 0.121-1.643 0.236-2.337 0.345zM13.031 64.592c0.372-0.784 0.018-1.943-1.062-3.477-1.628-2.317-2.187-4.32-1.677-6.009 0.48-1.586 1.858-2.822 4.134-3.707l20.058-8.34-0.296 2.136c-0.232 1.667-0 2.928 0.695 3.784 0.040 0.048 0.108 0.117 0.203 0.205l0.086 0.069c0.14 0.112 0.303 0.203 0.489 0.274 0.017 0.006 0.035 0.012 0.052 0.018 0.19 0.066 0.388 0.106 0.594 0.12 0.050 0.004 0.165 0.007 0.344 0.009 0.703-0.002 1.305-0.134 1.806-0.396 0.719-0.393 1.177-1.060 1.374-2.002l0.028-0.139c0.172-0.981 0.095-2.196-0.233-3.646-0.156-0.695-0.151-1.375 0.016-2.039l0.152-0.601 23.371-9.717c2.356-1.263 3.16-2.712 2.412-4.346-1.69-3.697-3.639-6.611-5.844-8.742-0.009-0.005-0.023-0.012-0.043-0.020s-0.035-0.016-0.046-0.023c-0.137-0.095-0.251-0.213-0.34-0.354-1.863-1.707-4.068-3.11-6.615-4.21-0.137-0.018-0.221-0.033-0.25-0.043-0.069-0.025-0.17-0.086-0.302-0.184-2.313-0.942-4.905-1.658-7.774-2.147-0.008 0.001-0.026 0.004-0.053 0.010s-0.048 0.009-0.063 0.009c-0.14 0-0.275-0.023-0.406-0.069l-0.063-0.037c-4.699-0.744-10.227-0.93-16.585-0.557l-0.063 0.012-0.038-0.007c-5.157 0.306-10.916 0.985-17.275 2.036l-1.877 23.982-0.566 0.324c-4.134 2.365-5.668 5.432-4.602 9.2 0.378 1.338 0.815 2.069 1.311 2.194 0.835 0.21 1.483 0.639 1.945 1.289s0.631 1.37 0.506 2.16c-0.833 5.265-1.271 9.144-1.316 11.636-0.018 0.919 0.231 1.616 0.748 2.090 0.835 0.764 2.008 1.059 3.518 0.885 1.914-0.139 3.096-0.682 3.545-1.628zM12.654 55.822c-0.145 0.477-0.080 1.079 0.194 1.808l19.577-7.937c-0.41-0.79-0.654-1.723-0.734-2.798l-16.342 6.795c-1.548 0.601-2.446 1.312-2.694 2.132zM68.725 32.76c0.323-0.67 0.55-1.424 0.679-2.263-0.713 0.774-1.519 1.348-2.418 1.721l-24.998 10.393c0.006 0.113 0.022 0.225 0.048 0.338 0.211 0.928 0.333 1.827 0.366 2.697l21.971-8.907c1.986-0.753 3.437-2.079 4.351-3.979zM17.319 45.524c-1.445 0-2.522-0.031-3.231-0.093s-1.525-0.237-2.448-0.526c-0.923-0.289-1.578-0.799-1.963-1.529s-0.579-1.701-0.579-2.912c0-2.018 1.564-3.718 4.692-5.098s5.537-2.070 7.228-2.070c1.551 0 2.711 0.185 3.481 0.555 1.516 0.729 2.274 2.111 2.274 4.147 0 2.075-0.924 3.848-2.772 5.32s-4.075 2.207-6.682 2.207zM21.028 35.763c-1.225 0-3.108 0.538-5.65 1.615s-3.813 2.106-3.813 3.088c0 1.114 0.282 1.825 0.845 2.133s2.2 0.461 4.91 0.461c1.894 0 3.532-0.5 4.914-1.501s2.073-2.187 2.073-3.559c0-1-0.292-1.642-0.877-1.925-0.433-0.208-1.228-0.312-2.387-0.312h-0.015zM20.178 25.517c-1.445 0-2.522-0.031-3.231-0.093s-1.525-0.237-2.448-0.526-1.578-0.799-1.963-1.529c-0.386-0.73-0.579-1.701-0.579-2.912 0-2.018 1.564-3.718 4.692-5.098s5.537-2.070 7.228-2.070h0.014c1.542 0 2.698 0.185 3.467 0.555 1.516 0.729 2.274 2.111 2.274 4.147 0 2.075-0.924 3.848-2.772 5.32s-4.075 2.207-6.682 2.207zM23.887 15.756c-1.225 0-3.108 0.538-5.65 1.615s-3.813 2.106-3.813 3.088c0 1.114 0.282 1.825 0.845 2.133s2.2 0.461 4.91 0.461c1.894 0 3.532-0.5 4.914-1.501s2.073-2.187 2.073-3.559c0-1-0.292-1.642-0.877-1.925-0.433-0.208-1.228-0.312-2.387-0.312h-0.015zM39.46 26.573c0-2.019 1.564-3.719 4.692-5.1s5.537-2.070 7.227-2.069h0.013c1.541 0 2.697 0.185 3.467 0.556 1.516 0.728 2.274 2.11 2.274 4.147 0 2.075-0.924 3.848-2.772 5.319s-4.075 2.206-6.682 2.206c-1.445 0-2.523-0.031-3.231-0.093s-1.525-0.237-2.448-0.526-1.577-0.799-1.963-1.529c-0.386-0.73-0.578-1.701-0.578-2.911zM51.388 21.869c-1.224 0-3.106 0.538-5.648 1.615s-3.813 2.106-3.813 3.089c0 1.114 0.282 1.824 0.845 2.132s2.2 0.461 4.91 0.461c1.894 0 3.532-0.5 4.914-1.501s2.073-2.187 2.073-3.558c0-1.001-0.292-1.643-0.877-1.926-0.433-0.208-1.23-0.312-2.39-0.312h-0.015z"></path>
</svg>
