<!-- Generated by IcoMoon.io -->
<svg version="1.1" xmlns="http://www.w3.org/2000/svg" width="72" height="72" viewBox="0 0 72 72">
<title>uniF169</title>
<path d="M36.679 0c9.679 0 17.555 7.876 17.554 17.555v35.911c0 3.371-2.742 6.113-6.113 6.113h-8.043v8.699c0 2.053-1.671 3.724-3.724 3.724h-1.241c-2.053 0-3.724-1.671-3.724-3.724v-8.697h-7.511c-3.371 0-6.113-2.742-6.113-6.113v-35.912c0-9.679 7.876-17.555 17.555-17.555h1.36zM37.596 68.276v-8.689h-3.724v8.689c0 0.685 0.556 1.241 1.241 1.241h1.241c0.685 0 1.241-0.556 1.241-1.241zM51.752 53.466h0.001v-35.911c0-8.311-6.762-15.072-15.072-15.072h-1.36c-8.311 0-15.072 6.761-15.072 15.072v35.911c0 2.001 1.63 3.631 3.631 3.631h24.242c2.001 0 3.631-1.63 3.631-3.631zM46.299 26.448c0.686 0 1.241 0.555 1.241 1.241v6.123c0 2.559-2.083 4.642-4.642 4.642s-4.642-2.082-4.642-4.642v-6.123c0-0.687 0.555-1.241 1.241-1.241s1.241 0.555 1.241 1.241v6.123c0 1.192 0.968 2.16 2.16 2.16s2.16-0.968 2.16-2.16v-6.123c0-0.687 0.555-1.241 1.241-1.241zM34.485 43.515c0.685 0 1.241 0.555 1.241 1.241v3.401c0 2.559-2.084 4.642-4.643 4.642s-4.642-2.082-4.642-4.642v-3.401c0-0.686 0.555-1.241 1.241-1.241s1.241 0.555 1.241 1.241v3.401c0 1.192 0.968 2.16 2.16 2.16s2.161-0.968 2.161-2.16v-3.401c0-0.686 0.555-1.241 1.241-1.241zM30.558 24.8c-2.561 0-4.643-2.082-4.642-4.642v-3.401c0-0.686 0.555-1.241 1.241-1.241s1.241 0.555 1.241 1.241v3.401c0 1.192 0.968 2.16 2.16 2.16s2.16-0.968 2.16-2.16v-3.401c0-0.686 0.555-1.241 1.241-1.241s1.241 0.555 1.241 1.241v3.401c0 2.559-2.082 4.642-4.642 4.642z"></path>
</svg>
