<!-- Generated by IcoMoon.io -->
<svg version="1.1" xmlns="http://www.w3.org/2000/svg" width="72" height="72" viewBox="0 0 72 72">
<title>uniF1B6</title>
<path d="M24.885 36.32c-0.963 0.567-2.131 0.917-3.337 0.916-1.543 0-3.147-0.572-4.46-1.999-0.464-0.504-0.431-1.29 0.073-1.754s1.289-0.431 1.754 0.073c1.497 1.625 3.473 1.351 4.712 0.623 1.231-0.725 2.424-2.313 1.733-4.404-0.216-0.65 0.138-1.353 0.788-1.568 0.652-0.216 1.353 0.138 1.568 0.788 1.082 3.271-0.642 6.036-2.832 7.324zM52.102 43.512c0.65-0.218 1.354 0.138 1.569 0.788 1.082 3.271-0.642 6.036-2.832 7.324-0.963 0.567-2.131 0.917-3.338 0.917-1.543 0-3.147-0.574-4.46-2-0.464-0.504-0.431-1.29 0.073-1.754 0.505-0.464 1.289-0.431 1.754 0.073 1.496 1.626 3.473 1.353 4.712 0.624 1.231-0.725 2.424-2.314 1.733-4.406-0.216-0.651 0.138-1.353 0.788-1.568zM32.069 47.681c0.647 0.228 0.986 0.937 0.756 1.583-1.022 2.899-3.564 4.113-5.89 4.113-0.281 0-0.559-0.017-0.83-0.052-2.528-0.323-5.21-2.187-5.506-5.628-0.058-0.684 0.448-1.285 1.131-1.343 0.683-0.074 1.285 0.448 1.343 1.131 0.19 2.203 1.922 3.197 3.347 3.378 1.418 0.184 3.334-0.346 4.067-2.423 0.227-0.645 0.937-0.987 1.583-0.757zM37.277 41.734c-2.529-0.321-5.211-2.187-5.507-5.628-0.058-0.684 0.448-1.285 1.131-1.343 0.681-0.073 1.285 0.448 1.343 1.131 0.19 2.202 1.922 3.196 3.347 3.378 1.421 0.175 3.334-0.346 4.067-2.423 0.227-0.646 0.937-0.987 1.583-0.757 0.647 0.227 0.986 0.936 0.757 1.583-1.022 2.9-3.564 4.113-5.89 4.113-0.282 0-0.559-0.017-0.83-0.052zM41.277 54.669c0.659-0.19 1.347 0.19 1.536 0.849 0.956 3.311-0.874 6.007-3.112 7.21-0.918 0.493-2.009 0.792-3.13 0.792-1.617 0-3.298-0.621-4.62-2.174-0.444-0.523-0.381-1.306 0.14-1.75s1.306-0.382 1.75 0.14c1.434 1.682 3.42 1.485 4.685 0.804 1.259-0.678 2.513-2.218 1.902-4.335-0.189-0.658 0.19-1.347 0.849-1.537zM54.323 31.061c0.462-0.506 1.246-0.545 1.754-0.084 0.508 0.462 0.545 1.246 0.083 1.754-1.312 1.444-2.925 2.023-4.477 2.023-1.188 0-2.34-0.34-3.293-0.892-2.205-1.279-3.953-4.041-2.887-7.325 0.21-0.652 0.914-1.009 1.563-0.798 0.652 0.211 1.009 0.911 0.798 1.563-0.682 2.104 0.529 3.692 1.771 4.413 1.237 0.718 3.205 0.977 4.687-0.653zM63.931 35.379c0 2.097-0.823 4.097-2.253 5.586 1.43 1.49 2.253 3.49 2.253 5.586 0 2.87-1.51 5.482-3.924 6.924 0.133 0.582 0.2 1.172 0.2 1.765 0 3.815-2.736 7.106-6.388 7.888-0.782 3.652-4.073 6.388-7.888 6.388-0.859 0-1.699-0.135-2.51-0.405-1.525 1.825-3.768 2.887-6.18 2.887-2.586 0-4.968-1.223-6.476-3.26-1.075 0.512-2.248 0.777-3.455 0.777-3.465 0-6.499-2.195-7.616-5.419-3.224-1.117-5.419-4.151-5.419-7.616 0-0.796 0.119-1.589 0.351-2.35-3.156-1.13-5.317-4.113-5.317-7.581 0-1.481 0.411-2.93 1.173-4.185-1.529-1.506-2.415-3.579-2.415-5.746 0-2.258 0.968-4.424 2.626-5.945-0.094-0.495-0.143-0.999-0.143-1.503 0-3.552 2.304-6.596 5.604-7.651-3.218-2.372-5.481-5.361-6.581-8.722-0.212-0.647 0.135-1.343 0.78-1.562 8.444-2.87 13.246-1.419 15.629 0.031 1.39-7.229 6.136-10.081 7.937-10.92 0.21-0.212 0.485-0.349 0.808-0.349h0.262c0.343 0 0.647 0.15 0.874 0.381 1.851 0.879 6.499 3.751 7.872 10.889 2.382-1.451 7.181-2.904 15.629-0.031 0.644 0.218 0.992 0.915 0.78 1.562-1.002 3.061-2.917 5.749-5.682 8.012 0.114 0.245 0.236 0.485 0.325 0.745 3.037 1.052 5.159 3.804 5.396 7.014 2.329 1.475 3.747 4.020 3.747 6.808zM12.379 13.196c1.086 2.485 2.969 4.712 5.521 6.532 0.359-0.359 0.755-0.669 1.171-0.951 0.047-0.032 0.094-0.063 0.141-0.094 0.181-0.118 0.364-0.231 0.554-0.334 0.097-0.053 0.197-0.097 0.295-0.145 0.235-0.114 0.473-0.22 0.719-0.31 0.189-0.071 0.38-0.139 0.575-0.195 0.114-0.032 0.228-0.059 0.344-0.087 0.207-0.051 0.417-0.092 0.629-0.125 0.101-0.015 0.201-0.032 0.303-0.045 0.315-0.037 0.633-0.062 0.956-0.062 2.097 0 4.097 0.823 5.586 2.253 1.49-1.43 3.49-2.253 5.586-2.253 2.156 0 4.2 0.872 5.694 2.36 1.468-2.213 3.966-3.601 6.719-3.601 0.384 0 0.761 0.036 1.135 0.091 0.094 0.012 0.186 0.027 0.278 0.043 0.364 0.065 0.724 0.144 1.071 0.257 0.022 0.007 0.043 0.017 0.066 0.025 0.324 0.108 0.638 0.242 0.945 0.39 0.092 0.045 0.184 0.089 0.274 0.138 0.295 0.156 0.582 0.325 0.855 0.518 0.055 0.037 0.107 0.078 0.16 0.118 0.243 0.181 0.475 0.377 0.699 0.586 0.097 0.091 0.19 0.182 0.282 0.277 0.052 0.053 0.108 0.101 0.159 0.155 1.928-1.624 3.352-3.478 4.247-5.538-10.179-3.060-13.496 1.145-13.531 1.189-0.31 0.411-0.847 0.597-1.343 0.453-0.495-0.143-0.855-0.57-0.898-1.084-0.607-7.467-5.158-10.336-6.711-11.103-1.553 0.767-6.103 3.636-6.711 11.103-0.042 0.52-0.406 0.958-0.91 1.096-0.503 0.139-1.039-0.053-1.342-0.48-0.024-0.031-3.338-4.236-13.519-1.176zM59.066 41.981l-1.445-1.015 1.445-1.015c1.492-1.049 2.382-2.757 2.382-4.571 0-2.107-1.171-4.012-3.054-4.974l-0.699-0.357 0.022-0.783c0.006-2.659-1.735-4.885-4.228-5.506l-0.724-0.18-0.18-0.724c-0.153-0.614-0.405-1.182-0.734-1.689-0.001-0.003-0.005-0.004-0.006-0.006-0.047-0.073-0.104-0.138-0.155-0.208-0.104-0.147-0.212-0.29-0.33-0.425-0.079-0.091-0.164-0.174-0.248-0.258-0.113-0.113-0.23-0.222-0.353-0.325-0.083-0.071-0.168-0.143-0.256-0.209-0.174-0.129-0.354-0.248-0.541-0.356-0.046-0.026-0.087-0.058-0.133-0.083-0.235-0.127-0.479-0.232-0.731-0.325-0.081-0.030-0.164-0.053-0.246-0.080-0.191-0.060-0.386-0.11-0.585-0.15-0.083-0.016-0.166-0.035-0.251-0.047-0.277-0.043-0.557-0.072-0.845-0.072-2.417 0-4.548 1.544-5.304 3.841l-0.873 2.654-1.384-2.427c-0.996-1.743-2.854-2.827-4.853-2.827-1.814 0-3.522 0.89-4.571 2.382l-1.015 1.445-1.015-1.445c-1.049-1.492-2.757-2.382-4.571-2.382-0.246 0-0.487 0.020-0.728 0.052-0.091 0.011-0.179 0.031-0.268 0.047-0.14 0.025-0.281 0.053-0.418 0.089-0.116 0.030-0.229 0.066-0.341 0.103-0.097 0.032-0.192 0.068-0.288 0.106-0.137 0.055-0.273 0.11-0.406 0.176-0.044 0.021-0.084 0.045-0.127 0.067-0.725 0.384-1.371 0.928-1.886 1.619-0.006 0.010-0.016 0.014-0.024 0.022-0.196 0.268-0.379 0.549-0.529 0.855l-0.279 0.569-0.624 0.107c-2.685 0.461-4.634 2.773-4.634 5.498 0 0.542 0.080 1.082 0.237 1.609l0.251 0.834-0.7 0.519c-1.442 1.069-2.27 2.704-2.27 4.486 0 1.786 0.872 3.481 2.329 4.531l1.086 0.782-0.862 1.024c-0.846 1.006-1.312 2.282-1.312 3.594 0 2.763 1.982 5.080 4.712 5.509l1.721 0.271-0.817 1.538c-0.432 0.813-0.65 1.692-0.65 2.613 0 2.567 1.742 4.793 4.234 5.414l0.724 0.18 0.18 0.724c0.622 2.494 2.848 4.234 5.414 4.234 1.136 0 2.231-0.341 3.167-0.987l1.158-0.8 0.648 1.249c0.967 1.863 2.866 3.020 4.958 3.020 1.911 0 3.67-0.966 4.704-2.583l0.592-0.925 0.991 0.474c0.763 0.366 1.572 0.551 2.403 0.551 2.873 0 5.316-2.241 5.561-5.101l0.089-1.042 1.042-0.089c2.86-0.246 5.101-2.689 5.101-5.561 0-0.663-0.122-1.323-0.362-1.964l-0.42-1.115 1.096-0.464c2.072-0.878 3.41-2.897 3.41-5.147 0-1.814-0.89-3.523-2.382-4.571z"></path>
</svg>
