<!-- Generated by IcoMoon.io -->
<svg version="1.1" xmlns="http://www.w3.org/2000/svg" width="72" height="72" viewBox="0 0 72 72">
<title>uniF12A</title>
<path d="M57.574 13.006c1.639 0.444 2.854 1.93 2.854 3.708v7.714c0 2.127-1.73 3.857-3.857 3.857h-0.232l-0.771 3.857h1.003c0.352 0 0.689 0.144 0.932 0.4 0.243 0.255 0.37 0.599 0.352 0.95l-1.286 25.714c-0.035 0.684-0.599 1.221-1.284 1.221h-1.421l-1.158 10.427c-0.073 0.652-0.622 1.144-1.278 1.144h-29.571c-0.652 0-1.201-0.489-1.277-1.135l-1.228-10.436h-1.353c-0.661 0-1.214-0.501-1.279-1.157l-2.571-25.714c-0.036-0.363 0.082-0.723 0.327-0.991 0.243-0.27 0.589-0.423 0.953-0.423h1.003l-0.771-3.857h-0.232c-2.127 0-3.857-1.73-3.857-3.857v-7.714c0-1.778 1.215-3.264 2.854-3.708-0.179-0.445-0.283-0.927-0.283-1.435v-1.286c0-2.127 1.731-3.857 3.857-3.857h2.571v-5.143c0-0.711 0.576-1.286 1.286-1.286h5.143c0.451 0 0.87 0.238 1.102 0.624l3.483 5.805h22.415c2.127 0 3.857 1.731 3.857 3.857v1.286c0 0.508-0.104 0.99-0.283 1.435zM23.143 2.571v3.857h5.444l-2.314-3.857h-3.129zM16.714 10.286v1.286c0 0.71 0.577 1.286 1.286 1.286h36c0.708 0 1.286-0.576 1.286-1.286v-1.286c0-0.71-0.577-1.286-1.286-1.286h-36c-0.708 0-1.286 0.576-1.286 1.286zM50.278 69.429l0.999-9h-29.336l1.059 9h27.278zM54.063 57.857l1.157-23.143h-38.371l2.314 23.143h34.899zM52.946 32.143l0.771-3.857h-35.434l0.771 3.857h33.891zM57.857 24.429v-7.714c0-0.71-0.577-1.286-1.286-1.286h-41.143c-0.708 0-1.286 0.576-1.286 1.286v7.714c0 0.71 0.577 1.286 1.286 1.286h41.143c0.708 0 1.286-0.576 1.286-1.286zM36 37.286c7.209 0 12.857 3.954 12.857 9s-5.648 9-12.857 9-12.857-3.954-12.857-9 5.648-9 12.857-9zM36 52.714c5.575 0 10.286-2.944 10.286-6.429s-4.711-6.429-10.286-6.429-10.286 2.944-10.286 6.429 4.711 6.429 10.286 6.429z"></path>
</svg>
