<!-- Generated by IcoMoon.io -->
<svg version="1.1" xmlns="http://www.w3.org/2000/svg" width="72" height="72" viewBox="0 0 72 72">
<title>uniF166</title>
<path d="M52.782 30.066l1.452-0.251v23.65c0 3.371-2.743 6.113-6.113 6.113h-8.044v8.699c0 2.053-1.671 3.724-3.724 3.724h-1.241c-2.053 0-3.724-1.671-3.724-3.724v-8.697h-7.509c-3.371 0-6.113-2.742-6.113-6.113v-35.912c0-9.679 7.876-17.555 17.555-17.555h1.359c5.926 0 11.418 2.989 14.691 7.997l1.247 1.907-2.28 0.014c-0.526 0.001-1.027 0.099-1.488 0.284-1.004 0.406-1.79 1.177-2.213 2.173s-0.433 2.098-0.029 3.102c0.443 1.097 1.362 1.941 2.521 2.317l2.763 0.895-2.556 1.378c-2.414 1.302-3.467 4.188-2.448 6.714 0.942 2.33 3.423 3.717 5.893 3.285zM37.594 68.276v-8.689h-3.724v8.689c0 0.685 0.557 1.241 1.241 1.241h1.241c0.684 0 1.241-0.556 1.241-1.241zM35.321 2.482c-8.311 0-15.072 6.761-15.072 15.072v30.828h31.504v-15.761c-3.098-0.056-5.974-1.966-7.164-4.915-1.218-3.019-0.42-6.389 1.835-8.559-0.936-0.701-1.671-1.643-2.114-2.744-0.653-1.617-0.637-3.395 0.046-5.001 0.683-1.607 1.95-2.851 3.569-3.504 0.074-0.029 0.148-0.058 0.223-0.084-2.857-3.369-7.020-5.331-11.467-5.331h-1.359zM48.121 57.096c2.002 0 3.631-1.628 3.631-3.631v-2.6h-31.504v2.6c0 2.001 1.628 3.631 3.631 3.631h24.242z"></path>
</svg>
