<!-- Generated by IcoMoon.io -->
<svg version="1.1" xmlns="http://www.w3.org/2000/svg" width="72" height="72" viewBox="0 0 72 72">
<title>uniF1BF</title>
<path d="M69.177 48.535c0.779 0 1.412 0.631 1.412 1.412 0 3.114-2.533 5.647-5.647 5.647-1.684 0-3.2-0.741-4.235-1.916-1.035 1.175-2.551 1.916-4.235 1.916s-3.2-0.741-4.235-1.916c-1.035 1.175-2.551 1.916-4.235 1.916s-3.2-0.741-4.235-1.916c-1.035 1.175-2.551 1.916-4.235 1.916s-3.2-0.741-4.235-1.916c-1.035 1.175-2.551 1.916-4.235 1.916s-3.2-0.741-4.235-1.916c-1.035 1.175-2.551 1.916-4.235 1.916s-3.201-0.741-4.235-1.916c-1.035 1.175-2.551 1.916-4.235 1.916s-3.201-0.741-4.235-1.916c-1.035 1.175-2.551 1.916-4.235 1.916-3.114 0-5.647-2.533-5.647-5.647 0-0.781 0.633-1.412 1.412-1.412s1.412 0.631 1.412 1.412c0 1.557 1.266 2.823 2.824 2.823s2.823-1.266 2.823-2.823h2.823c0 1.557 1.266 2.823 2.824 2.823s2.823-1.266 2.823-2.823h2.823c0 1.557 1.266 2.823 2.824 2.823s2.823-1.266 2.823-2.823h2.823c0 1.557 1.266 2.823 2.823 2.823s2.824-1.266 2.824-2.823h2.823c0 1.557 1.266 2.823 2.823 2.823s2.824-1.266 2.824-2.823h2.823c0 1.557 1.266 2.823 2.823 2.823s2.824-1.266 2.824-2.823h2.823c0 1.557 1.266 2.823 2.823 2.823s2.824-1.266 2.824-2.823h2.823c0 1.557 1.266 2.823 2.823 2.823s2.824-1.266 2.824-2.823c0-0.781 0.632-1.412 1.412-1.412zM66.353 57.882c0.779 0 1.412 0.631 1.412 1.412v11.294c0 0.781-0.633 1.412-1.412 1.412h-59.294c-0.779 0-1.412-0.631-1.412-1.412v-11.294c0-0.781 0.632-1.412 1.412-1.412h59.294zM64.941 69.177v-8.471h-56.471v8.471h56.471zM67.765 37.876c2.701 1.031 4.235 2.626 4.235 4.477 0 3.707-5.681 5.647-11.294 5.647-3.466 0-6.614-0.713-8.694-1.934-2.030 1.203-4.924 1.934-8.248 1.934-3.299 0-6.363-0.767-8.459-2.079-2.038 1.287-5.027 2.079-8.482 2.079-2.924 0-5.689-0.604-7.752-1.674-1.996 1.046-4.703 1.674-7.777 1.674-6.439 0-11.294-2.732-11.294-6.353 0-2.763 2.187-5.043 5.647-6.040v-4.549c0-0.031 0.016-0.056 0.018-0.087 0.007-0.128 0.033-0.251 0.075-0.373 0.017-0.045 0.028-0.090 0.048-0.134 0.068-0.144 0.152-0.283 0.27-0.4 0.001-0.001 0.003-0.004 0.004-0.006l29.646-29.646c0.552-0.552 1.444-0.552 1.996 0l29.647 29.646c0.001 0.001 0.003 0.004 0.004 0.006 0.117 0.117 0.202 0.254 0.27 0.4 0.021 0.044 0.032 0.089 0.048 0.134 0.042 0.121 0.066 0.244 0.075 0.373 0.001 0.031 0.017 0.056 0.017 0.087v6.817zM53.288 38.118h11.653v-5.647h-56.471v4.199c0.017 0.172 0.031 0.344 0.040 0.517 0.011 0.22 0.028 0.556 0.075 0.647 0.006 0 0.36 0.285 2.003 0.285h42.7zM36.706 3.408l-26.239 26.239h52.478zM2.823 41.647c0 1.474 3.223 3.529 8.471 3.529 3.161 0 5.568-0.75 7-1.664l0.010-0.007c0.174-0.11 0.318-0.226 0.463-0.342 0.081-0.064 0.162-0.129 0.233-0.193 0.106-0.097 0.201-0.195 0.285-0.294 0.083-0.097 0.152-0.195 0.213-0.292 0.048-0.073 0.1-0.148 0.134-0.222 0.079-0.176 0.133-0.35 0.133-0.515 0-0.169-0.051-0.352-0.15-0.539-0.001-0.003-0.001-0.004-0.003-0.006-0.027-0.052-0.086-0.109-0.12-0.161h-12.433c-0.779 0-1.412-0.631-1.412-1.412v-0.956c-1.93 0.761-2.824 2.003-2.824 3.073zM21.583 44.344c1.499 0.532 3.34 0.833 5.24 0.833 3.771 0 6.471-1.063 7.707-2.208 0.095-0.085 0.184-0.176 0.272-0.277 0.106-0.123 0.199-0.247 0.27-0.37 0.032-0.054 0.064-0.107 0.089-0.162 0.079-0.175 0.133-0.349 0.133-0.512 0-0.167-0.052-0.34-0.14-0.52-0.009-0.017-0.016-0.034-0.024-0.051-0.022-0.044-0.072-0.092-0.1-0.135h-12.507c0.042 0.233 0.065 0.467 0.065 0.706 0 0.237-0.024 0.47-0.062 0.7-0.004 0.020-0.011 0.038-0.016 0.058-0.042 0.216-0.1 0.426-0.176 0.634-0.003 0.006-0.006 0.011-0.009 0.018-0.169 0.452-0.421 0.881-0.743 1.286zM37.437 43.889c1.622 0.81 3.906 1.287 6.328 1.287 3.267 0 5.746-0.796 7.153-1.753l0.072-0.055c0.215-0.151 0.395-0.306 0.556-0.463 0.064-0.059 0.123-0.127 0.184-0.195 0.107-0.122 0.193-0.243 0.265-0.363 0.034-0.055 0.073-0.106 0.102-0.164 0.085-0.183 0.138-0.364 0.138-0.536 0-0.143-0.038-0.292-0.104-0.449-0.006-0.013-0.014-0.027-0.020-0.041-0.032-0.069-0.095-0.144-0.14-0.216h-13.92c0.044 0.234 0.066 0.469 0.066 0.706 0 0.209-0.020 0.415-0.052 0.621-0.016 0.093-0.041 0.183-0.062 0.274-0.024 0.106-0.047 0.212-0.081 0.316-0.038 0.12-0.088 0.239-0.137 0.356-0.028 0.066-0.055 0.134-0.087 0.2-0.068 0.141-0.145 0.278-0.229 0.415-0.011 0.020-0.020 0.040-0.033 0.059zM60.706 45.176c5.255 0 8.471-1.828 8.471-2.823 0-0.308-0.417-0.864-1.447-1.412h-12.736c0.042 0.233 0.065 0.469 0.065 0.706 0 0.182-0.018 0.384-0.049 0.596-0.016 0.095-0.038 0.186-0.059 0.278-0.024 0.107-0.048 0.213-0.083 0.325-0.038 0.123-0.087 0.244-0.138 0.366-0.035 0.083-0.066 0.165-0.109 0.25-0.079 0.159-0.172 0.315-0.271 0.469-0.027 0.041-0.042 0.082-0.072 0.124 1.636 0.7 3.974 1.122 6.429 1.122zM49.412 25.412c0-0.941 0.471-1.412 1.412-1.412s1.412 0.471 1.412 1.412-0.471 1.412-1.412 1.412-1.412-0.471-1.412-1.412zM33.882 12.706c0-0.941 0.471-1.412 1.412-1.412s1.412 0.471 1.412 1.412c0 0.941-0.471 1.412-1.412 1.412s-1.412-0.471-1.412-1.412zM21.176 25.412c0-0.941 0.471-1.412 1.412-1.412s1.412 0.471 1.412 1.412-0.471 1.412-1.412 1.412c-0.941 0-1.412-0.471-1.412-1.412zM39.529 21.176c0-0.941 0.471-1.412 1.412-1.412s1.412 0.471 1.412 1.412-0.471 1.412-1.412 1.412c-0.941 0-1.412-0.471-1.412-1.412zM31.059 22.588c0-0.941 0.471-1.412 1.412-1.412s1.412 0.471 1.412 1.412c0 0.941-0.471 1.412-1.412 1.412s-1.412-0.471-1.412-1.412zM45.176 63.529c0-0.941 0.471-1.412 1.412-1.412s1.412 0.471 1.412 1.412c0 0.941-0.471 1.412-1.412 1.412s-1.412-0.471-1.412-1.412zM56.471 66.353c0-0.941 0.471-1.412 1.412-1.412s1.412 0.471 1.412 1.412c0 0.941-0.471 1.412-1.412 1.412s-1.412-0.471-1.412-1.412zM11.294 66.353c0-0.941 0.471-1.412 1.412-1.412s1.412 0.471 1.412 1.412c0 0.941-0.471 1.412-1.412 1.412s-1.412-0.471-1.412-1.412zM35.294 66.353c0-0.941 0.471-1.412 1.412-1.412s1.412 0.471 1.412 1.412c0 0.941-0.471 1.412-1.412 1.412s-1.412-0.471-1.412-1.412zM22.588 63.529c0-0.941 0.471-1.412 1.412-1.412s1.412 0.471 1.412 1.412c0 0.941-0.471 1.412-1.412 1.412s-1.412-0.471-1.412-1.412z"></path>
</svg>
