<!-- Generated by IcoMoon.io -->
<svg version="1.1" xmlns="http://www.w3.org/2000/svg" width="72" height="72" viewBox="0 0 72 72">
<title>uniF155</title>
<path d="M45.96 32.068c-0.663-0.225-1.017-0.946-0.793-1.608 0.844-2.486 3.559-3.818 6.042-2.98 1.165 0.395 2.433-0.229 2.828-1.394 0.226-0.663 0.943-1.017 1.608-0.793 0.663 0.225 1.017 0.946 0.792 1.608-0.843 2.487-3.556 3.821-6.042 2.98-1.163-0.394-2.432 0.231-2.828 1.394-0.179 0.528-0.672 0.86-1.2 0.86-0.134 0-0.272-0.022-0.407-0.067zM48.958 23.238c-0.663-0.225-1.019-0.945-0.792-1.608 0.409-1.205 1.263-2.179 2.404-2.742 1.14-0.564 2.432-0.648 3.638-0.238 1.167 0.395 2.433-0.229 2.828-1.395 0.224-0.663 0.944-1.021 1.607-0.793 0.662 0.225 1.017 0.946 0.792 1.608-0.844 2.489-3.555 3.823-6.042 2.981-0.564-0.191-1.168-0.153-1.703 0.11s-0.934 0.72-1.125 1.284c-0.179 0.528-0.672 0.86-1.2 0.86-0.134 0-0.272-0.021-0.407-0.067zM51.953 14.409c-0.663-0.225-1.016-0.945-0.792-1.609 0.74-2.181 3.121-3.352 5.303-2.615 0.418 0.143 0.864 0.114 1.258-0.080s0.689-0.531 0.831-0.948c0.226-0.663 0.943-1.020 1.608-0.793 0.663 0.226 1.017 0.947 0.792 1.608-0.36 1.058-1.109 1.912-2.11 2.406-1.002 0.493-2.136 0.566-3.194 0.208-0.858-0.291-1.797 0.171-2.088 1.030-0.179 0.528-0.672 0.86-1.2 0.86-0.136 0-0.272-0.022-0.408-0.067zM61.132 31.974c0.483 0.332 0.753 0.878 0.717 1.462 0 0.008-0.001 0.015-0.001 0.023l-2.211 31.713c-0.195 3.82-3.363 6.83-7.21 6.83h-35.569c-3.847 0-7.015-3.009-7.211-6.852l-2.157-30.647c-0.023-0.454 0.098-0.879 0.317-1.245-0.454-1.807-0.374-3.384 0.307-4.671 1.13-2.131 3.553-3.074 5.562-3.653-0.803-0.912-1.907-1.698-3.094-1.698-0.040 0-0.080 0.004-0.123 0.002-0.682 0-1.244-0.542-1.266-1.228-0.022-0.7 0.528-1.284 1.228-1.306 2.001-0.073 3.782 1.056 5.048 2.437-0.27-0.618-0.413-1.287-0.413-1.982 0-1.157 0.395-2.259 1.109-3.14-0.283-0.731-0.43-1.507-0.43-2.29 0-2.954 2.002-5.437 4.75-6.147 0.019-2.57 1.785-4.781 4.194-5.437 0.483-2.056 2.334-3.593 4.537-3.593 0.788 0 1.556 0.203 2.24 0.584 0.803-0.47 1.744-0.666 2.693-0.554 1.684 0.2 3.14 1.442 3.623 3.092 0.039 0.13 0.071 0.26 0.096 0.391 2.344 0.478 4.209 2.32 4.698 4.672 2.075 0.986 3.535 2.875 4.015 5.084 0.122-0.257 0.245-0.517 0.37-0.783 2.174-4.617 4.881-10.361 8.666-12.314 2.415-1.243 4.275-0.655 5.41 0.058 2.366 1.484 3.539 4.689 3.477 7.091-0.198 7.634-1.579 15.65-4.096 23.832 0.253 0.033 0.502 0.119 0.722 0.27zM47.617 17.444c-1.342 2.506-2.561 5.12-3.666 7.815-0.162 0.398-0.315 0.803-0.473 1.205-0.352 0.898-0.693 1.803-1.019 2.719-0.154 0.435-0.309 0.871-0.457 1.309-0.39 1.154-0.763 2.318-1.11 3.497-0.033 0.109-0.070 0.217-0.101 0.327 0.563-0.063 1.119-0.21 1.622-0.512l0.902-0.542c1.052-0.632 2.233-0.94 3.411-0.933 0.015 0 0.029-0.003 0.043-0.003 1.165 0 2.329 0.312 3.368 0.935l0.903 0.542c0.623 0.374 1.322 0.559 2.021 0.566 0.699-0.008 1.399-0.193 2.022-0.566 0.044-0.028 0.090-0.051 0.137-0.072l2.159-0.959c0.26-0.734 0.442-1.268 0.525-1.533 2.506-8.059 3.875-15.943 4.069-23.434 0.042-1.63-0.822-3.957-2.291-4.88-0.851-0.531-1.8-0.52-2.903 0.048-3.019 1.559-5.63 7.097-7.534 11.142-0.579 1.23-1.126 2.391-1.628 3.327zM31.464 20.45c-1.094 1.395-2.225 2.837-1.703 5.218l0.769 3.521c2.562 0.371 4.117-0.023 6.205-1.507 1.657-1.18 2.999-1.838 4.388-2.191 0.075-0.189 0.156-0.372 0.232-0.561 0.489-1.22 0.995-2.43 1.532-3.616-0.153-0.29-0.341-0.532-0.536-0.765-0.11-0.132-0.229-0.252-0.35-0.37-0.112-0.108-0.224-0.213-0.342-0.309-0.134-0.109-0.269-0.217-0.409-0.314-0.122-0.085-0.246-0.165-0.371-0.242-0.147-0.092-0.293-0.186-0.443-0.271-0.082-0.046-0.166-0.090-0.248-0.134-0.172-0.094-0.343-0.188-0.514-0.278-0.208-0.11-0.409-0.217-0.602-0.323-0.589-0.337-1.012-0.82-1.249-1.4-0.061-0.15-0.099-0.311-0.134-0.473l-5.289 1.157c0.144 0.644 0.071 1.303-0.241 1.889-0.073 0.138-0.161 0.276-0.261 0.409-0.001 0.001-0.002 0.003-0.002 0.005-0.137 0.18-0.281 0.365-0.43 0.555zM37.748 12.755l-7.007 1.533c-0.278 0.061-0.461 0.346-0.4 0.623 0.061 0.276 0.345 0.461 0.623 0.4l6.999-1.532c0.181-0.039 0.281-0.16 0.326-0.228 0.046-0.070 0.114-0.213 0.073-0.395-0.052-0.241-0.276-0.412-0.516-0.412-0.033 0-0.066 0.004-0.099 0.010zM33.653 32.353c0.133-0.008 0.266-0.023 0.4-0.020 0.015 0 0.032-0.002 0.047-0.002 1.164 0 2.329 0.312 3.368 0.935l0.843 0.504c0.331-1.147 0.685-2.283 1.058-3.411 0.079-0.239 0.166-0.474 0.247-0.712 0.113-0.332 0.228-0.662 0.345-0.992-0.542 0.288-1.112 0.635-1.756 1.094-2.045 1.455-3.824 2.112-6.034 2.112-0.341 0-0.705-0.031-1.069-0.061l0.242 1.109c0.648-0.291 1.329-0.466 2.020-0.536 0.096-0.010 0.194-0.013 0.29-0.019zM18.497 19.25c-0.574 0.471-0.903 1.167-0.905 1.908 0 0.316 0.061 0.622 0.176 0.907 0.56-0.366 1.158-0.669 1.789-0.883 0.037-0.013 0.072-0.022 0.109-0.033 0.239-0.076 0.482-0.139 0.731-0.185 0.095-0.018 0.19-0.025 0.285-0.038 0.191-0.024 0.381-0.047 0.578-0.049 0.032 0 0.063-0.008 0.094-0.008 0.101 0 0.201 0.021 0.303 0.028 0.144 0.010 0.284 0.001 0.431 0.023 0.043 0.006 0.085 0.023 0.128 0.030 0.024 0.004 0.048 0.001 0.072 0.006 0.21 0.039 0.42 0.093 0.627 0.158 0.063 0.020 0.127 0.051 0.19 0.073 0.191 0.068 0.381 0.147 0.57 0.239 0.090 0.043 0.177 0.090 0.266 0.138 0.183 0.099 0.362 0.21 0.542 0.331 0.067 0.046 0.136 0.086 0.203 0.134 0.239 0.172 0.478 0.366 0.715 0.578 0.062 0.056 0.123 0.118 0.184 0.175 0.188 0.177 0.374 0.366 0.56 0.568 0.071 0.076 0.142 0.153 0.212 0.233 0.222 0.253 0.442 0.521 0.663 0.811 0.016 0.023 0.034 0.043 0.052 0.066l0.015 0.019c0-0.156 0.019-0.298 0.029-0.447 0.008-0.115 0.010-0.232 0.023-0.343 0.032-0.279 0.081-0.546 0.142-0.805 0.011-0.049 0.016-0.101 0.029-0.15 0.079-0.304 0.177-0.593 0.289-0.869 0.033-0.085 0.072-0.162 0.109-0.243 0.085-0.19 0.171-0.376 0.266-0.554 0.051-0.095 0.103-0.185 0.156-0.276 0.091-0.157 0.184-0.311 0.28-0.459 0.056-0.086 0.11-0.171 0.167-0.253 0.104-0.152 0.209-0.298 0.314-0.441 0.049-0.066 0.096-0.133 0.146-0.198 0.147-0.193 0.291-0.379 0.431-0.556 0.138-0.176 0.274-0.347 0.399-0.516v-0.001c0.073-0.122 0.093-0.17 0.060-0.264-0.057-0.163-0.222-0.324-0.419-0.409-0.797-0.342-1.384-1.053-1.567-1.897l-0.075-0.343c0-0.002-0.001-0.004-0.001-0.005v-0.004l-0.076-0.345c-0.153-0.703-0.024-1.427 0.366-2.034 0.39-0.609 0.992-1.029 1.695-1.182l7.348-1.606c0.004-0.001 0.008 0 0.011-0.001l0.339-0.075c0.703-0.155 1.425-0.024 2.032 0.365 0.608 0.39 1.029 0.992 1.182 1.697l0.153 0.698c0.179 0.825-0.043 1.699-0.596 2.34-0.138 0.161-0.207 0.38-0.176 0.563 0.023 0.133 0.089 0.186 0.143 0.217 0.194 0.108 0.386 0.209 0.585 0.314 0.768 0.404 1.681 0.889 2.529 1.609 0.523-0.757 0.812-1.619 0.831-2.515 0.044-2.097-1.258-3.971-3.239-4.667l-0.787-0.276-0.057-0.832c-0.125-1.817-1.648-3.24-3.469-3.24h-1.427l0.148-1.415c0.027-0.224 0.008-0.445-0.060-0.673-0.198-0.68-0.811-1.21-1.49-1.29-0.552-0.063-1.088 0.117-1.479 0.502l-0.851 0.841-0.888-0.802c-0.28-0.253-0.754-0.555-1.415-0.555-1.149 0-2.088 0.916-2.125 2.055v1.261l-1.171 0.089c-1.627 0.124-2.902 1.499-2.902 3.131 0 0.234 0.030 0.482 0.091 0.732l0.359 1.498-1.538 0.065c-2.053 0.086-3.661 1.76-3.661 3.813 0 0.666 0.179 1.325 0.516 1.908l0.539 0.929zM10.356 29.77c-0.342 0.646-0.413 1.457-0.214 2.459 0.248 0.046 0.49 0.137 0.715 0.27 0 0.001 0.001 0.001 0.001 0.001l1.704 1.024c0.767 0.461 1.625 0.692 2.485 0.699 0.859-0.008 1.718-0.239 2.485-0.699l0.44-0.264c1.052-0.632 2.233-0.94 3.411-0.933 0.015 0 0.029-0.003 0.043-0.003 1.164 0 2.329 0.312 3.368 0.935l0.903 0.542c0.423 0.253 0.888 0.408 1.371 0.49 0.067 0.010 0.133 0.020 0.2 0.027 0.406-2.117 0.096-4.549-0.836-6.195-0.204-0.36-0.407-0.698-0.608-1.016-0.061-0.096-0.123-0.18-0.184-0.274-0.139-0.213-0.279-0.427-0.417-0.62-0.077-0.108-0.153-0.199-0.231-0.3-0.122-0.16-0.243-0.324-0.364-0.469-0.089-0.105-0.176-0.195-0.264-0.293-0.108-0.12-0.215-0.246-0.322-0.353-0.096-0.098-0.193-0.177-0.289-0.265s-0.193-0.181-0.289-0.259c-0.104-0.084-0.207-0.149-0.309-0.222-0.086-0.060-0.172-0.127-0.259-0.179-0.11-0.067-0.219-0.115-0.329-0.168-0.077-0.036-0.153-0.080-0.229-0.109-0.118-0.047-0.234-0.076-0.352-0.105-0.063-0.016-0.127-0.038-0.189-0.049-0.237-0.042-0.482-0.049-0.734-0.021-0.018 0.001-0.035 0.004-0.053 0.006-0.797 0.103-1.678 0.554-2.699 1.384-0.327 0.266-0.665 0.559-1.026 0.905-0.796 0.76-1.776 1.324-2.833 1.626-2.259 0.646-3.561 1.417-4.097 2.426zM57.113 65.018l2.11-30.291-0.194 0.086c-0.049 0.031-0.087 0.076-0.141 0.1l-2.486 1.105c-1.021 0.595-2.16 0.892-3.298 0.892-0.019 0-0.039-0.004-0.058-0.004-1.173 0.005-2.348-0.303-3.394-0.93l-0.904-0.542c-0.625-0.375-1.323-0.56-2.022-0.568-0.699 0.008-1.398 0.193-2.021 0.568l-0.904 0.542c-0.513 0.308-1.064 0.512-1.627 0.668-0.099 0.029-0.199 0.051-0.299 0.075-0.207 0.047-0.411 0.1-0.621 0.127-0.367 0.052-0.737 0.063-1.107 0.052-0.022 0-0.044-0.002-0.066-0.004-1.073-0.044-2.14-0.342-3.099-0.916l-0.904-0.542c-0.625-0.375-1.323-0.56-2.022-0.568-0.699 0.008-1.398 0.193-2.021 0.568l-0.904 0.542c-0.068 0.040-0.147 0.042-0.22 0.068-0.783 0.446-1.632 0.718-2.497 0.816-0.015 0.001-0.028 0.009-0.042 0.010-0.115 0.010-0.229 0.010-0.343 0.015-1.28 0.070-2.575-0.224-3.718-0.91l-0.903-0.542c-0.625-0.375-1.323-0.56-2.022-0.568-0.699 0.008-1.398 0.193-2.021 0.568l-0.44 0.264c-1.195 0.717-2.536 1.069-3.875 1.062-1.338 0.008-2.68-0.345-3.875-1.062l-1.102-0.661 2.108 29.957c0.129 2.518 2.184 4.472 4.682 4.472h35.57c2.496 0 4.553-1.954 4.681-4.448zM15.092 54.49c-0.699 0-1.267-0.566-1.267-1.267s0.568-1.267 1.267-1.267h8.87c0.699 0 1.267 0.566 1.267 1.267s-0.568 1.267-1.267 1.267h-8.87zM15.092 59.558c-0.699 0-1.267-0.566-1.267-1.267s0.568-1.267 1.267-1.267h11.404c0.699 0 1.267 0.566 1.267 1.267s-0.568 1.267-1.267 1.267h-11.404zM29.030 62.093c0.699 0 1.267 0.566 1.267 1.267s-0.568 1.267-1.267 1.267h-13.938c-0.699 0-1.267-0.566-1.267-1.267s0.568-1.267 1.267-1.267h13.938zM36.633 62.093c0.699 0 1.267 0.566 1.267 1.267s-0.568 1.267-1.267 1.267h-2.534c-0.699 0-1.267-0.566-1.267-1.267s0.568-1.267 1.267-1.267h2.534z"></path>
</svg>
