<!-- Generated by IcoMoon.io -->
<svg version="1.1" xmlns="http://www.w3.org/2000/svg" width="72" height="72" viewBox="0 0 72 72">
<title>uniF15F</title>
<path d="M51.087 47.462c0.132 1.002-0.174 2.011-0.84 2.771s-1.626 1.196-2.637 1.196h-6.156v16.714c0 2.127-1.731 3.857-3.857 3.857h-3.857c-2.127 0-3.857-1.731-3.857-3.857v-16.714h-5.491c-1.011 0-1.971-0.436-2.637-1.196s-0.972-1.769-0.841-2.771l5.091-38.697c0.657-4.996 4.955-8.765 9.995-8.765 1.189 0 2.335 0.216 3.402 0.602 0.032 0.010 0.063 0.018 0.094 0.031 3.415 1.273 6 4.348 6.499 8.132zM24.159 48.826l21.663-21.666-0.895-6.804-20.56 20.56-0.905 6.883c-0.048 0.365 0.121 0.62 0.225 0.739 0.081 0.091 0.238 0.229 0.472 0.288zM26.086 27.86l-1.167 8.869 19.585-19.585-0.895-6.805zM42.965 7.347c-0.697-1.764-2.029-3.177-3.707-3.995l-11.454 11.454-1.167 8.868zM36 2.571c-3.754 0-6.956 2.808-7.447 6.531l-0.199 1.517 8.014-8.014c-0.123-0.006-0.243-0.035-0.368-0.035zM27.764 48.857h7.541l11.836-11.682-0.895-6.8zM35.81 51.429h-3.356v7.060c1.179 0.141 2.777 0.564 3.595 1.833 0.462 0.716 0.822 1.954-0.087 3.781-0.107 0.215-0.095 0.301-0.095 0.302 0.099 0.328 1.119 0.73 3.016 1.194v-5.333c-2.345-0.548-4.096-2.534-4.096-4.913 0-1.591 0.795-2.994 2.012-3.925h-0.95c-0.006 0-0.013 0.004-0.019 0.004s-0.013-0.004-0.019-0.004zM38.883 53.14c-0.901 0.418-1.525 1.25-1.525 2.214s0.623 1.795 1.525 2.213v-4.427zM37.597 69.429c0.674 0 1.212-0.526 1.266-1.185-0.131-0.032-0.256-0.063-0.397-0.096-1.851-0.445-4.155-0.996-4.928-2.65-0.252-0.54-0.436-1.419 0.122-2.539 0.134-0.271 0.427-0.936 0.228-1.245-0.192-0.297-0.791-0.503-1.434-0.617v7.047c0 0.71 0.577 1.286 1.286 1.286h3.857zM48.313 48.538c0.104-0.12 0.272-0.374 0.225-0.739l-0.977-7.425-8.595 8.483h8.644c0.369 0 0.599-0.199 0.703-0.319z"></path>
</svg>
