<!-- Generated by IcoMoon.io -->
<svg version="1.1" xmlns="http://www.w3.org/2000/svg" width="72" height="72" viewBox="0 0 72 72">
<title>uniF19D</title>
<path d="M58.266 11.886c2.598 1.194 6.155 2.831 6.155 8.858v39.402c0 6.535-5.318 11.853-11.854 11.853h-33.135c-6.536 0-11.854-5.318-11.854-11.853v-39.402c0-6.028 3.557-7.665 6.155-8.857 1.515-0.697 2.28-1.11 2.559-1.784-0.114-0.004-0.221-0.030-0.332-0.044-0.12-0.014-0.24-0.021-0.356-0.047-0.128-0.029-0.248-0.076-0.371-0.116-0.11-0.037-0.222-0.066-0.327-0.111-0.119-0.052-0.226-0.12-0.337-0.183-0.098-0.055-0.202-0.105-0.296-0.169-0.105-0.073-0.196-0.16-0.293-0.243-0.086-0.073-0.178-0.14-0.258-0.221-0.090-0.091-0.164-0.197-0.245-0.297-0.071-0.088-0.148-0.168-0.21-0.261-0.076-0.114-0.133-0.239-0.196-0.36-0.049-0.093-0.107-0.181-0.148-0.278-0.059-0.143-0.097-0.296-0.139-0.447-0.024-0.086-0.061-0.168-0.078-0.256-0.049-0.244-0.076-0.495-0.076-0.754v-2.526c0-2.089 1.7-3.789 3.789-3.789h37.895c2.089 0 3.789 1.7 3.789 3.789v2.526c0 0.237-0.028 0.469-0.069 0.695-0.013 0.069-0.033 0.136-0.049 0.205-0.039 0.157-0.086 0.31-0.143 0.457-0.027 0.071-0.054 0.139-0.085 0.207-0.071 0.154-0.151 0.301-0.241 0.443-0.029 0.045-0.053 0.095-0.085 0.14-0.124 0.181-0.264 0.35-0.417 0.505-0.037 0.038-0.078 0.069-0.118 0.106-0.124 0.115-0.251 0.222-0.389 0.321-0.061 0.043-0.124 0.082-0.187 0.122-0.131 0.082-0.267 0.155-0.408 0.221-0.064 0.030-0.128 0.063-0.194 0.090-0.032 0.011-0.059 0.029-0.090 0.040 0.194 0.82 0.952 1.243 2.635 2.017zM15.158 3.789v2.526c0 0.697 0.566 1.263 1.263 1.263h37.895c0.697 0 1.263-0.566 1.263-1.263v-2.526c0-0.697-0.566-1.263-1.263-1.263h-37.895c-0.697 0-1.263 0.566-1.263 1.263zM61.895 60.147v-39.402c0-4.408-2.276-5.456-4.685-6.563-1.77-0.815-3.738-1.744-4.085-4.076h-34.249c-0.347 2.332-2.315 3.262-4.085 4.076-2.409 1.109-4.685 2.155-4.685 6.563v39.402c0 5.144 4.185 9.327 9.327 9.327h33.135c5.144 0 9.327-4.184 9.327-9.327zM18.054 2.896l1.786 1.786-2.526 2.526-1.786-1.786zM23.107 2.896l1.786 1.786-2.526 2.526-1.786-1.786zM28.16 2.896l1.786 1.786-2.526 2.526-1.786-1.786zM33.212 2.896l1.786 1.786-2.526 2.526-1.786-1.786zM38.265 2.896l1.786 1.786-2.526 2.526-1.786-1.786zM43.317 2.896l1.786 1.786-2.526 2.526-1.786-1.786zM48.37 2.896l1.786 1.786-2.526 2.526-1.786-1.786zM53.421 2.896l1.786 1.786-2.526 2.526-1.786-1.786zM60.632 27.158c0 6.066-2.602 11.269-6.284 13.44 3.632 1.033 6.284 4.203 6.284 7.944 0 2.886-1.58 5.432-3.97 6.92 1.632 1.143 2.707 3.030 2.707 5.17 0 3.483-2.833 6.316-6.316 6.316h-6.316c-3.483 0-6.316-2.833-6.316-6.316 0-0.086 0.021-0.166 0.025-0.251-0.504 0.133-1.032 0.211-1.575 0.235 0.952 0.805 1.55 1.928 1.55 3.174 0 2.438-2.266 4.421-5.053 4.421-2.425 0-4.454-1.504-4.939-3.5-1.971 2.134-4.969 3.5-8.324 3.5-5.921 0-10.737-4.249-10.737-9.474 0-4.047 2.896-7.499 6.952-8.855-4.244-1.714-6.952-4.436-6.952-7.566 0-2.515 1.756-4.765 4.64-6.443-1.997-1.062-3.376-3.14-3.376-5.557v-8.842c0-3.483 2.833-6.316 6.316-6.316s6.316 2.833 6.316 6.316v0.683c1.343-1.206 3.11-1.947 5.053-1.947 0.49 0 0.969 0.050 1.432 0.14-0.104-0.454-0.169-0.92-0.169-1.403 0-3.483 2.833-6.316 6.316-6.316 2.605 0 4.844 1.587 5.809 3.843 1.8-2.377 4.191-3.843 6.822-3.843 5.572 0 10.105 6.517 10.105 14.526zM42.621 36.182c-1.373-2.481-2.2-5.613-2.2-9.024 0-0.86 0.062-1.699 0.163-2.519-0.82 0.389-1.724 0.624-2.689 0.624-0.158 0-0.304-0.035-0.46-0.047 0.292 0.805 0.46 1.669 0.46 2.573 0 2.251-0.992 4.269-2.555 5.659 2.867 0.568 5.365 1.511 7.282 2.733zM43.012 49.501c-0.039-0.316-0.064-0.634-0.064-0.959 0-0.11 0.013-0.215 0.018-0.323-0.315 0.215-0.649 0.419-0.998 0.618 0.37 0.193 0.721 0.414 1.044 0.665zM46.688 41.775c0.357-0.239 0.734-0.451 1.127-0.638-0.493-0.197-0.969-0.443-1.427-0.741 0.166 0.447 0.253 0.91 0.301 1.379zM37.895 15.158c-2.089 0-3.789 1.7-3.789 3.79s1.7 3.789 3.789 3.789c2.089 0 3.789-1.7 3.789-3.789s-1.7-3.79-3.789-3.79zM30.316 22.737c-2.787 0-5.053 2.266-5.053 5.053s2.266 5.053 5.053 5.053 5.053-2.266 5.053-5.053-2.266-5.053-5.053-5.053zM15.158 21.474v8.842c0 2.089 1.7 3.789 3.79 3.789s3.789-1.7 3.789-3.789v-8.842c0-2.089-1.7-3.79-3.789-3.79s-3.79 1.7-3.79 3.79zM13.895 42.316c0 3.355 6.091 6.947 15.158 6.947 2.483 0 4.733-0.277 6.705-0.738 0.5-0.198 1.031-0.34 1.583-0.427 4.288-1.329 6.87-3.603 6.87-5.783 0-3.355-6.091-6.947-15.158-6.947s-15.158 3.592-15.158 6.947zM29.37 51.781c0.885 0.721 1.638 1.565 2.21 2.51 0.004-0.951 0.246-1.849 0.666-2.658-0.933 0.087-1.893 0.139-2.876 0.148zM22.105 65.684c4.527 0 8.21-3.118 8.21-6.947s-3.683-6.948-8.21-6.948c-4.527 0-8.211 3.118-8.211 6.948s3.683 6.947 8.211 6.947zM32.793 57.875c0.029 0.284 0.049 0.571 0.049 0.861 0 0.442-0.047 0.874-0.113 1.301 0.531-0.288 1.123-0.493 1.761-0.591-0.661-0.431-1.238-0.961-1.698-1.571zM35.368 65.684c1.369 0 2.526-0.868 2.526-1.895s-1.157-1.895-2.526-1.895-2.526 0.868-2.526 1.895 1.157 1.895 2.526 1.895zM38.526 58.105c1.152 0 2.193-0.389 2.981-1.008 0.27-0.399 0.596-0.752 0.947-1.079 0.304-0.514 0.493-1.088 0.493-1.703 0-2.089-1.983-3.79-4.421-3.79-0.26 0-0.513 0.029-0.759 0.066-0.352 0.105-0.716 0.198-1.084 0.29-1.517 0.601-2.578 1.909-2.578 3.433 0 2.089 1.983 3.789 4.421 3.789zM53.053 56.842h-6.316c-0.884 0-1.689 0.317-2.334 0.827-0.269 0.389-0.58 0.752-0.933 1.077-0.323 0.557-0.522 1.195-0.522 1.885 0 2.089 1.7 3.789 3.789 3.789h6.316c2.089 0 3.79-1.7 3.79-3.789s-1.7-3.789-3.79-3.789zM58.105 48.542c0-3.184-2.833-5.774-6.316-5.774s-6.316 2.591-6.316 5.774 2.833 5.774 6.316 5.774 6.316-2.591 6.316-5.774zM50.526 39.158c4.108 0 7.579-5.496 7.579-12s-3.471-12-7.579-12-7.579 5.496-7.579 12c0 6.504 3.471 12 7.579 12z"></path>
</svg>
