<!-- Generated by IcoMoon.io -->
<svg version="1.1" xmlns="http://www.w3.org/2000/svg" width="72" height="72" viewBox="0 0 72 72">
<title>uniF13A</title>
<path d="M68.506 7.951c4.051 8.991 3.952 19.246-0.012 28.080 0.255 0.512 0.397 1.038 0.397 1.578v0.191c0 18.858-15.342 34.2-34.2 34.2-18.856 0-34.199-15.342-34.199-34.2v-0.191c0-2.161 2-4.015 5.902-5.526 0.404-0.823 1.006-1.698 1.808-2.622-3.359-8.5-3.252-18.141 0.583-26.653l0.074-0.165s0.001-0.001 0.001-0.003l0.003-0.007c2.816-6.254 22.489-0.126 35.022 5.524 0.396 0.178 0.786 0.362 1.178 0.543 5.589-1.883 16.602-5.057 21.392-2.782l0.015-0.032c0.129 0.062 0.239 0.136 0.357 0.204 0.056 0.032 0.114 0.062 0.168 0.095 0.287 0.182 0.538 0.386 0.755 0.612 0.048 0.049 0.088 0.103 0.133 0.155 0.216 0.249 0.402 0.517 0.538 0.815 0.001 0.003 0.004 0.006 0.006 0.009zM43.27 43.784c8.291-0.556 15.503-1.897 19.629-3.737 0.463-0.658 0.9-1.349 1.318-2.058 0.023-0.039 0.045-0.080 0.068-0.119 0.049-0.085 0.095-0.171 0.145-0.256 0.36-0.63 0.703-1.275 1.025-1.938 0.109-0.226 0.223-0.45 0.327-0.679 0.106-0.234 0.207-0.47 0.308-0.706 0.152-0.356 0.297-0.715 0.436-1.077 0.093-0.24 0.184-0.482 0.269-0.724 0.132-0.371 0.253-0.744 0.371-1.119 0.074-0.235 0.149-0.467 0.217-0.703 0.119-0.41 0.221-0.821 0.323-1.233 0.051-0.206 0.106-0.408 0.152-0.614 0.125-0.554 0.232-1.114 0.326-1.674 0.010-0.064 0.026-0.127 0.036-0.191 0.101-0.627 0.181-1.256 0.243-1.887 0.019-0.187 0.026-0.375 0.042-0.562 0.036-0.443 0.068-0.887 0.085-1.333 0.009-0.236 0.009-0.472 0.013-0.709 0.006-0.4 0.009-0.799 0-1.198-0.006-0.251-0.017-0.501-0.029-0.751-0.017-0.389-0.042-0.777-0.074-1.165-0.020-0.252-0.044-0.504-0.071-0.755-0.042-0.392-0.094-0.783-0.151-1.174-0.035-0.243-0.068-0.488-0.11-0.729-0.071-0.415-0.155-0.828-0.243-1.242-0.045-0.211-0.085-0.426-0.135-0.637-0.122-0.521-0.262-1.039-0.411-1.556-0.029-0.1-0.052-0.203-0.083-0.303-0.004-0.016-0.012-0.030-0.016-0.046-1.188 1.686-3.055 3.471-5.314 5.261l0.065 0.043-1.666 1.227c-0.577 0.424-1.184 0.851-1.806 1.279-0.191 0.132-0.391 0.263-0.586 0.395-0.453 0.307-0.913 0.612-1.388 0.918-0.218 0.142-0.44 0.282-0.663 0.424-0.495 0.313-1 0.625-1.515 0.938-0.2 0.122-0.395 0.243-0.598 0.363-0.663 0.396-1.342 0.793-2.035 1.187-0.061 0.033-0.117 0.068-0.177 0.101-0.758 0.43-1.534 0.855-2.324 1.279-0.23 0.123-0.466 0.243-0.698 0.366-0.546 0.288-1.094 0.573-1.651 0.858-0.33 0.168-0.663 0.334-0.997 0.501-0.236 0.119-0.467 0.237-0.705 0.355l-0.562 0.275-0.009-0.003c-0.472 0.229-0.944 0.456-1.421 0.682-0.725 0.345-1.442 0.679-2.139 0.993-0.86 0.386-1.76 0.774-2.678 1.162-8.55 3.637-16.727 6.102-22.76 6.814l-0.336 0.039-0.074-0.026c-1.689 0.181-3.232 0.219-4.557 0.075 0.022 0.035 0.040 0.071 0.062 0.106 0.255 0.408 0.531 0.805 0.806 1.201 0.149 0.214 0.286 0.436 0.44 0.647 0.436 0.598 0.891 1.182 1.371 1.751 0.239 0.052 0.491 0.1 0.735 0.149 0.426 0.085 0.851 0.171 1.292 0.25 0.311 0.056 0.631 0.107 0.948 0.161 0.45 0.075 0.905 0.151 1.369 0.22 0.318 0.048 0.644 0.093 0.97 0.137 0.501 0.069 1.006 0.136 1.521 0.198 0.294 0.036 0.592 0.071 0.89 0.104 0.572 0.064 1.152 0.123 1.738 0.18 0.263 0.025 0.528 0.051 0.796 0.074 0.634 0.056 1.276 0.106 1.925 0.152 0.245 0.017 0.486 0.036 0.732 0.052 0.677 0.045 1.366 0.081 2.057 0.114 0.232 0.012 0.462 0.025 0.695 0.035 0.715 0.030 1.437 0.052 2.161 0.071 0.221 0.004 0.439 0.015 0.662 0.019 0.939 0.019 1.884 0.031 2.835 0.031 2.929 0 5.812-0.098 8.577-0.284zM10.017 7.762c-2.132 7.044-1.688 14.625 1.172 21.36l0.025 0.056c0.42 0.981 0.89 1.929 1.394 2.847 0.056 0.1 0.113 0.198 0.169 0.298 0.505 0.896 1.041 1.764 1.62 2.586 0.36 0.159 0.764 0.32 1.198 0.482 2.434-0.308 5.456-0.929 9.012-1.954 0.091-0.026 0.185-0.055 0.278-0.082 0.755-0.221 1.533-0.459 2.334-0.715 0.428-0.139 0.867-0.291 1.302-0.437 0.517-0.174 1.025-0.34 1.559-0.528 0.99-0.352 1.993-0.722 3.009-1.113 0.031-0.012 0.059-0.022 0.090-0.033 2.201-0.851 4.455-1.792 6.724-2.815 0.359-0.162 0.69-0.324 1.042-0.486-1.583-0.643-3.168-1.308-4.741-2.017-9.532-4.294-21.996-11.493-26.187-17.448zM42.697 10.795c-18.469-8.32-30.293-8.97-31.196-6.973-0.9 1.999 7.422 10.428 25.89 18.748 2.358 1.062 4.746 2.055 7.106 2.957 0.162-0.081 0.323-0.161 0.483-0.242 0.871-0.437 1.729-0.88 2.569-1.326 0.014-0.007 0.029-0.016 0.043-0.023 0.24-0.129 0.479-0.256 0.716-0.385 0.809-0.437 1.599-0.878 2.372-1.321 0.23-0.132 0.47-0.265 0.695-0.397 0.712-0.415 1.394-0.832 2.070-1.249 0.18-0.111 0.371-0.224 0.546-0.334 0.143-0.090 0.285-0.18 0.427-0.269 0.886-0.564 1.706-1.116 2.488-1.657-0.959-0.604-1.965-1.204-2.996-1.8-0.541-0.313-1.111-0.624-1.672-0.935-0.511-0.284-1.016-0.569-1.54-0.85-0.643-0.346-1.305-0.685-1.968-1.025-0.477-0.245-0.954-0.491-1.44-0.732-0.676-0.337-1.365-0.667-2.055-0.996-0.841-0.399-1.677-0.803-2.538-1.191zM8.707 34.134c-0.013 0.065-0.033 0.139-0.036 0.195-0.012 0.142-0.004 0.268 0.035 0.357l0.001 0.001c0.227 0.502 1.146 0.835 2.686 0.923-0.175-0.266-0.355-0.531-0.521-0.802-0.065-0.106-0.123-0.216-0.187-0.321-0.389-0.648-0.755-1.307-1.098-1.976-0.016-0.032-0.035-0.061-0.051-0.091-0.398 0.57-0.621 1.023-0.745 1.388-0.040 0.117-0.064 0.221-0.084 0.324zM65.308 8.547c-1.534-0.815-6.561-1.049-16.455 1.968 1.038 0.52 2.054 1.046 3.051 1.579 0.023 0.013 0.048 0.026 0.072 0.039 1.905 1.020 3.725 2.060 5.445 3.11 0.174 0.106 0.346 0.211 0.517 0.317 0.502 0.311 0.994 0.624 1.478 0.936 4.735-3.64 6.834-6.465 6.377-7.521-0.003-0.009-0.013-0.016-0.017-0.025-0.046-0.085-0.116-0.159-0.194-0.224-0.032-0.026-0.066-0.052-0.104-0.078-0.056-0.038-0.112-0.072-0.168-0.101zM5.905 35.433c-1.939 0.954-2.517 1.777-2.518 2.174 0 0.055 0.020 0.126 0.046 0.198 0.010 0.029 0.020 0.056 0.035 0.087 0.025 0.052 0.064 0.112 0.101 0.171 0.054 0.078 0.116 0.161 0.195 0.249 0.007 0.010 0.017 0.019 0.025 0.027 0.624 0.676 2.087 1.634 5.071 2.602-0.054-0.081-0.097-0.166-0.151-0.247-0.327-0.498-0.631-1.009-0.931-1.522-0.146-0.252-0.304-0.498-0.444-0.753-0.425-0.776-0.826-1.564-1.19-2.371l-0.072-0.159-0.001-0.003c-0.001-0.003-0.003-0.007-0.004-0.010h0.001c-0.065-0.145-0.12-0.292-0.164-0.443zM65.851 40.855c-0.261 0.395-0.527 0.782-0.803 1.159-0.009 0.015-0.017 0.029-0.027 0.042l-0.218 0.303-0.337 0.158c-5.819 2.741-17.228 4.445-29.773 4.445-0.991 0-1.976-0.013-2.952-0.033-0.245-0.006-0.485-0.014-0.728-0.022-0.748-0.019-1.491-0.043-2.227-0.075-0.247-0.010-0.491-0.023-0.737-0.036-0.728-0.035-1.45-0.075-2.164-0.123-0.243-0.016-0.483-0.033-0.724-0.051-0.703-0.051-1.398-0.107-2.085-0.169-0.245-0.022-0.488-0.045-0.731-0.068-0.664-0.064-1.317-0.135-1.964-0.21-0.252-0.029-0.507-0.058-0.755-0.088-0.621-0.077-1.229-0.161-1.831-0.248-0.253-0.036-0.511-0.071-0.76-0.109-0.663-0.101-1.308-0.21-1.947-0.323-0.156-0.027-0.32-0.052-0.473-0.081-0.023-0.004-0.048-0.007-0.071-0.012-0.010-0.001-0.019-0.004-0.029-0.006-0.004-0.001-0.010-0.001-0.015-0.003-0.771-0.143-1.515-0.294-2.23-0.452l-0.077-0.017-0.388-0.085-0.003-0.003c-0.831-0.191-1.66-0.404-2.473-0.635-0.059-0.017-0.116-0.033-0.175-0.051-0.621-0.18-1.229-0.372-1.819-0.577-0.165-0.058-0.327-0.114-0.486-0.174-0.444-0.164-0.875-0.336-1.292-0.517-0.214-0.093-0.421-0.185-0.621-0.279-0.342-0.162-0.669-0.33-0.98-0.504-0.096-0.054-0.214-0.103-0.305-0.158 1.993 15.354 15.154 27.252 31.044 27.252 16.233 0 29.618-12.418 31.158-28.251z"></path>
</svg>
