<!-- Generated by IcoMoon.io -->
<svg version="1.1" xmlns="http://www.w3.org/2000/svg" width="72" height="72" viewBox="0 0 72 72">
<title>uniF196</title>
<path d="M31.424 46.136c1.232 0.156 2.436 0.605 3.498 1.374l3.918 2.224-3.918 2.222c-1.332 0.966-2.883 1.448-4.435 1.448-1.551 0-3.102-0.482-4.434-1.448l-3.064-1.737-0.658-0.661-1.733-3.056c-1.933-2.662-1.932-6.207 0-8.869l2.223-3.919 2.222 3.919c0.769 1.060 1.219 2.262 1.375 3.491 0.914-0.634 1.972-1.082 3.132-1.266l4.343-1.2-1.2 4.343c-0.185 1.161-0.633 2.221-1.269 3.135zM29.982 42.241c-2.25 0.335-3.987 2.071-4.321 4.32l-0.113 0.441 0.441-0.112c2.249-0.334 3.986-2.072 4.32-4.321l0.113-0.439zM22.587 39.012c-1.355 1.828-1.355 4.284 0 6.11l0.231 0.391 0.231-0.391c1.355-1.828 1.355-4.283 0-6.11l-0.231-0.391zM33.543 49.967l0.391-0.231-0.391-0.232c-1.829-1.352-4.286-1.352-6.113 0l-0.391 0.232 0.391 0.231c1.825 1.351 4.283 1.353 6.113 0zM25.352 36.804c-0.473-0.472-0.473-1.238 0-1.712l4.248-4.248c0.473-0.473 1.238-0.473 1.712 0s0.473 1.238 0 1.712l-4.248 4.247c-0.236 0.236-0.546 0.355-0.856 0.355s-0.62-0.119-0.856-0.355zM29.401 37.891c-0.472-0.473-0.472-1.239 0-1.712l5.309-5.31c0.473-0.473 1.238-0.473 1.712 0s0.473 1.238 0 1.712l-5.309 5.31c-0.236 0.236-0.546 0.355-0.856 0.355s-0.62-0.119-0.856-0.355zM40.26 35.59c0.473-0.472 1.238-0.473 1.712 0s0.473 1.238 0 1.712l-5.31 5.31c-0.236 0.236-0.546 0.355-0.856 0.355s-0.62-0.119-0.856-0.355c-0.473-0.473-0.473-1.238 0-1.712zM35.027 37.379c-0.473-0.473-0.473-1.24 0-1.712l4.779-4.778c0.473-0.473 1.238-0.473 1.712 0s0.473 1.238 0 1.712l-4.779 4.778c-0.236 0.236-0.546 0.355-0.856 0.355s-0.62-0.119-0.856-0.355zM39.87 41.117c0.472-0.473 1.238-0.473 1.712 0s0.473 1.238 0 1.712l-4.248 4.248c-0.236 0.236-0.546 0.355-0.856 0.355s-0.62-0.119-0.856-0.355c-0.473-0.473-0.473-1.238 0-1.712zM10.086 48.648l1.712-1.712 1.712 1.712-1.712 1.712zM12.655 51.217l1.712-1.713 1.713 1.712-1.712 1.713zM15.22 53.782l1.712-1.712 1.712 1.712-1.712 1.712zM17.788 56.351l1.712-1.712 1.712 1.712-1.712 1.712zM20.356 58.918l1.712-1.712 1.712 1.712-1.712 1.712zM24.636 63.199l-1.712-1.712 1.712-1.712 1.712 1.712zM30.014 17.927l1.852-3.709 26.345 26.345-3.708 1.853c-2.963 1.481-5.653 3.42-7.996 5.763l-17.039 17.039-3.018 6.672-0.678 0.081c-0.168 0.019-0.338 0.029-0.511 0.029-1.364 0-2.836-0.626-4.116-1.761-1.244-1.109-2.059-2.491-2.262-3.808-1.141-0.126-2.166-0.6-2.937-1.37-0.766-0.767-1.241-1.785-1.368-2.921-1.134-0.128-2.153-0.602-2.92-1.369-0.767-0.766-1.242-1.784-1.369-2.92-1.133-0.128-2.152-0.602-2.918-1.367-0.771-0.771-1.247-1.797-1.373-2.938-1.318-0.205-2.702-1.018-3.808-2.262-1.281-1.44-1.911-3.127-1.732-4.626l0.081-0.675 6.707-3.054 17.002-17.005c2.342-2.341 4.282-5.033 5.764-7.996zM32.53 18.306l-0.351 0.703c-1.6 3.198-3.692 6.1-6.218 8.626l-16.731 16.732 1.712 1.712-1.713 1.712-1.712-1.712 1.129-1.127-5.761 2.624c0.119 0.669 0.513 1.427 1.112 2.101 0.811 0.913 1.846 1.501 2.636 1.501h0.002c0.479 0.013 0.905 0.186 1.235 0.516 0.328 0.329 0.516 0.777 0.513 1.23-0.002 0.753 0.237 1.392 0.695 1.85 0.459 0.456 1.077 0.734 1.848 0.693h0.007c0.473 0 0.911 0.178 1.236 0.502s0.503 0.765 0.501 1.241c-0.002 0.753 0.237 1.392 0.695 1.85 0.455 0.455 1.091 0.695 1.837 0.695 0.006-0.001 0.013-0.001 0.021 0 0.473 0 0.911 0.178 1.235 0.501 0.326 0.326 0.505 0.766 0.502 1.243-0.002 0.753 0.237 1.392 0.695 1.85 0.454 0.454 1.089 0.693 1.836 0.693 0.006-0.001 0.013-0.001 0.021 0 0.45 0 0.894 0.186 1.223 0.513 0.33 0.329 0.518 0.779 0.516 1.236-0.001 0.789 0.587 1.825 1.501 2.636 0.672 0.598 1.43 0.993 2.1 1.112l1.908-4.217-1.269-1.269 1.712-1.712 0.856 0.856 16.732-16.732c2.528-2.528 5.429-4.619 8.626-6.217l0.703-0.352zM49.213 1.396l1.686 1.738-14.432 14-1.686-1.738zM57.047 37.642l-1.756-1.667 13.253-13.969 1.756 1.667zM57.020 1.712l-17.975 17.975-1.712-1.712 17.976-17.976zM62.158 1.712l-20.542 20.542-1.712-1.712 20.54-20.542zM65.58 3.423l-21.398 21.399-1.712-1.712 21.397-21.399zM68.148 5.991l-21.397 21.399-1.712-1.712 21.397-21.399zM49.318 29.958l-1.712-1.712 20.542-20.542 1.712 1.712zM51.886 32.527l-1.712-1.712 19.686-19.686 1.712 1.712zM54.471 35.086l-1.733-1.691 17.030-17.456 1.733 1.691z"></path>
</svg>
