<!-- Generated by IcoMoon.io -->
<svg version="1.1" xmlns="http://www.w3.org/2000/svg" width="72" height="72" viewBox="0 0 72 72">
<title>uniF1B9</title>
<path d="M70.37 1.63c1.051 1.050 1.63 2.452 1.63 3.945s-0.579 2.896-1.63 3.946l-0.172 0.143-9.862 6.77 2.658 2.738c1.415 1.417 1.417 3.743-0.010 5.174l-38.134 38.642c-0.696 0.697-1.617 1.079-2.601 1.079s-1.905-0.382-2.596-1.073l-3.074-2.875-7.058 10.251c-1.051 1.051-2.452 1.63-3.946 1.63-1.495 0-2.897-0.579-3.947-1.63-1.051-1.051-1.63-2.452-1.63-3.945 0-1.495 0.579-2.896 1.628-3.946l0.186-0.153 9.995-6.666-3.137-2.934c-1.46-1.461-1.46-3.789-0.031-5.22l39.156-38.651c1.369-1.371 3.801-1.378 5.185 0.006l2.755 2.838 6.74-10.070c1.051-1.051 2.452-1.63 3.947-1.63 1.494 0 2.894 0.579 3.945 1.63zM7.716 68.711l6.88-10.022-1.167-1.166-10.147 6.765c-0.541 0.58-0.836 1.334-0.836 2.136 0 0.839 0.324 1.626 0.913 2.214 1.152 1.152 3.174 1.183 4.356 0.072zM61.249 22.618c0.478-0.476 0.478-1.253 0.001-1.73l-10.011-10.311c-0.215-0.215-0.524-0.343-0.851-0.343s-0.635 0.126-0.864 0.356l-39.156 38.651c-0.471 0.471-0.471 1.248 0.007 1.725l10.98 10.268c0.519 0.515 1.303 0.487 1.759 0.028zM68.711 7.716c0.543-0.579 0.842-1.335 0.842-2.14 0-0.842-0.324-1.628-0.913-2.217-1.152-1.151-3.166-1.182-4.352-0.077l-6.765 10.147 1.166 1.167zM22.607 42.403c0.478 0.478 0.478 1.253 0 1.73l-6.117 6.117c-0.239 0.239-0.552 0.358-0.865 0.358s-0.626-0.12-0.865-0.358c-0.478-0.478-0.478-1.251 0-1.73l6.117-6.117c0.478-0.478 1.251-0.478 1.73 0zM29.948 42.403c0.478 0.478 0.478 1.253 0 1.73l-9.787 9.787c-0.239 0.239-0.552 0.358-0.865 0.358s-0.626-0.12-0.865-0.358c-0.478-0.478-0.478-1.252 0-1.73l9.787-9.787c0.478-0.478 1.252-0.478 1.73 0zM35.558 42.403c0.478-0.477 1.252-0.478 1.73 0s0.478 1.251 0 1.73l-13.458 13.458c-0.239 0.239-0.552 0.358-0.865 0.358s-0.626-0.12-0.865-0.358c-0.478-0.478-0.478-1.252 0-1.73z"></path>
</svg>
