<!-- Generated by IcoMoon.io -->
<svg version="1.1" xmlns="http://www.w3.org/2000/svg" width="72" height="72" viewBox="0 0 72 72">
<title>uniF157</title>
<path d="M21.289 60.766l-3.661-2.441c-0.56-0.375-0.711-1.131-0.338-1.693 0.375-0.561 1.131-0.713 1.693-0.338l3.661 2.441c0.56 0.375 0.711 1.131 0.338 1.693-0.236 0.353-0.622 0.543-1.017 0.543-0.233 0-0.469-0.067-0.676-0.205zM27.522 60.841c-0.603-0.301-0.848-1.034-0.545-1.639l1.22-2.441c0.301-0.603 1.032-0.846 1.638-0.546 0.603 0.301 0.847 1.035 0.545 1.638l-1.22 2.441c-0.215 0.428-0.646 0.675-1.093 0.675-0.183 0-0.369-0.041-0.544-0.128zM34.298 63.957l-1.22-2.439c-0.301-0.603-0.057-1.336 0.546-1.638 0.605-0.3 1.336-0.057 1.638 0.545l1.22 2.441c0.301 0.603 0.057 1.336-0.545 1.638-0.175 0.087-0.361 0.128-0.544 0.128-0.449 0-0.88-0.247-1.093-0.675zM39.726 59.621c-0.603-0.301-0.848-1.034-0.545-1.639l1.22-2.441c0.301-0.602 1.032-0.844 1.638-0.545 0.603 0.301 0.847 1.035 0.545 1.638l-1.22 2.441c-0.215 0.428-0.646 0.675-1.093 0.675-0.183 0-0.369-0.041-0.544-0.128zM47.721 62.736l-1.22-2.439c-0.301-0.603-0.057-1.336 0.545-1.638 0.605-0.299 1.335-0.056 1.638 0.545l1.22 2.441c0.301 0.603 0.057 1.336-0.545 1.638-0.175 0.087-0.361 0.128-0.544 0.128-0.449 0-0.88-0.247-1.093-0.675zM53.149 59.621c-0.603-0.301-0.848-1.034-0.545-1.639l1.22-2.441c0.301-0.602 1.034-0.844 1.638-0.545 0.603 0.301 0.847 1.035 0.545 1.638l-1.22 2.441c-0.215 0.428-0.646 0.675-1.093 0.675-0.183 0-0.369-0.041-0.544-0.128zM51.932 17.243l3.661 2.441c0.56 0.375 0.711 1.131 0.338 1.693-0.236 0.353-0.622 0.543-1.017 0.543-0.233 0-0.469-0.067-0.676-0.205l-3.661-2.441c-0.56-0.375-0.711-1.131-0.338-1.693s1.13-0.713 1.693-0.338zM45.698 18.387c0.603 0.301 0.848 1.035 0.545 1.636l-1.22 2.441c-0.215 0.428-0.646 0.675-1.093 0.675-0.183 0-0.369-0.041-0.544-0.128-0.603-0.301-0.847-1.035-0.546-1.638l1.22-2.441c0.301-0.603 1.032-0.846 1.638-0.545zM41.363 12.832l1.22 2.442c0.301 0.603 0.057 1.336-0.545 1.638-0.175 0.086-0.361 0.128-0.544 0.128-0.449 0-0.88-0.247-1.093-0.675l-1.22-2.441c-0.301-0.603-0.057-1.336 0.545-1.638 0.604-0.299 1.336-0.056 1.638 0.545zM33.495 19.607c0.603 0.301 0.848 1.035 0.545 1.637l-1.22 2.441c-0.215 0.428-0.645 0.675-1.093 0.675-0.183 0-0.368-0.041-0.544-0.128-0.603-0.301-0.847-1.035-0.545-1.638l1.22-2.441c0.301-0.602 1.032-0.846 1.638-0.545zM34.715 8.624c0.603 0.301 0.848 1.035 0.545 1.636l-1.22 2.441c-0.215 0.428-0.646 0.675-1.093 0.675-0.183 0-0.369-0.041-0.544-0.128-0.603-0.301-0.847-1.035-0.545-1.638l1.22-2.441c0.301-0.602 1.034-0.844 1.638-0.545zM25.499 15.272l1.22 2.442c0.301 0.603 0.057 1.336-0.545 1.638-0.175 0.087-0.361 0.128-0.544 0.128-0.449 0-0.88-0.247-1.093-0.675l-1.22-2.441c-0.301-0.603-0.057-1.336 0.546-1.638 0.604-0.3 1.336-0.057 1.638 0.545zM20.071 19.607c0.603 0.301 0.848 1.035 0.545 1.637l-1.22 2.441c-0.215 0.428-0.646 0.675-1.093 0.675-0.183 0-0.369-0.041-0.544-0.128-0.603-0.301-0.847-1.035-0.546-1.638l1.22-2.441c0.301-0.602 1.032-0.846 1.638-0.545zM41.849 41.803c0.477-0.477 1.248-0.477 1.726 0s0.477 1.248 0 1.726c-0.72 0.72-1.677 1.117-2.693 1.117s-1.973-0.397-2.693-1.117c-0.535-0.535-1.401-0.535-1.935 0-1.485 1.485-3.901 1.485-5.386 0-0.519-0.517-1.417-0.517-1.935 0-1.485 1.485-3.901 1.485-5.387 0-0.519-0.517-1.417-0.517-1.935 0-1.485 1.485-3.901 1.485-5.387 0-0.535-0.535-1.401-0.535-1.935 0-1.485 1.485-3.901 1.485-5.387 0-0.535-0.535-1.401-0.535-1.935 0-0.477 0.477-1.248 0.477-1.726 0s-0.477-1.248 0-1.726c1.44-1.44 3.947-1.44 5.386 0 0.535 0.535 1.401 0.535 1.935 0 1.485-1.485 3.901-1.485 5.387 0 0.519 0.517 1.417 0.517 1.935 0 1.485-1.485 3.902-1.485 5.387 0 0.519 0.517 1.417 0.517 1.935 0 1.485-1.485 3.901-1.485 5.387 0 0.535 0.535 1.401 0.535 1.935 0 1.485-1.485 3.901-1.485 5.387 0 0.535 0.535 1.401 0.535 1.935 0zM65.036 41.803c0.477-0.477 1.248-0.477 1.726 0s0.477 1.248 0 1.726c-0.742 0.742-1.718 1.114-2.693 1.114s-1.951-0.372-2.693-1.114c-0.519-0.517-1.417-0.517-1.935 0-0.477 0.477-1.248 0.477-1.726 0s-0.477-1.248 0-1.726c1.485-1.485 3.901-1.485 5.387 0 0.519 0.517 1.417 0.517 1.935 0zM65.898 36.564c3.364 0 6.102 2.737 6.102 6.102s-2.737 6.102-6.102 6.102h-59.797c-3.364 0-6.102-2.737-6.102-6.102s2.737-6.102 6.102-6.102h38.064l-1.879-2.441h-34.964c-0.674 0-1.22-0.545-1.22-1.22s0.547-1.22 1.22-1.22h57.356c0.674 0 1.22 0.546 1.22 1.22s-0.547 1.22-1.22 1.22h-4.28l-1.879 2.441h7.379zM57.317 34.123h-11.95l5.975 7.761 3.731-4.846zM65.898 46.327c2.018 0 3.661-1.643 3.661-3.661s-1.643-3.661-3.661-3.661h-9.26l-4.331 5.626c-0.231 0.299-0.588 0.476-0.967 0.476s-0.736-0.177-0.967-0.476l-4.331-5.626h-39.942c-2.018 0-3.661 1.643-3.661 3.661s1.643 3.661 3.661 3.661h59.797zM64.645 51.208c0.392 0 0.759 0.19 0.988 0.506s0.294 0.724 0.171 1.096l-3.055 9.282c-1.239 3.765-4.732 6.293-8.695 6.293h-36.122c-3.955 0-7.448-2.522-8.69-6.276l-3.080-9.298c-0.123-0.371-0.060-0.78 0.17-1.098 0.229-0.317 0.598-0.505 0.99-0.505h57.323zM60.432 61.329l2.527-7.681h-53.948l2.548 7.694c0.91 2.752 3.472 4.602 6.373 4.602h36.122c2.907 0 5.468-1.854 6.377-4.615zM6.867 29.242c-0.371 0-0.722-0.168-0.954-0.46s-0.317-0.671-0.234-1.034c3.262-14.21 15.73-24.133 30.322-24.133s27.060 9.924 30.321 24.133c0.084 0.362-0.002 0.743-0.234 1.034s-0.582 0.46-0.954 0.46h-58.265zM36 6.055c-12.93 0-24.050 8.454-27.559 20.746h55.118c-3.508-12.291-14.629-20.746-27.559-20.746z"></path>
</svg>
