<!-- Generated by IcoMoon.io -->
<svg version="1.1" xmlns="http://www.w3.org/2000/svg" width="72" height="72" viewBox="0 0 72 72">
<title>uniF122</title>
<path d="M71.542 22.2c-0.034 0.278-0.064 0.548-0.109 0.837-0.091 0.569-0.197 1.132-0.316 1.683-0.006 0.027-0.009 0.050-0.014 0.076l-0.099 0.446-0.013 0.011c-0.958 4.084-2.524 7.417-2.646 7.671-14.915 34.955-43.845 37.212-59.387 38.424-2.5 0.194-4.659 0.363-6.417 0.628-0.109 0.016-0.217 0.024-0.322 0.024-0.829 0-1.537-0.499-1.813-1.312-0.406-1.194 0.214-2.693 1.381-3.337 20.719-11.475 38.262-22.694 43.058-43.823 0.18-0.788 0.555-2.529 0.555-2.529l0.336-1.489c0.405-1.933 0.999-3.618 1.766-5.067 0.014-0.028 0.027-0.059 0.042-0.088 0.21-0.388 0.436-0.749 0.671-1.102 0.052-0.079 0.103-0.163 0.157-0.241 0.224-0.32 0.462-0.618 0.708-0.907 0.079-0.094 0.157-0.187 0.238-0.276 0.242-0.266 0.496-0.517 0.758-0.755 0.099-0.091 0.2-0.179 0.302-0.264 0.264-0.222 0.537-0.433 0.82-0.627 0.112-0.076 0.228-0.147 0.343-0.22 0.191-0.122 0.373-0.259 0.572-0.368 0.135-0.074 0.273-0.129 0.409-0.195 0.003-0.001 0.007-0.004 0.010-0.006 0.007-0.003 0.014-0.006 0.020-0.009 3.135-1.523 6.549-1.299 9.050-0.752 1.364-1.485 2.085-3.111 1.836-4.19-0.167-0.721-0.816-1.292-1.929-1.698-0.735-0.268-1.112-1.081-0.844-1.817 0.268-0.735 1.082-1.11 1.817-0.844 2.577 0.942 3.444 2.544 3.715 3.721 0.397 1.714-0.225 3.769-1.657 5.706 0.265 0.103 0.466 0.188 0.584 0.241 0.523 0.147 1.091 0.361 1.664 0.642 0.099 0.048 0.2 0.093 0.296 0.144 0.394 0.212 0.785 0.469 1.17 0.761 0.184 0.14 0.358 0.292 0.528 0.446 0.259 0.236 0.508 0.494 0.748 0.78 0.159 0.191 0.309 0.391 0.45 0.598 0.205 0.297 0.397 0.618 0.574 0.965 0.055 0.108 0.13 0.194 0.181 0.305 0.125 0.272 0.214 0.559 0.313 0.844 0.034 0.098 0.074 0.188 0.106 0.289 0.077 0.247 0.137 0.5 0.197 0.754 0.047 0.193 0.094 0.385 0.132 0.589 0.041 0.225 0.074 0.455 0.103 0.684 0.034 0.254 0.062 0.511 0.084 0.781 0.016 0.204 0.026 0.408 0.033 0.615 0.011 0.297 0.016 0.602 0.011 0.918-0.003 0.203-0.011 0.404-0.021 0.606-0.016 0.312-0.034 0.626-0.064 0.955-0.024 0.259-0.057 0.514-0.089 0.772zM67.619 24.322c0.262-0.173 0.537-0.371 0.822-0.599v0c0.162-0.788 0.28-1.535 0.36-2.244 0.003-0.024 0.004-0.050 0.007-0.075 0.069-0.636 0.098-1.234 0.099-1.805 0-0.082 0.004-0.166 0.003-0.247-0.007-0.572-0.051-1.111-0.129-1.616-0.016-0.099-0.041-0.194-0.059-0.292-0.077-0.411-0.174-0.799-0.299-1.163-0.034-0.099-0.069-0.198-0.106-0.295-0.144-0.367-0.317-0.707-0.514-1.021-0.040-0.062-0.074-0.13-0.115-0.191-0.238-0.35-0.511-0.667-0.82-0.948-0.018-0.016-0.033-0.034-0.050-0.050-0.32-0.283-0.681-0.526-1.074-0.737-0.028-0.014-0.050-0.034-0.078-0.048-0.422-0.218-0.884-0.397-1.387-0.533l-0.231-0.085c-0.006-0.001-0.057-0.024-0.132-0.057-0.007-0.003-0.017-0.007-0.024-0.010-0.071-0.030-0.178-0.074-0.295-0.119-0.034-0.013-0.061-0.024-0.098-0.038-0.139-0.054-0.307-0.115-0.491-0.179-0.067-0.024-0.144-0.048-0.217-0.072-0.13-0.044-0.271-0.088-0.417-0.132-0.106-0.031-0.214-0.064-0.329-0.096-0.157-0.045-0.327-0.088-0.499-0.132-0.193-0.048-0.392-0.095-0.601-0.139-0.159-0.034-0.317-0.066-0.483-0.098-0.163-0.030-0.33-0.057-0.5-0.082-0.146-0.021-0.298-0.040-0.448-0.058-0.279-0.034-0.564-0.058-0.854-0.075-0.184-0.010-0.367-0.023-0.555-0.026-0.22-0.003-0.443 0.004-0.667 0.013-0.094 0.003-0.186 0.007-0.279 0.013-0.23 0.014-0.46 0.037-0.691 0.067-0.081 0.010-0.163 0.025-0.245 0.038-0.785 0.123-1.568 0.344-2.32 0.697-0.057 0.026-0.112 0.048-0.167 0.075-0.217 0.109-0.428 0.229-0.633 0.358-0.072 0.044-0.142 0.091-0.211 0.137-0.67 0.449-1.276 1.007-1.813 1.676-0.024 0.030-0.050 0.058-0.074 0.089-0.178 0.228-0.348 0.467-0.511 0.718-0.021 0.035-0.043 0.071-0.065 0.106-0.485 0.768-0.898 1.647-1.245 2.632-0.017 0.047-0.034 0.094-0.050 0.142 3.624-0.45 5.4-1.232 5.85-1.878l0.967-1.388 1.196 1.197c0.12 0.12 2.461 2.514 2.254 6.141 1.272-0.537 2.63-1.581 2.418-3.571l-0.382-3.56 2.714 2.334c0.152 0.132 3.194 2.806 3.468 7.223zM8.737 68.524c15.993-1.248 42.76-3.337 57.029-36.769 0.030-0.064 0.814-1.738 1.594-4.074-0.516 0.228-0.856 0.336-0.89 0.346l-2.228 0.676 0.426-2.291c0.371-1.993-0.075-3.648-0.679-4.864-1.35 2.439-4.377 3.482-6.267 3.697l-2.271 0.261 0.776-2.149c0.698-1.932 0.204-3.524-0.324-4.51-1.19 0.715-3.393 1.496-7.515 1.902-0.067 0.368-0.139 0.729-0.191 1.118l-0.044 0.208c-0.187 0.635-0.37 1.31-0.544 2.077-4.917 21.654-22.129 33.21-42.68 44.691 1.169-0.112 2.438-0.212 3.806-0.319zM57.537 30.111c0.775 0.112 1.31 0.829 1.2 1.604-0.136 0.933-3.686 22.95-36.026 33.372-0.144 0.045-0.29 0.068-0.435 0.068-0.599 0-1.156-0.381-1.349-0.982-0.239-0.745 0.168-1.543 0.914-1.783 30.676-9.883 34.061-30.87 34.091-31.080 0.112-0.775 0.832-1.329 1.605-1.198z"></path>
</svg>
