<!-- Generated by IcoMoon.io -->
<svg version="1.1" xmlns="http://www.w3.org/2000/svg" width="72" height="72" viewBox="0 0 72 72">
<title>uniF1A8</title>
<path d="M28.411 26.25c0-1.526 0.595-2.961 1.676-4.042 1.26-1.261 1.26-3.312 0-4.573-0.485-0.485-0.485-1.27 0-1.755s1.27-0.485 1.755 0c2.228 2.228 2.228 5.856 0 8.084-0.612 0.611-0.948 1.423-0.948 2.287s0.338 1.676 0.948 2.287c0.485 0.485 0.485 1.27 0 1.755-0.242 0.242-0.56 0.364-0.878 0.364s-0.636-0.122-0.878-0.364c-1.081-1.080-1.676-2.516-1.676-4.042zM14.897 26.25c0-1.526 0.595-2.961 1.676-4.042 1.26-1.261 1.26-3.312 0-4.573-0.485-0.485-0.485-1.27 0-1.755s1.27-0.485 1.755 0c2.228 2.228 2.228 5.856 0 8.084-0.612 0.611-0.948 1.423-0.948 2.287s0.336 1.676 0.948 2.287c0.485 0.485 0.485 1.27 0 1.755-0.242 0.242-0.56 0.364-0.878 0.364s-0.636-0.122-0.878-0.364c-1.081-1.080-1.676-2.516-1.676-4.042zM22.205 22.526c0-1.526 0.594-2.961 1.676-4.042 1.26-1.261 1.26-3.312 0-4.573-0.485-0.485-0.485-1.27 0-1.755s1.27-0.485 1.755 0c2.228 2.228 2.228 5.856 0 8.084-0.612 0.611-0.948 1.423-0.948 2.287s0.338 1.676 0.948 2.287c0.485 0.485 0.485 1.27 0 1.755-0.242 0.242-0.56 0.364-0.878 0.364s-0.636-0.122-0.878-0.364c-1.081-1.080-1.676-2.516-1.676-4.042zM17.379 47.793c2.785 0 4.966 1.635 4.966 3.724s-2.181 3.724-4.966 3.724c-2.784 0-4.966-1.635-4.966-3.724s2.181-3.724 4.966-3.724zM17.379 52.759c1.516 0 2.483-0.735 2.483-1.241s-0.967-1.241-2.483-1.241-2.483 0.735-2.483 1.241 0.967 1.241 2.483 1.241zM21.103 37.862c2.784 0 4.965 1.635 4.965 3.724s-2.181 3.724-4.965 3.724c-2.785 0-4.966-1.635-4.966-3.724s2.181-3.724 4.966-3.724zM21.103 42.828c1.516 0 2.483-0.735 2.483-1.241s-0.967-1.241-2.483-1.241c-1.516 0-2.483 0.735-2.483 1.241s0.967 1.241 2.483 1.241zM33.517 42.828c-2.784 0-4.966-1.635-4.966-3.724s2.181-3.724 4.966-3.724c2.785 0 4.966 1.635 4.966 3.724s-2.181 3.724-4.966 3.724zM33.517 37.862c-1.516 0-2.483 0.735-2.483 1.241s0.967 1.241 2.483 1.241 2.483-0.735 2.483-1.241-0.967-1.241-2.483-1.241zM45.931 44.069c-2.785 0-4.966-1.635-4.966-3.724s2.181-3.724 4.966-3.724c2.784 0 4.965 1.635 4.965 3.724s-2.181 3.724-4.965 3.724zM45.931 39.103c-1.516 0-2.483 0.735-2.483 1.241s0.967 1.241 2.483 1.241c1.516 0 2.483-0.735 2.483-1.241s-0.967-1.241-2.483-1.241zM62.069 45.31c0 2.089-2.181 3.724-4.965 3.724s-4.966-1.635-4.966-3.724c0-2.089 2.181-3.724 4.966-3.724s4.965 1.635 4.965 3.724zM57.103 46.552c1.516 0 2.483-0.735 2.483-1.241s-0.967-1.241-2.483-1.241c-1.516 0-2.483 0.735-2.483 1.241s0.967 1.241 2.483 1.241zM49.655 49.034c2.784 0 4.966 1.635 4.966 3.724s-2.181 3.724-4.966 3.724c-2.785 0-4.966-1.635-4.966-3.724s2.181-3.724 4.966-3.724zM49.655 54c1.516 0 2.483-0.735 2.483-1.241s-0.967-1.241-2.483-1.241-2.483 0.735-2.483 1.241c0 0.506 0.967 1.241 2.483 1.241zM36 51.517c2.784 0 4.966 1.635 4.966 3.724s-2.181 3.724-4.966 3.724-4.966-1.635-4.966-3.724c0-2.089 2.181-3.724 4.966-3.724zM36 56.483c1.516 0 2.483-0.735 2.483-1.241s-0.967-1.241-2.483-1.241-2.483 0.735-2.483 1.241c0 0.507 0.967 1.241 2.483 1.241zM30.049 48.126c0.67 0.14 1.1 0.798 0.959 1.47-0.187 0.889-0.957 1.508-1.826 1.543-0.319 0.652-0.983 1.076-1.711 1.090-0.228 0.328-0.607 0.53-1.015 0.53-0.086 0-0.171-0.008-0.257-0.026-0.672-0.142-1.101-0.8-0.96-1.471 0.187-0.889 0.957-1.508 1.826-1.543 0.319-0.652 0.983-1.076 1.711-1.090 0.277-0.396 0.771-0.611 1.273-0.503zM42.045 48.475c0.478 0.053 0.903 0.384 1.050 0.878 0.2 0.655-0.171 1.348-0.828 1.547-0.186 0.057-0.376 0.084-0.566 0.084-0.317 0-0.631-0.079-0.917-0.233-0.314-0.169-0.57-0.415-0.749-0.713-0.343 0.004-0.693-0.062-1.007-0.231-0.326-0.175-0.591-0.435-0.77-0.749-0.479-0.053-0.904-0.384-1.052-0.875-0.2-0.655 0.171-1.348 0.828-1.547 0.496-0.154 1.024-0.099 1.483 0.148 0.315 0.169 0.571 0.415 0.75 0.712 0.725 0.013 1.415 0.348 1.776 0.978zM33.654 44.751c0.479 0.053 0.904 0.384 1.050 0.878 0.2 0.655-0.171 1.348-0.828 1.547-0.186 0.057-0.376 0.084-0.566 0.084-0.317 0-0.631-0.080-0.918-0.233-0.314-0.169-0.57-0.415-0.748-0.712-0.341 0.004-0.693-0.062-1.007-0.231-0.327-0.175-0.591-0.434-0.77-0.748-0.479-0.053-0.904-0.384-1.051-0.875-0.2-0.655 0.171-1.348 0.828-1.547 0.497-0.153 1.024-0.098 1.483 0.148 0.315 0.169 0.571 0.415 0.75 0.713 0.736 0.001 1.415 0.348 1.776 0.978zM71.809 58.46c0.112 0.201 0.191 0.42 0.191 0.664v7.8c0 1.087-0.885 1.972-1.973 1.972h-68.055c-1.088 0-1.973-0.885-1.973-1.972v-7.644c0-0.265 0.084-0.503 0.201-0.72-0.031-0.228-0.031-0.461 0.024-0.693l0.051-0.165 9.596-24.684c0.092-0.31 0.273-0.566 0.489-0.785l-5.21-22.923h-0.185c-0.685 0-1.241-0.555-1.241-1.241v-3.724c0-0.687 0.556-1.241 1.241-1.241h62.069c0.687 0 1.241 0.555 1.241 1.241v3.724c0 0.061-0.026 0.113-0.034 0.17-0.006 0.042 0.007 0.084-0.003 0.127l-6.090 24.707 9.626 24.793c0.047 0.199 0.050 0.397 0.034 0.595zM42.739 57.724h15.887c3.715-2.403 5.925-6.887 5.925-9.931 0-7.402-13.075-13.655-28.552-13.655s-28.552 6.253-28.552 13.655c0 3.044 2.21 7.528 5.925 9.931h15.926c0.891 0 1.656 0.622 1.861 1.513 0.031 0.139 0.088 0.269 0.135 0.403 0.039 0.109 0.066 0.225 0.114 0.33 0.048 0.107 0.117 0.204 0.174 0.305 0.067 0.119 0.125 0.242 0.205 0.355 0.045 0.065 0.103 0.12 0.153 0.183 0.111 0.139 0.218 0.279 0.345 0.406 0.021 0.021 0.047 0.037 0.068 0.058 0.725 0.691 1.699 1.178 2.787 1.346 0.279 0.043 0.567 0.066 0.859 0.066s0.58-0.022 0.859-0.066c1.075-0.166 2.037-0.644 2.761-1.323 0.031-0.029 0.066-0.052 0.096-0.081 0.12-0.119 0.221-0.254 0.326-0.385 0.055-0.068 0.119-0.13 0.17-0.202 0.071-0.101 0.123-0.212 0.184-0.318 0.066-0.114 0.14-0.223 0.195-0.344 0.038-0.086 0.060-0.179 0.092-0.267 0.057-0.154 0.119-0.304 0.156-0.466 0.206-0.892 0.971-1.514 1.862-1.514h0.038zM12.1 34.138l-1.727 4.443c2.344-1.78 5.361-3.291 8.878-4.443h-7.152zM61.627 38.58l-1.727-4.442h-7.152c3.517 1.152 6.535 2.661 8.878 4.442zM66.485 51.075c-0.691 2.257-2.046 4.663-3.997 6.649h6.582zM6.207 5.586v1.241h26.156c0.39 0 0.756 0.181 0.991 0.492s0.31 0.712 0.205 1.087c-0.027 0.097-0.041 0.189-0.041 0.283 0 0.881 1.275 1.862 3.104 1.862s3.103-0.981 3.103-1.862c0-0.094-0.014-0.186-0.041-0.283-0.105-0.375-0.030-0.777 0.205-1.087 0.236-0.31 0.602-0.492 0.991-0.492h24.915v-1.241h-59.586zM31.088 9.31h-23.391l5.080 22.345h47.166l5.508-22.345h-23.297c-0.377 2.133-2.671 3.724-5.533 3.724s-5.157-1.591-5.533-3.724zM5.515 51.074l-2.585 6.65h6.583c-1.953-1.986-3.307-4.392-3.998-6.65zM69.517 66.414v-6.207h-26.364c-0.88 2.942-3.764 4.966-7.152 4.966s-6.271-2.023-7.152-4.966h-26.367v6.207h67.034z"></path>
</svg>
