<!-- Generated by IcoMoon.io -->
<svg version="1.1" xmlns="http://www.w3.org/2000/svg" width="72" height="72" viewBox="0 0 72 72">
<title>uniF102</title>
<path d="M26.436 12.401l-2.813 2.813-1.734-1.735 4.547-4.547 4.547 4.547-1.735 1.735zM29.249 21.347l-2.813-2.813-2.813 2.813-1.734-1.735 4.547-4.547 4.547 4.547zM51.331 7.134c3.959 5.346 3.959 12.528-0.001 17.875l-1.51 2.038v17.951l-0.080 0.001c0 0.005 0.002 0.010 0.002 0.015v4.907h0.023l0.028 1.255v20.823h-26.987v-21.624l-3.013 3.014c-0.239 0.239-0.553 0.36-0.867 0.36s-0.628-0.12-0.867-0.36c-0.48-0.48-0.48-1.255 0-1.734l4.188-4.189-4.188-4.188c-0.48-0.48-0.48-1.255 0-1.735s1.255-0.48 1.734 0l3.039 3.039v-17.37l-1.106-1.493c-4.286-5.789-4.286-13.566 0-19.355l4.715-6.364 2.45 3.307 2.45-3.307 2.419 3.264 2.418-3.264 2.501 3.376 2.478-3.346 2.456 3.316 2.456-3.316zM41.156 4.151l-0.927 1.252 1.283 1.732c3.96 5.345 3.96 12.528 0 17.874l-1.51 2.038v15.513h2.453v-16.323l1.992-2.689c3.313-4.471 3.313-10.48 0-14.952zM36.177 4.12l-0.892 1.205 1.319 1.779c3.961 5.346 3.961 12.529 0 17.874l-1.51 2.039v15.542h2.382v-16.353l1.992-2.689c3.313-4.471 3.313-10.479 0-14.952zM31.34 4.12l-0.922 1.247 0.738 0.996c0.022 0.030 0.041 0.061 0.063 0.092l0.48 0.647c3.961 5.346 3.961 12.529 0 17.874l-0.467 0.63c-0.027 0.037-0.049 0.075-0.076 0.112l-0.958 1.294-0.004 15.547h2.376v-16.353l1.992-2.69c3.313-4.47 3.313-10.478 0-14.951l-2.364-3.193 0.036-0.048zM23.697 7.825c-3.64 4.914-3.64 11.52 0.001 16.434l1.589 2.143v16.159h2.447v-16.353l1.522-2.056c3.541-4.871 3.539-11.363-0.009-16.231l-1.887-2.548 0.002-0.005-0.924-1.247zM27.734 45.013h-4.47l1.227 1.227h22.8v-1.227h-19.557zM27.714 69.547v-17.174h-2.453v17.174h2.453zM30.168 69.547h2.453v-17.174h-2.453v17.174zM37.528 69.547v-17.174h-2.453v17.174h2.453zM39.981 69.547h2.453v-17.174h-2.453v17.174zM47.341 69.547v-17.174h-2.453v17.174h2.453zM44.888 49.92h2.402v-1.227h-22.799l-1.227 1.227h21.624zM49.358 23.547c3.314-4.471 3.314-10.481-0-14.952l-3.291-4.444-0.927 1.252 1.283 1.732c3.96 5.345 3.96 12.528 0 17.874l-1.51 2.038v15.513h2.453v-16.323z"></path>
</svg>
