<!-- Generated by IcoMoon.io -->
<svg version="1.1" xmlns="http://www.w3.org/2000/svg" width="72" height="72" viewBox="0 0 72 72">
<title>uniF1B1</title>
<path d="M71.523 24.988c1.951 7.455-2.191 15.708-10.563 21.224 0.030 1.053-0.038 2.199-0.226 3.468-0.78 5.287-4.335 9.812-10.013 12.74-4.107 2.119-8.979 3.215-14.095 3.215-1.777 0-3.582-0.133-5.395-0.4-7.035-1.039-13.372-3.994-17.846-8.324-4.59-4.443-6.687-9.801-5.907-15.088 0.083-0.555 0.185-1.083 0.298-1.597-8.382-9.307-10.241-21.141-4.351-28.366 4.723-5.794 9.875-6.965 16.211-3.688 4.112 2.126 8.023 6.332 11.474 10.044 0.923 0.991 1.805 1.934 2.656 2.805 2.378-0.435 4.828-0.731 7.14-1.006 2.774-0.328 5.394-0.639 7.301-1.138 12.674-3.317 20.322-5.318 23.314 6.113zM8.684 37.274c0.024-0.054 0.054-0.1 0.076-0.152 0.192-0.441 0.4-0.859 0.628-1.255 0.035-0.062 0.076-0.119 0.113-0.181 0.236-0.395 0.491-0.765 0.764-1.115 0.022-0.029 0.045-0.060 0.068-0.089 1.27-1.589 2.937-2.706 5.026-3.381 0.030-0.009 0.060-0.020 0.090-0.029 0.986-0.31 2.065-0.523 3.24-0.641 0.074-0.008 0.139-0.024 0.214-0.030 0.93-2.975 3.148-5.306 6.754-7.103 1.371-0.684 3.012-1.262 4.975-1.749-0.471-0.5-0.953-1.019-1.443-1.545-3.305-3.556-7.051-7.584-10.757-9.501-1.947-1.007-3.689-1.52-5.312-1.52-2.755 0-5.165 1.478-7.657 4.535-4.821 5.915-3.414 15.643 3.221 23.757zM58.138 49.295c0.172-1.166 0.236-2.158 0.215-3.019l-0.054-0.628c-0.194-2.279-1.126-3.772-3.133-4.882-0.017-0.009-0.034-0.018-0.051-0.028-2.598-1.417-6.967-2.207-13.821-3.218-2.13-0.315-4.742-1.077-7.507-1.884-1.649-0.481-3.378-0.989-5.11-1.431-0.054-0.014-0.109-0.026-0.163-0.039-0.503-0.127-1.007-0.249-1.509-0.364-0.235-0.052-0.467-0.097-0.702-0.147-0.332-0.071-0.666-0.143-0.995-0.205-0.209-0.039-0.414-0.068-0.621-0.104-0.361-0.062-0.722-0.125-1.077-0.172-0.135-0.018-0.265-0.029-0.399-0.045-0.163-0.020-0.323-0.033-0.486-0.049-0.393-0.041-0.764-0.068-1.124-0.089-0.351-0.018-0.697-0.028-1.037-0.025-0.299 0-0.612-0.010-0.889 0.007-0.607 0.037-1.171 0.104-1.712 0.19-0.066 0.011-0.135 0.018-0.201 0.030-0.512 0.089-0.993 0.206-1.448 0.344-0.069 0.021-0.139 0.042-0.207 0.064-0.45 0.147-0.873 0.318-1.268 0.516-0.046 0.024-0.091 0.050-0.136 0.073-0.406 0.215-0.789 0.453-1.138 0.726-0.003 0.001-0.004 0.004-0.007 0.005-0.364 0.285-0.696 0.605-1.002 0.958-0.009 0.011-0.020 0.020-0.029 0.030-0.292 0.34-0.554 0.717-0.796 1.123-0.025 0.042-0.050 0.083-0.075 0.126-0.23 0.402-0.437 0.835-0.622 1.3-0.021 0.054-0.041 0.109-0.062 0.164-0.181 0.478-0.345 0.983-0.485 1.528-0.163 0.637-0.299 1.317-0.407 2.049-0.654 4.427 1.17 8.981 5.135 12.818 4.082 3.951 9.906 6.654 16.403 7.613 6.494 0.956 12.854 0.052 17.902-2.551 4.904-2.529 7.964-6.361 8.618-10.789zM60.534 43.334c6.739-4.85 10.032-11.633 8.451-17.679-2.228-8.511-6.304-7.852-20.109-4.238-2.084 0.545-4.791 0.867-7.657 1.205-4.82 0.571-10.283 1.22-14.015 3.080-2.579 1.287-4.23 2.797-5.088 4.674 0.168 0.014 0.344 0.034 0.517 0.052 3.868 0.344 8.069 1.568 11.882 2.682 2.002 0.586 3.919 1.146 5.576 1.512 0.006 0.001 0.016 0.004 0.022 0.005 0.554 0.122 1.078 0.222 1.566 0.294 3.453 0.509 6.535 0.97 9.179 1.586 0.048 0.012 0.097 0.022 0.146 0.034 0.449 0.106 0.885 0.219 1.308 0.336 0.19 0.051 0.385 0.102 0.567 0.156 0.18 0.054 0.349 0.113 0.524 0.169 1.152 0.364 2.163 0.781 3.049 1.271 0.003 0.001 0.007 0.004 0.009 0.005 0.162 0.089 0.337 0.169 0.491 0.264 0.15 0.092 0.27 0.2 0.411 0.297 0.045 0.032 0.088 0.064 0.133 0.096 0.831 0.593 1.509 1.28 2.035 2.069 0.043 0.064 0.091 0.126 0.131 0.192 0.147 0.235 0.277 0.483 0.399 0.738 0.054 0.112 0.104 0.227 0.152 0.343 0.108 0.253 0.209 0.512 0.293 0.785 0.008 0.024 0.018 0.045 0.026 0.070zM18.326 42.728l1.313 5.251c0.175 0.704-0.252 1.417-0.956 1.593-0.108 0.028-0.214 0.039-0.32 0.039-0.588 0-1.123-0.398-1.272-0.994l-1.313-5.252c-0.175-0.704 0.252-1.417 0.956-1.593s1.417 0.252 1.593 0.956zM47.211 25.659l1.313 5.251c0.175 0.704-0.252 1.417-0.956 1.593-0.108 0.028-0.214 0.039-0.32 0.039-0.588 0-1.123-0.398-1.272-0.994l-1.313-5.252c-0.175-0.704 0.252-1.417 0.956-1.593 0.705-0.176 1.417 0.252 1.593 0.956zM39.956 54.699c0.6-0.403 1.417-0.242 1.821 0.361 0.403 0.601 0.242 1.418-0.361 1.821l-4.498 3.012c-0.223 0.15-0.478 0.222-0.729 0.222-0.424 0-0.839-0.205-1.092-0.583-0.403-0.601-0.242-1.418 0.361-1.821zM13.115 19.413c-0.424 0-0.839-0.205-1.092-0.583-0.403-0.601-0.242-1.418 0.361-1.821l4.498-3.012c0.601-0.402 1.417-0.242 1.821 0.361 0.403 0.601 0.242 1.418-0.361 1.821l-4.498 3.012c-0.223 0.15-0.478 0.222-0.729 0.222zM39.734 46.582c-0.114 0-0.233-0.014-0.348-0.047l-5.22-1.434c-0.7-0.192-1.111-0.915-0.919-1.614 0.192-0.7 0.914-1.113 1.614-0.919l5.22 1.434c0.7 0.192 1.111 0.915 0.919 1.614-0.16 0.583-0.689 0.966-1.266 0.966zM12.439 28.867c-0.24 0-0.483-0.066-0.698-0.202l-4.578-2.889c-0.613-0.387-0.797-1.197-0.409-1.811 0.386-0.613 1.2-0.794 1.811-0.41l4.578 2.888c0.613 0.387 0.797 1.197 0.41 1.811-0.25 0.395-0.676 0.612-1.112 0.612zM63.507 30.257c0.537-0.486 1.367-0.446 1.854 0.090s0.446 1.368-0.091 1.855l-4.009 3.638c-0.251 0.229-0.566 0.34-0.881 0.34-0.357 0-0.713-0.144-0.973-0.431-0.487-0.537-0.446-1.368 0.090-1.855z"></path>
</svg>
