<!-- Generated by IcoMoon.io -->
<svg version="1.1" xmlns="http://www.w3.org/2000/svg" width="72" height="72" viewBox="0 0 72 72">
<title>uniF163</title>
<path d="M42.704 39.988l-1.697-1.697 1.697-1.697 1.697 1.697zM37.613 38.29l1.697 1.697-1.697 1.697-1.697-1.697zM41.010 45.079l-1.697-1.697 1.697-1.697 1.697 1.697zM29.128 36.593l1.697 1.697-1.697 1.697-1.697-1.697zM34.218 41.686l-1.697 1.697-1.697-1.697 1.697-1.697zM37.613 45.080l-1.697 1.697-1.697-1.697 1.697-1.697zM39.312 50.171l-1.697-1.697 1.697-1.697 1.697 1.697zM25.733 43.384l1.697-1.697 1.697 1.697-1.697 1.697zM30.822 45.077l1.697 1.697-1.697 1.697-1.697-1.697zM32.522 50.167l1.697-1.697 1.697 1.697-1.697 1.697zM37.613 55.261l-1.697-1.697 1.697-1.697 1.697 1.697zM32.521 56.959l-1.697-1.697 1.697-1.697 1.697 1.697zM52.45 3.745c0.468 0.469 0.468 1.229 0 1.697l-5.908 5.908c0.156 0.821 0.259 1.638 0.259 2.435 0 2.809-0.908 5.538-2.566 7.795 1.63 2.22 2.566 4.937 2.566 7.805 0 1.147-0.157 2.28-0.446 3.379 0.336 0.464 0.74 0.636 1.067 0.721 0.628 0.163 1.010 0.796 0.868 1.427-0.024 0.118-0.050 0.217-0.090 0.32l-6.018 17.95-7.255 18.066c-0.184 0.455-0.623 0.752-1.114 0.752s-0.931-0.298-1.115-0.752l-7.229-18-6.061-18.066c-0.118-0.3-0.193-0.68-0.206-1.075-0.013-0.379 0.154-0.743 0.451-0.979 0.372-0.296 0.643-0.779 0.809-1.436 0.023-0.090 0.079-0.163 0.121-0.245-0.108-0.686-0.181-1.375-0.181-2.062 0-2.922 0.944-5.627 2.554-7.821-1.65-2.255-2.554-4.979-2.554-7.78 0-7.278 5.922-13.2 13.2-13.2 3.616 0 7 1.463 9.482 4.043l4.276-4.276c0.469-0.469 1.228-0.469 1.697 0zM42.104 9l-0.703 0.703 1.697 1.697 0.703-0.703zM39.704 11.4l-0.806 0.806 1.697 1.697 0.806-0.806zM45.498 9l0.703-0.703-1.697-1.697-0.703 0.703zM39.929 52.352l5.71-17.035c-0.404-0.244-0.803-0.576-1.152-1.030-0.097 0.128-0.22 0.224-0.328 0.338-0.104 0.11-0.201 0.229-0.316 0.326-0.163 0.138-0.349 0.246-0.533 0.358-0.118 0.072-0.226 0.157-0.353 0.217-0.22 0.103-0.462 0.173-0.705 0.242-0.116 0.034-0.221 0.084-0.342 0.109-0.374 0.078-0.773 0.121-1.196 0.121-0.409 0-0.797-0.037-1.162-0.11-1.091-0.218-1.973-0.762-2.611-1.6-0.499 0.654-1.164 1.105-1.944 1.386l0.917 0.917-1.697 1.697-1.697-1.697 0.598-0.598c-1.609-0.013-2.878-0.601-3.719-1.705-0.85 1.117-2.136 1.71-3.772 1.71-0.365 0-0.704-0.040-1.036-0.097-0.088-0.016-0.174-0.036-0.259-0.055-0.271-0.062-0.529-0.144-0.773-0.247-0.047-0.019-0.098-0.034-0.145-0.055-0.277-0.13-0.532-0.29-0.77-0.474-0.060-0.047-0.116-0.1-0.174-0.15-0.185-0.158-0.355-0.335-0.512-0.527-0.032-0.040-0.073-0.067-0.104-0.108-0.049 0.064-0.101 0.127-0.154 0.188l1.544 4.606 0.79-0.79 1.697 1.697-1.634 1.634 3.41 10.166 1.619-1.619 1.697 1.697-1.697 1.697-1.54-1.54 0.132 0.394 2.677 6.664 0.427-0.427 1.697 1.697-1.151 1.152 2.442 6.078 1.163-2.894-0.756 0.756-1.697-1.697 1.699-1.695 1.295 1.295 1.739-4.33-1.338 1.337-1.697-1.697 1.697-1.697 1.543 1.543zM44.342 30.511c0.038-0.373 0.059-0.749 0.059-1.127 0-2.652-0.98-5.142-2.653-7.068-0.3-0.346-0.62-0.673-0.961-0.978-0.010-0.010-0.018-0.019-0.028-0.028-0.366-0.324-0.754-0.624-1.158-0.896v3.57c0 2.316-1.884 4.2-4.2 4.2s-4.2-1.884-4.2-4.2v-5.13c-2.24 0.509-4.264 1.728-5.796 3.515-0.018 0.022-0.047 0.030-0.066 0.049-1.588 1.884-2.538 4.314-2.538 6.966 0 0.534 0.041 1.070 0.121 1.606 0.025 0.027 0.041 0.060 0.064 0.089 0.023 0.028 0.042 0.056 0.062 0.086 0.079 0.12 0.144 0.248 0.176 0.392 0.317 1.432 1.034 2.043 2.404 2.043 1.394 0 2.118-0.636 2.42-2.128 0.113-0.559 0.605-0.961 1.176-0.961h0.348c0.57 0 1.061 0.402 1.175 0.961 0.304 1.492 1.027 2.128 2.423 2.128s2.119-0.636 2.424-2.128c0.113-0.559 0.604-0.961 1.175-0.961h0.348c0.57 0 1.061 0.402 1.175 0.961 0.304 1.492 1.028 2.128 2.423 2.128s2.118-0.636 2.423-2.128c0.113-0.559 0.604-0.961 1.175-0.961h0.030zM44.401 13.784c0-0.096-0.001-0.192-0.005-0.289l-2.953 2.953c-0.234 0.234-0.541 0.352-0.848 0.352s-0.614-0.118-0.848-0.353l-3.394-3.394c-0.469-0.469-0.469-1.228 0-1.697l5.039-5.040c-2.034-2.129-4.819-3.332-7.79-3.332-5.956 0-10.8 4.844-10.8 10.8 0 2.117 0.628 4.18 1.787 5.936 1.021-0.953 2.202-1.734 3.496-2.326 0.047-0.022 0.094-0.043 0.14-0.064 0.258-0.114 0.521-0.222 0.788-0.32 0.121-0.046 0.245-0.085 0.367-0.127 0.216-0.072 0.431-0.143 0.652-0.204 0.2-0.056 0.404-0.102 0.608-0.149 0.162-0.036 0.322-0.078 0.486-0.109 0.382-0.073 0.767-0.132 1.157-0.17 0.041-0.004 0.081-0.006 0.119-0.006 0.091 0 0.178 0.029 0.265 0.049 0.043 0.011 0.089 0.011 0.132 0.025 0.149 0.051 0.289 0.128 0.408 0.236 0.252 0.227 0.395 0.551 0.395 0.889v6.539c0 0.992 0.808 1.8 1.8 1.8s1.8-0.807 1.8-1.8v-5.594c0-0.406 0.204-0.782 0.541-1.003 0.341-0.222 0.767-0.259 1.138-0.095 0.329 0.143 0.648 0.301 0.96 0.469 0.061 0.034 0.12 0.071 0.181 0.104 0.263 0.146 0.52 0.3 0.769 0.462 0.046 0.029 0.089 0.060 0.133 0.090 0.269 0.18 0.53 0.368 0.785 0.566 0.027 0.020 0.052 0.041 0.078 0.061 0.276 0.218 0.542 0.446 0.798 0.684 0.005 0.005 0.011 0.008 0.016 0.013 1.169-1.762 1.801-3.833 1.801-5.958zM47.898 6.6l2.006-2.006-1.697-1.697-2.006 2.006z"></path>
</svg>
