<!-- Generated by IcoMoon.io -->
<svg version="1.1" xmlns="http://www.w3.org/2000/svg" width="72" height="72" viewBox="0 0 72 72">
<title>uniF127</title>
<path d="M42.801 25.094c1.464 0.733 2.798 1.697 3.964 2.865 0.477 0.477 0.477 1.248 0 1.726-0.238 0.238-0.55 0.357-0.863 0.357s-0.625-0.119-0.863-0.357c-0.98-0.981-2.103-1.793-3.333-2.41-0.603-0.301-0.846-1.036-0.543-1.638 0.3-0.602 1.035-0.846 1.638-0.543zM37.593 23.562c0.67 0.072 1.154 0.674 1.082 1.345-0.074 0.67-0.67 1.147-1.345 1.082-3.897-0.412-7.724 0.925-10.494 3.695-0.238 0.238-0.55 0.357-0.863 0.357s-0.625-0.119-0.863-0.357c-0.477-0.477-0.477-1.248 0-1.726 3.295-3.295 7.842-4.899 12.482-4.397zM50.176 24.547c7.852 7.852 7.852 20.626 0 28.477-3.926 3.926-9.081 5.888-14.238 5.888s-10.312-1.962-14.238-5.888c-7.85-7.852-7.85-20.625 0-28.477 7.852-7.852 20.624-7.852 28.475 0zM48.45 51.298c6.899-6.899 6.899-18.126 0-25.025-3.45-3.449-7.981-5.174-12.512-5.174s-9.062 1.726-12.512 5.174c-6.897 6.899-6.897 18.127 0 25.025 6.897 6.897 18.125 6.899 25.024 0zM69.559 38.441c0 7.992-2.836 15.665-7.998 21.73 1.073 1.761 0.86 4.091-0.66 5.612-0.892 0.892-2.065 1.339-3.236 1.339-0.988 0-1.965-0.337-2.785-0.97-5.585 3.816-12.084 5.849-18.88 5.849-18.504 0-33.559-15.055-33.559-33.559 0-11.056 5.378-21.22 14.278-27.458h-2.837c-1.599 0-2.898-1.3-2.898-2.898v-0.305c0-1.599 1.3-2.898 2.898-2.898h25.040c3.062 0 6.139-0.979 9.141-2.909 1.981-1.272 4.535-1.972 7.195-1.972 5.993 0 10.868 3.558 10.868 7.932 0 3.12-2.487 5.817-6.085 7.112 6.070 6.241 9.517 14.646 9.517 23.396zM13.424 8.085c0 0.248 0.21 0.458 0.458 0.458h25.040c0.883 0 1.767 0.069 2.649 0.206 2.643 0.415 5.261 1.449 7.815 3.089 0.009 0.006 0.019 0.011 0.029 0.017 0.358 0.228 0.744 0.428 1.147 0.609 0.066 0.029 0.133 0.060 0.2 0.088 0.871 0.366 1.829 0.626 2.838 0.76 0.023 0.004 0.046 0.007 0.070 0.010 0.516 0.066 1.044 0.101 1.58 0.101 0.337-0.001 0.679-0.016 1.023-0.045 0.033-0.002 0.065-0.007 0.098-0.010 0.32-0.031 0.643-0.073 0.968-0.128 3.599-0.622 6.347-2.797 6.347-5.307 0-2.976-3.86-5.492-8.428-5.492-2.199 0-4.283 0.563-5.874 1.584-3.405 2.188-6.925 3.297-10.463 3.297h-25.040c-0.248 0-0.458 0.21-0.458 0.458v0.305zM4.881 38.441c0 17.159 13.959 31.119 31.119 31.119 6.135 0 12.017-1.767 17.104-5.124-0.924-0.941-2.153-2.199-3.128-3.208-0.016-0.017-0.032-0.033-0.048-0.050-0.122-0.126-0.238-0.247-0.35-0.364-0.041-0.043-0.084-0.087-0.123-0.128-0.132-0.137-0.257-0.268-0.37-0.387-9.379 5.695-21.136 4.709-29.364-2.232-0.549-0.463-1.082-0.952-1.597-1.467-4.936-4.936-7.553-11.499-7.37-18.48 0.184-6.975 3.151-13.397 8.357-18.082 5.7-5.132 13.202-7.154 20.346-6.152 5.103 0.715 10.025 2.961 13.97 6.769 5.24 5.061 7.854 11.842 7.722 18.619-0.044 2.259-0.393 4.518-1.052 6.712-0.878 2.925-2.305 5.737-4.294 8.282 0.128 0.126 0.272 0.267 0.421 0.414 0.016 0.017 0.034 0.034 0.051 0.051 0.127 0.124 0.26 0.256 0.398 0.392 0.039 0.039 0.078 0.077 0.118 0.117 0.1 0.098 0.201 0.198 0.304 0.299 0.896 0.884 1.894 1.873 2.648 2.621 0.062 0.062 0.121 0.12 0.179 0.178 4.649-5.584 7.195-12.601 7.195-19.9 0-8.598-3.584-16.844-9.854-22.717-0.010 0.001-0.021 0.001-0.032 0.002-0.361 0.048-0.729 0.083-1.101 0.105-0.162 0.011-0.323 0.013-0.485 0.018-0.13 0.004-0.257 0.015-0.388 0.015-0.044 0-0.085-0.009-0.129-0.009-1.939-0.007-3.779-0.391-5.393-1.089-0.068-0.029-0.134-0.061-0.201-0.091-0.509-0.231-1.001-0.483-1.456-0.775-0.005-0.004-0.011-0.005-0.016-0.009-1.877-1.207-3.782-2.042-5.695-2.498-1.148-0.273-2.299-0.411-3.447-0.411h-17.561c-10.173 5.432-16.48 15.926-16.48 27.458zM59.176 64.057c0.831-0.831 0.831-2.182 0.006-3.014l-0.051-0.050c-0.319-0.316-2.211-2.197-3.757-3.725v0c-0.193-0.192-0.372-0.368-0.552-0.545-0.105-0.104-0.206-0.203-0.304-0.299-0.178-0.177-0.355-0.35-0.503-0.495-0.843-0.826-0.921-2.158-0.183-3.098 3.167-4.025 4.776-8.791 4.878-13.562 0.049-2.272-0.265-4.54-0.895-6.734-1.070-3.729-3.092-7.238-6.080-10.121-4.238-4.092-9.72-6.21-15.246-6.346-0.049-0.001-0.098-0.009-0.146-0.010-0.521-0.010-1.041 0.017-1.561 0.043-0.177 0.009-0.354 0.001-0.53 0.015-1.317 0.096-2.625 0.315-3.911 0.638-0.072 0.018-0.147 0.027-0.22 0.046-0.558 0.146-1.109 0.328-1.657 0.517-0.117 0.041-0.238 0.068-0.355 0.111-2.651 0.965-5.156 2.438-7.362 4.424-4.703 4.232-7.384 10.032-7.55 16.333-0.166 6.304 2.198 12.231 6.656 16.69 0.466 0.465 0.947 0.907 1.443 1.325 7.432 6.269 18.046 7.157 26.468 2.027 0.006-0.002 0.012-0.004 0.018-0.007 0.182-0.11 0.372-0.187 0.565-0.247 0.038-0.012 0.073-0.024 0.111-0.034 0.195-0.051 0.393-0.079 0.591-0.082 0.010 0 0.021-0.005 0.032-0.005 0.033 0 0.066 0.009 0.099 0.010 0.106 0.005 0.211 0.013 0.315 0.032 0.054 0.010 0.106 0.022 0.16 0.034 0.096 0.023 0.19 0.052 0.283 0.088 0.054 0.021 0.106 0.039 0.159 0.063 0.093 0.044 0.183 0.095 0.271 0.15 0.044 0.027 0.090 0.051 0.133 0.082 0.127 0.090 0.248 0.192 0.359 0.309 0.145 0.153 0.315 0.33 0.493 0.515 0.038 0.039 0.074 0.078 0.113 0.118 0.164 0.17 0.339 0.352 0.52 0.538 0.078 0.082 0.157 0.164 0.238 0.247 0.107 0.111 0.217 0.223 0.328 0.338 0.216 0.222 0.436 0.447 0.655 0.672l0.029 0.029c1.134 1.162 2.247 2.294 2.704 2.759l0.223 0.227c0.823 0.825 2.18 0.826 3.013-0.006z"></path>
</svg>
