<!-- Generated by IcoMoon.io -->
<svg version="1.1" xmlns="http://www.w3.org/2000/svg" width="72" height="72" viewBox="0 0 72 72">
<title>uniF195</title>
<path d="M20.4 30.658c-1.985 0-3.6-1.615-3.6-3.6v-3.6c0-1.985 1.615-3.6 3.6-3.6h3.6c0.422 0 0.823 0.086 1.2 0.221v-0.221c0-1.985 1.615-3.6 3.6-3.6h3.6c1.985 0 3.6 1.615 3.6 3.6v3.6c0 1.985-1.615 3.6-3.6 3.6h-3.6c-0.422 0-0.823-0.086-1.2-0.221v0.221c0 1.985-1.615 3.6-3.6 3.6h-3.6zM27.6 19.858v3.6c0 0.662 0.538 1.2 1.2 1.2h3.6c0.662 0 1.2-0.538 1.2-1.2v-3.6c0-0.662-0.538-1.2-1.2-1.2h-3.6c-0.662 0-1.2 0.538-1.2 1.2zM19.2 23.458v3.6c0 0.662 0.538 1.2 1.2 1.2h3.6c0.662 0 1.2-0.538 1.2-1.2v-3.6c0-0.662-0.538-1.2-1.2-1.2h-3.6c-0.662 0-1.2 0.538-1.2 1.2zM67.536 36.191c2.952 1.975 4.464 4.345 4.464 7.067 0 3.928-2.596 16.743-36 16.743-24.734 0-36-8.678-36-16.743 0-2.768 1.51-5.153 4.453-7.109-0.144-0.492-0.226-0.992-0.226-1.5 0-0.804 0.201-1.608 0.581-2.4-0.38-0.788-0.581-1.6-0.581-2.428 0-0.8 0.198-1.601 0.575-2.388-0.376-0.784-0.575-1.59-0.575-2.412 0-1.008 0.302-2.018 0.899-3.002 4.049-5.922 16.73-10.019 30.874-10.019s26.825 4.097 30.836 9.962c0.012 0.018 0.024 0.036 0.036 0.055 0.596 0.984 0.899 1.994 0.899 3.002 0 0.828-0.193 1.64-0.565 2.43 0.371 0.781 0.565 1.576 0.565 2.369 0 0.832-0.2 1.646-0.575 2.44 0.377 0.788 0.575 1.588 0.575 2.388 0 0.522-0.086 1.037-0.235 1.544zM65.33 39.928c0.011-0.067 0.013-0.136 0.019-0.203 0.005-0.052 0.010-0.103 0.012-0.155-2.483 2.413-6.813 4.476-12.562 5.922v0.108c0 0.962-0.384 1.832-1.001 2.478 0.086-0.020 0.172-0.042 0.258-0.064 0.2-0.049 0.406-0.098 0.602-0.15 0.189-0.049 0.373-0.102 0.56-0.154 0.194-0.054 0.392-0.105 0.583-0.161 0.185-0.054 0.362-0.109 0.544-0.165 0.186-0.055 0.374-0.11 0.557-0.168 0.175-0.055 0.342-0.113 0.514-0.169 0.181-0.060 0.365-0.119 0.541-0.18 0.167-0.058 0.326-0.118 0.488-0.176 0.173-0.064 0.349-0.125 0.518-0.188 0.16-0.060 0.312-0.124 0.468-0.185 0.163-0.065 0.33-0.128 0.49-0.194 0.152-0.063 0.296-0.128 0.445-0.192 0.154-0.067 0.311-0.133 0.461-0.201 0.146-0.066 0.283-0.133 0.425-0.2 0.144-0.068 0.292-0.136 0.431-0.204 0.133-0.066 0.259-0.133 0.388-0.201 0.139-0.072 0.281-0.143 0.415-0.216 0.124-0.067 0.239-0.136 0.359-0.204 0.13-0.073 0.263-0.146 0.386-0.221 0.118-0.071 0.227-0.143 0.341-0.214 0.116-0.073 0.236-0.145 0.348-0.22 0.109-0.072 0.21-0.145 0.315-0.218 0.106-0.074 0.216-0.149 0.317-0.223 0.1-0.074 0.191-0.149 0.286-0.223 0.096-0.076 0.196-0.15 0.287-0.226 0.091-0.077 0.173-0.152 0.259-0.229 0.084-0.074 0.172-0.149 0.251-0.224 0.080-0.077 0.152-0.155 0.228-0.232 0.074-0.076 0.152-0.151 0.221-0.227 0.068-0.077 0.13-0.155 0.193-0.232s0.131-0.154 0.19-0.23c0.056-0.076 0.104-0.15 0.156-0.226 0.055-0.080 0.114-0.16 0.163-0.24 0.043-0.072 0.078-0.144 0.118-0.216 0.046-0.083 0.095-0.167 0.133-0.25 0.032-0.071 0.056-0.14 0.084-0.211 0.035-0.085 0.072-0.169 0.098-0.254 0.022-0.070 0.035-0.138 0.052-0.208 0.022-0.085 0.046-0.172 0.060-0.257zM46.878 49.048c0.263-0.041 0.529-0.081 0.787-0.124 0.041-0.007 0.081-0.014 0.121-0.022-0.372-0.16-0.716-0.374-1.013-0.644-0.028 0.030-0.064 0.053-0.091 0.083-0.128 0.137-0.271 0.257-0.415 0.378-0.1 0.084-0.194 0.173-0.302 0.25-0.146 0.104-0.306 0.188-0.464 0.276 0.275-0.036 0.551-0.071 0.822-0.11 0.187-0.028 0.37-0.058 0.556-0.086zM40.604 49.717c0.184-0.011 0.364-0.027 0.546-0.038 0.224-0.016 0.448-0.031 0.67-0.048-1.195-0.362-2.186-1.17-2.788-2.239-1.036 0.042-2.041 0.067-3.032 0.067-13.23 0-24.592-3.278-29.365-7.927 0.148 4.892 12.654 10.325 29.365 10.325 0.524 0 1.044-0.005 1.56-0.016 0.241-0.005 0.479-0.014 0.719-0.022 0.272-0.008 0.546-0.014 0.816-0.025 0.192-0.007 0.38-0.019 0.571-0.029 0.313-0.016 0.629-0.029 0.938-0.048zM12.995 33.82c-2.672-1.128-4.859-2.444-6.367-3.902 0.155 4.373 10.631 9.504 25.771 10.226v-2.396c-0.666-0.031-1.323-0.073-1.974-0.12-0.106-0.007-0.212-0.016-0.318-0.024-5.611-0.43-10.696-1.457-14.843-2.906-0.062-0.022-0.124-0.046-0.186-0.067-0.365-0.13-0.721-0.263-1.072-0.398-0.198-0.077-0.395-0.154-0.589-0.233-0.144-0.059-0.282-0.119-0.422-0.179zM32.767 42.559c-11.869-0.492-21.77-3.636-26.137-7.884 0.005 0.557 0.176 1.121 0.492 1.684 0.007 0.008 0.010 0.019 0.016 0.029 2.497 4.386 14.020 8.671 28.862 8.671 0.17 0 0.35-0.007 0.523-0.008-1.676-0.031-3.112-1.045-3.756-2.491zM38.4 45.018v-0.366c-0.518 0.247-1.098 0.38-1.705 0.395 0.564-0.005 1.126-0.010 1.705-0.029zM52.8 35.875v2.318c7.489-1.988 12.45-5.224 12.568-8.266-2.169 2.116-5.747 3.965-10.462 5.365-0.022 0.007-0.043 0.013-0.066 0.020-0.661 0.196-1.336 0.385-2.040 0.562zM65.362 34.744c-2.484 2.413-6.813 4.477-12.562 5.923v2.353c7.5-1.991 12.458-5.232 12.562-8.276zM7.144 23.318c-0.335 0.557-0.516 1.132-0.516 1.703 0 3.931 8.44 8.515 21.157 9.953 0.061 0.007 0.119 0.016 0.18 0.022 0.785 0.086 1.591 0.157 2.407 0.218 0.142 0.011 0.278 0.025 0.421 0.035 0.93 0.065 1.877 0.114 2.844 0.144 0.648 0.022 1.163 0.552 1.163 1.2v4.265c0 0.11 0.016 0.217 0.034 0.32 0.001 0.005-0.001 0.008 0 0.012 0.156 0.835 0.887 1.469 1.766 1.469 0.992 0 1.8-0.808 1.8-1.8 0-0.664 0.536-1.2 1.2-1.2s1.2 0.536 1.2 1.2v4.2c0 0.122 0.018 0.241 0.036 0.36 0.022 0.118 0.053 0.24 0.096 0.371 0.002 0.008 0 0.018 0.002 0.028 0.32 0.949 1.21 1.64 2.266 1.64 1.324 0 2.4-1.076 2.4-2.4 0-0.664 0.536-1.2 1.2-1.2s1.2 0.536 1.2 1.2v0.542c0 0.662 0.538 1.2 1.2 1.2s1.2-0.538 1.2-1.2v-10.669c0-0.557 0.384-1.042 0.927-1.166 0.484-0.113 0.956-0.233 1.421-0.355 0.136-0.036 0.266-0.073 0.401-0.11 0.34-0.092 0.675-0.187 1.004-0.286 0.126-0.037 0.252-0.076 0.377-0.114 0.36-0.11 0.713-0.223 1.057-0.34 0.074-0.024 0.151-0.049 0.224-0.074 1.322-0.455 2.536-0.948 3.62-1.472 0.024-0.012 0.048-0.024 0.072-0.036 0.334-0.162 0.655-0.328 0.964-0.496 0.034-0.018 0.067-0.036 0.1-0.054 0.312-0.173 0.611-0.347 0.896-0.523 0.014-0.010 0.031-0.018 0.046-0.028 0.297-0.185 0.576-0.372 0.841-0.56 0.061-0.045 0.116-0.090 0.176-0.134 0.173-0.128 0.34-0.256 0.498-0.385 0.127-0.106 0.247-0.211 0.366-0.318 0.072-0.064 0.144-0.128 0.212-0.193 0.138-0.132 0.271-0.263 0.394-0.396 0.028-0.031 0.055-0.061 0.083-0.092 0.288-0.32 0.534-0.646 0.73-0.972 0.008-0.013 0.019-0.023 0.028-0.035 0.346-0.592 0.534-1.184 0.534-1.77 0-0.562-0.174-1.128-0.534-1.729-3.058-4.422-13.928-8.891-28.837-8.891-14.939 0-25.825 4.486-28.856 8.918zM36 57.6c16.243 0 33.6-3.768 33.6-14.342 0-1.373-0.613-2.657-1.828-3.838v0.025c0 7.065-14.252 12.812-31.773 12.812s-31.773-5.748-31.773-12.812c0-0.024 0.001-0.054 0.004-0.084-1.217 1.184-1.831 2.488-1.831 3.896 0 5.766 8.949 14.342 33.6 14.342zM40.292 32.129c-0.664 0-1.2-0.536-1.2-1.2s0.536-1.2 1.2-1.2c11.118 0 19.426-3.332 19.426-6.311 0-0.664 0.536-1.2 1.2-1.2s1.2 0.536 1.2 1.2c0 5.658-11.246 8.711-21.826 8.711z"></path>
</svg>
