<!-- Generated by IcoMoon.io -->
<svg version="1.1" xmlns="http://www.w3.org/2000/svg" width="72" height="72" viewBox="0 0 72 72">
<title>uniF16C</title>
<path d="M42 27.004c0 1.652-1.344 2.996-2.996 2.996-1.651 0-2.995-1.344-2.995-2.996v-3.232c0-0.664 0.536-1.2 1.2-1.2s1.2 0.536 1.2 1.2v3.232c0 0.323 0.272 0.596 0.595 0.596s0.596-0.274 0.596-0.596v-3.232c0-0.664 0.536-1.2 1.2-1.2s1.2 0.536 1.2 1.2v3.232zM34.561 33.608c0.664 0 1.2 0.536 1.2 1.2v1.795c0 1.652-1.344 2.996-2.995 2.996-1.652 0-2.996-1.344-2.996-2.996v-1.795c0-0.664 0.536-1.2 1.2-1.2s1.2 0.536 1.2 1.2v1.795c0 0.323 0.272 0.596 0.596 0.596 0.322 0 0.595-0.272 0.595-0.596v-1.795c0-0.664 0.536-1.2 1.2-1.2zM41.992 42.008c0.664 0 1.2 0.536 1.2 1.2v1.795c0 1.652-1.344 2.996-2.995 2.996-1.652 0-2.996-1.344-2.996-2.996v-1.795c0-0.664 0.536-1.2 1.2-1.2s1.2 0.536 1.2 1.2v1.795c0 0.323 0.274 0.596 0.596 0.596 0.322 0 0.595-0.272 0.595-0.596v-1.795c0-0.664 0.536-1.2 1.2-1.2zM34.196 17.946c-1.652 0-2.997-1.344-2.997-2.996v-1.795c0-0.664 0.536-1.2 1.2-1.2s1.2 0.536 1.2 1.2v1.795c0 0.323 0.272 0.596 0.596 0.596 0.321 0 0.595-0.272 0.595-0.596v-1.795c0-0.664 0.536-1.2 1.2-1.2s1.2 0.536 1.2 1.2v1.795c0 1.652-1.344 2.996-2.995 2.996zM43.2 5.917l6.169 46.883h-7.369v15.6c0 0.124-0.024 0.241-0.036 0.361 0.037 0.179 0.046 0.364-0.005 0.551-0.045 0.161-0.125 0.298-0.222 0.421-0.532 1.326-1.824 2.267-3.337 2.267h-4.8c-1.985 0-3.6-1.615-3.6-3.6v-15.6h-7.369l6.169-46.883c0.045-3.27 2.719-5.917 6-5.917h2.4c3.281 0 5.956 2.647 6 5.917zM39.6 57.442v-3.283c-1.1 0.305-1.8 1-1.8 1.642s0.7 1.337 1.8 1.642zM39.6 59.893c-2.43-0.415-4.2-2.060-4.2-4.093 0-1.188 0.605-2.243 1.59-3h-4.59v5.88c1.433 0.818 4.423 2.876 3.809 5.512-0.211 0.902 1.61 2.258 3.391 3.083v-7.381zM33.6 69.6h4.8c0.136 0 0.262-0.036 0.384-0.078-2.28-1.016-5.562-3.092-4.912-5.878 0.136-0.584-0.572-1.394-1.472-2.090v6.846c0 0.662 0.538 1.2 1.2 1.2zM30 50.4h16.631l-5.831-44.4c0-1.985-1.615-3.6-3.6-3.6h-2.4c-1.985 0-3.6 1.615-3.6 3.6l-0.009 0.157-5.821 44.243h4.631z"></path>
</svg>
