<!-- Generated by IcoMoon.io -->
<svg version="1.1" xmlns="http://www.w3.org/2000/svg" width="72" height="72" viewBox="0 0 72 72">
<title>uniF17B</title>
<path d="M41.435 0c16.797 0 30.461 13.665 30.461 30.461s-13.665 30.461-30.461 30.461h-1.385v-7.75l-37.75-37.749 0.979-0.979c9.838-9.838 24.929-11.689 36.771-4.811v-9.634h1.385zM26.204 32.642l13.253-13.253c-3.804-3.356-8.483-5.181-13.253-5.478v18.731zM40.050 22.712l-11.888 11.888h11.888v-11.888zM23.435 32.642v-18.743c-4.773 0.295-9.468 2.113-13.272 5.472zM28.162 37.369l11.888 11.888v-11.888h-11.888zM42.819 33.804v18.769c5.068-0.314 9.68-2.34 13.263-5.505zM58.025 45.094c3.164-3.582 5.18-8.183 5.495-13.248h-18.743zM44.777 29.077h18.743c-0.316-5.065-2.332-9.666-5.495-13.248zM42.819 27.119l13.263-13.263c-3.583-3.164-8.196-5.191-13.263-5.505v18.769zM40.050 12.884c-10.565-6.987-24.465-5.9-33.809 2.564l1.984 1.984c8.979-8.033 22.42-8.424 31.825-1.146v-3.402zM42.819 58.119c14.628-0.723 26.308-12.852 26.308-27.658s-11.679-26.935-26.308-27.658v2.807c13.097 0.724 23.539 11.578 23.539 24.853s-10.441 24.127-23.539 24.853v2.804zM7.027 29.077c0.964 0 1.839 0.529 2.289 1.38 3.075 5.806 4.634 9.71 4.634 11.603 0 3.817-3.106 6.923-6.923 6.923s-6.923-3.106-6.923-6.923c0-1.893 1.559-5.797 4.634-11.604 0.45-0.85 1.326-1.379 2.289-1.379zM7.027 46.214c2.29 0 4.154-1.864 4.154-4.154 0-1.030-1.095-4.197-4.154-10.009-3.059 5.814-4.154 8.981-4.154 10.009 0 2.29 1.864 4.154 4.154 4.154zM26.411 52.095c0.962 0 1.839 0.527 2.289 1.379 3.075 5.808 4.634 9.713 4.634 11.604 0 3.817-3.106 6.923-6.923 6.923s-6.923-3.106-6.923-6.923c0-1.891 1.559-5.796 4.634-11.604 0.45-0.852 1.328-1.379 2.289-1.379zM26.411 69.231c2.29 0 4.154-1.864 4.154-4.154 0-1.029-1.095-4.195-4.154-10.009-3.059 5.815-4.154 8.981-4.154 10.009 0 2.29 1.864 4.154 4.154 4.154z"></path>
</svg>
