<!-- Generated by IcoMoon.io -->
<svg version="1.1" xmlns="http://www.w3.org/2000/svg" width="72" height="72" viewBox="0 0 72 72">
<title>uniF161</title>
<path d="M29.5 64.899l3.368-3.368 3.368 3.368-1.759 1.759-1.609-1.609-1.609 1.609zM38.21 64.899l3.368-3.368 3.368 3.368-1.759 1.759-1.609-1.609-1.609 1.609zM32.868 52.608l-1.609 1.609-1.759-1.759 3.368-3.368 3.368 3.368-1.759 1.759zM41.578 52.608l-1.609 1.609-1.759-1.759 3.368-3.368 3.368 3.368-1.759 1.759zM31.26 58.678l-1.759 1.759-1.609-1.609-1.609 1.609-1.759-1.759 3.368-3.368zM39.969 58.678l-1.759 1.759-1.609-1.609-1.609 1.609-1.759-1.759 3.368-3.368zM58.997 28.099c0 1.301-0.403 2.558-1.199 3.753 0.052 0.183 0.066 0.374 0.030 0.565l-1.126 5.947c-0.063 2.59-2.111 4.689-4.715 4.964l-3.069 25.554c-0.041 0.341-0.143 0.657-0.271 0.959l0.035 0.035-0.086 0.086c-0.57 1.211-1.792 2.038-3.195 2.038h-18.84c-1.792 0-3.305-1.34-3.517-3.118l-3.069-25.554c-2.603-0.275-4.652-2.374-4.715-4.964l-1.126-5.947c-0.040-0.207-0.012-0.412 0.051-0.607-0.779-1.182-1.177-2.425-1.177-3.71 0-2.185 1.994-3.937 4.047-5.483-0.454-0.322-0.847-0.759-0.847-1.413 0-2.724 2.727-4.927 5.445-6.543-0.249-0.246-0.419-0.566-0.419-0.998 0-4.097 6.344-7.253 14.757-7.338 0.464-0.004 1.277-0.075 1.508-0.493 0.417-0.755-0.325-2.728-1.020-3.863-0.224-0.366-0.244-0.821-0.054-1.206 0.189-0.385 0.564-0.643 0.99-0.686 3.47-0.346 6.352 0.509 8.576 2.536 3.782 3.446 4.438 9.252 4.551 11.33 3.397 1.944 5.257 4.501 5.257 7.261 0 0.295-0.022 0.593-0.067 0.888 2.141 1.783 3.267 3.848 3.267 6.008zM19.453 23.932c-1.672 1.228-3.962 2.912-3.962 4.168 0 0.953 0.378 1.907 1.127 2.842h38.762c0.748-0.934 1.127-1.887 1.127-2.842 0-1.953-1.579-3.532-2.902-4.512-0.42-0.311-0.601-0.852-0.453-1.352 0.101-0.343 0.153-0.692 0.153-1.033 0-1.956-1.62-3.877-4.563-5.407-0.413-0.214-0.672-0.644-0.671-1.11 0-0.067-0.020-6.833-3.769-10.241-1.282-1.166-2.887-1.812-4.789-1.934 0.529 1.343 0.928 3.123 0.159 4.518-0.442 0.801-1.435 1.759-3.663 1.783-6.612 0.069-11.395 2.19-12.181 4.259 0.641 0.271 1.244 0.529 1.49 1.181 0.223 0.59-0.030 1.254-0.59 1.544-4.462 2.322-5.702 3.989-5.975 4.957 0.062 0.034 0.124 0.068 0.177 0.097 0.606 0.335 1.233 0.682 1.441 1.386 0.147 0.5-0.035 1.040-0.454 1.351zM45.31 66.508l1.238 1.234 0.946-7.877-0.572 0.572-1.609-1.609-1.609 1.609-1.759-1.759 3.368-3.368 2.435 2.436 0.478-3.984-1.305-1.305 1.244-1.244 0.327 0.327 0.979-8.157h-3.646l2.853 2.853-1.759 1.759-1.609-1.609-1.609 1.609-1.759-1.759 2.853-2.853h-7.679l2.853 2.853-1.759 1.759-1.609-1.609-1.609 1.609-1.759-1.759 2.853-2.853h-7.679l2.853 2.853-1.759 1.759-1.609-1.609-1.609 1.609-1.759-1.759 2.853-2.853h-4.894l0.791 6.589 0.885-0.883 3.368 3.368-1.759 1.759-1.609-1.609-0.364 0.364-0.18-0.182 1.184 9.86 0.24-0.24 2.488 2.488-1.759 1.759-0.555-0.555 0.299 2.482c0.010 0.082 0.045 0.154 0.072 0.23l2.308-2.308 3.004 3.004h2.702l3.004-3.004 3.004 3.004h2.702zM54.235 38.008l0.866-4.579h-38.248l0.866 4.579c0.015 0.076 0.022 0.153 0.022 0.231 0 1.464 1.254 2.656 2.797 2.656h30.877c1.543 0 2.797-1.192 2.797-2.656 0-0.078 0.008-0.155 0.022-0.231zM29.136 16.011c-0.687 0-1.244-0.556-1.244-1.244s0.557-1.244 1.244-1.244h3.733c0.687 0 1.244 0.556 1.244 1.244s-0.557 1.244-1.244 1.244h-3.733zM41.578 16.011c-0.687 0-1.244-0.556-1.244-1.244s0.557-1.244 1.244-1.244h2.488c0.687 0 1.244 0.556 1.244 1.244s-0.557 1.244-1.244 1.244h-2.488zM32.863 20.987c0.687 0 1.244 0.556 1.244 1.244s-0.557 1.244-1.244 1.244h-1.239c-0.687 0-1.244-0.556-1.244-1.244s0.557-1.244 1.244-1.244h1.239zM38.562 23.476c-0.687 0-1.244-0.556-1.244-1.244s0.557-1.244 1.244-1.244h2.281c0.687 0 1.244 0.556 1.244 1.244s-0.557 1.244-1.244 1.244h-2.281zM46.56 23.476c-0.687 0-1.244-0.556-1.244-1.244s0.557-1.244 1.244-1.244h1.239c0.687 0 1.244 0.556 1.244 1.244s-0.557 1.244-1.244 1.244h-1.239zM25.403 23.476c-0.687 0-1.244-0.556-1.244-1.244s0.557-1.244 1.244-1.244h1.244c0.687 0 1.244 0.556 1.244 1.244s-0.557 1.244-1.244 1.244h-1.244z"></path>
</svg>
