<!-- Generated by IcoMoon.io -->
<svg version="1.1" xmlns="http://www.w3.org/2000/svg" width="72" height="72" viewBox="0 0 72 72">
<title>uniF1AB</title>
<path d="M57.393 24.225c-0.123 0.157-0.24 0.318-0.381 0.464-0.112 0.114-0.24 0.21-0.362 0.315-0.148 0.128-0.292 0.26-0.453 0.373-0.132 0.093-0.278 0.165-0.419 0.246-0.17 0.098-0.336 0.2-0.517 0.28-0.15 0.067-0.308 0.112-0.464 0.166-0.189 0.064-0.375 0.132-0.571 0.177-0.163 0.036-0.332 0.053-0.5 0.075-0.153 0.021-0.302 0.060-0.459 0.069-2.465 5.635-7.576 9.692-13.497 10.923v30.914c0 2.079-1.692 3.771-3.771 3.771s-3.771-1.692-3.771-3.771v-30.915c-5.92-1.231-11.032-5.286-13.497-10.923-0.157-0.009-0.305-0.048-0.459-0.069-0.168-0.023-0.337-0.038-0.5-0.076-0.197-0.045-0.382-0.112-0.571-0.177-0.157-0.054-0.315-0.099-0.465-0.166-0.181-0.080-0.347-0.182-0.517-0.28-0.141-0.082-0.287-0.155-0.42-0.248-0.161-0.112-0.304-0.245-0.453-0.373-0.122-0.104-0.25-0.201-0.362-0.315-0.138-0.142-0.256-0.303-0.38-0.46-0.097-0.123-0.205-0.238-0.292-0.37-0.116-0.173-0.204-0.365-0.299-0.551-0.069-0.135-0.151-0.259-0.209-0.399-0.090-0.216-0.147-0.446-0.21-0.675-0.035-0.125-0.086-0.241-0.112-0.37-0.073-0.362-0.113-0.737-0.113-1.12 0-0.361 0.041-0.711 0.107-1.053 0.021-0.108 0.054-0.21 0.081-0.316 0.058-0.231 0.126-0.458 0.211-0.678 0.045-0.117 0.095-0.228 0.148-0.339 0.092-0.198 0.195-0.387 0.309-0.571 0.068-0.111 0.134-0.22 0.21-0.326 0.119-0.166 0.251-0.319 0.388-0.471 0.093-0.104 0.179-0.212 0.279-0.309 0.113-0.108 0.241-0.2 0.363-0.299 0.342-0.279 0.711-0.522 1.112-0.717 0.018-0.009 0.034-0.020 0.053-0.029 0.253-0.118 0.518-0.21 0.789-0.29 0.027-0.006 0.049-0.019 0.074-0.026 1.676-8.796 9.474-15.319 18.503-15.319s16.827 6.523 18.5 15.319c0.026 0.006 0.049 0.019 0.074 0.026 0.271 0.081 0.537 0.171 0.79 0.29 0.018 0.009 0.034 0.020 0.053 0.029 0.401 0.194 0.769 0.436 1.111 0.715 0.123 0.099 0.251 0.191 0.365 0.3 0.101 0.097 0.186 0.205 0.279 0.309 0.136 0.152 0.269 0.306 0.388 0.471 0.076 0.106 0.142 0.215 0.21 0.326 0.114 0.185 0.218 0.373 0.311 0.571 0.053 0.112 0.103 0.222 0.148 0.338 0.086 0.22 0.153 0.448 0.211 0.679 0.026 0.106 0.060 0.206 0.081 0.314 0.065 0.342 0.107 0.693 0.107 1.053 0 0.383-0.040 0.758-0.113 1.12-0.026 0.127-0.077 0.243-0.111 0.367-0.063 0.23-0.121 0.461-0.211 0.679-0.058 0.138-0.139 0.263-0.207 0.396-0.097 0.186-0.185 0.377-0.3 0.552-0.087 0.132-0.194 0.246-0.292 0.37zM37.257 59.819v-2.73l-2.514 2.514v2.73zM37.257 53.534v-2.73l-2.514 2.514v2.73zM37.257 47.248v-2.73l-2.514 2.514v2.73zM36 69.486c0.694 0 1.257-0.563 1.257-1.257v-4.855l-2.514 2.514v2.341c0 0.694 0.563 1.257 1.257 1.257zM37.257 40.963v-3.299c-0.417 0.029-0.836 0.048-1.257 0.048s-0.84-0.020-1.257-0.048v5.813zM38.656 34.97c5.021-0.843 9.433-4.033 11.81-8.573h-3.153c-0.695 0-1.257-0.562-1.257-1.257s0.562-1.257 1.257-1.257h5.657c1.733 0 3.143-1.409 3.143-3.143 0-0.209-0.023-0.411-0.062-0.608-0.016-0.081-0.047-0.157-0.069-0.236-0.031-0.111-0.059-0.222-0.102-0.327s-0.098-0.202-0.152-0.3c-0.036-0.068-0.069-0.138-0.111-0.204-0.077-0.119-0.165-0.231-0.258-0.339-0.026-0.033-0.051-0.067-0.079-0.097-0.119-0.128-0.249-0.248-0.388-0.354-0.002-0.003-0.006-0.006-0.010-0.009-0.45-0.342-0.998-0.567-1.603-0.628l-0.376-0.038h-1.819c-0.695 0-1.257-0.562-1.257-1.257s0.562-1.257 1.257-1.257h0.798c-1.722-7.263-8.303-12.571-15.883-12.571s-14.161 5.307-15.883 12.571h2.055c0.695 0 1.257 0.562 1.257 1.257s-0.562 1.257-1.257 1.257h-3.076l-0.376 0.040c-0.605 0.062-1.153 0.287-1.603 0.629-0.002 0.002-0.006 0.006-0.010 0.009-0.141 0.107-0.269 0.226-0.388 0.354-0.028 0.031-0.053 0.065-0.079 0.097-0.092 0.108-0.181 0.22-0.258 0.339-0.041 0.065-0.074 0.136-0.111 0.204-0.054 0.098-0.109 0.196-0.152 0.3-0.043 0.106-0.070 0.216-0.102 0.327-0.023 0.079-0.053 0.155-0.069 0.236-0.039 0.196-0.062 0.4-0.062 0.608 0 1.733 1.409 3.143 3.143 3.143h4.4c0.695 0 1.257 0.562 1.257 1.257s-0.562 1.257-1.257 1.257h-1.896c2.377 4.539 6.789 7.728 11.81 8.572l0.319 0.045c0.424 0.060 0.82 0.107 1.203 0.137 0.376 0.026 0.753 0.044 1.134 0.044s0.758-0.018 1.134-0.045c0.383-0.030 0.779-0.075 1.203-0.137z"></path>
</svg>
