<!-- Generated by IcoMoon.io -->
<svg version="1.1" xmlns="http://www.w3.org/2000/svg" width="72" height="72" viewBox="0 0 72 72">
<title>uniF1CE</title>
<path d="M68.211 35.368c2.089 0 3.789 1.7 3.789 3.789s-1.7 3.789-3.789 3.789h-3.789v8.588c0 4.319-3.498 7.833-7.794 7.833h-1.214c-0.424 1.271-1.654 2.398-3.651 3.906l-1.008 0.762-0.762-1.008c-0.384-0.509-0.741-0.969-1.069-1.389-0.676-0.872-1.237-1.6-1.66-2.27h-7.134c-0.851 0.81-1.923 1.671-3.208 2.642l-1.008 0.762-0.762-1.008c-0.595-0.789-1.152-1.503-1.659-2.159-0.064-0.083-0.12-0.157-0.183-0.237h-7.897c-0.424 1.271-1.653 2.398-3.649 3.906l-1.008 0.762-0.762-1.008c-0.384-0.508-0.742-0.969-1.069-1.389-0.677-0.872-1.238-1.6-1.661-2.27h-1.89c-4.298 0-7.796-3.514-7.796-7.833v-8.588h-3.789c-2.089 0-3.789-1.7-3.789-3.789s1.7-3.789 3.789-3.789h3.76c-0.063-0.728-0.28-1.435-0.656-2.065l-2.060-3.451c-0.407-0.68-0.416-1.528-0.024-2.216 0.389-0.685 1.119-1.11 1.905-1.11h21.126c-0.030-0.208-0.052-0.418-0.052-0.632 0-2.438 1.983-4.421 4.421-4.421s4.421 1.983 4.421 4.421c0 0.213-0.021 0.423-0.052 0.632h28.705c0.786 0 1.516 0.426 1.905 1.11 0.39 0.687 0.382 1.536-0.023 2.214l-2.061 3.453c-0.375 0.629-0.591 1.336-0.656 2.064h3.76zM30.316 25.895c0 0.237 0.047 0.45 0.114 0.632h3.562c0.067-0.182 0.114-0.394 0.114-0.632 0-1.045-0.85-1.895-1.895-1.895s-1.895 0.85-1.895 1.895zM3.789 40.421h3.789v-2.526h-3.789c-0.697 0-1.263 0.566-1.263 1.263s0.566 1.263 1.263 1.263zM21.23 60.488c0.932-0.759 1.752-1.54 1.82-2.046 0.008-0.058-0.001-0.124-0.011-0.191-0.024-0.147-0.085-0.315-0.181-0.506-0.006-0.011-0.011-0.024-0.018-0.035-0.105-0.203-0.243-0.43-0.412-0.678-0.001-0.001-0.002-0.004-0.004-0.005-0.349-0.514-0.819-1.119-1.343-1.796-0.1-0.128-0.202-0.26-0.308-0.397-0.261 0.212-0.485 0.404-0.681 0.58-0.197 0.177-0.376 0.351-0.534 0.518-0.030 0.033-0.049 0.059-0.077 0.091-0.107 0.12-0.2 0.234-0.277 0.344-0.044 0.063-0.080 0.124-0.11 0.181-0.039 0.068-0.062 0.131-0.083 0.195-0.051 0.154-0.061 0.29-0.034 0.414 0.016 0.068 0.041 0.141 0.072 0.22 0.023 0.053 0.048 0.106 0.074 0.16 0.299 0.62 0.963 1.479 1.797 2.555 0.1 0.129 0.202 0.261 0.308 0.398zM36.83 49.684c-0.287-0.371-0.59-0.762-0.906-1.176-2.096 1.646-3.472 2.984-3.616 4.057-0.053 0.402 0.063 0.86 0.313 1.388 0.005 0.011 0.009 0.021 0.014 0.033 0.077 0.158 0.168 0.325 0.268 0.495 0.018 0.032 0.034 0.062 0.053 0.094 0.095 0.16 0.202 0.327 0.316 0.499 0.035 0.052 0.068 0.104 0.105 0.157 0.111 0.166 0.23 0.335 0.356 0.51 0.049 0.068 0.098 0.138 0.15 0.207 0.131 0.181 0.268 0.364 0.412 0.555 0.043 0.056 0.087 0.115 0.131 0.173 0.162 0.212 0.326 0.428 0.502 0.656l0.284 0.368c0.094 0.12 0.18 0.231 0.277 0.356 0.288 0.37 0.59 0.76 0.907 1.172 0.8-0.628 1.493-1.21 2.055-1.751l0.256-0.26c0.115-0.116 0.219-0.227 0.32-0.336 0.404-0.45 0.699-0.868 0.858-1.253 0.011-0.032 0.025-0.064 0.035-0.096 0.021-0.059 0.031-0.117 0.047-0.175 0.064-0.296 0.058-0.6-0.032-0.939-0.004-0.015-0.006-0.030-0.011-0.045-0.032-0.115-0.075-0.235-0.125-0.359-0.011-0.029-0.027-0.059-0.039-0.090-0.402-0.922-1.292-2.125-2.714-3.962-0.073-0.094-0.139-0.179-0.215-0.277zM51.227 60.488c0.934-0.759 1.752-1.54 1.824-2.044 0.008-0.057-0.001-0.124-0.011-0.191-0.024-0.145-0.085-0.312-0.18-0.503-0.008-0.015-0.015-0.030-0.023-0.045-0.102-0.198-0.237-0.418-0.4-0.659-0.011-0.016-0.023-0.033-0.034-0.049-0.166-0.243-0.356-0.504-0.567-0.784-0.034-0.044-0.071-0.091-0.105-0.136-0.17-0.225-0.352-0.46-0.542-0.705-0.037-0.047-0.071-0.090-0.107-0.138-0.042-0.053-0.086-0.11-0.129-0.166-0.059-0.077-0.117-0.151-0.179-0.231-0.261 0.211-0.485 0.402-0.68 0.577-0.198 0.178-0.379 0.352-0.537 0.52-0.030 0.033-0.048 0.058-0.076 0.088-0.109 0.12-0.201 0.235-0.279 0.346-0.042 0.062-0.077 0.121-0.107 0.177-0.040 0.072-0.064 0.138-0.086 0.203-0.044 0.139-0.061 0.265-0.041 0.379 0.016 0.077 0.045 0.163 0.082 0.253 0.020 0.047 0.042 0.095 0.066 0.143 0.296 0.62 0.963 1.484 1.803 2.567 0.1 0.129 0.203 0.261 0.308 0.398zM61.895 51.536v-16.167h0.028c0.069-1.184 0.406-2.337 1.014-3.357l1.763-2.958h-57.402l1.763 2.957c0.61 1.021 0.946 2.175 1.014 3.359h0.029v16.167c0 2.925 2.363 5.307 5.27 5.307h1.045c0.001-0.056 0.018-0.109 0.024-0.163 0.004-0.044-0.001-0.087 0.005-0.133 0.008-0.052 0.025-0.102 0.035-0.154 0.020-0.11 0.042-0.22 0.073-0.326 0.028-0.094 0.064-0.187 0.101-0.279 0.039-0.098 0.074-0.197 0.122-0.293 0.049-0.1 0.113-0.2 0.173-0.298 0.054-0.091 0.104-0.182 0.166-0.27 0.047-0.067 0.106-0.135 0.158-0.202 0.687-0.893 1.73-1.747 2.962-2.678l1.008-0.762 0.76 1.009c0.345 0.457 0.659 0.863 0.959 1.248 0.035 0.045 0.074 0.096 0.11 0.141 0.239 0.307 0.46 0.594 0.669 0.869 0.025 0.034 0.049 0.067 0.075 0.1 0.172 0.226 0.333 0.446 0.482 0.656 0.048 0.066 0.092 0.131 0.136 0.196 0.125 0.181 0.241 0.357 0.347 0.529 0.039 0.062 0.077 0.125 0.113 0.186 0.107 0.182 0.201 0.36 0.283 0.536 0.014 0.029 0.034 0.061 0.047 0.090h6.19c-0.043-0.061-0.080-0.119-0.12-0.179-0.078-0.115-0.155-0.23-0.227-0.341-0.136-0.211-0.264-0.418-0.382-0.621-0.069-0.12-0.131-0.239-0.193-0.356-0.081-0.153-0.157-0.306-0.225-0.456-0.049-0.11-0.097-0.22-0.14-0.328-0.064-0.164-0.119-0.327-0.167-0.49-0.039-0.133-0.071-0.267-0.099-0.398-0.032-0.149-0.057-0.299-0.072-0.449-0.011-0.104-0.019-0.207-0.021-0.311-0.005-0.164 0.001-0.33 0.016-0.495 0.005-0.061-0.001-0.12 0.006-0.181 0.246-1.861 1.736-3.471 4.392-5.574 0.38-0.301 0.783-0.611 1.21-0.934l1.008-0.762 0.76 1.007c0.596 0.79 1.152 1.504 1.659 2.159 0.064 0.083 0.12 0.157 0.183 0.238 0.143 0.184 0.284 0.366 0.421 0.544 0.13 0.168 0.26 0.34 0.384 0.502 0.162 0.213 0.318 0.421 0.469 0.625 1.16 1.563 1.933 2.829 2.178 4.074 0.028 0.136 0.050 0.273 0.066 0.409 0.008 0.075 0.019 0.149 0.023 0.224 0.014 0.238 0.005 0.475-0.024 0.712-0.001 0.014 0 0.028-0.001 0.042-0.002 0.021-0.011 0.040-0.014 0.062-0.033 0.216-0.081 0.433-0.152 0.653-0.010 0.030-0.016 0.062-0.027 0.093-0.061 0.176-0.133 0.353-0.22 0.531h4.309c0.001-0.056 0.018-0.107 0.023-0.163 0.004-0.044-0.001-0.087 0.005-0.133 0.008-0.052 0.025-0.102 0.035-0.154 0.020-0.11 0.042-0.22 0.073-0.326 0.028-0.095 0.066-0.188 0.102-0.28 0.039-0.097 0.075-0.196 0.122-0.292 0.051-0.101 0.114-0.201 0.174-0.301 0.054-0.090 0.102-0.179 0.164-0.268 0.047-0.067 0.107-0.135 0.159-0.203 0.687-0.893 1.728-1.747 2.96-2.677l1.008-0.762 0.763 1.004c0.384 0.508 0.74 0.968 1.067 1.387 0.069 0.091 0.129 0.168 0.196 0.255 0.154 0.2 0.307 0.398 0.448 0.584 0.045 0.061 0.088 0.119 0.133 0.178 0.159 0.211 0.309 0.417 0.45 0.613 0.045 0.064 0.088 0.128 0.131 0.189 0.13 0.187 0.249 0.37 0.359 0.547 0.034 0.054 0.068 0.111 0.1 0.166 0.112 0.192 0.211 0.38 0.297 0.565 0.010 0.023 0.027 0.048 0.037 0.071h1.4c2.906 0 5.27-2.381 5.27-5.307zM68.211 40.421c0.697 0 1.263-0.566 1.263-1.263s-0.566-1.263-1.263-1.263h-3.789v2.526h3.789zM39.789 13.895c-2.438 0-4.421-1.983-4.421-4.421s1.983-4.421 4.421-4.421 4.421 1.983 4.421 4.421-1.983 4.421-4.421 4.421zM39.789 7.579c-1.045 0-1.895 0.85-1.895 1.895s0.85 1.895 1.895 1.895 1.895-0.85 1.895-1.895-0.85-1.895-1.895-1.895zM51.789 20.211c0-1.684 0.842-2.526 2.526-2.526s2.526 0.842 2.526 2.526c0 1.684-0.842 2.526-2.526 2.526s-2.526-0.842-2.526-2.526zM18.947 20.211c0-0.699 0.565-1.286 1.263-1.286s1.263 0.542 1.263 1.24v0.046c0 1.074-0.332 2.098-0.96 2.965-0.248 0.34-0.633 0.522-1.024 0.522-0.256 0-0.517-0.077-0.74-0.24-0.566-0.409-0.691-1.199-0.282-1.763 0.315-0.433 0.48-0.946 0.48-1.483zM16.421 17.684c-0.698 0-1.278-0.565-1.278-1.263s0.547-1.263 1.245-1.263h0.033c1.059 0 2.073 0.323 2.931 0.935 0.567 0.407 0.698 1.195 0.294 1.763-0.246 0.345-0.634 0.529-1.029 0.529-0.254 0-0.509-0.077-0.733-0.235-0.427-0.304-0.932-0.466-1.463-0.466zM12.631 21.485c-0.698 0-1.263-0.555-1.263-1.252v-0.023c0-1.061 0.327-2.078 0.944-2.942 0.408-0.568 1.195-0.698 1.763-0.293 0.567 0.407 0.697 1.195 0.292 1.762-0.309 0.433-0.472 0.942-0.472 1.473 0 0.698-0.565 1.274-1.263 1.274zM13.182 22.547c0.405-0.566 1.197-0.695 1.763-0.287 0.432 0.312 0.941 0.476 1.475 0.476 0.699 0 1.268 0.565 1.268 1.263s-0.558 1.263-1.257 1.263h-0.011c-1.067 0-2.088-0.33-2.952-0.953-0.567-0.408-0.693-1.197-0.287-1.763zM51.789 64.421c0.699 0 1.263 0.565 1.263 1.263s-0.565 1.263-1.263 1.263h-32.842c-0.699 0-1.263-0.565-1.263-1.263s0.565-1.263 1.263-1.263h32.842zM58.105 32.842c0.698 0 1.263 0.565 1.263 1.263s-0.565 1.263-1.263 1.263h-32.749c-0.698 0-1.263-0.565-1.263-1.263s0.565-1.263 1.263-1.263h32.749zM19.992 32.842c0.699 0 1.263 0.565 1.263 1.263s-0.565 1.263-1.263 1.263h-6.097c-0.698 0-1.263-0.565-1.263-1.263s0.565-1.263 1.263-1.263h6.097z"></path>
</svg>
