<!-- Generated by IcoMoon.io -->
<svg version="1.1" xmlns="http://www.w3.org/2000/svg" width="72" height="72" viewBox="0 0 72 72">
<title>uniF138</title>
<path d="M69.736 25.848v0.003h0.003v35.293h-0.007v4.314c0 3.577-2.91 6.489-6.49 6.489h-20.955c-2.223 0-4.227-1.134-5.401-2.919-2.219 1.894-4.942 2.951-7.948 2.975h-13.043c-5.122-0.041-9.429-3.057-11.794-8.145h-0.033l-0.343-0.847c-0.019-0.049-0.031-0.101-0.050-0.149-0.068-0.174-0.143-0.342-0.206-0.52-0.159-0.438-0.301-0.895-0.432-1.36-0.026-0.088-0.043-0.178-0.066-0.266-0.143-0.539-0.263-1.095-0.365-1.663-0.030-0.167-0.064-0.333-0.090-0.501-0.096-0.624-0.168-1.261-0.212-1.91-0.008-0.118-0.011-0.236-0.016-0.356-0.299-5.704 1.518-12.115 6.764-16.556 2.306-1.952 3.178-3.699 3.509-4.748-1.471-0.615-2.51-2.066-2.51-3.759 0-2.245 1.827-4.072 4.072-4.072h16.289c2.245 0 4.072 1.827 4.072 4.072 0 1.589-0.926 2.955-2.257 3.626 0.297 1.030 1.14 2.842 3.548 4.88 0.009 0.007 0.016 0.015 0.024 0.022v-15.316c0-6.388 3.831-9.555 6.63-11.868 0.333-0.276 0.657-0.544 0.965-0.809 0.091-0.079 0.172-0.164 0.25-0.251 0.266-0.315 0.376-0.698 0.322-1.135-0.075-0.609-0.472-1.239-1.037-1.645-0.005-0.004-0.009-0.009-0.015-0.014-0.235-0.172-0.447-0.369-0.639-0.586-0.045-0.049-0.084-0.101-0.125-0.151-0.148-0.183-0.278-0.377-0.394-0.585-0.037-0.067-0.075-0.13-0.107-0.198-0.102-0.21-0.181-0.429-0.246-0.657-0.019-0.068-0.046-0.132-0.063-0.201-0.066-0.292-0.11-0.593-0.11-0.905v-1.358c0-2.245 1.827-4.072 4.072-4.072h14.932c2.245 0 4.072 1.827 4.072 4.072v1.358c0 0.308-0.041 0.607-0.106 0.896-0.015 0.067-0.042 0.128-0.060 0.191-0.062 0.224-0.138 0.441-0.237 0.649-0.034 0.073-0.076 0.143-0.116 0.213-0.104 0.187-0.218 0.366-0.35 0.535-0.056 0.072-0.113 0.141-0.172 0.209-0.143 0.16-0.299 0.305-0.464 0.443-0.045 0.038-0.079 0.085-0.126 0.121-0.577 0.432-0.939 1.090-0.969 1.758-0.012 0.262 0.028 0.609 0.235 0.941 0.442 0.512 1.026 0.976 1.285 1.195 2.749 2.31 6.51 5.473 6.51 11.854v1.414zM5.86 60.914c0.024 0.076 0.048 0.152 0.073 0.227h12.222c0.749 0 1.357-0.608 1.357-1.358v-10.859c0-0.749-0.608-1.357-1.357-1.357h-11.605c-0.068 0.153-0.126 0.311-0.19 0.467-0.113 0.276-0.223 0.552-0.322 0.833-0.095 0.274-0.183 0.551-0.263 0.832-0.054 0.182-0.104 0.365-0.153 0.549-0.090 0.338-0.176 0.677-0.246 1.019-0.005 0.030-0.009 0.061-0.016 0.092-0.259 1.298-0.383 2.61-0.38 3.897v0.011c0.003 1.125 0.111 2.227 0.297 3.288 0.039 0.223 0.075 0.447 0.123 0.668 0.043 0.205 0.096 0.405 0.147 0.605 0.094 0.365 0.195 0.729 0.312 1.086zM38.261 62.689c0.095-0.205 0.183-0.417 0.271-0.629 0.276-0.668 0.52-1.36 0.714-2.084 0.031-0.122 0.060-0.247 0.090-0.371 0.061-0.247 0.114-0.5 0.166-0.752 0.064-0.328 0.123-0.658 0.17-0.995l0.004-0.033c0.452-3.343 0.046-7.064-1.45-10.39-0.015-0.034-0.031-0.066-0.046-0.101-0.155-0.338-0.324-0.67-0.502-1-0.128-0.23-0.261-0.456-0.399-0.681-0.096-0.162-0.191-0.324-0.295-0.482-0.275-0.417-0.567-0.827-0.885-1.223l-0.179-0.223c-0.566-0.684-1.194-1.333-1.898-1.928-3.070-2.6-4.122-5.036-4.484-6.507h-5.576c-0.751 0-1.357-0.607-1.357-1.357s0.607-1.358 1.357-1.358h6.452c0.749 0 1.357-0.608 1.357-1.357s-0.608-1.357-1.357-1.357h-16.289c-0.749 0-1.357 0.608-1.357 1.357s0.608 1.357 1.357 1.357h2.893c0.751 0 1.357 0.607 1.357 1.358s-0.607 1.357-1.357 1.357h-1.725c-0.361 1.472-1.414 3.908-4.485 6.506-1.078 0.912-1.986 1.944-2.749 3.051h10.096c2.245 0 4.072 1.827 4.072 4.072v10.859c0 2.245-1.827 4.072-4.072 4.072h-10.979c1.982 3.437 5.050 5.4 8.732 5.43h13.022c2.743-0.022 5.153-1.117 7.026-3.098l0.339-0.392c0.486-0.563 0.923-1.196 1.319-1.873 0.063-0.107 0.129-0.212 0.19-0.323 0.162-0.293 0.312-0.597 0.456-0.908zM67.021 58.426v-29.863h-12.217v29.863h12.217zM60.461 13.787c0.324 0.285 0.666 0.573 1.018 0.869 2.598 2.184 5.542 4.661 5.542 9.777v1.414h-14.932v35.293h14.932v4.314c0 2.081-1.694 3.774-3.775 3.774h-20.956c-1.511 0-2.846-0.904-3.441-2.264 0.895-1.152 1.653-2.485 2.256-3.979 0.027-0.067 0.053-0.133 0.080-0.201 0.058-0.149 0.122-0.292 0.176-0.444 0.095-0.263 0.178-0.542 0.262-0.814 0.020-0.066 0.045-0.133 0.064-0.201 1.664-5.559 1.189-13.009-3.174-18.702v-18.189c0-5.111 2.999-7.589 5.644-9.776 0.348-0.288 0.686-0.567 1.007-0.844 0.198-0.17 0.375-0.35 0.54-0.544 0.762-0.895 1.1-2.040 0.953-3.227-0.019-0.183-0.081-0.36-0.126-0.54h0.505c0.751 0 1.357-0.607 1.357-1.358s-0.607-1.357-1.357-1.357h-1.735c-0.333 0-0.627-0.134-0.863-0.333-0.048-0.039-0.094-0.079-0.134-0.122-0.092-0.102-0.171-0.213-0.23-0.339-0.014-0.030-0.023-0.063-0.035-0.094-0.054-0.148-0.095-0.303-0.095-0.468v-1.359c0-0.749 0.608-1.357 1.358-1.357h14.932c0.749 0 1.357 0.608 1.357 1.357v1.358c0 0.202-0.051 0.394-0.136 0.57-0.022 0.046-0.057 0.081-0.084 0.123-0.076 0.124-0.167 0.238-0.282 0.334-0.233 0.197-0.525 0.33-0.855 0.33h-7.768c-0.751 0-1.358 0.607-1.358 1.357s0.607 1.358 1.358 1.358h6.661c-0.061 0.27-0.121 0.542-0.134 0.819-0.060 1.328 0.44 2.54 1.443 3.447z"></path>
</svg>
