<!-- Generated by IcoMoon.io -->
<svg version="1.1" xmlns="http://www.w3.org/2000/svg" width="72" height="72" viewBox="0 0 72 72">
<title>uniF18E</title>
<path d="M33.266 52.409c0.239 0.677-0.116 1.422-0.794 1.66-0.143 0.051-0.29 0.076-0.434 0.076-0.536 0-1.038-0.333-1.226-0.868-0.525-1.484-0.79-3.037-0.79-4.619 0-0.719 0.582-1.302 1.302-1.302s1.302 0.583 1.302 1.302c0 1.285 0.216 2.548 0.64 3.752zM43.851 59.883c0.717 0 1.302 0.583 1.302 1.302s-0.582 1.302-1.302 1.302h-0.003c-4 0-7.803-1.733-10.434-4.754-0.473-0.543-0.415-1.365 0.126-1.837 0.54-0.471 1.366-0.418 1.837 0.126 2.138 2.454 5.225 3.861 8.471 3.861h0.003zM72 23.663c0 7.311-4.285 14.002-10.814 17.142 1.001 2.312 1.561 4.856 1.561 7.531 0 10.496-8.54 19.036-19.036 19.036-9.075 0-16.675-6.388-18.57-14.9-1.962 0.667-4.006 1.022-6.104 1.022-10.496 0-19.036-8.54-19.036-19.036s8.54-19.036 19.038-19.036c5.983 0 11.422 2.842 14.938 7.302 0.493-10.059 8.808-18.096 18.988-18.096 10.496 0 19.036 8.54 19.036 19.036zM19.036 50.89c1.877 0 3.71-0.311 5.46-0.93-0.055-0.577-0.082-1.108-0.082-1.625 0-7.334 4.172-13.946 10.712-17.124-1.523-7.583-8.275-13.187-16.090-13.187-9.061 0-16.433 7.371-16.433 16.433s7.372 16.433 16.433 16.433zM43.711 64.77c9.060 0 16.433-7.372 16.433-16.433 0-2.324-1.553-6.467-1.553-6.467l-0.531-1.032c-2.643-5.134-7.686-8.454-13.359-8.882-0.142-0.009-0.285-0.017-0.428-0.022-0.221-0.012-0.444-0.021-0.666-0.023-9.011 0.057-16.327 7.402-16.327 16.427 0 9.061 7.372 16.433 16.433 16.433zM59.977 38.498c5.681-2.693 9.42-8.496 9.42-14.835 0-9.061-7.372-16.433-16.433-16.433s-16.433 7.372-16.433 16.433c0 2.251 0.45 4.429 1.343 6.487 1.824-0.564 3.695-0.849 5.576-0.849 0.053 0 0.105 0.005 0.159 0.005 0.034 0 0.068-0.005 0.102-0.005 0.16 0 0.314 0.019 0.473 0.023 0.242 0.009 0.484 0.018 0.725 0.036 6.39 0.401 11.923 3.957 15.068 9.137zM25.135 26.367c0 0.719-0.582 1.302-1.302 1.302s-1.302-0.583-1.302-1.302c0-0.676-1.113-1.432-2.604-1.432s-2.604 0.756-2.604 1.432 1.113 1.432 2.604 1.432c0.72 0 1.302 0.583 1.302 1.302s-0.582 1.302-1.302 1.302c-2.92 0-5.207-1.773-5.207-4.036s2.287-4.036 5.207-4.036 5.207 1.773 5.207 4.036zM53.775 10.094c2.92 0 5.207 1.773 5.207 4.036 0 0.719-0.582 1.302-1.302 1.302s-1.302-0.583-1.302-1.302c0-0.676-1.113-1.432-2.604-1.432s-2.604 0.755-2.604 1.432c0 0.676 1.113 1.432 2.604 1.432 0.72 0 1.302 0.583 1.302 1.302s-0.582 1.302-1.302 1.302c-2.92 0-5.207-1.773-5.207-4.036s2.287-4.036 5.207-4.036zM44.662 34.828c2.92 0 5.207 1.773 5.207 4.036 0 0.719-0.582 1.302-1.302 1.302s-1.302-0.583-1.302-1.302c0-0.676-1.113-1.432-2.604-1.432s-2.604 0.755-2.604 1.432c0 0.676 1.113 1.432 2.604 1.432 0.72 0 1.302 0.583 1.302 1.302s-0.582 1.302-1.302 1.302c-2.92 0-5.207-1.773-5.207-4.036s2.287-4.036 5.207-4.036z"></path>
</svg>
