<!-- Generated by IcoMoon.io -->
<svg version="1.1" xmlns="http://www.w3.org/2000/svg" width="72" height="72" viewBox="0 0 72 72">
<title>uniF193</title>
<path d="M68.339 35.686c2.018 0 3.659 1.643 3.659 3.661s-1.643 3.661-3.661 3.661h-21.272c-0.13 4.058-3.449 7.322-7.52 7.322h-29.062c-4.153 0-7.532-3.395-7.532-7.567v-0.565c0-0.847-0.228-1.678-0.661-2.405l-1.99-3.334c-0.39-0.655-0.4-1.475-0.023-2.141 0.376-0.661 1.081-1.073 1.842-1.073h45.796c0.76 0 1.466 0.411 1.842 1.073 0.239 0.421 0.305 0.903 0.234 1.368h18.349zM39.547 47.889c2.724 0 4.936-2.171 5.068-4.883h-0.037l0.091-1.305c0.001-0.017 0.005-0.033 0.006-0.050 0.018-0.249 0.049-0.494 0.094-0.738 0.009-0.048 0.019-0.094 0.029-0.142 0.045-0.223 0.096-0.445 0.164-0.664 0.031-0.101 0.070-0.198 0.104-0.298 0.057-0.164 0.112-0.328 0.182-0.487 0.117-0.268 0.248-0.531 0.397-0.781l1.705-2.857h-44.669l1.705 2.857c0.376 0.631 0.637 1.315 0.804 2.025h11.021c0.674 0 1.22 0.546 1.22 1.22s-0.547 1.22-1.22 1.22h-10.794c0.021 0.423 0.096 0.83 0.214 1.22h15.113c0.674 0 1.22 0.546 1.22 1.22s-0.547 1.22-1.22 1.22h-13.518c0.886 0.751 2.014 1.22 3.258 1.22h29.063zM68.339 40.567c0.672 0 1.219-0.545 1.219-1.219s-0.547-1.22-1.22-1.22h-19.603l-0.995 1.668c-0.002 0.005-0.005 0.010-0.007 0.015-0.133 0.225-0.244 0.465-0.337 0.715-0.005 0.013-0.010 0.028-0.015 0.041h20.957zM46.373 63.754c0.674 0 1.22 0.545 1.22 1.22s-0.547 1.22-1.22 1.22h-41.492c-0.674 0-1.22-0.545-1.22-1.22s0.547-1.22 1.22-1.22h4.767l-0.095-0.127c-0.37-0.491-0.715-0.935-1.031-1.341-1.622-2.090-2.601-3.352-2.393-4.92 0.195-1.475 1.438-2.668 3.662-4.348l0.974-0.736 0.736 0.974c0.37 0.491 0.715 0.935 1.031 1.341 1.622 2.091 2.601 3.352 2.393 4.92-0.192 1.443-1.389 2.617-3.518 4.237h12.886l-0.095-0.127c-0.37-0.491-0.715-0.935-1.031-1.341-1.622-2.090-2.6-3.352-2.393-4.92 0.195-1.475 1.438-2.668 3.662-4.348l0.974-0.736 0.736 0.974c0.37 0.491 0.715 0.935 1.031 1.341 1.622 2.091 2.601 3.352 2.393 4.92-0.192 1.443-1.389 2.617-3.518 4.237h12.579l-0.095-0.127c-0.37-0.491-0.715-0.935-1.031-1.341-1.622-2.090-2.601-3.352-2.393-4.92 0.195-1.475 1.438-2.668 3.662-4.348l0.974-0.736 0.736 0.974c0.37 0.491 0.715 0.935 1.031 1.341 1.622 2.091 2.601 3.352 2.393 4.92-0.192 1.443-1.389 2.617-3.518 4.237h5.985zM37.528 57.686c-0.074 0.558 0.754 1.625 1.903 3.103 0.096 0.123 0.197 0.251 0.298 0.383 0.902-0.732 1.694-1.488 1.759-1.977 0.073-0.558-0.755-1.626-1.903-3.103-0.096-0.123-0.197-0.251-0.298-0.383-0.902 0.732-1.694 1.488-1.759 1.977zM23.189 57.686c-0.073 0.558 0.755 1.625 1.903 3.103 0.096 0.123 0.197 0.251 0.298 0.383 0.902-0.732 1.694-1.488 1.759-1.977 0.073-0.558-0.755-1.626-1.903-3.103-0.096-0.123-0.197-0.251-0.298-0.383-0.902 0.732-1.694 1.488-1.759 1.977zM8.545 57.686c-0.073 0.558 0.755 1.625 1.903 3.103 0.096 0.123 0.197 0.251 0.298 0.383 0.902-0.732 1.694-1.488 1.759-1.977 0.073-0.558-0.755-1.626-1.903-3.103-0.096-0.123-0.197-0.251-0.298-0.383-0.902 0.732-1.694 1.488-1.759 1.977zM11.276 22.558c0-2.281 0.889-4.428 2.504-6.041 1.153-1.153 1.789-2.686 1.789-4.315 0-1.628-0.636-3.161-1.789-4.314-0.477-0.477-0.477-1.248 0-1.726s1.248-0.477 1.726 0c1.615 1.613 2.504 3.76 2.504 6.040 0 2.281-0.89 4.428-2.504 6.041-1.153 1.153-1.789 2.686-1.789 4.315 0 1.628 0.636 3.161 1.789 4.314 0.477 0.477 0.477 1.248 0 1.726-0.238 0.238-0.55 0.357-0.863 0.357s-0.625-0.12-0.863-0.357c-1.615-1.613-2.504-3.76-2.504-6.040zM26.214 22.558c0-2.281 0.89-4.428 2.504-6.041 1.153-1.153 1.789-2.686 1.789-4.315 0-1.628-0.636-3.161-1.789-4.314-0.477-0.477-0.477-1.248 0-1.726s1.248-0.477 1.726 0c1.614 1.613 2.504 3.76 2.504 6.040 0 2.281-0.89 4.428-2.504 6.041-1.153 1.153-1.789 2.686-1.789 4.315 0 1.628 0.636 3.161 1.789 4.314 0.477 0.477 0.477 1.248 0 1.726-0.238 0.238-0.55 0.357-0.863 0.357s-0.625-0.12-0.863-0.357c-1.614-1.613-2.504-3.76-2.504-6.040z"></path>
</svg>
