<!-- Generated by IcoMoon.io -->
<svg version="1.1" xmlns="http://www.w3.org/2000/svg" width="72" height="72" viewBox="0 0 72 72">
<title>uniF109</title>
<path d="M71.219 30.477c1.040 1.656 1.040 3.793 0 5.45-1.052 1.673-2.931 2.609-4.85 2.457 0.12 1.509-0.429 3.016-1.505 4.092s-2.573 1.627-4.092 1.505c0.12 1.51-0.429 3.017-1.505 4.093-1.078 1.074-2.577 1.616-4.092 1.505 0.12 1.509-0.429 3.015-1.504 4.092-1.079 1.077-2.593 1.622-4.095 1.505 0.12 1.509-0.429 3.016-1.505 4.092s-2.573 1.621-4.092 1.505c0.12 1.51-0.429 3.017-1.505 4.094-1.078 1.075-2.578 1.623-4.092 1.505 0.154 1.925-0.783 3.797-2.457 4.849-0.828 0.521-1.774 0.78-2.722 0.78-0.962 0.001-1.925-0.267-2.763-0.802-1.673-1.069-2.579-2.894-2.422-4.826-1.519 0.118-3.017-0.433-4.091-1.507-1.075-1.073-1.626-2.582-1.507-4.091-1.512 0.107-3.018-0.433-4.092-1.507-1.074-1.075-1.624-2.584-1.505-4.092-1.508 0.115-3.017-0.43-4.092-1.505s-1.626-2.583-1.505-4.092c-1.504 0.113-3.017-0.432-4.092-1.507-1.074-1.073-1.626-2.581-1.507-4.091-1.946 0.16-3.78-0.759-4.846-2.455-1.043-1.656-1.043-3.796-0.001-5.451 1.065-1.695 2.903-2.62 4.847-2.457-0.12-1.507 0.432-3.017 1.507-4.092 1.073-1.074 2.584-1.616 4.091-1.507-0.123-1.525 0.415-2.998 1.505-4.091 1.078-1.074 2.584-1.628 4.093-1.505-0.119-1.509 0.432-3.018 1.507-4.094 1.074-1.074 2.587-1.633 4.091-1.505-0.12-1.507 0.432-3.017 1.507-4.092 1.073-1.075 2.579-1.626 4.091-1.507-0.123-1.525 0.415-2.998 1.505-4.091 1.094-1.091 2.568-1.638 4.092-1.507-0.157-1.932 0.752-3.76 2.426-4.828 1.659-1.060 3.811-1.071 5.48-0.022 1.675 1.052 2.611 2.923 2.458 4.85 1.519-0.122 3.016 0.429 4.092 1.505s1.626 2.582 1.505 4.092c1.499-0.117 3.015 0.428 4.094 1.504 1.076 1.079 1.626 2.584 1.505 4.093 1.518-0.118 3.017 0.429 4.092 1.507 1.076 1.076 1.626 2.583 1.505 4.092 1.519-0.126 3.016 0.428 4.092 1.505 1.076 1.076 1.626 2.583 1.505 4.092 1.936-0.155 3.798 0.783 4.85 2.457zM69.119 34.605c0.528-0.839 0.528-1.968-0.004-2.796-0.605-0.961-1.667-1.452-2.754-1.281-0.691 0.108-1.39-0.119-1.881-0.609-0.496-0.496-0.719-1.182-0.611-1.88 0.134-0.859-0.151-1.735-0.763-2.346-0.611-0.61-1.485-0.896-2.342-0.763-0.687 0.103-1.394-0.12-1.882-0.61s-0.717-1.193-0.61-1.882c0.134-0.856-0.151-1.731-0.763-2.342-0.613-0.61-1.483-0.898-2.345-0.764-0.682 0.099-1.391-0.119-1.88-0.609s-0.717-1.193-0.61-1.882c0.136-0.869-0.143-1.723-0.764-2.344-0.62-0.62-1.473-0.9-2.344-0.763-0.698 0.109-1.383-0.114-1.88-0.609-0.489-0.489-0.718-1.192-0.611-1.88 0.134-0.859-0.151-1.735-0.763-2.346-0.611-0.61-1.488-0.895-2.343-0.763-0.706 0.11-1.385-0.114-1.88-0.609-0.49-0.489-0.719-1.192-0.613-1.882 0.171-1.098-0.32-2.153-1.281-2.755-0.848-0.532-1.984-0.526-2.826 0.012-0.935 0.599-1.421 1.637-1.267 2.711 0.102 0.704-0.126 1.396-0.625 1.895-0.499 0.497-1.188 0.732-1.894 0.623-0.853-0.117-1.699 0.159-2.31 0.77-0.61 0.61-0.892 1.453-0.768 2.312 0.102 0.703-0.126 1.394-0.624 1.892-0.499 0.497-1.189 0.732-1.895 0.623-0.854-0.119-1.699 0.158-2.31 0.769s-0.893 1.455-0.768 2.312c0.101 0.706-0.128 1.396-0.625 1.894-0.497 0.496-1.183 0.724-1.892 0.625-0.857-0.128-1.7 0.155-2.31 0.768-0.612 0.611-0.894 1.455-0.769 2.312 0.1 0.705-0.128 1.396-0.626 1.895-0.499 0.497-1.187 0.729-1.894 0.621-0.854-0.118-1.699 0.158-2.31 0.77-0.61 0.61-0.892 1.453-0.768 2.312 0.102 0.703-0.126 1.394-0.624 1.892-0.499 0.497-1.188 0.732-1.895 0.623-0.854-0.119-1.699 0.158-2.31 0.769s-0.893 1.455-0.768 2.311c0.1 0.706-0.128 1.396-0.625 1.894-0.499 0.497-1.189 0.727-1.894 0.625-1.077-0.158-2.124 0.336-2.721 1.285-0.53 0.841-0.53 1.969 0 2.81 0.599 0.951 1.653 1.442 2.728 1.285 0.703-0.104 1.395 0.124 1.892 0.623 0.497 0.497 0.723 1.187 0.619 1.89-0.125 0.858 0.154 1.704 0.768 2.315 0.614 0.615 1.458 0.89 2.319 0.769 0.699-0.109 1.393 0.124 1.89 0.62 0.497 0.497 0.724 1.187 0.621 1.89-0.126 0.861 0.153 1.706 0.766 2.32s1.46 0.885 2.319 0.766c0.702-0.11 1.393 0.123 1.891 0.621 0.496 0.497 0.723 1.185 0.62 1.889-0.126 0.861 0.154 1.706 0.768 2.32s1.461 0.89 2.319 0.768c0.707-0.11 1.393 0.123 1.89 0.62s0.724 1.188 0.62 1.892c-0.125 0.858 0.154 1.704 0.768 2.315 0.614 0.615 1.461 0.889 2.319 0.769 0.112-0.017 0.223-0.025 0.334-0.025 0.585 0 1.138 0.227 1.556 0.645 0.497 0.497 0.724 1.188 0.621 1.892-0.155 1.076 0.329 2.117 1.266 2.715 0.845 0.539 1.98 0.546 2.829 0.014 0.959-0.603 1.45-1.656 1.282-2.749-0.108-0.702 0.115-1.389 0.613-1.885s1.184-0.721 1.88-0.611c0.877 0.133 1.722-0.145 2.341-0.764 0.61-0.609 0.895-1.484 0.764-2.339-0.108-0.701 0.115-1.388 0.611-1.882 0.499-0.497 1.184-0.722 1.882-0.613 0.864 0.134 1.72-0.144 2.34-0.764 0.619-0.619 0.896-1.472 0.764-2.339-0.108-0.703 0.117-1.39 0.614-1.886 0.499-0.495 1.184-0.719 1.882-0.609 0.856 0.136 1.73-0.154 2.339-0.764s0.895-1.487 0.764-2.34c-0.109-0.698 0.114-1.385 0.61-1.881 0.495-0.497 1.176-0.729 1.882-0.614 0.874 0.13 1.722-0.146 2.341-0.764 0.61-0.609 0.895-1.484 0.764-2.339-0.108-0.701 0.115-1.388 0.611-1.882 0.497-0.497 1.184-0.723 1.882-0.613 0.867 0.131 1.721-0.145 2.34-0.764s0.897-1.472 0.764-2.339c-0.108-0.701 0.117-1.386 0.611-1.882 0.499-0.496 1.186-0.72 1.885-0.613 1.096 0.171 2.148-0.325 2.749-1.282zM9.672 38.184c0.484-0.485 1.269-0.485 1.754 0s0.485 1.269 0 1.753l-0.439 0.439c-0.242 0.242-0.559 0.363-0.877 0.363s-0.635-0.122-0.877-0.363c-0.485-0.485-0.485-1.269 0-1.753zM20.636 30.726c-0.242 0.243-0.559 0.363-0.877 0.363s-0.635-0.122-0.877-0.363c-0.485-0.485-0.485-1.269 0-1.753l0.439-0.439c0.485-0.485 1.269-0.485 1.753 0s0.485 1.269 0 1.753zM15.812 35.551c-0.242 0.242-0.559 0.363-0.877 0.363s-0.635-0.122-0.877-0.363c-0.485-0.485-0.485-1.269 0-1.753l0.439-0.439c0.485-0.485 1.269-0.485 1.753 0s0.485 1.269 0 1.753zM25.462 25.901c-0.242 0.242-0.559 0.363-0.877 0.363s-0.635-0.122-0.877-0.363c-0.485-0.485-0.485-1.269 0-1.753l0.439-0.439c0.485-0.485 1.269-0.485 1.753 0s0.485 1.269 0 1.753zM34.235 16.614c-0.318 0-0.634-0.12-0.877-0.363-0.485-0.485-0.485-1.269 0-1.753l0.439-0.439c0.485-0.485 1.269-0.485 1.753 0s0.485 1.269 0 1.753l-0.439 0.439c-0.242 0.242-0.559 0.363-0.877 0.363zM29.41 21.439c-0.319 0-0.636-0.122-0.878-0.365-0.484-0.485-0.484-1.27 0.002-1.753l0.439-0.439c0.486-0.484 1.27-0.484 1.753 0.002 0.484 0.485 0.484 1.27-0.002 1.753l-0.439 0.439c-0.242 0.241-0.558 0.362-0.875 0.362zM39.059 11.789c-0.317 0-0.635-0.122-0.877-0.363-0.485-0.485-0.485-1.269 0-1.754l0.439-0.439c0.485-0.485 1.269-0.485 1.753 0s0.485 1.269 0 1.753l-0.439 0.439c-0.242 0.242-0.559 0.363-0.877 0.363zM15.27 43.781c0.485-0.485 1.269-0.485 1.753 0s0.485 1.269 0 1.753l-0.439 0.439c-0.242 0.242-0.559 0.363-0.877 0.363s-0.635-0.122-0.877-0.363c-0.485-0.485-0.485-1.269 0-1.753zM21.411 41.149c-0.243 0.242-0.559 0.363-0.877 0.363s-0.635-0.122-0.877-0.363c-0.485-0.485-0.485-1.269 0-1.753l0.439-0.439c0.485-0.485 1.269-0.485 1.753 0s0.485 1.269 0 1.753zM26.235 36.322c-0.242 0.242-0.559 0.363-0.877 0.363s-0.635-0.121-0.877-0.363c-0.485-0.485-0.485-1.269 0-1.753l0.439-0.439c0.485-0.485 1.269-0.485 1.753 0s0.485 1.269 0 1.753zM40.708 21.85c-0.242 0.242-0.559 0.363-0.877 0.363s-0.635-0.122-0.877-0.363c-0.485-0.485-0.485-1.269 0-1.753l0.439-0.439c0.485-0.485 1.269-0.485 1.753 0s0.485 1.269 0 1.753zM34.569 24.482c0.484-0.484 1.269-0.485 1.753 0s0.485 1.269 0 1.753l-0.439 0.439c-0.242 0.242-0.559 0.363-0.877 0.363s-0.635-0.122-0.877-0.363c-0.485-0.485-0.485-1.269 0-1.753zM31.060 31.499c-0.243 0.243-0.559 0.363-0.877 0.363s-0.635-0.122-0.877-0.363c-0.485-0.485-0.485-1.269 0-1.753l0.439-0.439c0.485-0.485 1.269-0.485 1.753 0s0.485 1.269 0 1.753zM45.535 17.025c-0.243 0.242-0.559 0.363-0.877 0.363s-0.635-0.122-0.877-0.363c-0.485-0.485-0.485-1.269 0-1.753l0.439-0.439c0.485-0.485 1.269-0.485 1.753 0s0.485 1.269 0 1.754zM20.868 49.378c0.485-0.484 1.269-0.485 1.754 0s0.485 1.269 0 1.754l-0.439 0.439c-0.242 0.242-0.559 0.363-0.877 0.363s-0.635-0.122-0.877-0.363c-0.485-0.485-0.485-1.269 0-1.753zM31.832 41.921c-0.243 0.242-0.559 0.363-0.877 0.363s-0.635-0.122-0.877-0.363c-0.485-0.485-0.485-1.269 0-1.753l0.439-0.439c0.485-0.485 1.269-0.485 1.753 0s0.485 1.269 0 1.753zM27.007 46.745c-0.242 0.243-0.559 0.363-0.877 0.363s-0.635-0.122-0.877-0.363c-0.485-0.485-0.485-1.269 0-1.753l0.439-0.439c0.485-0.485 1.269-0.485 1.753 0s0.485 1.269 0 1.754zM41.481 32.271c-0.242 0.243-0.559 0.363-0.877 0.363s-0.635-0.122-0.877-0.363c-0.485-0.485-0.485-1.269 0-1.753l0.439-0.439c0.485-0.485 1.269-0.485 1.753 0s0.485 1.269 0 1.753zM36.656 37.096c-0.242 0.242-0.559 0.363-0.877 0.363s-0.635-0.122-0.877-0.363c-0.485-0.485-0.485-1.269 0-1.753l0.439-0.439c0.485-0.485 1.269-0.485 1.753 0s0.485 1.269 0 1.753zM46.306 27.447c-0.243 0.242-0.559 0.363-0.877 0.363s-0.635-0.122-0.877-0.363c-0.485-0.485-0.485-1.269 0-1.754l0.439-0.439c0.485-0.485 1.269-0.485 1.753 0s0.485 1.269 0 1.753zM51.131 22.621c-0.242 0.243-0.559 0.363-0.877 0.363s-0.635-0.122-0.877-0.363c-0.485-0.485-0.485-1.269 0-1.754l0.439-0.439c0.485-0.485 1.269-0.485 1.753 0s0.485 1.269 0 1.753zM26.465 54.977c0.484-0.485 1.269-0.485 1.753 0s0.485 1.269 0 1.753l-0.439 0.439c-0.242 0.242-0.559 0.363-0.877 0.363s-0.635-0.122-0.877-0.363c-0.485-0.485-0.485-1.269 0-1.753zM37.428 47.519c-0.242 0.243-0.559 0.363-0.877 0.363s-0.635-0.122-0.877-0.363c-0.485-0.485-0.485-1.269 0-1.753l0.439-0.439c0.485-0.485 1.269-0.485 1.753 0s0.485 1.269 0 1.753zM32.605 52.344c-0.242 0.242-0.559 0.363-0.877 0.363s-0.635-0.121-0.877-0.363c-0.485-0.485-0.485-1.269 0-1.753l0.439-0.439c0.485-0.485 1.269-0.485 1.753 0s0.485 1.269 0 1.753zM51.904 33.044c-0.242 0.242-0.559 0.363-0.877 0.363s-0.635-0.122-0.877-0.363c-0.485-0.485-0.485-1.269 0-1.753l0.439-0.439c0.485-0.485 1.269-0.485 1.753 0s0.485 1.269 0 1.753zM47.081 37.867c-0.243 0.243-0.559 0.365-0.878 0.365-0.317 0-0.634-0.122-0.875-0.362-0.486-0.484-0.486-1.269-0.002-1.753l0.439-0.439c0.485-0.486 1.269-0.486 1.753-0.002 0.486 0.484 0.486 1.269 0.002 1.753zM42.255 42.694c-0.242 0.242-0.559 0.363-0.877 0.363s-0.635-0.122-0.877-0.363c-0.485-0.485-0.485-1.269 0-1.753l0.439-0.439c0.485-0.485 1.269-0.485 1.753 0s0.485 1.269 0 1.753zM56.73 28.22c-0.242 0.242-0.559 0.363-0.877 0.363s-0.635-0.122-0.877-0.363c-0.485-0.485-0.485-1.269 0-1.753l0.439-0.439c0.485-0.485 1.269-0.485 1.753 0s0.485 1.269 0 1.754zM32.063 60.574c0.485-0.485 1.269-0.485 1.754 0s0.485 1.269 0 1.754l-0.439 0.439c-0.242 0.242-0.559 0.363-0.877 0.363s-0.635-0.122-0.877-0.363c-0.485-0.485-0.485-1.269 0-1.753zM36.888 55.749c0.485-0.485 1.269-0.485 1.753 0s0.485 1.269 0 1.753l-0.439 0.439c-0.242 0.242-0.559 0.363-0.877 0.363s-0.635-0.122-0.877-0.363c-0.485-0.485-0.485-1.269 0-1.753zM41.713 50.924c0.484-0.484 1.269-0.485 1.753 0s0.485 1.269 0 1.753l-0.439 0.439c-0.242 0.242-0.559 0.363-0.877 0.363s-0.635-0.122-0.877-0.363c-0.485-0.485-0.485-1.269 0-1.753zM46.537 46.099c0.485-0.485 1.269-0.485 1.753 0s0.485 1.269 0 1.753l-0.439 0.439c-0.242 0.242-0.559 0.363-0.877 0.363s-0.635-0.122-0.877-0.363c-0.485-0.485-0.485-1.269 0-1.753zM56.187 36.45c0.485-0.485 1.269-0.485 1.753 0s0.485 1.269 0 1.753l-0.439 0.439c-0.242 0.242-0.559 0.363-0.877 0.363s-0.635-0.122-0.877-0.363c-0.485-0.485-0.485-1.269 0-1.753zM51.364 41.273c0.485-0.481 1.27-0.484 1.753 0.002 0.484 0.485 0.484 1.27-0.002 1.753l-0.439 0.439c-0.242 0.241-0.558 0.362-0.875 0.362-0.319 0-0.636-0.122-0.878-0.365-0.484-0.485-0.484-1.27 0.002-1.753zM61.012 31.625c0.485-0.485 1.269-0.485 1.753 0s0.485 1.269 0 1.753l-0.439 0.439c-0.242 0.242-0.559 0.363-0.877 0.363s-0.635-0.122-0.877-0.363c-0.485-0.485-0.485-1.269 0-1.754z"></path>
</svg>
