<!-- Generated by IcoMoon.io -->
<svg version="1.1" xmlns="http://www.w3.org/2000/svg" width="72" height="72" viewBox="0 0 72 72">
<title>uniF118</title>
<path d="M53.981 20.912c2.318 3.713 2.808 6.156 1.497 7.467-0.163 0.163-0.351 0.284-0.548 0.388v34.399c0 5.036-8.409 8.834-19.562 8.834s-19.562-3.799-19.562-8.834v-36.598c0-5.035 8.409-8.834 19.562-8.834 0.591 0 1.185 0.029 1.778 0.053-1.614-1.651-3.137-3.327-4.495-5l-0.621-0.764 1.68-2.24-3.703-0.529-0.312-0.478c-2.644-4.047-3.26-6.684-1.883-8.061 1.31-1.313 3.755-0.823 7.467 1.496 3.087 1.927 6.728 4.928 10.25 8.451s6.523 7.163 8.451 10.25zM35.367 20.259c-10.041 0-17.039 3.327-17.039 6.311s6.997 6.31 17.037 6.31c0.564 0 1.114-0.014 1.657-0.034 0.197-0.006 0.39-0.018 0.583-0.028 0.333-0.016 0.663-0.038 0.987-0.062 0.24-0.018 0.478-0.037 0.713-0.058 0.239-0.023 0.469-0.049 0.703-0.074 5.446-0.61 9.522-2.236 11.335-4.027-0.088-0.033-0.186-0.085-0.276-0.121-0.135-0.054-0.276-0.122-0.415-0.183-0.314-0.14-0.632-0.289-0.962-0.461-0.288-0.149-0.578-0.305-0.875-0.476-0.129-0.075-0.259-0.153-0.389-0.231-0.346-0.208-0.694-0.427-1.048-0.658-0.085-0.054-0.167-0.107-0.25-0.163-0.902-0.602-1.817-1.269-2.725-1.976-0.138-0.107-0.274-0.215-0.41-0.323-0.299-0.236-0.594-0.475-0.889-0.717-0.173-0.143-0.344-0.281-0.516-0.425-0.374-0.314-0.742-0.63-1.104-0.946-0.21-0.184-0.413-0.367-0.618-0.552-0.227-0.204-0.452-0.406-0.673-0.608-0.091-0.083-0.186-0.167-0.275-0.249-1.509-0.167-3.039-0.25-4.553-0.25zM18.33 44.398v9.321c0.4 0.236 0.813 0.466 1.244 0.689 8.208 4.243 11.102 3.004 11.794 2.521 0.885-0.616 0.953-1.702 0.854-2.508-0.837-6.78-1.917-7.033-10.318-9.003 0 0-2.643-0.705-3.574-1.021zM52.404 63.168v-1.545c-3.423 3.082-9.93 5.265-17.037 5.265s-13.615-2.182-17.037-5.265v1.545c0 2.985 6.997 6.31 17.037 6.31s17.037-3.325 17.037-6.31zM52.404 56.858v-19.57c-3.3 2.649-9.55 4.36-17.037 4.36s-13.737-1.711-17.037-4.36v4.432c1.070 0.391 4.066 1.256 4.066 1.256 8.376 1.965 11.291 2.708 12.33 11.139 0.261 2.11-0.42 3.847-1.917 4.888-0.807 0.562-1.993 1.006-3.727 1.007-2.38 0-5.79-0.838-10.667-3.357-0.028-0.014-0.058-0.032-0.086-0.047v0.252c0 3.022 7.154 7.507 17.037 7.507s17.037-4.483 17.037-7.507zM52.404 32.814v-1.772c-0.584 0.469-1.292 0.897-2.053 1.304-0.040 0.021-0.082 0.043-0.124 0.064-1.041 0.545-2.227 1.025-3.547 1.435-0.038 0.011-0.077 0.024-0.116 0.035-0.838 0.255-1.72 0.482-2.653 0.678-0.064 0.013-0.126 0.029-0.19 0.042-0.404 0.082-0.815 0.156-1.236 0.226-0.321 0.054-0.649 0.102-0.978 0.149-0.398 0.057-0.794 0.112-1.204 0.157-0.602 0.067-1.217 0.12-1.84 0.163-0.237 0.016-0.476 0.029-0.717 0.042-0.781 0.040-1.571 0.068-2.379 0.068-0.842 0-1.662-0.029-2.471-0.071-0.239-0.011-0.472-0.029-0.708-0.045-0.593-0.040-1.176-0.092-1.749-0.154-0.221-0.024-0.443-0.045-0.66-0.073-0.752-0.095-1.49-0.202-2.199-0.333-0.049-0.009-0.095-0.021-0.143-0.030-0.661-0.125-1.296-0.269-1.913-0.424-0.198-0.049-0.387-0.102-0.581-0.155-0.483-0.133-0.95-0.274-1.402-0.424-0.169-0.057-0.342-0.11-0.506-0.169-0.586-0.209-1.147-0.429-1.671-0.668-0.062-0.029-0.115-0.061-0.175-0.088-0.459-0.215-0.89-0.442-1.297-0.678-0.14-0.082-0.271-0.165-0.405-0.249-0.328-0.206-0.636-0.418-0.924-0.637-0.073-0.055-0.163-0.105-0.233-0.162v1.771c0 2.985 6.997 6.31 17.037 6.31s17.037-3.325 17.037-6.31zM53.671 26.562c0.257-1.305-2.715-6.902-9.926-14.117-7.209-7.206-12.774-10.159-14.116-9.928-0.024 0.302 0.043 1.492 1.872 4.401l6.785 0.969-3.052 4.069c1.318 1.571 2.763 3.146 4.309 4.692 0.506 0.506 1.002 0.986 1.491 1.45h0.005l0.302 0.284c5.831 5.466 10.375 8.067 12.132 8.169zM29.062 21.62l1.252 2.191-8.833 5.048-1.252-2.191zM37.958 23.767l-11.36 7.572-1.399-2.1 11.359-7.572zM43.065 24.989l-10.096 7.572-1.513-2.018 10.096-7.572zM46.883 27.489l-6.31 5.048-1.578-1.973 6.31-5.048z"></path>
</svg>
