<!-- Generated by IcoMoon.io -->
<svg version="1.1" xmlns="http://www.w3.org/2000/svg" width="72" height="72" viewBox="0 0 72 72">
<title>uniF1C4</title>
<path d="M32.417 8.066c-0.043 0.726-0.376 1.412-0.915 1.884-0.474 0.418-1.066 0.641-1.684 0.641-0.059 0-0.12-0.001-0.181-0.007-1.427-0.1-2.515-1.381-2.426-2.858 0.046-0.729 0.38-1.415 0.916-1.887 0.521-0.456 1.174-0.694 1.864-0.632 1.427 0.1 2.515 1.381 2.425 2.858zM29.72 7.93l0.065-0.024 1.287 0.078zM70.588 36.716c0.536 1.283 0.488 2.752-0.131 4.036-0.612 1.263-1.712 2.198-3.020 2.565l-0.352 0.050-0.26 0.003 0.238 6.053-0.008 0.089c-0.117 1.245-0.768 2.38-1.79 3.113-0.716 0.515-1.558 0.784-2.401 0.784-0.005 0-0.012-0.003-0.019-0.003-0.375 0.406-0.738 0.798-1.040 1.121-0.364 0.388-0.637 0.68-0.734 0.795l-0.883 1.044c-4.269 5.045-8.302 9.812-9.706 12.954-0.72 1.609-2.368 2.682-4.075 2.682-0.088 0-0.175-0.003-0.263-0.008-1.342-0.088-2.4-0.899-2.764-2.114-1.017-3.407 1.851-8.252 3.749-11.458 0.314-0.531 0.59-0.996 0.794-1.37 0.15-0.274 0.15-0.469 0.104-0.552s-0.193-0.143-0.385-0.156c-0.663-0.055-1.823 0.094-2.948 0.229-3.005 0.361-4.913 0.517-6.073-0.333-1.039-0.763-1.438-2.064-1.040-3.397 0.519-1.746 2.145-3.036 3.954-3.134 1.697-0.096 4.057-0.554 6.394-1.221-0.024-0.051-0.059-0.093-0.082-0.146-0.512-1.206-0.407-2.621 0.282-3.783l0.139-0.195 0.912-1.058c-0.385-0.158-0.756-0.36-1.093-0.631-1.151-0.923-1.786-2.388-1.701-3.92l0.034-0.239 0.536-2.242c-0.367-0.371-0.701-0.779-0.953-1.264l-0.092-0.228-0.767-2.511c-1.919 2.982-5.261 4.966-9.064 4.966-0.745 0-1.348-0.602-1.348-1.347s0.602-1.348 1.348-1.348c2.773 0 5.224-1.404 6.681-3.539-0.113 0.005-0.228 0.019-0.341 0.019-1.346 0-2.678-0.377-3.85-1.065-1.406 1.178-3.213 1.889-5.185 1.889-0.745 0-1.348-0.602-1.348-1.348s0.602-1.348 1.348-1.348c1.151 0 2.213-0.369 3.089-0.985l-4.454-5.445c-0.115-0.104-0.22-0.213-0.325-0.325l-0.105-0.112c-0.288 0.032-0.571 0.071-0.871 0.090-0.507 0.032-1.013 0.048-1.519 0.048-9.616 0-18.79-5.762-22.413-8.341-0.682-0.485-1.046-1.282-0.973-2.129 0.045-0.538 0.276-1.013 0.62-1.388-3.496-2.207-5.584-5.332-5.379-8.712 0.046-0.741 0.711-1.273 1.427-1.263 0.744 0.045 1.308 0.685 1.264 1.426-0.163 2.68 2.054 5.265 5.502 6.991l16.931-8.176c0.323-0.098 7.968-2.323 12.632 0.95 0.026 0.018 0.047 0.039 0.073 0.058 0.61-0.093 1.215-0.081 1.803 0.043l15.186 2.393c1.551 0.33 2.893 1.346 3.683 2.789 0.825 1.511 0.963 3.299 0.384 4.925-0.022 0.104-0.058 0.272-0.108 0.484l7.766 6.169c1.206 0.873 1.986 2.252 2.143 3.789 0.163 1.609-0.365 3.204-1.451 4.373l-0.247 0.207-1.794 1.179zM65.945 20.773l-6.929-5.502c-1.419 4.173-4.698 11.058-11.368 14.273-0.152 0.074-0.296 0.156-0.453 0.226l1.249 4.093c0.178 0.31 0.412 0.565 0.68 0.761l0.078 0.053c0.221 0.148 0.459 0.243 0.702 0.305 0.028 0.007 0.057 0.016 0.085 0.022 0.244 0.052 0.495 0.066 0.741 0.034 0.015-0.003 0.028-0.009 0.042-0.011 0.221-0.034 0.435-0.109 0.643-0.207 0.053-0.026 0.105-0.052 0.156-0.082 0.216-0.124 0.423-0.271 0.605-0.466l0.247-0.208 13.988-9.204c0.492-0.59 0.726-1.366 0.645-2.155-0.078-0.779-0.465-1.467-1.055-1.889zM8.81 12.21c3.869 2.684 12.839 8.083 21.729 7.475 3.3-0.214 5.741-1.295 7.253-3.213 0.117-0.148 0.221-0.3 0.323-0.454 0.093-0.139 0.181-0.28 0.263-0.422 0.034-0.058 0.067-0.115 0.1-0.172 0.084-0.15 0.16-0.302 0.232-0.454 0.023-0.051 0.047-0.101 0.070-0.152 0.072-0.16 0.137-0.321 0.198-0.481 0.016-0.044 0.032-0.087 0.048-0.132 0.059-0.166 0.115-0.333 0.164-0.499 0.012-0.038 0.023-0.075 0.034-0.113 0.048-0.171 0.093-0.34 0.132-0.508 0.008-0.032 0.015-0.065 0.022-0.097 0.039-0.172 0.073-0.342 0.101-0.511 0.004-0.027 0.008-0.053 0.012-0.078 0.027-0.171 0.051-0.34 0.071-0.504 0.003-0.022 0.004-0.042 0.007-0.063 0.019-0.167 0.034-0.33 0.046-0.489 0.001-0.016 0.001-0.031 0.003-0.047 0.011-0.162 0.019-0.318 0.024-0.468 0.001-0.012 0.001-0.023 0.001-0.035 0.004-0.152 0.005-0.299 0.005-0.442v-0.008c0-0.144-0.004-0.28-0.008-0.407v-0.001c-0.015-0.387-0.045-0.686-0.066-0.868-0.004-0.030-0.007-0.050-0.009-0.073s-0.005-0.050-0.008-0.066c-0.004-0.034-0.008-0.054-0.008-0.057l-0.017-0.151c-0.031-0.523-0.101-1.003-0.201-1.453-0.036-0.164-0.097-0.306-0.143-0.461-0.078-0.266-0.159-0.532-0.265-0.771-0.081-0.178-0.183-0.336-0.279-0.499-0.106-0.181-0.213-0.363-0.338-0.526-0.125-0.162-0.269-0.307-0.415-0.453-0.201-0.199-0.392-0.407-0.631-0.574-2.938-2.061-8.267-1.158-10.212-0.602l-14.334 6.939c1.349 0.371 2.789 0.628 4.292 0.733 0.743 0.053 1.303 0.695 1.252 1.438-0.050 0.711-0.641 1.255-1.343 1.255-0.031 0-0.063-0.001-0.094-0.003-2.784-0.195-5.353-0.814-7.581-1.741zM40.347 27.85c0.964 0.452 2.051 0.598 3.089 0.363 0.194-0.045 0.38-0.101 0.569-0.152 0.104-0.519 0.16-1.055 0.16-1.604 0-0.745 0.602-1.348 1.347-1.348s1.348 0.602 1.348 1.348c0 0.162-0.018 0.319-0.024 0.48 0.278-0.145 0.559-0.288 0.823-0.449 0.016-0.009 0.032-0.019 0.047-0.028 3.989-2.442 6.444-6.536 7.856-9.771 0.013-0.031 0.026-0.061 0.039-0.090 0.105-0.241 0.202-0.477 0.295-0.708 0.046-0.115 0.092-0.228 0.135-0.339 0.049-0.125 0.093-0.244 0.137-0.364 0.818-2.186 1.139-3.769 1.147-3.816l0.063-0.222c0.346-0.919 0.279-1.936-0.189-2.791-0.412-0.753-1.066-1.263-1.846-1.438l-14.056-2.217c0.005 0.013 0.009 0.027 0.016 0.040 0.124 0.259 0.239 0.524 0.337 0.802 0.016 0.043 0.027 0.090 0.042 0.135 0.086 0.252 0.167 0.508 0.233 0.776 0.028 0.116 0.046 0.24 0.071 0.358 0.043 0.206 0.090 0.41 0.123 0.624 0.046 0.311 0.078 0.635 0.101 0.965 0.001 0.032 0.008 0.061 0.009 0.093 0.026 0.172 0.080 0.589 0.108 1.165v0.014c0.008 0.141 0.012 0.292 0.015 0.453v0.019c0.003 0.155 0.003 0.318 0 0.488v0.048c-0.003 0.17-0.009 0.345-0.019 0.527-0.001 0.019-0.001 0.036-0.003 0.055-0.009 0.181-0.024 0.367-0.042 0.558-0.003 0.024-0.004 0.048-0.007 0.073-0.019 0.189-0.042 0.383-0.069 0.579-0.004 0.028-0.008 0.057-0.012 0.086-0.028 0.195-0.062 0.393-0.1 0.596-0.007 0.034-0.013 0.067-0.020 0.101-0.039 0.2-0.084 0.4-0.133 0.605-0.009 0.038-0.020 0.077-0.030 0.115-0.051 0.204-0.108 0.406-0.171 0.61-0.013 0.042-0.027 0.084-0.040 0.125-0.065 0.204-0.135 0.406-0.213 0.61-0.017 0.043-0.035 0.088-0.052 0.131-0.080 0.204-0.164 0.406-0.259 0.608-0.020 0.046-0.045 0.090-0.066 0.136-0.096 0.201-0.197 0.4-0.307 0.598-0.026 0.047-0.055 0.093-0.082 0.139-0.115 0.195-0.232 0.391-0.361 0.584-0.005 0.009-0.009 0.017-0.015 0.026-1.126 2.182-2.904 3.73-5.296 4.621l3.191 3.9c0.334-0.702 0.538-1.477 0.538-2.306 0-0.745 0.602-1.348 1.348-1.348s1.347 0.602 1.347 1.348c0 1.493-0.414 2.888-1.123 4.090zM59.014 53.579c0.101-0.12 0.373-0.412 0.736-0.803l-9.252-2.19c-0.043-0.008-0.086-0.020-0.127-0.032-3.060 1.012-6.352 1.71-8.692 1.839-0.736 0.041-1.35 0.648-1.517 1.213-0.102 0.344 0.014 0.428 0.051 0.457 0.526 0.268 2.889-0.019 4.159-0.17 1.097-0.131 2.141-0.257 2.989-0.257 0.162 0 0.317 0.005 0.464 0.015 1.132 0.077 2.067 0.641 2.566 1.55 0.513 0.937 0.477 2.082-0.101 3.141-0.217 0.396-0.508 0.889-0.841 1.45-1.455 2.459-4.165 7.037-3.486 9.314 0.020 0.066 0.053 0.177 0.357 0.197 0.596 0.062 1.379-0.358 1.703-1.085 1.56-3.492 5.714-8.401 10.109-13.596zM64.365 49.334l-0.235-5.94-11.573 0.116-2.163 2.509c-0.212 0.412-0.238 0.868-0.070 1.267 0.063 0.147 0.198 0.373 0.45 0.532l0.154 0.065c0.119 0.051 0.159 0.070 0.204 0.085l11.485 2.714c0.485 0.102 0.885-0.11 1.079-0.249 0.365-0.263 0.606-0.66 0.668-1.098zM68.031 39.574c0.276-0.57 0.307-1.217 0.086-1.78l-4.133-8.114-9.954 6.549c-0.209 0.21-0.435 0.392-0.67 0.559-0.080 0.057-0.158 0.111-0.239 0.163-0.193 0.123-0.391 0.232-0.594 0.326-0.144 0.069-0.292 0.123-0.442 0.175-0.128 0.046-0.256 0.088-0.387 0.121-0.143 0.038-0.284 0.076-0.431 0.1-0.22 0.038-0.442 0.059-0.664 0.067-0.051 0.001-0.101 0.015-0.152 0.015-0.135 0-0.272-0.016-0.41-0.028-0.015-0.001-0.028-0.001-0.043-0.003-0.073-0.007-0.144-0.005-0.217-0.015-0.055-0.008-0.104-0.032-0.159-0.042-0.074-0.012-0.148-0.018-0.222-0.034l-0.328 1.373c-0.005 0.632 0.247 1.197 0.701 1.562 0.427 0.341 0.959 0.446 1.497 0.306l0.044-0.053 0.342-0.003 15.2-0.151c0.5-0.185 0.922-0.577 1.174-1.096z"></path>
</svg>
