<!-- Generated by IcoMoon.io -->
<svg version="1.1" xmlns="http://www.w3.org/2000/svg" width="72" height="72" viewBox="0 0 72 72">
<title>uniF16D</title>
<path d="M56.73 14.065c3.912 1.399 9.27 3.316 9.27 10.569v1.922c0 1.533-0.838 2.934-2.188 3.655-0.259 0.139-0.535 0.224-0.811 0.303v27.41c0 6.963-5.087 12.746-11.738 13.864l-0.010 0.051-0.774 0.069c-0.102 0.012-0.207 0.019-0.311 0.028l-0.017 0.001c-0.405 0.036-0.813 0.062-1.227 0.062h-25.85c-7.761 0-14.074-6.315-14.074-14.076v-29.908l-0.943 0.378c-0.464 0.185-0.986 0.128-1.398-0.151-0.411-0.279-0.658-0.744-0.658-1.242v-2.366c0-7.252 5.358-9.169 9.271-10.569 2.398-0.858 3.697-1.411 4.095-2.283-2.538-0.699-4.367-2.985-4.367-5.693v-0.18c0-3.258 2.652-5.91 5.91-5.91h30.18c3.258 0 5.91 2.652 5.91 5.91v0.18c0 2.723-1.851 5.020-4.361 5.703 0.405 0.865 1.704 1.419 4.091 2.272zM12 34.53v10.836c1.020 0.639 1.943 0.882 2.539 0.663 1.869-0.693 2.495-5.908 1.475-8.66-0.634-1.713-2.251-2.806-4.014-2.839zM38.415 69h10.279c0.141-2.789-1.025-6.42-2.397-8.231-0.925-1.221-2.269-2.007-3.786-2.216-1.522-0.212-3.024 0.186-4.243 1.112-2.517 1.909-3.012 5.511-1.102 8.029 0.312 0.413 0.741 0.858 1.25 1.305zM51.677 68.64c4.747-1.221 8.275-5.508 8.313-10.623-1.66 0.86-3.258 1.311-4.679 1.311-1.039 0-1.984-0.237-2.791-0.719-4.402-2.631-3.274-11.536-0.992-15.358 1.783-2.985 5.132-4.536 8.468-4.161v-8.829c-0.151-0.075-0.3-0.161-0.442-0.255l-2.807-1.871c-0.504-0.337-1.188-0.22-1.551 0.266l-0.102 0.136c-0.906 1.208-2.396 1.842-3.898 1.614h-0.005c-1.044-0.149-1.954-0.704-2.603-1.496-0.049-0.062-0.116-0.108-0.162-0.171-0.027-0.037-0.041-0.084-0.066-0.123-0.182-0.267-0.345-0.548-0.462-0.858l-0.308-0.822-0.615-1.639c-0.226-0.603-0.747-0.717-0.96-0.74-0.054-0.005-0.128-0.006-0.212 0-0.17 0.013-0.387 0.065-0.588 0.216-0.001 0.001-0.001 0.001-0.003 0.001-0.045 0.034-0.086 0.098-0.129 0.144-0.051 0.056-0.107 0.098-0.153 0.171l-2.616 4.185c-0.726 1.161-1.974 1.887-3.34 1.946-1.358 0.021-2.672-0.561-3.492-1.655-0.573-0.768-1.466-0.676-1.902-0.093l-0.552 0.737c-0.694 0.925-1.741 1.503-2.884 1.623-0.047 0.006-0.091 0.023-0.139 0.026v0 0h-0.009c-0.891 0.067-1.778-0.165-2.521-0.645-0.248-0.161-0.48-0.347-0.693-0.559l-0.719-0.719c-0.402-0.401-1.045-0.449-1.498-0.108l-1.818 1.362c-0.211 0.159-0.439 0.289-0.673 0.403-0.073 0.036-0.15 0.065-0.226 0.096-0.17 0.071-0.341 0.131-0.516 0.177-0.087 0.022-0.172 0.045-0.259 0.063-0.195 0.041-0.393 0.063-0.593 0.073-0.062 0.003-0.121 0.015-0.183 0.015-0.012 0-0.026 0.003-0.037 0.003-0.264 0-0.531-0.025-0.793-0.077-1.151-0.225-2.155-0.93-2.758-1.935l-1.832-3.053c-0.291-0.485-0.882-0.681-1.408-0.474l-1.466 0.587v4.74c2.991 0.036 5.748 1.86 6.826 4.77 1.264 3.416 0.986 10.946-3.244 12.516-0.492 0.182-1.008 0.273-1.545 0.273-0.651 0-1.335-0.143-2.037-0.408v9.219c0 6.108 4.968 11.076 11.074 11.076h11.354c-2.483-3.799-1.644-8.942 2.027-11.724 1.858-1.41 4.156-2.008 6.465-1.694 2.31 0.318 4.358 1.517 5.768 3.374 1.655 2.181 3.012 6.213 2.99 9.684zM60 54.538v-12.447c-0.324-0.057-0.651-0.084-0.975-0.084-1.97 0-3.861 1.016-4.917 2.783-1.779 2.977-2.484 9.787-0.045 11.245 1.2 0.716 3.529 0.114 5.937-1.497zM63 26.556v-1.921c0-5.14-3.536-6.405-7.28-7.745-2.658-0.951-5.607-2.037-6.115-4.89h-15.144c-0.828 0-1.5-0.67-1.5-1.5s0.672-1.5 1.5-1.5h16.539c1.693 0 3-1.305 3-2.91v-0.18c0-1.605-1.307-2.91-2.91-2.91h-30.18c-1.603 0-2.91 1.305-2.91 2.91v0.18c0 1.605 1.307 2.91 2.91 2.91 0.016 0 0.030 0.009 0.047 0.008 0.015 0 0.028-0.009 0.043-0.009h4.633c0.828 0 1.5 0.671 1.5 1.5s-0.672 1.5-1.5 1.5h-3.237c-0.508 2.853-3.459 3.939-6.115 4.89-3.746 1.34-7.281 2.604-7.281 7.745v0.15l3.354-1.336c0.244-0.098 0.494-0.169 0.744-0.219 0.1-0.019 0.201-0.022 0.303-0.034 0.148-0.019 0.297-0.042 0.446-0.043 0.019 0 0.037-0.005 0.055-0.005 0.047 0 0.090 0.015 0.135 0.016 0.26 0.009 0.515 0.042 0.765 0.099 0.083 0.019 0.165 0.036 0.246 0.060 0.296 0.085 0.582 0.195 0.851 0.343 0.029 0.018 0.054 0.041 0.084 0.057 0.243 0.143 0.468 0.314 0.679 0.505 0.062 0.057 0.122 0.113 0.18 0.172 0.223 0.231 0.433 0.478 0.606 0.765l1.832 3.052c0.168 0.281 0.439 0.471 0.762 0.534 0.321 0.062 0.643-0.012 0.906-0.209l1.819-1.362c1.641-1.232 3.97-1.065 5.418 0.385l0.719 0.719c0.241 0.241 0.511 0.321 0.714 0.336 0.051 0.003 0.091 0.001 0.132-0.001 0.014 0 0.033 0.001 0.045 0 0.195-0.014 0.564-0.092 0.837-0.456l0.552-0.737c0.791-1.055 2-1.658 3.317-1.658s2.526 0.603 3.316 1.656c0.299 0.399 0.64 0.552 1.034 0.551 0.382-0.016 0.719-0.212 0.922-0.539l2.616-4.185c0.802-1.283 2.206-1.976 3.703-1.918 0.076 0.003 0.15-0.018 0.226-0.010v0h0.001c1.581 0.159 2.91 1.182 3.468 2.668l0.923 2.463c0.162 0.431 0.478 0.611 0.712 0.686 0.078 0.026 0.145 0.039 0.197 0.046 0.201 0.024 0.709 0.042 1.078-0.447l0.102-0.136c1.318-1.757 3.786-2.18 5.614-0.96l2.802 1.868c0.127 0.084 0.282 0.135 0.485 0.163l0.215 0.029c0.215-0.015 0.387-0.086 0.48-0.135 0.182-0.099 0.605-0.392 0.605-1.011zM24.451 51.627c3.227 1.217 4.862 4.833 3.645 8.058-0.939 2.491-4.38 6.315-7.622 6.315-0.457 0-0.91-0.076-1.351-0.243-3.573-1.349-3.802-7.641-2.73-10.484 1.215-3.229 4.833-4.861 8.058-3.646zM25.29 58.627c0.633-1.678-0.219-3.559-1.897-4.192-0.377-0.143-0.764-0.21-1.143-0.21-1.315 0-2.557 0.804-3.050 2.106-0.829 2.199-0.241 6.157 0.982 6.62 1.22 0.46 4.278-2.124 5.108-4.323zM26.475 37.272c2.746-2.086 6.678-1.545 8.763 1.203 1.835 2.422 3.405 8.523 0.363 10.83-0.746 0.566-1.638 0.803-2.585 0.803-2.915 0-6.358-2.246-7.745-4.072-1.009-1.332-1.442-2.975-1.213-4.631s1.086-3.123 2.416-4.132zM33.788 46.913c1.042-0.789 0.48-4.753-0.94-6.625-0.638-0.842-1.611-1.286-2.595-1.286-0.685 0-1.377 0.215-1.963 0.66-0.693 0.525-1.139 1.29-1.257 2.151-0.119 0.86 0.105 1.715 0.632 2.407 1.418 1.872 5.084 3.485 6.125 2.692zM52.056 38.565c-0.595 1.499-1.926 3.198-3.471 4.432-1.442 1.152-2.88 1.746-4.177 1.746-0.5 0-0.98-0.088-1.43-0.267-3.547-1.41-3.666-7.709-2.544-10.531 1.274-3.206 4.92-4.776 8.121-3.502 3.204 1.276 4.775 4.92 3.501 8.123zM49.269 37.458c0.663-1.668-0.156-3.562-1.822-4.229-0.391-0.154-0.798-0.23-1.197-0.23-1.295 0-2.521 0.779-3.028 2.052-0.867 2.184-0.351 6.155 0.864 6.636 0.54 0.216 1.572-0.19 2.627-1.034 1.128-0.901 2.155-2.185 2.557-3.196z"></path>
</svg>
