<!-- Generated by IcoMoon.io -->
<svg version="1.1" xmlns="http://www.w3.org/2000/svg" width="72" height="72" viewBox="0 0 72 72">
<title>uniF110</title>
<path d="M66.884 3.797c5.096 5.098 3.317 8.301 3.105 8.646l-0.452 0.716-0.831-0.166c-1.818-0.363-2.284 0.502-2.331 0.601l-0.078 0.154c-0.817 1.372-1.929 2.771-3.301 4.158-2.844 2.873-6.331 5.196-10.364 6.908-2.048 0.869-3.456 1.738-4.314 2.34l2.356 2.354c0.951 0.951 1.36 2.282 1.067 3.473-0.202 0.823-0.681 1.476-1.381 1.885-0.843 0.495-1.921 0.581-3.115 0.25-0.599-0.165-1.099-0.139-1.308 0.070s-0.237 0.711-0.071 1.308c0.415 1.493 0.159 2.844-0.702 3.704s-2.208 1.117-3.706 0.702c-0.596-0.165-1.098-0.139-1.306 0.070-0.209 0.209-0.237 0.711-0.071 1.307 0.415 1.494 0.159 2.845-0.702 3.706-0.859 0.86-2.209 1.116-3.706 0.702-0.594-0.165-1.097-0.139-1.307 0.071-0.209 0.209-0.236 0.71-0.070 1.306 0.414 1.495 0.158 2.847-0.703 3.706-0.859 0.861-2.21 1.118-3.704 0.703-0.596-0.165-1.098-0.139-1.307 0.070s-0.236 0.71-0.070 1.307c0.414 1.494 0.157 2.844-0.703 3.704-0.859 0.863-2.21 1.118-3.704 0.703-0.596-0.164-1.099-0.14-1.307 0.070-0.209 0.209-0.236 0.71-0.070 1.307 0.414 1.494 0.157 2.844-0.703 3.704-0.859 0.859-2.207 1.119-3.704 0.703-0.601-0.165-1.098-0.138-1.307 0.070-0.209 0.209-0.238 0.711-0.071 1.308 0.325 1.172 0.468 3.298-2.235 4.365-0.522 0.208-1.056 0.502-1.676 0.927-1.269 0.87-2.719 1.29-4.156 1.29-2.225 0-4.418-1.003-5.87-2.897-2.231-2.912-1.881-7.141 0.813-9.835l59.267-59.267zM49.348 32.398c0.086-0.353-0.076-0.803-0.423-1.14l-6.808-6.807-36.561 36.561c-1.825 1.825-2.082 4.662-0.599 6.597 1.594 2.080 4.531 2.55 6.681 1.074 0.777-0.532 1.463-0.907 2.162-1.184 0.852-0.336 0.996-0.602 0.768-1.419-0.414-1.495-0.158-2.847 0.703-3.707 0.861-0.859 2.213-1.114 3.704-0.7 0.599 0.165 1.099 0.138 1.307-0.071 0.209-0.209 0.238-0.71 0.071-1.306-0.415-1.494-0.159-2.845 0.702-3.706 0.86-0.861 2.213-1.114 3.706-0.702 0.597 0.165 1.099 0.14 1.306-0.071 0.209-0.209 0.238-0.71 0.071-1.306-0.415-1.494-0.159-2.845 0.702-3.706 0.86-0.861 2.212-1.115 3.706-0.702 0.597 0.165 1.098 0.14 1.306-0.071 0.209-0.209 0.237-0.711 0.071-1.308-0.415-1.492-0.159-2.843 0.702-3.703 0.859-0.859 2.209-1.119 3.706-0.703 0.599 0.165 1.097 0.139 1.307-0.070 0.209-0.209 0.236-0.711 0.070-1.307-0.414-1.495-0.158-2.845 0.703-3.706s2.213-1.114 3.704-0.702c0.599 0.166 1.099 0.139 1.307-0.070 0.209-0.209 0.236-0.711 0.070-1.307-0.414-1.495-0.158-2.847 0.703-3.706s2.21-1.115 3.706-0.702c0.512 0.141 0.967 0.143 1.215-0.001 0.080-0.047 0.178-0.129 0.234-0.351zM67.887 10.45c0.034 0 0.069 0 0.105 0.001-0.020-0.861-0.459-2.525-2.848-4.914l-2.056-2.057-19.226 19.226 2.687 2.685c0.948-0.699 2.628-1.782 5.12-2.839 3.736-1.585 6.958-3.73 9.575-6.373 1.21-1.221 2.182-2.437 2.893-3.617 0.386-0.857 1.562-2.113 3.751-2.113zM47.818 20.537c0-1.022 0.511-1.533 1.533-1.533s1.534 0.511 1.534 1.533c0 1.022-0.511 1.534-1.534 1.534s-1.533-0.511-1.533-1.534zM60.83 8.971c0-1.022 0.511-1.533 1.534-1.533s1.533 0.511 1.533 1.533-0.511 1.533-1.533 1.533c-1.022 0-1.534-0.511-1.534-1.533z"></path>
</svg>
