<!-- Generated by IcoMoon.io -->
<svg version="1.1" xmlns="http://www.w3.org/2000/svg" width="72" height="72" viewBox="0 0 72 72">
<title>uniF1CB</title>
<path d="M37.22 35.563c2.099 0.545 3.661 2.439 3.661 4.708v26.847c0 2.692-2.189 4.881-4.881 4.881s-4.881-2.189-4.881-4.881v-26.847c0-2.269 1.562-4.163 3.661-4.708v-8.862c-4.191-0.907-7.322-6.404-7.322-13.277 0-7.527 3.753-13.424 8.542-13.424s8.542 5.897 8.542 13.424c0 6.873-3.131 12.37-7.322 13.277v8.862zM29.898 13.424c0 5.954 2.794 10.983 6.102 10.983s6.102-5.029 6.102-10.983-2.795-10.983-6.102-10.983-6.102 5.029-6.102 10.983zM38.441 67.119v-26.847c0-1.346-1.094-2.441-2.441-2.441s-2.441 1.095-2.441 2.441v26.847c0 1.346 1.094 2.441 2.441 2.441s2.441-1.095 2.441-2.441zM34.78 42.712c0-0.814 0.407-1.22 1.22-1.22s1.22 0.407 1.22 1.22c0 0.814-0.407 1.22-1.22 1.22s-1.22-0.407-1.22-1.22zM34.78 47.593c0-0.814 0.407-1.22 1.22-1.22s1.22 0.407 1.22 1.22c0 0.814-0.407 1.22-1.22 1.22s-1.22-0.407-1.22-1.22z"></path>
</svg>
