<!-- Generated by IcoMoon.io -->
<svg version="1.1" xmlns="http://www.w3.org/2000/svg" width="72" height="72" viewBox="0 0 72 72">
<title>uniF184</title>
<path d="M70.026 18.859c2.531 3.908 2.625 9.948 0.298 19.012-3.51 13.679-10.451 21.508-18.847 21.508-0.52 0-1.048-0.043-1.579-0.103-1.656 2.726-3.556 5.37-5.768 7.867-2.282 2.577-5.53 4.053-8.909 4.053h-10.878c-3.38 0-6.627-1.476-8.911-4.053-20.546-23.188-15.558-58.527-12.938-64.349 0.223-0.49 0.895-1.987 2.347-1.987h49.883c1.452 0 2.124 1.495 2.346 1.987 0.705 1.565 1.578 5.278 2.082 10.301 4.081 0.756 8.432 1.996 10.874 5.764zM41.564 64.869c19.55-22.065 14.444-56.023 12.405-60.636h-48.373c-2.039 4.612-7.146 38.569 12.404 60.636 1.632 1.841 3.945 2.898 6.344 2.898h10.878c2.399 0 4.71-1.056 6.342-2.898zM67.004 37.015c2.044-7.956 2.090-13.288 0.142-16.292-1.461-2.258-4.059-3.323-7.721-4.082 0.604 10.771-0.634 25.798-7.623 39.265 7.663-0.324 12.834-9.657 15.202-18.89zM12.217 29.196c1.135 10.624 5.303 21.229 12.055 30.666 0.55 0.772 0.372 1.843-0.398 2.394-0.303 0.216-0.652 0.321-0.996 0.321-0.535 0-1.061-0.25-1.396-0.717-7.095-9.919-11.478-21.090-12.674-32.298-0.101-0.943 0.581-1.787 1.523-1.888 0.926-0.101 1.785 0.581 1.886 1.523zM10.377 19.015c-0.936-0.127-1.595-0.991-1.469-1.929 0.413-3.045 1.044-6.198 2.858-8.64 0.564-0.756 1.639-0.916 2.399-0.353 0.761 0.566 0.919 1.639 0.355 2.401-1.42 1.907-1.886 4.641-2.212 7.052-0.118 0.861-0.852 1.485-1.697 1.485-0.077 0-0.154-0.005-0.233-0.016z"></path>
</svg>
