<!-- Generated by IcoMoon.io -->
<svg version="1.1" xmlns="http://www.w3.org/2000/svg" width="72" height="72" viewBox="0 0 72 72">
<title>uniF16B</title>
<path d="M40.351 0c6.533 0 11.849 5.316 11.849 11.849v34.951c0 3.308-2.692 6-6 6h-4.8v15.6c0 0.124-0.024 0.241-0.036 0.361 0.037 0.179 0.046 0.364-0.005 0.551-0.045 0.161-0.125 0.298-0.222 0.421-0.532 1.326-1.824 2.267-3.337 2.267h-4.8c-1.985 0-3.6-1.615-3.6-3.6v-15.6h-3.6c-3.308 0-6-2.692-6-6v-34.951c0-6.533 5.316-11.849 11.849-11.849h8.702zM39 57.442v-3.283c-1.1 0.305-1.8 1-1.8 1.642s0.7 1.337 1.8 1.642zM39 59.893c-2.43-0.415-4.2-2.060-4.2-4.093 0-1.188 0.605-2.243 1.59-3h-4.59v5.88c1.433 0.818 4.423 2.876 3.809 5.512-0.211 0.902 1.61 2.258 3.391 3.083v-7.381zM33 69.6h4.8c0.136 0 0.262-0.036 0.384-0.078-2.28-1.016-5.562-3.092-4.912-5.878 0.136-0.584-0.572-1.394-1.472-2.090v6.846c0 0.662 0.538 1.2 1.2 1.2zM41.4 50.4h4.8c0.743 0 1.434-0.227 2.010-0.614l-0.001-0.002c0.386-0.26 0.715-0.59 0.977-0.977l0.002 0.001c0.386-0.574 0.613-1.265 0.613-2.008v-19.201c-0.048 0.035-0.102 0.061-0.15 0.095-0.096 0.067-0.198 0.127-0.299 0.189-0.205 0.127-0.416 0.244-0.637 0.346-0.115 0.053-0.229 0.103-0.348 0.15-0.233 0.091-0.474 0.163-0.72 0.224-0.112 0.028-0.22 0.063-0.334 0.084-0.362 0.068-0.732 0.113-1.114 0.113-3.308 0-6-2.691-6-6v-2.4c0-0.252-0.028-0.502-0.079-0.745-0.002-0.008-0.006-0.016-0.007-0.023-0.051-0.233-0.126-0.462-0.223-0.68-0.010-0.020-0.022-0.038-0.031-0.058-0.094-0.2-0.203-0.394-0.333-0.575-0.028-0.038-0.061-0.072-0.090-0.109-0.119-0.154-0.246-0.301-0.39-0.436-0.050-0.048-0.108-0.090-0.162-0.134-0.131-0.109-0.266-0.211-0.409-0.3-0.079-0.048-0.163-0.090-0.246-0.133-0.126-0.066-0.254-0.125-0.386-0.174-0.103-0.038-0.209-0.070-0.317-0.098-0.122-0.034-0.247-0.061-0.373-0.081-0.118-0.018-0.238-0.029-0.359-0.036-0.126-0.006-0.254-0.007-0.383 0-0.122 0.007-0.242 0.019-0.361 0.037s-0.236 0.041-0.352 0.072c-0.083 0.022-0.163 0.048-0.244 0.076-1.423 0.51-2.455 1.961-2.455 3.623v10.574c0 3.309-2.692 6-6 6h-1.2c-0.382 0-0.751-0.044-1.112-0.114-0.114-0.022-0.222-0.056-0.334-0.084-0.246-0.062-0.487-0.133-0.72-0.224-0.119-0.046-0.233-0.096-0.348-0.15-0.221-0.102-0.432-0.218-0.637-0.346-0.101-0.062-0.202-0.121-0.299-0.189-0.049-0.034-0.103-0.059-0.15-0.095v10.802c0 0.743 0.227 1.434 0.614 2.009l0.002-0.001c0.26 0.386 0.59 0.715 0.977 0.977l-0.001 0.002c0.574 0.386 1.265 0.613 2.008 0.613h15.6zM46.2 26.4c1.985 0 3.6-1.615 3.6-3.6v-10.951c0-5.21-4.239-9.449-9.449-9.449h-8.702c-5.21 0-9.449 4.238-9.449 9.449v19.351c0 1.985 1.615 3.6 3.6 3.6h1.2c1.985 0 3.6-1.615 3.6-3.6v-10.8c0-2.301 1.318-4.282 3.224-5.287 0.030-0.017 0.060-0.032 0.091-0.049 0.242-0.122 0.49-0.226 0.749-0.315 0.149-0.053 0.299-0.1 0.453-0.14 0.185-0.048 0.372-0.085 0.564-0.115 0.103-0.017 0.2-0.052 0.306-0.062 0.1-0.011 0.198 0.006 0.298 0.001 0.107-0.006 0.208-0.032 0.316-0.032 0.119 0 0.23 0.029 0.348 0.037 0.185 0.011 0.367 0.028 0.55 0.055 0.236 0.036 0.466 0.088 0.692 0.15 0.157 0.043 0.311 0.088 0.464 0.144 0.235 0.086 0.459 0.191 0.68 0.305 0.136 0.071 0.271 0.138 0.402 0.218 0.224 0.139 0.431 0.298 0.634 0.463 0.079 0.064 0.17 0.11 0.246 0.179 0.030 0.028 0.050 0.062 0.080 0.090 0.209 0.197 0.394 0.414 0.572 0.638 0.072 0.092 0.155 0.175 0.222 0.27 0.187 0.265 0.343 0.55 0.486 0.842 0.035 0.070 0.080 0.134 0.112 0.205 0.148 0.335 0.259 0.686 0.343 1.050 0.010 0.038 0.028 0.074 0.036 0.114 0.085 0.4 0.132 0.814 0.132 1.238v2.4c0 1.985 1.615 3.6 3.6 3.6z"></path>
</svg>
