<!-- Generated by IcoMoon.io -->
<svg version="1.1" xmlns="http://www.w3.org/2000/svg" width="72" height="72" viewBox="0 0 72 72">
<title>uniF171</title>
<path d="M60.998 59.592l-0.816 0.554-10.559 4.147c-0.697 4.362-4.475 7.708-9.029 7.708h-19.189c-5.049 0-9.154-4.107-9.154-9.156v-16.060c0-0.629 0.287-1.205 0.786-1.581 0.144-0.11 0.301-0.19 0.464-0.255v-33.338c-0.979-0.897-1.717-1.65-2.167-2.221-0.479-0.606-0.434-1.489 0.104-2.051 0.254-0.268 0.547-0.493 0.869-0.672-0.594-0.712-0.689-1.661-0.304-2.472 0.379-0.795 1.16-1.31 2.037-1.345 0.424-0.021 0.839-0.008 1.225 0.035-0.019-1.332 0.556-2.1 1.049-2.514 0.451-0.381 1.072-0.479 1.619-0.256 0.587 0.243 1.205 0.762 1.7 1.426 0.074 0.1 0.155 0.115 0.198 0.115 0.063 0 0.115-0.029 0.16-0.090 0.098-0.134 0.206-0.271 0.319-0.401 0.557-0.65 1.396-0.956 2.241-0.818 0.83 0.137 1.512 0.685 1.826 1.466 0.029 0.076 0.059 0.154 0.085 0.231 0.326-0.095 0.675-0.12 1.019-0.067 0.736 0.11 1.347 0.566 1.699 1.202l0.071 0.001c1.204 0.036 2.46 0.072 3.751 0.072 6.896 0 12.587 2.747 15.44 7.391 0.279 0.051 0.544 0.179 0.764 0.375 0.477 0.421 1.036 1.205 0.98 2.534 0.375-0.033 0.787-0.033 1.225-0.006 0.881 0.058 1.647 0.592 2.006 1.397 0.364 0.817 0.246 1.762-0.307 2.466l-0.080 0.101c0.341 0.083 0.629 0.315 0.876 0.589l0.001 0.001c0.52 0.575 0.544 1.456 0.051 2.050-0.535 0.647-1.437 1.511-2.682 2.57l-0.775 0.659v21.569c0.162 0.065 0.32 0.146 0.464 0.255 0.5 0.376 0.786 0.952 0.786 1.581v1.649l6.711 1.056 0.766 0.542 0.023 1.33-0.444 0.333-3.354 3.426 6.998 2.769 0.527 0.374zM53.45 51.545l-3.701-0.581v2.685l1.188 0.466zM16.001 44.876c3.792 1.098 7.701 1.762 11.642 2.004 0.162 0.008 0.326 0.009 0.489 0.015 0.108-0.25 0.215-0.5 0.311-0.76 0.1-0.27 0.205-0.538 0.294-0.818 0.136-0.432 0.249-0.885 0.357-1.341 0.067-0.281 0.144-0.554 0.2-0.844 0.1-0.514 0.169-1.051 0.235-1.591 0.033-0.257 0.079-0.504 0.102-0.767 0.074-0.815 0.116-1.655 0.116-2.526 0-0.414 0.015-0.882 0.050-1.39 0.105-1.725 0.399-3.364 0.894-4.888-0.089-0.233-0.171-0.45-0.244-0.646-0.024-0.064-0.045-0.122-0.068-0.183-0.021-0.055-0.045-0.119-0.064-0.171l-0.001-0.004c-0.002-0.005-0.004-0.010-0.006-0.016-0.026-0.072-0.050-0.139-0.074-0.206-0.017-0.051-0.036-0.104-0.054-0.153-0.020-0.056-0.039-0.11-0.058-0.162-0.021-0.061-0.042-0.124-0.061-0.18-0.011-0.034-0.024-0.070-0.034-0.101-0.016-0.050-0.029-0.092-0.044-0.139-0.017-0.055-0.037-0.115-0.052-0.165-0.019-0.063-0.035-0.118-0.050-0.172-0.008-0.028-0.018-0.059-0.024-0.085-0.006-0.021-0.013-0.044-0.018-0.065-0.009-0.037-0.016-0.070-0.024-0.105-0.008-0.033-0.015-0.065-0.021-0.095-0.004-0.016-0.009-0.036-0.011-0.052-0.004-0.020-0.006-0.037-0.009-0.056-0.005-0.035-0.010-0.069-0.014-0.1-0.001-0.015-0.005-0.033-0.006-0.046 0-0.007-0.001-0.015-0.001-0.022-0.004-0.053-0.006-0.103-0.006-0.149 0-0.626-0.034-1.226-0.087-1.809-0.010-0.117-0.030-0.231-0.043-0.347-0.041-0.374-0.098-0.741-0.161-1.104-0.015-0.090-0.024-0.186-0.041-0.275-0.021-0.114-0.049-0.224-0.072-0.335-0.098-0.451-0.209-0.895-0.34-1.329-0.030-0.098-0.061-0.194-0.092-0.29-0.059-0.182-0.136-0.356-0.203-0.536-0.164-0.445-0.345-0.88-0.546-1.301-0.034-0.070-0.070-0.137-0.105-0.206-0.183-0.369-0.381-0.726-0.594-1.076-0.091-0.149-0.186-0.291-0.281-0.435-0.167-0.255-0.344-0.506-0.527-0.751-0.148-0.194-0.299-0.382-0.454-0.567-0.158-0.19-0.321-0.376-0.49-0.559-0.224-0.241-0.449-0.481-0.684-0.706-0.036-0.035-0.071-0.070-0.107-0.104-0.304-0.284-0.615-0.554-0.932-0.81-0.060-0.049-0.121-0.098-0.183-0.145-0.305-0.239-0.615-0.469-0.929-0.685-0.081-0.056-0.162-0.109-0.244-0.162-0.304-0.203-0.609-0.398-0.918-0.58-0.096-0.057-0.194-0.109-0.291-0.164-0.3-0.17-0.6-0.337-0.901-0.491-0.102-0.052-0.204-0.096-0.306-0.146-0.44-0.215-0.877-0.411-1.312-0.592-0.253-0.105-0.506-0.214-0.755-0.307-0.149-0.056-0.293-0.104-0.44-0.156-0.262-0.094-0.525-0.189-0.78-0.271-0.131-0.042-0.259-0.080-0.389-0.12-0.182-0.056-0.362-0.109-0.54-0.16v32.503zM31.947 21.891c-0.054 0.005-0.108 0.006-0.165 0.015-0.227 0.028-0.453 0.075-0.671 0.145 0.13 0.363 0.24 0.745 0.35 1.129 0.076 0.264 0.154 0.527 0.219 0.797 0.065 0.275 0.122 0.559 0.177 0.845 0.081 0.416 0.146 0.841 0.201 1.271 0.025 0.201 0.057 0.397 0.077 0.605 0.059 0.601 0.099 1.211 0.109 1.836 0.595-1.001 1.307-1.935 2.112-2.814 0.251-0.275 0.51-0.544 0.78-0.805 0.155-0.152 0.314-0.304 0.476-0.454 0.046-0.042 0.088-0.086 0.134-0.127-0.009-0.024-0.013-0.051-0.021-0.075-0.026-0.068-0.061-0.131-0.091-0.198-0.072-0.157-0.152-0.311-0.245-0.456-0.046-0.072-0.095-0.143-0.146-0.211-0.1-0.136-0.211-0.265-0.33-0.386-0.054-0.055-0.104-0.113-0.161-0.165-0.151-0.138-0.318-0.26-0.491-0.373l-0.105-0.063c-0.475-0.283-0.984-0.449-1.497-0.51-0.029-0.002-0.056-0.004-0.084-0.006-0.21-0.020-0.419-0.017-0.627-0.001zM34.421 16.599c-0.585-1.311-1.895-2.231-3.42-2.234-0.211 0-0.426 0.022-0.65 0.066-0.037 0.051-0.087 0.116-0.126 0.169-0.108 0.148-0.216 0.295-0.334 0.451-0.061 0.083-0.122 0.163-0.186 0.246-0.091 0.119-0.177 0.236-0.272 0.357-0.037 0.048-0.075 0.093-0.113 0.14-0.035 0.044-0.071 0.089-0.106 0.133-0.071 0.090-0.141 0.177-0.215 0.269-0.234 0.286-0.474 0.571-0.725 0.847 0.674 0.819 1.28 1.725 1.812 2.715 0.048-0.018 0.098-0.024 0.145-0.040 0.221-0.076 0.445-0.135 0.672-0.186 0.098-0.021 0.192-0.049 0.29-0.065 0.348-0.060 0.7-0.1 1.057-0.1 0.736 0 1.444 0.133 2.104 0.369 0.014-0.026 0.029-0.050 0.041-0.077 0.064-0.135 0.116-0.288 0.166-0.442 0.027-0.086 0.061-0.168 0.084-0.26 0.061-0.259 0.104-0.535 0.104-0.839 0-0.234-0.027-0.46-0.069-0.681-0.044-0.221-0.108-0.445-0.194-0.667zM30.827 46.983c1.225 0.002 2.445-0.041 3.663-0.101 3.892-0.252 7.743-0.915 11.509-2.003v-23.152c-0.235 0.067-0.48 0.145-0.725 0.222-0.076 0.024-0.15 0.045-0.228 0.070-0.264 0.086-0.535 0.182-0.807 0.281-0.069 0.025-0.138 0.049-0.206 0.074-0.281 0.104-0.566 0.218-0.852 0.335-0.061 0.025-0.122 0.049-0.184 0.075-0.292 0.124-0.587 0.255-0.884 0.394-0.055 0.026-0.111 0.052-0.166 0.079-0.3 0.144-0.6 0.295-0.9 0.455-0.051 0.027-0.101 0.056-0.152 0.084-0.303 0.165-0.604 0.337-0.903 0.52-0.047 0.029-0.095 0.061-0.144 0.091-0.3 0.186-0.599 0.38-0.892 0.586-0.045 0.031-0.086 0.065-0.13 0.096-0.271 0.194-0.539 0.395-0.803 0.606v0c-0.517 0.415-0.991 0.859-1.441 1.316-0.050 0.050-0.098 0.101-0.146 0.153-0.094 0.099-0.177 0.202-0.269 0.304-0.303 0.334-0.591 0.675-0.859 1.029-0.166 0.221-0.321 0.449-0.474 0.679-0.186 0.278-0.36 0.561-0.526 0.85-0.144 0.254-0.284 0.509-0.413 0.77-0.020 0.041-0.041 0.081-0.061 0.122-0.156 0.324-0.3 0.654-0.432 0.99-0.11 0.281-0.224 0.56-0.32 0.855-0.040 0.122-0.076 0.247-0.112 0.371-0.11 0.369-0.206 0.749-0.293 1.14-0.037 0.17-0.074 0.341-0.106 0.514-0.071 0.375-0.125 0.765-0.172 1.161-0.021 0.179-0.048 0.355-0.064 0.536-0.051 0.571-0.084 1.157-0.084 1.77 0 0.922-0.049 1.811-0.126 2.681-0.025 0.276-0.065 0.541-0.098 0.812-0.070 0.589-0.154 1.167-0.26 1.73-0.056 0.295-0.118 0.586-0.184 0.874-0.121 0.531-0.262 1.047-0.419 1.554-0.081 0.261-0.155 0.526-0.245 0.781-0.035 0.096-0.059 0.201-0.094 0.297zM48.318 16.053c-0.684 0.067-1.371-0.166-1.871-0.646-0.441-0.422-0.709-0.994-0.755-1.605-0.060 0.067-0.134 0.116-0.2 0.175-0.063 0.055-0.121 0.114-0.187 0.162-0.101 0.075-0.21 0.135-0.32 0.194-0.074 0.040-0.144 0.085-0.22 0.119-0.102 0.045-0.207 0.074-0.314 0.106-0.091 0.029-0.179 0.064-0.271 0.084-0.195 0.041-0.391 0.066-0.584 0.072-0.859-0.021-1.639-0.44-2.141-1.15-0.037-0.054-0.076-0.106-0.115-0.157-0.101 0.283-0.194 0.686-0.176 1.186l0.064 1.759-1.682-0.52c-0.509-0.158-0.915-0.432-1.207-0.82-0.080 0.234-0.141 0.46-0.183 0.672-0.125 0.624-0.489 1.14-0.985 1.475 0.052 0.32 0.079 0.64 0.079 0.959 0 0.337-0.036 0.667-0.090 0.994-0.010 0.065-0.024 0.129-0.036 0.194-0.061 0.314-0.144 0.621-0.254 0.921-0.004 0.010-0.006 0.021-0.010 0.033-0.101 0.27-0.216 0.534-0.356 0.79 0.074 0.069 0.134 0.151 0.204 0.224 0.143 0.146 0.285 0.291 0.413 0.453 0.026 0.034 0.056 0.065 0.083 0.099 0.069 0.090 0.121 0.19 0.185 0.284 0.105 0.156 0.215 0.306 0.306 0.472 0.022 0.040 0.045 0.081 0.067 0.122 0.006 0.011 0.015 0.020 0.020 0.031 1.899-1.304 4.245-2.436 7.123-3.292 0.019-0.006 0.037-0.011 0.057-0.017 0.288-0.085 0.577-0.169 0.876-0.247 0.394-0.106 0.775-0.203 1.132-0.285l1.53-0.351v1.541c0.359-0.322 0.645-0.592 0.876-0.82-0.411-0.37-0.69-0.864-0.786-1.41-0.114-0.642 0.041-1.297 0.425-1.82-0.254-0.010-0.486-0.001-0.696 0.021zM44.176 11.73c-2.17-3.34-6.236-5.452-11.244-5.881 0.336 0.224 0.571 0.587 0.571 1.023 0 0.69 0.56 1.25 1.25 1.25 0.691 0 1.25 0.559 1.25 1.25s-0.559 1.25-1.25 1.25c-2.035 0-3.687-1.631-3.74-3.654-0.14 0.506-0.413 1.053-0.774 1.541-0.074 0.099-0.064 0.181-0.051 0.221 0.017 0.060 0.059 0.1 0.131 0.126 0.166 0.059 0.322 0.12 0.475 0.187 0.787 0.346 1.326 1.059 1.437 1.91 0.046 0.355-0.001 0.702-0.105 1.030 1.557 0.285 2.9 1.152 3.825 2.364 0.048-0.149 0.075-0.29 0.133-0.44 0.125-0.335 0.336-0.616 0.585-0.855-0.217 0.040-0.439 0.067-0.667 0.067-0.691 0-1.25-0.559-1.25-1.25s0.559-1.25 1.25-1.25c0.69 0 1.25-0.56 1.25-1.25 0-0.691 0.559-1.25 1.25-1.25s1.25 0.559 1.25 1.25c0 1.245-0.616 2.342-1.554 3.025 0.28-0.011 0.559 0.013 0.819 0.094 0.027-0.076 0.059-0.15 0.090-0.225 0.331-0.774 1.026-1.306 1.86-1.424 0.849-0.11 1.68 0.21 2.223 0.876 0.105 0.128 0.209 0.266 0.307 0.406 0.044 0.063 0.128 0.075 0.161 0.093 0.043 0 0.121-0.015 0.195-0.109 0.101-0.131 0.21-0.256 0.322-0.376zM14.755 7.175c-0.109 0.544-0.4 1.031-0.819 1.389 0.267 0.28 0.619 0.624 1.074 1.045 0.016-0.001 0.035 0.004 0.051 0.004 0.151-0.005 0.305 0.002 0.457 0.040 3.225 0.794 7.568 2.404 11.025 5.57 0.199-0.224 0.396-0.455 0.586-0.69 0.056-0.069 0.109-0.137 0.164-0.206 0.16-0.202 0.318-0.404 0.466-0.601 0.054-0.071 0.108-0.142 0.16-0.211 0.176-0.236 0.348-0.47 0.502-0.68 0.153-0.209 0.288-0.392 0.411-0.559l0.016-0.025h0.001c0.337-0.45 0.585-0.757 0.815-0.971-0.065-0.026-0.131-0.051-0.199-0.076-0.814-0.29-1.426-0.929-1.676-1.749-0.233-0.769-0.118-1.582 0.316-2.266-0.595 0.12-1.224 0.015-1.751-0.3-0.594-0.355-1-0.949-1.117-1.627-0.039-0.225-0.101-0.469-0.182-0.729-0.269 0.42-0.689 0.695-1.214 0.842l-1.692 0.475 0.106-1.752c0.030-0.499-0.052-0.905-0.146-1.191-0.039 0.049-0.076 0.098-0.114 0.148-0.524 0.705-1.311 1.104-2.169 1.104h-0.004c-0.801 0-1.546-0.35-2.071-0.962-0.063 0.611-0.344 1.177-0.797 1.589-0.512 0.466-1.207 0.677-1.884 0.597-0.233-0.027-0.479-0.045-0.752-0.036 0.421 0.508 0.566 1.18 0.435 1.831zM40.593 69.5c3.67 0 6.656-2.986 6.656-6.657v-15.374c-4.258 1.15-8.916 1.785-13.63 1.965-0.521 0.024-1.042 0.037-1.564 0.048-0.735 0.011-1.465 0.010-2.2-0.002-0.046-0.001-0.091-0.001-0.138-0.003l-0.007 0.015-2.561-0.095c-4.292-0.241-8.511-0.877-12.398-1.927v15.375c0 3.67 2.985 6.656 6.655 6.656h19.187zM49.749 61.557l6.651-2.612-6.651-2.611v5.223zM44.749 50.751c0.69 0 1.25 0.559 1.25 1.25 0 7.709-10.981 13.749-24.998 13.749-0.691 0-1.25-0.559-1.25-1.25s0.559-1.25 1.25-1.25c12.195 0 22.498-5.151 22.498-11.249 0-0.691 0.559-1.25 1.25-1.25z"></path>
</svg>
