<!-- Generated by IcoMoon.io -->
<svg version="1.1" xmlns="http://www.w3.org/2000/svg" width="72" height="72" viewBox="0 0 72 72">
<title>uniF187</title>
<path d="M55.69 14.115c3.086 1.417 7.309 3.362 7.309 10.52v33.29c0 0.156-0.018 0.306-0.024 0.46 0.004 0.041 0.024 0.075 0.024 0.116 0 0.069-0.030 0.127-0.039 0.193-0.403 7.402-6.535 13.307-14.037 13.307h-25.848c-7.501 0-13.633-5.904-14.037-13.307-0.009-0.066-0.039-0.125-0.039-0.193 0-0.041 0.019-0.075 0.024-0.116-0.006-0.154-0.024-0.304-0.024-0.46v-33.29c0-7.158 4.224-9.102 7.309-10.52 1.798-0.828 2.708-1.319 3.039-2.118-0.135-0.005-0.262-0.036-0.394-0.053-0.143-0.016-0.285-0.025-0.423-0.055-0.152-0.034-0.294-0.090-0.441-0.138-0.13-0.044-0.264-0.078-0.388-0.132-0.141-0.062-0.268-0.143-0.4-0.218-0.117-0.066-0.24-0.124-0.351-0.201-0.124-0.087-0.233-0.191-0.348-0.288-0.104-0.087-0.212-0.165-0.306-0.261-0.107-0.108-0.195-0.234-0.291-0.353-0.084-0.105-0.175-0.2-0.249-0.31-0.090-0.135-0.158-0.283-0.233-0.428-0.059-0.111-0.128-0.215-0.176-0.33-0.071-0.169-0.116-0.351-0.165-0.531-0.028-0.102-0.072-0.199-0.093-0.304-0.058-0.289-0.090-0.588-0.090-0.896v-3c0-2.481 2.019-4.5 4.5-4.5h31.5c2.481 0 4.5 2.019 4.5 4.5v3c0 0.282-0.033 0.557-0.084 0.825-0.015 0.083-0.039 0.162-0.058 0.243-0.047 0.186-0.102 0.368-0.169 0.543-0.032 0.084-0.065 0.165-0.101 0.246-0.084 0.183-0.18 0.357-0.286 0.526-0.035 0.054-0.063 0.113-0.101 0.167-0.147 0.215-0.314 0.415-0.495 0.6-0.043 0.045-0.093 0.083-0.139 0.126-0.146 0.136-0.299 0.264-0.462 0.381-0.072 0.051-0.147 0.098-0.222 0.145-0.156 0.098-0.317 0.185-0.485 0.263-0.077 0.036-0.151 0.075-0.231 0.106-0.036 0.014-0.069 0.034-0.105 0.048 0.231 0.974 1.131 1.476 3.129 2.395zM12 57h48v-28.5h-48v28.5zM18 4.5v3c0 0.828 0.672 1.5 1.5 1.5h31.5c0.828 0 1.5-0.672 1.5-1.5v-3c0-0.828-0.672-1.5-1.5-1.5h-31.5c-0.828 0-1.5 0.672-1.5 1.5zM17.564 16.841c-2.861 1.315-5.564 2.559-5.564 7.794v0.865h48v-0.865c0-5.235-2.703-6.479-5.564-7.794-2.101-0.968-4.438-2.071-4.851-4.841h-27.171c-0.412 2.769-2.75 3.873-4.851 4.841zM48.924 69c5.397 0 9.898-3.882 10.875-9h-47.597c0.975 5.118 5.477 9 10.873 9h25.848zM29.25 34.5c-4.548 0-8.25 3.702-8.25 8.25s3.702 8.25 8.25 8.25c0.829 0 1.5 0.67 1.5 1.5s-0.671 1.5-1.5 1.5c-6.204 0-11.25-5.046-11.25-11.25s5.046-11.25 11.25-11.25c0.829 0 1.5 0.67 1.5 1.5s-0.671 1.5-1.5 1.5zM42.75 31.5c6.204 0 11.25 5.046 11.25 11.25s-5.046 11.25-11.25 11.25c-0.829 0-1.5-0.67-1.5-1.5s0.671-1.5 1.5-1.5c4.548 0 8.25-3.702 8.25-8.25s-3.702-8.25-8.25-8.25c-0.829 0-1.5-0.67-1.5-1.5s0.671-1.5 1.5-1.5z"></path>
</svg>
