<!-- Generated by IcoMoon.io -->
<svg version="1.1" xmlns="http://www.w3.org/2000/svg" width="72" height="72" viewBox="0 0 72 72">
<title>uniF154</title>
<path d="M65.904 66.241c0.283 1.426-0.079 2.884-0.994 3.997-0.919 1.12-2.272 1.762-3.71 1.762h-50.4c-1.439 0-2.791-0.642-3.71-1.762-0.916-1.115-1.277-2.573-0.994-3.998 0.44-2.224 2.486-3.84 4.862-3.84h0.008l3.24-21.608c-1.464-0.074-2.707-0.683-3.541-1.694-0.903-1.094-1.259-2.562-0.976-4.027 0.432-2.243 2.479-3.87 4.868-3.87h1.102c0.599-9.998 8.597-17.47 19.25-17.952 0.302-1.372 1.363-2.448 4.689-2.448h16.2c0.904 0 2.065-0.001 2.657-0.096-2.528-0.449-4.457-2.65-4.457-5.304 0-2.977 2.423-5.4 5.4-5.4s5.4 2.423 5.4 5.4c0 2.36-1.532 4.35-3.647 5.083-0.281 2.707-1.981 2.717-5.353 2.717h-16.2c-0.685 0-1.158 0.032-1.507 0.094 10.154 0.888 17.666 8.221 18.247 17.906h1.26c1.524 0 2.974 0.739 3.878 1.976 0.913 1.253 1.163 2.836 0.682 4.345-0.583 1.825-2.35 3.131-4.368 3.266l3.249 21.612c2.377 0 4.422 1.616 4.862 3.841zM56.4 5.4c0 1.655 1.345 3 3 3s3-1.345 3-3-1.345-3-3-3-3 1.345-3 3zM36 15.6c-9.828 0-17.341 6.625-17.959 15.6h35.918c-0.618-8.975-8.131-15.6-17.959-15.6zM63.055 68.717c0.464-0.566 0.64-1.279 0.496-2.007-0.216-1.088-1.295-1.909-2.509-1.909h-2.075l-3.599-23.993c-0.091-0.602 0.085-1.214 0.484-1.678s0.978-0.73 1.59-0.73c1.13 0 2.13-0.661 2.43-1.607 0.251-0.782 0.133-1.565-0.333-2.201-0.455-0.62-1.178-0.992-1.939-0.992h-43.042c-1.222 0-2.3 0.827-2.512 1.924-0.149 0.772 0.018 1.499 0.472 2.046 0.442 0.535 1.109 0.83 1.882 0.83 0.74 0 1.327 0.27 1.733 0.74s0.585 1.092 0.493 1.706l-3.593 23.953h-2.075c-1.214 0-2.293 0.821-2.509 1.908-0.144 0.731 0.031 1.442 0.496 2.009 0.462 0.56 1.136 0.883 1.855 0.883h50.4c0.719 0 1.393-0.323 1.855-0.883zM19.34 43.2h33.319l2.7 21.6h-38.719zM50.54 45.6h-29.081l-0.9 7.2h30.881zM19.36 62.4h33.281l-0.9-7.2h-31.481zM32.4 50.4c-0.664 0-1.2-0.536-1.2-1.2s0.536-1.2 1.2-1.2h6c0.664 0 1.2 0.536 1.2 1.2s-0.536 1.2-1.2 1.2h-6zM38.4 57.6c0.664 0 1.2 0.536 1.2 1.2s-0.536 1.2-1.2 1.2h-6c-0.664 0-1.2-0.536-1.2-1.2s0.536-1.2 1.2-1.2h6zM25.88 20.627c0.54-0.391 1.288-0.269 1.677 0.266 0.389 0.536 0.269 1.288-0.266 1.676-0.982 0.713-1.722 1.608-2.199 2.664-0.2 0.443-0.637 0.706-1.094 0.706-0.166 0-0.332-0.034-0.493-0.107-0.604-0.272-0.872-0.983-0.599-1.588 0.651-1.441 1.651-2.657 2.975-3.618zM36 18c0.664 0 1.2 0.536 1.2 1.2s-0.536 1.2-1.2 1.2c-1.216 0-2.368 0.079-3.425 0.236-0.059 0.008-0.118 0.013-0.176 0.013-0.586 0-1.098-0.43-1.186-1.025-0.097-0.656 0.356-1.266 1.012-1.363 1.172-0.174 2.443-0.262 3.775-0.262zM37.2 40.8c-0.664 0-1.2-0.536-1.2-1.2s0.536-1.2 1.2-1.2h7.2c0.664 0 1.2 0.536 1.2 1.2s-0.536 1.2-1.2 1.2h-7.2zM49.2 40.8c-0.664 0-1.2-0.536-1.2-1.2s0.536-1.2 1.2-1.2h2.4c0.664 0 1.2 0.536 1.2 1.2s-0.536 1.2-1.2 1.2h-2.4z"></path>
</svg>
