<!-- Generated by IcoMoon.io -->
<svg version="1.1" xmlns="http://www.w3.org/2000/svg" width="72" height="72" viewBox="0 0 72 72">
<title>uniF1E0</title>
<path d="M71.081 10.12c1.124 1.383 1.229 3.389 0.255 4.88-0.738 1.127-1.931 1.811-3.272 1.876-0.425 0.021-1.217 0.148-1.73 0.772l-4.248 5.152c0.167 1.943-0.675 3.638-0.722 3.731l-0.145 0.221c-0.004 0.004-0.006 0.009-0.010 0.012-0.16 0.194-0.303 0.394-0.455 0.592 4.958 5.581 9.876 11.852 8.783 17.056-0.776 3.698-2.879 6.862-6.226 9.435 0.189 0.295 0.361 0.6 0.514 0.921h3.383c0.886 0 1.688 0.488 2.093 1.276s0.337 1.724-0.178 2.446l-2.759 3.861c-1.521 2.13-3.991 3.4-6.606 3.4h-49.952c-2.615 0-5.085-1.27-6.606-3.4l-2.758-3.861c-0.515-0.721-0.583-1.657-0.178-2.446s1.207-1.276 2.093-1.276h2.162c0.463-0.97 1.083-1.835 1.844-2.552-0.965-1.561-1.48-3.319-1.48-5.267 0-1.045 0.108-2.098 0.323-3.129 0.316-1.519 0.283-3.186-0.101-5.095-0.146-0.73-0.222-1.48-0.222-2.23 0-8.062 4.74-13.069 12.373-13.065 0.63 0 1.233 0.112 1.823 0.317 0.486-1.402 0.724-2.659 0.664-3.699-0.063-1.088 0.473-2.116 1.402-2.681 0.921-0.56 2.073-0.564 3.003-0.015 3.894 2.313 6.209 5.436 6.695 9.031 0.066 0.485 0.089 0.98 0.088 1.479 0.409-0.321 0.78-0.649 1.091-0.934 0.173-0.157 0.329-0.299 0.469-0.419 7.748-6.644 14.338-6.802 18.694-5.605 0.189-0.18 0.364-0.358 0.536-0.537 0.24-0.255 0.48-0.511 0.704-0.781 0.013-0.017 0.031-0.033 0.044-0.050 0.597-0.722 1.375-1.245 2.247-1.561 0.393-0.143 0.798-0.255 1.225-0.303l0.171-0.020 0.17 0.029c0.060 0.011 0.115 0.026 0.174 0.037l4.031-4.89c0.514-0.625 0.488-1.425 0.427-1.847-0.192-1.329 0.251-2.629 1.218-3.57 1.278-1.241 3.266-1.525 4.84-0.684 0.829 0.443 1.464 1.128 1.837 1.981 0.887 0.186 1.682 0.679 2.275 1.41zM58.056 26.896c0.371-0.535 0.759-1.063 1.178-1.577 0.149-0.342 0.596-1.511 0.372-2.629l-0.002-0.011c-0.027-0.133-0.066-0.26-0.112-0.383-0.009-0.023-0.017-0.048-0.027-0.071-0.041-0.103-0.093-0.2-0.148-0.295-0.092-0.159-0.203-0.309-0.332-0.45-0.068-0.074-0.144-0.144-0.223-0.212-0.118-0.104-0.25-0.2-0.39-0.292-0.144-0.093-0.301-0.181-0.472-0.262-0.085-0.043-0.178-0.081-0.271-0.12-0.272-0.112-0.571-0.214-0.901-0.301-0.223-0.060-0.43-0.127-0.679-0.173-0.675 0.113-1.273 0.453-1.7 0.97-0.062 0.076-0.133 0.143-0.196 0.217-0.243 0.284-0.489 0.568-0.763 0.847-0.493 0.514-1.013 0.996-1.558 1.45l-0.048 0.043-0.005-0.001c-2.483 2.048-5.49 3.483-8.873 4.189-2.099 0.439-3.926 1.551-5.284 3.216-3.080 3.775-2.652 9.498 0.953 12.763 1.907 1.727 4.366 2.568 6.925 2.39 2.559-0.187 4.868-1.38 6.5-3.359 1.213-1.473 1.935-3.252 2.090-5.146 0.289-3.553 1.514-7.015 3.548-10.16l-0.018-0.021zM22.412 19.45c-0.094 0.057-0.25 0.192-0.233 0.458 0.092 1.594-0.307 3.319-0.932 5.012l0.035 0.022-0.405 0.952c-0.351 0.825-0.771 1.68-1.252 2.558-0.083 0.15-0.167 0.29-0.251 0.438-0.159 0.282-0.317 0.564-0.489 0.849-0.207 0.345-0.415 0.67-0.62 0.99-0.054 0.084-0.101 0.166-0.156 0.25-0.267 0.41-0.566 0.838-0.863 1.267-0.106 0.154-0.203 0.3-0.311 0.458-1.142 1.643-2.374 3.427-3.042 5.184-0.355 0.934-0.542 1.859-0.475 2.753 0.005 0.051-0.005 0.106 0.001 0.157 0.168 1.531 0.998 2.765 2.114 3.146 0.024 0.009 0.051 0.009 0.076 0.016 0.923 0.278 2.015 0.043 3.201-0.687 0.731-0.45 1.497-1.086 2.28-1.898 0.459-0.476 0.89-0.946 1.306-1.413 0.088-0.099 0.176-0.198 0.261-0.295 0.852-0.973 1.616-1.925 2.283-2.854 0.015-0.021 0.031-0.043 0.045-0.063 1.751-2.454 2.856-4.755 3.294-6.878l0.044-0.215c0.189-1.024 0.228-2.009 0.101-2.948-0.482-3.576-3.268-5.92-5.521-7.259-0.214-0.126-0.399-0.054-0.489 0.001zM8.746 53.416c-0.538 0.372-1.019 0.825-1.417 1.351h9.744c-0.004-0.006-0.007-0.013-0.012-0.019-0.022-0.028-0.046-0.052-0.068-0.081-0.151-0.194-0.316-0.377-0.489-0.55-0.060-0.061-0.123-0.118-0.187-0.176-0.151-0.138-0.31-0.268-0.473-0.392-0.065-0.048-0.128-0.099-0.194-0.144-0.228-0.157-0.465-0.303-0.714-0.428-0.020-0.010-0.039-0.016-0.059-0.026-0.232-0.112-0.471-0.209-0.716-0.293-0.081-0.028-0.164-0.050-0.245-0.074-0.198-0.057-0.399-0.106-0.603-0.144-0.083-0.016-0.166-0.033-0.25-0.045-0.283-0.040-0.569-0.067-0.859-0.067-0.284 0-0.565 0.026-0.842 0.064-0.093 0.012-0.183 0.032-0.273 0.049-0.188 0.035-0.375 0.079-0.558 0.132-0.095 0.028-0.19 0.055-0.284 0.087-0.22 0.076-0.436 0.162-0.647 0.264-0.039 0.019-0.081 0.033-0.12 0.052-0.253 0.128-0.497 0.277-0.733 0.442zM22.059 54.669c-0.022 0.028-0.046 0.052-0.066 0.081-0.004 0.006-0.007 0.013-0.012 0.019h9.738c-0.004-0.006-0.007-0.013-0.012-0.019-0.022-0.028-0.046-0.052-0.068-0.081-0.151-0.194-0.316-0.377-0.489-0.55-0.060-0.061-0.123-0.118-0.187-0.176-0.151-0.138-0.31-0.268-0.473-0.392-0.065-0.048-0.128-0.099-0.194-0.144-0.228-0.157-0.465-0.303-0.714-0.428-0.019-0.010-0.039-0.016-0.059-0.026-0.232-0.112-0.471-0.209-0.716-0.293-0.081-0.028-0.164-0.050-0.245-0.074-0.198-0.057-0.399-0.106-0.603-0.144-0.083-0.016-0.166-0.033-0.25-0.045-0.283-0.040-0.569-0.067-0.859-0.067s-0.577 0.027-0.859 0.067c-0.084 0.012-0.167 0.029-0.25 0.045-0.205 0.038-0.405 0.085-0.603 0.144-0.082 0.024-0.165 0.046-0.245 0.074-0.245 0.083-0.486 0.18-0.716 0.293-0.019 0.010-0.039 0.016-0.058 0.026-0.249 0.124-0.486 0.271-0.714 0.428-0.067 0.045-0.129 0.095-0.194 0.144-0.165 0.122-0.322 0.253-0.473 0.392-0.062 0.059-0.126 0.116-0.187 0.176-0.173 0.173-0.337 0.356-0.489 0.55zM36.704 54.669c-0.022 0.028-0.046 0.052-0.066 0.081-0.004 0.006-0.007 0.013-0.012 0.019h9.739c-0.004-0.006-0.007-0.013-0.012-0.019-0.022-0.028-0.046-0.052-0.068-0.081-0.151-0.194-0.316-0.377-0.489-0.55-0.060-0.061-0.123-0.118-0.187-0.176-0.151-0.138-0.31-0.268-0.473-0.392-0.065-0.048-0.128-0.099-0.194-0.144-0.228-0.157-0.465-0.303-0.714-0.428-0.019-0.010-0.039-0.016-0.059-0.026-0.232-0.112-0.471-0.209-0.716-0.293-0.081-0.028-0.164-0.050-0.245-0.074-0.198-0.057-0.399-0.106-0.603-0.144-0.083-0.016-0.166-0.033-0.25-0.045-0.283-0.040-0.569-0.067-0.859-0.067s-0.577 0.027-0.859 0.067c-0.084 0.012-0.167 0.029-0.25 0.045-0.205 0.038-0.405 0.085-0.603 0.144-0.082 0.024-0.165 0.046-0.245 0.074-0.245 0.083-0.486 0.18-0.716 0.293-0.019 0.010-0.039 0.016-0.059 0.026-0.249 0.124-0.486 0.271-0.714 0.428-0.067 0.045-0.129 0.095-0.194 0.144-0.165 0.122-0.322 0.253-0.473 0.392-0.062 0.059-0.126 0.116-0.187 0.176-0.173 0.173-0.337 0.356-0.489 0.55zM51.348 54.669c-0.022 0.028-0.046 0.052-0.068 0.082-0.004 0.006-0.007 0.013-0.012 0.019h9.741l-0.323-0.366c-0.582-0.659-1.287-1.178-2.064-1.531v0c-0.184-0.083-0.374-0.157-0.565-0.222-0.040-0.013-0.082-0.026-0.122-0.038-0.159-0.050-0.319-0.096-0.481-0.133-0.093-0.021-0.188-0.035-0.283-0.051-0.12-0.021-0.237-0.045-0.358-0.059-0.223-0.024-0.448-0.040-0.675-0.040-0.29 0-0.577 0.027-0.859 0.067-0.084 0.012-0.167 0.029-0.25 0.045-0.205 0.038-0.405 0.085-0.603 0.144-0.082 0.024-0.165 0.046-0.245 0.074-0.245 0.083-0.486 0.18-0.716 0.293-0.020 0.010-0.039 0.016-0.059 0.026-0.249 0.124-0.486 0.271-0.714 0.428-0.067 0.045-0.129 0.095-0.194 0.144-0.165 0.122-0.322 0.253-0.473 0.392-0.062 0.059-0.126 0.116-0.187 0.176-0.173 0.173-0.337 0.356-0.489 0.55zM67.036 57.209h-64.512l2.66 3.725c1.064 1.488 2.791 2.377 4.62 2.377h49.951c1.829 0 3.556-0.888 4.62-2.377zM67.145 43.912c0.886-4.216-4.419-10.644-7.824-14.487-1.602 2.654-2.561 5.534-2.801 8.472-0.197 2.393-1.109 4.641-2.641 6.5-2.060 2.499-4.974 4.006-8.204 4.242-0.293 0.021-0.586 0.031-0.876 0.031-2.912 0-5.677-1.064-7.865-3.046-4.554-4.121-5.095-11.351-1.207-16.114 1.691-2.073 4.061-3.516 6.675-4.061 2.311-0.485 4.415-1.357 6.263-2.553-4.683-0.599-9.675 1.252-14.592 5.467-0.123 0.106-0.26 0.232-0.411 0.37-0.722 0.659-1.766 1.612-3.145 2.265-0.002 0.009-0.005 0.016-0.007 0.024-0.112 0.439-0.249 0.884-0.408 1.331-0.020 0.054-0.043 0.11-0.062 0.164-0.143 0.39-0.304 0.786-0.481 1.184-0.034 0.079-0.068 0.157-0.105 0.237-0.414 0.899-0.915 1.817-1.503 2.752-0.055 0.088-0.114 0.176-0.17 0.264-0.266 0.412-0.548 0.829-0.847 1.247-0.043 0.060-0.083 0.12-0.127 0.181-0.342 0.472-0.705 0.948-1.090 1.428-0.071 0.088-0.145 0.177-0.217 0.265-0.317 0.389-0.648 0.781-0.993 1.175-0.11 0.127-0.22 0.253-0.333 0.38-0.427 0.477-0.866 0.957-1.332 1.441-0.297 0.309-0.587 0.583-0.874 0.842-0.078 0.071-0.155 0.137-0.232 0.204-0.233 0.203-0.464 0.391-0.689 0.563-0.051 0.039-0.103 0.082-0.154 0.12-0.271 0.2-0.536 0.377-0.796 0.537-0.055 0.034-0.11 0.063-0.165 0.096-0.212 0.124-0.42 0.237-0.624 0.337-0.057 0.028-0.115 0.059-0.172 0.084-0.245 0.114-0.486 0.215-0.718 0.295-0.012 0.004-0.023 0.007-0.035 0.011-0.221 0.076-0.433 0.134-0.641 0.184-0.050 0.011-0.099 0.022-0.148 0.033-0.198 0.043-0.389 0.076-0.572 0.098-0.015 0.001-0.031 0.005-0.045 0.006-0.201 0.022-0.393 0.032-0.577 0.033-0.012 0-0.026 0.002-0.038 0.002-0.013 0-0.023-0.004-0.037-0.004-0.303-0.002-0.58-0.028-0.832-0.071-0.020-0.004-0.039-0.006-0.059-0.010-0.259-0.048-0.492-0.109-0.692-0.177-2.038-0.693-3.477-2.68-3.754-5.185-0.049-0.442-0.055-0.88-0.026-1.314 0.034-0.498 0.126-0.989 0.247-1.475 0.614-2.488 2.233-4.834 3.718-6.971 0.397-0.57 0.783-1.126 1.134-1.663 0.371-0.567 0.708-1.125 1.026-1.674 0.098-0.168 0.187-0.333 0.279-0.499 0.221-0.398 0.427-0.788 0.62-1.174 0.050-0.101 0.101-0.201 0.149-0.301-0.288-0.084-0.58-0.127-0.883-0.127-8.964 0-9.931 7.433-9.931 10.628 0 0.587 0.057 1.174 0.173 1.746 0.452 2.239 0.483 4.226 0.099 6.076-0.181 0.868-0.272 1.752-0.272 2.631 0 1.449 0.332 2.724 1.010 3.869 0.015-0.007 0.031-0.012 0.045-0.019 0.026-0.012 0.052-0.022 0.078-0.034 0.332-0.165 0.675-0.301 1.024-0.42 0.099-0.033 0.198-0.061 0.297-0.090 0.294-0.088 0.593-0.16 0.896-0.215 0.106-0.019 0.212-0.041 0.32-0.057 0.399-0.057 0.803-0.095 1.212-0.095 0.419 0 0.831 0.038 1.237 0.098 0.132 0.019 0.26 0.052 0.39 0.078 0.272 0.054 0.541 0.114 0.804 0.193 0.148 0.044 0.29 0.096 0.435 0.148 0.24 0.087 0.476 0.182 0.707 0.289 0.142 0.066 0.281 0.132 0.417 0.205 0.231 0.123 0.452 0.26 0.67 0.403 0.12 0.078 0.242 0.15 0.356 0.234 0.26 0.189 0.504 0.395 0.741 0.613 0.060 0.055 0.126 0.103 0.184 0.159 0.286 0.277 0.55 0.576 0.797 0.893 0.077 0.099 0.142 0.206 0.214 0.309 0.126 0.177 0.257 0.348 0.37 0.535 0.112-0.187 0.244-0.359 0.371-0.536 0.072-0.103 0.135-0.209 0.212-0.308 0.247-0.317 0.511-0.616 0.797-0.894 0.058-0.057 0.124-0.104 0.184-0.159 0.237-0.217 0.482-0.423 0.741-0.613 0.116-0.083 0.237-0.156 0.356-0.234 0.218-0.144 0.439-0.279 0.67-0.403 0.138-0.072 0.277-0.139 0.417-0.204 0.231-0.107 0.466-0.203 0.707-0.289 0.144-0.051 0.287-0.104 0.435-0.148 0.264-0.079 0.532-0.139 0.804-0.193 0.131-0.026 0.259-0.058 0.391-0.078 0.406-0.060 0.819-0.098 1.238-0.098s0.831 0.038 1.237 0.098c0.132 0.019 0.26 0.052 0.391 0.078 0.272 0.054 0.541 0.114 0.804 0.193 0.148 0.044 0.29 0.096 0.435 0.148 0.24 0.087 0.476 0.182 0.707 0.289 0.142 0.066 0.281 0.132 0.417 0.205 0.231 0.123 0.452 0.26 0.67 0.403 0.12 0.078 0.242 0.15 0.356 0.234 0.26 0.189 0.504 0.395 0.741 0.613 0.060 0.055 0.126 0.103 0.184 0.159 0.286 0.277 0.55 0.576 0.797 0.893 0.077 0.099 0.142 0.206 0.214 0.309 0.126 0.177 0.257 0.348 0.37 0.535 0.112-0.187 0.244-0.359 0.371-0.536 0.072-0.103 0.136-0.209 0.212-0.308 0.247-0.317 0.511-0.616 0.797-0.894 0.059-0.057 0.125-0.104 0.184-0.159 0.237-0.217 0.482-0.423 0.741-0.613 0.116-0.083 0.237-0.156 0.356-0.234 0.218-0.144 0.439-0.279 0.67-0.403 0.138-0.072 0.277-0.139 0.417-0.204 0.231-0.107 0.466-0.203 0.707-0.289 0.144-0.051 0.287-0.104 0.435-0.148 0.264-0.079 0.532-0.139 0.804-0.193 0.131-0.026 0.259-0.059 0.39-0.078 0.406-0.060 0.819-0.098 1.237-0.098s0.831 0.038 1.238 0.098c0.132 0.019 0.26 0.052 0.391 0.078 0.272 0.054 0.541 0.114 0.804 0.193 0.148 0.044 0.29 0.096 0.434 0.148 0.24 0.087 0.476 0.182 0.707 0.289 0.141 0.066 0.281 0.132 0.417 0.205 0.231 0.123 0.452 0.26 0.67 0.403 0.12 0.078 0.242 0.15 0.356 0.234 0.26 0.189 0.504 0.395 0.741 0.613 0.060 0.055 0.126 0.103 0.184 0.159 0.286 0.277 0.55 0.576 0.797 0.893 0.077 0.099 0.142 0.206 0.214 0.309 0.126 0.177 0.257 0.348 0.37 0.535 0.112-0.187 0.244-0.359 0.37-0.536 0.072-0.103 0.135-0.209 0.212-0.308 0.247-0.317 0.511-0.616 0.797-0.894 0.059-0.057 0.125-0.104 0.184-0.159 0.237-0.217 0.482-0.423 0.741-0.613 0.116-0.083 0.237-0.156 0.356-0.234 0.218-0.144 0.439-0.279 0.67-0.403 0.138-0.072 0.277-0.139 0.418-0.204 0.231-0.107 0.466-0.203 0.707-0.289 0.144-0.051 0.287-0.104 0.434-0.148 0.264-0.079 0.532-0.139 0.804-0.193 0.131-0.026 0.259-0.059 0.391-0.078 0.406-0.060 0.818-0.098 1.238-0.098 0.4 0 0.797 0.038 1.189 0.094 0.077 0.011 0.154 0.019 0.23 0.032 0.347 0.060 0.688 0.143 1.024 0.245 0.121 0.037 0.24 0.077 0.359 0.118 0.29 0.104 0.578 0.217 0.857 0.351 0.159 0.076 0.31 0.162 0.464 0.248 0.151 0.085 0.3 0.175 0.447 0.268 0.289 0.184 0.564 0.387 0.829 0.604 0.063 0.052 0.13 0.1 0.193 0.154 2.937-2.226 4.759-4.945 5.421-8.090zM69.291 13.664c0.395-0.603 0.352-1.446-0.104-2.003l-0.001-0.002c-0.245-0.303-0.559-0.499-0.93-0.581-0.76-0.172-1.373-0.677-1.685-1.388-0.154-0.353-0.406-0.624-0.752-0.808-0.636-0.34-1.472-0.223-1.988 0.281-0.399 0.388-0.582 0.925-0.504 1.471 0.205 1.418-0.137 2.749-0.96 3.749l-3.396 4.119c0.891 0.43 1.594 0.99 2.115 1.674l3.362-4.079c0.824-0.999 2.066-1.589 3.497-1.658 0.55-0.027 1.041-0.309 1.346-0.775z"></path>
</svg>
