<!-- Generated by IcoMoon.io -->
<svg version="1.1" xmlns="http://www.w3.org/2000/svg" width="72" height="72" viewBox="0 0 72 72">
<title>uniF1DE</title>
<path d="M70.615 17.497c0.883 0.702 1.279 1.901 1.355 2.789 0.165 1.923-1.204 3.591-3.669 4.48-5.622 3.978-12.388 5.232-16.091 5.629l1.212 1.212c2.375 2.375 2.375 6.24 0 8.614l-13.2 13.2c-1.188 1.188-2.748 1.781-4.308 1.781-1.56 0-3.119-0.593-4.307-1.781l-1.774-1.774c-1.306 9.516-4.499 15.485-5.080 16.507-0.191 0.696-0.715 1.967-1.709 2.849-0.738 0.654-1.623 0.994-2.577 0.994-0.121 0-0.241-0.006-0.364-0.017-0.859-0.076-2.018-0.462-2.695-1.315-0.419-0.529-0.592-1.154-0.498-1.806l0.022-0.154c-0.016-0.136-0.317-0.436-0.475-0.451l-0.853 0.126c-0.804 0.112-1.678-0.213-2.339-0.875-0.66-0.662-0.987-1.535-0.871-2.337l0.126-0.875c-0.016-0.136-0.318-0.437-0.476-0.452l-0.851 0.126c-0.802 0.107-1.679-0.212-2.339-0.875-0.662-0.662-0.987-1.535-0.872-2.337l0.126-0.875c-0.016-0.136-0.318-0.437-0.476-0.452l-0.851 0.126c-0.803 0.106-1.678-0.211-2.338-0.872-0.662-0.662-0.988-1.535-0.874-2.338l0.126-0.876c-0.016-0.136-0.317-0.436-0.475-0.451-0.648 0.095-1.288-0.084-1.83-0.515-0.882-0.702-1.278-1.901-1.355-2.789-0.165-1.92 1.205-3.588 3.669-4.481 5.621-3.978 12.385-5.232 16.089-5.629l-1.382-1.382c-2.375-2.375-2.375-6.24 0-8.614l13.922-13.926 0.062 0.083c2.378-1.691 5.7-1.489 7.831 0.641l1.943 1.944c1.306-9.514 4.499-15.482 5.081-16.505 0.198-0.714 0.737-1.973 1.683-2.824 0.837-0.754 1.862-1.101 2.968-1.003 0.859 0.076 2.019 0.462 2.696 1.316 0.42 0.529 0.592 1.154 0.498 1.804l-0.022 0.154c0.016 0.136 0.317 0.436 0.475 0.451l0.854-0.124c0.799-0.117 1.675 0.211 2.337 0.874 0.662 0.66 0.988 1.535 0.872 2.337l-0.126 0.876c0.016 0.136 0.317 0.436 0.475 0.451l0.854-0.124c0.803-0.122 1.675 0.211 2.337 0.874 0.662 0.66 0.988 1.535 0.872 2.337l-0.126 0.876c0.016 0.136 0.317 0.436 0.475 0.451l0.854-0.124c0.802-0.118 1.675 0.212 2.337 0.874 0.661 0.66 0.988 1.535 0.872 2.337l-0.125 0.876c0.016 0.135 0.317 0.436 0.475 0.451 0.646-0.094 1.287 0.083 1.83 0.515zM40.517 49.683l7.188-7.189-15.648-21.092-7.188 7.19zM22.575 67.056c0.040-0.068 3.947-6.747 5.074-17.589l-1.333-1.333c-0.105 0.165-0.236 0.313-0.418 0.416-3.457 1.934-5.65 6.712-5.099 11.113 0.084 0.668-0.39 1.277-1.058 1.36-0.051 0.006-0.101 0.010-0.152 0.010-0.606 0-1.131-0.451-1.208-1.067-0.463-3.7 0.634-7.53 2.759-10.36-0.878 0.217-1.767 0.26-2.709 0.292-0.727 0.026-1.479 0.051-2.346 0.16-0.051 0.006-0.101 0.010-0.152 0.010-0.605 0-1.131-0.451-1.207-1.067-0.084-0.668 0.39-1.277 1.058-1.36 0.975-0.122 1.819-0.152 2.564-0.178 2.085-0.072 3.133-0.108 4.685-1.945 0.106-0.127 0.234-0.223 0.372-0.295l-1.349-1.349c-2.125 0.104-10.621 0.804-17.076 5.442l-0.143 0.104-0.21 0.073c-0.38 0.132-2.27 0.846-2.169 2.017 0.049 0.57 0.33 1.039 0.467 1.105 0.771-0.119 1.645 0.205 2.305 0.869 0.662 0.662 0.988 1.535 0.872 2.337l-0.126 0.876c0.016 0.135 0.317 0.436 0.475 0.451l0.852-0.126c0.805-0.108 1.678 0.213 2.339 0.875s0.987 1.535 0.872 2.337l-0.126 0.875c0.016 0.136 0.318 0.437 0.476 0.452l0.851-0.126c0.803-0.111 1.678 0.213 2.339 0.875s0.987 1.535 0.872 2.337l-0.126 0.875c0.017 0.136 0.318 0.437 0.476 0.452l0.852-0.125c0.107-0.015 0.214-0.023 0.323-0.023 0.709 0 1.443 0.32 2.017 0.895 0.662 0.66 0.988 1.535 0.872 2.337l-0.022 0.154c0.056 0.055 0.49 0.303 0.997 0.349 1.373 0.086 1.97-1.639 2.091-2.052l0.006-0.178zM38.499 51.7l0.275-0.275-15.65-21.091-2.996 2.997c-1.424 1.425-1.424 3.743 0 5.169l13.201 13.201c1.425 1.426 3.744 1.424 5.17 0zM51.7 38.499c0.687-0.686 1.066-1.605 1.066-2.585s-0.379-1.898-1.065-2.584l-13.201-13.201c-0.713-0.713-1.648-1.069-2.584-1.069-0.73 0-1.455 0.223-2.078 0.654l15.608 21.038zM67.371 22.509c0.38-0.13 2.271-0.842 2.17-2.015-0.048-0.571-0.329-1.039-0.465-1.105-0.766 0.119-1.644-0.205-2.305-0.865-0.662-0.662-0.988-1.535-0.874-2.338l0.126-0.876c-0.016-0.136-0.317-0.436-0.475-0.451l-0.854 0.124c-0.803 0.118-1.675-0.212-2.337-0.874-0.662-0.66-0.988-1.535-0.872-2.337l0.126-0.876c-0.016-0.136-0.317-0.436-0.475-0.451l-0.854 0.124c-0.802 0.116-1.675-0.211-2.337-0.874-0.662-0.66-0.988-1.535-0.872-2.337l0.124-0.877c-0.016-0.136-0.317-0.436-0.475-0.451l-0.854 0.124c-0.804 0.112-1.677-0.212-2.337-0.874-0.662-0.66-0.988-1.535-0.872-2.337l0.022-0.154c-0.056-0.055-0.491-0.303-0.997-0.349-1.342-0.108-1.962 1.627-2.088 2.047l-0.002 0.175-0.166 0.279c-0.040 0.068-3.947 6.747-5.074 17.589l1.384 1.387c0.106-0.186 0.244-0.356 0.445-0.469 3.457-1.935 5.649-6.712 5.099-11.113-0.084-0.668 0.39-1.277 1.058-1.36 0.657-0.078 1.277 0.389 1.36 1.058 0.463 3.699-0.634 7.529-2.758 10.359 0.878-0.218 1.765-0.261 2.707-0.293 0.727-0.026 1.48-0.051 2.347-0.16 0.658-0.076 1.276 0.39 1.36 1.058s-0.39 1.277-1.058 1.36c-0.975 0.123-1.819 0.152-2.565 0.178-2.085 0.072-3.131 0.107-4.684 1.945-0.121 0.143-0.267 0.25-0.425 0.322l1.323 1.323c2.124-0.104 10.622-0.803 17.078-5.443z"></path>
</svg>
