<!-- Generated by IcoMoon.io -->
<svg version="1.1" xmlns="http://www.w3.org/2000/svg" width="72" height="72" viewBox="0 0 72 72">
<title>uniF1CD</title>
<path d="M65.959 34.051c1.66-1.424 3.744-2.251 6.041-2.251v2.4c-3.504 0-6.374 2.624-7.224 6.481l-3.106 17.389c-0.385 2.16-2.258 3.73-4.454 3.73h-42.432c-2.196 0-4.069-1.57-4.454-3.73l-0.5-2.803c-0.133-0.193-0.229-0.415-0.229-0.667 0-0.102 0.035-0.193 0.059-0.289l-2.455-13.746c-0.852-3.792-3.7-6.365-7.204-6.365v-2.4c2.281 0 4.375 0.846 6.047 2.284l-1.48-8.284h3.336l9.462-9.462c0.863-0.863 2.010-1.338 3.23-1.338h10.604c0-2.647 2.153-4.8 4.8-4.8s4.8 2.153 4.8 4.8h10.604c1.22 0 2.368 0.475 3.231 1.338l9.462 9.462h3.336zM57.103 22.2l-1.2-1.2h-39.806l-1.2 1.2h42.206zM36 12.6c-1.324 0-2.4 1.076-2.4 2.4h4.8c0-1.324-1.076-2.4-2.4-2.4zM20.596 17.4c-0.58 0-1.124 0.226-1.534 0.635l-0.565 0.565h35.006l-0.565-0.565c-0.409-0.409-0.955-0.635-1.534-0.635h-30.809zM12.497 24.6l-1.2 1.2h49.406l-1.2-1.2h-47.006zM59.308 57.648l2.962-16.586c0.044-0.302 0.096-0.602 0.16-0.894l2.137-11.968h-57.133l2.128 11.909c0.074 0.334 0.136 0.673 0.182 1.020l0.504 2.824c0.167-0.089 0.35-0.152 0.553-0.152h6c0.662 0 1.2 0.536 1.2 1.2s-0.538 1.2-1.2 1.2h-6c-0.056 0-0.104-0.024-0.158-0.032l0.434 2.432h8.124c0.662 0 1.2 0.536 1.2 1.2s-0.538 1.2-1.2 1.2h-7.696l0.428 2.4h10.867c0.662 0 1.2 0.536 1.2 1.2s-0.538 1.2-1.2 1.2h-10.438l0.33 1.848c0.181 1.015 1.061 1.752 2.092 1.752h42.432c1.031 0 1.91-0.737 2.092-1.752z"></path>
</svg>
