<!-- Generated by IcoMoon.io -->
<svg version="1.1" xmlns="http://www.w3.org/2000/svg" width="72" height="72" viewBox="0 0 72 72">
<title>uniF1D5</title>
<path d="M71.002 32.241c0.235 0.634 0.355 1.3 0.355 1.979v32.13c0 3.115-2.512 5.651-5.601 5.651h-31.226c-3.088 0-5.601-2.535-5.601-5.651v-32.13c0-0.679 0.118-1.345 0.355-1.98l6.303-16.998c0.814-2.195 2.921-3.669 5.246-3.669h8.667c0-4.962-4.038-9-9-9s-9 4.038-9 9v6.429c0 6.381-5.19 11.571-11.571 11.571-4.002 0-7.537-2.044-9.615-5.143h-3.825c-3.223 0-5.846-2.623-5.846-5.846v-10.165c0-3.223 2.623-5.846 5.846-5.846h6.308c3.223 0 5.846 2.623 5.846 5.846v10.165c0 2.962-2.223 5.391-5.084 5.769 1.63 1.635 3.884 2.649 6.369 2.649 4.962 0 9-4.038 9-9v-6.429c0-6.381 5.19-11.571 11.571-11.571s11.571 5.19 11.571 11.571h7.381c2.325 0 4.432 1.475 5.247 3.669zM6.489 21.857h2.543c-0.429-1.209-0.675-2.503-0.675-3.857h2.571c0 1.381 0.321 2.686 0.881 3.857h0.987c1.805 0 3.275-1.47 3.275-3.275v-10.165c0-1.805-1.47-3.275-3.275-3.275h-6.308c-1.805 0-3.275 1.47-3.275 3.275v10.165c0 1.805 1.47 3.275 3.275 3.275zM52.071 20.929v2.214h-2.571v-2.214c-0.765 0.446-1.286 1.266-1.286 2.214 0 1.418 1.153 2.571 2.571 2.571s2.571-1.153 2.571-2.571c0-0.948-0.521-1.768-1.286-2.214zM65.757 69.429c1.67 0 3.029-1.381 3.028-3.078v-5.388l-1.286-1.286-1.663 1.662-1.818-1.818 3.48-3.48 1.286 1.286v-9.221l-1.286-1.286-1.663 1.662-1.818-1.818 3.48-3.48 1.286 1.286v-10.248c0-0.372-0.064-0.737-0.194-1.084l-6.303-17.001c-0.442-1.192-1.581-1.993-2.835-1.993h-7.381v4.038c2.211 0.575 3.857 2.57 3.857 4.96 0 2.836-2.306 5.143-5.143 5.143s-5.143-2.307-5.143-5.143c0-2.39 1.646-4.386 3.857-4.96v-4.040h-8.668c-1.254 0-2.393 0.801-2.835 1.993l-6.303 17c-0.129 0.349-0.194 0.714-0.194 1.085v8.963l3.48 3.48-1.818 1.818-1.662-1.663v9.221l3.48 3.48-1.818 1.818-1.662-1.663v6.674c0 1.698 1.358 3.079 3.029 3.079h31.227zM33.162 65.948l3.48-3.48 3.48 3.48-1.818 1.818-1.663-1.662-1.662 1.662zM42.162 65.948l3.48-3.48 3.48 3.48-1.818 1.818-1.663-1.662-1.662 1.662zM51.162 65.948l3.48-3.48 3.48 3.48-1.818 1.818-1.663-1.662-1.662 1.662zM60.162 65.948l3.48-3.48 3.48 3.48-1.818 1.818-1.663-1.662-1.662 1.662zM36.643 53.247l-1.662 1.662-1.818-1.818 3.48-3.48 3.48 3.48-1.818 1.818zM43.98 54.909l-1.818-1.818 3.48-3.48 3.48 3.48-1.818 1.818-1.663-1.662zM52.98 54.909l-1.818-1.818 3.48-3.48 3.48 3.48-1.818 1.818-1.663-1.662zM61.98 54.909l-1.818-1.818 3.48-3.48 3.48 3.48-1.818 1.818-1.663-1.662zM43.98 59.52l-1.818 1.818-1.662-1.663-1.662 1.663-1.818-1.818 3.48-3.48zM52.98 59.52l-1.818 1.818-1.662-1.663-1.662 1.663-1.818-1.818 3.48-3.48zM61.98 59.52l-1.818 1.818-1.662-1.663-1.662 1.663-1.818-1.818 3.48-3.48zM40.5 46.818l-1.662 1.663-1.818-1.818 3.48-3.48 3.48 3.48-1.818 1.818zM49.5 46.818l-1.662 1.663-1.818-1.818 3.48-3.48 3.48 3.48-1.818 1.818zM58.5 46.818l-1.662 1.663-1.818-1.818 3.48-3.48 3.48 3.48-1.818 1.818z"></path>
</svg>
