<!-- Generated by IcoMoon.io -->
<svg version="1.1" xmlns="http://www.w3.org/2000/svg" width="72" height="72" viewBox="0 0 72 72">
<title>uniF111</title>
<path d="M29.543 19.743c-3.085-1.205-4.615-4.697-3.407-7.782s4.693-4.615 7.784-3.41c0.629 0.246 0.941 0.956 0.695 1.587s-0.955 0.939-1.588 0.696c-1.827-0.715-3.894 0.191-4.607 2.017-0.715 1.826 0.191 3.894 2.017 4.607 0.629 0.246 0.941 0.957 0.695 1.587-0.19 0.484-0.653 0.781-1.142 0.781-0.148 0-0.299-0.028-0.446-0.085zM65.271 23.607c0.624-0.27 1.343 0.011 1.614 0.629 0.643 1.47 0.678 3.102 0.093 4.597s-1.716 2.673-3.186 3.317c-0.773 0.338-1.591 0.509-2.41 0.509-0.739 0-1.479-0.138-2.189-0.415-1.494-0.585-2.672-1.716-3.315-3.186-0.271-0.62 0.011-1.342 0.631-1.614 0.624-0.27 1.343 0.012 1.614 0.631 0.381 0.87 1.079 1.541 1.964 1.886 0.886 0.346 1.852 0.326 2.722-0.055s1.539-1.078 1.885-1.963c0.346-0.884 0.327-1.851-0.055-2.721-0.271-0.619 0.011-1.342 0.631-1.614zM48.152 20.203c0.588-0.333 1.337-0.125 1.671 0.466 0.789 1.397 0.989 3.018 0.559 4.564s-1.436 2.832-2.834 3.622c-0.93 0.526-1.945 0.776-2.945 0.776-2.097 0-4.136-1.098-5.24-3.051-0.333-0.589-0.125-1.337 0.463-1.67 0.587-0.333 1.337-0.126 1.669 0.463 0.468 0.827 1.229 1.423 2.145 1.678 0.913 0.252 1.874 0.137 2.701-0.331s1.423-1.229 1.678-2.145c0.254-0.914 0.136-1.875-0.331-2.701-0.333-0.59-0.125-1.337 0.463-1.67zM37.692 22.416c-2.982-1.444-4.233-5.044-2.792-8.024 0.295-0.608 1.026-0.865 1.638-0.57 0.609 0.295 0.864 1.028 0.57 1.638-0.854 1.764-0.113 3.896 1.652 4.75 1.765 0.852 3.896 0.114 4.751-1.652 0.294-0.608 1.025-0.865 1.637-0.57 0.609 0.295 0.864 1.028 0.57 1.638-1.037 2.141-3.185 3.39-5.417 3.39-0.877 0-1.766-0.192-2.608-0.599zM28.578 29.389c-3.033-1.327-4.425-4.877-3.1-7.91 0.27-0.618 0.987-0.902 1.613-0.632 0.62 0.271 0.904 0.994 0.632 1.614-0.784 1.797 0.038 3.898 1.835 4.683 0.873 0.382 1.838 0.4 2.722 0.053 0.885-0.347 1.581-1.017 1.962-1.888 0.27-0.618 0.988-0.903 1.613-0.632 0.62 0.271 0.905 0.994 0.633 1.614-0.641 1.471-1.818 2.602-3.313 3.188-0.71 0.278-1.452 0.417-2.193 0.417-0.818 0-1.634-0.169-2.405-0.506zM44.033 16.493c-1.598-0.153-3.041-0.919-4.062-2.157-0.43-0.522-0.357-1.294 0.166-1.726 0.525-0.433 1.294-0.355 1.726 0.166 0.604 0.733 1.458 1.186 2.403 1.277 0.959 0.096 1.872-0.192 2.603-0.797 1.514-1.248 1.729-3.494 0.48-5.007-0.43-0.522-0.357-1.294 0.166-1.726 0.525-0.433 1.294-0.355 1.726 0.166 2.108 2.554 1.744 6.349-0.81 8.457-1.086 0.896-2.422 1.374-3.813 1.374-0.195 0-0.39-0.009-0.585-0.027zM18.913 27.561c-0.947 2.332-3.201 3.748-5.577 3.748-0.751 0-1.514-0.141-2.251-0.44-3.069-1.245-4.553-4.755-3.308-7.826 0.254-0.627 0.968-0.929 1.597-0.675 0.627 0.255 0.929 0.969 0.675 1.597-0.737 1.818 0.142 3.895 1.958 4.633 1.821 0.738 3.896-0.142 4.633-1.959 0.255-0.629 0.972-0.928 1.597-0.675 0.628 0.255 0.93 0.97 0.675 1.597zM70.201 24.058c1.163 1.199 1.799 2.764 1.8 4.427 0 1.718-0.679 3.331-1.913 4.543-0.657 0.645-1.434 1.137-2.288 1.454 0.105 1.626-0.496 3.241-1.694 4.416-1.084 1.064-2.557 1.655-4.069 1.663-0.311 0.556-0.699 1.064-1.159 1.516-1.335 1.31-3.087 1.966-4.84 1.966-1.137 0-2.264-0.306-3.288-0.859-5.219 0.239-8.717 8.225-10.396 23.781l-0.093 0.86c-0.176 1.558-1.492 2.732-3.055 2.732h-6.128c-1.603 0-2.948-1.25-3.059-2.846-0.902-12.937-7.762-24.021-12.802-24.162-0.476 0.14-0.962 0.232-1.455 0.232-1.304 0-2.606-0.488-3.597-1.461-0.87-0.854-1.385-1.987-1.479-3.167-1.764-0.021-3.462-0.71-4.743-1.968-1.289-1.266-2.003-2.983-2.013-4.753-0.832-0.276-1.586-0.737-2.221-1.359-1.101-1.082-1.707-2.521-1.707-4.054s0.607-2.972 1.707-4.052c0.593-0.582 1.297-1.025 2.071-1.307-0.005-1.696 0.67-3.344 1.911-4.562 1.735-1.705 4.282-2.281 6.572-1.563 1.825-1.718 4.461-2.206 6.77-1.347 0.805-1.107 1.875-2.029 3.161-2.634v-0.048c0-4.522 3.736-8.202 8.327-8.202 1.299 0 2.562 0.295 3.711 0.863 1.387-1.704 3.497-2.723 5.756-2.723 2.030 0 3.971 0.837 5.356 2.277 0.87-0.278 1.771-0.418 2.691-0.418 4.852 0 8.801 3.888 8.801 8.667 0 0.108-0.023 0.212-0.027 0.32 1.988-0.604 4.238-0.161 5.811 1.384 0.596 0.585 1.048 1.278 1.336 2.043 1.727-0.022 3.396 0.65 4.638 1.868 1.738 1.709 2.334 4.214 1.608 6.474zM23.869 13.515c-1.473 0.498-2.642 1.53-3.318 2.827-0.022 0.041-0.037 0.082-0.056 0.123-0.101 0.205-0.189 0.414-0.265 0.63-0.025 0.070-0.044 0.14-0.066 0.21-0.061 0.2-0.11 0.403-0.15 0.609-0.012 0.069-0.028 0.137-0.038 0.207-0.040 0.271-0.066 0.545-0.066 0.825 0 1.885 0.949 3.654 2.539 4.731 0.277 0.187 0.466 0.479 0.521 0.809 0.056 0.33-0.025 0.668-0.224 0.936-0.617 0.832-0.943 1.809-0.943 2.826 0 2.658 2.21 4.82 4.928 4.82 0.327 0 0.656-0.037 0.983-0.108 0.011-0.002 0.022-0.006 0.033-0.009 0.325-0.072 0.648-0.176 0.969-0.317 0.009-0.004 0.017-0.002 0.026-0.006 0.355-0.158 0.7-0.343 1.016-0.585 0.215-0.166 0.477-0.252 0.744-0.252 0.060 0 0.119 0.005 0.179 0.013 0.327 0.048 0.62 0.227 0.814 0.494 0.627 0.866 1.465 1.543 2.413 1.995v0c0.221 0.107 0.446 0.197 0.674 0.277 0.018 0.006 0.037 0.011 0.055 0.017 0.211 0.071 0.424 0.132 0.64 0.181 0.038 0.009 0.078 0.013 0.116 0.021 0.198 0.040 0.398 0.076 0.598 0.098 0.059 0.006 0.119 0.006 0.178 0.011 0.183 0.015 0.367 0.028 0.549 0.027 0.245-0.002 0.488-0.017 0.727-0.045 0.138-0.016 0.274-0.047 0.412-0.072 0.109-0.021 0.218-0.036 0.325-0.061 0.157-0.038 0.31-0.088 0.463-0.137 0.081-0.026 0.164-0.049 0.244-0.078 0.162-0.060 0.321-0.13 0.479-0.204 1.076-0.496 2.009-1.279 2.672-2.307 0.228-0.357 0.594-0.561 1.050-0.561 0.424 0.009 0.814 0.234 1.032 0.598 0.456 0.766 1.161 1.342 1.978 1.661h0.001c0.213 0.083 0.431 0.142 0.65 0.188 0.045 0.009 0.091 0.020 0.137 0.027 0.223 0.039 0.446 0.064 0.672 0.064 2.196 0 3.982-1.745 3.982-3.89 0-0.457-0.086-0.916-0.256-1.361-0.237-0.62 0.061-1.315 0.673-1.57 1.473-0.613 2.424-2.019 2.424-3.581 0-0.728-0.212-1.441-0.612-2.061-0.185-0.288-0.241-0.641-0.156-0.973 0.087-0.332 0.309-0.613 0.613-0.773 0.678-0.36 1.101-1.038 1.101-1.772 0-0.73-0.398-1.386-1.066-1.755-0.143-0.078-0.264-0.181-0.36-0.301-0.070-0.088-0.113-0.191-0.157-0.293-0.016-0.038-0.045-0.069-0.058-0.108-0.039-0.12-0.047-0.249-0.047-0.376 0-0.026-0.010-0.049-0.009-0.075 0.007-0.105 0.048-0.207 0.082-0.31 0.016-0.048 0.016-0.097 0.038-0.143l0.002-0.005v-0.001c0.001-0.004 0.002-0.009 0.005-0.012l0.093-0.223c0.001-0.004 0.004-0.005 0.005-0.009 0.342-0.778 0.525-1.596 0.525-2.435 0-3.427-2.85-6.215-6.35-6.215-0.89 0-1.758 0.181-2.579 0.539-0.523 0.228-1.136 0.065-1.476-0.396-0.927-1.255-2.419-2.004-3.993-2.004-1.797 0-3.454 0.96-4.32 2.504-0.168 0.301-0.456 0.517-0.792 0.594-0.335 0.077-0.69 0.011-0.973-0.185-0.999-0.689-2.167-1.053-3.381-1.053-3.241 0-5.876 2.58-5.876 5.751 0 0.238 0.020 0.469 0.048 0.699 0.071 0.577-0.272 1.126-0.824 1.313zM41.36 36.035c0.205 1.813 0.344 3.959 0.27 6.316 1.12-2.010 2.476-4.084 3.992-5.85-0.232-0.161-0.45-0.341-0.652-0.539-0.048-0.048-0.082-0.091-0.118-0.135-0.648-0.3-1.255-0.685-1.771-1.18-0.513 0.54-1.096 0.999-1.721 1.389zM33.406 48.932c0.069-3.909-0.104-8.88-1.082-12.696-0.76-0.428-1.46-0.966-2.066-1.603-0.168 0.091-0.344 0.163-0.518 0.24-0.281 0.206-0.561 0.407-0.841 0.559-0.023 0.925-0.4 1.82-1.077 2.487-0.314 0.308-0.678 0.544-1.067 0.719 2.026 2.205 4.613 5.605 6.653 10.294zM13.879 40.572c0.756 0.742 1.857 0.936 2.804 0.592 0.005-0.001 0.007-0.006 0.012-0.007 0.366-0.135 0.685-0.333 0.945-0.588 0.221-0.217 0.401-0.473 0.532-0.759 0.272-0.591 0.961-0.868 1.565-0.626 0.998 0.396 2.127 0.172 2.881-0.571 0.177-0.171 0.324-0.366 0.442-0.58 0.116-0.208 0.204-0.433 0.257-0.669 0.076-0.33 0.284-0.614 0.576-0.784 0.29-0.17 0.64-0.213 0.966-0.118 0.447 0.132 0.924 0.021 1.245-0.294 0.184-0.183 0.299-0.412 0.333-0.658-0.078-0.004-0.154-0.016-0.233-0.021-0.12-0.009-0.24-0.017-0.359-0.032-0.125-0.016-0.247-0.036-0.37-0.056-0.118-0.019-0.234-0.039-0.349-0.065-0.12-0.027-0.238-0.059-0.357-0.091-0.113-0.031-0.225-0.061-0.336-0.097-0.116-0.037-0.23-0.081-0.344-0.124-0.108-0.040-0.216-0.081-0.321-0.126-0.11-0.048-0.218-0.102-0.326-0.154-0.103-0.051-0.206-0.102-0.306-0.157-0.104-0.058-0.205-0.12-0.305-0.183-0.098-0.060-0.196-0.119-0.29-0.184-0.098-0.067-0.191-0.14-0.286-0.211-0.091-0.069-0.183-0.136-0.27-0.208-0.091-0.075-0.178-0.157-0.265-0.236-0.083-0.077-0.169-0.152-0.249-0.232-0.085-0.085-0.163-0.174-0.243-0.262-0.076-0.083-0.153-0.164-0.224-0.251-0.077-0.095-0.147-0.193-0.219-0.289-0.066-0.088-0.134-0.175-0.196-0.267-0.067-0.102-0.129-0.207-0.192-0.313-0.056-0.094-0.116-0.185-0.169-0.282-0.060-0.109-0.112-0.223-0.166-0.336-0.047-0.098-0.097-0.192-0.14-0.293-0.050-0.119-0.092-0.243-0.136-0.365-0.036-0.098-0.075-0.194-0.107-0.294-0.042-0.131-0.072-0.268-0.105-0.403-0.023-0.094-0.053-0.187-0.072-0.284-0.032-0.152-0.051-0.308-0.072-0.462-0.012-0.085-0.029-0.167-0.038-0.251-0.024-0.241-0.038-0.485-0.038-0.733 0-1.148 0.271-2.26 0.792-3.271-1.699-1.543-2.687-3.724-2.687-6.030 0-0.423 0.038-0.84 0.102-1.249 0.017-0.109 0.049-0.214 0.071-0.322 0.060-0.3 0.127-0.598 0.221-0.887 0.011-0.036 0.015-0.074 0.027-0.109-1.403-0.403-2.937-0.045-4 1.001-0.12 0.118-0.225 0.241-0.326 0.368-0.358 0.445-0.978 0.584-1.487 0.34-1.563-0.749-3.436-0.444-4.66 0.76-0.935 0.919-1.351 2.232-1.112 3.511 0.063 0.326-0.012 0.663-0.204 0.934-0.192 0.271-0.485 0.452-0.814 0.502-0.711 0.109-1.352 0.428-1.853 0.921-0.629 0.617-0.974 1.435-0.974 2.304s0.346 1.688 0.972 2.305c0.528 0.52 1.205 0.843 1.956 0.935 0.333 0.042 0.635 0.217 0.835 0.485 0.2 0.27 0.282 0.608 0.224 0.939-0.236 1.37 0.219 2.774 1.217 3.754 1.073 1.053 2.6 1.485 4.097 1.157 0.087-0.018 0.176-0.028 0.264-0.028 0.331 0 0.652 0.134 0.886 0.378 0.295 0.309 0.408 0.75 0.299 1.163-0.238 0.893 0.016 1.815 0.678 2.466zM39.914 66.703c0.631-5.852 2.437-22.587 10.496-25.541-0.163-0.23-0.311-0.472-0.444-0.723-0.233-0.005-0.463-0.032-0.69-0.080-0.168-0.036-0.327-0.093-0.488-0.151-0.056-0.021-0.116-0.031-0.173-0.054-0.11-0.045-0.211-0.112-0.316-0.168-0.099-0.054-0.202-0.096-0.297-0.158-0.006-0.005-0.011-0.011-0.017-0.015-0.186-0.125-0.364-0.266-0.527-0.425-0.005-0.005-0.007-0.011-0.012-0.016-0.18-0.179-0.335-0.375-0.471-0.582-0.013-0.021-0.033-0.037-0.045-0.056-3.875 4.873-6.549 12.079-6.578 12.158-0.227 0.617-0.901 0.947-1.527 0.743-0.626-0.202-0.982-0.864-0.803-1.498 1.334-4.743 1.325-9.507 0.989-13.069-0.064 0.018-0.13 0.026-0.194 0.042-0.195 0.049-0.392 0.091-0.591 0.126-0.129 0.022-0.256 0.042-0.386 0.059-0.181 0.025-0.365 0.042-0.549 0.054-0.138 0.010-0.277 0.017-0.415 0.021-0.067 0.001-0.134 0.010-0.202 0.010-0.118 0-0.233-0.013-0.35-0.018-0.134-0.006-0.267-0.010-0.401-0.021-0.2-0.017-0.396-0.045-0.592-0.076-0.087-0.013-0.177-0.017-0.264-0.033 1.476 7.641 0.499 17.79 0.452 18.26-0.059 0.593-0.536 1.058-1.13 1.102-0.592 0.039-1.135-0.347-1.278-0.925-1.961-7.838-6.041-13.112-8.439-15.672-0.107 0.129-0.219 0.251-0.339 0.369-0.148 0.146-0.304 0.279-0.466 0.404-0.027 0.021-0.058 0.037-0.085 0.058-0.136 0.099-0.272 0.196-0.416 0.281-0.059 0.034-0.121 0.061-0.181 0.094-0.116 0.063-0.23 0.126-0.351 0.18-0.073 0.033-0.151 0.058-0.225 0.087-0.11 0.043-0.219 0.088-0.332 0.124-0.080 0.026-0.161 0.042-0.241 0.063-0.113 0.029-0.224 0.060-0.338 0.082-0.082 0.016-0.164 0.023-0.246 0.034-0.115 0.016-0.23 0.034-0.347 0.043-0.082 0.006-0.166 0.004-0.249 0.006-0.116 0.002-0.233 0.006-0.351 0.001-0.085-0.004-0.17-0.015-0.256-0.023-0.095-0.009-0.189-0.011-0.283-0.026 6.002 2.836 11.675 14.025 12.494 25.769 0.022 0.316 0.29 0.565 0.613 0.565h6.128c0.318 0 0.583-0.239 0.62-0.556zM68.37 31.279c0.76-0.748 1.179-1.739 1.18-2.797 0-1.054-0.419-2.046-1.179-2.793-0.119-0.116-0.245-0.221-0.374-0.32-0.465-0.357-0.612-0.992-0.351-1.516 0.75-1.514 0.441-3.331-0.771-4.523-0.942-0.927-2.294-1.337-3.616-1.099-0.321 0.058-0.658-0.016-0.927-0.206-0.27-0.191-0.45-0.482-0.501-0.808-0.11-0.688-0.432-1.31-0.93-1.799-1.159-1.141-2.973-1.272-4.282-0.385 0.071 0.077 0.124 0.167 0.189 0.249 0.073 0.093 0.148 0.184 0.215 0.282 0.099 0.147 0.181 0.303 0.262 0.461 0.050 0.098 0.105 0.192 0.148 0.294 0.075 0.18 0.129 0.368 0.18 0.556 0.024 0.091 0.059 0.175 0.077 0.267 0.058 0.283 0.092 0.574 0.092 0.869 0 0.309-0.033 0.613-0.096 0.908-0.189 0.886-0.648 1.695-1.314 2.32 0.304 0.746 0.462 1.543 0.462 2.353 0 2.188-1.131 4.183-2.954 5.336 0.076 0.387 0.114 0.779 0.114 1.174 0 0.412-0.048 0.811-0.124 1.201-0.024 0.129-0.069 0.247-0.102 0.373-0.067 0.257-0.14 0.51-0.238 0.754-0.055 0.139-0.124 0.268-0.189 0.402-0.105 0.217-0.218 0.428-0.347 0.63-0.082 0.129-0.169 0.253-0.261 0.375-0.141 0.19-0.292 0.369-0.453 0.542-0.103 0.112-0.206 0.221-0.318 0.325-0.179 0.166-0.37 0.315-0.567 0.461-0.115 0.084-0.224 0.174-0.346 0.251-0.236 0.151-0.488 0.278-0.744 0.398-0.098 0.045-0.189 0.103-0.289 0.145-0.352 0.145-0.718 0.262-1.098 0.343-0.009 0.053-0.021 0.105-0.037 0.157-0.058 0.189-0.061 0.378-0.028 0.558 0.016 0.087 0.045 0.17 0.080 0.25 0.012 0.027 0.020 0.056 0.033 0.082 0.055 0.103 0.122 0.2 0.208 0.283 0.045 0.044 0.099 0.075 0.15 0.112 0.262 0.186 0.587 0.262 0.917 0.213 0.051-0.007 0.104-0.007 0.156-0.022h0.006c0.107-0.029 0.215-0.043 0.321-0.043 0.026 0 0.051 0.011 0.077 0.012 0.051 0.004 0.098 0.013 0.147 0.023 0.092 0.017 0.178 0.043 0.262 0.080 0.044 0.018 0.086 0.038 0.127 0.063 0.086 0.050 0.161 0.112 0.233 0.181 0.028 0.028 0.060 0.051 0.086 0.082 0.092 0.11 0.17 0.232 0.222 0.374 0.221 0.618 0.566 1.162 1.031 1.618 0.212 0.208 0.451 0.396 0.732 0.575l0.004 0.004c1.71 1.082 4.018 0.891 5.512-0.577 0.435-0.425 0.766-0.928 0.988-1.495 0.211-0.536 0.77-0.853 1.331-0.764 1.060 0.162 2.153-0.178 2.911-0.919 0.854-0.839 1.177-2.069 0.842-3.21-0.099-0.336-0.051-0.697 0.135-0.995s0.489-0.501 0.833-0.56c0.828-0.142 1.581-0.523 2.172-1.104z"></path>
</svg>
