<!-- Generated by IcoMoon.io -->
<svg version="1.1" xmlns="http://www.w3.org/2000/svg" width="72" height="72" viewBox="0 0 72 72">
<title>uniF1CF</title>
<path d="M14.644 29.938c0-0.814 0.407-1.22 1.22-1.22s1.22 0.407 1.22 1.22-0.407 1.22-1.22 1.22-1.22-0.407-1.22-1.22zM19.526 32.379c0-0.814 0.407-1.22 1.22-1.22s1.22 0.407 1.22 1.22c0 0.814-0.407 1.22-1.22 1.22s-1.22-0.407-1.22-1.22zM25.627 34.82c0-0.814 0.407-1.22 1.22-1.22s1.22 0.407 1.22 1.22-0.407 1.22-1.22 1.22-1.22-0.407-1.22-1.22zM10.983 33.6c0-0.814 0.407-1.22 1.22-1.22s1.22 0.407 1.22 1.22-0.407 1.22-1.22 1.22c-0.814 0-1.22-0.407-1.22-1.22zM15.864 36.040c0-0.814 0.407-1.22 1.22-1.22s1.22 0.407 1.22 1.22c0 0.814-0.407 1.22-1.22 1.22s-1.22-0.407-1.22-1.22zM20.746 39.701c0-0.814 0.407-1.22 1.22-1.22s1.22 0.407 1.22 1.22-0.407 1.22-1.22 1.22c-0.814 0-1.22-0.407-1.22-1.22zM26.847 40.922c0-0.814 0.407-1.22 1.22-1.22s1.22 0.407 1.22 1.22-0.407 1.22-1.22 1.22c-0.814 0-1.22-0.407-1.22-1.22zM31.729 36.040c0-0.814 0.407-1.22 1.22-1.22s1.22 0.407 1.22 1.22c0 0.814-0.407 1.22-1.22 1.22s-1.22-0.407-1.22-1.22zM32.949 42.142c0-0.814 0.407-1.22 1.22-1.22s1.22 0.407 1.22 1.22c0 0.814-0.407 1.22-1.22 1.22s-1.22-0.407-1.22-1.22zM59.797 27.498c0-0.814 0.407-1.22 1.22-1.22s1.22 0.407 1.22 1.22c0 0.814-0.407 1.22-1.22 1.22s-1.22-0.407-1.22-1.22zM54.915 29.938c0-0.814 0.407-1.22 1.22-1.22s1.22 0.407 1.22 1.22-0.407 1.22-1.22 1.22-1.22-0.407-1.22-1.22zM50.034 32.379c0-0.814 0.407-1.22 1.22-1.22s1.22 0.407 1.22 1.22c0 0.814-0.407 1.22-1.22 1.22s-1.22-0.407-1.22-1.22zM43.932 34.82c0-0.814 0.407-1.22 1.22-1.22s1.22 0.407 1.22 1.22-0.407 1.22-1.22 1.22-1.22-0.407-1.22-1.22zM58.576 33.6c0-0.814 0.407-1.22 1.22-1.22s1.22 0.407 1.22 1.22-0.407 1.22-1.22 1.22c-0.814 0-1.22-0.407-1.22-1.22zM53.695 36.040c0-0.814 0.407-1.22 1.22-1.22s1.22 0.407 1.22 1.22c0 0.814-0.407 1.22-1.22 1.22s-1.22-0.407-1.22-1.22zM48.814 39.701c0-0.814 0.407-1.22 1.22-1.22s1.22 0.407 1.22 1.22-0.407 1.22-1.22 1.22-1.22-0.407-1.22-1.22zM43.932 40.922c0-0.814 0.407-1.22 1.22-1.22s1.22 0.407 1.22 1.22-0.407 1.22-1.22 1.22-1.22-0.407-1.22-1.22zM37.831 36.040c0-0.814 0.407-1.22 1.22-1.22s1.22 0.407 1.22 1.22c0 0.814-0.407 1.22-1.22 1.22s-1.22-0.407-1.22-1.22zM19.526 27.498c0-0.814 0.407-1.22 1.22-1.22s1.22 0.407 1.22 1.22c0 0.814-0.407 1.22-1.22 1.22s-1.22-0.407-1.22-1.22zM25.627 29.938c0-0.814 0.407-1.22 1.22-1.22s1.22 0.407 1.22 1.22-0.407 1.22-1.22 1.22-1.22-0.407-1.22-1.22zM9.763 27.498c0-0.814 0.407-1.22 1.22-1.22s1.22 0.407 1.22 1.22c0 0.814-0.407 1.22-1.22 1.22s-1.22-0.407-1.22-1.22zM31.729 29.938c0-0.814 0.407-1.22 1.22-1.22s1.22 0.407 1.22 1.22-0.407 1.22-1.22 1.22c-0.814 0-1.22-0.407-1.22-1.22zM50.034 27.498c0-0.814 0.407-1.22 1.22-1.22s1.22 0.407 1.22 1.22c0 0.814-0.407 1.22-1.22 1.22s-1.22-0.407-1.22-1.22zM43.932 29.938c0-0.814 0.407-1.22 1.22-1.22s1.22 0.407 1.22 1.22-0.407 1.22-1.22 1.22-1.22-0.407-1.22-1.22zM37.831 29.938c0-0.814 0.407-1.22 1.22-1.22s1.22 0.407 1.22 1.22-0.407 1.22-1.22 1.22c-0.814 0-1.22-0.407-1.22-1.22zM39.051 42.142c0-0.814 0.407-1.22 1.22-1.22s1.22 0.407 1.22 1.22c0 0.814-0.407 1.22-1.22 1.22s-1.22-0.407-1.22-1.22zM68.961 19.706c1.484 0.653 2.361 1.54 2.632 2.66s0.406 4.158 0.406 9.114c0 2.791-0.948 4.755-2.843 5.893-0.947 0.568-2.041 0.852-3.28 0.852s-2.494-0.3-3.766-0.901c-4.971 6.841-11.57 11.084-19.796 12.731 3.195 2.13 4.792 5.099 4.792 8.905 0 2.379-3.593 3.568-10.779 3.568s-10.781-1.171-10.781-3.513v-0.055c0-3.728 1.549-6.662 4.648-8.802-8.47-1.535-15.255-5.805-20.355-12.811-1.257 0.585-2.496 0.877-3.716 0.877-1.241 0-2.334-0.284-3.28-0.852-1.896-1.138-2.843-3.102-2.843-5.893 0-4.955 0.135-7.993 0.406-9.113s1.148-2.007 2.632-2.66c0.229-0.1 0.445-0.197 0.648-0.293-0.017-0.603-0.026-0.948-0.026-1.035v-0.182c0-2.377 2.523-4.315 7.568-5.812s11.292-2.421 18.74-2.771c1.974-0.094 3.973-0.14 5.998-0.14 2.003 0 4.002 0.047 5.998 0.14 7.449 0.35 13.696 1.274 18.741 2.772s7.568 3.435 7.568 5.812v0 0 0.181c0 0.086-0.009 0.42-0.026 1.002 0.242 0.115 0.479 0.223 0.713 0.326zM65.832 18.196c-0-0.89-1.18-1.81-3.537-2.758s-5.904-1.774-10.638-2.474-9.964-1.051-15.69-1.051c-5.727 0-10.957 0.35-15.69 1.051s-8.28 1.525-10.637 2.474c-2.358 0.949-3.537 1.869-3.537 2.759 0.001 0.89 1.18 1.81 3.538 2.759s5.903 1.774 10.637 2.474c4.733 0.7 9.963 1.051 15.69 1.051s10.957-0.35 15.691-1.051c4.734-0.701 8.28-1.525 10.638-2.474s3.537-1.869 3.538-2.759zM4.098 35.279c1.181 0.709 2.637 0.716 4.365 0.021-2.525-4.088-4.056-8.519-4.592-13.292-0.706 0.315-1.121 0.894-1.245 1.736s-0.186 3.42-0.186 7.735c0 1.871 0.552 3.138 1.657 3.8zM44.663 58.773c-0.064-2.253-0.905-4.164-2.522-5.734s-3.555-2.354-5.813-2.354c-2.266 0-4.209 0.788-5.83 2.363s-2.457 3.484-2.507 5.725c1.21 0.876 3.989 1.314 8.337 1.314 4.346 0 7.124-0.438 8.335-1.314zM54.755 41.571c6.302-5.115 9.923-11.676 10.865-19.685-2.532 1.601-6.522 2.84-11.971 3.718s-11.342 1.317-17.682 1.317c-6.341 0-12.235-0.439-17.683-1.317s-9.437-2.117-11.969-3.719c0.944 8.030 4.58 14.603 10.907 19.719 0.226-0.456 0.587-0.683 1.083-0.683 0.814 0 1.22 0.407 1.22 1.22 0 0.347-0.132 0.643-0.395 0.889 1.313 0.899 2.692 1.69 4.137 2.371 0.194-0.546 0.574-0.819 1.14-0.819 0.814 0 1.22 0.407 1.22 1.22 0 0.175-0.046 0.354-0.139 0.538 1.251 0.471 2.551 0.858 3.9 1.163-0.067-0.155-0.1-0.316-0.1-0.481 0-0.814 0.407-1.22 1.22-1.22s1.22 0.407 1.22 1.22c0 0.338-0.121 0.626-0.362 0.865 1.524 0.237 3.057 0.355 4.599 0.355 0.074 0 0.177-0.002 0.31-0.007s0.221-0.007 0.262-0.008c-0.766-0.047-1.148-0.449-1.148-1.206 0-0.814 0.407-1.22 1.22-1.22s1.22 0.407 1.22 1.22c0 0.742-0.376 1.142-1.128 1.202 1.714-0.043 3.384-0.223 5.009-0.542-0.147-0.222-0.221-0.442-0.221-0.66 0-0.814 0.407-1.22 1.22-1.22s1.22 0.407 1.22 1.22c0 0.018-0.004 0.043-0.013 0.074s-0.014 0.053-0.015 0.066c1.471-0.406 2.903-0.923 4.296-1.551-0.404-0.241-0.607-0.584-0.607-1.030 0-0.814 0.407-1.22 1.22-1.22s1.22 0.407 1.22 1.22c0 0.019-0.005 0.046-0.014 0.079s-0.015 0.056-0.017 0.068c0.975-0.521 1.919-1.095 2.831-1.722-0.24-0.239-0.36-0.527-0.36-0.865 0-0.814 0.407-1.22 1.22-1.22 0.474 0 0.828 0.216 1.061 0.649zM67.902 35.279c1.105-0.662 1.657-1.929 1.657-3.8 0-4.358-0.064-6.949-0.191-7.772s-0.561-1.399-1.3-1.727c-0.532 4.774-2.059 9.208-4.582 13.3 1.744 0.719 3.216 0.718 4.416-0.001z"></path>
</svg>
