<!-- Generated by IcoMoon.io -->
<svg version="1.1" xmlns="http://www.w3.org/2000/svg" width="72" height="72" viewBox="0 0 72 72">
<title>uniF1A3</title>
<path d="M70.92 16.492l1.075 0.28-0.059 1.113c-0.135 2.574-6.295 16.928-7.938 20.632-3.091 6.972-7.286 13.139-12.466 18.335l-0.094 0.094c-3.526 3.53-7.295 6.66-11.21 9.309-6.564 3.83-13.644 5.743-21.175 5.743-4.514 0-9.187-0.686-14.012-2.060-0.322-0.091-0.591-0.168-0.799-0.222l-0.779-0.201-0.982-0.982-0.201-0.778c-0.053-0.209-0.131-0.477-0.222-0.801-3.663-12.877-2.439-24.69 3.637-35.109 2.7-3.994 5.829-7.763 9.35-11.28l0.102-0.102c5.196-5.182 11.366-9.375 18.336-12.466 3.704-1.642 18.061-7.803 20.632-7.938l1.112-0.057 0.28 1.079c0.361 1.397 0.434 3.397 0.091 5.947 0.819-0.325 1.73-0.746 2.678-1.188 0.861-0.401 1.767-0.825 2.702-1.224 2.432-1.038 4.207-1.004 5.276 0.093 1.278 1.316 0.888 3.619 0.097 5.338-0.701 1.521-1.912 4.347-2.626 6.55 3.182-0.554 5.608-0.516 7.196-0.105zM55.044 10.101c-0.273 1.225-0.637 2.51-1.048 3.825-0.020 0.066-0.040 0.131-0.061 0.198-0.207 0.653-0.431 1.318-0.672 1.992-0.007 0.018-0.014 0.037-0.020 0.056-0.498 1.389-1.046 2.809-1.685 4.279 0.12-0.052 0.236-0.096 0.356-0.147 0.449-0.191 0.885-0.37 1.321-0.546 0.296-0.12 0.595-0.246 0.888-0.36 0.658-0.255 1.297-0.492 1.923-0.715 0.306-0.108 0.606-0.205 0.907-0.307 0.386-0.13 0.768-0.257 1.14-0.374 0.284-0.089 0.566-0.175 0.847-0.258 0.469-0.139 0.926-0.266 1.375-0.385 0.126-0.033 0.257-0.075 0.381-0.106 0.753-3.046 2.91-7.767 3.177-8.347 0.526-1.143 0.552-2.103 0.419-2.3 0-0.004-0.064-0.026-0.248-0.026-0.301 0-0.91 0.082-1.996 0.546-0.906 0.386-1.783 0.797-2.618 1.185-1.636 0.764-3.094 1.446-4.386 1.79zM8.005 33.298c-8.249 14.152-4.844 27.499-3.451 32.444 5.743-2.854 25.423-20.587 29.92-24.966 0.139-0.136 0.273-0.269 0.39-0.386 1.539-1.536 2.987-3.128 4.362-4.753 1.661-1.966 3.21-3.983 4.608-6.048 0.66-1.138 1.297-2.278 1.912-3.432 0.003-0.004 0.004-0.008 0.007-0.012 0.615-1.154 1.209-2.319 1.784-3.503l0.206-0.426 0.003-0.001c0.509-1.061 0.985-2.103 1.423-3.124 0.048-0.111 0.097-0.222 0.143-0.332 0.198-0.467 0.383-0.926 0.566-1.385 0.071-0.18 0.145-0.363 0.214-0.54 0.162-0.416 0.315-0.825 0.464-1.233 0.071-0.194 0.142-0.387 0.209-0.577 0.145-0.411 0.282-0.816 0.415-1.217 0.052-0.156 0.102-0.311 0.151-0.464 0.146-0.457 0.284-0.91 0.412-1.356 0.019-0.068 0.040-0.136 0.059-0.205 0.301-1.070 0.554-2.106 0.753-3.106l0.142-0.712c0.366-2.049 0.457-3.69 0.368-4.892-3.116 0.959-11.085 4.141-18.475 7.418-6.664 2.955-12.557 6.96-17.515 11.905l-0.101 0.102c-3.398 3.393-6.415 7.027-8.969 10.8zM61.51 37.41c3.271-7.376 6.447-15.33 7.411-18.46-1.19-0.079-3.188-0.024-6.083 0.592l-0.671 0.157c-2.839 0.664-5.936 1.719-9.238 3.133-0.106 0.045-0.214 0.093-0.322 0.139-0.926 0.402-1.873 0.84-2.83 1.299-0.049 0.102-0.104 0.201-0.154 0.302-0.424 0.857-0.874 1.732-1.349 2.626-0.117 0.221-0.233 0.445-0.352 0.666-0.561 1.037-1.147 2.090-1.779 3.174-2.7 3.994-5.829 7.763-9.35 11.28-0.591 0.592-2.413 2.305-4.909 4.586-5.002 4.604-12.894 11.682-19.223 16.536-2.263 1.766-4.29 3.236-5.84 4.166 5.342 1.464 18.243 4.341 31.96-3.659 3.694-2.503 7.328-5.522 10.723-8.92l0.101-0.101c4.943-4.957 8.949-10.85 11.905-17.515zM22.454 26.344c-0.34 0-0.681-0.127-0.947-0.381-0.543-0.522-0.559-1.386-0.037-1.929 3.199-3.324 6.801-6.084 10.708-8.201 0.663-0.357 1.491-0.113 1.85 0.548s0.112 1.49-0.55 1.848c-3.659 1.983-7.037 4.574-10.041 7.695-0.269 0.278-0.626 0.419-0.984 0.419zM40.020 14.589c-0.486 0-0.956-0.261-1.2-0.717-0.357-0.663-0.109-1.49 0.554-1.848l0.286-0.154c1.112-0.599 2.262-1.22 3.469-1.7 0.698-0.277 1.492 0.067 1.771 0.765 0.278 0.701-0.064 1.494-0.765 1.772-1.059 0.419-2.090 0.974-3.18 1.563l-0.289 0.157c-0.206 0.111-0.427 0.162-0.645 0.162zM6.351 57.759c-1.802-2.833-0.468-9.494-0.181-10.8 0.161-0.737 0.891-1.2 1.623-1.041 0.737 0.16 1.203 0.887 1.042 1.623-0.608 2.795-1.068 7.358-0.182 8.752 0.405 0.637 0.217 1.48-0.419 1.884-0.228 0.143-0.48 0.213-0.731 0.213-0.452 0-0.893-0.224-1.153-0.632z"></path>
</svg>
