<!-- Generated by IcoMoon.io -->
<svg version="1.1" xmlns="http://www.w3.org/2000/svg" width="72" height="72" viewBox="0 0 72 72">
<title>uniF178</title>
<path d="M63.873 4.39c0.505 0.505 0.505 1.322 0.001 1.825l-3.006 3.007c-0.253 0.252-0.583 0.378-0.914 0.378s-0.661-0.126-0.912-0.377c-0.505-0.505-0.505-1.32-0.001-1.826l3.007-3.007c0.505-0.505 1.32-0.505 1.825 0zM57.622 12.467l-8.536 8.536c-0.252 0.252-0.582 0.378-0.912 0.378s-0.661-0.126-0.912-0.378c-0.505-0.505-0.505-1.32 0-1.825l8.536-8.536c0.505-0.505 1.32-0.505 1.825 0s0.505 1.32 0 1.825zM51.658 22.081c0.505-0.503 1.322-0.503 1.825 0 0.505 0.505 0.505 1.322 0 1.825l-3.053 3.053c-0.253 0.252-0.583 0.378-0.914 0.378s-0.661-0.126-0.912-0.378c-0.503-0.503-0.503-1.32 0-1.825zM61.531 12.209c0.503-0.505 1.32-0.505 1.825 0s0.505 1.32 0 1.825l-6.222 6.222c-0.252 0.252-0.582 0.378-0.912 0.378s-0.661-0.126-0.912-0.378c-0.505-0.505-0.505-1.32 0-1.825zM65.969 7.77c0.502-0.503 1.32-0.505 1.825 0s0.505 1.32 0 1.825l-1.534 1.534c-0.252 0.252-0.582 0.378-0.912 0.378s-0.661-0.126-0.912-0.378c-0.505-0.505-0.505-1.32 0-1.825zM71.915 8.541l0.012 0.367-0.179 0.319c-10.025 17.745-23.38 23.638-23.944 23.88l-0.234 0.099-0.253 0.005h-0.076c-2.288 0-4.419-1.772-5.268-2.573-0.009 0.008-0.010 0.019-0.019 0.028l-7.54 7.541 3.081 3.081c1.658 1.657 2.571 3.869 2.571 6.227s-0.912 4.57-2.571 6.227l-14.305 14.305c-2.549 2.55-5.952 3.954-9.581 3.954-3.63 0-7.032-1.403-9.582-3.954-2.55-2.55-3.954-5.952-3.954-9.582 0-3.629 1.404-7.031 3.954-9.581l14.306-14.303c1.657-1.658 3.869-2.571 6.228-2.571 2.358 0 4.57 0.913 6.227 2.571l1.803 1.803 7.539-7.541c0.053-0.054 0.12-0.079 0.179-0.12-1.458-2.080-1.596-3.821-1.605-4.052l-0.013-0.365 0.179-0.319c10.025-17.744 23.38-23.638 23.944-23.88l0.234-0.099 0.254-0.005h0.073c2.781 0 5.36 2.639 5.648 2.942 2.706 2.706 2.88 5.311 2.892 5.598zM37.484 47.513c0-1.669-0.644-3.231-1.815-4.401l-1.256-1.256-2.033 2.033c-0.252 0.252-0.582 0.378-0.912 0.378s-0.661-0.126-0.912-0.378c-0.505-0.505-0.505-1.32 0-1.825l2.033-2.033-1.825-1.825-2.033 2.033c-0.252 0.252-0.582 0.378-0.912 0.378s-0.661-0.126-0.912-0.378c-0.505-0.505-0.505-1.32 0-1.825l2.031-2.031c-1.168-1.156-2.72-1.795-4.379-1.795-1.67 0-3.233 0.644-4.403 1.815l-14.305 14.305c-2.062 2.062-3.198 4.818-3.198 7.756 0 2.941 1.136 5.695 3.198 7.758 2.062 2.064 4.818 3.199 7.758 3.199 2.939 0 5.694-1.136 7.756-3.199l14.305-14.306c1.171-1.169 1.815-2.733 1.815-4.402zM47.032 30.62c1.836-0.883 13.44-6.92 22.256-22.288-0.119-0.581-0.515-1.865-1.829-3.291l-0.306-0.319c-0.547-0.569-2.195-1.994-3.566-2.131-1.838 0.883-13.442 6.92-22.257 22.29 0.012 0.054 0.027 0.12 0.044 0.186l2.985-2.985c0.505-0.505 1.32-0.505 1.825 0s0.505 1.32 0 1.825l-3.361 3.361c-0.077 0.077-0.173 0.12-0.263 0.174 0.178 0.239 0.372 0.481 0.601 0.732l0.303 0.316c0.549 0.569 2.197 1.993 3.567 2.129zM8.787 50.634c0.511-0.494 1.329-0.48 1.823 0.030 0.496 0.512 0.482 1.329-0.031 1.825-3.394 3.279-3.723 7.563-0.821 10.657 0.488 0.519 0.462 1.336-0.058 1.823-0.249 0.234-0.565 0.35-0.883 0.35-0.343 0-0.687-0.137-0.941-0.408-3.881-4.14-3.506-10.009 0.91-14.277z"></path>
</svg>
