<!-- Generated by IcoMoon.io -->
<svg version="1.1" xmlns="http://www.w3.org/2000/svg" width="72" height="72" viewBox="0 0 72 72">
<title>uniF156</title>
<path d="M67.839 57.662c1.024 0.465 1.648 1.492 1.589 2.615-0.060 1.125-0.789 2.080-1.856 2.436l-3.411 1.136-3.734 6.747c-0.491 0.886-1.382 1.402-2.357 1.402-0.17 0-0.342-0.017-0.515-0.048-1.167-0.216-2.027-1.112-2.195-2.287l-0.491-3.436c-1.878 0.754-3.746 1.133-5.559 1.133-3.515 0-6.824-1.406-9.59-4.172l-28.377-28.375c-5.553-5.555-6.521-13.972-2.928-20.539l-4.392-1.996c-0.936-0.425-1.506-1.363-1.452-2.39 0.053-1.027 0.717-1.899 1.692-2.225l2.708-0.902 3.043-5.48c0.527-0.948 1.551-1.441 2.622-1.236 1.064 0.198 1.853 1.018 2.005 2.089l0.746 5.216c6.548-3.515 14.898-2.518 20.417 3l28.377 28.375c4.589 4.587 5.434 10.687 2.319 16.736l-0.086 0.144c-0.018 0.028-0.295 0.433-0.757 1.066zM35.357 13.815c-3.275 0.12-19.528 1.691-20.525 20.576l6.253 6.252c1.824-14.473 12.709-19.616 20.489-20.609zM44.167 22.624c-3.245 0.126-19.53 1.661-20.525 20.572l6.252 6.252c1.827-14.471 12.734-19.599 20.494-20.601zM52.97 31.429c-3.253 0.116-19.528 1.666-20.523 20.573l6.252 6.252c1.827-14.473 12.708-19.614 20.487-20.609zM9.952 11.934c0.014-0.018 0.029-0.032 0.042-0.050 0.417-0.527 0.858-1.041 1.344-1.528 0.003-0.001 0.004-0.003 0.005-0.004l0.001-0.001c0.304-0.306 0.641-0.603 0.992-0.898 0.165-0.141 0.327-0.285 0.495-0.418l-0.81-5.67-2.686 4.838c-0.306 0.547-0.797 0.954-1.388 1.15l-2.12 0.707zM11.358 14.727c-3.35 5.211-3.043 12.113 0.933 17.008 1.856-14.325 12.636-19.452 20.37-20.487-2.644-2.123-5.865-3.188-9.085-3.188-2.75 0-5.495 0.778-7.885 2.322l-0.565 0.404c-0.345 0.246-0.659 0.488-0.952 0.732-0.242 0.205-0.479 0.417-0.71 0.641-0.051 0.050-0.112 0.1-0.162 0.15-0.251 0.251-0.488 0.524-0.724 0.8-0.062 0.071-0.13 0.137-0.191 0.21-0.291 0.354-0.569 0.728-0.833 1.118zM41.679 61.233c4.625 4.626 9.71 3.552 12.785 2.164l-0.494-3.46 0.685-0.49c0.877-0.627 1.614-1.241 2.251-1.879 0.779-0.778 1.504-1.662 2.157-2.628l0.655-0.967 3.367 1.529c0.516-0.69 0.875-1.204 0.998-1.381 2.516-4.953 1.86-9.721-1.856-13.435l-0.451-0.451c-3.278 0.122-19.527 1.692-20.522 20.573zM63.286 61.227l3.412-1.139-2.727-1.202-0.033 0.043-3.264-1.485c-0.282 0.372-0.574 0.732-0.875 1.078-0.303 0.347-0.614 0.682-0.934 1.002-0.571 0.572-1.202 1.122-1.918 1.67l1.156 8.079 3.667-6.788c0.332-0.595 0.869-1.043 1.517-1.258zM12.297 22.119c-0.202-0.233-0.379-0.425-0.536-0.595-0.767-0.829-1.19-1.33-1.691-2.759-0.255-0.719 0.126-1.51 0.847-1.763 0.718-0.255 1.51 0.125 1.763 0.847 0.336 0.958 0.502 1.136 1.114 1.8 0.17 0.184 0.363 0.392 0.584 0.643 0.504 0.576 0.447 1.45-0.127 1.954-0.263 0.23-0.589 0.343-0.913 0.343-0.383 0-0.767-0.159-1.041-0.47zM17.634 25.446c0.54-0.541 1.416-0.541 1.957 0l3.432 3.433c0.541 0.541 0.541 1.416 0 1.957-0.27 0.27-0.624 0.405-0.978 0.405s-0.708-0.136-0.978-0.405l-3.432-3.433c-0.541-0.541-0.541-1.416 0-1.957zM29.94 39.71l-3.574-3.576c-0.541-0.541-0.541-1.416 0-1.957s1.416-0.541 1.957 0l3.574 3.576c0.541 0.541 0.541 1.416 0 1.957-0.27 0.27-0.624 0.405-0.978 0.405s-0.709-0.136-0.978-0.405zM38.988 48.758l-3.392-3.392c-0.541-0.541-0.541-1.416 0-1.957s1.416-0.541 1.957 0l3.392 3.392c0.541 0.541 0.541 1.416 0 1.957-0.27 0.27-0.624 0.405-0.978 0.405s-0.709-0.136-0.978-0.405zM46.347 52.398c2.196 2.149 4.226 3.85 6.209 5.195 0.632 0.432 0.797 1.293 0.367 1.924-0.268 0.394-0.703 0.606-1.146 0.606-0.268 0-0.54-0.077-0.778-0.239-2.119-1.441-4.273-3.242-6.587-5.506-0.547-0.534-0.556-1.41-0.022-1.957 0.537-0.545 1.411-0.556 1.957-0.022zM18.077 12.691c-0.706-0.296-1.036-1.107-0.74-1.811 0.295-0.707 1.111-1.039 1.812-0.74 1.468 0.617 2.047 1.205 2.921 2.096l0.238 0.242c0.537 0.544 0.533 1.42-0.011 1.957-0.27 0.267-0.621 0.4-0.973 0.4-0.357 0-0.714-0.138-0.984-0.411l-0.245-0.249c-0.794-0.81-1.064-1.082-2.018-1.483zM28.931 23.077l-3.79-3.792c-0.541-0.541-0.541-1.416 0-1.957s1.416-0.541 1.957 0l3.79 3.792c0.541 0.541 0.541 1.416 0 1.957-0.27 0.27-0.624 0.406-0.978 0.406s-0.709-0.136-0.978-0.406zM37.561 31.705l-3.419-3.419c-0.541-0.541-0.541-1.416 0-1.957s1.416-0.541 1.957 0l3.42 3.42c0.541 0.541 0.541 1.416 0 1.957-0.27 0.27-0.624 0.406-0.978 0.406s-0.709-0.136-0.978-0.406zM46.358 40.504l-3.417-3.417c-0.541-0.541-0.541-1.416 0-1.957s1.416-0.541 1.957 0l3.417 3.417c0.541 0.541 0.541 1.416 0 1.957-0.27 0.27-0.624 0.405-0.978 0.405s-0.708-0.136-0.978-0.405zM57.398 52.569c-1.499-2.422-3.489-4.561-5.416-6.516-0.535-0.544-0.531-1.42 0.014-1.957 0.542-0.535 1.417-0.531 1.957 0.014 2.041 2.069 4.156 4.349 5.8 7.003 0.401 0.65 0.202 1.503-0.448 1.906-0.227 0.14-0.477 0.206-0.726 0.206-0.464 0-0.918-0.233-1.179-0.656z"></path>
</svg>
