<!-- Generated by IcoMoon.io -->
<svg version="1.1" xmlns="http://www.w3.org/2000/svg" width="72" height="72" viewBox="0 0 72 72">
<title>uniF168</title>
<path d="M36.67 0c9.555 0 17.328 7.876 17.326 17.555v35.911c0 3.371-2.711 6.113-6.045 6.113h-7.639v8.699c0 2.053-1.671 3.724-3.724 3.724h-1.241c-2.053 0-3.724-1.671-3.724-3.724v-8.697h-7.578c-3.333 0-6.045-2.742-6.045-6.113v-35.912c0-9.679 7.774-17.555 17.328-17.555h1.34zM37.831 68.276v-8.689h-3.724v8.689c0 0.685 0.556 1.241 1.241 1.241h1.241c0.685 0 1.241-0.556 1.241-1.241zM51.515 19.321h0.001v-1.766c0-2.928-0.84-5.655-2.269-7.97l-28.763 28.762v12.005zM47.756 7.565c-1.936-2.213-4.499-3.839-7.409-4.595l-19.863 19.861v12.005zM35.329 2.482c-8.185 0-14.845 6.761-14.845 15.072v1.767l16.808-16.807c-0.207-0.009-0.412-0.032-0.622-0.032h-1.34zM20.52 53.827c0.181 1.83 1.683 3.269 3.528 3.269h4.671c0.010-0.010 0.013-0.023 0.022-0.034l22.774-22.775v-11.455zM47.952 57.096c1.965 0 3.562-1.628 3.564-3.631v-15.668l-19.299 19.299h15.735z"></path>
</svg>
