<!-- Generated by IcoMoon.io -->
<svg version="1.1" xmlns="http://www.w3.org/2000/svg" width="72" height="72" viewBox="0 0 72 72">
<title>uniF17D</title>
<path d="M68.315 41.6c2.097 0.47 3.685 2.606 3.686 5.161 0 2.649-1.707 4.848-3.919 5.206-2.632 10.279-12.167 17.635-23.074 17.635s-20.443-7.354-23.074-17.635c-1.695-0.274-3.087-1.633-3.648-3.444-2.338-0.621-4.563-1.564-6.617-2.85-9.245-5.787-13.428-17.081-10.205-27.19-0.772-0.678-1.281-1.655-1.422-2.764-0.162-1.259 0.144-2.582 0.861-3.728 1.355-2.165 3.837-3.134 5.86-2.42 7.666-8.030 19.965-9.517 29.656-3.451 6.091 3.811 10.062 9.945 11.033 16.956 10.34 1.020 18.788 8.438 20.863 18.525zM4.338 18.427c-3.393 9.16 0.293 19.656 8.761 24.955 1.57 0.982 3.249 1.753 5.010 2.301 0.043-0.233 0.103-0.459 0.17-0.679 0.007-0.023 0.011-0.047 0.018-0.069 0.085-0.263 0.19-0.516 0.309-0.757 0.039-0.081 0.086-0.154 0.13-0.231 0.086-0.158 0.177-0.313 0.278-0.459 0.058-0.084 0.122-0.161 0.184-0.24 0.1-0.128 0.204-0.251 0.315-0.367 0.070-0.074 0.143-0.146 0.217-0.215 0.116-0.108 0.238-0.208 0.363-0.302 0.078-0.058 0.155-0.119 0.236-0.171 0.142-0.093 0.29-0.171 0.44-0.247 0.074-0.037 0.144-0.080 0.22-0.112 0.229-0.098 0.466-0.181 0.711-0.236 0.139-0.676 0.306-1.34 0.502-1.991 0.082-0.273 0.188-0.535 0.279-0.803 0.126-0.371 0.242-0.748 0.386-1.109 0.117-0.296 0.259-0.578 0.389-0.868 0.144-0.321 0.277-0.648 0.433-0.961 0.146-0.29 0.313-0.566 0.471-0.848 0.166-0.297 0.32-0.599 0.498-0.888 0.17-0.277 0.362-0.537 0.542-0.806 0.189-0.278 0.367-0.563 0.567-0.833 0.192-0.259 0.404-0.501 0.606-0.752 0.211-0.26 0.412-0.529 0.633-0.78 0.212-0.239 0.441-0.462 0.663-0.692 0.233-0.243 0.459-0.494 0.702-0.727 0.228-0.217 0.472-0.417 0.709-0.626 0.256-0.225 0.505-0.459 0.771-0.673 0.246-0.198 0.508-0.378 0.761-0.567 0.274-0.204 0.541-0.416 0.825-0.607 0.262-0.177 0.537-0.335 0.806-0.502 0.293-0.182 0.579-0.371 0.88-0.54 0.277-0.155 0.564-0.29 0.848-0.435 0.309-0.158 0.613-0.323 0.929-0.467 0.294-0.135 0.599-0.247 0.899-0.37 0.32-0.13 0.634-0.267 0.96-0.385 0.309-0.111 0.628-0.2 0.942-0.298 0.329-0.102 0.656-0.215 0.992-0.304 0.32-0.085 0.648-0.147 0.973-0.22 0.341-0.076 0.68-0.159 1.027-0.221 0.331-0.059 0.669-0.094 1.006-0.14 0.35-0.047 0.696-0.103 1.051-0.135 0.341-0.031 0.69-0.038 1.035-0.055 0.309-0.015 0.615-0.046 0.927-0.050-0.976-6.007-4.461-11.247-9.72-14.537-8.869-5.549-20.184-3.987-26.904 3.718l-0.757 0.868-1.207-0.756c-0.224-0.139-0.482-0.205-0.752-0.205-0.762 0-1.636 0.522-2.178 1.39-0.382 0.607-0.553 1.319-0.471 1.95 0.041 0.314 0.182 0.887 0.687 1.202l1.313 0.822zM67.445 49.319c1.006 0 1.86-1.171 1.86-2.559s-0.85-2.559-1.856-2.559h-1.424l-0.181-1.138c-1.505-9.427-9.244-16.436-18.78-17.324l-0.991-0.053c-0.355-0.016-0.705-0.046-1.063-0.046-10.463 0-19.224 7.329-20.835 17.424l-0.181 1.138h-1.424c-1.006 0-1.856 1.173-1.856 2.559 0 0.163 0.018 0.322 0.042 0.479l0.016 0.117c0.201 1.109 0.939 1.961 1.796 1.961h1.547l0.224 1.076c1.983 9.566 10.674 16.509 20.667 16.509s18.685-6.943 20.667-16.509l0.224-1.076h1.547zM51.080 31.813c4.837 0 8.773 3.936 8.773 8.773 0 0.745-0.603 1.35-1.35 1.35s-1.35-0.605-1.35-1.35c0-3.348-2.725-6.073-6.073-6.073-0.746 0-1.35-0.605-1.35-1.35s0.603-1.35 1.35-1.35zM26.622 10.754c-3.282-2.238-7.671-1.531-9.788 1.572-0.261 0.383-0.686 0.59-1.116 0.59-0.263 0-0.526-0.076-0.76-0.235-0.615-0.42-0.776-1.259-0.355-1.876 2.954-4.334 9.028-5.357 13.54-2.282 0.616 0.42 0.776 1.259 0.355 1.876-0.421 0.615-1.259 0.775-1.876 0.355z"></path>
</svg>
