<!-- Generated by IcoMoon.io -->
<svg version="1.1" xmlns="http://www.w3.org/2000/svg" width="72" height="72" viewBox="0 0 72 72">
<title>uniF1D1</title>
<path d="M5.456 55.862c-1.763 0-3.333-0.905-4.201-2.422-0.854-1.491-0.845-3.266 0.024-4.748l7.067-12.062c0.873-1.491 2.436-2.381 4.177-2.381 1.743 0 3.305 0.89 4.179 2.381l7.068 12.062c0.869 1.482 0.878 3.257 0.024 4.748-0.868 1.517-2.439 2.422-4.201 2.422h-14.137zM3.42 49.948c-0.42 0.715-0.423 1.538-0.011 2.258 0.421 0.734 1.187 1.173 2.047 1.173h14.137c0.86 0 1.626-0.438 2.047-1.173 0.412-0.72 0.408-1.543-0.011-2.258l-7.068-12.062c-0.423-0.722-1.184-1.155-2.036-1.155s-1.613 0.432-2.036 1.155zM1.863 65.793v-8.69h69.517v8.69h-4.965v6.207h-7.448v-6.207h-44.69v6.207h-7.448v-6.207h-4.966zM11.794 69.517v-3.724h-2.483v3.724h2.483zM63.932 69.517v-3.724h-2.483v3.724h2.483zM4.346 59.586v3.724h64.552v-3.724h-64.552zM25.45 43.448c0-6.161 5.013-11.172 11.172-11.172s11.172 5.011 11.172 11.172v1.241c0 6.161-5.013 11.172-11.172 11.172s-11.172-5.011-11.172-11.172v-1.241zM45.312 43.448c0-4.791-3.898-8.69-8.69-8.69s-8.69 3.899-8.69 8.69v1.241c0 4.79 3.898 8.69 8.69 8.69s8.69-3.899 8.69-8.69v-1.241zM67.656 32.276c2.053 0 3.724 1.671 3.724 3.724v16.138c0 2.053-1.671 3.724-3.724 3.724h-14.897c-2.053 0-3.724-1.671-3.724-3.724v-16.138c0-2.053 1.671-3.724 3.724-3.724h14.897zM68.898 52.138v-16.138c0-0.685-0.557-1.241-1.241-1.241h-14.897c-0.684 0-1.241 0.556-1.241 1.241v16.138c0 0.685 0.557 1.241 1.241 1.241h14.897c0.684 0 1.241-0.556 1.241-1.241zM10.394 50.896c-0.833 0-1.606-0.446-2.016-1.166-0.395-0.688-0.41-1.502-0.045-2.2l2.186-5.545c0.42-0.719 1.169-1.147 2.006-1.147v0c0.837 0 1.586 0.428 2.007 1.146l0.084 0.176 2.1 5.37c0.365 0.698 0.35 1.511-0.045 2.2-0.412 0.72-1.186 1.166-2.018 1.166h-4.261zM12.524 43.627l-1.873 4.787h3.747zM30.415 44.069c0-3.764 2.784-6.828 6.207-6.828s6.207 3.064 6.207 6.828c0 3.764-2.784 6.828-6.207 6.828s-6.207-3.064-6.207-6.828zM40.346 44.069c0-2.395-1.671-4.345-3.724-4.345s-3.724 1.949-3.724 4.345c0 2.396 1.671 4.345 3.724 4.345s3.724-1.949 3.724-4.345zM34.139 44.069c0-1.241 0.828-1.862 2.483-1.862s2.483 0.621 2.483 1.862c0 1.241-0.828 1.862-2.483 1.862s-2.483-0.621-2.483-1.862zM65.174 36c1.369 0 2.483 1.115 2.483 2.483v11.172c0 1.369-1.113 2.483-2.483 2.483h-9.931c-1.369 0-2.483-1.114-2.483-2.483v-11.172c0-1.369 1.113-2.483 2.483-2.483h9.931zM65.17 49.655l0.004-11.172h-9.931v11.172h9.927zM57.725 43.448c-0.318 0-0.636-0.12-0.878-0.364-0.485-0.485-0.485-1.27 0-1.755l1.241-1.241c0.485-0.485 1.27-0.485 1.755 0s0.485 1.27 0 1.755l-1.241 1.241c-0.242 0.242-0.56 0.364-0.878 0.364zM58.089 48.050l-1.241-1.241c-0.485-0.485-0.485-1.27 0-1.755s1.27-0.485 1.755 0l1.241 1.241c0.485 0.485 0.485 1.27 0 1.755-0.242 0.242-0.56 0.364-0.878 0.364s-0.636-0.12-0.878-0.364zM60.572 45.567c-0.485-0.484-0.485-1.27 0-1.755l1.241-1.241c0.485-0.485 1.27-0.485 1.755 0s0.485 1.27 0 1.755l-1.241 1.241c-0.242 0.242-0.56 0.364-0.878 0.364s-0.636-0.12-0.878-0.364zM17.523 28.552c-0.533 0-1.024-0.344-1.187-0.878-0.2-0.655 0.17-1.349 0.825-1.549l13.288-4.053 32.793-21.863c0.571-0.381 1.341-0.227 1.722 0.344 0.38 0.571 0.226 1.341-0.344 1.722l-25.921 17.281 29.837-9.099c0.653-0.204 1.349 0.169 1.549 0.824s-0.17 1.349-0.825 1.549l-37.733 11.507-11.596 7.73c-0.212 0.14-0.452 0.209-0.688 0.209-0.401 0-0.795-0.194-1.034-0.552-0.38-0.571-0.226-1.341 0.344-1.722l4.723-3.149-5.391 1.645c-0.12 0.037-0.242 0.054-0.362 0.054z"></path>
</svg>
