<!-- Generated by IcoMoon.io -->
<svg version="1.1" xmlns="http://www.w3.org/2000/svg" width="72" height="72" viewBox="0 0 72 72">
<title>uniF129</title>
<path d="M70.169 47.666c2.442 2.762 2.442 6.619-0.001 9.381l-1.63 1.842c-6.858 7.757-16.031 12.029-25.825 12.029-9.793 0.001-18.965-4.272-25.826-12.030l-1.629-1.841c-2.444-2.76-2.444-6.617 0-9.38l1.629-1.84c0.686-0.776 1.402-1.508 2.134-2.214-12.455-5.912-19.84-18.7-18.947-33.216l0.151-2.455c0.225-3.68 2.953-6.407 6.631-6.633l2.455-0.151c9.948-0.611 19.172 2.603 26.024 9.042 6.496 6.103 10.2 14.498 10.531 23.755 8.597 0.817 16.556 4.954 22.673 11.872zM66.401 47.716c-5.895-6.668-13.626-10.534-21.927-11.015l-0.081-0.004c-0.968-0.053-1.935-0.057-2.898-0.016-0.021 0-0.043 0-0.064 0.001-6.832 0.304-13.452 2.937-18.907 7.597l-0.205 0.175c-1.031 0.896-2.021 1.864-2.965 2.904 7.951-3.977 17.893-2.67 24.517 3.954 6.93 6.929 18.104 7.061 25.216 0.428-0.124-0.77-0.468-1.522-1.054-2.184zM11.681 3.937c-0.605 0-1.212 0.026-1.82 0.056 5.818 1.964 10.737 6.436 13.143 12.337 1.152 2.83 1.62 5.763 2.073 8.597 0.687 4.32 1.372 8.404 4.396 11.639 3.258-1.419 6.705-2.308 10.263-2.627 0.088-0.007 0.177-0.014 0.265-0.021 0.899-0.073 1.802-0.123 2.713-0.123 0.040 0 0.081 0.003 0.121 0.003 0.060 0 0.12 0 0.18 0.001-0.364-8.4-3.751-15.996-9.632-21.521-5.768-5.42-13.41-8.34-21.701-8.34zM2.92 10.571c-0.846 13.75 6.36 25.813 18.419 30.976 1.723-1.407 3.543-2.635 5.445-3.67-3.127-3.734-3.84-8.182-4.527-12.5-0.426-2.677-0.867-5.445-1.896-7.971-2.759-6.77-9.313-11.371-16.443-11.637-0.484 0.642-0.792 1.436-0.847 2.346zM42.712 68.065c8.875 0 17.207-3.857 23.493-10.855-2.975 1.503-6.232 2.268-9.493 2.268-5.382 0-10.765-2.048-14.862-6.146-6.892-6.892-18.426-7.021-25.517-0.424 0.114 0.793 0.458 1.568 1.060 2.248l1.629 1.843c6.31 7.136 14.725 11.067 23.689 11.066z"></path>
</svg>
