<!-- Generated by IcoMoon.io -->
<svg version="1.1" xmlns="http://www.w3.org/2000/svg" width="72" height="72" viewBox="0 0 72 72">
<title>uniF1D8</title>
<path d="M72 31.314c0 5.97-4.015 11.036-9.703 12.461 0.033 0.621 0.055 1.247 0.055 1.874 0 6.311-1.877 12.375-5.426 17.536-0.307 0.448-0.647 0.873-1.014 1.277-2.568 2.825-6.502 4.527-10.637 4.527h-26.078c-4.136 0-8.071-1.703-10.638-4.527-0.367-0.404-0.706-0.83-1.014-1.277-3.549-5.162-5.425-11.226-5.425-17.536 0-0.804 0.044-1.62 0.108-2.439 0.026-0.351 0.063-0.701 0.1-1.051 0.046-0.421 0.104-0.841 0.167-1.264 0.199-1.37 0.468-2.739 0.839-4.101l0.024-0.099 0.006-0.001c0.23-0.831 0.477-1.661 0.769-2.485 1.254-3.537 0.237-7.337-2.654-9.918-1.084-0.967-1.614-2.322-1.454-3.716 0.165-1.429 1.038-2.673 2.397-3.411 1.872-1.023 4.349-0.692 6.024 0.801l3.647 3.253c4.482-4.697 9.87-7.709 15.569-8.768-0.818-1-1.33-2.258-1.33-3.647 0-3.191 2.597-5.789 5.789-5.789s5.789 2.597 5.789 5.789c0 1.371-0.499 2.615-1.298 3.608 5.727 1.023 11.032 4.004 15.323 8.267 2.139-1.452 4.617-2.228 7.2-2.228 7.093 0 12.864 5.771 12.864 12.864zM59.406 40.909c-2.157-13.851-13.46-25.584-25.997-26.28v6.394h9.005v18.383c0.123-0.105 0.26-0.19 0.377-0.307l0.439-0.377c3.531-3.128 8.954-3.002 12.334 0.377 1.035 1.035 2.387 1.659 3.844 1.81zM24.405 39.77v15.984h15.436v-12.34c-0.522 0.094-1.056 0.143-1.598 0.143-2.404 0-4.666-0.938-6.368-2.64-2.021-2.021-5.054-2.384-7.471-1.147zM33.695 39.099c1.665 1.663 4.016 2.198 6.146 1.654v-17.158h-15.436v13.359c3.15-1.075 6.783-0.363 9.29 2.144zM32.123 5.587c-1.774 0-3.216 1.442-3.216 3.216s1.442 3.216 3.216 3.216 3.216-1.442 3.216-3.216-1.442-3.216-3.216-3.216zM3.195 22.37c3.685 3.29 4.976 8.154 3.365 12.696-0.17 0.48-0.3 0.963-0.446 1.446 2.151 0.141 4.164 1.038 5.713 2.587 1.216 1.216 2.831 1.886 4.549 1.886 1.716 0 3.332-0.67 4.547-1.886l0.439-0.377c0.152-0.135 0.313-0.256 0.471-0.378v-17.321h9.005v-6.385c-6.458 0.406-12.66 3.612-17.603 9.136-0.529 0.583-1.432 0.63-2.011 0.113l-4.487-4.004c-0.535-0.477-1.261-0.732-1.949-0.732-0.406 0-0.798 0.087-1.133 0.27-0.621 0.34-1.002 0.853-1.072 1.448-0.062 0.552 0.159 1.099 0.612 1.501zM54.806 61.726c3.253-4.731 4.973-10.29 4.974-16.078 0-0.669-0.028-1.362-0.080-2.070-0.001-0.021-0.004-0.042-0.005-0.063-2.243-0.094-4.362-1.007-5.952-2.597-2.507-2.507-6.589-2.507-9.096 0l-0.437 0.377c-0.551 0.489-1.156 0.897-1.796 1.232v15.802h-20.582v-16.62c-1.562 1.196-3.459 1.85-5.457 1.85-2.404 0-4.666-0.938-6.368-2.64-1.205-1.205-2.812-1.86-4.509-1.86-0.018 0-0.036 0-0.053 0.001-0.026 0.116-0.053 0.232-0.077 0.347-0.107 0.509-0.203 1.017-0.284 1.523-0.087 0.565-0.167 1.129-0.224 1.695-0.028 0.268-0.048 0.533-0.068 0.799-0.055 0.742-0.099 1.485-0.099 2.224 0 5.787 1.72 11.347 4.972 16.078 0.248 0.361 0.523 0.706 0.821 1.032 0.026 0.028 0.058 0.053 0.085 0.081 0.275 0.293 0.563 0.576 0.875 0.839 2.047 1.725 4.83 2.735 7.749 2.735h26.080c3.406 0 6.627-1.375 8.71-3.656 0.298-0.325 0.572-0.67 0.821-1.032zM62.072 41.167c4.335-1.271 7.355-5.221 7.355-9.854 0-5.674-4.617-10.291-10.291-10.291-1.713 0-3.373 0.422-4.866 1.232 4.165 5.273 6.95 12.025 7.802 18.912zM30.837 53.182c0-0.858 0.429-1.286 1.286-1.286s1.286 0.429 1.286 1.286c0 0.858-0.429 1.286-1.286 1.286s-1.286-0.429-1.286-1.286zM35.982 45.464c0-0.858 0.429-1.286 1.286-1.286s1.286 0.429 1.286 1.286c0 0.858-0.429 1.286-1.286 1.286s-1.286-0.429-1.286-1.286zM25.691 45.464c0-0.858 0.429-1.286 1.286-1.286s1.286 0.429 1.286 1.286c0 0.858-0.429 1.286-1.286 1.286s-1.286-0.429-1.286-1.286zM30.837 45.464c0-0.858 0.429-1.286 1.286-1.286s1.286 0.429 1.286 1.286c0 0.858-0.429 1.286-1.286 1.286s-1.286-0.429-1.286-1.286zM33.409 49.323c0-0.858 0.429-1.286 1.286-1.286s1.286 0.429 1.286 1.286-0.429 1.286-1.286 1.286-1.286-0.429-1.286-1.286zM28.264 49.323c0-0.858 0.429-1.286 1.286-1.286s1.286 0.429 1.286 1.286-0.429 1.286-1.286 1.286-1.286-0.429-1.286-1.286z"></path>
</svg>
