<!-- Generated by IcoMoon.io -->
<svg version="1.1" xmlns="http://www.w3.org/2000/svg" width="72" height="72" viewBox="0 0 72 72">
<title>uniF133</title>
<path d="M36.024 17.7c-2.643-2.642-2.643-6.941 0-9.584 1.621-1.621 1.621-4.261 0-5.882-0.512-0.512-0.512-1.339 0-1.851s1.339-0.512 1.851 0c2.642 2.642 2.642 6.941 0 9.584-1.622 1.622-1.622 4.26 0 5.882 0.512 0.512 0.512 1.339 0 1.851-0.255 0.255-0.59 0.384-0.926 0.384s-0.67-0.128-0.925-0.384zM24.873 14.488c0-1.213 0.473-2.355 1.333-3.214 0.751-0.751 0.751-1.973 0-2.724-0.512-0.512-0.512-1.339 0-1.851s1.339-0.512 1.851 0c1.773 1.771 1.773 4.654 0 6.426-0.365 0.364-0.566 0.847-0.566 1.363 0 0.515 0.2 0.998 0.567 1.361 0.511 0.512 0.511 1.339 0 1.851-0.257 0.255-0.592 0.384-0.927 0.384s-0.67-0.128-0.925-0.384c-0.86-0.857-1.333-1.999-1.333-3.213zM44.509 14.488c0-1.213 0.473-2.355 1.333-3.214 0.752-0.751 0.752-1.973 0-2.724-0.512-0.512-0.512-1.339 0-1.851s1.339-0.512 1.851 0c1.773 1.771 1.773 4.654 0 6.426-0.365 0.364-0.566 0.847-0.566 1.363 0 0.515 0.2 0.998 0.567 1.361 0.511 0.512 0.511 1.339 0 1.851-0.257 0.255-0.592 0.384-0.927 0.384s-0.67-0.128-0.926-0.384c-0.86-0.857-1.333-1.999-1.333-3.213zM23.565 39.273c-0.405 0-0.803-0.187-1.059-0.535-1.811-2.482-2.529-5.637-1.97-8.658 0.132-0.711 0.812-1.186 1.526-1.050 0.711 0.132 1.181 0.814 1.049 1.525-0.423 2.283 0.141 4.764 1.509 6.638 0.427 0.584 0.298 1.403-0.285 1.829-0.232 0.169-0.503 0.251-0.77 0.251zM52.798 52.519c5.215 0.949 13.965 3.22 13.965 7.784 0 5.903-15.238 11.697-30.764 11.697s-30.764-5.794-30.764-11.697c0-4.6 8.874-6.873 14.164-7.817 0.092-0.016 0.183-0.022 0.275-0.035-8.65-13.743-6.53-24.974-4.825-28.34 0.233-0.459 0.94-1.856 2.211-1.856h38.085c1.271 0 1.978 1.397 2.212 1.856 0.774 1.529 1.631 4.683 1.532 8.953 2.159 0.364 4.488 0.873 5.827 2.881 1.083 1.625 1.259 3.896 0.539 6.946-1.543 6.547-7.69 9.573-12.178 9.573-0.186 0-0.35-0.033-0.527-0.043-0.013 0.021-0.025 0.041-0.038 0.062 0.094 0.014 0.191 0.021 0.285 0.037v0zM58.714 35.688c-0.445 4.041-1.759 8.842-4.608 14.081 3.213-0.416 7.468-2.672 8.602-7.48 0.535-2.273 0.479-3.919-0.17-4.891-0.706-1.059-2.18-1.424-3.824-1.71zM17.419 24.873c-1.388 1.801-4.214 13.54 5.518 27.778l0.008 0.001 0.418 0.6c0.187 0.268 0.373 0.537 0.572 0.808 2.826 3.849 7.375 6.151 12.169 6.157h0.009c4.791-0.008 9.338-2.309 12.163-6.157 0.193-0.262 0.372-0.521 0.555-0.782l0.416-0.594 0.007-0.001c9.754-14.252 6.925-26.006 5.536-27.809h-37.371zM36 69.382c16.26 0 28.146-5.971 28.146-9.079 0-1.229-3.147-3.631-11.813-5.206v0c-0.509-0.092-1.028-0.107-1.546-0.043-0.13 0.186-0.262 0.372-0.399 0.559-0.008 0.010-0.018 0.020-0.026 0.031-0.382 0.517-0.793 1.007-1.225 1.475-0.145 0.157-0.302 0.298-0.452 0.449-0.31 0.311-0.623 0.619-0.954 0.906-0.185 0.161-0.378 0.309-0.569 0.461-0.319 0.254-0.641 0.5-0.975 0.73-0.208 0.144-0.42 0.279-0.634 0.414-0.339 0.215-0.685 0.416-1.038 0.606-0.22 0.118-0.439 0.236-0.664 0.344-0.372 0.181-0.752 0.343-1.135 0.497-0.219 0.088-0.433 0.179-0.655 0.259-0.432 0.154-0.873 0.283-1.317 0.405-0.183 0.050-0.36 0.111-0.544 0.154-0.628 0.151-1.266 0.272-1.911 0.353v0.137h-4.363v-0.143c-0.648-0.081-1.285-0.204-1.916-0.355-0.171-0.041-0.338-0.098-0.508-0.144-0.458-0.124-0.911-0.257-1.356-0.416-0.212-0.076-0.418-0.165-0.627-0.249-0.394-0.157-0.783-0.323-1.164-0.509-0.216-0.105-0.429-0.219-0.641-0.333-0.361-0.194-0.715-0.401-1.062-0.619-0.208-0.131-0.414-0.263-0.615-0.402-0.34-0.236-0.669-0.486-0.994-0.745-0.186-0.148-0.373-0.292-0.554-0.448-0.338-0.293-0.657-0.606-0.973-0.924-0.145-0.145-0.297-0.281-0.436-0.432-0.444-0.479-0.865-0.979-1.255-1.511-0.144-0.196-0.283-0.393-0.419-0.588-0.212-0.025-0.424-0.038-0.635-0.038-0.305 0-0.606 0.028-0.906 0.081-8.812 1.572-12.008 3.995-12.008 5.24 0 3.108 11.885 9.079 28.146 9.079z"></path>
</svg>
