<!-- Generated by IcoMoon.io -->
<svg version="1.1" xmlns="http://www.w3.org/2000/svg" width="72" height="72" viewBox="0 0 72 72">
<title>uniF1D2</title>
<path d="M19.44 38.88c-4.651 0-9.36-1.731-9.36-5.040s4.709-5.040 9.36-5.040 9.36 1.731 9.36 5.040c0 3.309-4.709 5.040-9.36 5.040zM19.44 31.68c-4.209 0-6.48 1.532-6.48 2.16s2.271 2.16 6.48 2.16 6.48-1.532 6.48-2.16c0-0.628-2.271-2.16-6.48-2.16zM8.64 53.28c0.795 0 1.44 0.644 1.44 1.44v8.64c0 0.796-0.645 1.44-1.44 1.44s-1.44-0.644-1.44-1.44v-8.64c0-0.796 0.645-1.44 1.44-1.44zM8.64 44.64c0.795 0 1.44 0.644 1.44 1.44v4.316c0 0.796-0.645 1.44-1.44 1.44s-1.44-0.644-1.44-1.44v-4.316c0-0.796 0.645-1.44 1.44-1.44zM44.64 53.28c0.795 0 1.44 0.644 1.44 1.44v8.64c0 0.796-0.645 1.44-1.44 1.44s-1.44-0.644-1.44-1.44v-8.64c0-0.796 0.645-1.44 1.44-1.44zM44.64 44.64c0.795 0 1.44 0.644 1.44 1.44v4.316c0 0.796-0.645 1.44-1.44 1.44s-1.44-0.644-1.44-1.44v-4.316c0-0.796 0.645-1.44 1.44-1.44zM36.72 15.84c-4.651 0-9.36-1.731-9.36-5.040s4.709-5.040 9.36-5.040 9.36 1.731 9.36 5.040-4.709 5.040-9.36 5.040zM36.72 8.64c-4.209 0-6.48 1.532-6.48 2.16s2.271 2.16 6.48 2.16 6.48-1.532 6.48-2.16-2.271-2.16-6.48-2.16zM52.56 38.88c-4.651 0-9.36-1.731-9.36-5.040s4.709-5.040 9.36-5.040 9.36 1.731 9.36 5.040c0 3.309-4.709 5.040-9.36 5.040zM52.56 31.68c-4.209 0-6.48 1.532-6.48 2.16s2.271 2.16 6.48 2.16 6.48-1.532 6.48-2.16c0-0.628-2.271-2.16-6.48-2.16zM71.98 37.315l0.020 0.412v23.842c0 4.958-4.033 8.991-8.99 8.991h-20.899c-2.274 0-4.447-0.893-6.097-2.428-1.607 1.5-3.757 2.428-6.124 2.428h-20.899c-4.958 0-8.991-4.033-8.991-8.991v-24.991l0.022-0.004c0.032-0.53 0.125-1.058 0.294-1.572 1.738-5.324 4.035-10.521 11.205-10.521h5.76v-10.943l0.022-0.004c0.032-0.53 0.125-1.058 0.294-1.572 1.738-5.324 4.035-10.521 11.205-10.521h15.84c7.17 0 9.467 5.197 11.203 10.521 0.248 0.754 0.34 1.539 0.297 2.314l0.020 0.412v9.793h1.44c6.47 0 11.998 4.13 14.083 10.521 0.248 0.754 0.34 1.539 0.297 2.314zM57.6 27.36h-17.28c-1.847 0-1.847 0-2.065 1.691-0.029 0.222-0.061 0.464-0.099 0.72-0.012 0.072-0.027 0.148-0.039 0.223-0.032 0.197-0.068 0.399-0.112 0.612-0.022 0.107-0.049 0.216-0.075 0.325-0.046 0.196-0.098 0.395-0.158 0.601-0.037 0.128-0.079 0.256-0.122 0.387-0.032 0.097-0.055 0.187-0.091 0.285 0.369 0.909 0.698 1.85 1.006 2.796 0.127 0.39 0.204 0.789 0.253 1.189 0.007 0.059 0.019 0.118 0.024 0.177 0.029 0.315 0.035 0.632 0.017 0.948l0.020 0.412v2.553c0.125 0.016 0.252 0.040 0.379 0.040h26.603c0.249 0 0.492-0.032 0.726-0.086 0.039-0.010 0.075-0.026 0.114-0.036 0.193-0.052 0.382-0.121 0.56-0.209 0.045-0.022 0.088-0.046 0.131-0.071 0.161-0.089 0.315-0.194 0.461-0.313 0.046-0.037 0.094-0.072 0.137-0.112 0.147-0.131 0.282-0.281 0.406-0.442 0.061-0.081 0.114-0.164 0.167-0.249 0.079-0.125 0.153-0.252 0.215-0.383 0.055-0.115 0.102-0.233 0.143-0.353 0.032-0.092 0.056-0.187 0.079-0.282 0.027-0.111 0.060-0.222 0.076-0.334l0.009-0.056c0.062-0.494 0.025-1.002-0.138-1.499-1.691-5.186-6.146-8.535-11.346-8.535zM20.334 12.855c-0.163 0.495-0.2 1.005-0.14 1.499l0.009 0.056c0.016 0.111 0.048 0.222 0.075 0.331 0.025 0.096 0.048 0.191 0.081 0.286 0.040 0.118 0.088 0.235 0.141 0.35 0.062 0.133 0.135 0.261 0.216 0.386 0.053 0.085 0.105 0.168 0.166 0.248 0.125 0.16 0.259 0.31 0.406 0.442 0.043 0.039 0.091 0.075 0.137 0.112 0.145 0.118 0.3 0.223 0.461 0.313 0.043 0.024 0.086 0.049 0.131 0.070 0.18 0.088 0.367 0.156 0.56 0.209 0.039 0.012 0.073 0.027 0.114 0.036 0.236 0.055 0.48 0.086 0.729 0.086h26.603c0.249 0 0.492-0.032 0.727-0.085 0.039-0.010 0.075-0.026 0.114-0.036 0.193-0.052 0.382-0.121 0.56-0.209 0.045-0.022 0.088-0.046 0.131-0.071 0.161-0.089 0.315-0.194 0.461-0.312 0.046-0.037 0.094-0.072 0.137-0.112 0.147-0.131 0.282-0.281 0.406-0.442 0.061-0.079 0.112-0.163 0.166-0.248 0.081-0.125 0.153-0.253 0.216-0.386 0.053-0.115 0.101-0.232 0.141-0.35 0.033-0.094 0.056-0.19 0.081-0.287 0.027-0.111 0.059-0.22 0.075-0.331l0.009-0.056c0.062-0.495 0.024-1.004-0.138-1.501-1.846-5.661-3.663-8.535-8.466-8.535h-15.84c-4.802 0-6.62 2.874-8.466 8.535zM20.16 19.22v5.26h7.2c0.487 0 0.946 0.029 1.387 0.072 0.097 0.012 0.186 0.029 0.281 0.042 0.347 0.045 0.685 0.099 1.006 0.171 0.078 0.019 0.151 0.042 0.228 0.060 0.33 0.082 0.648 0.177 0.95 0.287 0.052 0.020 0.101 0.040 0.151 0.059 0.318 0.121 0.622 0.258 0.913 0.408 0.029 0.014 0.059 0.030 0.088 0.046 0.3 0.16 0.586 0.334 0.858 0.523 0.017 0.012 0.033 0.022 0.049 0.033 0.275 0.194 0.537 0.402 0.786 0.622 0.010 0.009 0.020 0.016 0.029 0.025 0.248 0.222 0.484 0.455 0.707 0.701 0.006 0.004 0.010 0.010 0.016 0.016 0.223 0.246 0.435 0.502 0.637 0.77 0.012-0.075 0.029-0.143 0.040-0.216 0.020-0.128 0.043-0.255 0.069-0.379 0.029-0.144 0.066-0.282 0.104-0.42 0.030-0.115 0.063-0.232 0.101-0.343 0.045-0.134 0.102-0.259 0.158-0.384 0.046-0.102 0.092-0.206 0.147-0.304 0.069-0.121 0.154-0.23 0.238-0.341 0.065-0.086 0.127-0.177 0.203-0.258 0.099-0.105 0.222-0.197 0.341-0.289 0.089-0.069 0.168-0.144 0.269-0.206 0.143-0.088 0.315-0.157 0.484-0.229 0.111-0.049 0.209-0.105 0.333-0.145 0.206-0.068 0.452-0.112 0.695-0.16 0.124-0.023 0.226-0.058 0.36-0.076 0.397-0.053 0.835-0.084 1.329-0.084h12.96v-5.26c-0.075 0.048-0.158 0.084-0.236 0.128-0.124 0.072-0.249 0.143-0.377 0.204-0.101 0.049-0.204 0.094-0.31 0.137-0.144 0.059-0.289 0.114-0.439 0.163-0.099 0.033-0.199 0.065-0.301 0.092-0.17 0.046-0.343 0.082-0.518 0.112-0.088 0.016-0.173 0.036-0.262 0.048-0.268 0.034-0.539 0.058-0.814 0.058h-26.603c-0.275 0-0.546-0.023-0.814-0.058-0.089-0.013-0.174-0.032-0.262-0.048-0.174-0.030-0.349-0.066-0.518-0.112-0.102-0.027-0.202-0.059-0.301-0.092-0.148-0.049-0.295-0.102-0.439-0.163-0.104-0.043-0.207-0.088-0.31-0.137-0.128-0.063-0.253-0.133-0.377-0.204-0.078-0.045-0.161-0.081-0.236-0.128zM3.054 35.895c-0.163 0.495-0.2 1.005-0.14 1.499l0.009 0.056c0.016 0.111 0.048 0.222 0.075 0.331 0.025 0.096 0.048 0.192 0.081 0.287 0.040 0.118 0.088 0.235 0.141 0.35 0.062 0.132 0.135 0.261 0.216 0.386 0.053 0.085 0.105 0.168 0.166 0.248 0.125 0.16 0.259 0.31 0.406 0.442 0.043 0.039 0.091 0.075 0.137 0.112 0.145 0.118 0.3 0.223 0.461 0.313 0.043 0.024 0.086 0.049 0.131 0.071 0.18 0.088 0.367 0.155 0.56 0.209 0.039 0.012 0.073 0.027 0.114 0.036 0.236 0.055 0.48 0.086 0.729 0.086h26.603c0.249 0 0.492-0.032 0.732-0.085 0.039-0.010 0.075-0.026 0.114-0.036 0.193-0.052 0.382-0.121 0.56-0.209 0.045-0.022 0.088-0.046 0.131-0.071 0.161-0.089 0.315-0.194 0.461-0.312 0.016-0.013 0.033-0.026 0.049-0.040l0.199-0.199c0.219-0.219 0.399-0.464 0.549-0.723 0.014-0.026 0.029-0.052 0.043-0.078 0.13-0.238 0.225-0.488 0.294-0.744 0.003-0.014 0.009-0.027 0.012-0.042 0.010-0.039 0.019-0.079 0.027-0.119 0.050-0.235 0.072-0.474 0.072-0.714 0-0.053 0.009-0.107 0.006-0.16-0.014-0.3-0.063-0.599-0.16-0.893-0.207-0.634-0.415-1.22-0.625-1.784-0.088-0.236-0.177-0.445-0.265-0.664-0.122-0.307-0.246-0.603-0.373-0.886-0.122-0.272-0.248-0.527-0.374-0.775-0.114-0.223-0.23-0.436-0.35-0.644-0.133-0.23-0.266-0.455-0.406-0.662-0.14-0.206-0.287-0.395-0.435-0.58-0.13-0.161-0.255-0.333-0.389-0.478-0.288-0.308-0.59-0.59-0.92-0.829-0.055-0.040-0.117-0.066-0.173-0.105-0.301-0.203-0.616-0.382-0.956-0.528-0.102-0.045-0.212-0.081-0.317-0.12-0.318-0.118-0.657-0.213-1.014-0.286-0.117-0.025-0.232-0.052-0.353-0.071-0.474-0.075-0.972-0.122-1.519-0.122h-15.84c-4.802 0-6.62 2.874-8.466 8.535zM29.889 67.68c2.029 0 3.817-1.005 4.929-2.532l0.014-0.020c0.144-0.2 0.262-0.41 0.38-0.621 0.059-0.104 0.12-0.206 0.171-0.314 0.086-0.179 0.158-0.361 0.228-0.546 0.066-0.183 0.124-0.367 0.173-0.557 0.037-0.144 0.078-0.288 0.105-0.435 0.063-0.353 0.109-0.711 0.109-1.083v-19.315c-0.075 0.048-0.158 0.084-0.236 0.128-0.124 0.072-0.249 0.143-0.377 0.204-0.101 0.049-0.204 0.094-0.31 0.137-0.144 0.059-0.289 0.114-0.439 0.163-0.099 0.033-0.199 0.065-0.301 0.092-0.17 0.046-0.343 0.082-0.518 0.112-0.088 0.016-0.173 0.036-0.262 0.048-0.268 0.035-0.538 0.058-0.814 0.058h-26.603c-0.275 0-0.546-0.023-0.815-0.056-0.089-0.013-0.174-0.032-0.262-0.048-0.174-0.030-0.348-0.066-0.518-0.112-0.102-0.027-0.202-0.059-0.301-0.092-0.148-0.049-0.295-0.102-0.439-0.163-0.104-0.043-0.207-0.088-0.31-0.137-0.128-0.063-0.253-0.133-0.377-0.204-0.078-0.045-0.161-0.081-0.236-0.128v19.31c0 3.37 2.742 6.11 6.111 6.11h20.897zM69.12 61.569h-0.001v-19.31c-0.075 0.048-0.158 0.084-0.236 0.128-0.124 0.072-0.249 0.143-0.377 0.204-0.101 0.049-0.204 0.094-0.31 0.137-0.144 0.059-0.289 0.114-0.439 0.163-0.099 0.033-0.199 0.065-0.301 0.092-0.17 0.046-0.343 0.082-0.518 0.112-0.088 0.016-0.173 0.036-0.262 0.048-0.268 0.035-0.539 0.058-0.814 0.058h-26.603c-0.127 0-0.253-0.004-0.379-0.013v18.383c0 0.354-0.026 0.701-0.065 1.047-0.010 0.081-0.026 0.16-0.037 0.24-0.040 0.279-0.092 0.556-0.158 0.827-0.016 0.063-0.032 0.128-0.049 0.191-0.186 0.697-0.445 1.367-0.783 1.987 1.142 1.165 2.674 1.817 4.324 1.817h20.897c3.37 0 6.111-2.742 6.111-6.111z"></path>
</svg>
