<!-- Generated by IcoMoon.io -->
<svg version="1.1" xmlns="http://www.w3.org/2000/svg" width="72" height="72" viewBox="0 0 72 72">
<title>uniF13F</title>
<path d="M53.13 7.16c11.12 0 18.87 19.809 18.872 37.587 0 0.224-0.012 0.45-0.023 0.678-0.010 0.183-0.021 0.368-0.021 0.554 0 7.842-3.742 14.069-10.265 17.081-2.592 1.196-5.406 1.779-8.207 1.779-4.308 0-8.574-1.394-11.97-4.037-6.473 2.311-14.115 3.621-21.416 3.621-0.224 0-0.45-0.012-0.678-0.023-0.183-0.010-0.368-0.021-0.554-0.021-12.963 0-18.866-9.589-18.866-18.499 0-5.001 1.787-9.679 5.030-13.167 3.669-3.945 8.879-6.031 15.069-6.031 5.407 0 11.001 0.721 16.17 2.032 3.311-13.132 9.846-21.552 16.861-21.552zM19.557 61.801c0.182 0.009 0.363 0.018 0.543 0.021 7.736 0 15.286-1.465 21.383-3.799 0.289-0.109 0.569-0.222 0.849-0.336 0.246-0.1 0.496-0.198 0.737-0.301 0.044-0.018 0.087-0.038 0.131-0.057 4.594-1.974 8.2-4.456 10.185-7.154 0.005-0.009 0.012-0.017 0.018-0.025 0.157-0.215 0.299-0.431 0.436-0.648 0.039-0.063 0.077-0.125 0.115-0.187 0.108-0.182 0.208-0.364 0.302-0.548 0.051-0.103 0.099-0.204 0.146-0.307 0.072-0.155 0.141-0.311 0.202-0.467 0.052-0.137 0.095-0.272 0.139-0.407 0.042-0.13 0.087-0.26 0.121-0.392 0.044-0.173 0.076-0.345 0.107-0.517 0.018-0.1 0.043-0.199 0.056-0.299 0.036-0.276 0.057-0.55 0.057-0.825 0-0.307-0.030-0.614-0.076-0.921-0.014-0.092-0.034-0.183-0.052-0.276-0.042-0.221-0.095-0.441-0.16-0.661-0.030-0.099-0.059-0.199-0.092-0.298-0.081-0.237-0.177-0.472-0.284-0.708-0.033-0.072-0.057-0.143-0.092-0.215-0.138-0.283-0.298-0.563-0.471-0.843-0.085-0.137-0.181-0.273-0.274-0.409-0.099-0.144-0.202-0.289-0.31-0.432-0.128-0.168-0.258-0.334-0.397-0.5-0.072-0.086-0.15-0.17-0.224-0.255-2.087-2.362-5.403-4.526-9.512-6.284-0.022-0.009-0.043-0.018-0.064-0.027-0.32-0.137-0.648-0.267-0.976-0.398-0.269-0.107-0.541-0.212-0.817-0.316-0.212-0.081-0.424-0.161-0.64-0.239-1.202-0.432-2.462-0.837-3.782-1.204l-0.819-0.228c-4.904-1.295-10.375-2.054-15.942-2.054-5.448 0-9.999 1.799-13.162 5.201-2.794 3.005-4.334 7.052-4.334 11.395 0 7.656 5.090 15.897 16.264 15.897 0.23 0 0.462 0.012 0.691 0.025zM69.379 45.287c0.008-0.181 0.018-0.362 0.016-0.541 0-17.983-7.906-34.983-16.267-34.983-5.704 0-11.402 7.841-14.364 19.641 9.994 2.995 17.884 8.267 18.816 14.844 0.006 0.043 0.017 0.086 0.022 0.129 0.049 0.388 0.082 0.778 0.082 1.175 0 5.855-5.493 10.773-13.286 14.12 4.741 2.98 10.985 3.432 16.203 1.025 5.565-2.569 8.754-7.933 8.754-14.719 0-0.23 0.012-0.462 0.025-0.691zM11.386 34.082c0.587-0.413 1.398-0.273 1.813 0.314 0.415 0.588 0.273 1.4-0.314 1.814-2.773 1.956-4.464 5.148-4.638 8.756-0.034 0.696-0.609 1.239-1.299 1.239-0.022 0-0.043 0-0.064-0.001-0.718-0.034-1.272-0.644-1.238-1.363 0.213-4.416 2.305-8.337 5.739-10.759zM20.399 31.439c0.72 0 1.301 0.582 1.301 1.301s-0.582 1.301-1.301 1.301c-1.428 0-2.776 0.174-4.007 0.522-0.116 0.033-0.236 0.048-0.353 0.048-0.569 0-1.091-0.375-1.252-0.949-0.195-0.691 0.208-1.411 0.9-1.605 1.46-0.411 3.045-0.619 4.711-0.619zM58.818 20.889c-0.397-0.6-0.233-1.407 0.364-1.802 0.6-0.401 1.405-0.234 1.804 0.364 1.339 2.020 2.401 4.329 3.152 6.861 0.204 0.688-0.19 1.413-0.878 1.618-0.124 0.037-0.247 0.053-0.37 0.053-0.562 0-1.080-0.366-1.248-0.932-0.678-2.284-1.628-4.357-2.824-6.162zM52.915 12.441c0.082 0.030 2.008 0.728 4.319 2.72 0.544 0.469 0.605 1.29 0.135 1.835-0.256 0.299-0.621 0.452-0.985 0.452-0.301 0-0.604-0.104-0.85-0.316-1.913-1.649-3.48-2.233-3.496-2.24-0.674-0.245-1.024-0.989-0.781-1.665 0.242-0.673 0.983-1.024 1.657-0.786z"></path>
</svg>
