<!-- Generated by IcoMoon.io -->
<svg version="1.1" xmlns="http://www.w3.org/2000/svg" width="72" height="72" viewBox="0 0 72 72">
<title>uniF115</title>
<path d="M70.759 62.69c0.686 0 1.241 0.555 1.241 1.241s-0.555 1.241-1.241 1.241h-69.517c-0.686 0-1.241-0.555-1.241-1.241s0.555-1.241 1.241-1.241h2.483v-13.655c0-2.053 1.671-3.724 3.724-3.724h1.241v-13.655c0-2.053 1.671-3.724 3.724-3.724h1.241v-13.655c0-2.053 1.671-3.724 3.724-3.724h37.241c2.053 0 3.724 1.671 3.724 3.724v13.655h1.241c2.053 0 3.724 1.671 3.724 3.724v13.655h1.241c2.053 0 3.724 1.671 3.724 3.724v13.655h2.483zM22.966 15.653c-1.376 2.163-3.781 3.589-6.517 3.589-0.101 0-0.207-0.016-0.31-0.021v2.524c0.103-0.005 0.21-0.021 0.31-0.021 2.736 0 5.142 1.426 6.517 3.589 1.376-2.162 3.781-3.589 6.517-3.589s5.142 1.426 6.517 3.589c1.376-2.162 3.781-3.589 6.517-3.589s5.142 1.426 6.517 3.589c1.376-2.162 3.781-3.589 6.517-3.589 0.101 0 0.207 0.016 0.31 0.021v-2.524c-0.103 0.005-0.21 0.021-0.31 0.021-2.736 0-5.142-1.426-6.517-3.589-1.376 2.163-3.781 3.589-6.517 3.589s-5.142-1.426-6.517-3.589c-1.376 2.163-3.781 3.589-6.517 3.589s-5.142-1.426-6.517-3.589zM16.138 26.69c0 0.685 0.556 1.241 1.241 1.241h4.090c-0.662-2.167-2.665-3.724-5.021-3.724-0.102 0-0.205 0.004-0.31 0.013v2.47zM29.483 24.207c-2.356 0-4.36 1.557-5.021 3.724h10.043c-0.662-2.167-2.665-3.724-5.021-3.724zM42.517 24.207c-2.356 0-4.36 1.557-5.021 3.724h10.043c-0.662-2.167-2.665-3.724-5.021-3.724zM55.552 24.207c-2.356 0-4.36 1.557-5.021 3.724h4.090c0.685 0 1.241-0.556 1.241-1.241v-2.47c-0.105-0.009-0.208-0.013-0.31-0.013zM54.621 13.034h-4.090c0.66 2.167 2.665 3.724 5.021 3.724 0.102 0 0.205-0.004 0.31-0.013v-2.47c0-0.685-0.556-1.241-1.241-1.241zM47.539 13.034h-10.043c0.66 2.167 2.664 3.724 5.021 3.724s4.361-1.557 5.021-3.724zM34.504 13.034h-10.043c0.66 2.167 2.664 3.724 5.021 3.724s4.361-1.557 5.021-3.724zM16.138 14.276v2.47c0.105 0.009 0.208 0.013 0.31 0.013 2.357 0 4.361-1.557 5.021-3.724h-4.090c-0.685 0-1.241 0.556-1.241 1.241zM11.172 31.655v13.655h49.655v-13.655c0-0.685-0.556-1.241-1.241-1.241h-47.173c-0.685 0-1.241 0.556-1.241 1.241zM6.207 49.034v2.172c0 3.594 2.923 6.517 6.517 6.517s6.517-2.923 6.517-6.517c0-0.687 0.555-1.241 1.241-1.241s1.241 0.555 1.241 1.241c0 3.594 2.923 6.517 6.517 6.517s6.517-2.923 6.517-6.517c0-0.687 0.555-1.241 1.241-1.241s1.241 0.555 1.241 1.241c0 3.594 2.923 6.517 6.517 6.517s6.517-2.923 6.517-6.517c0-0.687 0.555-1.241 1.241-1.241s1.241 0.555 1.241 1.241c0 3.594 2.923 6.517 6.517 6.517s6.517-2.923 6.517-6.517v-2.172c0-0.685-0.556-1.241-1.241-1.241h-57.103c-0.685 0-1.241 0.556-1.241 1.241zM6.207 62.69h59.586v-5.293c-1.641 1.727-3.953 2.81-6.517 2.81-3.307 0-6.195-1.796-7.759-4.46-1.564 2.663-4.452 4.46-7.759 4.46s-6.195-1.796-7.759-4.46c-1.564 2.663-4.452 4.46-7.759 4.46s-6.194-1.796-7.759-4.46c-1.564 2.663-4.452 4.46-7.759 4.46-2.565 0-4.876-1.084-6.517-2.81v5.293zM65.793 66.414c0.687 0 1.241 0.555 1.241 1.241s-0.555 1.241-1.241 1.241h-59.586c-0.687 0-1.241-0.555-1.241-1.241s0.555-1.241 1.241-1.241h59.586zM13.655 32.897c0.687 0 1.241 0.555 1.241 1.241v7.448c0 0.686-0.555 1.241-1.241 1.241s-1.241-0.555-1.241-1.241v-7.448c0-0.687 0.555-1.241 1.241-1.241zM18.621 32.897c0.687 0 1.241 0.555 1.241 1.241v7.448c0 0.686-0.555 1.241-1.241 1.241s-1.241-0.555-1.241-1.241v-7.448c0-0.687 0.555-1.241 1.241-1.241zM23.586 32.897c0.686 0 1.241 0.555 1.241 1.241v7.448c0 0.686-0.555 1.241-1.241 1.241s-1.241-0.555-1.241-1.241v-7.448c0-0.687 0.555-1.241 1.241-1.241zM28.552 32.897c0.687 0 1.241 0.555 1.241 1.241v7.448c0 0.686-0.555 1.241-1.241 1.241s-1.241-0.555-1.241-1.241v-7.448c0-0.687 0.555-1.241 1.241-1.241zM33.517 32.897c0.687 0 1.241 0.555 1.241 1.241v7.448c0 0.686-0.555 1.241-1.241 1.241s-1.241-0.555-1.241-1.241v-7.448c0-0.687 0.555-1.241 1.241-1.241zM38.483 32.897c0.687 0 1.241 0.555 1.241 1.241v7.448c0 0.686-0.555 1.241-1.241 1.241s-1.241-0.555-1.241-1.241v-7.448c0-0.687 0.555-1.241 1.241-1.241zM43.448 32.897c0.687 0 1.241 0.555 1.241 1.241v7.448c0 0.686-0.555 1.241-1.241 1.241s-1.241-0.555-1.241-1.241v-7.448c0-0.687 0.555-1.241 1.241-1.241zM48.414 32.897c0.687 0 1.241 0.555 1.241 1.241v7.448c0 0.686-0.555 1.241-1.241 1.241s-1.241-0.555-1.241-1.241v-7.448c0-0.687 0.555-1.241 1.241-1.241zM53.379 32.897c0.687 0 1.241 0.555 1.241 1.241v7.448c0 0.686-0.555 1.241-1.241 1.241s-1.241-0.555-1.241-1.241v-7.448c0-0.687 0.555-1.241 1.241-1.241zM58.345 32.897c0.687 0 1.241 0.555 1.241 1.241v7.448c0 0.686-0.555 1.241-1.241 1.241s-1.241-0.555-1.241-1.241v-7.448c0-0.687 0.555-1.241 1.241-1.241zM20.226 8.947c-0.485-0.485-0.485-1.27 0-1.755l0.984-0.985-0.984-0.984c-0.485-0.485-0.485-1.27 0-1.755s1.27-0.485 1.755 0l0.984 0.984 0.984-0.984c0.485-0.485 1.27-0.485 1.755 0s0.485 1.27 0 1.755l-0.984 0.984 0.984 0.985c0.485 0.485 0.485 1.27 0 1.755-0.242 0.242-0.56 0.364-0.878 0.364s-0.636-0.122-0.878-0.364l-0.984-0.984-0.984 0.984c-0.242 0.242-0.56 0.364-0.878 0.364s-0.636-0.122-0.878-0.364zM28.915 8.947c-0.485-0.485-0.485-1.27 0-1.755l0.984-0.985-0.984-0.984c-0.485-0.485-0.485-1.27 0-1.755s1.27-0.485 1.755 0l0.984 0.984 0.984-0.984c0.485-0.485 1.27-0.485 1.755 0s0.485 1.27 0 1.755l-0.984 0.984 0.984 0.985c0.485 0.485 0.485 1.27 0 1.755-0.242 0.242-0.56 0.364-0.878 0.364s-0.636-0.122-0.878-0.364l-0.984-0.984-0.984 0.984c-0.242 0.242-0.56 0.364-0.878 0.364s-0.636-0.122-0.878-0.364zM37.605 8.947c-0.485-0.485-0.485-1.27 0-1.755l0.984-0.985-0.984-0.984c-0.485-0.485-0.485-1.27 0-1.755s1.27-0.485 1.755 0l0.984 0.984 0.984-0.984c0.485-0.485 1.27-0.485 1.755 0s0.485 1.27 0 1.755l-0.984 0.984 0.984 0.985c0.485 0.485 0.485 1.27 0 1.755-0.242 0.242-0.56 0.364-0.878 0.364s-0.636-0.122-0.878-0.364l-0.984-0.984-0.984 0.984c-0.242 0.242-0.56 0.364-0.878 0.364s-0.636-0.122-0.878-0.364zM46.295 8.947c-0.485-0.485-0.485-1.27 0-1.755l0.984-0.985-0.984-0.984c-0.485-0.485-0.485-1.27 0-1.755s1.27-0.485 1.755 0l0.984 0.984 0.984-0.984c0.485-0.485 1.27-0.485 1.755 0s0.485 1.27 0 1.755l-0.984 0.984 0.984 0.985c0.485 0.485 0.485 1.27 0 1.755-0.242 0.242-0.56 0.364-0.878 0.364s-0.636-0.122-0.878-0.364l-0.984-0.984-0.984 0.984c-0.242 0.242-0.56 0.364-0.878 0.364s-0.636-0.122-0.878-0.364z"></path>
</svg>
