<!-- Generated by IcoMoon.io -->
<svg version="1.1" xmlns="http://www.w3.org/2000/svg" width="72" height="72" viewBox="0 0 72 72">
<title>uniF1A2</title>
<path d="M60.667 26.975c3.676 0 6.667 2.992 6.667 6.667v18.667c0 3.676-2.991 6.667-6.667 6.667h-6.667v5.025c0 4.412-3.588 8-8 8h-26.667c-4.412 0-8-3.588-8-8v-34.912c-0.419 0.149-0.864 0.245-1.333 0.245h-1.333c-2.205 0-4-1.795-4-4v-10.667c0-4.412 3.588-8 8-8 0.187 0 0.373 0.008 0.564 0.024 1.388-3.943 5.172-6.691 9.436-6.691 2.755 0 5.336 1.116 7.22 3.091 0.899-0.283 1.829-0.424 2.78-0.424 3.011 0 5.78 1.431 7.523 3.815 1.367-0.755 2.892-1.148 4.477-1.148 5.145 0 9.333 4.188 9.333 9.333 0 0.655-0.096 1.305-0.237 1.952 0.137 0.209 0.237 0.445 0.237 0.715v9.641h6.667zM43.333 61.333v-26.667c0-1.471-1.196-2.667-2.667-2.667s-2.667 1.196-2.667 2.667v26.667h5.333zM40.667 29.333c1.601 0 3.021 0.723 4 1.843 0.979-1.12 2.399-1.843 4-1.843 0.976 0 1.879 0.283 2.667 0.741v-11.408h-13.339c-0.649 4.517-4.544 8-9.239 8-2.492 0-4.871-1.015-6.613-2.769-1.163 0.925-2.593 1.436-4.096 1.436h-2.624c-0.477 0-0.953-0.055-1.423-0.161v4.903c0.788-0.459 1.691-0.741 2.667-0.741 1.601 0 3.021 0.723 4 1.843 0.979-1.12 2.399-1.843 4-1.843s3.021 0.723 4 1.843c0.979-1.12 2.399-1.843 4-1.843s3.021 0.723 4 1.843c0.979-1.12 2.399-1.843 4-1.843zM35.333 61.333v-26.667c0-1.471-1.196-2.667-2.667-2.667s-2.667 1.196-2.667 2.667v26.667h5.333zM27.333 61.333v-26.667c0-1.471-1.196-2.667-2.667-2.667s-2.667 1.196-2.667 2.667v26.667h5.333zM19.333 61.333v-26.667c0-1.471-1.196-2.667-2.667-2.667s-2.667 1.196-2.667 2.667v26.667h5.333zM46 34.667v26.667h5.333v-26.667c0-1.471-1.196-2.667-2.667-2.667s-2.667 1.196-2.667 2.667zM54 34.975v16h4c0.736 0 1.333-0.597 1.333-1.333v-13.333c0-0.736-0.597-1.333-1.333-1.333h-4zM10 26.667c0.736 0 1.333-0.597 1.333-1.333v-2.128c0-0.481 0.26-0.927 0.68-1.163 0.423-0.233 0.936-0.225 1.348 0.025 0.649 0.397 1.344 0.599 2.061 0.599h2.624c1.213 0 2.356-0.568 3.132-1.557 0.259-0.332 0.641-0.52 1.081-0.511 0.421 0.011 0.812 0.219 1.056 0.563 1.257 1.777 3.292 2.839 5.44 2.839 3.676 0 6.667-2.991 6.667-6.667 0-0.737 0.596-1.333 1.333-1.333h14.439c0.092-0.441 0.139-0.888 0.139-1.333 0-3.676-2.991-6.667-6.667-6.667-1.483 0-2.892 0.483-4.075 1.399-0.312 0.243-0.716 0.332-1.105 0.248-0.387-0.087-0.715-0.34-0.896-0.692-1.151-2.233-3.42-3.621-5.924-3.621-0.916 0-1.808 0.185-2.651 0.551-0.557 0.245-1.207 0.076-1.581-0.4-1.404-1.789-3.507-2.817-5.768-2.817-3.441 0-6.457 2.44-7.171 5.801-0.075 0.351-0.287 0.656-0.591 0.849-0.301 0.193-0.665 0.255-1.020 0.172-0.445-0.105-0.844-0.156-1.219-0.156-2.941 0-5.333 2.392-5.333 5.333v10.667c0 0.736 0.597 1.333 1.333 1.333h1.333zM46 69.333c2.941 0 5.333-2.392 5.333-5.333h-37.333c0 2.941 2.392 5.333 5.333 5.333h26.667zM64.667 52.308v-18.667c0-2.205-1.795-4-4-4h-6.667v2.667h4c2.205 0 4 1.795 4 4v13.333c0 2.205-1.795 4-4 4h-4v2.667h6.667c2.205 0 4-1.795 4-4z"></path>
</svg>
