<!-- Generated by IcoMoon.io -->
<svg version="1.1" xmlns="http://www.w3.org/2000/svg" width="72" height="72" viewBox="0 0 72 72">
<title>uniF12F</title>
<path d="M31.711 40.188c0.593-8.826-3.667-9.662-3.848-9.695-0.657-0.114-1.112-0.734-1.010-1.391s0.699-1.108 1.361-1.025c0.273 0.039 6.687 1.047 5.933 12.275-0.044 0.646-0.581 1.139-1.217 1.139-0.028 0-0.055-0.001-0.083-0.002-0.674-0.045-1.181-0.626-1.136-1.3zM35.524 64.687c0.669 0.087 1.141 0.698 1.054 1.368-0.079 0.615-0.604 1.064-1.208 1.064-0.052 0-0.105-0.004-0.157-0.010-6.058-0.78-7.335-5.975-7.164-8.612 0.044-0.674 0.635-1.163 1.297-1.14 0.671 0.045 1.181 0.621 1.14 1.292-0.031 0.548-0.15 5.369 5.039 6.037zM42.942 35.345c1.363-1.347 3.418-1.732 6.11-1.148 0.658 0.144 1.076 0.793 0.932 1.452-0.144 0.658-0.791 1.079-1.452 0.934-1.827-0.402-3.131-0.233-3.87 0.493-1.104 1.086-0.935 3.38-0.776 4.172 0.133 0.66-0.294 1.305-0.953 1.437-0.083 0.017-0.165 0.026-0.245 0.026-0.566 0-1.074-0.397-1.194-0.974-0.034-0.167-0.822-4.148 1.447-6.392zM62.983 34.412c0.47 0.349 0.624 0.984 0.371 1.512-0.256 0.526-0.854 0.799-1.414 0.646-3.117-0.833-5.65-0.41-7.745 1.301-7.324 5.983-6.829 25.386-6.659 29.161 0.29 0.29 0.487 0.672 0.519 1.106 0.059 0.802-0.437 1.536-1.206 1.785-2.278 0.738-6.409 2.078-10.602 2.078-2.723 0-5.471-0.565-7.755-2.225-3.532-2.568-5.322-7.295-5.322-14.052v-15.202c0-3.832-1.295-7.415-3.645-10.089-2.56-2.912-5.85-4.388-9.778-4.388-0.582 0-1.082-0.411-1.196-0.982-0.114-0.57 0.192-1.141 0.729-1.365 0.436-0.181 7.86-3.212 15.212-2.929 0.777-8.335 2.010-12.403 2.065-12.578 3.103-8.164 9.455-8.194 9.721-8.189 0.247-0.016 6.598 0.032 9.665 8.091 0.010 0.024 0.028 0.076 0.035 0.101 0.077 0.25 1.887 6.274 2.489 18.595l0.001 2.017c7.667 0.575 14.153 5.336 14.515 5.607zM28.128 12.204c-0.136 0.702-0.279 1.508-0.426 2.441h2.79v-2.441h-2.364zM28.871 8.96c0 0-0.082 0.271-0.212 0.804h1.834v-2.441h-0.869c-0.266 0.498-0.522 1.031-0.753 1.637zM33.054 23.238c0.325 0.216 0.614 0.466 0.91 0.709 0.027 0.021 0.055 0.040 0.081 0.062 0.161 0.133 0.332 0.256 0.484 0.398h0.842v-2.441h-2.441v1.196c0.040 0.027 0.083 0.049 0.123 0.076zM42.694 17.085v2.441h2.775c-0.092-0.875-0.189-1.686-0.288-2.45-0.017 0.001-0.031 0.010-0.046 0.010h-2.441zM40.254 19.526v-2.441h-2.441v2.441h2.441zM44.834 14.645c-0.146-0.931-0.29-1.74-0.426-2.441h-1.713v2.441h2.139zM40.254 14.645v-2.441h-2.441v2.441h2.441zM37.813 9.764h2.441v-2.441h-2.441v2.441zM35.373 9.764v-2.441h-2.441v2.441h2.441zM35.373 12.204h-2.441v2.441h2.441v-2.441zM35.373 17.085h-2.441v2.441h2.441v-2.441zM38.592 29.986c0.539-0.244 1.094-0.45 1.662-0.624v-2.516h-2.441v2.44c0 0.042-0.019 0.076-0.023 0.115 0.104 0.277 0.212 0.55 0.303 0.839 0.161-0.093 0.328-0.177 0.499-0.255zM37.813 24.407h2.441v-2.441h-2.441v2.441zM42.694 21.967v2.441h3.191c-0.056-0.852-0.12-1.661-0.186-2.441h-3.006zM42.694 9.764v0.001h1.18c-0.112-0.449-0.192-0.725-0.221-0.822-0.236-0.615-0.497-1.153-0.769-1.657-0.065 0.010-0.123 0.038-0.19 0.038v2.441zM40.254 4.883v-0.833c-0.887-0.697-1.745-1.087-2.441-1.311v2.144h2.441zM35.373 4.883v-2.325c-0.621 0.133-1.503 0.423-2.455 1.034 0.002 0.024 0.015 0.045 0.015 0.071v1.22h2.441zM30.492 17.085h-3.139c-0.099 0.761-0.195 1.57-0.288 2.441h3.427v-2.441zM45.792 28.789c0.079-0.005 0.157-0.010 0.237-0.015v-1.927h-3.334v2.026c1.003-0.122 2.033-0.164 3.097-0.084zM29.925 67.8c3.926 2.854 9.969 1.645 13.903 0.502-0.167-0.065-0.316-0.143-0.476-0.214-0.184-0.079-0.371-0.156-0.545-0.244-0.184-0.094-0.354-0.199-0.528-0.301-0.458-0.266-0.881-0.554-1.268-0.866-0.057-0.045-0.118-0.088-0.173-0.134-0.223-0.189-0.431-0.387-0.632-0.589-0.076-0.077-0.151-0.152-0.225-0.231-0.178-0.192-0.351-0.384-0.511-0.585-0.105-0.129-0.201-0.262-0.299-0.395-0.112-0.154-0.231-0.306-0.333-0.464-1.839-2.774-2.343-6.127-2.249-8.386v-0.022c0.001-0.001 0.001-0.004 0.001-0.005 0.004-0.071 0.002-0.149 0.007-0.217l-0.002-7.619v-11.001c0-1.623-0.152-3.090-0.425-4.432-0.126-0.627-0.286-1.215-0.469-1.778-0.040-0.121-0.082-0.242-0.124-0.36-0.165-0.464-0.354-0.898-0.56-1.317-0.070-0.139-0.133-0.282-0.206-0.416-0.227-0.416-0.481-0.803-0.751-1.171-0.063-0.087-0.117-0.183-0.183-0.267-0.338-0.43-0.71-0.823-1.112-1.184-0.111-0.1-0.238-0.183-0.354-0.278-0.324-0.264-0.658-0.517-1.020-0.741-0.092-0.057-0.184-0.111-0.277-0.165-0.465-0.266-0.953-0.508-1.479-0.711-0.041-0.016-0.084-0.029-0.127-0.045-1.173-0.439-2.488-0.732-3.962-0.869-0.027-0.002-0.051-0.015-0.077-0.018-3.683-0.327-7.597 0.382-10.54 1.154 2.44 0.836 4.591 2.303 6.427 4.392 2.742 3.122 4.253 7.275 4.253 11.7v15.202c0 5.932 1.452 9.994 4.316 12.076zM52.649 35.979c1.373-1.12 2.905-1.827 4.59-2.114-2.749-1.334-6.532-2.692-10.464-2.658-0.098 0-0.197 0.006-0.294 0.009-1.73 0.045-3.484 0.361-5.189 1.080-1.442 0.61-2.327 1.938-2.253 3.386 0.023 0.436 0.034 0.883 0.034 1.345v18.694c0 0.106-0.015 0.212-0.041 0.315l-0.006 0.023v0.002c-0.001 0.084-0.001 0.188 0 0.295 0.001 0.084 0.004 0.181 0.007 0.279 0.001 0.056 0.002 0.109 0.005 0.168 0.070 1.541 0.453 4.407 2.206 6.66 0.037 0.046 0.076 0.090 0.112 0.135 0.176 0.216 0.366 0.425 0.569 0.626 0.066 0.067 0.134 0.132 0.204 0.196 0.192 0.178 0.398 0.345 0.614 0.508 0.087 0.065 0.17 0.132 0.26 0.194 0.239 0.166 0.499 0.316 0.769 0.46 0.078 0.041 0.148 0.090 0.228 0.129 0.327 0.161 0.682 0.301 1.054 0.427-0.197-5.882-0.128-23.853 7.595-30.162z"></path>
</svg>
