<!-- Generated by IcoMoon.io -->
<svg version="1.1" xmlns="http://www.w3.org/2000/svg" width="72" height="72" viewBox="0 0 72 72">
<title>uniF1D3</title>
<path d="M70.505 46.729c0.722-0.109 1.368 0.373 1.48 1.078 0.11 0.707-0.373 1.369-1.078 1.48l-15.859 2.486-41.009 19.682c-0.181 0.088-0.37 0.128-0.559 0.128-0.483 0-0.945-0.27-1.167-0.734-0.309-0.644-0.037-1.417 0.607-1.726l33.248-15.958-36.48 5.719c-0.067 0.010-0.135 0.016-0.202 0.016-0.626 0-1.176-0.456-1.276-1.093-0.11-0.706 0.371-1.369 1.078-1.48l44.988-7.053 14.508-6.964c0.646-0.313 1.418-0.036 1.726 0.607 0.309 0.644 0.037 1.417-0.607 1.726l-6.747 3.239zM49.555 36.938c-0.053 5.759-12.506 8.766-24.778 8.766s-24.722-3.008-24.776-8.755v-27.734s-0.001-0.005-0.001-0.014c0 0 0.001-0.004 0.001-0.008v-0.009c0.001-0.047 0.018-0.088 0.019-0.133 0.213-5.31 11.053-8.25 22.454-8.598 0.766-0.023 1.535-0.035 2.302-0.035s1.536 0.012 2.302 0.035c9.892 0.303 19.36 2.556 21.839 6.612 0.017 0.028 0.044 0.056 0.061 0.084 0.145 0.248 0.243 0.508 0.334 0.771 0.026 0.072 0.070 0.14 0.091 0.214 0.067 0.236 0.084 0.481 0.106 0.727 0.009 0.105 0.044 0.203 0.045 0.311v0.021c0 0.005 0.001 0.014 0.001 0.014 0 0.005-0.001 0.014-0.001 0.014v17.122c-0.001 0.001 0 0.004 0 0.004v5.312s0.001 0.001 0.001 0.003v5.278zM21.658 15.336c1.010 0.041 2.043 0.071 3.122 0.074 13.731 0 22.168-3.604 22.189-6.192v-0.019c0-0.030-0.016-0.062-0.018-0.093-0.010-0.135-0.030-0.269-0.085-0.408-0.001-0.004-0.005-0.008-0.006-0.012-0.959-2.356-8.184-5.261-19.571-5.639-0.815-0.027-1.651-0.041-2.508-0.041-13.692 0-22.139 3.596-22.187 6.184 0 0-0.003 0.004-0.003 0.008v0.019c0.014 1.828 4.245 4.158 11.564 5.371-1.57-1.339-1.997-2.513-2.064-2.735-0.335-0.992-0.176-2.042 0.473-2.999 1.535-2.262 5.862-3.843 11.292-4.129 5.344-0.283 11.316 1.078 12.378 4.218 0.268 0.791 0.142 1.625-0.351 2.354-1.078 1.589-3.914 2.655-7.588 2.848-3.486 0.171-7.597-0.682-8.387-3.016-0.22-0.647-0.12-1.329 0.281-1.918 0.646-0.952 2.12-1.638 4.047-1.914-0.082 0.004-0.162 0.008-0.243 0.013-5.167 0.27-8.435 1.743-9.287 2.997-0.239 0.352-0.211 0.58-0.151 0.756 0.010 0.032 1.059 2.686 7.103 4.274zM25.98 7.285c0.44 0.188 0.759 0.612 0.787 1.123 0.039 0.714-0.51 1.324-1.224 1.361-1.607 0.084-2.588 0.467-3.001 0.723 0.605 0.472 2.58 1.225 5.618 1.066 3.717-0.195 5.53-1.365 5.626-1.798-0.355-1.031-3.455-2.343-7.806-2.475zM2.589 36.938c0.025 2.572 8.475 6.176 22.187 6.176s22.164-3.606 22.189-6.192v-0.901c-3.659 2.706-10.276 3.478-13.672 3.869l-0.312 0.035c-0.051 0.006-0.101 0.009-0.151 0.009-0.648 0-1.207-0.485-1.284-1.145-0.083-0.709 0.426-1.352 1.136-1.434l0.316-0.036c9.119-1.048 13.815-2.987 13.967-5.761v-0.98c-2.803 2.026-7.179 2.884-9.511 3.334l-0.202 0.039c-0.083 0.017-0.166 0.025-0.247 0.025-0.607 0-1.148-0.43-1.268-1.048-0.136-0.701 0.322-1.381 1.024-1.516l0.203-0.039c2.69-0.52 9.828-1.903 10.002-5.133v-0.051c-1.673 1.185-3.751 1.866-4.953 2.257-0.132 0.043-0.268 0.063-0.4 0.063-0.546 0-1.052-0.347-1.23-0.893-0.221-0.681 0.151-1.41 0.831-1.632 1.541-0.501 5.626-1.831 5.753-4.035v-8.625c-4.278 3.072-13.26 4.667-22.189 4.667-1.021 0-2.040-0.028-3.056-0.070-0.049 0.006-0.095 0.025-0.145 0.025-0.105 0-0.212-0.012-0.318-0.039-0.009-0.002-0.017-0.005-0.027-0.008-7.687-0.364-14.932-1.91-18.642-4.574v23.611z"></path>
</svg>
