<!-- Generated by IcoMoon.io -->
<svg version="1.1" xmlns="http://www.w3.org/2000/svg" width="72" height="72" viewBox="0 0 72 72">
<title>uniF1DF</title>
<path d="M57.433 13.64c8.922 6.202 14.040 15.636 14.040 25.88 0 17.909-15.912 32.478-35.472 32.478s-35.472-14.569-35.472-32.478c0-9.132 4.237-17.896 11.625-24.043 0.263-0.216 0.566-0.373 0.882-0.457 0.136-0.036 0.278-0.067 0.414-0.103-0.052-0.095-0.125-0.174-0.164-0.28-0.39-1.037-0.001-2.157 0.946-2.72 6.245-3.73 12.744-3.204 15.727-2.673v-5.506c0-2.060 1.493-3.737 3.329-3.737h2.982c1.835 0 3.328 1.677 3.328 3.737v5.027c6.617-2.65 13.296 0.581 16.749 2.794 0.711 0.455 1.066 1.233 1.007 2.039 0.023 0.015 0.051 0.023 0.074 0.039zM29.954 11.975c-2.048-0.424-6.916-1.046-11.975 1.052 2.105-0.225 3.91-0.185 5.44 0.083 0.020 0.003 0.039-0.003 0.059 0.001 0.032 0.005 0.059 0.015 0.090 0.020 0.217 0.040 0.424 0.088 0.628 0.139 0.333 0.082 0.648 0.174 0.943 0.279 0.071 0.026 0.156 0.039 0.224 0.066 0.785 0.31 1.325 1.023 1.41 1.863 0.087 0.838-0.299 1.643-1.002 2.103-0.145 0.095-0.308 0.209-0.473 0.326-0.047 0.034-0.086 0.058-0.134 0.093-0.082 0.059-0.173 0.133-0.259 0.197-0.597 0.448-1.274 1.013-1.989 1.737-0.003 0.003-0.005 0.005-0.008 0.008-0.542 0.549-1.098 1.18-1.647 1.903-0.027 0.036-0.054 0.079-0.082 0.117-0.522 0.698-1.034 1.473-1.514 2.343 0.382-0.283 0.778-0.563 1.184-0.838 0.099-0.067 0.204-0.13 0.304-0.197 0.309-0.204 0.62-0.405 0.94-0.6 0.137-0.083 0.275-0.158 0.413-0.239 0.295-0.172 0.59-0.339 0.892-0.498 0.152-0.079 0.304-0.153 0.457-0.228 0.292-0.146 0.587-0.284 0.885-0.414 0.162-0.071 0.325-0.136 0.488-0.201 0.291-0.117 0.582-0.223 0.876-0.321 0.172-0.058 0.343-0.111 0.517-0.161 0.284-0.082 0.569-0.151 0.854-0.213 0.18-0.039 0.36-0.078 0.539-0.107 0.278-0.047 0.554-0.074 0.83-0.097 0.184-0.015 0.368-0.035 0.55-0.039 0.066-0.003 0.134-0.015 0.201-0.015 0.35 0 0.699 0.021 1.044 0.066 1.151 0.149 2.002 1.121 1.984 2.264-0.074 4.951 0.334 10.976 1.655 13.776 1.384-2.091 3.765-6.712 3.658-13.601-0.009-0.618 0.237-1.221 0.676-1.651 0.443-0.435 1.027-0.661 1.645-0.641 0.471 0.016 1.109 0.058 1.862 0.164 2.259 0.317 5.554 1.2 8.493 3.607-0.231-0.825-0.624-1.724-1.234-2.634-0.848-1.265-2.125-2.553-4.075-3.699-0.804-0.475-1.237-1.372-1.101-2.291 0.133-0.897 0.789-1.616 1.671-1.832 1.95-0.48 4.496-0.728 7.624-0.688-3.317-1.842-8.503-3.749-13.405-1.508-0.7 0.322-1.504 0.264-2.149-0.151-0.644-0.413-1.027-1.117-1.027-1.882v-5.699c0-0.593-0.346-1.054-0.645-1.054h-2.982c-0.298 0-0.647 0.461-0.647 1.054v6.037c0 0.68-0.3 1.317-0.828 1.745-0.523 0.428-1.202 0.594-1.86 0.456zM35.999 69.317c18.081 0 32.791-13.366 32.791-29.8 0-9.323-4.666-17.928-12.805-23.622l-0.333-0.039c-0.398-0.048-0.797-0.095-1.194-0.149l-0.482-0.043c-0.449-0.007-0.882-0.009-1.292-0.005-0.106 0.001-0.208 0.004-0.311 0.005-0.224 0.003-0.443 0.007-0.655 0.013-0.174 0.005-0.342 0.012-0.508 0.019-0.119 0.005-0.236 0.011-0.351 0.016-0.215 0.011-0.425 0.023-0.626 0.036-0.042 0.003-0.083 0.005-0.123 0.008-1.019 0.074-1.856 0.178-2.527 0.294 0.295 0.197 0.542 0.404 0.809 0.606 0.221 0.168 0.467 0.331 0.669 0.502 0.235 0.199 0.428 0.403 0.64 0.604 0.193 0.182 0.408 0.363 0.582 0.549 0.149 0.158 0.266 0.319 0.402 0.479 0.2 0.232 0.412 0.464 0.586 0.698 0.075 0.102 0.13 0.204 0.201 0.306 0.204 0.291 0.409 0.584 0.577 0.875 0.055 0.095 0.093 0.188 0.144 0.283 0.373 0.685 0.668 1.363 0.875 2.011 0.009 0.032 0.015 0.060 0.024 0.091 0.219 0.703 0.357 1.374 0.435 1.984 0.122 0.967-0.362 1.87-1.231 2.302-0.86 0.431-1.866 0.271-2.558-0.404-3.168-3.094-7.153-3.753-9.113-3.882 0.011 8.152-3.176 13.425-4.567 15.337-0.425 0.584-1.1 0.925-1.816 0.925h-0.067c-0.74-0.021-1.426-0.409-1.828-1.035-2.243-3.493-2.443-11.677-2.408-15.45-3.513-0.232-7.796 2.848-10.088 4.735-0.809 0.665-1.958 0.689-2.795 0.056-0.838-0.633-1.119-1.706-0.699-2.668 1.045-2.383 2.335-4.289 3.62-5.784 0.046-0.052 0.090-0.095 0.136-0.148 0.274-0.313 0.547-0.617 0.818-0.893 0.151-0.154 0.296-0.286 0.445-0.429 0.162-0.157 0.326-0.323 0.484-0.467 0.168-0.152 0.325-0.279 0.487-0.417 0.131-0.111 0.267-0.235 0.394-0.338 0.146-0.118 0.279-0.215 0.419-0.322 0.127-0.097 0.261-0.207 0.382-0.294-0.081-0.019-0.168-0.035-0.252-0.052-0.102-0.021-0.219-0.032-0.325-0.051-3.153 0.448-6.266 1.065-9.16 1.835-6.731 5.628-10.595 13.62-10.595 21.929 0 16.43 14.71 29.796 32.79 29.796zM8.654 41.19c0.237 1.627 0.794 3.212 1.608 4.583 0.377 0.636 0.168 1.461-0.471 1.838-0.215 0.127-0.451 0.188-0.683 0.188-0.457 0-0.904-0.235-1.155-0.657-1.003-1.693-1.661-3.565-1.954-5.561-0.107-0.734 0.4-1.415 1.132-1.522 0.746-0.117 1.415 0.4 1.522 1.132zM7.401 37.122c-0.74-0.051-1.297-0.692-1.247-1.43 0.126-1.78 0.492-3.509 1.088-5.143 0.253-0.696 1.021-1.052 1.721-0.799 0.696 0.253 1.053 1.023 0.799 1.721-0.511 1.396-0.824 2.879-0.931 4.406-0.048 0.708-0.637 1.249-1.336 1.249-0.031 0-0.063-0.001-0.094-0.004z"></path>
</svg>
