<!-- Generated by IcoMoon.io -->
<svg version="1.1" xmlns="http://www.w3.org/2000/svg" width="72" height="72" viewBox="0 0 72 72">
<title>uniF1A5</title>
<path d="M50.502 27.679c0.649-0.37 1.401-0.466 2.12-0.271 0.72 0.197 1.321 0.662 1.691 1.31 0.053 0.093 0.132 0.13 0.187 0.146 0.055 0.015 0.141 0.024 0.235-0.030 1.336-0.762 3.045-0.298 3.811 1.039 0.084 0.148 0.276 0.2 0.423 0.116 0.597-0.34 1.354-0.133 1.693 0.462 0.34 0.595 0.133 1.354-0.462 1.693-0.436 0.25-0.912 0.368-1.382 0.368-0.971 0-1.914-0.505-2.429-1.407-0.084-0.148-0.276-0.2-0.423-0.115-0.647 0.371-1.4 0.467-2.12 0.271-0.719-0.197-1.32-0.663-1.69-1.311-0.086-0.15-0.274-0.201-0.423-0.116-0.593 0.343-1.352 0.134-1.693-0.462-0.34-0.595-0.133-1.353 0.462-1.693zM29.446 19.813c-0.658-0.191-1.037-0.881-0.845-1.541 0.432-1.478 1.986-2.336 3.463-1.899 0.164 0.048 0.336-0.046 0.385-0.211 0.431-1.478 1.984-2.335 3.463-1.899 0.165 0.046 0.336-0.045 0.385-0.211 0.194-0.658 0.883-1.039 1.539-0.844 0.658 0.191 1.037 0.881 0.844 1.539-0.208 0.716-0.684 1.308-1.338 1.667-0.653 0.357-1.407 0.441-2.124 0.232-0.169-0.052-0.338 0.047-0.386 0.212-0.432 1.477-1.984 2.331-3.463 1.898-0.166-0.053-0.336 0.047-0.385 0.212-0.158 0.542-0.653 0.894-1.191 0.894-0.114 0-0.232-0.016-0.348-0.050zM14.396 40.545c-0.611-0.429-1.018-1.070-1.144-1.805-0.020-0.105-0.079-0.168-0.128-0.201-0.048-0.032-0.13-0.066-0.232-0.051-0.674 0.123-1.32-0.331-1.439-1.007s0.332-1.318 1.007-1.438c0.736-0.132 1.477 0.034 2.088 0.463 0.611 0.428 1.018 1.068 1.147 1.804 0.020 0.106 0.079 0.168 0.128 0.201 0.047 0.032 0.129 0.063 0.231 0.051 1.521-0.275 2.968 0.752 3.235 2.268 0.030 0.169 0.189 0.284 0.36 0.251 0.679-0.108 1.318 0.334 1.436 1.009 0.118 0.676-0.334 1.318-1.009 1.437-0.161 0.027-0.324 0.041-0.483 0.041-1.33 0-2.511-0.955-2.75-2.308-0.030-0.17-0.191-0.294-0.36-0.253-0.736 0.124-1.476-0.036-2.087-0.463zM22.992 37.192c-0.659-0.191-1.037-0.881-0.847-1.539 0.432-1.478 1.986-2.334 3.463-1.899 0.163 0.048 0.338-0.046 0.386-0.211 0.432-1.477 1.984-2.331 3.463-1.899 0.102 0.030 0.185 0.001 0.236-0.026 0.052-0.027 0.119-0.082 0.149-0.185 0.192-0.658 0.885-1.032 1.539-0.844 0.658 0.191 1.037 0.881 0.844 1.539-0.432 1.476-1.985 2.33-3.463 1.898-0.168-0.050-0.336 0.047-0.385 0.212-0.431 1.477-1.986 2.335-3.463 1.898-0.168-0.052-0.338 0.047-0.385 0.212-0.158 0.542-0.653 0.894-1.191 0.894-0.114 0-0.232-0.016-0.348-0.050zM55.97 38.511c0.683 0.060 1.188 0.663 1.13 1.344-0.060 0.683-0.659 1.195-1.344 1.128-1.553-0.132-2.452 0.456-2.671 0.886-0.067 0.132-0.041 0.161-0.007 0.2 1.825 2.096 1.45 3.713 1.064 4.49-0.755 1.521-2.638 2.266-4.234 2.266-0.113 0-0.223-0.004-0.333-0.011-1.598-0.109-2.752-0.611-3.43-1.493-0.849-1.104-0.712-2.441-0.535-3.349 0.067-0.342 0.218-0.761 0.394-1.245 0.159-0.438 0.497-1.369 0.56-1.879-0.475-0.231-0.79-0.741-0.716-1.284 0.092-0.678 0.672-1.164 1.352-1.071l0.189 0.030c0.601 0.111 1.085 0.444 1.37 0.942 0.654 1.14 0.083 2.717-0.421 4.109-0.122 0.336-0.261 0.719-0.29 0.874-0.134 0.685-0.112 1.13 0.066 1.362 0.216 0.281 0.811 0.473 1.63 0.529 0.859 0.057 1.92-0.37 2.175-0.881 0.267-0.539-0.41-1.408-0.714-1.757-0.715-0.822-0.842-1.954-0.331-2.956 0.793-1.558 2.798-2.442 5.1-2.233zM28.659 43.464c0.684 0.060 1.189 0.66 1.131 1.344-0.060 0.683-0.662 1.192-1.344 1.128-1.063-0.096-1.844 0.083-2.205 0.498-0.315 0.362-0.262 0.861-0.201 1.128 0.663 2.932 0.365 5.162-0.888 6.624-0.921 1.077-2.362 1.675-4.003 1.675-0.154 0-0.31-0.006-0.468-0.016-1.231-0.083-2.261-0.62-2.975-1.548-1.281-1.667-1.224-4.161-0.988-5.373 0.13-0.674 0.778-1.116 1.456-0.981 0.673 0.132 1.111 0.783 0.981 1.456-0.175 0.897-0.129 2.541 0.519 3.384 0.279 0.364 0.653 0.55 1.176 0.585 0.493 0.034 1.717 0.022 2.417-0.796 0.704-0.822 0.826-2.366 0.351-4.462-0.279-1.235-0.005-2.441 0.752-3.308 0.634-0.726 1.894-1.557 4.29-1.34zM36 0c19.851 0 36 16.15 36 36s-16.149 36-36 36c-6.833 0-13.422-1.906-19.161-5.527-0.009 0.014-0.022 0.025-0.031 0.039-0.158 0.253-0.338 0.489-0.55 0.696-0.006 0.006-0.015 0.011-0.022 0.019-0.196 0.189-0.415 0.35-0.648 0.493-0.071 0.043-0.144 0.079-0.218 0.118-0.187 0.099-0.382 0.179-0.586 0.244-0.082 0.026-0.161 0.056-0.246 0.077-0.284 0.069-0.577 0.117-0.883 0.117-2.053 0-3.724-1.671-3.724-3.724v-3.734c-6.409-6.726-9.931-15.519-9.931-24.818 0-19.85 16.149-36 36-36zM12.414 64.552c0 0.685 0.557 1.241 1.241 1.241s1.241-0.556 1.241-1.241v-9.129l2.069 1.853c5.241 4.691 12 7.276 19.034 7.276 1.27 0 2.591-0.092 3.925-0.278l1.46-0.199-0.052 1.474c-0.010 0.272-0.042 0.55-0.097 0.83-0.133 0.684-0.11 1.13 0.067 1.362 0.216 0.281 0.81 0.473 1.63 0.529 0.86 0.056 1.92-0.369 2.175-0.881 0.267-0.54-0.41-1.408-0.714-1.756-0.266-0.304-0.399-0.617-0.475-0.824l-0.45-1.216 1.235-0.395c11.871-3.796 19.847-14.727 19.847-27.196 0-15.744-12.809-28.552-28.552-28.552-3.412 0-6.748 0.598-9.93 1.781 0.862 3.976-0.211 6.283-1.271 7.52-1.070 1.253-2.66 1.974-4.119 1.868-2.021-0.137-3.183-1.852-3.724-3.884-6.068 5.419-9.508 13.057-9.508 21.266 0 5.64 1.645 11.096 4.758 15.779l0.207 0.313v12.46zM17.379 63.84c5.524 3.707 11.943 5.677 18.621 5.677 1.156 0 2.298-0.058 3.424-0.174-0.027-0.032-0.065-0.055-0.089-0.088-0.57-0.742-0.695-1.589-0.663-2.34-0.904 0.080-1.797 0.119-2.671 0.119-6.749 0-13.267-2.19-18.621-6.211v3.017zM47.628 67.434c12.766-4.737 21.889-17.039 21.889-31.434 0-18.482-15.036-33.517-33.517-33.517s-33.517 15.036-33.517 33.517c0 7.742 2.625 15.108 7.448 21.056v-4.219c-3.25-5.020-4.966-10.833-4.966-16.837 0-9.699 4.417-18.664 12.118-24.594l1.862-1.434 0.135 2.346c0.083 1.438 0.637 3.748 1.768 3.825 0.525 0.048 1.382-0.206 2.066-1.004 0.703-0.823 1.395-2.444 0.703-5.507-0.097-0.428-0.119-0.889-0.067-1.368l0.081-0.736 0.685-0.279c3.724-1.514 7.656-2.283 11.684-2.283 17.112 0 31.034 13.922 31.034 31.034 0 13.002-7.977 24.461-20.016 29.017 0.561 0.961 0.674 1.775 0.61 2.417zM40.637 50.677l2.966 2.504c1.274 1.077 1.435 2.989 0.36 4.263l-0.903 1.069c-0.521 0.618-1.251 0.994-2.057 1.063-0.086 0.007-0.173 0.011-0.258 0.011-0.713 0-1.395-0.248-1.947-0.714l-2.966-2.504c-0.617-0.523-0.994-1.253-1.063-2.057-0.068-0.806 0.181-1.589 0.703-2.206l0.901-1.068c1.076-1.274 2.988-1.435 4.263-0.361zM42.065 55.842c0.194-0.229 0.164-0.572-0.063-0.766l-2.966-2.503c-0.228-0.194-0.572-0.166-0.765 0.065l-0.903 1.068c-0.127 0.149-0.133 0.312-0.127 0.395 0.008 0.084 0.041 0.243 0.19 0.37l2.966 2.503c0.149 0.127 0.31 0.137 0.396 0.127 0.084-0.006 0.242-0.040 0.369-0.189zM43.631 21.235l-0.235-1.379c-0.135-0.794 0.046-1.598 0.513-2.257s1.162-1.099 1.959-1.234l3.826-0.654c0.796-0.136 1.598 0.046 2.257 0.512 0.659 0.467 1.097 1.162 1.234 1.959l0.236 1.378c0.135 0.796-0.046 1.599-0.513 2.258s-1.162 1.097-1.959 1.233l-3.826 0.654c-0.172 0.030-0.346 0.045-0.518 0.045-0.618 0-1.222-0.19-1.738-0.555-0.662-0.467-1.1-1.162-1.237-1.959zM45.934 19.033c-0.048 0.068-0.124 0.211-0.093 0.403l0.236 1.379c0.032 0.192 0.153 0.303 0.221 0.35 0.068 0.048 0.21 0.119 0.403 0.092l3.827-0.654c0.194-0.035 0.303-0.153 0.351-0.222 0.048-0.067 0.125-0.211 0.092-0.403l-0.236-1.378c-0.034-0.192-0.153-0.303-0.221-0.351-0.057-0.040-0.166-0.099-0.312-0.099-0.030 0-0.061 0.002-0.093 0.007l-3.826 0.654c-0.192 0.034-0.302 0.153-0.35 0.222zM35.793 30.548c0.606-0.534 1.387-0.785 2.191-0.749l3.873 0.245c1.665 0.107 2.933 1.547 2.828 3.21l-0.088 1.396c-0.051 0.807-0.412 1.544-1.019 2.078-0.556 0.49-1.259 0.755-1.995 0.755-0.066 0-0.129-0.002-0.195-0.006l-3.874-0.245c-1.665-0.107-2.933-1.547-2.828-3.21l0.088-1.396c0.051-0.807 0.412-1.544 1.019-2.078zM42.206 33.097c0.019-0.298-0.208-0.555-0.509-0.575l-3.872-0.244c-0.195-0.021-0.33 0.078-0.394 0.134-0.062 0.055-0.169 0.178-0.181 0.371l-0.088 1.398c-0.019 0.298 0.209 0.555 0.508 0.575l3.873 0.245c0.194 0.013 0.33-0.079 0.394-0.134 0.062-0.055 0.169-0.178 0.181-0.371zM14.77 32.463c-0.787-0.178-1.459-0.652-1.888-1.336-0.432-0.685-0.571-1.496-0.391-2.284l0.658-2.902c0.177-0.786 0.653-1.457 1.337-1.888 0.683-0.431 1.493-0.571 2.282-0.391l3.785 0.858c0.787 0.179 1.459 0.654 1.889 1.338s0.569 1.493 0.39 2.282l-0.658 2.902c-0.318 1.402-1.569 2.355-2.951 2.355-0.22 0-0.443-0.025-0.667-0.074h-0.001zM15.569 26.491l-0.658 2.904c-0.042 0.19 0.026 0.338 0.071 0.408 0.043 0.071 0.148 0.196 0.336 0.238l3.786 0.859c0.294 0.069 0.582-0.119 0.648-0.408l0.658-2.902c0.043-0.191-0.025-0.338-0.070-0.41-0.045-0.069-0.148-0.196-0.339-0.238l-3.785-0.858c-0.187-0.042-0.338 0.026-0.408 0.069-0.071 0.045-0.196 0.149-0.239 0.338z"></path>
</svg>
