<!-- Generated by IcoMoon.io -->
<svg version="1.1" xmlns="http://www.w3.org/2000/svg" width="72" height="72" viewBox="0 0 72 72">
<title>uniF1AC</title>
<path d="M72 16.163v2.939h-7.347v41.416c0 6.33-5.15 11.482-11.482 11.482h-34.342c-6.332 0-11.482-5.152-11.482-11.482v-41.416h-7.347v-2.939h72zM18.829 69.061h34.342c0.503 0 0.993-0.053 1.474-0.137 0.050-0.009 0.101-0.013 0.151-0.023 0.453-0.087 0.889-0.216 1.314-0.372 0.066-0.025 0.132-0.047 0.198-0.073 0.41-0.162 0.802-0.356 1.178-0.577 0.065-0.038 0.129-0.078 0.194-0.118 0.369-0.231 0.721-0.486 1.051-0.77 0.051-0.044 0.101-0.091 0.151-0.137 0.331-0.298 0.642-0.617 0.923-0.964 0.026-0.034 0.051-0.070 0.078-0.104 0.284-0.361 0.542-0.742 0.765-1.146 0.007-0.013 0.016-0.025 0.024-0.038 0.222-0.406 0.404-0.835 0.558-1.276 0.018-0.054 0.041-0.107 0.059-0.162 0.14-0.426 0.241-0.868 0.312-1.321 0.006-0.043 0.013-0.087 0.019-0.129h-51.241c0.006 0.043 0.013 0.087 0.021 0.129 0.072 0.453 0.172 0.895 0.311 1.321 0.018 0.054 0.040 0.107 0.059 0.162 0.154 0.441 0.336 0.87 0.558 1.276 0.007 0.013 0.016 0.025 0.023 0.038 0.223 0.404 0.482 0.786 0.766 1.146 0.026 0.034 0.050 0.070 0.078 0.104 0.281 0.347 0.592 0.666 0.923 0.964 0.051 0.045 0.1 0.093 0.151 0.137 0.329 0.282 0.68 0.539 1.051 0.77 0.065 0.040 0.129 0.079 0.194 0.118 0.376 0.22 0.769 0.414 1.178 0.577 0.065 0.027 0.132 0.050 0.198 0.073 0.425 0.156 0.861 0.285 1.314 0.372 0.050 0.010 0.101 0.015 0.151 0.023 0.479 0.084 0.97 0.137 1.472 0.137zM61.714 58.775v-39.673h-51.429v22.041h5.878c0.811 0 1.469 0.657 1.469 1.469s-0.658 1.469-1.469 1.469h-5.878v2.939h8.816c0.811 0 1.469 0.657 1.469 1.469s-0.658 1.469-1.469 1.469h-8.816v2.939h13.225c0.811 0 1.469 0.657 1.469 1.469s-0.658 1.469-1.469 1.469h-13.225v2.939h51.429zM64.653 13.225v1.469h-57.306v-1.469c0-4.051 3.296-7.347 7.347-7.347h13.373c0.683-3.349 3.651-5.878 7.199-5.878h1.469c3.547 0 6.515 2.529 7.199 5.878h13.373c4.051 0 7.347 3.296 7.347 7.347zM35.265 2.939c-1.916 0-3.55 1.228-4.155 2.939h9.782c-0.607-1.71-2.241-2.939-4.157-2.939h-1.469zM10.537 11.755h50.926c-0.607-1.71-2.241-2.939-4.157-2.939h-42.612c-1.916 0-3.55 1.228-4.157 2.939z"></path>
</svg>
