<!-- Generated by IcoMoon.io -->
<svg version="1.1" xmlns="http://www.w3.org/2000/svg" width="72" height="72" viewBox="0 0 72 72">
<title>uniF10B</title>
<path d="M45.69 60.765c7.297 0.51 8.529 2.010 8.528 5.175 0 4.409-4.936 6.035-18.215 6.059-13.284-0.023-18.22-1.65-18.22-6.001-0.001-3.223 1.231-4.722 8.528-5.233 4.488-0.317 6.088-4.267 6.088-7.859v-1.131c0-1.057-0.612-1.999-1.561-2.403-8.111-3.451-13.776-12.096-13.776-21.023 0-0.020 0.010-2.059 0.842-2.632l0.521-0.358s0.501-0.231 0.591-0.187c-0.088-1.023 0.142-1.496 0.136-2.521-0.017-2.714 0.752-6.509 0.752-6.509l0.276-1.004c2.71-9.832 10.473-15.138 16.402-15.138 0.505 0 1.031 0.041 1.567 0.104 0.008 0.001 0.018 0.002 0.027 0.004 5.138 0.616 11.437 4.239 14.303 12.961l0.229 0.702s1.281 4.748 1.306 8.881c0.006 0.979-0.052 1.952-0.128 2.921l0.214 0.144c0.832 0.572 0.842 2.61 0.842 2.632 0 8.927-5.665 17.573-13.776 21.023-0.949 0.403-1.561 1.346-1.561 2.403v1.131c0 3.591 1.599 7.542 6.088 7.859zM51.609 22.65c0-2.101-0.347-4.443-1.018-6.763l-2.711 2.711-3.267-4.356-4.774 9.546-5.007-6.258c-2.33 2.979-3.112 2.945-3.539 2.927-0.465-0.020-0.885-0.27-1.124-0.669-0.357-0.593-2.126-4.183-3.076-6.12l-4.736 2.841c-0.5 1.876-0.804 3.914-0.804 6.141 0 1.986 0.176 3.977 0.526 5.93 4.099 1.604 9.152 2.505 14.368 2.582h0.011l0.705 0.016c1.802 0 3.575-0.1 5.297-0.288 0.065-0.007 0.132-0.012 0.197-0.019 1.096-0.125 2.17-0.292 3.219-0.491 0.088-0.017 0.18-0.029 0.268-0.047 0.241-0.048 0.475-0.104 0.713-0.156 0.322-0.070 0.648-0.135 0.964-0.211 0.029-0.007 0.056-0.016 0.086-0.023 1.067-0.261 2.102-0.56 3.095-0.899 0.033-0.173 0.063-0.361 0.094-0.546 0.023-0.129 0.043-0.258 0.065-0.388 0.046-0.291 0.090-0.592 0.133-0.911l0.047-0.349 0.001-0.002c0.172-1.382 0.267-2.784 0.267-4.195zM36.58 2.401c-3.644 0-9.738 3.667-12.929 10.53l4.448-2.668 0.575 1.176c0.896 1.835 2.244 4.571 3.009 6.077 0.62-0.665 1.479-1.734 2.144-2.652l0.925-1.276 4.617 5.771 4.832-9.666 3.937 5.25 1.583-1.583c-2.208-5.51-6.307-10.356-12.059-10.901-0.064-0.006-0.13-0.017-0.193-0.022-0.292-0.023-0.587-0.035-0.887-0.035zM36.002 69.599c14.175-0.026 15.814-2.066 15.811-3.6 0-1.517 0.001-2.398-6.294-2.839-5.055-0.355-8.321-4.379-8.321-10.253v-1.131c0-2.021 1.188-3.831 3.022-4.612 6.407-2.726 11.107-9.085 12.114-16.042-0.324 0.118-0.662 0.221-0.993 0.33-0.218 0.071-0.431 0.148-0.652 0.216-0.343 0.106-0.699 0.199-1.051 0.297-0.245 0.067-0.485 0.14-0.734 0.204-0.342 0.088-0.695 0.163-1.045 0.243-0.267 0.061-0.528 0.127-0.798 0.184-0.346 0.072-0.7 0.132-1.051 0.196-0.283 0.052-0.562 0.109-0.849 0.156-0.352 0.056-0.712 0.102-1.069 0.151-0.293 0.041-0.581 0.088-0.877 0.124-0.377 0.046-0.762 0.077-1.144 0.114-0.281 0.027-0.558 0.060-0.842 0.083-0.439 0.035-0.886 0.055-1.33 0.079-0.232 0.012-0.46 0.031-0.692 0.041-0.68 0.026-1.363 0.040-2.051 0.040-0.148 0-0.293-0.005-0.439-0.008l-0.267-0.007-0.444 0.011c-9.265-0.148-16.048-2.825-16.451-3.322 0.726 7.292 5.546 14.071 12.22 16.911 1.836 0.782 3.022 2.591 3.022 4.612v1.132c0 5.874-3.266 9.897-8.321 10.253-6.295 0.441-6.294 1.321-6.294 2.78 0 1.592 1.639 3.633 15.818 3.659z"></path>
</svg>
