<!-- Generated by IcoMoon.io -->
<svg version="1.1" xmlns="http://www.w3.org/2000/svg" width="72" height="72" viewBox="0 0 72 72">
<title>uniF1C7</title>
<path d="M43.232 45.643c-0.666 0-1.205-0.54-1.205-1.205 0-3.323-2.703-6.026-6.026-6.026-0.665 0-1.205-0.539-1.205-1.205s0.54-1.205 1.205-1.205c4.652 0 8.437 3.786 8.437 8.437 0 0.666-0.54 1.205-1.205 1.205zM46.848 45.643c-0.667 0-1.205-0.54-1.205-1.205 0-5.317-4.326-9.642-9.642-9.642-1.329 0-2.411 1.081-2.411 2.411 0 0.666-0.54 1.205-1.205 1.205s-1.205-0.539-1.205-1.205c0-2.659 2.162-4.821 4.821-4.821 6.646 0 12.053 5.407 12.053 12.053 0 0.666-0.54 1.205-1.205 1.205zM36.001 39.616c2.658 0 4.821 2.162 4.821 4.821 0 0.666-0.54 1.205-1.205 1.205s-1.205-0.539-1.205-1.205c0-1.329-1.081-2.411-2.411-2.411-0.665 0-1.205-0.539-1.205-1.205s0.54-1.205 1.205-1.205zM50.464 45.643c-0.667 0-1.205-0.54-1.205-1.205 0-7.31-5.948-13.258-13.258-13.258h-2.411c-1.993 0-3.616 1.622-3.616 3.616 0 0.666-0.54 1.205-1.205 1.205s-1.205-0.539-1.205-1.205c0-3.323 2.703-6.026 6.026-6.026h2.411c8.64 0 15.669 7.029 15.669 15.669 0 0.666-0.54 1.205-1.205 1.205zM19.127 17.921c-0.667 0-1.205-0.54-1.205-1.205v-12.053c0-0.667 0.54-1.205 1.205-1.205s1.205 0.539 1.205 1.205h6.026c1.96 0 3.688 0.956 4.79 2.411h33.779c1.993 0 3.616 1.622 3.616 3.616s-1.622 3.616-3.616 3.616h-33.779c-1.1 1.455-2.829 2.411-4.79 2.411h-6.026c0 0.666-0.54 1.205-1.205 1.205zM64.927 9.484h-32.664c0.080 0.389 0.122 0.793 0.122 1.205s-0.042 0.816-0.122 1.205h32.664c0.664 0 1.205-0.54 1.205-1.205s-0.541-1.205-1.205-1.205zM26.358 7.074h-6.026v2.413c0.871 0.001 2.343 0.002 4.821 0.002 0.665 0 1.205 0.539 1.205 1.205s-0.54 1.205-1.205 1.205c-2.473 0-3.946-0.001-4.821-0.002v2.408h6.026c1.21 0 2.277-0.603 2.934-1.519l0.172-0.295c0.162-0.276 0.281-0.56 0.365-0.849 0.006-0.022 0.013-0.041 0.019-0.063 0.081-0.293 0.124-0.591 0.124-0.891s-0.043-0.598-0.124-0.891c-0.005-0.022-0.013-0.042-0.019-0.063-0.084-0.288-0.204-0.572-0.365-0.848l-0.172-0.295c-0.656-0.916-1.724-1.519-2.934-1.519zM15.511 17.921c-0.666 0-1.205-0.54-1.205-1.205v-12.053c0-0.667 0.54-1.205 1.205-1.205s1.205 0.539 1.205 1.205v12.053c0 0.666-0.54 1.205-1.205 1.205zM15.511 33.59c-0.666 0-1.205-0.54-1.205-1.205v-12.053c0-0.667 0.54-1.205 1.205-1.205s1.205 0.539 1.205 1.205v12.053c0 0.666-0.54 1.205-1.205 1.205zM11.895 20.332c0.665 0 1.205 0.539 1.205 1.205v12.053c0 0.667-0.54 1.205-1.205 1.205s-1.205-0.539-1.205-1.205v-12.053c0-0.666 0.54-1.205 1.205-1.205zM5.868 13.1h4.821v-1.205h-4.821c-0.665 0-1.205-0.539-1.205-1.205s0.54-1.205 1.205-1.205h4.821v-1.205h-4.821c-0.665 0-1.205-0.539-1.205-1.205s0.54-1.205 1.205-1.205h4.821v-1.205c0-0.667 0.54-1.205 1.205-1.205s1.205 0.539 1.205 1.205v13.606c0 0.666-0.54 1.205-1.205 1.205s-1.205-0.539-1.205-1.205v-2.759h-4.821c-0.665 0-1.205-0.539-1.205-1.205s0.54-1.205 1.205-1.205zM61.25 58.901h10.751l-3.67 5.505c-1.728 2.591-4.619 4.138-7.732 4.138h-49.197c-3.114 0-6.005-1.548-7.732-4.138l-3.67-5.505h8.339c0.611-6.747 6.293-12.053 13.197-12.053h2.411c0.665 0 1.205 0.539 1.205 1.205s-0.54 1.205-1.205 1.205h-2.411c-5.573 0-10.174 4.227-10.776 9.642h1.217c0.597-4.749 4.651-8.437 9.559-8.437h4.821c0.665 0 1.205 0.539 1.205 1.205s-0.54 1.205-1.205 1.205h-4.821c-3.577 0-6.547 2.612-7.123 6.026h1.219c0.56-2.747 2.995-4.821 5.905-4.821h6.026c0.665 0 1.205 0.539 1.205 1.205s-0.54 1.205-1.205 1.205h-6.026c-1.569 0-2.895 1.011-3.394 2.411h2.189c0-0.667 0.54-1.205 1.205-1.205h6.026c0.665 0 1.205 0.539 1.205 1.205h1.182c-0.24-9.719-3.387-14.463-9.619-14.463-0.664 0-1.205 0.54-1.205 1.205 0 0.667-0.54 1.205-1.205 1.205s-1.205-0.539-1.205-1.205c0-1.994 1.622-3.616 3.616-3.616 5.347 0 11.69 2.97 12.036 16.874h1.203c-0.19-6.267-2.039-18.079-13.239-18.079-3.323 0-6.026 2.703-6.026 6.026v1.205c0 0.667-0.54 1.205-1.205 1.205s-1.205-0.539-1.205-1.205v-1.205c0-4.651 3.785-8.437 8.437-8.437 9.518 0 15.315 7.631 15.653 20.49h1.204c-0.313-10.708-4.864-21.695-16.856-21.695h-1.205c-5.317 0-9.642 4.326-9.642 9.642v6.026c0 0.666-0.54 1.205-1.205 1.205s-1.205-0.539-1.205-1.205v-6.026c0-6.646 5.407-12.053 12.053-12.053h1.205c9.118 0 18.841 6.368 19.264 24.106h1.226c0-0.667 0.54-1.205 1.205-1.205h6.026c0.665 0 1.205 0.539 1.205 1.205h2.189c-0.499-1.399-1.825-2.411-3.394-2.411h-6.026c-0.665 0-1.205-0.539-1.205-1.205s0.54-1.205 1.205-1.205h6.026c2.911 0 5.344 2.074 5.905 4.821h1.219c-0.577-3.415-3.547-6.026-7.123-6.026h-7.232c-0.665 0-1.205-0.539-1.205-1.205s0.54-1.205 1.205-1.205h7.232c4.908 0 8.963 3.688 9.559 8.437h1.217c-0.601-5.415-5.203-9.642-10.777-9.642h-8.437c-0.665 0-1.205-0.539-1.205-1.205s0.54-1.205 1.205-1.205h8.437c6.904 0 12.584 5.306 13.197 12.053zM66.324 63.069l1.172-1.757h-62.992l1.172 1.757c1.279 1.919 3.418 3.064 5.725 3.064h49.198c2.306 0 4.446-1.145 5.725-3.064z"></path>
</svg>
