<!-- Generated by IcoMoon.io -->
<svg version="1.1" xmlns="http://www.w3.org/2000/svg" width="72" height="72" viewBox="0 0 72 72">
<title>uniF1A0</title>
<path d="M65.961 54.141l-26.204-14.851 10.486 27.581-1.933-0.17c-0.431-0.038-0.847-0.089-1.251-0.14-1.69-0.209-2.698-0.296-3.753 0.426-0.337 0.231-0.909 0.712-1.516 1.22-2.453 2.061-4.303 3.518-5.792 3.518-1.488-0.001-3.339-1.46-5.793-3.521-0.606-0.507-1.178-0.988-1.513-1.218-1.050-0.719-2.055-0.636-3.738-0.424-0.465 0.058-0.945 0.118-1.448 0.156-5.403 0.404-6.325-1.234-7.202-3.995-0.429-1.348-0.916-2.877-2.602-4.564s-3.215-2.171-4.563-2.601c-2.76-0.877-4.408-1.8-3.996-7.202 0.039-0.501 0.098-0.981 0.156-1.445 0.209-1.686 0.293-2.691-0.424-3.741-0.23-0.337-0.712-0.91-1.22-1.516-2.058-2.453-3.517-4.303-3.517-5.792 0-1.492 1.461-3.344 3.524-5.802 0.507-0.602 0.985-1.172 1.214-1.506 0.718-1.049 0.634-2.053 0.423-3.74-0.057-0.463-0.117-0.944-0.156-1.445-0.411-5.403 1.235-6.326 3.996-7.202 1.348-0.429 2.876-0.915 4.563-2.601 1.687-1.689 2.173-3.218 2.602-4.566 0.877-2.76 1.805-4.407 7.202-3.994 0.501 0.038 0.982 0.097 1.445 0.156 1.686 0.207 2.691 0.291 3.741-0.424 0.335-0.229 0.905-0.708 1.508-1.215 2.455-2.063 4.308-3.523 5.798-3.523s3.343 1.46 5.798 3.524c0.603 0.507 1.174 0.987 1.508 1.215 1.051 0.716 2.057 0.633 3.742 0.424 0.463-0.058 0.943-0.118 1.444-0.156 5.403-0.403 6.326 1.234 7.203 3.995 0.428 1.348 0.915 2.876 2.601 4.563 1.687 1.687 3.217 2.173 4.564 2.602 2.76 0.877 4.406 1.8 3.995 7.203-0.038 0.501-0.097 0.981-0.154 1.445-0.209 1.685-0.293 2.69 0.424 3.74 0.229 0.336 0.709 0.907 1.218 1.512 2.061 2.454 3.519 4.305 3.519 5.794 0 1.488-1.456 3.337-3.514 5.788-0.51 0.607-0.992 1.181-1.221 1.518-0.719 1.051-0.635 2.055-0.426 3.741 0.057 0.462 0.117 0.944 0.154 1.445 0.144 1.89 0.017 3.3-0.4 4.439zM41.934 64.977c1.585-1.084 3.133-1.084 4.634-0.921l-1.061-2.789c-2.928 1.066-5.993 1.636-9.143 1.636-14.761 0-26.771-12.009-26.771-26.771s12.010-26.771 26.771-26.771c14.76 0 26.77 12.010 26.77 26.771 0 4.096-0.901 8.025-2.678 11.684-0.055 0.113-0.137 0.201-0.22 0.288l4.216 2.389c0.041-0.561 0.032-1.209-0.024-1.951-0.035-0.462-0.090-0.904-0.144-1.332-0.217-1.746-0.44-3.551 0.831-5.412 0.299-0.435 0.794-1.027 1.369-1.71 0.87-1.038 2.909-3.463 2.945-4.227-0.037-0.758-2.078-3.187-2.949-4.226-0.572-0.68-1.066-1.269-1.364-1.703-1.273-1.861-1.047-3.667-0.831-5.414 0.053-0.427 0.108-0.869 0.144-1.331 0.294-3.872-0.308-4.064-2.307-4.699-1.453-0.461-3.441-1.094-5.547-3.199s-2.738-4.095-3.2-5.547c-0.634-1.998-0.826-2.597-4.698-2.307-0.461 0.035-0.903 0.090-1.329 0.144-1.748 0.214-3.555 0.442-5.416-0.83-0.434-0.298-1.021-0.791-1.701-1.361-1.038-0.872-3.47-2.916-4.235-2.952-0.759 0.037-3.192 2.080-4.234 2.95-0.679 0.57-1.265 1.063-1.699 1.36-1.861 1.274-3.667 1.049-5.415 0.831-0.426-0.054-0.869-0.108-1.33-0.144-3.871-0.297-4.063 0.308-4.697 2.305-0.462 1.454-1.095 3.444-3.201 5.55s-4.095 2.737-5.547 3.199c-1.997 0.634-2.601 0.825-2.306 4.698 0.035 0.461 0.091 0.903 0.144 1.33 0.218 1.746 0.443 3.554-0.828 5.415-0.297 0.434-0.79 1.019-1.359 1.698-0.873 1.038-2.918 3.472-2.955 4.238 0.037 0.757 2.077 3.186 2.948 4.224 0.573 0.681 1.068 1.271 1.366 1.707 1.273 1.861 1.047 3.668 0.83 5.416-0.052 0.427-0.108 0.869-0.144 1.33-0.294 3.87 0.309 4.063 2.307 4.697 1.453 0.462 3.442 1.095 5.547 3.2 2.106 2.107 2.738 4.096 3.199 5.549 0.635 1.999 0.827 2.6 4.698 2.307 0.462-0.035 0.905-0.091 1.332-0.144 0.674-0.085 1.355-0.17 2.045-0.17 1.102 0 2.225 0.217 3.369 1 0.434 0.297 1.022 0.791 1.703 1.362 1.038 0.872 3.468 2.914 4.232 2.95 0.757-0.037 3.186-2.077 4.224-2.948 0.683-0.573 1.273-1.068 1.708-1.366zM44.645 58.991l-9.561-25.147 23.131 13.111c0.019-0.069 0.021-0.14 0.054-0.207 1.614-3.321 2.433-6.894 2.433-10.619 0-13.419-10.917-24.338-24.337-24.338s-24.338 10.918-24.338 24.338c0 13.419 10.918 24.338 24.338 24.338 2.853 0 5.628-0.515 8.28-1.476zM36.901 27.771c-0.311 0-0.623-0.119-0.86-0.358-1.607-1.607-2.493-3.742-2.493-6.013 0-2.27 0.886-4.406 2.493-6.013 0.476-0.476 1.244-0.476 1.72 0 3.316 3.317 3.315 8.711 0 12.028-0.237 0.237-0.549 0.356-0.86 0.356zM36.901 18.217c-0.59 0.95-0.92 2.039-0.92 3.182 0 1.145 0.331 2.234 0.92 3.184 1.201-1.947 1.201-4.418 0-6.366zM36.041 57.475c-1.608-1.607-2.493-3.743-2.493-6.013s0.886-4.405 2.493-6.012c0.476-0.476 1.244-0.476 1.72 0 3.316 3.316 3.316 8.709 0 12.025-0.237 0.237-0.549 0.356-0.86 0.356s-0.623-0.119-0.86-0.356zM36.901 48.28c-0.59 0.949-0.92 2.036-0.92 3.181s0.331 2.234 0.92 3.182c1.201-1.945 1.201-4.417 0-6.364zM45.918 35.57c3.315-3.314 8.71-3.314 12.026 0 0.476 0.476 0.476 1.244 0 1.72-1.607 1.607-3.743 2.494-6.013 2.494-2.271 0-4.406-0.887-6.013-2.494-0.476-0.476-0.476-1.244 0-1.72zM48.748 36.431c0.95 0.589 2.039 0.92 3.182 0.921 1.145 0 2.234-0.331 3.184-0.921-1.948-1.202-4.42-1.201-6.366 0zM27.884 37.29c-1.607 1.608-3.743 2.494-6.013 2.494s-4.405-0.887-6.012-2.494c-0.476-0.476-0.476-1.244 0-1.72 3.315-3.314 8.709-3.315 12.025 0 0.476 0.476 0.476 1.244 0 1.72zM25.054 36.43c-1.948-1.201-4.42-1.201-6.366 0.001 0.95 0.589 2.039 0.92 3.182 0.92 1.145 0 2.234-0.331 3.184-0.921zM43.885 30.663c-0.672 0-1.216-0.544-1.216-1.217 0-4.688 3.815-8.504 8.503-8.504 0.672 0 1.217 0.544 1.217 1.217 0 4.687-3.815 8.502-8.504 8.504v0zM49.779 23.552c-2.225 0.527-3.973 2.275-4.5 4.5 2.225-0.528 3.973-2.275 4.5-4.5zM29.917 41.811c0.672 0 1.217 0.545 1.218 1.217 0 0.069-0.028 0.129-0.039 0.195 0.011 0.067 0.039 0.125 0.039 0.195 0 4.687-3.815 8.502-8.504 8.502-0.672 0-1.217-0.544-1.217-1.216-0.001-2.273 0.883-4.603 2.489-6.208 1.603-1.606 3.74-2.684 6.011-2.684h0.002zM23.985 49.32c2.37-0.545 4.202-2.474 4.613-4.892-1.118 0.302-2.146 0.957-2.974 1.786-0.842 0.841-1.398 1.94-1.639 3.106zM28.644 23.433c1.605 1.605 2.49 3.74 2.489 6.012 0 0.037-0.018 0.066-0.021 0.101 0.004 0.035 0.021 0.066 0.021 0.101 0 0.672-0.545 1.216-1.217 1.216h-0.002c-2.271 0-4.406-0.984-6.011-2.588-1.605-1.607-2.489-3.793-2.489-6.066 0-0.010 0.005-0.026 0.005-0.026 0-0.010-0.005-0.026-0.005-0.026 0-0.673 0.545-1.217 1.217-1.217 2.273 0 4.409 0.884 6.013 2.49zM24.013 23.548c0.251 1.13 0.792 2.193 1.611 3.010 0.825 0.824 1.849 1.418 2.961 1.693-0.231-1.168-0.801-2.24-1.661-3.1-0.811-0.811-1.819-1.35-2.911-1.603zM56.071 72l-13.207-29.118 26.346 16.13-0.372 0.949c-3.607 9.202-11.42 11.635-11.749 11.733zM48.354 49.095l6.826 15.048c3.33-0.321 5.952-3.411 5.952-7.17 0-0.017 0.009-0.032 0.010-0.049zM57.369 68.971c1.935-0.878 6.281-3.383 8.809-8.962l-2.714-1.662c-0.546 4.092-3.484 7.357-7.241 8.097z"></path>
</svg>
