<!-- Generated by IcoMoon.io -->
<svg version="1.1" xmlns="http://www.w3.org/2000/svg" width="72" height="72" viewBox="0 0 72 72">
<title>uniF12D</title>
<path d="M69.388 53.435l1.836 0.099-0.857 2.007c-0.184 0.436-0.369 0.873-0.586 1.301-3.338 6.585-9.041 11.477-16.057 13.772-0.461 0.152-0.927 0.27-1.392 0.396-0.217 0.151-0.47 0.24-0.735 0.24-0.034 0-0.066-0.009-0.099-0.012-2.116 0.505-4.261 0.76-6.399 0.76-4.283 0-8.537-1.007-12.468-3-6.585-3.337-11.475-9.039-13.771-16.055-0.557-1.701-0.936-3.429-1.157-5.166-10.005-3.079-16.924-12.538-16.924-23.353 0-13.468 10.642-24.424 23.723-24.424 10.204 0 19.308 6.854 22.492 16.769 3.657 0.247 7.262 1.219 10.629 2.927 1.683 0.852 3.284 1.882 4.76 3.058l1.075 0.859-0.929 1.014c-0.491 0.536-0.873 1.139-1.135 1.792-1.224 3.041 0.254 6.511 3.294 7.736 0.432 0.175 0.887 0.293 1.393 0.365l2.31 0.327-1.509 1.779c-0.314 0.369-0.537 0.725-0.681 1.084-0.738 1.833-0.039 3.904 1.661 4.927l2.072 1.247-2.193 1.019c-1.046 0.486-1.856 1.334-2.279 2.383-0.45 1.115-0.437 2.338 0.034 3.444 0.47 1.104 1.343 1.96 2.459 2.41 0.418 0.168 0.887 0.266 1.435 0.296zM3.349 24.424c0 9.333 5.731 17.549 14.139 20.593-0.004-0.157 0.005-0.312 0.004-0.469 0-0.066-0.003-0.134-0.003-0.199 0-0.126 0.017-0.247 0.018-0.373 0.009-0.752 0.040-1.503 0.112-2.251 0.019-0.208 0.054-0.411 0.078-0.618 0.080-0.671 0.171-1.339 0.301-2.004 0.059-0.303 0.136-0.598 0.204-0.896 0.127-0.554 0.256-1.106 0.418-1.652 0.062-0.208 0.129-0.415 0.195-0.622-2.904-0.306-5.183-2.741-5.183-5.724 0-3.189 2.595-5.785 5.785-5.785 1.796 0 3.437 0.86 4.509 2.221 2.579-3.099 5.797-5.587 9.484-7.305 0.154-0.072 0.3-0.158 0.455-0.228 0.343-0.152 0.703-0.275 1.054-0.414 0.504-0.202 1.005-0.41 1.525-0.582 0.028-0.009 0.055-0.023 0.085-0.032 0.262-0.086 0.53-0.139 0.793-0.217 0.567-0.167 1.133-0.338 1.715-0.469 0.504-0.116 1.010-0.189 1.517-0.275 0.361-0.060 0.715-0.139 1.080-0.185 0.881-0.114 1.764-0.184 2.646-0.212-1.328-3.639-3.563-6.774-6.381-9.164-0.346 2.139-1.388 5.078-4.454 6.466l-0.264 0.086c-0.008 0.001-1.588 0.395-1.553 1.261 0.028 0.71-0.523 1.309-1.233 1.336-0.018 0.001-0.036 0.001-0.053 0.001-0.686 0-1.256-0.542-1.282-1.234-0.094-2.351 2.044-3.5 3.433-3.844 0.372-0.18 0.69-0.405 0.976-0.656-1.223-0.379-2.372-0.692-2.813-0.731-0.513 0.127-1.072-0.071-1.382-0.535-0.393-0.591-0.234-1.388 0.356-1.783 0.442-0.296 0.943-0.629 5.309 0.814 0.423-1.143 0.53-2.287 0.549-2.947-3.242-2.050-7.021-3.224-10.988-3.224-10.003 0-18.387 7.218-20.578 16.872 0.095 0.049 0.193 0.087 0.276 0.161 0.028 0.024 0.575 0.482 1.582 0.991 0.048-0.004 0.089-0.027 0.138-0.027 1.418 0 2.571-1.153 2.571-2.571 0-0.711 0.576-1.285 1.285-1.285s1.286 0.575 1.286 1.285c0 1.493-0.649 2.827-1.669 3.766 0.186 0.034 0.359 0.075 0.554 0.102 0.703 0.095 1.198 0.742 1.103 1.446-0.087 0.645-0.639 1.113-1.273 1.113-0.057 0-0.115-0.004-0.172-0.010-2.959-0.399-5.030-1.465-6.148-2.187-0.071 0.722-0.108 1.455-0.108 2.197zM22.292 28.82c0-0.001 0-0.003 0.004-0.003-0.528-1.096-1.643-1.823-2.877-1.823-1.771 0-3.214 1.441-3.214 3.214s1.442 3.214 3.214 3.214c0.112 0 0.226-0.009 0.347-0.026 0.053-0.121 0.121-0.238 0.176-0.359 0.031-0.071 0.066-0.138 0.098-0.207 0.149-0.325 0.274-0.657 0.437-0.978 0.045-0.087 0.1-0.167 0.145-0.255 0.089-0.17 0.183-0.335 0.275-0.504 0.041-0.075 0.089-0.147 0.131-0.221 0.042-0.076 0.090-0.149 0.134-0.225 0.279-0.488 0.554-0.978 0.86-1.446 0.064-0.099 0.138-0.191 0.204-0.289 0.022-0.032 0.045-0.062 0.066-0.093zM53.069 68.117c6.29-2.103 11.403-6.502 14.406-12.421-0.165-0.051-0.326-0.108-0.485-0.172-1.752-0.707-3.124-2.050-3.864-3.788-0.739-1.738-0.758-3.66-0.053-5.412 0.428-1.058 1.1-1.985 1.959-2.715-1.658-1.825-2.184-4.467-1.22-6.861 0.021-0.050 0.041-0.099 0.063-0.149-0.050-0.019-0.101-0.039-0.152-0.059-4.355-1.755-6.471-6.726-4.718-11.081 0.206-0.51 0.46-0.998 0.762-1.458-1.050-0.753-2.158-1.428-3.31-2.012-1.739-0.881-3.549-1.546-5.396-2-0.54 1.76 0.238 3.71 1.933 4.57 0.634 0.32 0.887 1.095 0.566 1.728-0.226 0.447-0.679 0.704-1.148 0.704-0.195 0-0.393-0.044-0.58-0.139-2.738-1.387-4.048-4.482-3.309-7.341-0.429-0.059-0.861-0.107-1.293-0.143l-1.22-0.040c-0.145-0.004-0.291-0.014-0.435-0.024-0.15-0.010-0.3-0.022-0.451-0.022-0.816 0-1.622 0.046-2.424 0.123-0.143 0.013-0.284 0.034-0.426 0.050-0.611 0.071-1.213 0.165-1.81 0.278-0.239 0.046-0.478 0.091-0.717 0.144-0.517 0.113-1.023 0.249-1.527 0.393-0.24 0.069-0.483 0.129-0.724 0.206-0.37 0.118-0.728 0.265-1.090 0.4-0.4 0.148-0.803 0.288-1.193 0.455-0.522 0.225-1.028 0.48-1.532 0.739-0.192 0.098-0.388 0.184-0.576 0.287-2.78 1.525-5.241 3.561-7.255 5.983-0.027 0.032-0.058 0.064-0.085 0.098-0.392 0.477-0.752 0.978-1.109 1.483-0.206 0.292-0.406 0.589-0.599 0.888-0.206 0.32-0.402 0.647-0.594 0.977-0.138 0.239-0.278 0.474-0.409 0.719-0.086 0.161-0.166 0.324-0.249 0.486-0.143 0.278-0.275 0.56-0.407 0.844-0.108 0.235-0.213 0.469-0.315 0.706 0.536 0.058 1.081 0.012 1.608-0.162 0.978-0.32 1.774-1.001 2.239-1.922 0.32-0.632 1.094-0.888 1.728-0.564 0.634 0.32 0.887 1.095 0.566 1.728-0.64 1.264-0.134 2.814 1.131 3.455 0.634 0.32 0.887 1.095 0.566 1.728-0.226 0.447-0.679 0.704-1.148 0.704-0.195 0-0.393-0.044-0.58-0.139-1.28-0.649-2.173-1.764-2.575-3.035-0.355 0.197-0.731 0.361-1.126 0.491-1.088 0.356-2.219 0.388-3.308 0.158-0.023 0.076-0.053 0.15-0.076 0.228-0.147 0.492-0.27 0.995-0.387 1.5-0.064 0.276-0.134 0.55-0.189 0.828-0.117 0.599-0.206 1.208-0.279 1.823-0.023 0.193-0.054 0.386-0.073 0.578-0.066 0.687-0.096 1.383-0.105 2.085-0.002 0.155-0.014 0.31-0.013 0.465 0.001 0.269 0.009 0.546 0.022 0.832 0.021 0.524 0.058 1.049 0.112 1.572l0.050 0.532c0.199 1.585 0.548 3.165 1.055 4.718 1.271 3.886 3.43 7.318 6.269 10.099 0.197 0.013 0.393 0.057 0.575 0.165 2.834 1.701 5.076-1.708 5.17-1.854 2.116-3.972 6.801-3.449 7.002-3.422 0.705 0.086 1.206 0.728 1.12 1.432-0.087 0.703-0.742 1.198-1.427 1.12-0.147-0.022-3.153-0.318-4.48 2.17-0.78 1.219-2.316 2.783-4.26 3.369 0.808 0.536 1.643 1.041 2.521 1.486 5.238 2.653 11.108 3.378 16.765 2.113-0.008-1.169-1.302-2.923-3.531-4.054-0.634-0.321-0.886-1.095-0.566-1.728s1.094-0.888 1.728-0.564c2.734 1.386 4.527 3.571 4.881 5.642zM48.621 36.032c-0.698 1.379-1.892 2.403-3.36 2.882-0.591 0.194-1.199 0.291-1.803 0.291-0.897 0-1.788-0.211-2.611-0.629-2.845-1.441-3.986-4.93-2.544-7.774 1.442-2.844 4.93-3.987 7.774-2.544 1.378 0.698 2.401 1.891 2.882 3.36s0.36 3.036-0.338 4.414zM46.328 34.869c0.388-0.766 0.455-1.635 0.189-2.45-0.267-0.816-0.836-1.478-1.602-1.868-0.464-0.235-0.96-0.347-1.447-0.347-1.174 0-2.306 0.644-2.872 1.76-0.801 1.58-0.167 3.518 1.413 4.319 0.766 0.387 1.636 0.454 2.453 0.188 0.816-0.267 1.478-0.836 1.867-1.602zM20.702 17.996c-3.189 0-5.785-2.595-5.785-5.785s2.595-5.785 5.785-5.785 5.785 2.595 5.785 5.785c0 3.189-2.595 5.785-5.785 5.785zM20.702 8.998c-1.771 0-3.214 1.441-3.214 3.214s1.442 3.214 3.214 3.214 3.214-1.441 3.214-3.214-1.442-3.214-3.214-3.214zM37.94 44.31c2.845 1.441 3.986 4.93 2.543 7.773-1.018 2.009-3.057 3.169-5.169 3.169-0.879 0-1.77-0.201-2.606-0.625-1.378-0.698-2.401-1.891-2.882-3.36s-0.361-3.036 0.338-4.414c0.699-1.378 1.892-2.401 3.362-2.882 1.469-0.478 3.038-0.36 4.414 0.339zM38.191 50.921c0.801-1.58 0.167-3.518-1.414-4.319-0.458-0.23-0.951-0.348-1.45-0.348-0.335 0-0.674 0.054-1.003 0.161-0.816 0.267-1.478 0.836-1.867 1.602-0.388 0.765-0.455 1.635-0.188 2.451s0.836 1.478 1.602 1.868c1.581 0.798 3.518 0.166 4.319-1.414zM54.59 48.426c2.845 1.441 3.986 4.93 2.543 7.773-1.018 2.009-3.057 3.169-5.169 3.169-0.879 0-1.77-0.201-2.606-0.625-1.378-0.698-2.401-1.891-2.882-3.36s-0.361-3.036 0.338-4.414c0.699-1.378 1.892-2.401 3.361-2.882 1.468-0.48 3.038-0.36 4.414 0.339zM54.84 55.037c0.802-1.58 0.167-3.517-1.414-4.319-0.458-0.23-0.951-0.348-1.45-0.348-0.335 0-0.674 0.054-1.003 0.161-0.816 0.267-1.478 0.836-1.866 1.602-0.388 0.765-0.455 1.635-0.188 2.451s0.836 1.478 1.602 1.868c1.581 0.8 3.517 0.166 4.319-1.414z"></path>
</svg>
