<!-- Generated by IcoMoon.io -->
<svg version="1.1" xmlns="http://www.w3.org/2000/svg" width="72" height="72" viewBox="0 0 72 72">
<title>uniF120</title>
<path d="M56.815 7.648c8.583 1.112 15.11 8.458 15.185 17.086 0.068 8.073-5.348 15.070-13.174 17.018-1.857 0.462-3.227 2.052-3.409 3.958l-1.040 10.928h0.001l-0.595 6.243c-0.29 3.044-4.651 4.998-5.523 5.358-3.894 1.64-8.076 2.461-12.261 2.461-4.186 0-8.372-0.821-12.272-2.463-0.108-0.045-0.271-0.114-0.473-0.207-1.418-0.655-4.789-2.484-5.042-5.148l-0.595-6.243h0.001l-1.040-10.928c-0.181-1.906-1.552-3.496-3.409-3.958-7.822-1.947-13.237-8.945-13.169-17.018 0.073-8.629 6.6-15.974 15.183-17.086 2.339-0.302 4.675-0.12 6.962 0.536 3.281-4.327 8.393-6.885 13.854-6.885s10.573 2.556 13.854 6.885c2.287-0.659 4.623-0.839 6.962-0.536zM47.306 65.948c1.554-0.647 3.898-2.143 4.006-3.302l0.154-1.611c-4.91 2.373-10.101 3.575-15.467 3.575s-10.558-1.202-15.468-3.575l0.154 1.611c0.111 1.159 2.453 2.654 4.001 3.3 7.191 3.030 15.434 3.029 22.62 0.002zM58.231 39.342c6.703-1.667 11.345-7.665 11.287-14.586-0.063-7.396-5.662-13.691-13.021-14.643-2.259-0.293-4.521-0.057-6.723 0.7l-0.899 0.309-0.534-0.787c-2.779-4.101-7.392-6.552-12.341-6.552s-9.561 2.451-12.341 6.551l-0.534 0.787-0.899-0.309c-1.591-0.548-3.215-0.823-4.845-0.823-0.626 0-1.252 0.042-1.878 0.123-7.36 0.954-12.958 7.249-13.021 14.645-0.058 6.919 4.583 12.918 11.287 14.586 2.876 0.716 4.999 3.18 5.281 6.132l1.202 12.615c4.97 2.67 10.264 4.037 15.748 4.037s10.778-1.367 15.748-4.037l1.202-12.615c0.282-2.951 2.404-5.416 5.281-6.132zM23.432 43.517c0.673-0.078 1.3 0.396 1.385 1.077l1.241 9.931c0.086 0.68-0.397 1.301-1.077 1.385-0.052 0.006-0.103 0.010-0.155 0.010-0.617 0-1.152-0.459-1.23-1.088l-1.241-9.931c-0.086-0.68 0.397-1.301 1.078-1.385zM32.276 45.989c0.685 0 1.241 0.555 1.241 1.241v9.931c0 0.687-0.556 1.241-1.241 1.241s-1.241-0.555-1.241-1.241v-9.931c0-0.687 0.556-1.241 1.241-1.241zM48.568 43.517c0.68 0.084 1.163 0.705 1.078 1.385l-1.241 9.931c-0.078 0.628-0.613 1.088-1.23 1.088-0.051 0-0.103-0.004-0.155-0.010-0.68-0.084-1.162-0.705-1.077-1.385l1.241-9.931c0.084-0.682 0.711-1.156 1.385-1.077zM39.724 45.989c0.685 0 1.241 0.555 1.241 1.241v9.931c0 0.687-0.556 1.241-1.241 1.241s-1.241-0.555-1.241-1.241v-9.931c0-0.687 0.556-1.241 1.241-1.241zM19.876 13.714c0.685 0.007 1.236 0.57 1.229 1.254s-0.591 1.182-1.255 1.228c-8.444-0.143-9.932 6.407-9.947 6.472-0.127 0.581-0.642 0.976-1.212 0.976-0.087 0-0.177-0.009-0.267-0.029-0.669-0.146-1.094-0.808-0.946-1.477 0.017-0.086 2.035-8.512 12.398-8.424zM29.035 9.006c2.289-1.765 8.136-4.048 13.885-0.035 0.562 0.392 0.699 1.167 0.307 1.728-0.242 0.346-0.627 0.531-1.019 0.531-0.246 0-0.494-0.073-0.71-0.225-5.703-3.984-10.893-0.075-10.944-0.034-0.542 0.416-1.323 0.318-1.742-0.225-0.42-0.543-0.319-1.322 0.223-1.742z"></path>
</svg>
