<!-- Generated by IcoMoon.io -->
<svg version="1.1" xmlns="http://www.w3.org/2000/svg" width="72" height="72" viewBox="0 0 72 72">
<title>uniF160</title>
<path d="M54.897 22.384c2.013 6.933-3.45 12.035-4.122 12.63-2.449 2.612-4.976 5.371-6.855 8.074 1.167 1.612 1.8 3.546 1.8 5.543 0 3.294-1.671 6.278-4.42 8.006 0.082 0.466 0.139 0.94 0.194 1.405 0.072 0.601 0.147 1.223 0.275 1.816 0.346 1.593 0.001 3.232-0.932 4.563h6.144c1.012 0 1.963 0.394 2.679 1.109 1.105 1.104 1.42 2.687 0.822 4.129-0.598 1.444-1.939 2.341-3.501 2.341h-21.474c-1.563 0-2.904-0.897-3.5-2.338-0.599-1.444-0.284-3.026 0.821-4.13 0.716-0.715 1.667-1.11 2.679-1.11h5.502c-0.998-1.427-1.32-3.188-0.868-4.883 0.179-0.673 0.301-1.368 0.417-2.037 0.069-0.393 0.135-0.773 0.211-1.144-2.487-1.765-3.998-4.645-3.998-7.724 0-1.844 0.547-3.654 1.554-5.192-1.887-2.794-4.434-5.582-7.099-8.424-0.675-0.596-6.138-5.697-4.124-12.63l0.264-0.912h0.949c0.49-1.93 1.796-3.515 3.509-4.424-0.15-0.571-0.236-1.157-0.236-1.755 0-3.834 3.119-6.952 6.952-6.952 2.142 0 4.093 1.002 5.382 2.583l0.36-4.275-8.962-4.247c-0.63-0.298-0.899-1.051-0.601-1.681 0.299-0.632 1.053-0.898 1.682-0.601l9.753 4.621c0.475 0.224 0.762 0.721 0.718 1.245l-0.567 6.77c0.044 0.004 0.090 0.003 0.134 0.008 1.089-2.501 3.562-4.166 6.366-4.166 3.834 0 6.952 3.12 6.952 6.954 0 0.413-0.042 0.827-0.12 1.239 1.963 0.844 3.473 2.563 4.011 4.68h0.984zM51.005 21.474c-0.575-1.371-1.821-2.384-3.306-2.649-0.088-0.015-0.178-0.027-0.268-0.037-0.109-0.013-0.218-0.020-0.328-0.025-0.105-0.004-0.21-0.005-0.315-0.001-0.135 0.004-0.268 0.019-0.402 0.035-0.126 0.015-0.253 0.033-0.376 0.059-0.169 0.037-0.337 0.080-0.5 0.135-0.097 0.033-0.192 0.076-0.287 0.115-0.121 0.052-0.24 0.105-0.356 0.167-0.083 0.044-0.166 0.088-0.245 0.138-0.154 0.095-0.302 0.198-0.443 0.311-0.030 0.023-0.062 0.043-0.091 0.067 0.004 0.015 0.005 0.032 0.008 0.048 0.045 0.248 0.086 0.496 0.11 0.752 0.028 0.279 0.043 0.558 0.043 0.836v0.049h6.757zM31.773 21.474v-0.001h9.947c0-0.015 0.002-0.034 0.002-0.049 0-0.365-0.047-0.718-0.107-1.066-0.023-0.128-0.050-0.255-0.082-0.383-0.062-0.257-0.14-0.505-0.233-0.748-0.033-0.086-0.057-0.175-0.094-0.26-0.134-0.306-0.296-0.595-0.475-0.873-0.061-0.095-0.126-0.183-0.192-0.274-0.155-0.215-0.323-0.418-0.504-0.611-0.062-0.064-0.117-0.135-0.182-0.197-0.235-0.23-0.491-0.437-0.76-0.628-0.093-0.066-0.192-0.124-0.289-0.184-0.206-0.129-0.421-0.244-0.642-0.349-0.107-0.051-0.212-0.106-0.323-0.15-0.711-0.287-1.483-0.453-2.295-0.453-0.4 0-0.79 0.051-1.171 0.124-0.006 0.001-0.011 0.006-0.018 0.008-1.647 0.322-3.087 1.325-3.989 2.707-0.044 0.068-0.091 0.136-0.133 0.207-0.033 0.054-0.059 0.114-0.091 0.169 0.16 0.174 0.307 0.361 0.448 0.551 0.006 0.008 0.013 0.014 0.018 0.021 0.234 0.316 0.436 0.649 0.613 0.998 0.042 0.081 0.077 0.166 0.115 0.248 0.129 0.282 0.24 0.571 0.331 0.868 0.028 0.088 0.061 0.173 0.085 0.263 0.005 0.021 0.015 0.043 0.020 0.064zM42.805 11.126c-1.642 0-3.106 0.897-3.87 2.28 0.441 0.187 0.86 0.417 1.261 0.672 0.021 0.014 0.043 0.025 0.064 0.039 0.382 0.246 0.738 0.523 1.075 0.825 0.043 0.038 0.083 0.076 0.125 0.114 0.326 0.303 0.629 0.628 0.906 0.976 0.029 0.037 0.054 0.073 0.082 0.11 0.282 0.366 0.541 0.752 0.762 1.161 0.030-0.019 0.064-0.033 0.096-0.052 0.258-0.158 0.52-0.304 0.796-0.427 0.043-0.019 0.088-0.032 0.131-0.051 0.235-0.099 0.474-0.183 0.717-0.256 0.106-0.032 0.212-0.059 0.32-0.086 0.22-0.054 0.441-0.097 0.666-0.13 0.080-0.011 0.158-0.029 0.237-0.038 0.249-0.028 0.5-0.043 0.753-0.043 0.037 0 0.069 0.010 0.106 0.010 0.048 0.001 0.096-0.008 0.144-0.005 0.037-0.225 0.056-0.45 0.056-0.672 0-2.442-1.986-4.427-4.426-4.427zM24.224 16.268c0.271-0.032 0.543-0.048 0.817-0.049 0.402 0 0.797 0.045 1.189 0.115 0.075 0.014 0.148 0.024 0.221 0.039 0.369 0.077 0.729 0.184 1.080 0.32 0.063 0.025 0.124 0.053 0.187 0.080 0.126 0.053 0.255 0.1 0.378 0.16 0.053-0.090 0.124-0.164 0.181-0.251 0.192-0.294 0.39-0.581 0.613-0.848 0.075-0.090 0.158-0.17 0.236-0.256 0.244-0.27 0.5-0.525 0.774-0.762 0.071-0.059 0.144-0.115 0.216-0.173 0.308-0.249 0.63-0.474 0.97-0.677 0.054-0.033 0.109-0.064 0.164-0.096 0.38-0.216 0.774-0.403 1.186-0.559 0.018-0.006 0.033-0.018 0.051-0.024-0.741-1.449-2.257-2.418-3.946-2.418-2.44 0-4.426 1.986-4.426 4.426 0 0.33 0.037 0.656 0.11 0.974zM23.813 18.929c-1.282 0.375-2.339 1.316-2.853 2.547h8.135c-0.034-0.083-0.061-0.169-0.1-0.249-0.032-0.064-0.062-0.13-0.097-0.192-0.112-0.205-0.243-0.398-0.385-0.582-0.052-0.064-0.105-0.125-0.159-0.187-0.134-0.154-0.28-0.298-0.436-0.433-0.035-0.030-0.075-0.057-0.111-0.087-0.537-0.435-1.163-0.736-1.828-0.882-0.025-0.006-0.049-0.013-0.075-0.018-0.333-0.068-0.675-0.096-1.016-0.086-0.035 0.001-0.069 0.005-0.105 0.008-0.326 0.018-0.652 0.069-0.97 0.162zM47.875 67.316c-0.236-0.235-0.561-0.369-0.893-0.369h-21.474c-0.333 0-0.658 0.134-0.893 0.37-0.555 0.555-0.35 1.195-0.274 1.377s0.384 0.779 1.167 0.779h21.474c0.783 0 1.090-0.598 1.167-0.781 0.076-0.184 0.279-0.824-0.274-1.377zM49.076 33.143c0.193-0.166 4.52-3.961 3.61-9.143h-33.365c-0.909 5.222 3.558 9.102 3.606 9.143l0.102 0.097c2.994 3.192 5.851 6.325 7.9 9.561l0.484 0.765-0.57 0.705c-1.011 1.248-1.544 2.755-1.544 4.359 0 2.493 1.353 4.81 3.53 6.044l0.864 0.49-0.272 0.955c-0.15 0.532-0.259 1.155-0.374 1.814-0.125 0.724-0.255 1.473-0.463 2.253-0.27 1.021-0.058 2.085 0.585 2.92 0.642 0.835 1.614 1.314 2.668 1.314h0.164c1.031 0 1.992-0.46 2.64-1.263 0.63-0.783 0.872-1.79 0.661-2.764-0.155-0.709-0.236-1.392-0.316-2.051-0.087-0.729-0.17-1.419-0.34-1.979l-0.309-1.027 0.961-0.473c2.401-1.181 3.893-3.568 3.893-6.232 0-1.708-0.633-3.351-1.782-4.632l-0.648-0.721 0.529-0.812c2.040-3.13 4.914-6.274 7.682-9.226zM36.245 44.211c2.437 0 4.421 1.983 4.421 4.421s-1.983 4.421-4.421 4.421c-2.438 0-4.421-1.983-4.421-4.421s1.983-4.421 4.421-4.421zM36.245 50.526c1.045 0 1.895-0.85 1.895-1.895s-0.85-1.895-1.895-1.895c-1.044 0-1.895 0.85-1.895 1.895s0.85 1.895 1.895 1.895z"></path>
</svg>
