<!-- Generated by IcoMoon.io -->
<svg version="1.1" xmlns="http://www.w3.org/2000/svg" width="72" height="72" viewBox="0 0 72 72">
<title>uniF13D</title>
<path d="M32.648 48.732c0.672 0.045 1.181 0.626 1.137 1.298-0.044 0.646-0.58 1.14-1.217 1.14-0.028 0-0.055-0.001-0.083-0.002-2.304-0.154-4.595-0.463-6.813-0.909-0.81 1.278-2.198 2.176-3.859 2.383v1.257c0 2.382-1.939 4.321-4.322 4.321s-4.322-1.939-4.322-4.321v-3.667c-2.238-1.584-4.005-3.816-5.013-6.346-0.264-0.665-0.323-1.38-0.225-2.099-1.668-1.516-3.146-3.212-4.39-5.046-0.377-0.558-0.232-1.317 0.327-1.695 0.56-0.377 1.317-0.231 1.695 0.327 0.975 1.441 2.119 2.784 3.389 4.016 0.704-0.908 1.677-1.6 2.713-1.884 2.613-0.721 5.109 0.658 6.211 3.424 0.317 0.797 2.15 1.64 3.407 1.583 1.263-0.094 2.507 0.397 3.491 1.324 1.042 0.984 1.665 2.388 1.665 3.759 0 0.107-0.023 0.21-0.029 0.316 2.034 0.397 4.127 0.681 6.237 0.821zM21.286 50.24c1.348-0.079 2.714-1.014 2.714-2.646 0-0.711-0.336-1.452-0.898-1.983-0.491-0.463-1.088-0.704-1.675-0.664-1.861 0.112-4.985-1.023-5.817-3.117-0.423-1.064-1.302-2.075-2.577-2.075-0.227 0-0.466 0.032-0.719 0.101-0.699 0.193-1.385 0.79-1.75 1.522-0.196 0.397-0.381 0.996-0.139 1.603 0.903 2.267 2.544 4.246 4.621 5.571 0.352 0.225 0.564 0.611 0.564 1.029v4.316c0 1.037 0.843 1.881 1.882 1.881s1.882-0.843 1.882-1.881v-2.43c0-0.326 0.129-0.637 0.361-0.866 0.231-0.23 0.559-0.342 0.87-0.354 0.228 0.005 0.453 0.004 0.682-0.009zM43.713 47.787c6.107-1.118 14.714-3.895 21.041-10.783 0.458-0.499 1.229-0.528 1.724-0.073 0.497 0.456 0.53 1.228 0.073 1.724-6.786 7.384-15.927 10.346-22.399 11.531-0.074 0.015-0.148 0.021-0.221 0.021-0.578 0-1.092-0.413-1.2-1.001-0.121-0.663 0.319-1.297 0.981-1.419zM38.355 37.754c-0.167 0.013-0.333 0.028-0.503 0.038-0.41 0.024-0.824 0.039-1.242 0.039s-0.832-0.015-1.242-0.039c-0.17-0.010-0.336-0.024-0.503-0.038-0.223-0.018-0.444-0.038-0.664-0.062-0.221-0.026-0.441-0.052-0.658-0.084-0.129-0.018-0.256-0.040-0.384-0.061-5.799-0.948-9.973-4.232-9.973-8.258 0-4.79 5.897-8.542 13.424-8.542s13.424 3.753 13.424 8.542c0 4.026-4.174 7.31-9.973 8.258-0.128 0.021-0.255 0.043-0.384 0.061-0.217 0.032-0.436 0.060-0.658 0.084-0.22 0.024-0.442 0.044-0.664 0.062zM45.548 32.775c0.044-0.033 0.093-0.065 0.135-0.1 0.265-0.217 0.503-0.447 0.719-0.685 0.013-0.015 0.026-0.029 0.039-0.044-2.951-1.103-6.319-1.682-9.831-1.682s-6.88 0.578-9.829 1.684c0.013 0.015 0.026 0.029 0.039 0.044 0.215 0.237 0.454 0.466 0.719 0.685 0.041 0.033 0.090 0.065 0.133 0.098 0.203 0.16 0.421 0.312 0.649 0.46 0.137 0.089 0.278 0.175 0.423 0.259 0.148 0.085 0.301 0.165 0.456 0.245 0.297 0.153 0.609 0.297 0.934 0.432 0.146 0.061 0.29 0.124 0.443 0.181 0.201 0.076 0.411 0.144 0.621 0.212 0.176 0.057 0.356 0.111 0.538 0.162 0.194 0.055 0.388 0.111 0.588 0.16 0.364 0.088 0.735 0.166 1.115 0.232 0.141 0.024 0.287 0.043 0.431 0.063 0.311 0.046 0.625 0.085 0.943 0.116 0.142 0.013 0.282 0.027 0.425 0.037 0.452 0.033 0.907 0.056 1.37 0.056s0.919-0.023 1.37-0.057c0.143-0.010 0.284-0.023 0.425-0.037 0.318-0.031 0.633-0.071 0.943-0.116 0.143-0.022 0.289-0.039 0.431-0.063 0.381-0.065 0.752-0.144 1.115-0.232 0.201-0.049 0.395-0.105 0.589-0.16 0.182-0.051 0.361-0.105 0.538-0.162 0.21-0.068 0.42-0.137 0.621-0.212 0.153-0.056 0.297-0.12 0.443-0.181 0.325-0.136 0.636-0.279 0.934-0.432 0.155-0.081 0.31-0.16 0.456-0.245 0.145-0.084 0.287-0.17 0.423-0.259 0.227-0.148 0.445-0.299 0.648-0.459zM36.61 23.186c-5.953 0-10.983 2.795-10.983 6.102 0 0.159 0.022 0.316 0.044 0.472 3.286-1.268 7.036-1.937 10.939-1.937s7.653 0.669 10.939 1.937c0.022-0.156 0.044-0.314 0.044-0.472 0-3.307-5.030-6.102-10.983-6.102zM36 4.881c19.851 0 36 11.497 36 25.627v10.978c0 14.135-16.149 25.632-36 25.632s-36-11.497-36-25.627v-10.983c0-14.13 16.149-25.627 36-25.627zM69.559 41.492v-10.983c0-12.785-15.054-23.187-33.559-23.187s-33.559 10.401-33.559 23.187v10.978c0 12.79 15.054 23.191 33.559 23.191s33.559-10.401 33.559-23.187zM20.592 46.468c0.672-0.116 1.291 0.348 1.397 1.012 0.105 0.666-0.349 1.291-1.014 1.397-0.41 0.066-0.802 0.095-1.175 0.095-3.28 0-5.084-2.276-5.167-2.383-0.414-0.532-0.316-1.298 0.217-1.712 0.531-0.409 1.291-0.316 1.706 0.21 0.067 0.084 1.48 1.783 4.036 1.381z"></path>
</svg>
