<!-- Generated by IcoMoon.io -->
<svg version="1.1" xmlns="http://www.w3.org/2000/svg" width="72" height="72" viewBox="0 0 72 72">
<title>uniF13E</title>
<path d="M69.731 37.41c-0.685 0.982-0.73 2.23-0.116 3.257 1.378 2.305 1.89 4.952 1.482 7.655-0.797 5.275-5.278 9.974-11.153 11.694-2.537 0.744-5.090 0.935-7.596 0.577-1.446-0.211-3.1 0.424-4.126 1.562-3.332 3.7-8.606 6.029-14.112 6.23-0.247 0.010-0.492 0.014-0.736 0.014-7.254 0-13.218-3.977-14.321-9.644l-0.030-0.167c-0.518-2.88-2.851-5.248-6.4-6.474-5.759-1.993-12.624-5.364-12.624-10.099 0-3.569 1.919-6.935 5.4-9.478 2.716-1.982 3.692-4.636 2.617-7.097-0.91-2.077-1.162-4.216-0.751-6.356 1.18-6.156 8.021-10.586 16.306-10.586 0.067 0 0.132 0.001 0.199 0.001 1.867 0.016 3.713 0.245 5.486 0.677 2.241 0.547 4.505 0.028 5.495-1.266 2.506-3.271 7.106-4.858 12.006-4.141 5.89 0.862 9.531 3.748 11.131 8.824 0.629 1.991 2.296 3.712 4.459 4.602 5.863 2.412 9.652 7.555 9.652 13.102 0 2.525-0.784 4.985-2.269 7.114zM68.723 47.963c0.324-2.147-0.080-4.244-1.169-6.063-1.104-1.847-1.024-4.092 0.209-5.861 1.202-1.723 1.837-3.708 1.837-5.74 0-4.57-3.205-8.842-8.165-10.882-2.813-1.158-4.996-3.437-5.836-6.1-1.313-4.168-4.232-6.446-9.188-7.171-4.046-0.587-7.778 0.647-9.754 3.227-1.578 2.056-4.782 2.915-7.969 2.137-1.595-0.389-3.257-0.594-4.939-0.61-0.060 0-0.12-0.001-0.181-0.001-7.133 0-12.983 3.613-13.944 8.639-0.319 1.656-0.12 3.318 0.592 4.942 1.536 3.512 0.234 7.343-3.4 9.997-2.848 2.079-4.416 4.757-4.416 7.538 0 2.518 4.116 5.446 11.010 7.83 4.392 1.519 7.301 4.559 7.98 8.338 0.934 4.805 6.276 8.053 12.632 7.805 4.871-0.179 9.512-2.213 12.418-5.438 1.565-1.736 4.020-2.653 6.25-2.333h0.001c2.159 0.312 4.376 0.14 6.578-0.505 4.996-1.462 8.795-5.378 9.454-9.749zM45 20.4c8.933 0 16.2 7.267 16.2 16.2s-7.267 16.2-16.2 16.2-16.2-7.266-16.2-16.2 7.267-16.2 16.2-16.2zM45 50.4c7.609 0 13.8-6.191 13.8-13.8s-6.191-13.8-13.8-13.8c-7.609 0-13.8 6.191-13.8 13.8s6.191 13.8 13.8 13.8zM45 25.2c0.664 0 1.2 0.536 1.2 1.2s-0.536 1.2-1.2 1.2c-0.904 0-1.794 0.133-2.647 0.396-0.118 0.036-0.236 0.053-0.353 0.053-0.514 0-0.988-0.331-1.147-0.847-0.194-0.632 0.161-1.304 0.794-1.5 1.081-0.332 2.21-0.502 3.353-0.502zM37.655 27.882c0.508-0.427 1.264-0.362 1.691 0.145 0.427 0.506 0.362 1.264-0.144 1.691-2.034 1.715-3.202 4.223-3.202 6.882 0 0.664-0.536 1.2-1.2 1.2s-1.2-0.536-1.2-1.2c0-3.368 1.477-6.545 4.055-8.718zM19.909 15.112c0.268 0.604-0.004 1.314-0.61 1.584-2.102 0.936-3.817 2.402-5.095 4.361-0.23 0.353-0.614 0.544-1.006 0.544-0.224 0-0.453-0.064-0.654-0.196-0.554-0.362-0.711-1.105-0.348-1.661 1.535-2.352 3.598-4.115 6.128-5.242 0.607-0.266 1.314 0.005 1.584 0.61zM23.581 15.594c-0.667 0.062-1.247-0.419-1.31-1.078-0.065-0.66 0.418-1.247 1.078-1.31 1.861-0.179 3.163-0.001 3.218 0.006 0.656 0.092 1.114 0.7 1.021 1.356-0.084 0.6-0.599 1.032-1.187 1.032-0.055 0-0.11-0.004-0.167-0.012-0.026-0.002-1.106-0.142-2.653 0.006zM31.051 59.908c0.665-0.083 1.258 0.385 1.34 1.043s-0.384 1.258-1.042 1.339l-0.196 0.023c-0.292 0.032-0.581 0.048-0.866 0.048-3.714 0-6.96-2.662-7.601-6.374-0.113-0.653 0.324-1.273 0.978-1.386 0.652-0.108 1.273 0.324 1.386 0.978 0.475 2.749 3.025 4.656 5.821 4.35zM23.377 53.822c-0.196 0.12-0.412 0.178-0.625 0.178-0.404 0-0.798-0.204-1.025-0.574-0.866-1.415-1.943-2.099-1.954-2.106-0.566-0.346-0.744-1.084-0.397-1.649 0.346-0.565 1.086-0.748 1.649-0.397 0.065 0.038 1.571 0.973 2.748 2.898 0.347 0.566 0.169 1.304-0.396 1.65z"></path>
</svg>
