<!-- Generated by IcoMoon.io -->
<svg version="1.1" xmlns="http://www.w3.org/2000/svg" width="72" height="72" viewBox="0 0 72 72">
<title>uniF1A9</title>
<path d="M70.894 3.9c0.713 0.712 1.106 1.663 1.106 2.676s-0.394 1.963-1.106 2.676l-22.219 22.216-3.048-3.050-7.114 7.114c3.281 3.774 5.378 8.343 6.086 13.328l-2.66 0.378c-0.712-5.022-2.99-9.576-6.587-13.174-3.596-3.595-8.151-5.874-13.171-6.587l0.378-2.66c5.327 0.758 10.173 3.11 14.085 6.787l7.085-7.085-2.651-2.651 22.218-22.216c1.424-1.425 3.923-1.425 5.351 0zM50.94 17.807l-0.725 0.725 5.7 1.9 0.725-0.725zM44.877 23.869l3.801 3.801 5.113-5.113-5.7-1.9zM68.995 7.351c0.206-0.205 0.318-0.481 0.317-0.775 0-0.296-0.113-0.571-0.318-0.777l-2.249-2.248c-0.411-0.412-1.139-0.412-1.549 0l-12.132 12.131 5.7 1.9zM20.152 31.114c5.383 0 10.443 2.096 14.248 5.903 3.806 3.806 5.903 8.867 5.903 14.249 0 5.383-2.096 10.443-5.902 14.248-3.807 3.806-8.867 5.903-14.25 5.903s-10.443-2.097-14.248-5.903-5.903-8.865-5.903-14.248c0-5.382 2.097-10.443 5.903-14.249s8.865-5.903 14.248-5.903zM32.502 63.614c3.298-3.298 5.114-7.684 5.114-12.349s-1.816-9.051-5.114-12.349c-3.299-3.298-7.684-5.116-12.35-5.116-4.664 0-9.049 1.818-12.349 5.116-3.298 3.299-5.116 7.684-5.116 12.349s1.818 9.051 5.116 12.349c3.298 3.298 7.685 5.116 12.349 5.116 4.666 0 9.051-1.818 12.35-5.116zM20.152 44.548c1.795 0 3.482 0.7 4.75 1.968s1.967 2.954 1.967 4.749c0 1.795-0.7 3.481-1.968 4.749s-2.955 1.968-4.749 1.968c-1.795 0-3.482-0.7-4.75-1.968s-1.967-2.954-1.967-4.749c0-1.795 0.697-3.481 1.967-4.749s2.955-1.968 4.75-1.968zM23.002 54.115c0.76-0.762 1.18-1.772 1.18-2.849s-0.419-2.089-1.181-2.849c-0.762-0.76-1.773-1.181-2.849-1.181-1.077 0-2.089 0.42-2.851 1.181-0.76 0.76-1.179 1.773-1.179 2.849s0.42 2.088 1.181 2.849c1.523 1.522 4.177 1.522 5.7 0z"></path>
</svg>
