<!-- Generated by IcoMoon.io -->
<svg version="1.1" xmlns="http://www.w3.org/2000/svg" width="72" height="72" viewBox="0 0 72 72">
<title>uniF1DD</title>
<path d="M53.011 30.378c7.091 0.63 12.672 6.596 12.672 13.848v22.72h-2.526c0 2.787-2.266 5.053-5.053 5.053s-5.052-2.266-5.052-5.053h-34.105c0 2.787-2.266 5.053-5.052 5.053s-5.053-2.266-5.053-5.053h-2.526v-22.72c0-7.271 5.61-13.247 12.726-13.852v-3.775c-4.706-2.992-7.091-8.671-6.102-14.642 0.984-5.937 5.625-10.644 11.546-11.717 2.030-0.366 4.053-0.316 6.013 0.154 3.62 0.869 7.449 0.868 11.066 0 1.65-0.394 3.35-0.493 5.067-0.294 6.347 0.739 11.489 5.642 12.502 11.923 1.024 6.35-1.311 11.947-6.122 14.809v3.547zM15.432 12.371c-0.863 5.208 1.194 9.937 5.368 12.342 0.474 0.272 0.768 0.779 0.768 1.328v4.276h28.917v-4.226c0-0.472 0.264-0.906 0.683-1.123 4.267-2.207 6.364-7.013 5.471-12.542-0.834-5.169-5.069-9.206-10.302-9.816-1.412-0.166-2.823-0.083-4.184 0.244-4.007 0.961-8.238 0.96-12.245 0-1.616-0.389-3.289-0.429-4.974-0.125-4.796 0.868-8.704 4.833-9.503 9.643zM13.895 69.474c1.393 0 2.526-1.134 2.526-2.526h-5.052c0 1.393 1.133 2.526 2.526 2.526zM58.104 69.474c1.393 0 2.526-1.134 2.526-2.526h-5.053c0 1.393 1.133 2.526 2.526 2.526zM63.157 64.421v-3.789h-54.315v3.789h54.315zM8.842 58.105v-0.001h54.317v-13.878c0-6.278-5.107-11.385-11.385-11.385h-31.548c-6.278 0-11.385 5.107-11.385 11.385v13.879zM22.737 40.422c2.090 0 3.789 1.7 3.789 3.789s-1.7 3.789-3.789 3.789h-1.263v5.053c0 0.698-0.565 1.263-1.263 1.263s-1.263-0.565-1.263-1.263v-5.053h-1.263c-2.089 0-3.789-1.7-3.789-3.789s1.7-3.789 3.789-3.789h1.263v-2.526c0-0.698 0.565-1.263 1.263-1.263s1.263 0.565 1.263 1.263v2.526h1.263zM22.737 45.474c0.697 0 1.263-0.566 1.263-1.263s-0.566-1.263-1.263-1.263h-5.053c-0.697 0-1.263 0.566-1.263 1.263s0.566 1.263 1.263 1.263h5.053zM22.366 17.315c-0.246 0.246-0.57 0.37-0.893 0.37s-0.647-0.124-0.893-0.37c-0.494-0.494-0.494-1.292 0-1.786l8.21-8.21c0.494-0.494 1.292-0.494 1.786 0s0.494 1.292 0 1.786zM23.107 24.894c-0.493-0.494-0.493-1.293 0-1.786l17.684-17.684c0.494-0.494 1.292-0.494 1.786 0s0.494 1.292 0 1.786l-17.684 17.684c-0.246 0.246-0.57 0.37-0.893 0.37s-0.647-0.124-0.893-0.37zM29.422 28.683c-0.493-0.494-0.493-1.293 0-1.786l18.947-18.947c0.494-0.494 1.292-0.494 1.786 0s0.494 1.292 0 1.786l-18.947 18.947c-0.246 0.246-0.57 0.37-0.893 0.37s-0.647-0.124-0.893-0.37zM49.001 17.424c0.494-0.494 1.292-0.494 1.786 0s0.494 1.292 0 1.786l-9.473 9.473c-0.246 0.246-0.57 0.37-0.893 0.37s-0.647-0.124-0.893-0.37c-0.494-0.494-0.494-1.292 0-1.786z"></path>
</svg>
