<!-- Generated by IcoMoon.io -->
<svg version="1.1" xmlns="http://www.w3.org/2000/svg" width="72" height="72" viewBox="0 0 72 72">
<title>uniF10F</title>
<path d="M60.632 10.737c6.268 0 11.368 5.099 11.368 11.369v7.579c0 2.915-1.115 5.691-3.139 7.814-1.234 1.295-1.914 3.028-1.914 4.881v9.848c0 4.982-4.054 9.035-9.037 9.035h-42.719c-5.591 0-10.139-4.547-10.139-10.139v-9.032c0-1.707-0.615-3.297-1.686-4.36-2.171-2.154-3.366-5.012-3.366-8.046v-7.579c0-6.269 5.101-11.369 11.368-11.369h49.263zM57.877 13.263h-1.522c-0.141 0-0.213 0.081-0.248 0.149-0.049 0.096-0.042 0.191 0.022 0.279 1.084 1.509 1.857 3.086 2.299 4.687 0.013 0.046 0.052 0.184 0.255 0.192 0.21 0.029 0.246-0.128 0.263-0.172 0.769-2.196 0.47-3.863-0.914-5.099-0.015-0.013-0.072-0.037-0.154-0.037zM46.013 13.263h-1.523c-0.141 0-0.213 0.081-0.248 0.149-0.049 0.096-0.042 0.191 0.022 0.279 1.084 1.509 1.857 3.086 2.299 4.687 0.013 0.046 0.052 0.184 0.255 0.192 0.226 0.029 0.248-0.129 0.263-0.173 0.771-2.194 0.471-3.861-0.913-5.098-0.015-0.013-0.072-0.037-0.154-0.037zM15.192 58.737v-0.001h9.513c3.791 0 6.874-3.083 6.874-6.874v-10.362c0-2.030 0.864-4.005 2.434-5.563 1.689-1.676 2.618-3.897 2.618-6.253v-9.805c0-3.648-2.968-6.617-6.616-6.617h-18.647c-4.876 0-8.842 3.968-8.842 8.842v7.579c0 2.356 0.93 4.576 2.62 6.254 1.546 1.535 2.433 3.778 2.433 6.154v9.032c0 4.197 3.416 7.613 7.613 7.613zM69.474 29.684v-7.579c0-4.691-3.676-8.531-8.294-8.817 0.875 1.674 0.945 3.685 0.154 5.943v0.001c-0.4 1.142-1.426 1.863-2.631 1.863-0.035 0-0.069 0-0.104-0.001-1.251-0.042-2.272-0.845-2.605-2.045-0.363-1.312-1.007-2.62-1.916-3.887-0.405-0.563-0.556-1.238-0.49-1.901h-4.287c0.889 1.68 0.963 3.702 0.167 5.972-0.399 1.141-1.425 1.863-2.63 1.863-0.034 0-0.068 0-0.102-0.001-1.233-0.042-2.279-0.863-2.606-2.045-0.363-1.312-1.007-2.62-1.916-3.887-0.405-0.563-0.556-1.238-0.49-1.901h-5.416c1.752 1.666 2.851 4.013 2.851 6.617v9.805c0 3.034-1.195 5.893-3.366 8.047-1.088 1.079-1.686 2.418-1.686 3.769v10.362c0 2.715-1.163 5.156-3.010 6.874h26.816c3.59 0 6.51-2.919 6.51-6.509v-9.848c0-2.505 0.927-4.857 2.61-6.623 1.575-1.653 2.443-3.811 2.443-6.073zM59.368 37.263c0.697 0 1.263 0.565 1.263 1.263s-0.566 1.263-1.263 1.263h-11.369c-0.697 0-1.263-0.565-1.263-1.263s0.566-1.263 1.263-1.263h11.369zM42.947 37.263c0.697 0 1.263 0.565 1.263 1.263s-0.566 1.263-1.263 1.263h-2.526c-0.697 0-1.263-0.565-1.263-1.263s0.566-1.263 1.263-1.263h2.526zM14.156 45.103c-0.246 0.246-0.57 0.37-0.893 0.37s-0.647-0.124-0.893-0.37c-0.494-0.494-0.494-1.292 0-1.786l1.895-1.895c0.494-0.494 1.292-0.494 1.786 0s0.494 1.292 0 1.786zM23.486 36.496c-0.267 0-0.536-0.085-0.764-0.259l-2.132-1.623c-0.555-0.423-0.662-1.215-0.239-1.77 0.422-0.556 1.214-0.663 1.77-0.24l2.132 1.623c0.555 0.423 0.662 1.215 0.239 1.77-0.248 0.327-0.624 0.499-1.006 0.499zM15.054 51.056l2.132 1.622c0.555 0.423 0.662 1.215 0.239 1.77-0.248 0.327-0.624 0.499-1.006 0.499-0.267 0-0.536-0.083-0.764-0.258l-2.132-1.623c-0.555-0.423-0.662-1.215-0.239-1.77 0.422-0.555 1.214-0.663 1.77-0.24zM26.692 47.439c0.2 0.668-0.182 1.372-0.85 1.571l-2.568 0.763c-0.121 0.034-0.243 0.052-0.361 0.052-0.544 0-1.047-0.354-1.21-0.903-0.2-0.668 0.182-1.372 0.85-1.571l2.568-0.763c0.669-0.191 1.373 0.182 1.571 0.851zM8.885 22.367c-0.246 0.246-0.57 0.37-0.893 0.37s-0.647-0.124-0.893-0.37c-0.494-0.494-0.494-1.292 0-1.786l1.895-1.895c0.494-0.494 1.292-0.494 1.786 0s0.494 1.292 0 1.786zM11.915 29.942c0.556 0.423 0.663 1.215 0.239 1.77-0.248 0.327-0.624 0.499-1.005 0.499-0.267 0-0.536-0.083-0.764-0.259l-2.132-1.623c-0.555-0.423-0.662-1.215-0.239-1.77 0.422-0.555 1.214-0.663 1.77-0.24zM31.603 31.456c-0.605 0-1.141-0.436-1.244-1.053l-0.446-2.643c-0.118-0.687 0.347-1.339 1.035-1.455 0.693-0.113 1.339 0.347 1.455 1.036l0.446 2.643c0.117 0.687-0.347 1.339-1.035 1.455-0.071 0.011-0.141 0.018-0.211 0.018zM21.421 24.702c0.2 0.668-0.182 1.372-0.85 1.571l-2.568 0.763c-0.121 0.034-0.243 0.052-0.361 0.052-0.544 0-1.047-0.354-1.21-0.903-0.2-0.668 0.182-1.372 0.85-1.571l2.568-0.763c0.669-0.191 1.373 0.183 1.571 0.851zM24.806 20.757c-0.651-0.254-0.973-0.985-0.72-1.637 0.251-0.649 0.984-0.971 1.634-0.72l2.499 0.97c0.651 0.253 0.973 0.984 0.72 1.636-0.193 0.5-0.672 0.806-1.177 0.806-0.153 0-0.307-0.027-0.457-0.085z"></path>
</svg>
