<!-- Generated by IcoMoon.io -->
<svg version="1.1" xmlns="http://www.w3.org/2000/svg" width="72" height="72" viewBox="0 0 72 72">
<title>uniF1BA</title>
<path d="M71.216 34.482c0.547 0.586 0.832 1.383 0.778 2.185-0.721 10.636-7.488 15.976-17.424 20.722-1.11 0.53-2.026 1.412-2.58 2.484-0.541 1.047-0.456 2.398 0.224 3.528 0.534 0.888 0.548 1.93 0.051 2.81-0.497 0.879-1.397 1.404-2.408 1.404h-27.713c-1.010 0-1.91-0.524-2.408-1.404s-0.483-1.923 0.039-2.788c0.692-1.15 0.778-2.503 0.236-3.551-0.556-1.073-1.471-1.953-2.58-2.483-9.939-4.746-16.704-10.087-17.424-20.723-0.055-0.801 0.229-1.599 0.777-2.185 0.544-0.581 1.31-0.914 2.102-0.914h1.143c-0.418-0.566-0.671-1.246-0.671-1.967 0-1.081 0.528-2.099 1.412-2.723l0.429-0.303c0.355-0.249 0.48-0.716 0.298-1.11l-0.22-0.474c-0.455-0.984-0.404-2.128 0.137-3.065 0.54-0.935 1.507-1.553 2.583-1.65l0.523-0.047c0.432-0.039 0.773-0.381 0.812-0.812l0.047-0.524c0.097-1.076 0.714-2.042 1.65-2.582 0.935-0.54 2.082-0.592 3.063-0.137l0.477 0.221c0.124 0.057 0.244 0.068 0.358 0.063 0.142-0.37 0.315-0.73 0.548-1.062l7.004-9.941c1.544-2.194 4.584-2.719 6.778-1.175 1.058 0.745 1.763 1.863 1.986 3.147 0.224 1.282-0.066 2.572-0.811 3.631l-3.827 5.431c0.782 0.536 1.328 1.383 1.42 2.404l0.047 0.522c0.029 0.325 0.229 0.597 0.507 0.73 0.108-0.28 0.191-0.541 0.208-0.728l0.047-0.524c0.097-1.076 0.714-2.043 1.651-2.583s2.082-0.593 3.063-0.136l0.477 0.221c0.392 0.182 0.86 0.055 1.109-0.298l0.303-0.43c0.621-0.883 1.639-1.411 2.72-1.411 0.26 0 0.516 0.034 0.764 0.092 0.107-6.613 5.512-11.962 12.15-11.962 6.639 0 12.046 5.353 12.149 11.968 4.404 1.919 7.306 6.286 7.306 11.136 0 2.151-0.581 4.24-1.65 6.080h0.236c0.793 0 1.559 0.333 2.102 0.914zM68.097 27.488c0-3.601-2-6.868-5.106-8.547-0.126 0.63-0.314 1.238-0.534 1.83-0.019 0.054-0.039 0.109-0.060 0.163-0.097 0.251-0.203 0.495-0.316 0.737-0.041 0.089-0.084 0.175-0.126 0.263-0.109 0.22-0.222 0.438-0.345 0.651-0.058 0.102-0.122 0.201-0.182 0.3-0.122 0.197-0.243 0.395-0.376 0.586-0.074 0.107-0.156 0.207-0.232 0.31-0.218 0.293-0.446 0.574-0.688 0.845-0.128 0.144-0.253 0.289-0.388 0.427-0.118 0.119-0.242 0.232-0.365 0.347-0.144 0.134-0.286 0.268-0.435 0.395-0.125 0.107-0.254 0.208-0.384 0.31-0.158 0.124-0.32 0.246-0.484 0.362-0.13 0.092-0.261 0.182-0.395 0.27-0.18 0.118-0.365 0.227-0.551 0.336-0.126 0.074-0.253 0.15-0.383 0.219-0.232 0.124-0.472 0.236-0.713 0.344-0.090 0.041-0.178 0.088-0.27 0.126-0.332 0.14-0.671 0.263-1.018 0.373-0.109 0.035-0.221 0.061-0.332 0.092-0.247 0.070-0.496 0.139-0.749 0.193-0.137 0.030-0.277 0.053-0.416 0.079-0.235 0.043-0.472 0.079-0.711 0.108-0.145 0.018-0.291 0.033-0.436 0.045-0.096 0.007-0.19 0.023-0.287 0.029l0.28 0.198c0.883 0.62 1.411 1.637 1.411 2.719 0 0.241-0.035 0.475-0.085 0.706-0.012 0.058-0.026 0.114-0.041 0.17-0.062 0.225-0.139 0.446-0.246 0.653-0.004 0.006-0.009 0.012-0.012 0.018-0.077 0.146-0.162 0.287-0.26 0.421h4.294v-4.864c0-0.672 0.544-1.216 1.216-1.216s1.216 0.544 1.216 1.216v4.864h6.362c1.39-1.728 2.15-3.867 2.15-6.080zM51.072 6.816c-5.365 0-9.728 4.364-9.728 9.728 0 0.589 0.060 1.197 0.178 1.812 0.117 0.064 0.244 0.1 0.372 0.108 0.007 0 0.013 0.001 0.021 0.001 0.13 0.005 0.259-0.017 0.381-0.073l0.474-0.22c0.235-0.108 0.478-0.184 0.726-0.235 0.085-0.017 0.171-0.017 0.258-0.028 0.139-0.018 0.276-0.045 0.416-0.045 0.023 0 0.046 0.010 0.069 0.010 0.185 0.004 0.365 0.036 0.547 0.072 0.091 0.017 0.183 0.019 0.272 0.045 0.268 0.074 0.529 0.177 0.775 0.32 0.367 0.213 0.669 0.505 0.925 0.829l1.735-1.735c0.476-0.476 1.244-0.476 1.719 0s0.475 1.244 0 1.719l-2.599 2.597c0.134 0.28 0.406 0.478 0.728 0.507l0.524 0.048c1.076 0.097 2.042 0.714 2.583 1.65 0.123 0.211 0.212 0.436 0.283 0.665 0.022 0.067 0.035 0.135 0.052 0.203 0.041 0.17 0.071 0.342 0.085 0.517 0.006 0.072 0.015 0.141 0.016 0.213 0.005 0.222-0.009 0.445-0.049 0.665-0.002 0.016-0.002 0.031-0.005 0.046v0.001c0.032-0.002 0.063-0.002 0.094-0.005 0.158-0.015 0.314-0.038 0.471-0.060 0.153-0.022 0.308-0.040 0.46-0.068 0.147-0.028 0.291-0.064 0.435-0.098 0.157-0.037 0.315-0.070 0.468-0.116 0.135-0.039 0.265-0.085 0.398-0.13 0.158-0.052 0.316-0.104 0.47-0.165 0.123-0.047 0.242-0.103 0.362-0.157 0.157-0.069 0.315-0.139 0.468-0.216 0.109-0.056 0.216-0.118 0.324-0.178 0.157-0.088 0.314-0.174 0.466-0.27 0.097-0.061 0.19-0.126 0.283-0.191 0.156-0.107 0.31-0.214 0.46-0.328 0.081-0.062 0.159-0.129 0.238-0.194 0.154-0.128 0.308-0.255 0.453-0.392 0.066-0.062 0.128-0.125 0.191-0.188 0.153-0.151 0.304-0.303 0.446-0.463 0.049-0.055 0.095-0.112 0.142-0.168 0.151-0.176 0.298-0.356 0.435-0.544 0.032-0.044 0.062-0.089 0.094-0.134 0.147-0.205 0.288-0.417 0.418-0.635 0.017-0.029 0.033-0.058 0.050-0.088 0.14-0.239 0.271-0.483 0.39-0.734 0.005-0.011 0.010-0.022 0.015-0.033 0.516-1.096 0.834-2.303 0.906-3.581 0-0.005 0.004-0.012 0.004-0.012 0.011-0.181 0.027-0.361 0.027-0.545 0-5.364-4.364-9.728-9.728-9.728zM31.21 21.634c-0.036 0.4-0.144 0.806-0.27 1.176 0.055 0.035 0.094 0.090 0.146 0.129 0.175 0.13 0.343 0.27 0.49 0.434 0.070 0.079 0.126 0.168 0.19 0.253 0.077 0.102 0.164 0.193 0.229 0.304 0.034 0.061 0.050 0.128 0.080 0.19 0.023 0.045 0.060 0.080 0.080 0.128 0.034 0.079 0.049 0.163 0.078 0.243 0.034 0.097 0.068 0.192 0.094 0.292 0.039 0.153 0.060 0.309 0.077 0.466 0.010 0.091 0.024 0.181 0.027 0.272 0.004 0.175-0.015 0.349-0.039 0.524-0.010 0.074-0.010 0.148-0.026 0.223-0.051 0.248-0.125 0.492-0.233 0.726l-0.222 0.478c-0.181 0.391-0.057 0.857 0.297 1.107l0.431 0.304c0.351 0.248 0.627 0.57 0.856 0.922 0.202 0.311 0.371 0.643 0.46 1.006 0.028 0.109 0.026 0.225 0.041 0.337 0.021 0.152 0.055 0.3 0.055 0.456v0 0 0.002c-0.001 0.24-0.035 0.474-0.086 0.704-0.012 0.056-0.024 0.111-0.040 0.167-0.062 0.226-0.14 0.448-0.247 0.655-0.004 0.006-0.007 0.011-0.011 0.017-0.078 0.146-0.163 0.288-0.261 0.422h15.972c0.023-0.036 0.055-0.067 0.079-0.102 0.063-0.094 0.135-0.181 0.208-0.268 0.050-0.058 0.096-0.12 0.15-0.175 0.135-0.139 0.28-0.266 0.438-0.379 0.005-0.004 0.007-0.007 0.011-0.010l0.433-0.304c0.241-0.17 0.379-0.437 0.379-0.732s-0.139-0.563-0.379-0.736l-0.432-0.305c-0.146-0.102-0.279-0.218-0.403-0.34-0.066-0.063-0.123-0.134-0.182-0.202-0.046-0.055-0.094-0.107-0.136-0.164-0.079-0.103-0.148-0.209-0.214-0.32-0.007-0.012-0.015-0.026-0.022-0.038-0.513-0.892-0.603-1.995-0.17-2.988 0.009-0.022 0.012-0.041 0.022-0.063l0.224-0.482c0.124-0.266 0.111-0.568-0.038-0.823-0.147-0.257-0.401-0.42-0.697-0.445l-0.523-0.048c-1.602-0.143-2.87-1.413-3.016-3.016l-0.047-0.522c-0.026-0.296-0.189-0.548-0.444-0.697-0.254-0.147-0.556-0.161-0.825-0.036l-0.475 0.221c-0.168 0.078-0.34 0.137-0.516 0.185-0.099 0.027-0.197 0.040-0.297 0.058-0.069 0.012-0.137 0.028-0.207 0.035-0.147 0.017-0.296 0.019-0.443 0.017h-0.035c-1.020-0.030-2.003-0.518-2.623-1.397l-0.303-0.431c-0.339-0.48-1.125-0.484-1.466 0.001l-0.303 0.431c-0.925 1.312-2.66 1.778-4.117 1.104l-0.479-0.223c-0.268-0.126-0.569-0.111-0.825 0.037-0.257 0.147-0.419 0.401-0.445 0.696zM24.469 8.855l-7.005 9.942c-0.192 0.272-0.32 0.578-0.387 0.896-0.044 0.21-0.050 0.421-0.039 0.627 0.004 0.052 0.006 0.105 0.012 0.157 0.024 0.207 0.066 0.41 0.14 0.602 0.005 0.012 0.012 0.022 0.017 0.034 0.074 0.181 0.174 0.35 0.289 0.51 0.032 0.043 0.063 0.085 0.097 0.125 0.133 0.158 0.279 0.308 0.452 0.43 0.002 0.001 0.004 0.004 0.006 0.005 0.528 0.373 1.175 0.512 1.815 0.405 0.642-0.111 1.2-0.463 1.572-0.992l2.261-3.207c0-0.001 0.001-0.001 0.001-0.001l4.744-6.732c0.372-0.526 0.514-1.172 0.404-1.815-0.111-0.642-0.463-1.201-0.991-1.574-1.096-0.772-2.617-0.509-3.389 0.587zM6.599 32.634c0.354 0.249 0.654 0.569 0.886 0.934h22.433c0.012-0.019 0.030-0.037 0.044-0.056 0.079-0.118 0.168-0.227 0.26-0.334 0.040-0.046 0.075-0.097 0.119-0.142 0.141-0.146 0.294-0.282 0.461-0.4l0.432-0.303c0.086-0.061 0.142-0.145 0.201-0.227 0.024-0.034 0.063-0.056 0.082-0.092 0.066-0.125 0.1-0.265 0.1-0.413 0-0.296-0.139-0.562-0.382-0.738l-0.43-0.303c-0.657-0.462-1.102-1.126-1.297-1.858-0.048-0.176-0.078-0.355-0.096-0.536 0-0.009-0.002-0.016-0.004-0.023-0.052-0.568 0.040-1.154 0.294-1.702l0.222-0.478c0.060-0.129 0.085-0.268 0.080-0.404 0-0.005 0.001-0.012 0.001-0.017-0.006-0.124-0.047-0.244-0.106-0.359-0.024-0.048-0.060-0.085-0.091-0.126-0.050-0.066-0.103-0.129-0.169-0.178-0.043-0.033-0.090-0.055-0.137-0.079-0.097-0.047-0.197-0.095-0.311-0.104l-0.523-0.048c-1.602-0.145-2.87-1.413-3.016-3.016l-0.047-0.522c-0.027-0.299-0.184-0.518-0.387-0.653l-1.789 2.539c-0.745 1.058-1.863 1.763-3.146 1.987-0.282 0.049-0.564 0.073-0.845 0.073-0.021 0-0.040-0.005-0.061-0.005-0.079-0.001-0.156-0.013-0.235-0.018-0.21-0.013-0.418-0.036-0.624-0.076-0.1-0.018-0.196-0.043-0.293-0.068-0.193-0.050-0.382-0.113-0.568-0.187-0.085-0.033-0.169-0.063-0.252-0.101-0.26-0.122-0.516-0.26-0.755-0.429-0.272-0.191-0.519-0.41-0.743-0.647-0.066-0.071-0.114-0.152-0.176-0.226-0.146-0.175-0.292-0.35-0.411-0.544-0.068-0.109-0.113-0.227-0.171-0.342-0.086-0.17-0.179-0.337-0.246-0.517-0.056-0.153-0.087-0.312-0.129-0.469-0.035-0.135-0.086-0.263-0.111-0.401-0.004-0.021-0.001-0.043-0.005-0.064-0.005-0.026-0.016-0.051-0.019-0.077-0.374-0.029-0.743-0.123-1.091-0.283l-0.479-0.222c-0.268-0.124-0.57-0.111-0.825 0.036-0.255 0.148-0.418 0.401-0.444 0.696l-0.047 0.524c-0.146 1.603-1.414 2.871-3.017 3.014l-0.522 0.048c-0.295 0.026-0.548 0.188-0.697 0.444-0.147 0.257-0.162 0.558-0.037 0.827l0.22 0.474c0.676 1.464 0.212 3.197-1.105 4.122l-0.428 0.302c-0.242 0.171-0.381 0.438-0.381 0.734s0.139 0.563 0.381 0.733zM53.522 55.195c9.429-4.503 15.402-9.2 16.045-18.691 0.013-0.182-0.074-0.304-0.126-0.361-0.062-0.066-0.168-0.142-0.326-0.142h-66.227c-0.159 0-0.265 0.077-0.326 0.142-0.052 0.057-0.14 0.18-0.128 0.361 0.642 9.491 6.615 14.189 16.045 18.69 1.583 0.755 2.895 2.020 3.692 3.561 0.928 1.794 0.812 4.054-0.3 5.901-0.096 0.16-0.061 0.282-0.017 0.359 0.044 0.078 0.13 0.17 0.291 0.17h27.711c0.162 0 0.247-0.094 0.291-0.17 0.045-0.077 0.079-0.198-0.004-0.337-1.125-1.868-1.24-4.128-0.313-5.921 0.798-1.541 2.109-2.805 3.693-3.562zM44.992 56.672c0.671 0 1.216 0.544 1.216 1.216s-0.545 1.216-1.216 1.216h-10.588c-0.671 0-1.216-0.544-1.216-1.216s0.545-1.216 1.216-1.216h10.588zM26.752 59.104c-0.672 0-1.216-0.544-1.216-1.216s0.545-1.216 1.216-1.216h4.117c0.671 0 1.216 0.544 1.216 1.216s-0.545 1.216-1.216 1.216h-4.117zM44.992 60.32c0.671 0 1.216 0.544 1.216 1.216s-0.545 1.216-1.216 1.216h-18.24c-0.671 0-1.216-0.544-1.216-1.216s0.545-1.216 1.216-1.216h18.24zM48.493 15.684l-3.44-3.439c-0.475-0.475-0.475-1.244 0-1.719s1.244-0.475 1.719 0l3.44 3.439c0.475 0.475 0.475 1.244 0 1.719-0.237 0.237-0.548 0.356-0.86 0.356s-0.623-0.119-0.86-0.356zM55.371 22.562l-3.44-3.439c-0.475-0.475-0.475-1.244 0-1.719s1.244-0.475 1.719 0l3.44 3.439c0.474 0.475 0.475 1.244 0 1.719-0.237 0.237-0.548 0.356-0.86 0.356s-0.623-0.119-0.86-0.356zM52.792 16.040c-0.311 0-0.623-0.119-0.86-0.356-0.476-0.475-0.476-1.244 0-1.719l3.44-3.439c0.475-0.475 1.244-0.475 1.719 0s0.474 1.244 0 1.719l-3.44 3.439c-0.237 0.237-0.548 0.356-0.86 0.356zM59.584 26.272c0-0.672 0.544-1.216 1.216-1.216h4.864c0.672 0 1.216 0.544 1.216 1.216s-0.544 1.216-1.216 1.216h-4.864c-0.672 0-1.216-0.544-1.216-1.216zM37.088 26.88c-0.311 0-0.623-0.119-0.86-0.356-0.476-0.475-0.476-1.244 0-1.719l1.824-1.824c0.475-0.475 1.244-0.475 1.719 0s0.476 1.244 0 1.719l-1.824 1.824c-0.237 0.237-0.548 0.356-0.86 0.356zM42.917 29.564l-1.216-1.216c-0.475-0.475-0.475-1.244 0-1.719s1.244-0.476 1.719 0l1.216 1.216c0.475 0.476 0.475 1.244 0 1.719-0.237 0.237-0.548 0.356-0.86 0.356s-0.623-0.119-0.86-0.356zM38.053 29.060c0.474-0.475 1.244-0.475 1.719 0s0.476 1.244 0 1.719l-1.216 1.216c-0.237 0.237-0.549 0.356-0.86 0.356s-0.623-0.119-0.86-0.356c-0.475-0.475-0.475-1.244 0-1.719z"></path>
</svg>
