<!-- Generated by IcoMoon.io -->
<svg version="1.1" xmlns="http://www.w3.org/2000/svg" width="72" height="72" viewBox="0 0 72 72">
<title>uniF100</title>
<path d="M26.745 46.243c0.355-1.625 5.047-9.175 5.077-9.167 0 0 1.161 8.824 0.808 10.448s-1.959 2.655-3.583 2.302-2.655-1.959-2.302-3.583zM42.706 37.075c0.031-0.006 4.724 7.543 5.077 9.167 0.354 1.626-0.677 3.23-2.302 3.583-1.626 0.354-3.23-0.677-3.583-2.302s0.808-10.448 0.808-10.448zM63.325 51.953c1.953 1.156 2.644 3.618 1.571 5.608-7.046 13.057-17.909 16.205-25.548 13.534-1.105-0.386-2.268-0.388-3.36-0.004-1.737 0.608-3.528 0.909-5.334 0.909-3.71 0-7.486-1.27-11.005-3.751-7.637-5.385-13.002-15.515-13.049-24.633-0.061-12.12 2.336-19.944 7.328-23.917 5.486-4.369 13.114-3.296 19.149-1.874 1.094 0.257 2.203 0.39 3.313 0.462 0.151-1.337 0.459-2.61 0.886-3.804l-4.721-0.703c-4.393-0.655-7.787-4.048-8.442-8.442l-0.795-5.338 5.338 0.795c4.395 0.655 7.789 4.049 8.442 8.444l0.616 4.147c2.080-4.695 6.184-7.84 10.83-7.695 0.72 0.026 1.283 0.632 1.257 1.352s-0.605 1.294-1.352 1.257c-4.635-0.166-8.65 4.2-9.426 9.985 1.056-0.072 2.105-0.197 3.124-0.438 2.835-0.671 5.286-1.063 7.489-1.198 1.351-0.085 2.653 0.506 3.498 1.575 0.83 1.050 1.097 2.43 0.716 3.692-0.184 0.608-0.277 1.242-0.277 1.883 0 3.597 2.927 6.524 6.524 6.524l0.112-0.006 1.621-0.023-0.322 1.588c-0.070 0.346-0.106 0.699-0.106 1.052 0 0.77 0.172 1.514 0.513 2.213 0.583 1.202 0.555 2.597-0.081 3.826-0.286 0.556-0.432 1.159-0.432 1.79 0 0.65 0.158 1.268 0.471 1.839 0.714 1.3 0.714 2.852 0 4.153-0.312 0.569-0.471 1.188-0.471 1.837 0 1.395 0.719 2.653 1.922 3.364zM32.939 11.2l1.854 0.275-0.277-1.853c-0.483-3.252-2.993-5.762-6.245-6.246l-1.853-0.275 0.275 1.854c0.484 3.252 2.995 5.761 6.245 6.245zM62.6 56.321c0.405-0.75 0.14-1.681-0.602-2.122-1.976-1.168-3.204-3.317-3.204-5.61 0-1.078 0.274-2.148 0.792-3.094 0.291-0.53 0.291-1.113 0-1.643-0.518-0.946-0.792-2.016-0.792-3.094 0-1.036 0.251-2.068 0.723-2.987 0.254-0.493 0.273-1.035 0.052-1.489-0.514-1.058-0.775-2.186-0.775-3.354v-0.093c-4.421-0.636-7.829-4.447-7.829-9.041 0-0.898 0.13-1.785 0.389-2.637 0.137-0.452 0.039-0.932-0.266-1.318-0.32-0.404-0.784-0.613-1.292-0.588-2.052 0.127-4.357 0.497-7.046 1.134-1.617 0.382-3.287 0.574-4.969 0.581-0.065 0.010-0.125 0.038-0.193 0.038h-0.048c-0.063-0.001-0.115-0.031-0.175-0.042-1.636-0.023-3.279-0.219-4.887-0.598-8.111-1.912-13.328-1.488-16.924 1.375-4.326 3.444-6.402 10.594-6.342 21.863 0.042 8.195 5.064 17.663 11.942 22.514 3.2 2.257 8.219 4.528 13.971 2.511 0.826-0.29 1.678-0.435 2.531-0.435 0.857 0 1.716 0.146 2.552 0.438 9.152 3.198 17.84-3.878 22.39-12.311z"></path>
</svg>
