<!-- Generated by IcoMoon.io -->
<svg version="1.1" xmlns="http://www.w3.org/2000/svg" width="72" height="72" viewBox="0 0 72 72">
<title>uniF136</title>
<path d="M16.629 14.305c-1.387 0-2.773-0.527-3.828-1.582-0.5-0.5-0.5-1.308 0-1.809 0.499-0.5 1.308-0.5 1.809 0 1.113 1.112 2.925 1.112 4.038 0 0.5-0.5 1.31-0.5 1.81 0s0.5 1.31 0 1.809c-1.057 1.055-2.443 1.582-3.829 1.582zM22.892 53.42l3.534 7.552c0.299 0.64 0.023 1.402-0.616 1.7-0.175 0.083-0.36 0.122-0.541 0.122-0.481 0-0.942-0.272-1.159-0.737l-3.536-7.552c-0.299-0.64-0.023-1.402 0.617-1.7 0.642-0.299 1.402-0.024 1.701 0.615zM55.275 52.805c0.64 0.298 0.915 1.060 0.615 1.7l-3.536 7.552c-0.217 0.464-0.678 0.737-1.159 0.737-0.182 0-0.366-0.040-0.541-0.122-0.641-0.298-0.916-1.060-0.617-1.7l3.536-7.552c0.299-0.641 1.063-0.916 1.701-0.615zM44.323 55.379c0.697 0.109 1.174 0.764 1.067 1.462l-1.178 7.552c-0.098 0.631-0.643 1.082-1.263 1.082-0.066 0-0.133-0.005-0.2-0.015-0.697-0.109-1.176-0.764-1.067-1.462l1.178-7.552c0.109-0.698 0.764-1.17 1.462-1.067zM32.143 55.379c0.698-0.104 1.352 0.368 1.462 1.067l1.178 7.552c0.109 0.698-0.37 1.353-1.067 1.462-0.066 0.010-0.134 0.015-0.2 0.015-0.619 0-1.164-0.452-1.263-1.082l-1.178-7.552c-0.109-0.698 0.37-1.353 1.067-1.462zM38.235 25.77c-0.706 0-1.28-0.572-1.28-1.279s0.573-1.279 1.279-1.279c5.286 0 10.3-0.67 14.499-1.938 0.675-0.202 1.39 0.179 1.595 0.854 0.205 0.677-0.178 1.39-0.855 1.594-4.436 1.339-9.706 2.048-15.239 2.048zM14.755 35.362c-0.625-0.328-0.868-1.1-0.542-1.726 0.329-0.624 1.101-0.87 1.727-0.54 1.179 0.615 2.444 1.172 3.759 1.651 0.664 0.242 1.005 0.975 0.764 1.64-0.188 0.518-0.679 0.84-1.201 0.84-0.144 0-0.293-0.026-0.437-0.078-1.421-0.517-2.79-1.119-4.069-1.788zM30.138 39.758c-0.701-0.086-1.2-0.723-1.114-1.425 0.087-0.701 0.736-1.2 1.426-1.113 5.132 0.629 10.392 0.603 15.634-0.078 0.704-0.091 1.343 0.402 1.434 1.103s-0.403 1.343-1.104 1.433c-2.835 0.368-5.674 0.554-8.499 0.554-2.611 0-5.21-0.157-7.777-0.473zM52.127 37.344c-0.185-0.682 0.216-1.384 0.897-1.571 2.648-0.723 5.007-1.626 7.010-2.684 0.624-0.328 1.399-0.090 1.728 0.535 0.33 0.626 0.091 1.398-0.533 1.73-2.168 1.145-4.702 2.116-7.53 2.888-0.113 0.031-0.226 0.045-0.338 0.045-0.563 0-1.077-0.374-1.233-0.943zM69.808 40.064c0 1.039-0.207 2.076-0.608 3.093l0.003 0.002-6.205 15.22c-3.994 7.344-7.425 9.246-14.877 12.125-2.579 0.996-6.226 1.495-9.876 1.495-3.649 0-7.303-0.499-9.899-1.494-7.438-2.851-10.873-4.759-14.946-12.247l-0.061-0.13-4.83-11.899c-1.64-1.938-2.479-4.010-2.479-6.167 0-2.964 1.6-5.807 4.637-8.263-0.087-0.48-0.132-0.962-0.132-1.442 0-0.994 0.201-1.998 0.595-2.994-0.331-0.267-0.651-0.55-0.957-0.856-5.012-5.012-5.537-12.643-1.169-17.012l1.169-1.169c1.039-1.039 2.264-1.791 3.593-2.28-0.397-0.617-0.906-1.234-1.593-1.77-1.988-1.552-4.851-2.053-8.506-1.494-0.691 0.109-1.352-0.371-1.458-1.071-0.108-0.698 0.372-1.351 1.071-1.458 4.4-0.677 7.935 0.009 10.503 2.034 1.218 0.959 2.040 2.090 2.599 3.152 3.683-0.389 7.733 0.989 10.802 4.058 0.486 0.486 0.916 1.013 1.306 1.562 2.893-0.72 6.116-1.133 9.416-1.167 1.343-0.013 2.195-0.329 2.532-0.939 0.782-1.414-0.637-4.592-1.447-5.91-0.23-0.375-0.252-0.843-0.056-1.24 0.196-0.395 0.581-0.661 1.020-0.705 4.743-0.471 8.676 0.691 11.703 3.447 5.365 4.889 6.151 13.273 6.264 15.878 4.769 2.661 7.383 6.169 7.383 9.934 0 0.478-0.045 0.961-0.133 1.442 3.038 2.456 4.637 5.3 4.637 8.263zM10.812 11.305c-3.369 3.371-2.845 9.379 1.169 13.392 0.445 0.446 0.929 0.843 1.442 1.186 0.002 0.002 0.008 0.002 0.011 0.005 0.455 0.303 0.93 0.558 1.416 0.773 0.020 0.009 0.041 0.020 0.061 0.029 0.471 0.205 0.956 0.363 1.445 0.486 0.046 0.011 0.092 0.023 0.138 0.034 0.489 0.114 0.984 0.192 1.48 0.228 0.037 0.003 0.073 0.003 0.11 0.005 1.563 0.095 3.138-0.193 4.573-0.856 0.024-0.010 0.047-0.022 0.072-0.033 0.462-0.218 0.908-0.475 1.336-0.769 0.034-0.023 0.068-0.051 0.102-0.076 0.423-0.302 0.83-0.634 1.208-1.012 0.352-0.353 0.664-0.733 0.95-1.126 0.040-0.055 0.082-0.107 0.12-0.162 0.272-0.39 0.512-0.797 0.719-1.217 0.026-0.051 0.050-0.104 0.074-0.156 0.413-0.878 0.687-1.81 0.815-2.762 0.006-0.050 0.015-0.1 0.022-0.15 0.055-0.464 0.073-0.932 0.059-1.401-0.001-0.061-0.006-0.122-0.009-0.182-0.076-1.507-0.503-3.011-1.318-4.377-0.003-0.004-0.001-0.009-0.004-0.013-0.398-0.663-0.869-1.288-1.43-1.848-2.236-2.237-5.092-3.39-7.766-3.39-0.093 0-0.183 0.022-0.276 0.024 0.16 0.655 0.201 1.091 0.206 1.145 0.059 0.705-0.463 1.323-1.168 1.382-0.036 0.004-0.072 0.005-0.107 0.005-0.656 0-1.214-0.501-1.273-1.167-0.003-0.023-0.049-0.385-0.187-0.907-1.048 0.366-2.013 0.93-2.822 1.738zM12.861 33.337c-1.949 1.443-4.272 3.78-4.272 6.727 0 0.573 0.088 1.145 0.262 1.712 0.041-0.026 0.084-0.045 0.125-0.069 0.078-0.047 0.157-0.088 0.237-0.13 0.125-0.067 0.252-0.128 0.381-0.184 0.086-0.037 0.173-0.073 0.26-0.106 0.128-0.047 0.26-0.090 0.391-0.128 0.091-0.026 0.182-0.051 0.275-0.073 0.136-0.031 0.275-0.055 0.416-0.077 0.092-0.014 0.184-0.029 0.278-0.040 0.152-0.017 0.307-0.022 0.463-0.027 0.086-0.003 0.17-0.009 0.261-0.010 0.194 0.003 0.394 0.017 0.594 0.036 0.051 0.005 0.101 0.004 0.152 0.010 0.253 0.029 0.51 0.074 0.773 0.13 0.064 0.014 0.13 0.036 0.196 0.051 0.198 0.049 0.396 0.1 0.599 0.162 0.095 0.029 0.192 0.066 0.288 0.1 0.175 0.060 0.35 0.122 0.528 0.193 0.107 0.044 0.216 0.092 0.325 0.139 0.17 0.074 0.34 0.15 0.513 0.234 0.114 0.055 0.229 0.114 0.343 0.174 0.17 0.088 0.342 0.182 0.514 0.28 0.116 0.066 0.234 0.136 0.352 0.206 0.175 0.106 0.35 0.218 0.527 0.333 0.115 0.076 0.232 0.151 0.348 0.23 0.186 0.127 0.371 0.261 0.556 0.396 0.11 0.081 0.221 0.16 0.333 0.244 0.203 0.154 0.407 0.319 0.611 0.485 0.096 0.078 0.191 0.152 0.288 0.233 0.301 0.252 0.602 0.516 0.906 0.793 0.26-0.175 0.53-0.321 0.803-0.454 0.078-0.038 0.156-0.070 0.235-0.105 0.21-0.092 0.423-0.171 0.641-0.239 0.079-0.024 0.156-0.051 0.235-0.073 0.581-0.157 1.181-0.237 1.793-0.244 0.032 0 0.064-0.006 0.096-0.006 0.052 0 0.106 0.009 0.16 0.010 0.233 0.005 0.468 0.019 0.704 0.044 0.084 0.008 0.168 0.014 0.251 0.026 0.312 0.041 0.626 0.093 0.939 0.166h0.001c0.311 0.072 0.623 0.164 0.934 0.265 0.088 0.028 0.176 0.060 0.266 0.092 0.233 0.083 0.466 0.173 0.697 0.27 0.088 0.037 0.175 0.072 0.264 0.111 0.307 0.137 0.614 0.283 0.916 0.445 0.002 0.001 0.004 0.003 0.006 0.004 0.299 0.161 0.594 0.336 0.885 0.519 0.087 0.055 0.174 0.113 0.261 0.17 0.215 0.141 0.427 0.286 0.637 0.439 0.084 0.060 0.169 0.12 0.252 0.183 0.28 0.211 0.556 0.43 0.825 0.659 3.426-2.63 8.249-2.633 11.677-0.003 3.545-3.065 8.284-4.597 11.688-2.285 0.482-0.443 0.958-0.84 1.431-1.218 0.087-0.069 0.173-0.141 0.26-0.207 0.45-0.348 0.895-0.666 1.337-0.954 0.091-0.059 0.182-0.115 0.274-0.173 0.449-0.283 0.894-0.544 1.332-0.762 0.032-0.015 0.061-0.027 0.092-0.042 0.422-0.207 0.835-0.379 1.242-0.526 0.075-0.027 0.151-0.058 0.226-0.083 0.411-0.138 0.812-0.242 1.206-0.317 0.079-0.015 0.157-0.027 0.235-0.040 0.4-0.064 0.793-0.104 1.173-0.101 0.030 0 0.058 0.005 0.087 0.005 0.375 0.008 0.735 0.051 1.087 0.124 0.044 0.009 0.088 0.014 0.132 0.024 0.357 0.083 0.698 0.206 1.028 0.358 0.026 0.012 0.054 0.014 0.079 0.027 0.122-0.472 0.182-0.943 0.182-1.41 0-2.947-2.324-5.284-4.274-6.727-0.432-0.318-0.618-0.875-0.467-1.389 0.156-0.531 0.235-1.066 0.235-1.589 0-2.936-2.372-5.786-6.676-8.026-0.425-0.221-0.691-0.663-0.69-1.141 0-0.097-0.023-9.82-5.456-14.762-2.056-1.869-4.671-2.832-7.79-2.872 0.814 1.828 1.66 4.6 0.542 6.629-0.814 1.479-2.41 2.238-4.746 2.264-2.842 0.030-5.628 0.342-8.152 0.91 0.224 0.535 0.397 1.090 0.54 1.654 0.009 0.036 0.017 0.070 0.026 0.105 0.229 0.934 0.361 1.897 0.361 2.883 0 0.132-0.015 0.261-0.019 0.391-0.004 0.115-0.010 0.229-0.017 0.344-0.065 1.082-0.271 2.136-0.613 3.142-0.027 0.078-0.055 0.154-0.083 0.232-0.37 1.021-0.878 1.987-1.516 2.877-0.065 0.092-0.133 0.182-0.202 0.272-0.33 0.435-0.68 0.856-1.073 1.248-0.257 0.257-0.524 0.496-0.799 0.725-0.113 0.096-0.232 0.183-0.348 0.274-0.157 0.12-0.315 0.24-0.476 0.353-0.16 0.111-0.321 0.217-0.485 0.321-0.111 0.070-0.225 0.137-0.339 0.203-0.203 0.119-0.407 0.235-0.617 0.342-0.017 0.008-0.032 0.015-0.049 0.023-0.803 0.404-1.649 0.713-2.525 0.926-0.026 0.006-0.051 0.013-0.077 0.019-0.272 0.065-0.547 0.12-0.826 0.166-0.051 0.008-0.101 0.014-0.152 0.022-0.596 0.090-1.199 0.15-1.813 0.15-0.192 0-0.38-0.019-0.569-0.028-0.122-0.005-0.243-0.009-0.365-0.018-0.216-0.015-0.431-0.041-0.646-0.069-0.129-0.017-0.257-0.036-0.385-0.056-0.216-0.036-0.431-0.073-0.645-0.12-0.111-0.024-0.221-0.055-0.331-0.083-0.729-0.183-1.436-0.432-2.116-0.748-0.095-0.042-0.189-0.079-0.283-0.125-0.165 0.533-0.247 1.060-0.247 1.576 0 0.524 0.079 1.059 0.235 1.589 0.151 0.514-0.036 1.071-0.467 1.389zM60.717 57.222l5.429-13.329c-0.402-0.228-0.834-0.351-1.288-0.384-0.082-0.006-0.168 0.001-0.252 0.001-0.15-0.001-0.297-0.004-0.449 0.012-0.109 0.012-0.219 0.035-0.329 0.054-0.13 0.022-0.26 0.042-0.391 0.074-0.123 0.029-0.244 0.069-0.367 0.107-0.122 0.037-0.243 0.073-0.365 0.118-0.127 0.047-0.254 0.101-0.382 0.155-0.118 0.049-0.234 0.097-0.35 0.152-0.13 0.060-0.26 0.127-0.389 0.193-0.111 0.058-0.222 0.116-0.334 0.178-0.129 0.072-0.258 0.146-0.385 0.222-0.109 0.065-0.216 0.131-0.324 0.198-0.125 0.079-0.248 0.159-0.37 0.24-0.105 0.070-0.208 0.141-0.311 0.212-0.116 0.081-0.233 0.162-0.345 0.246-0.104 0.077-0.205 0.152-0.306 0.229-0.104 0.077-0.206 0.155-0.304 0.233-0.106 0.084-0.207 0.166-0.308 0.248-0.083 0.068-0.169 0.137-0.248 0.203-0.111 0.092-0.214 0.18-0.316 0.269-0.060 0.052-0.123 0.106-0.18 0.156-0.123 0.109-0.237 0.211-0.344 0.308-0.026 0.023-0.055 0.049-0.079 0.072-0.266 0.244-0.477 0.449-0.617 0.587 0 0.001-0.001 0.001-0.001 0.001l-0.902 0.892-0.9-0.895c-0.209-0.207-0.43-0.376-0.658-0.526-2.823-1.852-6.989 0.559-9.262 2.822l-0.903 0.897-0.902-0.897c-2.736-2.721-7.188-2.721-9.921 0l-0.898 0.893-0.902-0.888c-2.489-2.451-7.22-5.083-10.050-2.296l-0.898 0.883-0.898-0.883c-1.067-1.050-6.24-5.875-9.398-4.092l0.492 1.21c0.001 0.001 0.001 0.002 0.001 0.004l4.871 12c3.68 6.744 6.5 8.302 13.58 11.017 4.545 1.743 13.431 1.742 17.938 0.001 7.095-2.742 9.915-4.298 13.517-10.898z"></path>
</svg>
