<!-- Generated by IcoMoon.io -->
<svg version="1.1" xmlns="http://www.w3.org/2000/svg" width="72" height="72" viewBox="0 0 72 72">
<title>uniF1E2</title>
<path d="M24 36.667c0-1.333 0.667-2 2-2s2 0.667 2 2c0 1.333-0.667 2-2 2s-2-0.667-2-2zM28 52.12c0-0.889 0.444-1.333 1.333-1.333s1.333 0.444 1.333 1.333-0.444 1.333-1.333 1.333-1.333-0.444-1.333-1.333zM36 42.667c0-0.889 0.444-1.333 1.333-1.333s1.333 0.444 1.333 1.333-0.444 1.333-1.333 1.333c-0.889 0-1.333-0.444-1.333-1.333zM40 61.453c0-0.889 0.444-1.333 1.333-1.333s1.333 0.445 1.333 1.333c0 0.889-0.444 1.333-1.333 1.333s-1.333-0.444-1.333-1.333zM29.333 63.453c0-1.333 0.667-2 2-2s2 0.667 2 2c0 1.333-0.667 2-2 2s-2-0.667-2-2zM45.333 51.453c0-1.333 0.667-2 2-2s2 0.667 2 2c0 1.333-0.667 2-2 2s-2-0.667-2-2zM47.776 15.383c1.323 1.151 2.368 2.13 3.134 2.936s1.583 2.113 2.453 3.921c0.87 1.808 1.304 3.728 1.304 5.761v31.721c0 3.385-1.2 6.278-3.6 8.678s-5.293 3.6-8.678 3.6h-12.776c-3.385 0-6.278-1.2-8.678-3.6s-3.6-5.293-3.6-8.678v-31.721c0-2.036 0.443-3.959 1.329-5.77s1.72-3.12 2.502-3.928c0.782-0.808 1.847-1.788 3.195-2.938l0.436-0.373c0.362-0.539 0.37-1.916 0.025-4.132s-0.81-3.898-1.392-5.045c-0.602-0.448-0.942-0.971-1.020-1.569-0.012-0.070-0.018-0.106-0.019-0.108-0.001-0.013-0.005-0.035-0.013-0.065s-0.011-0.054-0.011-0.071c0-0.037 0.007-0.087 0.022-0.15s0.023-0.103 0.025-0.118c0.001-0.005 0.002-0.017 0.005-0.037 0.003-0.021 0.006-0.038 0.009-0.049 0.466-2.431 4.89-3.647 13.271-3.647 8.345 0 12.767 1.206 13.267 3.619 0.010 0.036 0.022 0.103 0.036 0.204 0.001 0.017 0.007 0.045 0.017 0.084s0.014 0.070 0.014 0.093c0 0.013-0.003 0.030-0.008 0.052s-0.009 0.038-0.009 0.047c-0.004 0.061-0.016 0.131-0.036 0.208-0.093 0.562-0.405 1.048-0.936 1.459-0.51 1.135-0.859 2.821-1.047 5.056s-0.074 3.628 0.342 4.178zM35.696 2.667c-4.661 0-8.045 0.444-10.155 1.333 2.109 0.889 5.494 1.333 10.155 1.333s8.046-0.444 10.155-1.333c-2.109-0.889-5.494-1.333-10.155-1.333zM26.089 17.391c-3.014 2.575-4.871 4.967-5.571 7.175 1.444-0.319 2.924-0.505 4.44-0.559s3.153 0.399 4.91 1.357 3.277 2.393 4.562 4.303c2.714 4.034 5.312 5.918 7.792 5.652 4.165-0.476 7.397-3.363 9.697-8.66-0.153-1.407-0.588-2.747-1.304-4.020s-1.381-2.223-1.995-2.848c-0.614-0.626-1.479-1.424-2.594-2.394l-0.469-0.409c-0.961-0.843-1.389-2.649-1.283-5.416 0.059-1.512 0.258-3.002 0.597-4.471-2.404 0.6-5.463 0.9-9.176 0.9-3.606 0-6.598-0.282-8.975-0.845 0.581 1.974 0.901 3.86 0.959 5.657 0.067 2.083-0.315 3.482-1.148 4.199zM42.388 69.333c2.65 0 4.914-0.939 6.793-2.818s2.819-4.143 2.819-6.792v-27.788c-2.602 3.597-5.76 5.608-9.475 6.033-0.26 0.030-0.524 0.045-0.792 0.045-3.27 0-6.442-2.287-9.516-6.86-1.275-1.897-2.821-3.168-4.638-3.812s-3.279-0.872-4.385-0.681c-1.106 0.191-2.165 0.504-3.178 0.938-0.001 0.030-0.004 0.091-0.009 0.184s-0.007 0.166-0.007 0.219v31.721c0 2.65 0.94 4.914 2.818 6.793s4.143 2.818 6.793 2.818h12.776z"></path>
</svg>
