<!-- Generated by IcoMoon.io -->
<svg version="1.1" xmlns="http://www.w3.org/2000/svg" width="72" height="72" viewBox="0 0 72 72">
<title>uniF16F</title>
<path d="M56.746 20.746c0 10.189-7.388 18.666-17.085 20.403v27.19c0 2.018-1.643 3.661-3.661 3.661s-3.661-1.643-3.661-3.661v-27.19c-9.697-1.737-17.085-10.214-17.085-20.403 0-11.439 9.306-20.746 20.746-20.746 6.179 0 11.719 2.73 15.523 7.029 0.105 0.077 0.19 0.182 0.268 0.295 3.083 3.622 4.955 8.304 4.955 13.421zM37.22 60.175v-2.651l-2.441 2.441v2.651zM37.22 54.073v-2.651l-2.441 2.441v2.651zM37.22 47.972v-2.651l-2.441 2.441v2.65zM37.22 41.449c-0.848 0.057-1.592 0.057-2.441 0v2.862l2.441-2.441v-0.421zM36 69.559c0.674 0 1.22-0.547 1.22-1.22v-4.713l-2.441 2.441v2.272c0 0.674 0.547 1.22 1.22 1.22zM38.314 38.889c9.004-1.144 15.991-8.834 15.991-18.14 0-0.472-0.035-0.936-0.071-1.4-0.11 1.026-0.273 2.053-0.537 3.068-1.352 5.201-4.623 9.62-8.973 12.125-2.435 1.4-5.095 2.065-7.72 2.065-5.379 0.001-10.616-2.793-13.487-7.781-1.687-2.933-2.132-6.347-1.251-9.615s2.981-5.996 5.914-7.685c2.403-1.381 5.202-1.745 7.876-1.025 2.676 0.721 4.912 2.442 6.296 4.845 1.137 1.979 1.438 4.282 0.844 6.487-0.595 2.205-2.012 4.044-3.991 5.184-1.639 0.941-3.546 1.189-5.374 0.699-1.828-0.493-3.353-1.667-4.296-3.306-0.787-1.368-0.995-2.962-0.585-4.486 0.411-1.525 1.391-2.797 2.759-3.585 2.378-1.366 5.423-0.544 6.789 1.83 0.563 0.977 0.71 2.115 0.417 3.205-0.294 1.089-0.993 1.998-1.972 2.56-0.837 0.483-1.812 0.61-2.747 0.357-0.935-0.251-1.713-0.852-2.197-1.691-0.337-0.583-0.134-1.33 0.45-1.666s1.33-0.134 1.666 0.45c0.156 0.272 0.41 0.469 0.715 0.549 0.299 0.079 0.62 0.040 0.894-0.116 0.414-0.239 0.708-0.621 0.832-1.081 0.123-0.459 0.061-0.937-0.176-1.35-0.697-1.212-2.25-1.63-3.456-0.932-0.803 0.461-1.379 1.209-1.619 2.104-0.243 0.895-0.119 1.829 0.342 2.632 0.619 1.074 1.619 1.843 2.817 2.166 1.198 0.322 2.448 0.16 3.522-0.458 1.414-0.814 2.426-2.13 2.851-3.704 0.425-1.575 0.21-3.222-0.603-4.635-1.058-1.839-2.768-3.155-4.815-3.706-2.046-0.55-4.187-0.271-6.024 0.785-2.368 1.363-4.064 3.566-4.775 6.204-0.71 2.637-0.352 5.394 1.012 7.761 1.744 3.031 4.562 5.201 7.938 6.11 3.377 0.912 6.905 0.45 9.935-1.293 7.925-4.559 10.844-15.562 6.319-23.638-3.36-3.877-8.304-6.343-13.825-6.343-10.093 0-18.305 8.212-18.305 18.305 0 9.309 6.988 16.999 15.991 18.143l0.024 0.002c0.314 0.039 0.588 0.062 0.867 0.088 0.471 0.037 0.942 0.072 1.423 0.072s0.952-0.035 1.423-0.072c0.279-0.026 0.553-0.049 0.867-0.088z"></path>
</svg>
