<!-- Generated by IcoMoon.io -->
<svg version="1.1" xmlns="http://www.w3.org/2000/svg" width="72" height="72" viewBox="0 0 72 72">
<title>uniF10E</title>
<path d="M23.499 54.353c0.488 0.488 0.488 1.279 0 1.764-1.033 1.032-2.389 1.548-3.746 1.548s-2.712-0.517-3.745-1.548c-1.092-1.092-2.871-1.092-3.962 0-0.488 0.488-1.276 0.488-1.764 0s-0.488-1.276 0-1.764c2.064-2.066 5.427-2.066 7.491 0 1.092 1.092 2.871 1.092 3.962 0 0.488-0.488 1.276-0.488 1.764 0zM19.681 48.482c-0.487 0.488-1.276 0.488-1.764 0-0.488-0.487-0.488-1.276 0-1.764 1.001-1.002 2.329-1.552 3.745-1.552 1.415 0 2.744 0.55 3.744 1.552 1.092 1.092 2.871 1.092 3.962 0 0.488-0.488 1.276-0.488 1.764 0s0.488 1.276 0 1.764c-1.032 1.033-2.389 1.548-3.745 1.548s-2.714-0.515-3.746-1.548c-1.060-1.060-2.902-1.060-3.961 0zM27.317 40.848c-0.488 0.488-1.276 0.488-1.764 0s-0.488-1.276 0-1.764c2.064-2.066 5.427-2.066 7.491 0 1.092 1.092 2.871 1.092 3.962 0 0.488-0.488 1.276-0.488 1.764 0s0.488 1.276 0 1.764c-1.032 1.033-2.389 1.548-3.745 1.548s-2.714-0.515-3.745-1.548c-1.092-1.092-2.871-1.092-3.962 0zM34.951 33.212c-0.488 0.488-1.276 0.488-1.764 0s-0.488-1.276 0-1.764c2.064-2.066 5.427-2.066 7.491 0 1.092 1.092 2.871 1.092 3.962 0 0.488-0.488 1.276-0.488 1.764 0s0.488 1.276 0 1.764c-1.032 1.033-2.389 1.548-3.746 1.548s-2.714-0.515-3.745-1.548c-1.092-1.092-2.871-1.092-3.962 0zM42.587 25.578c-0.488 0.488-1.276 0.488-1.764 0s-0.488-1.276 0-1.764c2.064-2.066 5.427-2.066 7.491 0 1.058 1.059 2.898 1.060 3.961 0 0.488-0.488 1.276-0.488 1.764 0 0.488 0.487 0.488 1.276 0 1.764-1.001 1.002-2.329 1.552-3.744 1.552s-2.744-0.55-3.746-1.552c-1.092-1.092-2.871-1.092-3.962 0zM31.024 15.217c-0.487 0.488-1.278 0.488-1.765 0s-0.488-1.276 0-1.764c1.879-1.879 4.937-1.879 6.816 0 0.907 0.907 2.38 0.907 3.288 0 0.488-0.488 1.276-0.488 1.764 0s0.488 1.276 0 1.764c-0.938 0.939-2.173 1.41-3.407 1.41s-2.468-0.47-3.407-1.41c-0.907-0.907-2.38-0.907-3.288 0zM23.514 24.2c-0.908-0.907-2.382-0.904-3.289 0-0.488 0.488-1.276 0.488-1.764 0s-0.488-1.276 0-1.764c1.879-1.879 4.937-1.879 6.816 0 0.907 0.905 2.38 0.905 3.288 0 0.488-0.488 1.276-0.488 1.764 0s0.488 1.278 0 1.764c-0.938 0.939-2.173 1.409-3.407 1.409s-2.468-0.469-3.407-1.409zM42.048 56.165c0.488-0.488 1.275-0.488 1.763 0s0.488 1.276 0 1.764c-0.938 0.939-2.173 1.41-3.407 1.41s-2.468-0.47-3.407-1.41c-0.907-0.905-2.38-0.905-3.288 0-0.488 0.488-1.276 0.488-1.764 0s-0.488-1.278 0-1.764c1.879-1.879 4.937-1.879 6.816 0 0.908 0.907 2.382 0.907 3.288 0zM50.221 17.942c-0.488 0.487-1.276 0.488-1.764 0s-0.488-1.278 0-1.764c1.805-1.8 4.736-1.798 6.536 0 0.804 0.805 2.202 0.805 3.007 0 0.488-0.488 1.276-0.488 1.764 0 0.488 0.487 0.488 1.276 0 1.764-0.872 0.873-2.034 1.355-3.268 1.355s-2.395-0.482-3.267-1.355c-0.83-0.831-2.181-0.828-3.008 0zM71.298 26.163c1.125 5.050-4.268 11.395-8.207 16.027-0.93 1.093-1.733 2.036-2.296 2.79-5.251 7.009-11.66 13.314-18.537 18.229-0.756 0.541-1.672 1.269-2.64 2.040-3.735 2.976-8.387 6.677-12.387 6.75-0.042 0-0.085 0.001-0.126 0.001-1.945 0-3.518-0.819-4.44-2.316-1.271-2.064-1.072-4.929-0.21-6.934-4.549 3.344-8.585 5.717-10.921 5.747-0.017 0.001-0.034 0.001-0.051 0.001-0.875 0-1.462-0.292-1.837-0.593-2.706-1.279-4.342-3.117-4.866-5.467-0.832-3.739 1.326-8.106 4.233-12.237-1.067 0.478-1.959 0.724-2.69 0.724-0.641 0-1.166-0.18-1.598-0.53-2.233-1.063-3.586-2.596-4.024-4.559-1.124-5.050 4.269-11.395 8.208-16.027 0.93-1.093 1.733-2.036 2.296-2.79 5.249-7.007 11.658-13.311 18.537-18.229 0.756-0.541 1.672-1.269 2.64-2.040 3.735-2.976 8.387-6.677 12.387-6.75 1.979 0.010 3.622 0.786 4.563 2.313 1.38 2.239 1.037 5.44-0.016 7.442-0.125 0.237-0.257 0.474-0.385 0.71 3.391-2.413 6.978-4.425 10.189-4.484 3.014-0.052 4.613 1.454 5.397 2.726 1.654 2.682 1.238 6.521-0.029 8.929-0.842 1.604-1.76 3.196-2.722 4.781 2.68-1.46 4.41-1.706 5.507-0.814 2.232 1.063 3.586 2.596 4.024 4.559zM13.487 44.488c0.044-0.052 0.084-0.099 0.129-0.154 0.434-0.515 0.863-1.023 1.278-1.51 0.357-0.419 0.692-0.816 1.016-1.199 0.721-0.856 1.355-1.623 1.84-2.272 6.489-8.665 14.413-16.456 22.914-22.535 0.227-0.162 0.467-0.339 0.714-0.525 0.061-0.045 0.126-0.096 0.188-0.143 0.183-0.139 0.369-0.281 0.561-0.431 0.116-0.089 0.236-0.183 0.356-0.277 0.142-0.112 0.286-0.225 0.433-0.341 0.141-0.111 0.286-0.226 0.433-0.343 0.065-0.051 0.13-0.102 0.195-0.155 1.366-2.074 2.533-4.042 3.568-6.011 0.699-1.332 0.937-3.612 0.098-4.972-0.467-0.757-1.223-1.128-2.307-1.128-0.029 0-0.059 0-0.089 0.001-3.153 0.056-7.617 3.611-10.877 6.207-0.994 0.791-1.934 1.54-2.742 2.117-6.674 4.772-12.896 10.891-17.991 17.697-0.61 0.814-1.436 1.787-2.393 2.911-0.319 0.375-0.658 0.774-1.001 1.181 1.849-1.159 4.442-0.953 6.019 0.626 0.908 0.908 2.382 0.906 3.288 0 0.488-0.488 1.276-0.488 1.764 0s0.488 1.276 0 1.764c-0.938 0.939-2.173 1.409-3.407 1.409s-2.467-0.469-3.407-1.409c-0.878-0.878-2.405-0.881-3.286 0-0.488 0.488-1.276 0.488-1.764 0-0.282-0.281-0.381-0.66-0.338-1.026-3.040 3.725-6.227 8.233-5.539 11.321 0.273 1.225 1.188 2.178 2.799 2.912l0.205 0.094 0.16 0.16c-0.024-0.037 1.311 0.318 7.186-3.971zM11.214 65.964c0.114 0.065 2.23 1.035 14.535-8.941l0.001-0.002 0.157-0.129c2.388-1.94 4.999-4.163 7.76-6.602 5.002-4.423 9.426-8.611 11.418-10.571 0.187-0.185 0.358-0.353 0.497-0.493l0.052-0.052c0.166-0.167 0.296-0.3 0.383-0.392 0.908-0.956 1.795-1.925 2.664-2.906 0.123-0.138 0.241-0.279 0.363-0.419 0.767-0.875 1.523-1.755 2.257-2.647 0.061-0.076 0.121-0.151 0.183-0.227 0.797-0.974 1.576-1.956 2.331-2.947 0.009-0.011 0.016-0.023 0.025-0.034 0.793-1.043 1.563-2.093 2.307-3.151l0.004-0.004c2.303-3.275 4.362-6.602 6.132-9.97 0.907-1.726 1.208-4.685 0.114-6.46-0.656-1.063-1.666-1.577-3.23-1.54-4.010 0.072-9.588 4.514-13.663 7.759-0.085 0.069-0.166 0.132-0.251 0.2l-0.002 0.002c-0.144 0.114-0.274 0.217-0.413 0.327-0.106 0.084-0.212 0.168-0.317 0.251-0.153 0.121-0.301 0.236-0.447 0.351-0.144 0.113-0.288 0.227-0.428 0.335-0.17 0.132-0.332 0.255-0.493 0.378-0.096 0.074-0.196 0.151-0.291 0.222-0.258 0.193-0.508 0.378-0.747 0.55-6.223 4.449-12.129 9.84-17.367 15.828-1.745 1.996-3.417 4.057-5.002 6.173-0.75 1.002-1.772 2.202-2.953 3.592-0.045 0.054-0.095 0.111-0.141 0.166-0.4 0.469-0.814 0.957-1.235 1.46-4.12 4.904-9.181 11.427-8.202 15.825 0.36 1.617 1.549 2.866 3.637 3.818l0.205 0.094zM64.318 36.777c2.694-3.446 5.157-7.322 4.54-10.070-0.273-1.225-1.188-2.178-2.799-2.912l-0.318-0.207c-0.239-0.023-1.78-0.056-7.235 3.925l-0.353 0.418c-0.762 1.083-1.549 2.16-2.367 3.229-0.002 0.004-0.006 0.007-0.009 0.011-0.761 0.997-1.545 1.988-2.352 2.972-0.072 0.089-0.142 0.178-0.216 0.267-0.736 0.892-1.493 1.779-2.268 2.661-0.135 0.154-0.263 0.308-0.399 0.462-0.883 0.996-1.787 1.984-2.717 2.964-0.187 0.198-0.558 0.57-1.049 1.053-0.771 0.828-1.563 1.639-2.364 2.445 1.36-0.108 2.755 0.334 3.794 1.373 0.88 0.88 2.408 0.88 3.288 0 0.488-0.488 1.276-0.488 1.764 0s0.488 1.276 0 1.764c-0.911 0.912-2.121 1.414-3.407 1.414-1.287 0-2.498-0.503-3.407-1.414-0.907-0.908-2.38-0.906-3.288 0-0.488 0.488-1.276 0.488-1.764 0-0.037-0.037-0.054-0.086-0.085-0.127-1.856 1.719-3.773 3.369-5.732 4.936-2.539 2.258-5.264 4.605-7.964 6.801-1.104 1.748-1.974 3.236-2.725 4.664-0.7 1.332-0.938 3.611-0.1 4.971 0.48 0.778 1.229 1.164 2.397 1.128 3.153-0.056 7.617-3.611 10.877-6.207 0.994-0.791 1.934-1.54 2.742-2.117 6.671-4.771 12.892-10.89 17.991-17.697 0.61-0.813 1.436-1.787 2.393-2.911 0.354-0.417 0.731-0.86 1.114-1.316-0.524 0.192-1.078 0.307-1.652 0.307-1.287 0-2.498-0.503-3.407-1.414-0.88-0.88-2.408-0.88-3.288 0-0.488 0.488-1.276 0.488-1.764 0-0.488-0.487-0.488-1.276 0-1.764 1.819-1.822 4.992-1.824 6.816 0 0.88 0.88 2.408 0.88 3.288 0 0.488-0.488 1.276-0.488 1.764 0 0.116 0.115 0.2 0.25 0.261 0.392z"></path>
</svg>
