<!-- Generated by IcoMoon.io -->
<svg version="1.1" xmlns="http://www.w3.org/2000/svg" width="72" height="72" viewBox="0 0 72 72">
<title>uniF1AD</title>
<path d="M68.211 34.737c2.089 0 3.789 1.7 3.789 3.789s-1.7 3.789-3.789 3.789h-3.789v8.588c0 4.319-3.498 7.833-7.796 7.833h-41.248c-4.185 0-7.602-3.334-7.78-7.494-0.002-0.029-0.018-0.054-0.018-0.085 0-0.018 0.010-0.033 0.010-0.049-0.001-0.068-0.010-0.135-0.010-0.203v-8.588h-3.789c-2.089 0-3.789-1.7-3.789-3.789s1.7-3.789 3.789-3.789h3.762c-0.064-0.728-0.282-1.435-0.657-2.065l-2.060-3.451c-0.404-0.678-0.414-1.527-0.024-2.216 0.258-0.453 0.671-0.777 1.144-0.955 0.024-0.338 0.111-0.673 0.288-0.974l0.166-0.222c1.484-1.587 5.185-5.276 7.487-5.276h12.114c0.605-3.579 3.717-6.316 7.465-6.316h3.789c3.749 0 6.862 2.737 7.465 6.316h13.377c2.301 0 6.003 3.69 7.488 5.275l0.166 0.222c0.177 0.302 0.264 0.637 0.288 0.974 0.474 0.178 0.887 0.502 1.144 0.955 0.39 0.688 0.38 1.537-0.025 2.216l-2.059 3.454c-0.375 0.628-0.592 1.335-0.657 2.063h3.76zM33.474 15.789c-2.349 0-4.33 1.612-4.893 3.79h13.576c-0.563-2.178-2.544-3.79-4.893-3.79h-3.789zM13.895 22.105c-0.705 0.009-2.92 1.712-4.979 3.789h54.169c-2.059-2.078-4.275-3.781-4.979-3.789h-44.211zM2.526 38.526c0 0.697 0.567 1.263 1.263 1.263h3.789v-2.526h-3.789c-0.696 0-1.263 0.566-1.263 1.263zM61.895 50.904v-16.167h0.030c0.068-1.184 0.404-2.338 1.013-3.357l1.763-2.958h-57.403l1.765 2.957c0.609 1.021 0.945 2.175 1.013 3.359h0.029v5.053h5.053c0.697 0 1.263 0.565 1.263 1.263s-0.566 1.263-1.263 1.263h-5.053v2.526h7.579c0.697 0 1.263 0.565 1.263 1.263s-0.566 1.263-1.263 1.263h-7.579v2.526h11.369c0.697 0 1.263 0.565 1.263 1.263s-0.566 1.263-1.263 1.263h-11.123c0.653 2.184 2.646 3.79 5.025 3.79h41.25c2.905 0 5.27-2.381 5.27-5.307zM68.211 39.789c0.696 0 1.263-0.566 1.263-1.263s-0.567-1.263-1.263-1.263h-3.789v2.526h3.789z"></path>
</svg>
