<!-- Generated by IcoMoon.io -->
<svg version="1.1" xmlns="http://www.w3.org/2000/svg" width="72" height="72" viewBox="0 0 72 72">
<title>uniF140</title>
<path d="M57.772 38.741c1.112 4.406 1.093 9.134-0.054 13.674-0.15 0.591-0.681 0.985-1.264 0.985-0.106 0-0.213-0.012-0.321-0.039-0.699-0.177-1.122-0.887-0.946-1.585 1.042-4.123 1.061-8.408 0.054-12.395-0.176-0.699 0.248-1.408 0.946-1.585 0.708-0.173 1.409 0.249 1.585 0.946zM55.149 32.214c0.355 0.627 0.136 1.423-0.489 1.778-0.204 0.116-0.425 0.171-0.643 0.171-0.455 0-0.895-0.237-1.136-0.66-0.643-1.132-1.386-2.218-2.205-3.224-0.455-0.558-0.371-1.38 0.188-1.836 0.558-0.454 1.38-0.371 1.836 0.188 0.911 1.119 1.735 2.325 2.45 3.582zM41.581 17.945c10.643 1.785 25.078 7.701 25.078 26.659 0 24.283-18.128 27.397-33.92 27.397-14.297 0-26.055-11.014-27.276-24.999-0.080-0.788-0.121-1.589-0.121-2.398s0.040-1.61 0.121-2.398c1.221-13.986 12.978-24.999 27.276-24.999 1.526 0 3.72 0.074 6.262 0.372 0.166-1.070 0.421-2.108 0.772-3.097l-4.71-0.701c-4.395-0.655-7.787-4.048-8.442-8.442l-0.794-5.339 5.337 0.796c4.394 0.655 7.786 4.047 8.441 8.441l0.616 4.127c0.592-1.34 1.35-2.579 2.277-3.657 2.324-2.706 5.37-4.136 8.555-4.013 0.72 0.025 1.282 0.63 1.256 1.352-0.026 0.72-0.601 1.307-1.352 1.255-2.401-0.070-4.686 1.016-6.48 3.106-1.512 1.76-2.505 4.038-2.895 6.539zM35.447 11.199l1.854 0.277-0.277-1.854c-0.484-3.25-2.994-5.76-6.245-6.244l-1.853-0.277 0.275 1.853c0.484 3.251 2.994 5.761 6.245 6.245zM7.95 44.603c0 11.511 9.365 20.874 20.874 20.874s20.874-9.365 20.874-20.874c0-11.509-9.365-20.874-20.874-20.874s-20.874 9.365-20.874 20.874zM32.738 69.391c15.483 0 31.311-2.945 31.311-24.788 0-17.049-12.711-22.504-22.929-24.137-0.239 0.318-0.602 0.536-1.025 0.536-0.016 0-0.031 0-0.048-0.001-0.541-0.019-0.993-0.367-1.173-0.843-2.317-0.261-4.432-0.343-6.136-0.343-3.573 0-6.964 0.775-10.035 2.142 1.956-0.53 4.001-0.838 6.121-0.838 12.948 0 23.483 10.535 23.483 23.483s-10.535 23.483-23.483 23.483c-2.12 0-4.166-0.308-6.121-0.838 3.071 1.367 6.462 2.142 10.035 2.142zM28.825 35.631c0.72 0 1.305 0.583 1.305 1.305v4.519l3.196-3.196c0.51-0.51 1.335-0.51 1.845 0s0.51 1.335 0 1.845l-3.195 3.195h4.519c0.72 0 1.305 0.583 1.305 1.305s-0.585 1.305-1.305 1.305h-4.521l3.196 3.196c0.51 0.51 0.51 1.335 0 1.845-0.254 0.254-0.588 0.382-0.922 0.382s-0.668-0.128-0.922-0.382l-3.196-3.196v4.519c0 0.722-0.585 1.305-1.305 1.305s-1.305-0.583-1.305-1.305v-4.519l-3.196 3.196c-0.254 0.254-0.588 0.382-0.922 0.382s-0.668-0.128-0.922-0.382c-0.51-0.51-0.51-1.335 0-1.845l3.196-3.196h-4.521c-0.72 0-1.305-0.583-1.305-1.305s0.585-1.305 1.305-1.305h4.519l-3.195-3.195c-0.51-0.51-0.51-1.335 0-1.845s1.335-0.51 1.845 0l3.196 3.196v-4.519c0-0.722 0.585-1.305 1.305-1.305zM34.043 30.253c0-0.87 0.435-1.305 1.305-1.305s1.305 0.435 1.305 1.305-0.435 1.305-1.305 1.305c-0.87 0-1.305-0.435-1.305-1.305zM41.871 38.081c0-0.87 0.435-1.305 1.305-1.305s1.305 0.435 1.305 1.305c0 0.87-0.435 1.305-1.305 1.305s-1.305-0.435-1.305-1.305zM41.871 51.127c0-0.87 0.435-1.305 1.305-1.305s1.305 0.435 1.305 1.305-0.435 1.305-1.305 1.305-1.305-0.435-1.305-1.305zM34.043 58.955c0-0.87 0.435-1.305 1.305-1.305s1.305 0.435 1.305 1.305c0 0.87-0.435 1.305-1.305 1.305s-1.305-0.435-1.305-1.305zM31.434 53.736c0-0.87 0.435-1.305 1.305-1.305s1.305 0.435 1.305 1.305c0 0.87-0.435 1.305-1.305 1.305s-1.305-0.435-1.305-1.305zM36.652 48.518c0-0.87 0.435-1.305 1.305-1.305s1.305 0.435 1.305 1.305-0.435 1.305-1.305 1.305-1.305-0.435-1.305-1.305zM36.652 40.69c0-0.87 0.435-1.305 1.305-1.305s1.305 0.435 1.305 1.305-0.435 1.305-1.305 1.305-1.305-0.435-1.305-1.305zM31.434 35.472c0-0.87 0.435-1.305 1.305-1.305s1.305 0.435 1.305 1.305-0.435 1.305-1.305 1.305-1.305-0.435-1.305-1.305zM23.606 35.472c0-0.87 0.435-1.305 1.305-1.305s1.305 0.435 1.305 1.305-0.435 1.305-1.305 1.305-1.305-0.435-1.305-1.305zM18.388 40.69c0-0.87 0.435-1.305 1.305-1.305s1.305 0.435 1.305 1.305-0.435 1.305-1.305 1.305-1.305-0.435-1.305-1.305zM18.388 48.518c0-0.87 0.435-1.305 1.305-1.305s1.305 0.435 1.305 1.305-0.435 1.305-1.305 1.305-1.305-0.435-1.305-1.305zM23.606 53.736c0-0.87 0.435-1.305 1.305-1.305s1.305 0.435 1.305 1.305c0 0.87-0.435 1.305-1.305 1.305s-1.305-0.435-1.305-1.305zM20.997 58.955c0-0.87 0.435-1.305 1.305-1.305s1.305 0.435 1.305 1.305c0 0.87-0.435 1.305-1.305 1.305s-1.305-0.435-1.305-1.305zM13.169 51.127c0-0.87 0.435-1.305 1.305-1.305s1.305 0.435 1.305 1.305-0.435 1.305-1.305 1.305-1.305-0.435-1.305-1.305zM13.169 38.081c0-0.87 0.435-1.305 1.305-1.305s1.305 0.435 1.305 1.305c0 0.87-0.435 1.305-1.305 1.305s-1.305-0.435-1.305-1.305zM20.997 30.253c0-0.87 0.435-1.305 1.305-1.305s1.305 0.435 1.305 1.305-0.435 1.305-1.305 1.305-1.305-0.435-1.305-1.305zM15.778 32.862c0-0.87 0.435-1.305 1.305-1.305s1.305 0.435 1.305 1.305-0.435 1.305-1.305 1.305c-0.87 0-1.305-0.435-1.305-1.305zM39.262 32.862c0-0.87 0.435-1.305 1.305-1.305s1.305 0.435 1.305 1.305-0.435 1.305-1.305 1.305-1.305-0.435-1.305-1.305zM15.778 56.346c0-0.87 0.435-1.305 1.305-1.305s1.305 0.435 1.305 1.305-0.435 1.305-1.305 1.305c-0.87 0-1.305-0.435-1.305-1.305zM37.957 55.041c0-0.87 0.435-1.305 1.305-1.305s1.305 0.435 1.305 1.305-0.435 1.305-1.305 1.305-1.305-0.435-1.305-1.305zM27.52 60.26c0-0.87 0.435-1.305 1.305-1.305s1.305 0.435 1.305 1.305c0 0.87-0.435 1.305-1.305 1.305s-1.305-0.435-1.305-1.305zM27.52 28.948c0-0.87 0.435-1.305 1.305-1.305s1.305 0.435 1.305 1.305-0.435 1.305-1.305 1.305-1.305-0.435-1.305-1.305zM43.175 44.604c0-0.87 0.435-1.305 1.305-1.305s1.305 0.435 1.305 1.305c0 0.87-0.435 1.305-1.305 1.305s-1.305-0.435-1.305-1.305zM11.864 44.604c0-0.87 0.435-1.305 1.305-1.305s1.305 0.435 1.305 1.305c0 0.87-0.435 1.305-1.305 1.305s-1.305-0.435-1.305-1.305z"></path>
</svg>
