<!-- Generated by IcoMoon.io -->
<svg version="1.1" xmlns="http://www.w3.org/2000/svg" width="72" height="72" viewBox="0 0 72 72">
<title>uniF114</title>
<path d="M61.678 60.59v0 0c-0.001 0.001-0.001 0.001 0 0l-0.030 0.028c-0.63 0.939-1.805 1.945-2.253 2.314-0.138 0.187-0.301 0.357-0.484 0.508-0.009 0.008-0.016 0.019-0.025 0.027-2.951 2.377-6.209 4.167-9.638 5.361-3.43 1.196-7.033 1.796-10.673 1.796v0 0c-5.426 0-10.935-1.334-16.083-4.025-0.735-0.384-1.463-0.797-2.182-1.236-12.578-7.693-18.836-21.642-15.946-35.54 0.033-0.16-0.005-0.361-0.166-0.45-1.382-0.768-3.764-2.565-4.175-5.983-0.037-0.309-0.028-0.614 0.027-0.906 0.019-0.096 0.043-0.206 0.075-0.327 0.013-0.052 0.034-0.112 0.051-0.167 0.021-0.071 0.041-0.141 0.068-0.218 0.028-0.080 0.066-0.165 0.1-0.25 0.025-0.061 0.047-0.12 0.076-0.184 0.046-0.1 0.101-0.204 0.157-0.308 0.028-0.053 0.052-0.104 0.084-0.157 0.066-0.114 0.143-0.231 0.223-0.347 0.032-0.047 0.061-0.093 0.095-0.139 0.089-0.124 0.193-0.247 0.299-0.371 0.036-0.041 0.068-0.081 0.105-0.122 0.118-0.129 0.248-0.255 0.386-0.381 0.039-0.036 0.076-0.071 0.116-0.106 0.147-0.129 0.31-0.253 0.481-0.376 0.043-0.031 0.085-0.061 0.129-0.091 0.181-0.124 0.377-0.242 0.586-0.357 0.047-0.027 0.094-0.052 0.142-0.077 0.219-0.114 0.455-0.223 0.704-0.325 0.051-0.020 0.1-0.041 0.152-0.061 0.261-0.101 0.54-0.196 0.835-0.282 0.052-0.015 0.105-0.029 0.158-0.044 0.308-0.086 0.633-0.161 0.979-0.227 0.052-0.010 0.106-0.019 0.16-0.028 0.358-0.063 0.737-0.116 1.14-0.156 0.048-0.005 0.099-0.009 0.147-0.013 0.419-0.038 0.86-0.063 1.327-0.072h0.113c0.49-0.008 1.003 0.001 1.548 0.030 0.013 0 0.025 0.002 0.038 0.002 0.569 0.031 1.165 0.080 1.797 0.153 0.090-0.111 0.195-0.217 0.286-0.328 0.413-0.503 0.839-0.992 1.278-1.467 0.077-0.082 0.152-0.165 0.229-0.247 0.7-0.743 1.426-1.459 2.186-2.13 2.491-2.436 5.361-4.48 8.538-6.029 0.035-0.346 0.091-0.733 0.166-1.137 0.022-0.114 0.044-0.225 0.067-0.336 0.052-0.243 0.114-0.49 0.186-0.738 0.048-0.166 0.1-0.324 0.154-0.479 0.047-0.134 0.101-0.265 0.157-0.398 0.065-0.156 0.126-0.314 0.198-0.457 0.065-0.129 0.143-0.247 0.215-0.37 0.151-0.253 0.314-0.48 0.49-0.685 0.061-0.070 0.113-0.149 0.177-0.215 0.010-0.011 0.024-0.019 0.035-0.030 0.103-0.101 0.213-0.186 0.323-0.272 0.084-0.065 0.166-0.129 0.253-0.186 0.117-0.077 0.238-0.144 0.362-0.205 0.101-0.051 0.208-0.091 0.314-0.13 0.113-0.040 0.224-0.085 0.343-0.114 0.233-0.058 0.473-0.099 0.721-0.108 0.134-0.022 0.29-0.035 0.456-0.043 0.077-0.004 0.156-0.001 0.237-0.001 0.1 0.001 0.201 0.005 0.308 0.013 0.090 0.006 0.177 0.014 0.271 0.025 0.153 0.019 0.314 0.049 0.477 0.085 0.044 0.010 0.086 0.015 0.132 0.027 0.774 0.191 1.626 0.584 2.404 1.316 0.089 0.084 0.157 0.198 0.242 0.288 0.158 0.167 0.312 0.35 0.461 0.547 0.12 0.158 0.239 0.318 0.35 0.493 0.033 0.052 0.071 0.091 0.103 0.144 10.863-1.606 21.485 2.259 28.781 10.013 0.999-0.496 1.973-0.698 2.916-0.588 1.792 0.213 2.96 1.528 3.366 2.271l0.632 1.154-1.177 0.588c-0.456 0.227-0.716 0.836-0.852 1.306-0.229 0.787-0.1 1.712 0.362 2.605 6.571 12.664 3.778 28.671-6.791 38.926zM65.817 16.252c-0.526-0.054-1.146 0.133-1.829 0.537l-0.289 0.194c-0.321 0.215-0.638 0.465-0.958 0.747-0.020 0.019-0.041 0.038-0.061 0.057-0.314 0.281-0.628 0.593-0.95 0.947l-0.158 0.147c-0.346 0.275-8.439 6.905 0.181 18.437 0.134 0.139 0.388 0.425 0.686 0.862 0.010 0.015 0.019 0.025 0.029 0.041 0.052 0.076 0.108 0.171 0.162 0.257 0.056 0.087 0.109 0.166 0.166 0.263 0.038 0.065 0.077 0.146 0.117 0.215 0.076 0.136 0.151 0.267 0.227 0.419 0.038 0.076 0.076 0.167 0.114 0.248 0.077 0.163 0.154 0.323 0.23 0.505 0.034 0.082 0.066 0.18 0.1 0.267 0.077 0.198 0.154 0.391 0.227 0.608 0.035 0.106 0.065 0.227 0.099 0.337 0.067 0.218 0.136 0.429 0.195 0.665 0.033 0.132 0.058 0.28 0.090 0.417 0.052 0.234 0.108 0.462 0.153 0.713 0.029 0.16 0.047 0.338 0.072 0.504 0.037 0.25 0.079 0.491 0.106 0.757 0.018 0.173 0.024 0.366 0.038 0.547 0.022 0.28 0.048 0.554 0.058 0.851 0.006 0.187-0.002 0.395-0.001 0.59 0.003 0.312 0.009 0.617-0.002 0.946-0.008 0.222-0.033 0.464-0.048 0.693-0.021 0.325-0.035 0.643-0.071 0.985-0.027 0.258-0.075 0.54-0.11 0.807-0.046 0.338-0.082 0.666-0.142 1.020-0.047 0.274-0.117 0.57-0.172 0.854-0.073 0.372-0.137 0.735-0.228 1.123-0.067 0.286-0.158 0.594-0.236 0.889-0.104 0.399-0.195 0.788-0.318 1.203 6.912-9.333 8.214-21.886 2.926-32.079-0.764-1.473-0.957-3.065-0.544-4.48 0.209-0.719 0.514-1.332 0.902-1.828-0.208-0.132-0.463-0.237-0.761-0.268zM61.128 15.777c-6.59-6.823-16.006-10.26-25.691-9.032 0.841 3.013 0.854 7.217 0.010 12.604-0.792 5.061 0.047 9.142 2.493 12.131 4.114 5.026 11.437 5.403 11.51 5.407 0.37 0.044 6.457 0.914 9.697 6.267 2.46 4.066 1.684 11.157 1.684 11.157 3.269-11.008-0.868-15.199-0.909-15.239l-0.14-0.157c-2.118-2.817-3.354-5.407-3.981-7.745-0.044-0.163-0.076-0.323-0.114-0.484-0.039-0.168-0.085-0.338-0.118-0.503-0.014-0.071-0.023-0.137-0.036-0.206-0.109-0.574-0.186-1.134-0.225-1.673-0.006-0.081-0.005-0.158-0.010-0.239-0.024-0.441-0.029-0.87-0.014-1.287 0.009-0.227 0.023-0.45 0.042-0.669 0.034-0.402 0.080-0.794 0.146-1.172 0.030-0.172 0.068-0.338 0.104-0.505 0.018-0.084 0.033-0.17 0.052-0.252 0.988-4.195 3.722-6.723 4.286-7.208 0.384-0.419 0.764-0.784 1.142-1.123 0.024-0.022 0.048-0.051 0.072-0.071zM49.767 56.721c1.724 1.115 4.12 1.621 7.169 1.511 0.071-0.004 0.141-0.004 0.212-0.001 1.916-5.791 1.861-10.419-0.166-13.768-2.619-4.327-7.703-5.052-7.754-5.058-0.234-0.005-8.424-0.431-13.247-6.323-2.922-3.57-3.943-8.324-3.035-14.126 1.117-7.142 0.493-10.842-0.377-12.758-0.565-1.239-1.283-1.816-1.897-2.080-0.037-0.015-0.073-0.032-0.11-0.044-0.103-0.039-0.201-0.068-0.296-0.091-0.042-0.010-0.087-0.024-0.127-0.032-0.113-0.022-0.219-0.034-0.311-0.041-0.042-0.002-0.075-0.002-0.113-0.002-0.057 0-0.115-0.001-0.16 0.001-0.022 0.001-0.041 0.002-0.058 0.004-0.043 0.004-0.084 0.009-0.104 0.013-0.001 0-0.008 0.001-0.009 0.001l-0.252 0.025c-0.154 0-0.298 0.042-0.431 0.117-0.008 0.004-0.015 0.011-0.023 0.016-0.114 0.068-0.219 0.165-0.317 0.279-0.028 0.033-0.056 0.071-0.082 0.108-0.077 0.104-0.149 0.218-0.217 0.346-0.024 0.046-0.047 0.091-0.070 0.139-0.070 0.149-0.136 0.309-0.194 0.479-0.009 0.025-0.018 0.049-0.027 0.075-0.28 0.855-0.419 1.894-0.461 2.669l-0.008 0.149c-0.005 0.134-0.010 0.27-0.009 0.388l0.005 0.86-0.797 0.325c-3.135 1.272-6.035 3.097-8.59 5.366-0.084 0.082-0.175 0.153-0.257 0.237-0.697 0.638-1.346 1.288-1.959 1.948-0.039 0.042-0.077 0.082-0.115 0.124-0.141 0.153-0.257 0.314-0.394 0.469 0.071 0.024 0.153 0.057 0.229 0.085 0.068 0.025 0.129 0.047 0.201 0.075 0.177 0.068 0.367 0.147 0.567 0.234 0.048 0.020 0.089 0.037 0.138 0.058 0.252 0.113 0.521 0.241 0.803 0.385 0.057 0.029 0.118 0.065 0.176 0.095 0.225 0.118 0.455 0.244 0.694 0.385 0.1 0.058 0.203 0.124 0.305 0.187 0.208 0.127 0.417 0.261 0.631 0.405 0.118 0.079 0.236 0.162 0.355 0.247 0.209 0.149 0.42 0.308 0.634 0.474 0.122 0.095 0.243 0.19 0.367 0.291 0.224 0.185 0.451 0.384 0.678 0.589 0.113 0.101 0.224 0.198 0.337 0.304 0.294 0.279 0.586 0.578 0.879 0.893 0.044 0.047 0.087 0.087 0.132 0.136 0.336 0.369 0.666 0.766 0.993 1.187 0.089 0.115 0.175 0.243 0.263 0.362 0.234 0.315 0.466 0.638 0.692 0.983 0.113 0.171 0.22 0.352 0.331 0.531 0.198 0.319 0.39 0.648 0.579 0.993 0.113 0.205 0.222 0.415 0.331 0.629 0.179 0.353 0.352 0.722 0.52 1.101 0.1 0.227 0.201 0.45 0.298 0.685 0.173 0.422 0.334 0.865 0.493 1.317 0.076 0.218 0.157 0.426 0.229 0.651 0.222 0.689 0.429 1.405 0.612 2.163l0.027 0.152c0.003 0.022 0.014 0.108 0.042 0.243 0.194 0.95 1.173 4.34 5.36 5.212 0.020-0.004 0.081-0.015 0.142-0.022 0.095-0.010 0.189-0.020 0.284-0.027 0.457-0.028 0.983-0.090 1.554-0.156 0.451-0.052 0.935-0.104 1.43-0.151 0.143-0.014 0.279-0.025 0.424-0.037 0.544-0.044 1.099-0.077 1.666-0.079 0.010 0 0.020-0.001 0.030-0.001 0.346 0 0.694 0.016 1.041 0.042 0.076 0.006 0.151 0.013 0.227 0.019 0.364 0.033 0.724 0.080 1.082 0.151 0.043 0.009 0.086 0.022 0.129 0.030 0.329 0.070 0.654 0.161 0.971 0.27 0.058 0.020 0.116 0.037 0.175 0.058 0.333 0.123 0.656 0.275 0.97 0.451 0.067 0.038 0.133 0.080 0.199 0.12 0.31 0.19 0.614 0.4 0.898 0.654 0.006 0.006 0.014 0.009 0.020 0.015 1.606 1.443 2.408 3.731 2.382 6.803v0 0.001l-0.030 0.265c-0.008 0.037-0.666 3.18 0.48 6.021 0.265 0.656 0.626 1.296 1.112 1.877 0.424 0.505 0.923 0.945 1.498 1.317zM21.632 63.199c11.584 7.086 25.584 6.414 35.668-1.706 0.146-0.117 0.158-0.272 0.152-0.355-0.005-0.075-0.044-0.209-0.177-0.304l-0.041-0.027c-0.057-0.028-0.135-0.046-0.2-0.044-3.673 0.132-6.615-0.542-8.794-2.014-0.726-0.49-1.368-1.069-1.924-1.736-0.979-1.177-1.573-2.493-1.921-3.776-0.766-2.822-0.342-5.483-0.217-6.138 0-2.252-0.519-3.859-1.543-4.779-1.082-0.971-2.74-1.191-4.403-1.151-0.998 0.024-1.996 0.139-2.874 0.242-0.621 0.072-1.193 0.138-1.69 0.168l-0.153 0.016c-0.227 0.027-0.537 0.053-0.89-0.010-0.022-0.004-0.038-0.001-0.060-0.005-4.567-0.95-6.58-4.352-7.203-6.656-0.089-0.329-0.149-0.636-0.185-0.909-2.778-11.434-10.667-13.59-11.559-13.799-0.138-0.023-0.264-0.038-0.398-0.058-0.054-0.008-0.112-0.016-0.165-0.023v0.001l-0.573-0.080c-1.259-0.166-2.358-0.238-3.32-0.238-4.988 0-6.235 1.94-6.543 2.824-0.004 0.008-0.005 0.014-0.008 0.023-0.018 0.053-0.034 0.104-0.046 0.148-0.014 0.052-0.023 0.096-0.031 0.134-0.006 0.037-0.008 0.084-0.001 0.136 0.262 2.187 1.716 3.421 2.889 4.071 1.116 0.621 1.685 1.899 1.417 3.183-3.24 15.579 5.515 27.189 14.788 32.861z"></path>
</svg>
