<!-- Generated by IcoMoon.io -->
<svg version="1.1" xmlns="http://www.w3.org/2000/svg" width="72" height="72" viewBox="0 0 72 72">
<title>uniF14C</title>
<path d="M30.857 34.714c0-0.857 0.429-1.286 1.286-1.286s1.286 0.429 1.286 1.286c0 0.857-0.429 1.286-1.286 1.286s-1.286-0.429-1.286-1.286zM34.714 43.714c0-0.857 0.429-1.286 1.286-1.286s1.286 0.429 1.286 1.286c0 0.857-0.429 1.286-1.286 1.286s-1.286-0.429-1.286-1.286zM37.286 36.643c0-1.286 0.643-1.929 1.929-1.929s1.929 0.643 1.929 1.929c0 1.286-0.643 1.929-1.929 1.929s-1.929-0.643-1.929-1.929zM37.286 63.015c9.429 0.209 14.143 1.704 14.143 4.485 0 0.99-0.643 1.82-1.928 2.49s-2.932 1.132-4.94 1.386-3.655 0.422-4.943 0.503c-1.287 0.081-2.493 0.121-3.618 0.121s-2.33-0.040-3.618-0.121c-1.287-0.081-2.935-0.248-4.943-0.503s-3.654-0.717-4.94-1.386c-1.286-0.67-1.928-1.499-1.928-2.49 0-2.78 4.714-4.275 14.143-4.485v-9.234c-2.265-0.704-4.215-3.164-5.851-7.381s-2.828-9.344-3.576-15.382c-0.749-6.038-1.269-10.996-1.562-14.873s-0.486-7.507-0.579-10.887c-0.002-0.026-0.003-0.064-0.003-0.116 0-1.625 1.363-2.889 4.090-3.79s5.649-1.353 8.767-1.353 6.041 0.451 8.767 1.353c2.727 0.902 4.090 2.165 4.090 3.79 0 0.051-0.001 0.090-0.003 0.116-0.093 3.38-0.286 7.009-0.579 10.887s-0.814 8.836-1.562 14.873-1.941 11.165-3.576 15.382c-1.636 4.217-3.586 6.677-5.851 7.38v9.234zM36 18.537c3.945 0 7.058 0.631 9.338 1.893 0.386-4.045 0.665-8.074 0.836-12.088-0.011 0.005-0.029 0.013-0.053 0.023s-0.042 0.018-0.054 0.023c-0.264 0.128-0.552 0.253-0.864 0.375-0.031 0.012-0.145 0.054-0.342 0.125-0.26 0.095-0.51 0.179-0.75 0.253-0.148 0.046-0.277 0.084-0.387 0.116-0.265 0.077-0.542 0.15-0.831 0.22-0.026 0.006-0.064 0.016-0.115 0.029-0.1 0.025-0.176 0.044-0.228 0.056-0.432 0.099-0.838 0.182-1.218 0.25l-0.027 0.004c-0.376 0.066-0.782 0.129-1.216 0.188-0.045 0.006-0.174 0.022-0.386 0.048-0.353 0.042-0.645 0.074-0.874 0.095-0.199 0.018-0.34 0.030-0.424 0.037-0.257 0.021-0.545 0.039-0.864 0.057-0.244 0.013-0.366 0.019-0.366 0.019-0.432 0.018-0.824 0.027-1.175 0.027-0.364 0-0.756-0.009-1.175-0.028-0.009-0-0.131-0.007-0.366-0.019-0.269-0.013-0.557-0.032-0.864-0.057-0.077-0.006-0.218-0.019-0.424-0.037-0.272-0.025-0.563-0.057-0.874-0.095-0.219-0.026-0.348-0.042-0.386-0.048-0.431-0.057-0.836-0.12-1.216-0.188l-0.027-0.004c-0.375-0.066-0.78-0.15-1.218-0.249-0.046-0.011-0.114-0.027-0.204-0.050s-0.136-0.034-0.139-0.035c-0.319-0.079-0.595-0.152-0.831-0.22-0.11-0.031-0.239-0.070-0.387-0.116-0.237-0.073-0.487-0.158-0.75-0.253-0.187-0.067-0.301-0.109-0.342-0.125-0.306-0.121-0.594-0.246-0.864-0.375-0.011-0.006-0.029-0.013-0.053-0.023s-0.042-0.018-0.053-0.023c0.172 4.022 0.451 8.051 0.837 12.088 2.279-1.261 5.391-1.891 9.337-1.891zM44.838 23.208c-0.312-0.451-1.329-0.914-3.049-1.388s-3.65-0.711-5.789-0.711-4.069 0.237-5.789 0.711c-1.72 0.474-2.737 0.937-3.049 1.388 0.313 0.451 1.33 0.914 3.050 1.387s3.65 0.711 5.788 0.711c2.138 0 4.068-0.237 5.788-0.711s2.737-0.936 3.050-1.387zM36 2.571c-1.82 0-3.542 0.163-5.167 0.489s-2.859 0.683-3.701 1.070c-0.842 0.388-1.313 0.729-1.412 1.023 0.095 0.286 0.563 0.621 1.403 1.005s2.075 0.74 3.704 1.066 3.353 0.489 5.174 0.489c0.387 0 0.751-0.007 1.090-0.022 0.023-0.001 0.057-0.003 0.102-0.006s0.079-0.005 0.102-0.006c0.37-0.017 0.649-0.032 0.834-0.046 0.040-0.003 0.095-0.008 0.166-0.015s0.118-0.011 0.14-0.013c0.311-0.026 0.54-0.047 0.687-0.063 0.038-0.004 0.089-0.010 0.154-0.019 0.066-0.009 0.109-0.014 0.129-0.017 0.296-0.036 0.515-0.064 0.657-0.085 0.038-0.005 0.091-0.014 0.159-0.026 0.069-0.012 0.11-0.018 0.121-0.021 0.274-0.043 0.477-0.076 0.608-0.1 0.029-0.005 0.070-0.014 0.123-0.025s0.093-0.019 0.118-0.024c0.274-0.053 0.47-0.093 0.588-0.119 0.028-0.006 0.066-0.016 0.116-0.028s0.085-0.021 0.108-0.026c0.296-0.070 0.478-0.114 0.548-0.133 0.026-0.006 0.061-0.016 0.106-0.029s0.074-0.021 0.086-0.025c0.231-0.063 0.402-0.111 0.513-0.145 0.024-0.007 0.056-0.018 0.097-0.031s0.069-0.023 0.086-0.028c0.185-0.058 0.337-0.108 0.458-0.149 0.021-0.007 0.049-0.018 0.086-0.032s0.064-0.024 0.082-0.031c0.194-0.071 0.328-0.121 0.402-0.151 0.022-0.008 0.050-0.020 0.083-0.035 0.035-0.015 0.058-0.025 0.067-0.029 0.203-0.087 0.32-0.138 0.35-0.152 0.018-0.008 0.042-0.019 0.072-0.034 0.031-0.015 0.049-0.024 0.054-0.027 0.147-0.072 0.246-0.121 0.297-0.149 0.017-0.009 0.040-0.022 0.068-0.039s0.045-0.027 0.050-0.030c0.103-0.058 0.179-0.103 0.228-0.135 0.015-0.010 0.033-0.023 0.055-0.040s0.038-0.028 0.046-0.034c0.076-0.052 0.131-0.093 0.165-0.121 0.012-0.010 0.027-0.024 0.045-0.042s0.029-0.029 0.032-0.032c0.059-0.057 0.094-0.092 0.104-0.104 0.009-0.011 0.018-0.025 0.029-0.044s0.016-0.029 0.018-0.031c0.028-0.040 0.043-0.067 0.048-0.081-0.115-0.296-0.594-0.637-1.438-1.022s-2.076-0.739-3.695-1.062-3.334-0.484-5.145-0.484zM27.309 26.31c2.087 16.746 4.984 25.119 8.691 25.119s6.606-8.373 8.693-25.119c-2.313 1.045-5.211 1.567-8.693 1.567s-6.378-0.522-8.691-1.567zM36 69.429c6.505 0 10.724-0.643 12.655-1.929-1.743-1.16-5.533-1.799-11.37-1.916v1.273c0 0.857-0.429 1.286-1.286 1.286s-1.286-0.429-1.286-1.286v-1.273c-5.836 0.117-9.626 0.756-11.37 1.916 1.932 1.286 6.15 1.929 12.655 1.929z"></path>
</svg>
