<!-- Generated by IcoMoon.io -->
<svg version="1.1" xmlns="http://www.w3.org/2000/svg" width="72" height="72" viewBox="0 0 72 72">
<title>uniF11F</title>
<path d="M37.216 41.502c0 0.001 0 0.001-0.001 0.001 0.351 0.913 0.552 1.866 0.552 2.815 0 1.853-0.733 3.416-2.063 4.396-0.884 0.652-1.976 0.986-3.147 0.986-0.653 0-1.331-0.103-2.012-0.314-3.604-1.116-6.427-4.834-6.427-8.462 0-0.978 0.215-1.866 0.603-2.638 0.003-0.005 0.001-0.011 0.004-0.016 0.149-0.294 0.322-0.564 0.517-0.814 0.091-0.12 0.204-0.219 0.308-0.329 0.148-0.157 0.3-0.309 0.466-0.443 0.060-0.047 0.103-0.11 0.165-0.156 0.619-0.457 1.343-0.748 2.123-0.888 0.013-0.003 0.028-0.005 0.042-0.008 0.592-0.101 1.217-0.107 1.856-0.020 0.064 0.008 0.129 0.018 0.193 0.028 0.313 0.052 0.627 0.119 0.944 0.218 0.388 0.12 0.765 0.282 1.138 0.463 0.146 0.071 0.287 0.149 0.43 0.228 0.208 0.117 0.412 0.243 0.612 0.377 0.171 0.114 0.34 0.223 0.504 0.348 0.13 0.099 0.25 0.212 0.375 0.318 0.348 0.294 0.672 0.608 0.975 0.947 0.097 0.109 0.196 0.216 0.289 0.329 0.161 0.198 0.313 0.398 0.458 0.606 0.097 0.14 0.187 0.282 0.277 0.426 0.126 0.201 0.254 0.399 0.364 0.607 0.171 0.322 0.325 0.654 0.455 0.994zM27.508 38.956c-0.019 0.019-0.039 0.035-0.058 0.056 0.821 1.621 2.29 2.931 3.89 3.428 1.292 0.396 2.419 0.176 3.088-0.571-0.028-0.052-0.048-0.108-0.077-0.16-0.043-0.081-0.089-0.158-0.134-0.238-0.31-0.524-0.689-1.018-1.126-1.453-0.023-0.024-0.047-0.046-0.070-0.069-0.451-0.439-0.959-0.814-1.499-1.104-0.054-0.028-0.108-0.056-0.163-0.083-0.266-0.132-0.536-0.25-0.814-0.336-0.295-0.091-0.58-0.141-0.856-0.168-0.051-0.007-0.102-0.011-0.152-0.013-0.187-0.011-0.361 0.007-0.536 0.025-0.118 0.012-0.235 0.023-0.346 0.048-0.152 0.036-0.293 0.091-0.43 0.152-0.099 0.043-0.198 0.086-0.287 0.142-0.157 0.097-0.303 0.208-0.431 0.342zM34.11 46.555c0.537-0.395 0.853-1.045 0.935-1.837-0.745 0.385-1.596 0.598-2.505 0.598-0.643 0-1.315-0.102-1.994-0.312-1.151-0.357-2.243-1.014-3.198-1.858 0.77 1.668 2.279 3.144 3.993 3.676 1.094 0.336 2.078 0.243 2.769-0.267zM55.68 45.444c2.681 0.829 4.781 3.601 4.783 6.309 0 1.409-0.586 2.647-1.608 3.401-0.688 0.508-1.534 0.768-2.439 0.768-0.498 0-1.013-0.079-1.53-0.239-2.682-0.83-4.783-3.6-4.783-6.306 0-1.409 0.586-2.649 1.608-3.402 1.067-0.787 2.51-0.982 3.969-0.531zM57.259 52.991c0.427-0.314 0.516-0.848 0.516-1.24 0-1.543-1.323-3.257-2.89-3.742-0.263-0.082-0.512-0.122-0.741-0.122-0.329 0-0.615 0.085-0.839 0.248-0.427 0.316-0.516 0.849-0.516 1.241 0 1.542 1.323 3.256 2.89 3.741 0.639 0.199 1.202 0.153 1.581-0.126zM18.073 42.758c2.681 0.829 4.781 3.601 4.783 6.309 0 1.409-0.586 2.647-1.608 3.401-0.688 0.508-1.534 0.768-2.439 0.768-0.498 0-1.013-0.079-1.53-0.239-2.682-0.83-4.783-3.6-4.783-6.306 0-1.409 0.586-2.649 1.608-3.402 1.067-0.787 2.512-0.982 3.969-0.531zM19.652 50.305c0.427-0.314 0.516-0.847 0.516-1.24 0-1.543-1.323-3.257-2.89-3.742-0.263-0.082-0.512-0.122-0.741-0.122-0.329 0-0.615 0.085-0.839 0.249-0.427 0.316-0.516 0.849-0.516 1.241 0 1.542 1.323 3.256 2.89 3.741 0.639 0.197 1.202 0.153 1.581-0.126zM46.278 54.76c1.927 0.596 3.438 2.594 3.441 4.549 0 1.066-0.451 2.011-1.237 2.591-0.531 0.391-1.176 0.591-1.864 0.591-0.371 0-0.752-0.059-1.134-0.177-1.929-0.598-3.44-2.595-3.44-4.549 0-1.066 0.45-2.009 1.236-2.589 0.817-0.603 1.91-0.749 2.998-0.415zM46.887 59.735c0.129-0.097 0.144-0.33 0.144-0.427 0-0.787-0.736-1.731-1.547-1.982-0.124-0.038-0.24-0.056-0.342-0.056-0.113 0-0.205 0.023-0.266 0.068-0.129 0.094-0.144 0.329-0.144 0.426 0 0.787 0.736 1.733 1.547 1.984 0.258 0.079 0.49 0.075 0.608-0.012zM44.525 46.344c-1.929-0.596-3.44-2.595-3.438-4.546 0-1.066 0.451-2.011 1.237-2.591 0.814-0.602 1.904-0.752 2.997-0.415 1.929 0.598 3.44 2.595 3.44 4.549 0 1.066-0.45 2.009-1.236 2.589-0.531 0.391-1.178 0.591-1.864 0.591-0.372 0-0.753-0.059-1.135-0.177zM43.917 41.369c-0.13 0.095-0.145 0.33-0.144 0.427 0 0.787 0.736 1.731 1.547 1.982 0.258 0.078 0.493 0.075 0.608-0.012 0.129-0.094 0.144-0.329 0.144-0.426 0-0.787-0.736-1.733-1.547-1.984-0.124-0.037-0.24-0.056-0.342-0.056-0.112 0-0.204 0.023-0.266 0.068zM15.181 29.235c0 1.13-0.474 2.128-1.304 2.739-0.559 0.412-1.244 0.623-1.97 0.623-0.394 0-0.799-0.062-1.206-0.188-2.067-0.639-3.687-2.779-3.687-4.871 0-1.13 0.477-2.128 1.306-2.739 0.86-0.635 2.017-0.798 3.176-0.437 2.067 0.642 3.685 2.782 3.685 4.873zM12.283 29.81c0.185-0.134 0.212-0.418 0.212-0.575 0-0.933-0.838-2.011-1.794-2.307-0.149-0.046-0.289-0.069-0.414-0.069-0.153 0-0.283 0.034-0.375 0.101-0.184 0.137-0.212 0.42-0.212 0.578 0 0.933 0.839 2.009 1.796 2.306 0.324 0.102 0.622 0.089 0.787-0.034zM66.258 47.506c-0.020 0.083-0.023 0.177-0.034 0.266-0.013 0.107-0.035 0.211-0.038 0.326-0.004 0.219 0.012 0.453 0.051 0.693 0.028 0.171 0.082 0.338 0.13 0.508 0.173 0.599 0.457 1.182 0.841 1.707v0c0.803 1.095 1.98 1.934 3.17 2.157 0.028 0.005 0.056 0.018 0.085 0.022 0.326 0.052 0.608 0.22 0.81 0.457 0.201 0.235 0.321 0.54 0.321 0.87v11.202c0 1.949-0.88 3.753-2.416 4.952-1.122 0.876-2.471 1.334-3.853 1.334-0.512 0-1.027-0.062-1.538-0.191l-58.672-17.283c-2.749-0.684-4.706-3.191-4.706-6.080v-2.905c0-0.516 0.296-0.987 0.762-1.21 0.467-0.226 1.019-0.158 1.424 0.164 0.531 0.427 1.072 0.728 1.605 0.893 0.87 0.27 1.643 0.2 2.18-0.196 0.481-0.355 0.745-0.974 0.745-1.742 0-1.992-1.703-4.2-3.719-4.824-0.488-0.152-0.964-0.188-1.412-0.103-0.395 0.070-0.795-0.035-1.101-0.289-0.306-0.256-0.484-0.634-0.484-1.033v-21.161l0.001-0.005c0.005-2.583 1.467-4.871 3.726-5.848l19.865-9.583c2.862-1.255 6.697-0.509 9.822 1.874 0.038 0.028 0.074 0.059 0.109 0.091l4.002 3.785c0.43 0.408 0.543 1.050 0.275 1.581-0.129 0.255-0.195 0.557-0.195 0.897 0 1.644 1.409 3.469 3.077 3.986 0.713 0.222 1.335 0.15 1.755-0.196 0.521-0.431 1.283-0.404 1.776 0.062l23.336 22.075c2.277 1.78 3.635 4.56 3.635 7.45v3.001c0 0.132-0.024 0.258-0.060 0.382-0.091 0.302-0.282 0.571-0.556 0.747-0.036 0.024-0.078 0.036-0.117 0.056-0.062 0.032-0.122 0.069-0.188 0.090-0.007 0.001-0.012 0.001-0.017 0.003-0.101 0.032-0.204 0.054-0.309 0.060-0.012 0.001-0.024-0.001-0.036-0.001-0.098 0.004-0.196 0.001-0.294-0.016-0.028-0.005-0.055-0.019-0.083-0.026-0.081-0.019-0.16-0.038-0.236-0.072-0.071-0.031-0.144-0.055-0.215-0.085-0.117-0.048-0.235-0.099-0.342-0.134-0.183-0.059-0.348-0.099-0.514-0.126-0.016-0.003-0.035-0.011-0.050-0.012h-0.001c-0.022-0.003-0.042 0-0.063-0.003-0.185-0.021-0.367-0.031-0.539-0.016-0.030 0.003-0.055 0.011-0.083 0.013-0.205 0.023-0.395 0.072-0.57 0.145-0.038 0.016-0.078 0.030-0.114 0.048-0.183 0.090-0.345 0.205-0.481 0.352-0.104 0.112-0.195 0.235-0.269 0.373-0.003 0.005-0.008 0.009-0.011 0.015-0.039 0.075-0.060 0.164-0.091 0.247-0.032 0.086-0.072 0.165-0.094 0.258zM5.252 12.627c-1.236 0.535-2.027 1.72-2.136 3.092 0.017 0.059 0.047 0.114 0.055 0.175 0.12 0.971 0.603 1.543 1.434 1.703l27.062 8.055c0.281-0.608 0.697-1.131 1.241-1.531 1.107-0.813 2.6-1.013 4.106-0.547 2.299 0.71 4.166 2.798 4.756 5.085l23.107 6.882-21.377-20.223c-0.954 0.385-2.072 0.415-3.202 0.064-2.787-0.864-4.97-3.741-4.97-6.552 0-0.389 0.042-0.764 0.126-1.124l-3.317-3.138c-2.346-1.766-5.094-2.366-7.016-1.527zM39.297 30.125l-0.032-0.289c0-0.012 0.003-0.023 0.001-0.035-0.167-1.554-1.483-3.179-3.043-3.663-0.281-0.087-0.549-0.13-0.797-0.13-0.36 0-0.674 0.091-0.92 0.273-0.372 0.274-0.508 0.693-0.549 1.068-0.001 0.031 0.011 0.060 0.008 0.093-0.003 0.028-0.020 0.175-0.026 0.204 0 0.203 0.022 0.408 0.063 0.614 0.251 1.248 1.213 2.493 2.401 3.108 0.198 0.103 0.403 0.188 0.611 0.253 0.693 0.214 1.3 0.164 1.714-0.142 0.47-0.345 0.568-0.927 0.568-1.353zM68.905 65.714h0.005v-10.166c-0.317-0.112-0.629-0.254-0.935-0.412-0.040-0.020-0.078-0.046-0.118-0.067-0.263-0.142-0.521-0.301-0.772-0.477-0.043-0.031-0.085-0.063-0.128-0.094-0.239-0.175-0.47-0.361-0.694-0.564-0.046-0.042-0.091-0.083-0.136-0.125-0.095-0.090-0.196-0.171-0.289-0.266-0.032-0.032-0.091-0.103-0.119-0.137-0.206-0.215-0.449-0.496-0.668-0.795-0.055-0.072-0.112-0.163-0.165-0.253l0.001-0.001c-0.082-0.121-0.158-0.244-0.235-0.369-0.087-0.136-0.179-0.27-0.255-0.414-0.032-0.060-0.055-0.122-0.083-0.183-0.079-0.157-0.145-0.318-0.214-0.479-0.101-0.218-0.16-0.351-0.204-0.48-0.009-0.026-0.011-0.052-0.020-0.079-0.125-0.371-0.226-0.747-0.289-1.13-0.008-0.055-0.001-0.106-0.009-0.161-0.051-0.364-0.085-0.725-0.075-1.070 0-0.015 0.005-0.028 0.005-0.043 0.004-0.091 0.028-0.175 0.036-0.265 0.027-0.318 0.063-0.634 0.142-0.929 0.031-0.118 0.089-0.223 0.128-0.337 0.078-0.224 0.142-0.454 0.251-0.662 0.012-0.023 0.031-0.040 0.044-0.065 0.075-0.138 0.179-0.257 0.267-0.385 0.11-0.158 0.201-0.333 0.329-0.474l0.003-0.003c0.024-0.027 0.052-0.044 0.076-0.070 0.015-0.016 0.023-0.036 0.038-0.051 0.044-0.046 0.099-0.074 0.145-0.117 0.181-0.171 0.371-0.325 0.576-0.462 0.091-0.060 0.184-0.116 0.279-0.169 0.196-0.11 0.402-0.201 0.614-0.281 0.102-0.039 0.203-0.083 0.309-0.114 0.305-0.090 0.623-0.156 0.956-0.185 0.388-0.034 0.79-0.027 1.205 0.028v-1.202c0-1.686-1.195-3.163-2.843-3.516l-24.258-7.221c-0.065 0.23-0.148 0.447-0.246 0.657-0.011 0.021-0.024 0.039-0.035 0.060-0.118 0.243-0.265 0.467-0.427 0.678-0.047 0.059-0.093 0.118-0.142 0.175-0.188 0.219-0.394 0.424-0.631 0.6-0.246 0.181-0.517 0.32-0.798 0.439-0.065 0.028-0.129 0.055-0.195 0.079-0.283 0.103-0.578 0.184-0.885 0.227-0.034 0.005-0.068 0.004-0.102 0.008-0.179 0.020-0.357 0.039-0.541 0.039-0.103 0-0.21-0.018-0.313-0.024-0.089-0.007-0.176-0.011-0.266-0.022-0.332-0.038-0.667-0.097-1.005-0.201-0.334-0.103-0.658-0.239-0.972-0.398-0.112-0.056-0.214-0.128-0.321-0.189-0.199-0.113-0.396-0.226-0.583-0.359-0.12-0.086-0.23-0.183-0.344-0.275-0.162-0.13-0.324-0.259-0.474-0.403-0.113-0.106-0.216-0.222-0.322-0.336-0.137-0.146-0.271-0.293-0.396-0.45-0.098-0.125-0.188-0.252-0.278-0.381-0.114-0.163-0.222-0.325-0.322-0.496-0.079-0.134-0.153-0.27-0.223-0.41-0.090-0.176-0.171-0.355-0.244-0.536-0.058-0.14-0.112-0.279-0.158-0.423-0.063-0.191-0.114-0.38-0.158-0.573-0.032-0.141-0.066-0.281-0.089-0.422-0.011-0.065-0.032-0.128-0.040-0.192l-27.327-8.141c-0.306-0.058-0.599-0.146-0.874-0.265v15.888c0.367 0.040 0.737 0.119 1.105 0.234 3.145 0.974 5.61 4.22 5.61 7.39 0 1.643-0.653 3.030-1.837 3.903-1.225 0.901-2.888 1.121-4.567 0.6-0.103-0.031-0.207-0.067-0.31-0.105v0.598c0 1.655 1.12 3.089 2.724 3.491l58.671 17.283c1.031 0.254 2.153 0.019 3.033-0.67 0.88-0.685 1.383-1.719 1.383-2.834z"></path>
</svg>
