<!-- Generated by IcoMoon.io -->
<svg version="1.1" xmlns="http://www.w3.org/2000/svg" width="72" height="72" viewBox="0 0 72 72">
<title>uniF181</title>
<path d="M65.777 21.659c0.151 0.353 0.139 0.732 0.001 1.061 0.065 0.553 0.109 1.123 0.109 1.733v41.052c0 3.581-2.913 6.495-6.494 6.495h-20.974c-0.815 0-1.617-0.166-2.394-0.486-0.755 0.31-1.579 0.486-2.444 0.486h-20.972c-3.581 0-6.495-2.913-6.495-6.494v-32.529c-0.001-0.042-0.003-0.083 0-0.125v-8.4c0-6.392 3.834-9.562 6.632-11.876 0.334-0.277 0.659-0.546 0.969-0.81 0.087-0.076 0.171-0.162 0.246-0.249 0.269-0.318 0.379-0.701 0.326-1.138-0.075-0.61-0.473-1.24-1.038-1.646-0.005-0.004-0.009-0.009-0.015-0.014-0.236-0.172-0.448-0.371-0.643-0.588-0.042-0.048-0.080-0.098-0.121-0.147-0.15-0.185-0.283-0.382-0.398-0.591-0.037-0.065-0.073-0.128-0.106-0.194-0.102-0.211-0.182-0.431-0.246-0.66-0.020-0.068-0.046-0.132-0.063-0.2-0.067-0.292-0.11-0.594-0.11-0.906v-1.358c0-2.247 1.829-4.076 4.075-4.076h14.944c2.247 0 4.076 1.829 4.076 4.076v1.358c0 0.308-0.042 0.607-0.106 0.897-0.015 0.065-0.042 0.126-0.060 0.19-0.063 0.225-0.139 0.443-0.238 0.651-0.034 0.073-0.076 0.143-0.116 0.213-0.105 0.187-0.219 0.367-0.35 0.535-0.056 0.072-0.113 0.141-0.173 0.209-0.143 0.16-0.299 0.306-0.465 0.443-0.045 0.038-0.079 0.086-0.126 0.121-0.576 0.432-0.939 1.091-0.969 1.758-0.016 0.356 0.061 0.867 0.52 1.284l0.027 0.023c0.31 0.272 0.637 0.548 0.974 0.83 0.78 0.656 1.641 1.386 2.475 2.233 0.853-0.853 1.739-1.593 2.55-2.266 0.325-0.268 0.64-0.531 0.94-0.788 0.087-0.076 0.171-0.162 0.246-0.249 0.269-0.318 0.379-0.701 0.326-1.138-0.075-0.61-0.473-1.24-1.038-1.646-0.005-0.004-0.009-0.009-0.015-0.014-0.236-0.172-0.448-0.371-0.643-0.588-0.042-0.048-0.080-0.098-0.121-0.147-0.149-0.185-0.281-0.382-0.398-0.591-0.037-0.065-0.073-0.128-0.106-0.194-0.102-0.211-0.182-0.432-0.247-0.66-0.020-0.068-0.046-0.132-0.063-0.2-0.066-0.292-0.11-0.594-0.11-0.906v-1.358c0-2.247 1.829-4.076 4.076-4.076h14.943c2.247 0 4.076 1.829 4.076 4.076v1.358c0 0.308-0.042 0.607-0.106 0.897-0.015 0.065-0.042 0.126-0.060 0.19-0.063 0.225-0.139 0.443-0.238 0.651-0.034 0.073-0.076 0.143-0.116 0.213-0.105 0.187-0.219 0.367-0.35 0.535-0.056 0.072-0.113 0.141-0.172 0.209-0.143 0.16-0.299 0.306-0.465 0.443-0.045 0.038-0.079 0.086-0.126 0.121-0.576 0.432-0.939 1.090-0.969 1.758-0.018 0.355 0.060 0.867 0.52 1.284l0.026 0.023c0.31 0.272 0.636 0.546 0.973 0.829 2.26 1.901 5.203 4.383 6.181 8.751 0.083 0.098 0.17 0.196 0.224 0.321zM63.159 35.321v-2.717h-12.226v23.094h12.226v-2.717h-4.075c-0.75 0-1.359-0.607-1.359-1.358s0.609-1.359 1.359-1.359h4.075v-2.717h-6.792c-0.75 0-1.358-0.607-1.358-1.358s0.609-1.359 1.358-1.359h6.792v-6.792h-4.075c-0.75 0-1.359-0.607-1.359-1.358s0.609-1.358 1.359-1.358h4.075zM40.077 4.075v1.358c0 0.166 0.041 0.322 0.095 0.469 0.012 0.031 0.022 0.064 0.035 0.094 0.058 0.126 0.137 0.238 0.23 0.34 0.041 0.045 0.088 0.084 0.136 0.124 0.236 0.2 0.53 0.333 0.863 0.333h14.943c0.329 0 0.621-0.133 0.859-0.327 0.114-0.096 0.204-0.211 0.28-0.333 0.027-0.045 0.064-0.082 0.086-0.128 0.083-0.177 0.135-0.37 0.135-0.571v-1.358c0-0.75-0.61-1.359-1.359-1.359h-14.943c-0.749 0-1.358 0.609-1.358 1.359zM37.788 16.904c0.003 0.005 0.004 0.009 0.007 0.015 0.361 0.52 0.694 1.080 0.99 1.684 0.008 0.015 0.015 0.031 0.022 0.046 0.068 0.14 0.132 0.284 0.194 0.428 3.565-0.288 6.597 0.812 9.524 1.89 1.345 0.496 2.736 1.009 4.153 1.371 3.141 0.799 6.375 0.511 10.079-0.892-0.888-3.175-3.108-5.074-5.135-6.779-0.35-0.296-0.693-0.583-1.016-0.867l-0.037-0.034c-0.997-0.909-1.492-2.118-1.432-3.44 0.012-0.277 0.073-0.548 0.133-0.816h-12.605c0.045 0.181 0.107 0.357 0.13 0.541 0.145 1.187-0.193 2.334-0.954 3.229-0.163 0.191-0.342 0.372-0.539 0.543-0.315 0.272-0.644 0.543-0.982 0.823-0.852 0.705-1.727 1.431-2.532 2.258zM14.265 4.075v1.358c0 0.166 0.041 0.322 0.095 0.469 0.012 0.031 0.022 0.064 0.035 0.094 0.058 0.126 0.137 0.238 0.23 0.34 0.041 0.045 0.088 0.084 0.136 0.124 0.236 0.2 0.53 0.333 0.863 0.333h14.944c0.329 0 0.621-0.133 0.859-0.327 0.114-0.096 0.204-0.211 0.28-0.333 0.027-0.045 0.064-0.082 0.086-0.128 0.083-0.177 0.134-0.37 0.134-0.571v-1.358c0-0.75-0.61-1.359-1.358-1.359h-14.944c-0.748 0-1.358 0.609-1.358 1.359zM14.479 14.67c-2.648 2.189-5.647 4.669-5.647 9.783v7.545c5.219 2.084 8.643 2.069 13.561-0.030 5.022-2.141 9.391-3.088 14.968-1.229v-6.284c0-0.632-0.048-1.221-0.13-1.777-0.001-0.011-0.003-0.023-0.004-0.034-0.082-0.534-0.202-1.030-0.35-1.5-0.012-0.039-0.023-0.079-0.035-0.118-0.145-0.447-0.321-0.865-0.516-1.262-0.033-0.064-0.066-0.129-0.101-0.193-0.194-0.371-0.403-0.725-0.632-1.059-0.015-0.022-0.027-0.044-0.042-0.065-1.060-1.526-2.441-2.688-3.737-3.778-0.352-0.296-0.694-0.584-1.017-0.868l-0.037-0.033c-0.996-0.907-1.492-2.117-1.432-3.44 0.012-0.277 0.072-0.548 0.133-0.818h-12.605c0.045 0.181 0.107 0.357 0.13 0.541 0.145 1.187-0.193 2.334-0.954 3.229-0.163 0.191-0.342 0.372-0.539 0.543-0.325 0.28-0.664 0.56-1.012 0.848zM8.832 65.506c0 2.083 1.694 3.777 3.777 3.777h20.974c0.503 0 0.982-0.103 1.422-0.284l0.35-0.19c0.617-0.334 1.118-0.818 1.464-1.388 0.001-0.001 0.003-0.004 0.004-0.007 0.153-0.255 0.266-0.533 0.356-0.816 0.016-0.054 0.037-0.106 0.050-0.162 0.080-0.302 0.13-0.613 0.13-0.932v-31.872c-4.636-1.791-8.277-1.566-13.903 0.833-2.853 1.217-5.301 1.829-7.792 1.829-2.144 0-4.336-0.476-6.833-1.387v30.6zM59.393 69.283c2.083 0 3.778-1.695 3.778-3.779v-7.090h-14.956v-28.528h14.953v-5.434c0-0.094-0.018-0.172-0.019-0.265-2.437 0.867-4.725 1.315-6.932 1.315-1.425 0-2.82-0.179-4.211-0.534-1.554-0.395-3.012-0.932-4.422-1.452-2.581-0.952-5.036-1.837-7.764-1.761 0.037 0.189 0.073 0.376 0.102 0.572 0.008 0.058 0.012 0.119 0.020 0.178 0.082 0.617 0.133 1.261 0.133 1.948v41.059c0 0.394-0.046 0.78-0.117 1.16-0.027 0.152-0.071 0.297-0.109 0.445-0.056 0.212-0.118 0.421-0.196 0.626-0.068 0.182-0.141 0.36-0.224 0.535-0.067 0.14-0.144 0.273-0.221 0.408-0.115 0.204-0.23 0.408-0.365 0.596h20.55z"></path>
</svg>
