<!-- Generated by IcoMoon.io -->
<svg version="1.1" xmlns="http://www.w3.org/2000/svg" width="72" height="72" viewBox="0 0 72 72">
<title>uniF1B0</title>
<path d="M68.915 21.443c1.977 4.455 3.085 9.378 3.085 14.557 0 19.851-16.149 36-36 36s-36-16.149-36-36 16.149-36 36-36c14.236 0 26.567 8.308 32.405 20.328 0.054 0.068 0.116 0.134 0.167 0.203 0.197 0.275 0.309 0.59 0.343 0.913zM61.866 22.145c1.312-0.326 2.631-0.626 3.957-0.887-1.306-1.041-3.684-1.853-6.432-1.853-0.563 0-1.146 0.045-1.734 0.119-0.456 0.058-0.91 0.133-1.357 0.234-0.438 0.1-0.879 0.215-1.321 0.363-1.126 0.376-2.144 0.875-3.049 1.447-0.213 0.135-0.408 0.292-0.614 0.437-2.379 1.694-3.879 3.87-4.314 5.527 0.785-0.383 1.578-0.75 2.375-1.104 0.021-0.009 0.041-0.019 0.063-0.029 0.004-0.001 0.009-0.001 0.013-0.002 1.021-0.452 2.054-0.875 3.092-1.282 0.014-0.006 0.024-0.019 0.039-0.025 0.136-0.054 0.277-0.099 0.413-0.151 0.814-0.313 1.634-0.612 2.458-0.896 0.11-0.038 0.217-0.081 0.327-0.119 0.006-0.002 0.014 0 0.020-0.002 1.062-0.361 2.131-0.698 3.208-1.010 0.008-0.002 0.013-0.008 0.020-0.010 0.612-0.178 1.225-0.347 1.842-0.51l0.021-0.005c0.056-0.015 0.114-0.030 0.171-0.045l0.796-0.208zM39.512 6.874l0.002 0.002c0.428-0.604 0.862-1.202 1.307-1.793-1.882 0.116-4.583 1.362-6.792 3.691l-0.061 0.066c-0.116 0.124-0.221 0.268-0.334 0.398-0.268 0.309-0.532 0.622-0.773 0.952-0.302 0.416-0.591 0.849-0.854 1.315-0.432 0.764-0.748 1.536-1.014 2.304-0.104 0.303-0.219 0.602-0.303 0.91-0.045 0.164-0.068 0.323-0.105 0.486-0.084 0.357-0.168 0.715-0.223 1.077-0.298 1.979-0.129 3.793 0.308 5.134 0.002 0.009 0.006 0.016 0.009 0.025 0.108 0.324 0.23 0.617 0.365 0.882 0.005 0.009 0.009 0.020 0.014 0.029 0.038-0.094 0.079-0.185 0.118-0.278 0.004-0.010 0.004-0.021 0.008-0.033 0.056-0.138 0.12-0.268 0.176-0.404 0.358-0.863 0.733-1.718 1.122-2.566 0.058-0.126 0.11-0.262 0.169-0.387 0.006-0.014 0.019-0.021 0.025-0.034 0.51-1.094 1.041-2.178 1.602-3.246 0.001-0.001 0.001-0.002 0.001-0.004 0.011-0.023 0.025-0.044 0.036-0.066 0.52-0.987 1.067-1.957 1.63-2.919 0.040-0.069 0.076-0.143 0.118-0.212 0.005-0.008 0.013-0.013 0.018-0.020 0.864-1.463 1.776-2.896 2.737-4.299 0.085-0.124 0.166-0.249 0.252-0.373l0.088-0.125c0.094-0.135 0.186-0.273 0.282-0.407zM36 69.496c18.47 0 33.496-15.026 33.497-33.496 0-4.391-0.858-8.584-2.402-12.43l-0.788 0.153c-1.127 0.217-2.244 0.468-3.357 0.737 0.054 0.128 0.118 0.249 0.17 0.377 0.263 0.64-0.041 1.372-0.681 1.635-0.157 0.064-0.318 0.094-0.477 0.094-0.492 0-0.959-0.292-1.158-0.775-0.095-0.234-0.195-0.465-0.298-0.695-1.318 0.368-2.63 0.763-3.926 1.203-0.94 0.321-1.873 0.665-2.8 1.023-1.232 0.476-2.453 0.986-3.659 1.528-0.804 0.362-1.603 0.736-2.394 1.128-0.115 0.058-0.232 0.109-0.347 0.167-0.298 0.149-0.616 0.224-0.933 0.224-0.397 0-0.791-0.116-1.139-0.347-0.622-0.413-0.979-1.136-0.932-1.886 0.034-0.545 0.16-1.122 0.353-1.712 0.006-0.019 0.001-0.037 0.008-0.056 0.023-0.066 0.055-0.134 0.079-0.2 0.044-0.121 0.093-0.243 0.143-0.366 0.054-0.134 0.109-0.265 0.171-0.4 0.066-0.143 0.14-0.286 0.214-0.43 0.060-0.114 0.116-0.227 0.18-0.341 0.101-0.178 0.213-0.357 0.326-0.535 0.051-0.081 0.096-0.162 0.15-0.242 0.784-1.177 1.838-2.329 3.118-3.348 0.002-0.003 0.002-0.005 0.005-0.006 0.005-0.005 0.013-0.008 0.018-0.013 0.438-0.347 0.903-0.677 1.392-0.989 0.050-0.031 0.1-0.061 0.15-0.093 0.475-0.296 0.968-0.576 1.488-0.829 0.004-0.001 0.006-0.004 0.010-0.005 0.001-0.001 0.004-0.001 0.005-0.001 0.636-0.309 1.304-0.586 2.002-0.82 0.402-0.134 0.804-0.248 1.206-0.348-0.249-0.486-0.16-1.094 0.257-1.485 0.506-0.468 1.297-0.445 1.771 0.059 0.296 0.317 0.573 0.65 0.855 0.979 2.045-0.138 4.001 0.108 5.685 0.632-4.691-7.099-12.006-12.309-20.554-14.247 0.14 0.167 0.264 0.351 0.343 0.562 0.227 0.611 0.126 1.287-0.265 1.808l-0.659 0.874c-0.193 0.255-0.376 0.517-0.565 0.775 0.645 0.17 1.052 0.81 0.909 1.467-0.147 0.676-0.816 1.107-1.489 0.959-0.329-0.071-0.66-0.135-0.993-0.195-0.153 0.225-0.308 0.45-0.458 0.676-0.045 0.069-0.091 0.136-0.136 0.205-0.002 0.004-0.006 0.006-0.009 0.010-0.699 1.062-1.362 2.146-2.003 3.243-0.49 0.835-0.964 1.689-1.421 2.544-0.661 1.241-1.287 2.501-1.876 3.779-0.376 0.815-0.739 1.65-1.089 2.492-0.207 0.496-0.417 0.992-0.612 1.493-0.274 0.701-0.88 1.187-1.624 1.297-0.101 0.016-0.204 0.024-0.306 0.024-0.634 0-1.246-0.292-1.647-0.799-0.167-0.209-0.319-0.443-0.466-0.689-0.008-0.013-0.018-0.020-0.025-0.033-0.028-0.048-0.050-0.104-0.078-0.153-0.098-0.175-0.19-0.357-0.278-0.547-0.044-0.094-0.086-0.189-0.126-0.288-0.080-0.193-0.154-0.393-0.223-0.6-0.030-0.090-0.064-0.177-0.091-0.268-0.091-0.3-0.173-0.611-0.242-0.934-0.008-0.037-0.013-0.078-0.020-0.116-0.060-0.298-0.11-0.605-0.149-0.919-0.004-0.029-0.010-0.055-0.014-0.083-0.001-0.009 0.002-0.015 0.001-0.024-0.142-1.21-0.126-2.523 0.071-3.884 0.001-0.004 0-0.006 0-0.010 0.001-0.013 0.006-0.026 0.008-0.039 0.090-0.605 0.214-1.216 0.379-1.831 0.008-0.031 0.017-0.063 0.026-0.094 0.162-0.594 0.356-1.188 0.592-1.781 0.001-0.004 0.002-0.006 0.004-0.010 0-0.003 0.003-0.004 0.003-0.005 0.267-0.665 0.58-1.326 0.947-1.976 0.178-0.316 0.367-0.62 0.562-0.918-0.261-0.184-0.467-0.445-0.527-0.784-0.118-0.681 0.337-1.33 1.018-1.45 0.486-0.084 0.982-0.148 1.476-0.209 2.253-2.316 4.979-3.77 7.353-4.2-1.218-0.135-2.456-0.21-3.709-0.21-18.47 0-33.496 15.026-33.496 33.496s15.026 33.496 33.496 33.496zM26.436 60.836c-0.423 0.219-0.91 0.386-1.426 0.518-0.010 0.155-0.041 0.312-0.114 0.461-0.215 0.446-0.662 0.705-1.127 0.705-0.184 0-0.369-0.041-0.547-0.126-0.488-0.238-0.965-0.496-1.439-0.759-2.958-0.165-6.397-1.359-9.31-3.839-4.806-4.093-6.486-10.418-5.044-13.755 0.069-0.159 0.159-0.302 0.263-0.433-0.088-0.328-0.185-0.652-0.263-0.984-0.155-0.674 0.264-1.346 0.938-1.503 0.676-0.15 1.346 0.264 1.503 0.938 0.085 0.368 0.178 0.734 0.278 1.097 0.007 0.005 0.014 0.013 0.021 0.018 0.149 0.091 0.288 0.199 0.409 0.331 0.006 0.006 0.014 0.010 0.020 0.016l0.731 0.814c1.007 1.119 2.059 2.195 3.13 3.248 0.258 0.254 0.518 0.503 0.78 0.753 3.473 3.312 7.258 6.29 11.321 8.864 0.014 0.009 0.029 0.019 0.043 0.028 0.004 0.004 0.006 0.009 0.011 0.011 0.189 0.122 0.344 0.274 0.481 0.441 0.015 0.019 0.037 0.029 0.052 0.048 0.020 0.026 0.023 0.056 0.040 0.083 0.253 0.363 0.398 0.794 0.378 1.257-0.031 0.746-0.466 1.425-1.131 1.771zM9.471 46.015c-0.327 2.502 1.049 6.829 4.627 9.876 2.661 2.264 5.738 3.182 8.132 3.249 0.186 0.005 0.367 0.001 0.547-0.004 0.165-0.004 0.327-0.013 0.483-0.026 0.157-0.013 0.313-0.024 0.462-0.045 0.298-0.044 0.589-0.095 0.843-0.17-0.147-0.095-0.286-0.204-0.432-0.3-0.506-0.332-1.017-0.659-1.513-1.002-0.060-0.041-0.096-0.101-0.147-0.152-0.859-0.6-1.718-1.198-2.551-1.832-0.035-0.023-0.076-0.033-0.11-0.059-0.92-0.702-1.824-1.425-2.711-2.169-0.023-0.019-0.031-0.046-0.053-0.066-0.808-0.679-1.585-1.392-2.365-2.105-0.065-0.041-0.136-0.068-0.195-0.121-0.366-0.338-0.716-0.694-1.076-1.038-0.278-0.265-0.556-0.53-0.83-0.8-0.195-0.192-0.398-0.376-0.591-0.57-0.041-0.041-0.059-0.097-0.094-0.143-0.765-0.774-1.531-1.545-2.263-2.353-0.007-0.007-0.017-0.010-0.025-0.017l-0.114-0.126c-0.009-0.010-0.017-0.018-0.025-0.026zM28.020 35.275c-0.204-0.551-0.13-1.148 0.168-1.644 0.014-0.024 0.015-0.053 0.031-0.077 0.013-0.019 0.046-0.066 0.063-0.086 0 0 0-0.001 0.001-0.002l0.66-0.874c0.516-0.684 1.021-1.377 1.511-2.080 0.784-1.118 1.528-2.262 2.246-3.42 0.512-0.825 1.014-1.664 1.494-2.512 0.726-1.283 1.411-2.591 2.059-3.917 0.381-0.781 0.75-1.574 1.106-2.369 0.463-1.041 0.912-2.090 1.326-3.153 0.238-0.609 0.734-1.038 1.344-1.218 0.035-0.011 0.061-0.035 0.096-0.044 0.028-0.006 0.056-0.002 0.084-0.007 0.033-0.006 0.063-0.022 0.096-0.028 0.080-0.011 0.159 0 0.238-0.002 0.086-0.002 0.17-0.010 0.255-0.002 0.103 0.010 0.199 0.035 0.298 0.059 0.085 0.020 0.172 0.034 0.254 0.064 0.108 0.040 0.207 0.1 0.307 0.158 0.061 0.036 0.128 0.061 0.187 0.104 0.154 0.111 0.296 0.242 0.417 0.394 0.144 0.182 0.279 0.377 0.408 0.585 0.074 0.12 0.141 0.252 0.21 0.379 0.049 0.090 0.1 0.174 0.145 0.268 0.070 0.144 0.134 0.298 0.198 0.451 0.040 0.094 0.081 0.185 0.118 0.283 0.053 0.139 0.099 0.284 0.147 0.429 0.043 0.131 0.085 0.263 0.124 0.4 0.013 0.045 0.029 0.086 0.041 0.133 0.004 0.013 0 0.026 0.003 0.039 0.459 1.734 0.56 3.82 0.182 6.004-0.001 0.001-0.001 0.004-0.001 0.005-0.108 0.627-0.259 1.261-0.45 1.898-0.006 0.021-0.009 0.044-0.015 0.065-0.001 0.006-0.006 0.010-0.008 0.016-0.339 1.118-0.804 2.24-1.42 3.332-0.048 0.084-0.108 0.157-0.156 0.24-0.013 0.026-0.013 0.054-0.028 0.079-0.178 0.299-0.391 0.575-0.586 0.861-0.148 0.215-0.284 0.443-0.441 0.649-0.279 0.371-0.588 0.716-0.899 1.062-0.128 0.141-0.247 0.297-0.378 0.432-0.051 0.054-0.094 0.115-0.147 0.168-0.035 0.036-0.083 0.051-0.122 0.081-0.913 0.903-1.892 1.669-2.896 2.285-0.046 0.039-0.079 0.089-0.133 0.122-1.255 0.751-2.572 1.286-3.809 1.545-0.074 0.015-0.148 0.020-0.22 0.023-0.516 0.098-1.017 0.154-1.49 0.154-0.434 0-0.849-0.043-1.236-0.128-0.639-0.14-1.155-0.59-1.382-1.203zM32.51 31.947c-0.010 0.014-0.021 0.029-0.030 0.044-0.5 0.71-1.008 1.412-1.531 2.106 1.865-0.115 4.527-1.344 6.723-3.626 0.164-0.171 0.312-0.356 0.467-0.535 0.204-0.234 0.411-0.465 0.603-0.72 0.148-0.195 0.275-0.403 0.412-0.605 0.208-0.308 0.422-0.606 0.61-0.938 0.558-0.99 0.96-1.996 1.247-2.985 0.098-0.336 0.169-0.675 0.24-1.014 0.041-0.2 0.098-0.406 0.13-0.604 0.066-0.404 0.103-0.81 0.133-1.216 0.106-1.504-0.048-2.869-0.377-3.949-0.039-0.125-0.081-0.243-0.124-0.361-0.071-0.197-0.147-0.383-0.229-0.555-0.025-0.051-0.053-0.094-0.079-0.143-0.261 0.646-0.535 1.286-0.813 1.925-0.004 0.010-0.001 0.021-0.006 0.031-0.021 0.049-0.046 0.096-0.068 0.145-0.438 1.001-0.903 1.99-1.385 2.969-0.049 0.101-0.093 0.207-0.143 0.307-0.011 0.021-0.029 0.036-0.040 0.058-0.547 1.099-1.117 2.187-1.717 3.258-0.004 0.006-0.002 0.014-0.006 0.020-0.016 0.030-0.035 0.059-0.053 0.089-0.541 0.962-1.108 1.907-1.691 2.844-0.064 0.103-0.121 0.21-0.185 0.312-0.015 0.023-0.036 0.039-0.051 0.061-0.655 1.039-1.33 2.066-2.035 3.073-0.002 0.002-0.002 0.006-0.004 0.009zM26.91 38.994c-0.033-0.654 0.264-1.271 0.795-1.653 0.533-0.382 1.212-0.462 1.816-0.22l1.016 0.404c0.006 0.002 0.013 0.004 0.019 0.006 0.958 0.381 1.922 0.733 2.891 1.073 1.315 0.46 2.64 0.885 3.976 1.269 1.032 0.297 2.075 0.569 3.112 0.816 1.352 0.324 2.713 0.611 4.082 0.858 1.054 0.189 2.117 0.357 3.171 0.5 0.718 0.098 1.436 0.188 2.156 0.264 0.75 0.080 1.377 0.537 1.68 1.225 0.286 0.645 0.21 1.39-0.173 1.98-0.014 0.021-0.015 0.045-0.030 0.066l-0.019 0.026c-0.001 0.002-0.004 0.005-0.006 0.007-0.001 0.003-0.001 0.005-0.003 0.006-0.026 0.038-0.066 0.071-0.094 0.108-0.178 0.229-0.368 0.453-0.586 0.667-0.074 0.073-0.162 0.139-0.239 0.209-0.198 0.179-0.4 0.356-0.625 0.523-0.093 0.069-0.195 0.132-0.292 0.198-0.229 0.158-0.462 0.312-0.715 0.456-0.126 0.073-0.259 0.138-0.391 0.207-0.158 0.083-0.304 0.17-0.47 0.248-0.025 0.013-0.053 0.007-0.078 0.017-1.104 0.508-2.367 0.892-3.738 1.113-0.024 0.005-0.041 0.021-0.066 0.025-0.154 0.024-0.312 0.034-0.467 0.054-0.213 0.027-0.423 0.056-0.641 0.075-0.357 0.030-0.712 0.045-1.069 0.053-0.115 0.002-0.224 0.016-0.339 0.016-0.026 0-0.054-0.005-0.080-0.005-0.448 0.009-0.93-0.023-1.408-0.064-0.034-0.002-0.060-0.023-0.093-0.028-0.816-0.078-1.64-0.198-2.474-0.407-0.447-0.113-0.88-0.248-1.307-0.394-0.015-0.005-0.031-0.003-0.046-0.008-0.071-0.025-0.139-0.061-0.212-0.088-0.481-0.174-0.949-0.367-1.401-0.58-0.158-0.074-0.314-0.15-0.47-0.229-0.394-0.203-0.775-0.419-1.144-0.646-0.121-0.074-0.253-0.133-0.373-0.21-0.026-0.018-0.040-0.044-0.064-0.063-1.114-0.735-2.087-1.575-2.903-2.462-0.035-0.030-0.079-0.044-0.11-0.079-0.903-0.998-1.587-2.065-2.027-3.112-0.020-0.048-0.040-0.094-0.059-0.14-0.040-0.099-0.090-0.198-0.125-0.296-0.009-0.026-0.004-0.054-0.011-0.081-0.207-0.587-0.338-1.162-0.366-1.707zM36.726 46.208c0.457 0.169 0.924 0.328 1.411 0.45 1.14 0.288 2.254 0.414 3.316 0.422 0.039-0.001 0.075 0.003 0.114 0.001 0.468 0 0.922-0.029 1.365-0.074 0.119-0.011 0.237-0.026 0.356-0.041 1.921-0.245 3.571-0.865 4.726-1.617 0.029-0.019 0.058-0.037 0.085-0.056 0.258-0.173 0.487-0.352 0.69-0.535 0.017-0.016 0.040-0.033 0.058-0.049-0.346-0.040-0.689-0.093-1.033-0.138-0.050 0-0.101-0.004-0.153-0.010-0.135-0.018-0.272-0.045-0.407-0.064-2.325-0.321-4.633-0.75-6.917-1.285-0.033-0.005-0.064-0.004-0.096-0.011-0.142-0.033-0.284-0.078-0.426-0.112-1.067-0.258-2.13-0.531-3.184-0.835-0.013-0.004-0.026-0.006-0.039-0.010-0.003 0-0.005-0.003-0.008-0.004-1.188-0.342-2.364-0.724-3.535-1.124-0.020-0.005-0.039-0.001-0.059-0.007-0.139-0.049-0.274-0.105-0.413-0.154-0.993-0.348-1.982-0.709-2.96-1.098 0.58 1.695 2.354 3.824 4.957 5.333 0.198 0.114 0.392 0.232 0.595 0.336 0.272 0.14 0.56 0.264 0.846 0.388 0.236 0.101 0.47 0.205 0.711 0.294zM44.81 10.665c-0.652-0.228-0.998-0.942-0.77-1.595 0.227-0.651 0.939-0.997 1.594-0.77 1.112 0.388 2.213 0.848 3.273 1.367 0.621 0.304 0.877 1.054 0.572 1.675-0.215 0.445-0.661 0.701-1.124 0.701-0.184 0-0.372-0.041-0.55-0.129-0.969-0.475-1.976-0.895-2.995-1.25zM50.627 13.518c-0.579-0.378-0.743-1.154-0.363-1.733 0.381-0.58 1.156-0.739 1.734-0.364 0.985 0.643 1.943 1.355 2.848 2.114 0.53 0.443 0.599 1.233 0.154 1.763-0.248 0.296-0.602 0.447-0.96 0.447-0.284 0-0.569-0.096-0.804-0.293-0.828-0.695-1.705-1.345-2.608-1.933zM18.376 15.124c-0.259-0.065-0.506-0.184-0.684-0.408-0.428-0.542-0.336-1.33 0.208-1.758 0.939-0.74 1.929-1.429 2.948-2.047 0.516-0.313 1.152-0.19 1.549 0.234 0.044-0.019 0.089-0.046 0.134-0.064 0.293-0.116 0.604-0.153 0.905-0.12-0.013-0.022-0.030-0.040-0.041-0.064-0.284-0.631-0.003-1.371 0.627-1.657 1.088-0.49 2.219-0.917 3.362-1.27 0.664-0.202 1.362 0.168 1.566 0.828 0.203 0.661-0.168 1.362-0.828 1.566-1.045 0.322-2.079 0.712-3.070 1.159-0.124 0.055-0.253 0.068-0.381 0.081 0.322 0.368 0.495 0.845 0.47 1.346l-0.059 1.097v0.006c-0.055 1.007-0.079 2.032-0.090 3.054-0.016 1.418 0.006 2.834 0.073 4.249 0.049 1.041 0.124 2.095 0.219 3.144 0.128 1.4 0.293 2.796 0.501 4.187 0.158 1.054 0.338 2.114 0.542 3.16 0.138 0.706 0.28 1.411 0.438 2.114 0.165 0.734-0.066 1.474-0.617 1.981-0.392 0.359-0.9 0.55-1.42 0.55-0.070 0-0.139-0.025-0.209-0.033-0.006 0-0.011 0.003-0.018 0.003-0.088 0-0.179-0.009-0.269-0.029-0.035-0.008-0.079-0.023-0.123-0.036-0.005-0.003-0.010-0.001-0.015-0.003-0.009-0.002-0.018-0.007-0.026-0.010-0.011-0.005-0.026-0.007-0.036-0.011-0.035-0.011-0.073-0.033-0.109-0.045-0.199-0.070-0.399-0.151-0.601-0.245-0.12-0.055-0.24-0.118-0.362-0.183-0.143-0.078-0.286-0.163-0.428-0.252-0.116-0.073-0.232-0.14-0.348-0.22-0.24-0.167-0.48-0.349-0.715-0.546-0.086-0.073-0.17-0.152-0.255-0.228-0.187-0.165-0.371-0.339-0.552-0.523-0.045-0.046-0.091-0.084-0.136-0.13-0.009-0.010-0.011-0.023-0.020-0.033-1.25-1.313-2.363-3.053-3.127-5.090-0.004-0.009-0.006-0.016-0.010-0.025-0.217-0.581-0.401-1.188-0.556-1.814-0.008-0.034-0.021-0.065-0.030-0.099-0.002-0.008 0-0.015-0.001-0.024-0.195-0.816-0.341-1.664-0.411-2.543-0.037-0.462-0.048-0.92-0.045-1.375 0-0.014-0.008-0.026-0.008-0.040 0-0.078 0.014-0.154 0.015-0.23 0.011-0.516 0.045-1.024 0.103-1.524 0.018-0.158 0.036-0.314 0.059-0.471 0.066-0.453 0.153-0.897 0.253-1.332 0.030-0.136 0.044-0.277 0.078-0.412 0.009-0.030 0.029-0.051 0.039-0.080 0.338-1.289 0.82-2.478 1.397-3.532 0.019-0.045 0.019-0.093 0.044-0.136 0.022-0.040 0.049-0.076 0.071-0.116zM24.073 33.652c0.023 0.013 0.046 0.029 0.068 0.037-0.079-0.371-0.145-0.744-0.219-1.116-0.004-0.019-0.016-0.034-0.020-0.053-0.027-0.134-0.044-0.272-0.070-0.407-0.445-2.322-0.778-4.659-1.003-7.007-0.002-0.019-0.014-0.034-0.015-0.053-0.013-0.133-0.015-0.265-0.028-0.398-0.099-1.103-0.183-2.209-0.233-3.317-0.001-0.016-0.002-0.034-0.004-0.050 0-0.004 0.001-0.008 0.001-0.011-0.055-1.233-0.071-2.469-0.066-3.705-0.001-0.019-0.011-0.036-0.011-0.056 0-0.146 0.011-0.293 0.013-0.439 0.011-1.044 0.036-2.087 0.091-3.13 0.001-0.010 0.001-0.020 0.001-0.030-0.248 0.192-0.498 0.422-0.745 0.687-0.004 0.004-0.006 0.008-0.010 0.011-1.159 1.252-2.221 3.288-2.71 5.717-0.044 0.222-0.094 0.443-0.126 0.666-0.045 0.298-0.069 0.607-0.095 0.915-0.021 0.258-0.044 0.513-0.051 0.771-0.014 0.488-0.014 0.982 0.026 1.488 0.076 0.95 0.265 1.836 0.503 2.681 0.088 0.31 0.175 0.621 0.284 0.924 0.075 0.212 0.16 0.411 0.244 0.614 0.123 0.298 0.251 0.595 0.393 0.883 0.835 1.673 1.913 2.991 2.965 3.824 0.035 0.028 0.071 0.056 0.106 0.083 0.24 0.184 0.478 0.339 0.71 0.471zM13.952 20.146c-0.239 0-0.48-0.069-0.695-0.21-0.575-0.383-0.731-1.161-0.347-1.737 0.56-0.84 0.929-1.359 0.929-1.359 0.493-0.576 0.929-1.046 1.38-1.498 0.488-0.49 1.28-0.493 1.771-0.005s0.493 1.28 0.005 1.771c-0.407 0.409-0.801 0.833-1.181 1.27 0.006 0-0.329 0.477-0.819 1.211-0.24 0.362-0.639 0.557-1.043 0.557zM8.125 40.603c-0.626 0-1.166-0.467-1.242-1.102-0.125-1.043-0.194-2.105-0.207-3.157-0.009-0.691 0.545-1.258 1.237-1.267h0.015c0.685 0 1.243 0.55 1.252 1.237 0.010 0.963 0.074 1.933 0.189 2.887 0.081 0.687-0.408 1.311-1.094 1.392-0.051 0.006-0.101 0.009-0.15 0.009zM7.94 34.55c-0.689-0.070-1.19-0.684-1.12-1.367 0.104-1.029 0.269-2.081 0.49-3.124 0.1-0.471 0.46-0.809 0.892-0.933 0.014-0.361 0.038-0.716 0.075-1.066-0.208-0.319-0.287-0.719-0.145-1.104 0.205-0.561 0.463-1.177 0.769-1.831l0.011 0.004c0.316-0.909 0.725-1.707 1.207-2.365 0.302-0.549 0.614-1.086 0.922-1.6 0.356-0.592 1.124-0.784 1.718-0.432 0.363 0.218 0.577 0.592 0.605 0.984 0.056 0.041 0.11 0.086 0.162 0.134 0.006 0.004 0.008 0.011 0.013 0.016 0.238 0.227 0.42 0.511 0.517 0.838l0.31 1.049c0.21 0.712 0.436 1.419 0.669 2.124 0.326 0.99 0.674 1.972 1.034 2.925 0.473 1.252 0.984 2.491 1.525 3.715 0.378 0.856 0.77 1.704 1.172 2.527 0.624 1.276 1.289 2.532 1.986 3.771 0.396 0.703 0.801 1.397 1.22 2.086 0.213 0.352 0.421 0.708 0.64 1.056 0.401 0.636 0.429 1.411 0.079 2.074-0.349 0.661-1.033 1.086-1.783 1.112-0.065 0.002-0.131 0.004-0.198 0.004-0.299 0-0.611-0.031-0.929-0.076-0.046-0.002-0.091-0.004-0.139-0.011-0.055-0.009-0.114-0.028-0.17-0.038-0.157-0.027-0.313-0.064-0.472-0.103-0.12-0.029-0.239-0.055-0.362-0.090-0.219-0.063-0.441-0.138-0.664-0.219-0.106-0.039-0.212-0.079-0.318-0.122-0.23-0.094-0.463-0.194-0.696-0.306-0.096-0.046-0.192-0.098-0.288-0.148-0.2-0.103-0.401-0.21-0.601-0.327-0.044-0.025-0.089-0.046-0.134-0.073-0.010-0.006-0.015-0.016-0.025-0.023-1.018-0.61-2.022-1.393-2.958-2.338-0.005-0.006-0.013-0.008-0.018-0.013-0.019-0.019-0.034-0.040-0.051-0.059-0.401-0.409-0.788-0.846-1.156-1.315-0.038-0.048-0.073-0.097-0.11-0.144-0.352-0.457-0.69-0.937-1.003-1.446-0.006-0.009-0.013-0.018-0.019-0.026-0.002-0.005-0.002-0.010-0.005-0.015-0.358-0.587-0.689-1.206-0.982-1.86-0.223-0.498-0.407-1.002-0.575-1.506-0.009-0.023-0.025-0.039-0.033-0.063-0.024-0.072-0.036-0.148-0.059-0.219-0.035-0.11-0.075-0.222-0.108-0.332-0.215 0.17-0.478 0.279-0.768 0.279-0.043 0-0.085-0.002-0.128-0.006zM11.154 26.323c-0.070 0.234-0.122 0.482-0.173 0.731-0.297 1.341-0.377 2.925-0.136 4.609 0.030 0.21 0.053 0.421 0.093 0.63 0.058 0.305 0.143 0.615 0.223 0.924 0.060 0.225 0.11 0.452 0.18 0.674 0.157 0.495 0.336 0.992 0.556 1.485 0.408 0.915 0.909 1.726 1.447 2.471 0.418 0.579 0.864 1.137 1.364 1.643 1.424 1.439 2.999 2.392 4.35 2.845 0.015 0.004 0.031 0.010 0.046 0.015 0.332 0.109 0.651 0.19 0.95 0.238-0.544-0.884-1.062-1.782-1.568-2.686-0.063-0.112-0.131-0.218-0.193-0.329-0.009-0.016-0.008-0.034-0.016-0.050-0.562-1.016-1.103-2.042-1.616-3.083-0.006-0.013-0.018-0.023-0.024-0.035-0.024-0.048-0.045-0.098-0.068-0.145-0.459-0.937-0.898-1.883-1.317-2.837-0.040-0.089-0.083-0.171-0.121-0.261-0.006-0.015-0.004-0.031-0.010-0.046-0.462-1.062-0.899-2.134-1.311-3.216-0.008-0.018-0.021-0.031-0.028-0.049-0.033-0.083-0.059-0.171-0.090-0.254-0.373-0.99-0.726-1.988-1.058-2.995-0.013-0.043-0.029-0.081-0.043-0.123-0.002-0.007 0-0.016-0.002-0.024-0.215-0.659-0.427-1.32-0.625-1.985-0.321 0.496-0.595 1.131-0.81 1.853zM31.939 62.515c0.684 0.103 1.155 0.741 1.049 1.424-0.093 0.621-0.627 1.066-1.236 1.066-0.061 0-0.124-0.005-0.188-0.015-1.44-0.218-2.877-0.547-4.271-0.982-0.66-0.207-1.028-0.909-0.823-1.569 0.207-0.659 0.907-1.023 1.569-0.823 1.272 0.398 2.584 0.7 3.899 0.899zM40.439 62.455c0.644-0.080 1.246 0.388 1.356 1.039 0.112 0.666-0.332 1.289-0.988 1.422l0.169 0.144-1.846 0.116c-0.185 0.1-0.383 0.182-0.599 0.217-0.104 0.018-0.207 0.026-0.309 0.026-0.218 0-0.429-0.048-0.632-0.119l-1.986 0.189 0.19-0.21c-0.596-0.101-1.076-0.591-1.076-1.211 0-0.411 0.194-0.766 0.491-0.994-0.783-0.84-1.569-1.677-2.389-2.479-0.258-0.252-0.527-0.495-0.79-0.744-3.441-3.267-7.184-6.208-11.202-8.753-0.008-0.004-0.015-0.009-0.023-0.014-0.154-0.098-0.292-0.214-0.413-0.343-0.061-0.065-0.105-0.143-0.157-0.214-0.050-0.069-0.106-0.134-0.148-0.209-0.045-0.083-0.070-0.174-0.104-0.263-0.029-0.075-0.065-0.148-0.084-0.228-0.021-0.085-0.024-0.174-0.034-0.263-0.009-0.078-0.029-0.153-0.029-0.232 0-0.014 0.005-0.026 0.005-0.040 0.001-0.016-0.004-0.033-0.004-0.049 0.004-0.093 0.033-0.18 0.049-0.272 0.015-0.080 0.020-0.163 0.044-0.242 0.026-0.086 0.070-0.165 0.108-0.247 0.040-0.088 0.071-0.179 0.123-0.261 0.045-0.072 0.108-0.133 0.162-0.199 0.061-0.076 0.116-0.158 0.189-0.225 0.136-0.126 0.29-0.235 0.459-0.323 0.125-0.064 0.255-0.126 0.388-0.184 0.015-0.006 0.030-0.004 0.045-0.009 1.114-0.472 2.514-0.694 4.060-0.626 0.004 0 0.006-0.001 0.010-0.001s0.009 0.001 0.014 0.001c2.323 0.106 4.96 0.865 7.409 2.382 0.006 0.004 0.013 0.004 0.019 0.008 0.019 0.011 0.036 0.026 0.055 0.037 0.261 0.164 0.517 0.339 0.773 0.52 0.081 0.058 0.167 0.112 0.247 0.17 0.318 0.234 0.631 0.481 0.939 0.743 0.334 0.284 0.65 0.582 0.954 0.886 0.030 0.030 0.064 0.058 0.094 0.088 0.013 0.011 0.015 0.026 0.026 0.039 0.909 0.93 1.678 1.941 2.309 2.984 0.020 0.028 0.050 0.045 0.069 0.075 0.044 0.074 0.075 0.153 0.118 0.227 0.22 0.383 0.418 0.77 0.602 1.158 0.115 0.24 0.224 0.48 0.326 0.724 0.148 0.357 0.278 0.714 0.394 1.068 0.048 0.141 0.114 0.28 0.157 0.423 0.014 0.049 0.004 0.095 0.013 0.144 0.388 1.369 0.542 2.692 0.457 3.86-0.001 0.028 0.011 0.051 0.009 0.079-0.006 0.061-0.013 0.123-0.019 0.183zM34.954 59.2c0.828 0.82 1.634 1.662 2.423 2.523 0.027 0.026 0.064 0.038 0.090 0.066l0.46 0.501c0.001-0.016 0.004-0.030 0.006-0.046 0.178-1.474-0.24-3.56-1.325-5.647-0.081-0.157-0.155-0.316-0.244-0.47-0.744-1.305-1.751-2.591-3.058-3.705-0.495-0.422-1.034-0.806-1.592-1.161-1.181-0.749-2.392-1.263-3.561-1.6-0.294-0.085-0.588-0.164-0.884-0.228-0.232-0.050-0.461-0.091-0.686-0.126-0.26-0.041-0.516-0.070-0.77-0.093-1.146-0.1-2.181-0.029-2.974 0.204 0.004 0.002 0.006 0.005 0.010 0.008 0.203 0.131 0.406 0.263 0.607 0.397 0.035 0.024 0.054 0.060 0.086 0.086 0.967 0.642 1.922 1.302 2.857 1.989 0.029 0.016 0.060 0.020 0.088 0.040 0.090 0.066 0.173 0.138 0.263 0.204 0.237 0.175 0.465 0.362 0.699 0.54 0.66 0.501 1.329 1.002 1.958 1.513 0.051 0.041 0.078 0.098 0.12 0.145 0.86 0.702 1.703 1.422 2.532 2.163 0.050 0.034 0.109 0.050 0.155 0.091 0.567 0.508 1.112 1.042 1.665 1.569 0.262 0.248 0.53 0.488 0.788 0.741 0.076 0.075 0.159 0.145 0.234 0.22 0.023 0.023 0.030 0.053 0.051 0.076zM46.364 60.74c0.637-0.263 1.373 0.031 1.639 0.669 0.268 0.639-0.031 1.373-0.669 1.64-1.052 0.441-2.139 0.824-3.232 1.137-0.114 0.033-0.23 0.049-0.344 0.049-0.546 0-1.047-0.358-1.203-0.908-0.19-0.664 0.194-1.357 0.859-1.548 0.997-0.285 1.99-0.636 2.95-1.039zM62.864 49.714l-0.451 0.995c-1.013 1.991-2.816 4.016-5.237 5.555-0.406 0.424-0.821 0.843-1.253 1.242-0.242 0.223-0.547 0.333-0.851 0.333-0.213 0-0.416-0.074-0.606-0.18-0.291 0.116-0.585 0.229-0.887 0.331 0.363 0.555 0.243 1.299-0.297 1.694-0.92 0.674-1.888 1.298-2.877 1.857-0.194 0.11-0.406 0.163-0.615 0.163-0.437 0-0.86-0.229-1.091-0.636-0.341-0.601-0.128-1.366 0.473-1.705 0.344-0.195 0.684-0.407 1.022-0.619-0.143 0.016-0.286 0.026-0.429 0.039-0.283 0.025-0.563 0.035-0.844 0.045-0.212 0.008-0.423 0.034-0.635 0.034l-0.185-0.001c-0.040-0.001-0.074-0.021-0.113-0.026-1.139-0.025-2.229-0.169-3.247-0.407-0.1-0.001-0.203-0.013-0.304-0.039-1.329-0.338-2.544-0.858-3.516-1.504-0.034-0.023-0.053-0.059-0.084-0.084-0.695-0.47-1.277-0.998-1.689-1.574-0.381-0.53-0.463-1.21-0.222-1.816 0.242-0.608 0.769-1.043 1.411-1.167l1.073-0.208c2.082-0.4 4.141-0.9 6.177-1.479 0.726-0.207 1.45-0.423 2.17-0.652 1.235-0.392 2.462-0.808 3.674-1.266 0.947-0.358 1.887-0.741 2.82-1.141 1.379-0.587 2.742-1.211 4.085-1.883 0.147-0.074 0.298-0.123 0.452-0.159 0.070-0.017 0.14-0.025 0.212-0.035 0.043-0.005 0.084-0.018 0.125-0.020 0.078-0.207 0.151-0.414 0.224-0.622 0.225-0.655 0.943-0.999 1.592-0.776 0.654 0.225 1.002 0.939 0.776 1.592-0.147 0.43-0.317 0.846-0.485 1.265 0.079 0.245 0.128 0.501 0.112 0.765-0.041 0.661-0.205 1.367-0.48 2.091zM55.742 54.205l0.203-0.128c2.656-1.73 4.31-4.093 4.773-5.856l-0.004 0.001c-0.001 0.001-0.002 0.001-0.004 0.001-1.037 0.505-2.087 0.975-3.144 1.432-0.014 0.006-0.023 0.019-0.036 0.025-0.136 0.059-0.278 0.109-0.414 0.168-0.795 0.337-1.595 0.66-2.401 0.969-0.138 0.054-0.273 0.114-0.412 0.167-0.010 0.004-0.020 0.001-0.030 0.005-1.064 0.401-2.137 0.778-3.218 1.131-0.011 0.005-0.019 0.014-0.030 0.018-0.173 0.056-0.348 0.101-0.521 0.156-0.768 0.244-1.54 0.477-2.316 0.696-0.165 0.046-0.328 0.101-0.493 0.148-0.024 0.008-0.049 0.005-0.072 0.010-1.093 0.3-2.19 0.585-3.297 0.835-0.001 0-0.001 0.001-0.002 0.001-0.806 0.182-1.615 0.352-2.427 0.508 1.426 1.137 4.128 1.986 7.194 1.819 0.158-0.009 0.317-0.011 0.475-0.025 0.371-0.033 0.749-0.093 1.128-0.158 0.154-0.028 0.309-0.044 0.462-0.075 0.526-0.109 1.054-0.244 1.585-0.422s1.033-0.387 1.515-0.614c0.51-0.24 1.010-0.513 1.488-0.814zM64.101 35.981c0.691 0.031 1.227 0.616 1.197 1.307-0.061 1.41-0.225 2.826-0.487 4.209-0.113 0.601-0.637 1.019-1.228 1.019-0.078 0-0.155-0.007-0.234-0.023-0.68-0.129-1.127-0.783-0.998-1.463 0.238-1.267 0.388-2.563 0.445-3.854 0.030-0.69 0.6-1.215 1.306-1.196zM62.686 33.302c-0.129-1.283-0.353-2.568-0.665-3.82-0.165-0.671 0.242-1.351 0.913-1.519 0.669-0.16 1.35 0.243 1.519 0.913 0.341 1.369 0.586 2.774 0.726 4.176 0.068 0.687-0.433 1.301-1.122 1.371-0.043 0.004-0.085 0.006-0.126 0.006-0.636 0-1.179-0.481-1.245-1.127zM38.514 34.489l1.077-0.207c2.056-0.396 4.090-0.889 6.099-1.458 0.931-0.264 1.859-0.545 2.77-0.843 1.404-0.458 2.794-0.96 4.167-1.503 0.849-0.334 1.69-0.685 2.516-1.048 1.136-0.498 2.264-1.016 3.375-1.573 0.29-0.146 0.601-0.205 0.909-0.209 0.025 0 0.048-0.013 0.074-0.013 0.014 0 0.026 0.005 0.039 0.005 0.044 0.002 0.088 0.013 0.132 0.018 0.119 0.013 0.235 0.034 0.348 0.068 0.051 0.015 0.103 0.033 0.154 0.053 0.112 0.043 0.217 0.095 0.318 0.155 0.033 0.019 0.069 0.027 0.1 0.049 0.010 0.006 0.018 0.016 0.028 0.024 0.125 0.086 0.238 0.188 0.342 0.299 0.040 0.044 0.075 0.091 0.112 0.139 0.068 0.086 0.128 0.175 0.182 0.272 0.025 0.046 0.051 0.090 0.074 0.139 0.124 0.267 0.199 0.561 0.199 0.872l-0.005 0.136v0.002c-0.001 0.020-0.006 0.041-0.008 0.061-0.015 0.203-0.039 0.407-0.075 0.616-0.004 0.021-0.011 0.044-0.015 0.065-0.039 0.21-0.088 0.423-0.148 0.64-0.005 0.019-0.013 0.038-0.018 0.056-0.063 0.218-0.135 0.438-0.219 0.66-0.013 0.034-0.029 0.068-0.041 0.101-0.066 0.17-0.133 0.339-0.212 0.511-0.008 0.014-0.019 0.024-0.025 0.038-0.52 1.116-1.295 2.251-2.29 3.318-0.006 0.006-0.008 0.014-0.013 0.020-0.017 0.019-0.039 0.035-0.058 0.054-0.414 0.438-0.864 0.861-1.351 1.267-0.036 0.030-0.074 0.060-0.11 0.090-0.471 0.386-0.973 0.753-1.506 1.096-0.025 0.016-0.045 0.036-0.070 0.051-0.014 0.009-0.030 0.011-0.044 0.020-1.087 0.687-2.291 1.281-3.61 1.722v0 0.001l-0.036 0.011c-0.025 0.009-0.054 0.013-0.079 0.021-0.523 0.171-1.048 0.306-1.571 0.42-0.182 0.040-0.362 0.075-0.545 0.109-0.463 0.084-0.923 0.15-1.38 0.194-0.105 0.010-0.208 0.035-0.314 0.044-0.034 0.003-0.068 0.004-0.1 0.004-0.011 0-0.021-0.006-0.033-0.006-0.384 0.026-0.765 0.044-1.141 0.044-0.855 0-1.679-0.080-2.475-0.204-0.018 0-0.033 0.009-0.050 0.009-0.070 0-0.14-0.006-0.213-0.019-1.426-0.243-2.771-0.686-3.889-1.282-0.028-0.015-0.044-0.041-0.070-0.058-1.068-0.576-1.925-1.282-2.487-2.070-0.381-0.532-0.462-1.212-0.22-1.817 0.091-0.229 0.234-0.423 0.397-0.596 0.017-0.020 0.024-0.046 0.044-0.065 0.016-0.015 0.036-0.023 0.053-0.037 0.090-0.081 0.19-0.149 0.294-0.213 0.044-0.027 0.084-0.059 0.13-0.083 0.138-0.069 0.286-0.12 0.439-0.154 0.018-0.004 0.034-0.014 0.051-0.018zM50.913 37.879c1.262-0.422 2.375-1.004 3.361-1.662 0.362-0.244 0.719-0.495 1.052-0.766 0.171-0.14 0.318-0.289 0.478-0.433 0.228-0.204 0.457-0.408 0.669-0.627 1.251-1.297 2.060-2.676 2.384-3.822 0.009-0.033 0.015-0.063 0.023-0.094-0.755 0.368-1.516 0.722-2.281 1.064v0c-0.002 0.001-0.004 0.001-0.006 0.003-1.014 0.452-2.042 0.875-3.075 1.282-0.136 0.054-0.267 0.115-0.402 0.168-0.018 0.006-0.036 0.004-0.055 0.010-1.156 0.447-2.32 0.874-3.496 1.263h-0.001c-0.008 0.003-0.015 0.004-0.023 0.006-1.067 0.353-2.143 0.674-3.223 0.979-0.124 0.035-0.244 0.078-0.367 0.112-0.020 0.006-0.041 0.004-0.063 0.009-1.186 0.327-2.378 0.631-3.58 0.9-0.005 0.001-0.009 0.005-0.014 0.006-0.74 0.167-1.48 0.321-2.223 0.463 1.693 1.349 5.187 2.305 8.957 1.613 0.074-0.014 0.15-0.016 0.224-0.031 0.55-0.112 1.106-0.258 1.662-0.443z"></path>
</svg>
