<!-- Generated by IcoMoon.io -->
<svg version="1.1" xmlns="http://www.w3.org/2000/svg" width="72" height="72" viewBox="0 0 72 72">
<title>uniF17F</title>
<path d="M61.886 10.102c7.232 7.233 12.766 17.073 8.775 21.062-0.002 0.003-0.005 0.005-0.006 0.006-5.395 5.394-14.221 10.931-22.488 14.112-4.928 1.895-9.284 2.843-12.892 2.843-2.148 0-4.024-0.345-5.607-1.018l-8.497 8.497c-2.493 2.493-3.843 6.084-3.797 10.109 0 3.447-2.641 6.171-6.015 6.274-0.051 0.001-0.103 0.001-0.155 0.001-1.463 0-2.897-0.621-4.055-1.76-1.771-1.745-2.218-3.283-2.186-4.569-1.417-0.285-2.693-1.060-3.615-2.219-1.187-1.488-1.617-3.428-1.183-5.318 0.521-2.266 2.325-4.066 4.596-4.585 0.609-0.139 1.224-0.191 1.828-0.154 3.761 0.239 7.42-1.149 10.063-3.793l7.952-7.952c-1.464-4.232-0.766-10.368 2.1-17.819 3.18-8.266 8.719-17.092 14.112-22.487 0.002-0.003 0.005-0.004 0.006-0.006 1.8-1.801 5.074-1.751 9.228 0.137 3.779 1.718 7.982 4.786 11.836 8.638zM27.457 45.809c-0.238-0.191-0.464-0.392-0.674-0.603-0.341-0.342-0.643-0.724-0.925-1.123-0.025-0.037-0.058-0.065-0.083-0.102l-7.365 7.365c-3.149 3.148-7.525 4.793-11.972 4.515-0.367-0.022-0.745 0.010-1.123 0.096-1.328 0.304-2.424 1.398-2.729 2.722-0.268 1.167-0.019 2.31 0.705 3.217 0.711 0.894 1.774 1.406 2.914 1.406-0.006-0.008 0.074-0.016 0.156-0.019l1.643-0.032-0.418 1.59c-0.247 0.938-0.35 1.99 1.304 3.618 0.711 0.7 1.584 1.102 2.394 1.046 2.023-0.061 3.608-1.695 3.608-3.721-0.052-4.741 1.554-8.963 4.524-11.934zM47.276 42.966c6.454-2.483 13.248-6.443 18.344-10.606-0.354-0.056-0.721-0.135-1.096-0.23-0.096-0.025-0.194-0.056-0.29-0.082-0.338-0.092-0.684-0.2-1.038-0.323-0.125-0.044-0.248-0.086-0.375-0.133-0.452-0.168-0.912-0.351-1.388-0.567-3.779-1.718-7.983-4.786-11.836-8.64-3.852-3.853-6.921-8.056-8.638-11.834-0.211-0.465-0.391-0.915-0.556-1.357-0.048-0.13-0.092-0.257-0.136-0.385-0.115-0.33-0.217-0.653-0.305-0.969-0.031-0.113-0.066-0.227-0.094-0.338-0.099-0.39-0.184-0.772-0.241-1.137-4.162 5.095-8.122 11.889-10.604 18.343-2.747 7.139-3.385 12.971-1.895 16.573l0.056 0.127c0.009 0.019 0.019 0.036 0.027 0.055 0.155 0.347 0.334 0.666 0.525 0.966 0.041 0.063 0.081 0.128 0.124 0.19 0.205 0.298 0.424 0.576 0.666 0.819 0.004 0.004 0.006 0.007 0.010 0.011 0.012 0.012 0.026 0.021 0.038 0.034 0.191 0.187 0.398 0.366 0.623 0.532 0.037 0.027 0.079 0.051 0.117 0.077 0.201 0.143 0.411 0.278 0.636 0.403 3.511 1.935 9.666 1.417 17.326-1.53zM62.463 28.768c3.051 1.386 5.459 1.626 6.444 0.643 2.071-2.071-1.242-10.018-8.776-17.553-3.648-3.649-7.592-6.537-11.107-8.135-1.808-0.822-3.391-1.241-4.585-1.241-0.822 0-1.458 0.199-1.861 0.6-0.985 0.985-0.745 3.393 0.642 6.444 1.597 3.515 4.487 7.459 8.134 11.107 3.649 3.649 7.593 6.538 11.108 8.136zM58.376 13.613c3.39 3.39 5.432 6.386 6.549 8.301 0.598 1.026 0.438 2.277-0.398 3.114-0.499 0.5-1.147 0.758-1.806 0.758-0.444 0-0.895-0.118-1.308-0.359-1.915-1.116-4.911-3.159-8.302-6.549s-5.434-6.386-6.549-8.302c-0.597-1.025-0.437-2.278 0.4-3.114 0.835-0.837 2.088-0.997 3.113-0.398 1.915 1.116 4.913 3.16 8.302 6.549zM62.662 23.283l0.119-0.118c-1.043-1.79-2.958-4.595-6.16-7.797s-6.007-5.117-7.797-6.16l-0.118 0.119c1.041 1.787 2.955 4.592 6.159 7.796s6.008 5.117 7.797 6.16zM46.079 23.012c1.105 1.103 2.251 2.064 3.414 2.857 0.566 0.387 0.711 1.159 0.324 1.725-0.241 0.353-0.631 0.541-1.027 0.541-0.241 0-0.484-0.071-0.699-0.217-1.286-0.879-2.553-1.94-3.766-3.151s-2.274-2.48-3.153-3.766c-0.514-0.752-1.363-1.182-2.294-1.137-0.927 0.040-1.748 0.539-2.197 1.337-0.786 1.396-1.466 2.806-2.021 4.191-0.254 0.635-0.976 0.945-1.613 0.691-0.637-0.256-0.946-0.978-0.69-1.615 0.594-1.486 1.322-2.995 2.162-4.484 0.872-1.552 2.462-2.523 4.251-2.6 1.797-0.086 3.448 0.75 4.449 2.215 0.781 1.144 1.77 2.323 2.857 3.412zM46.553 36.548c0.6-0.338 1.355-0.124 1.692 0.474 0.335 0.596 0.124 1.353-0.473 1.689-3.797 2.136-8.277 3.852-11.891 3.852-1.95 0.001-3.645-0.498-4.848-1.7-1.136-1.134-1.708-2.773-1.705-4.868 0.001-0.686 0.556-1.24 1.241-1.24h0.001c0.686 0.001 1.241 0.557 1.24 1.244-0.002 1.412 0.326 2.459 0.978 3.109 1.953 1.955 7.616 0.901 13.765-2.561z"></path>
</svg>
