<!-- Generated by IcoMoon.io -->
<svg version="1.1" xmlns="http://www.w3.org/2000/svg" width="72" height="72" viewBox="0 0 72 72">
<title>uniF1D6</title>
<path d="M17.864 21.55c0-1.475 0.575-2.862 1.619-3.906 0.592-0.59 0.917-1.376 0.917-2.21s-0.325-1.62-0.916-2.212c-0.469-0.469-0.469-1.228 0-1.697 0.468-0.469 1.228-0.469 1.697 0 1.045 1.044 1.62 2.431 1.62 3.907s-0.576 2.863-1.62 3.907c-0.592 0.59-0.917 1.376-0.917 2.21s0.326 1.619 0.917 2.209c0.469 0.469 0.469 1.228 0 1.697-0.234 0.234-0.541 0.352-0.848 0.352s-0.614-0.118-0.848-0.352c-1.045-1.044-1.62-2.431-1.62-3.906zM44.265 21.55c0-1.475 0.575-2.862 1.619-3.906 0.592-0.59 0.917-1.376 0.917-2.21s-0.325-1.62-0.916-2.212c-0.469-0.469-0.469-1.228 0-1.697 0.468-0.469 1.228-0.469 1.697 0 1.045 1.044 1.62 2.431 1.62 3.907s-0.576 2.863-1.62 3.907c-0.592 0.59-0.917 1.376-0.917 2.21s0.326 1.619 0.917 2.209c0.469 0.469 0.469 1.228 0 1.697-0.234 0.234-0.541 0.352-0.848 0.352s-0.614-0.118-0.848-0.352c-1.045-1.044-1.62-2.431-1.62-3.906zM30.551 16.892c0-1.876 0.731-3.638 2.059-4.966 0.874-0.875 1.355-2.035 1.355-3.268 0-1.235-0.481-2.394-1.355-3.269-0.469-0.469-0.469-1.228 0-1.697s1.228-0.469 1.697 0c1.327 1.328 2.058 3.090 2.058 4.966s-0.731 3.638-2.058 4.964c-0.874 0.875-1.355 2.035-1.355 3.269s0.48 2.393 1.355 3.268c0.468 0.469 0.468 1.228 0 1.697-0.235 0.234-0.542 0.352-0.85 0.352s-0.614-0.118-0.848-0.352c-1.327-1.327-2.058-3.089-2.058-4.964zM56.336 50.13c-1.616 3.343-3.743 6.18-6.358 8.413h16.022c0.516 0 0.974 0.331 1.138 0.82 0.163 0.49-0.004 1.028-0.416 1.339-0.432 0.325-10.823 7.956-33.122 7.956-11.645 0-19.976-2.117-24.914-3.892-0.086-0.032-8.686-3.205-8.686-5.023 0-0.664 0.538-1.2 1.2-1.2h16.021c-6.49-5.543-10.021-14.753-10.021-26.4 0-0.664 0.538-1.2 1.2-1.2h15.6v-1.2c0-0.664 0.538-1.2 1.2-1.2s1.2 0.536 1.2 1.2v1.2h32.4c0.662 0 1.2 0.536 1.2 1.2 0 0.812-0.019 1.612-0.053 2.4h10.853c0.662 0 1.2 0.536 1.2 1.2 0 8.209-6.707 14.4-15.6 14.4-0.023 0-0.041-0.012-0.064-0.013zM69.544 36.943h-9.756c-0.358 3.947-1.162 7.554-2.39 10.762 6.691-0.396 11.574-4.732 12.146-10.762zM33.6 66.257c13.877 0 23.029-3.107 27.78-5.315h-55.69c4.626 2.189 13.723 5.315 27.91 5.315zM21.264 58.543h24.672c7.279-4.537 11.39-13.442 11.651-25.2h-31.187v2.4h2.4c0.662 0 1.2 0.536 1.2 1.2v9c0 0.664-0.538 1.2-1.2 1.2h-7.2c-0.662 0-1.2-0.536-1.2-1.2v-9c0-0.664 0.538-1.2 1.2-1.2h2.4v-2.4h-14.387c0.26 11.758 4.372 20.663 11.651 25.2zM27.6 38.143h-4.8v6.6h4.8v-6.6z"></path>
</svg>
