<!-- Generated by IcoMoon.io -->
<svg version="1.1" xmlns="http://www.w3.org/2000/svg" width="72" height="72" viewBox="0 0 72 72">
<title>uniF144</title>
<path d="M22.020 24.966c-2.154-2.154-2.154-5.66 0-7.814 0.592-0.59 0.917-1.375 0.917-2.21s-0.326-1.62-0.917-2.21c-0.469-0.469-0.469-1.228 0-1.697s1.228-0.469 1.697 0c1.045 1.044 1.62 2.431 1.62 3.907s-0.576 2.863-1.62 3.907c-1.218 1.219-1.218 3.202 0 4.421 0.469 0.469 0.469 1.228 0 1.697-0.234 0.234-0.541 0.352-0.848 0.352s-0.614-0.118-0.848-0.352zM48.42 24.966c-2.154-2.154-2.154-5.66 0-7.814 0.592-0.59 0.917-1.375 0.917-2.21s-0.326-1.62-0.917-2.21c-0.469-0.469-0.469-1.228 0-1.697s1.228-0.469 1.697 0c1.045 1.044 1.62 2.431 1.62 3.907s-0.576 2.863-1.62 3.907c-1.218 1.219-1.218 3.202 0 4.421 0.469 0.469 0.469 1.228 0 1.697-0.234 0.234-0.541 0.352-0.848 0.352s-0.614-0.118-0.848-0.352zM35.22 17.766c-2.154-2.154-2.154-5.66 0-7.814 0.592-0.59 0.917-1.375 0.917-2.21s-0.326-1.62-0.917-2.21c-0.469-0.469-0.469-1.228 0-1.697s1.228-0.469 1.697 0c1.045 1.044 1.62 2.431 1.62 3.907s-0.576 2.863-1.62 3.907c-1.218 1.219-1.218 3.202 0 4.421 0.469 0.469 0.469 1.228 0 1.697-0.234 0.234-0.541 0.352-0.848 0.352s-0.614-0.118-0.848-0.352zM30.414 34.332c-0.548 0-1.043-0.378-1.17-0.936-0.145-0.647 0.26-1.289 0.907-1.434 1.898-0.427 3.86-0.644 5.832-0.644h0.017c0.664 0 1.2 0.538 1.2 1.201 0 0.662-0.538 1.199-1.2 1.199v0h-0.016c-1.795 0-3.579 0.197-5.305 0.586-0.089 0.019-0.178 0.029-0.265 0.029zM11.785 54.097c-0.653-0.119-1.085-0.743-0.965-1.396 1.37-7.512 5.916-14.206 12.161-17.905 0.57-0.337 1.306-0.149 1.644 0.421 0.337 0.57 0.149 1.307-0.421 1.644-5.656 3.35-9.776 9.434-11.023 16.272-0.106 0.578-0.611 0.984-1.18 0.984-0.071 0-0.143-0.006-0.216-0.020zM66.749 52.465c2.508 1.42 5.251 3.509 5.251 5.852 0 6.102-18.614 10.2-36 10.2s-36-4.098-36-10.2c0-2.344 2.743-4.433 5.251-5.852 2.174-12.769 12.128-22.915 24.8-25.373-0.022-0.192-0.052-0.385-0.052-0.576 0-3.308 2.692-6 6-6s6 2.692 6 6c0 0.191-0.031 0.384-0.052 0.576 12.672 2.458 22.626 12.604 24.8 25.373zM32.407 26.724c0.056-0.007 0.113-0.008 0.17-0.014 0.413-0.044 0.828-0.078 1.246-0.107 0.154-0.011 0.306-0.027 0.46-0.035 0.569-0.031 1.141-0.049 1.718-0.049s1.15 0.018 1.718 0.049c0.154 0.008 0.306 0.024 0.459 0.035 0.418 0.029 0.833 0.061 1.246 0.107 0.055 0.006 0.112 0.009 0.168 0.014 0.005-0.070 0.007-0.138 0.007-0.206 0-1.985-1.615-3.6-3.6-3.6s-3.6 1.615-3.6 3.6c0 0.067 0.002 0.137 0.007 0.206zM31.679 29.242c-12.502 1.889-22.388 11.846-24.181 24.379-0.055 0.384-0.1 0.77-0.139 1.158-0.014 0.133-0.031 0.265-0.043 0.398-0.047 0.532-0.081 1.063-0.098 1.595 18.852 4.369 38.717 4.369 57.569 0-0.017-0.532-0.051-1.063-0.098-1.595-0.012-0.133-0.030-0.265-0.043-0.398-0.040-0.386-0.084-0.773-0.139-1.158-1.794-12.533-11.681-22.489-24.182-24.379-0.644-0.096-1.292-0.166-1.943-0.218-0.133-0.011-0.266-0.020-0.4-0.030-1.318-0.089-2.641-0.089-3.959 0-0.133 0.010-0.266 0.019-0.4 0.030-0.65 0.053-1.298 0.122-1.943 0.218zM36 66.118c20.515 0 33.6-5.123 33.6-7.8 0-0.46-0.569-1.472-2.477-2.794 0.005 0.068 0.002 0.136 0.007 0.204 0.041 0.659 0.070 1.32 0.070 1.99v0.945l-0.921 0.222c-9.905 2.377-20.093 3.566-30.28 3.566s-20.375-1.191-30.28-3.566l-0.92-0.222v-0.945c0-0.67 0.029-1.332 0.069-1.99 0.005-0.068 0.002-0.136 0.007-0.204-1.908 1.321-2.477 2.334-2.477 2.794 0 2.677 13.085 7.8 33.6 7.8z"></path>
</svg>
