<!-- Generated by IcoMoon.io -->
<svg version="1.1" xmlns="http://www.w3.org/2000/svg" width="72" height="72" viewBox="0 0 72 72">
<title>uniF1B3</title>
<path d="M71.841 55.079c0.264 0.547 0.194 1.184-0.184 1.658l-3.15 3.956c-1.005 1.263-2.509 1.988-4.124 1.988h-56.738c-1.606 0-3.104-0.718-4.11-1.968l-3.187-3.967c-0.381-0.473-0.456-1.11-0.193-1.66s0.807-0.893 1.417-0.893h0.69l4.195-23.062c0.16-0.883 0.274-1.774 0.389-2.665 0.025-0.2 0.053-0.4 0.080-0.6l-0.002-0.033c-0.006-0.107-0.011-0.213-0.011-0.323 0-10.031 13.058-18.192 29.108-18.192s29.108 8.161 29.108 18.192c0 0.109-0.005 0.216-0.011 0.323l-0.002 0.033c0.027 0.2 0.054 0.4 0.080 0.6 0.114 0.89 0.229 1.78 0.389 2.665l4.194 23.062h0.649c0.608 0 1.15 0.34 1.414 0.887zM67.312 54.192l-4.113-22.626c-0.169-0.924-0.289-1.854-0.41-2.787-0.030-0.233-0.062-0.465-0.093-0.698v0l-0.076-0.574c-0.234-1.658-1.041-3.635-3.557-3.635-0.423 0-0.872 0.047-1.304 0.228-0.93 0.39-1.777 1.411-2.11 3.913l3.272 26.179h8.391zM19.031 26.448l-3.469 27.744h10.804l0.033-0.779c-0.058-0.15-0.088-0.314-0.081-0.485l1.153-27.656c-0.173-1.494-0.817-3.488-2.997-3.788-0.183-0.025-0.377-0.039-0.582-0.039-2.676 0-4.851 2.176-4.851 4.851zM29.955 26.297l-1.161 27.895h14.451l-1.161-27.844c0-0.018 0.004-0.033 0.004-0.051h-0.005v-2.39c-0.013-2.49-2.936-4.606-5.546-4.861-0.175-0.017-0.347-0.025-0.518-0.025-2.73 0-6.064 2.239-6.064 4.851v2.425zM45.673 54.192h10.806l-2.036-16.328-0.004 0.025v-0.002l-0.001 0.007-1.439-11.597c0-2.675-2.176-4.851-4.851-4.851-2.653 0-3.394 2.21-3.58 3.83l1.153 27.652c0.007 0.171-0.023 0.335-0.081 0.485zM36.019 11.744c-11.227 0-20.859 4.119-24.796 9.937 0.125-0.035 0.26-0.052 0.388-0.080 0.103-0.021 0.203-0.046 0.308-0.063 0.338-0.055 0.686-0.090 1.051-0.090 1.411 0 3.038 0.417 4.238 1.959 0.004-0.007 0.007-0.013 0.011-0.021 0.121-0.278 0.266-0.543 0.42-0.802 0.040-0.068 0.081-0.133 0.124-0.2 0.166-0.26 0.342-0.511 0.539-0.746 0.006-0.009 0.013-0.015 0.019-0.022 0.192-0.229 0.403-0.441 0.621-0.644 0.058-0.054 0.116-0.107 0.176-0.159 0.232-0.201 0.471-0.394 0.726-0.565 0.006-0.004 0.012-0.007 0.018-0.011 0.251-0.167 0.517-0.313 0.788-0.449 0.070-0.035 0.142-0.069 0.215-0.103 0.284-0.129 0.573-0.247 0.873-0.341 0.004-0.001 0.006-0.001 0.010-0.002 0.298-0.092 0.606-0.158 0.919-0.211 0.080-0.013 0.159-0.025 0.24-0.036 0.32-0.044 0.645-0.074 0.978-0.074 1.267 0 2.365 0.359 3.279 0.982 0.084 0.057 0.178 0.095 0.258 0.155 0.070 0.054 0.125 0.129 0.193 0.186 0.239 0.201 0.473 0.407 0.678 0.652 0.182-0.323 0.399-0.629 0.633-0.925 0.005-0.006 0.010-0.012 0.015-0.018 0.46-0.578 1.008-1.1 1.62-1.555 0.035-0.027 0.070-0.053 0.107-0.079 0.588-0.423 1.227-0.783 1.896-1.070 0.072-0.030 0.141-0.059 0.212-0.087 0.652-0.261 1.323-0.45 1.995-0.557 0.084-0.013 0.166-0.025 0.249-0.036 0.334-0.042 0.667-0.073 0.995-0.073s0.66 0.030 0.993 0.073c0.084 0.011 0.166 0.023 0.25 0.036 0.331 0.052 0.662 0.118 0.992 0.21 0.002 0 0.005 0.001 0.007 0.001 0.33 0.092 0.657 0.211 0.98 0.34 0.083 0.033 0.164 0.067 0.245 0.102 0.317 0.137 0.631 0.284 0.933 0.454 0.004 0.002 0.009 0.004 0.012 0.006 0.304 0.171 0.595 0.364 0.878 0.565 0.073 0.052 0.144 0.104 0.216 0.159 0.274 0.207 0.54 0.423 0.786 0.657 0.005 0.005 0.010 0.009 0.015 0.013 0.247 0.236 0.473 0.491 0.686 0.752 0.055 0.067 0.108 0.133 0.16 0.203 0.204 0.267 0.394 0.541 0.557 0.83 0.002 0.002 0.005 0.006 0.006 0.009 1.055-1.269 2.571-1.983 4.415-1.983 0.331 0 0.656 0.030 0.976 0.074 0.081 0.011 0.161 0.023 0.241 0.036 0.311 0.052 0.616 0.118 0.912 0.209 0.005 0.001 0.011 0.002 0.016 0.004 0.301 0.093 0.588 0.212 0.871 0.341 0.074 0.034 0.146 0.068 0.218 0.104 0.268 0.133 0.53 0.279 0.777 0.443 0.010 0.006 0.019 0.011 0.029 0.017 0.255 0.171 0.494 0.361 0.724 0.563 0.061 0.052 0.119 0.104 0.177 0.159 0.216 0.2 0.423 0.409 0.614 0.634 0.010 0.010 0.019 0.019 0.028 0.029 0.197 0.234 0.372 0.485 0.538 0.743 0.042 0.067 0.084 0.133 0.124 0.201 0.15 0.252 0.291 0.512 0.411 0.783 0.006 0.013 0.015 0.024 0.019 0.036 0.9-1.152 2.041-1.675 3.151-1.864 0.37-0.063 0.736-0.088 1.089-0.088 0.365 0 0.713 0.036 1.052 0.090 0.105 0.016 0.206 0.041 0.308 0.063 0.129 0.028 0.263 0.045 0.388 0.080-3.931-5.817-13.562-9.935-24.79-9.935zM8.84 31.565l-4.113 22.628h8.392l3.27-26.162c-0.489-3.677-2.076-4.159-3.412-4.159-2.518 0-3.324 1.977-3.557 3.635l-0.076 0.574c-0.032 0.233-0.063 0.464-0.094 0.697-0.121 0.933-0.241 1.863-0.41 2.787zM66.61 59.183l2.044-2.565h-65.297l2.069 2.576c0.543 0.675 1.352 1.062 2.219 1.062h56.738c0.872 0 1.683-0.391 2.227-1.073zM11.286 32.427c0.661 0.103 1.113 0.724 1.007 1.387l-1.607 10.183c-0.093 0.597-0.61 1.024-1.196 1.024-0.063 0-0.126-0.005-0.19-0.016-0.661-0.104-1.113-0.725-1.008-1.388l1.607-10.183c0.104-0.661 0.726-1.115 1.387-1.008zM13.258 27.906l-0.438 2.69c-0.097 0.594-0.612 1.018-1.196 1.018-0.064 0-0.13-0.005-0.196-0.016-0.661-0.107-1.11-0.73-1.002-1.392l0.438-2.69c0.107-0.658 0.72-1.109 1.392-1.002 0.661 0.107 1.11 0.73 1.002 1.392zM21.735 29.547c-0.665-0.089-1.13-0.699-1.042-1.362l0.36-2.702c0.089-0.663 0.691-1.133 1.362-1.042 0.663 0.089 1.13 0.699 1.042 1.362l-0.36 2.702c-0.081 0.61-0.602 1.053-1.201 1.053-0.053 0-0.107-0.004-0.161-0.011zM33.588 27.626c0.668 0.028 1.19 0.592 1.163 1.26l-0.237 5.859c-0.025 0.653-0.564 1.164-1.21 1.164-0.017 0-0.033 0-0.050-0.001-0.669-0.027-1.19-0.591-1.163-1.26l0.236-5.859c0.026-0.671 0.591-1.211 1.26-1.163zM33.774 21.638c0.671 0.022 1.195 0.581 1.173 1.25l-0.088 2.724c-0.022 0.656-0.559 1.174-1.21 1.174-0.015 0-0.027 0-0.040-0.001-0.671-0.021-1.196-0.581-1.173-1.251l0.089-2.724c0.022-0.656 0.559-1.174 1.21-1.174 0.015 0 0.027 0 0.040 0.001zM59.447 25.788c0.654-0.082 1.269 0.394 1.349 1.060l0.326 2.706c0.079 0.665-0.394 1.269-1.060 1.349-0.048 0.006-0.097 0.009-0.146 0.009-0.605 0-1.128-0.452-1.203-1.068l-0.326-2.706c-0.079-0.665 0.394-1.269 1.060-1.349z"></path>
</svg>
