<!-- Generated by IcoMoon.io -->
<svg version="1.1" xmlns="http://www.w3.org/2000/svg" width="72" height="72" viewBox="0 0 72 72">
<title>uniF11D</title>
<path d="M29.256 33.696v-0.001h-4.886c-4.671 0-8.471-3.8-8.471-8.469v-4.887c0-0.739 0.598-1.336 1.336-1.336h4.886c1.098 0 2.144 0.216 3.107 0.598-0.569-2.707 0.191-5.642 2.289-7.74l3.457-3.454c0.522-0.522 1.366-0.522 1.889 0l3.455 3.455c2.101 2.101 2.86 5.039 2.288 7.749 0.97-0.387 2.024-0.606 3.129-0.606h4.886c0.737 0 1.336 0.597 1.336 1.336v4.887c0 4.669-3.8 8.469-8.471 8.469h-4.886c-0.737 0-1.336-0.597-1.336-1.336v-4.886c0-0.207 0.016-0.41 0.031-0.613l-0.433 0.433c-0.261 0.26-0.602 0.391-0.944 0.391s-0.684-0.131-0.944-0.391l-0.411-0.411c0.013 0.195 0.029 0.391 0.029 0.59v4.886c0 0.739-0.599 1.336-1.336 1.336zM45.284 21.675h-3.55c-3.198 0-5.8 2.6-5.8 5.799v3.55h3.55c3.198 0 5.799-2.601 5.799-5.798v-3.551zM29.406 13.749c-2.26 2.26-2.26 5.94 0 8.201l2.511 2.511 2.511-2.511c2.26-2.261 2.26-5.941 0-8.201l-2.511-2.511zM18.571 25.227c0 3.196 2.602 5.798 5.799 5.798h3.55v-3.55c0-3.199-2.602-5.799-5.8-5.799h-3.55v3.551zM35.934 44.077c2.209 0 4.007 1.798 4.007 4.007h-2.671c0-0.737-0.6-1.336-1.336-1.336s-1.336 0.598-1.336 1.336h-2.671c0-2.209 1.798-4.007 4.007-4.007zM46.62 45.412c2.209 0 4.007 1.798 4.007 4.007h-2.671c0-0.737-0.6-1.336-1.336-1.336s-1.336 0.598-1.336 1.336h-2.671c0-2.209 1.798-4.007 4.007-4.007zM56.657 40.334c5.889 0.724 14.135 2.45 14.135 6.436v0.139c0 13.835-11.257 25.090-25.092 25.090-4.907 0-9.475-1.437-13.346-3.881h-20.454c-0.005 0-0.011-0.003-0.016-0.003-0.008 0-0.016 0.003-0.024 0.003-0.179 0-0.358-0.036-0.528-0.108l-9.318-4.007c-0.49-0.211-0.808-0.695-0.808-1.228v-61.44c0-0.739 0.599-1.336 1.336-1.336h9.318c0.007 0 0.013 0.004 0.020 0.004s0.013-0.004 0.020-0.004h41.397c0.737 0 1.336 0.597 1.336 1.336v19.067c0.394-0.228 0.848-0.367 1.336-0.367h2.671c1.473 0 2.671 1.198 2.671 2.671 0 0.116-0.016 0.233-0.045 0.345zM55.969 22.706c0 0.116-0.015 0.233-0.044 0.345l-4.911 18.419-0.655 2.599c-0.154 0.605-0.697 1.010-1.294 1.010-0.108 0-0.218-0.012-0.327-0.040-0.716-0.18-1.15-0.906-0.97-1.622l0.25-0.994c-0.769-0.020-1.527-0.051-2.317-0.051-14.792 0-22.42 3.084-22.42 4.4 0 1.314 7.628 4.398 22.42 4.398s22.42-3.084 22.42-4.398c0-0.638-3.036-2.749-12.153-3.824l-0.504 1.934c-0.156 0.601-0.698 0.999-1.291 0.999-0.111 0-0.224-0.015-0.337-0.043-0.715-0.187-1.142-0.916-0.956-1.63l0.796-3.057s0.001-0.001 0.001-0.004v-0.003l4.917-18.439h-2.624zM10.525 64.754v-62.083h-6.646v59.224zM28.808 65.447c-0.143-0.13-0.266-0.276-0.409-0.407-0.313-0.298-0.613-0.604-0.91-0.918-0.294-0.311-0.584-0.624-0.86-0.947-0.251-0.294-0.489-0.598-0.727-0.904-0.279-0.359-0.556-0.717-0.815-1.090-0.211-0.305-0.406-0.621-0.604-0.935-0.244-0.389-0.491-0.775-0.715-1.177-0.188-0.338-0.354-0.689-0.526-1.036-0.196-0.395-0.399-0.787-0.574-1.191-0.171-0.395-0.314-0.807-0.465-1.213-0.139-0.374-0.291-0.743-0.413-1.125-0.152-0.48-0.268-0.972-0.393-1.464-0.082-0.329-0.183-0.649-0.252-0.982-0.123-0.584-0.203-1.182-0.283-1.78-0.035-0.254-0.090-0.502-0.116-0.757-0.089-0.857-0.137-1.728-0.137-2.61v-0.139c0-5.594 16.412-7.071 25.092-7.071 1.020 0 2.021 0.020 3.005 0.051l3.256-12.212v-24.869h-38.726v62.776h15.571zM45.702 69.329c11.182 0 20.45-8.237 22.123-18.958-5.129 2.663-15.725 3.469-22.124 3.469-6.398 0-16.995-0.805-22.124-3.469 0.049 0.31 0.081 0.624 0.143 0.93 0.024 0.119 0.053 0.235 0.079 0.353 0.127 0.589 0.275 1.171 0.449 1.742 0.024 0.079 0.044 0.16 0.069 0.239 0.198 0.628 0.426 1.244 0.677 1.846 0.043 0.103 0.088 0.206 0.132 0.308 0.537 1.238 1.179 2.419 1.921 3.53 0.044 0.068 0.089 0.136 0.135 0.203 0.379 0.557 0.781 1.097 1.209 1.616 0.023 0.028 0.048 0.056 0.072 0.084 0.395 0.477 0.815 0.932 1.249 1.374 0.080 0.083 0.159 0.166 0.24 0.247 0.439 0.435 0.899 0.852 1.374 1.25 0.13 0.11 0.266 0.212 0.398 0.318 0.365 0.291 0.74 0.57 1.122 0.839 0.166 0.116 0.329 0.236 0.498 0.349 3.546 2.352 7.792 3.731 12.357 3.731z"></path>
</svg>
