<!-- Generated by IcoMoon.io -->
<svg version="1.1" xmlns="http://www.w3.org/2000/svg" width="72" height="72" viewBox="0 0 72 72">
<title>uniF164</title>
<path d="M53.306 18.674c0.624 1.386 0.966 2.901 0.966 4.471 0 2.775-1.044 5.305-2.751 7.239l-13.55 40.782c-0.166 0.5-0.631 0.834-1.156 0.834h-0.011c-0.527-0.005-0.994-0.35-1.151-0.854l-10.752-34.367-0.283-0.283 0.074-0.074c-5.307-0.763-9.402-5.326-9.402-10.84 0-4.788 3.089-8.858 7.375-10.349-0.041-0.422-0.066-0.83-0.066-1.224 0-7.725 6.285-14.009 14.009-14.009 3.149 0 6.047 1.057 8.39 2.818 0.843-0.25 1.704-0.381 2.573-0.381 5.038 0 9.136 4.098 9.136 9.136 0 2.798-1.255 5.377-3.402 7.101zM54.273 11.573c0-3.806-3.221-6.88-7.036-6.693 0.052 0.061 0.096 0.127 0.148 0.188 0.040 0.049 0.077 0.101 0.116 0.151 0.234 0.29 0.458 0.587 0.668 0.893 0.052 0.076 0.1 0.155 0.151 0.231 0.186 0.285 0.364 0.574 0.529 0.87 0.058 0.105 0.113 0.212 0.169 0.318 0.144 0.275 0.279 0.554 0.405 0.838 0.058 0.13 0.114 0.263 0.168 0.396 0.107 0.267 0.206 0.537 0.297 0.811 0.051 0.152 0.102 0.305 0.149 0.459 0.079 0.268 0.146 0.54 0.21 0.813 0.038 0.162 0.079 0.322 0.111 0.486 0.056 0.292 0.098 0.587 0.135 0.883 0.019 0.147 0.045 0.292 0.060 0.441 0.043 0.447 0.068 0.897 0.068 1.351 0 0.311-0.010 0.627-0.033 0.946 0.073 0.066 0.138 0.14 0.21 0.207 0.145 0.135 0.284 0.274 0.42 0.415 0.098 0.104 0.194 0.21 0.288 0.317 0.191 0.213 0.374 0.431 0.546 0.658v0c1.409-1.258 2.224-3.049 2.224-4.98zM25.037 14.009c0 0.219 0.009 0.446 0.024 0.677 0.392-0.043 0.789-0.068 1.194-0.068 0.376 0 0.749 0.019 1.116 0.061 0.094 0.009 0.183 0.029 0.275 0.041 0.273 0.035 0.546 0.069 0.811 0.124 0.239 0.049 0.471 0.117 0.705 0.182 0.115 0.032 0.231 0.054 0.344 0.089 0.285 0.088 0.562 0.195 0.836 0.306 0.055 0.022 0.115 0.039 0.169 0.062 0.326 0.138 0.644 0.291 0.954 0.459 0.001 0 0.002 0.001 0.004 0.001 0.292 0.158 0.574 0.331 0.849 0.515 0.017 0.012 0.037 0.022 0.055 0.034 0.272 0.184 0.534 0.381 0.787 0.588 0.018 0.015 0.039 0.028 0.057 0.043 0.219 0.18 0.425 0.374 0.629 0.57 0.049 0.048 0.102 0.089 0.151 0.138 0.199 0.199 0.385 0.411 0.569 0.625 0.045 0.052 0.095 0.1 0.139 0.152 0.165 0.2 0.316 0.41 0.467 0.623 0.054 0.074 0.114 0.144 0.166 0.22 0.13 0.193 0.246 0.396 0.364 0.597 0.061 0.102 0.129 0.201 0.186 0.306 0.102 0.188 0.189 0.385 0.28 0.58 0.060 0.127 0.128 0.249 0.183 0.378 0.079 0.185 0.141 0.38 0.211 0.571 0.052 0.145 0.113 0.286 0.16 0.435 0.054 0.172 0.091 0.351 0.136 0.526 0.045 0.174 0.099 0.346 0.135 0.524 0.034 0.162 0.051 0.33 0.077 0.496 0.031 0.196 0.069 0.391 0.090 0.591 0.017 0.171 0.017 0.346 0.027 0.519 0.011 0.193 0.031 0.384 0.031 0.579 0.079-0.004 0.158-0.005 0.236-0.011 0.199-0.015 0.395-0.035 0.591-0.060 0.167-0.021 0.334-0.041 0.498-0.069 0.203-0.034 0.404-0.077 0.604-0.122 0.15-0.034 0.3-0.067 0.447-0.106 0.216-0.057 0.428-0.124 0.638-0.194 0.124-0.041 0.25-0.080 0.373-0.125 0.236-0.086 0.467-0.184 0.696-0.286 0.090-0.040 0.183-0.077 0.272-0.119 0.262-0.124 0.519-0.262 0.77-0.406 0.050-0.029 0.104-0.056 0.153-0.085 0.297-0.177 0.586-0.364 0.865-0.565 0.004-0.002 0.007-0.004 0.010-0.006 1.601-1.156 2.884-2.717 3.725-4.522 0.001-0.004 0-0.009 0.002-0.012 0.143-0.308 0.272-0.624 0.389-0.948 0.001-0.005 0.006-0.009 0.009-0.015 0.005-0.012 0.009-0.024 0.013-0.037 0.018-0.052 0.037-0.104 0.055-0.156 0.001-0.004 0-0.006 0.001-0.010 0.045-0.132 0.086-0.264 0.125-0.398 0.046-0.164 0.090-0.329 0.133-0.495 0-0.004 0.002-0.006 0.004-0.009 0.018-0.072 0.039-0.143 0.056-0.216 0.006-0.029 0.015-0.057 0.021-0.085 0.024-0.113 0.044-0.227 0.063-0.34 0.028-0.146 0.050-0.295 0.072-0.443 0.004-0.026 0.009-0.052 0.012-0.078 0-0.001 0.001-0.002 0.001-0.004 0.009-0.061 0.022-0.119 0.029-0.18 0.007-0.057 0.019-0.113 0.026-0.171 0.049-0.43 0.076-0.859 0.076-1.272 0-0.415-0.024-0.827-0.068-1.235-0.013-0.129-0.040-0.255-0.059-0.383-0.039-0.274-0.078-0.549-0.136-0.819-0.034-0.158-0.079-0.311-0.117-0.467-0.061-0.232-0.121-0.463-0.195-0.69-0.057-0.174-0.123-0.342-0.188-0.512-0.076-0.197-0.152-0.396-0.239-0.59-0.082-0.182-0.168-0.358-0.258-0.535-0.088-0.172-0.179-0.342-0.275-0.51-0.104-0.182-0.212-0.359-0.325-0.535-0.1-0.153-0.205-0.303-0.312-0.452-0.126-0.174-0.251-0.347-0.385-0.514-0.116-0.144-0.239-0.281-0.362-0.419-0.14-0.157-0.277-0.318-0.425-0.468-0.147-0.15-0.308-0.29-0.465-0.432-2.056-1.865-4.774-3.014-7.762-3.014-6.381 0-11.573 5.192-11.573 11.573zM17.727 25.582c0 4.543 3.574 8.257 8.056 8.504 0.002 0 0.004-0.001 0.006-0.001l0.119 0.007c0.116 0.005 0.229 0.017 0.346 0.017 0.387 0 0.769-0.035 1.146-0.088 0.091-0.012 0.182-0.027 0.272-0.041 0.757-0.128 1.484-0.353 2.165-0.671 0.057-0.026 0.112-0.054 0.168-0.080 1.827-0.904 3.312-2.458 4.122-4.451 0.018-0.046 0.051-0.083 0.074-0.126 0.029-0.074 0.056-0.15 0.083-0.225 0.101-0.283 0.186-0.57 0.256-0.859 0.004-0.013 0.007-0.028 0.011-0.043 0.071-0.301 0.126-0.603 0.162-0.906 0-0.001 0.001-0.002 0.001-0.004v-0.004c0.041-0.339 0.068-0.68 0.068-1.031 0-0.314-0.021-0.624-0.054-0.929-0.012-0.116-0.035-0.228-0.052-0.341-0.028-0.185-0.056-0.369-0.095-0.549-0.032-0.145-0.072-0.289-0.111-0.431-0.038-0.138-0.076-0.274-0.119-0.409-0.056-0.168-0.117-0.334-0.183-0.497-0.038-0.094-0.077-0.186-0.117-0.279-0.085-0.194-0.175-0.384-0.274-0.569-0.023-0.043-0.048-0.084-0.071-0.127-1.457-2.615-4.248-4.392-7.447-4.394-0.641 0.006-1.299 0.079-1.966 0.236-3.758 0.889-6.567 4.265-6.567 8.291zM36.851 66.814l11.231-33.804c-0.027 0.013-0.055 0.022-0.081 0.034-0.312 0.149-0.632 0.283-0.96 0.402-0.055 0.021-0.108 0.040-0.162 0.060-0.287 0.1-0.581 0.185-0.878 0.261l1.011 1.011-1.723 1.723-1.723-1.723 0.713-0.713c-0.32 0.029-0.644 0.050-0.972 0.050-0.407 0-0.809-0.029-1.207-0.073-0.106-0.012-0.211-0.032-0.315-0.046-0.301-0.041-0.598-0.095-0.893-0.162-0.107-0.024-0.213-0.051-0.32-0.079-0.299-0.078-0.593-0.169-0.883-0.272-0.090-0.032-0.18-0.061-0.269-0.095-0.331-0.128-0.657-0.271-0.973-0.429-0.044-0.022-0.089-0.039-0.132-0.061-0.054-0.028-0.105-0.059-0.158-0.088l0.244 0.244-1.723 1.723-1.723-1.723 1.431-1.431c-0.186-0.154-0.364-0.317-0.541-0.482-0.033-0.032-0.068-0.057-0.101-0.089-0.747 1.29-1.747 2.411-2.935 3.301l0.423 0.423-1.723 1.723-0.871-0.871c-0.168 0.074-0.34 0.138-0.512 0.202-0.126 0.049-0.252 0.096-0.38 0.14-0.27 0.093-0.548 0.169-0.828 0.24-0.115 0.028-0.227 0.062-0.342 0.088-0.2 0.043-0.404 0.073-0.609 0.105l0.098 0.098-0.532 0.532 0.821 2.624 1.434-1.434 1.723 1.723-1.723 1.723-1.17-1.171 2.2 7.031 0.693-0.693 1.723 1.723-1.595 1.595 1.685 5.387 1.632 1.632-0.854 0.854zM49.503 28.989c1.441-1.528 2.333-3.582 2.334-5.84 0-1.515-0.409-2.96-1.143-4.232-0.002-0.002-0.006-0.005-0.007-0.007-0.191-0.33-0.425-0.62-0.651-0.917-0.002 0.010-0.007 0.019-0.010 0.029-0.052 0.172-0.112 0.34-0.171 0.509-0.084 0.247-0.172 0.492-0.269 0.732-0.055 0.135-0.112 0.269-0.172 0.403-0.127 0.29-0.264 0.573-0.41 0.852-0.043 0.083-0.084 0.166-0.129 0.247-0.635 1.156-1.428 2.206-2.348 3.13-0.015 0.015-0.030 0.029-0.046 0.045-0.297 0.294-0.605 0.575-0.927 0.842-0.023 0.021-0.046 0.040-0.071 0.060-1.009 0.828-2.133 1.517-3.345 2.038-0.080 0.034-0.163 0.066-0.245 0.099-0.309 0.125-0.623 0.241-0.942 0.345-0.115 0.038-0.228 0.074-0.344 0.108-0.312 0.093-0.63 0.173-0.95 0.245-0.105 0.023-0.208 0.051-0.314 0.072-0.424 0.084-0.854 0.152-1.29 0.197-0.039 0.004-0.080 0.004-0.119 0.007-0.33 0.031-0.661 0.056-0.998 0.063-0.038 0.169-0.084 0.339-0.132 0.508-0.006 0.022-0.011 0.044-0.017 0.066 0.59 0.707 1.271 1.31 2.025 1.785 0.002 0.002 0.005 0.005 0.009 0.006 0.202 0.127 0.414 0.236 0.625 0.346 0.076 0.039 0.149 0.085 0.225 0.122 0.139 0.066 0.285 0.118 0.429 0.178 0.15 0.062 0.296 0.13 0.45 0.183 0.085 0.029 0.174 0.049 0.261 0.076 0.212 0.066 0.423 0.133 0.638 0.182 0.076 0.017 0.155 0.024 0.23 0.039 0.228 0.045 0.456 0.090 0.688 0.116 0.311 0.035 0.624 0.054 0.94 0.054 0.294 0 0.586-0.016 0.873-0.046 0.814-0.083 1.592-0.285 2.323-0.582 0.044-0.018 0.089-0.032 0.132-0.050 0.173-0.073 0.339-0.158 0.504-0.242 0.089-0.045 0.18-0.085 0.268-0.134 0.122-0.067 0.238-0.142 0.356-0.216 0.132-0.080 0.264-0.16 0.391-0.248 0.078-0.054 0.151-0.113 0.227-0.169 0.162-0.122 0.324-0.246 0.479-0.38 0.046-0.040 0.090-0.083 0.136-0.124 0.173-0.157 0.344-0.319 0.506-0.492zM40.124 34.773l1.723 1.723-1.723 1.723-1.723-1.723zM43.573 41.665l-1.723-1.723 1.723-1.723 1.723 1.723zM34.957 36.495l1.723 1.723-1.723 1.723-1.723-1.723zM40.123 41.666l-1.723 1.723-1.723-1.723 1.723-1.723zM41.843 46.833l-1.723-1.723 1.723-1.723 1.723 1.723zM33.23 41.663l1.723 1.723-1.723 1.723-1.723-1.723zM36.678 48.555l-1.723-1.723 1.723-1.723 1.723 1.723zM40.126 52.002l-1.723-1.723 1.723-1.723 1.723 1.723zM34.958 50.278l1.723 1.723-1.721 1.723-1.723-1.723zM38.403 57.171l-1.723-1.723 1.723-1.723 1.723 1.723zM36.678 62.34l-1.723-1.723 1.723-1.723 1.723 1.723z"></path>
</svg>
