<!-- Generated by IcoMoon.io -->
<svg version="1.1" xmlns="http://www.w3.org/2000/svg" width="72" height="72" viewBox="0 0 72 72">
<title>uniF15B</title>
<path d="M22.197 38.069c0-0.857 0.429-1.286 1.286-1.286s1.286 0.429 1.286 1.286-0.429 1.286-1.286 1.286c-0.857 0-1.286-0.429-1.286-1.286zM22.217 44.497c0-0.857 0.429-1.286 1.286-1.286s1.286 0.429 1.286 1.286c0 0.857-0.429 1.286-1.286 1.286s-1.286-0.429-1.286-1.286zM27.599 38.822c0-0.857 0.429-1.286 1.286-1.286s1.286 0.429 1.286 1.286-0.429 1.286-1.286 1.286-1.286-0.429-1.286-1.286zM18.084 57.857c0-0.857 0.429-1.286 1.286-1.286s1.286 0.429 1.286 1.286c0 0.857-0.429 1.286-1.286 1.286s-1.286-0.429-1.286-1.286zM25.798 64.286c0-0.857 0.429-1.286 1.286-1.286s1.286 0.429 1.286 1.286c0 0.857-0.429 1.286-1.286 1.286s-1.286-0.429-1.286-1.286zM19.369 64.286c0-0.857 0.429-1.286 1.286-1.286s1.286 0.429 1.286 1.286c0 0.857-0.429 1.286-1.286 1.286s-1.286-0.429-1.286-1.286zM16.798 48.857c0-0.857 0.429-1.286 1.286-1.286s1.286 0.429 1.286 1.286-0.429 1.286-1.286 1.286c-0.857 0-1.286-0.429-1.286-1.286zM20.655 51.429c0-0.857 0.429-1.286 1.286-1.286s1.286 0.429 1.286 1.286c0 0.857-0.429 1.286-1.286 1.286s-1.286-0.429-1.286-1.286zM16.798 42.429c0-0.857 0.429-1.286 1.286-1.286s1.286 0.429 1.286 1.286c0 0.857-0.429 1.286-1.286 1.286s-1.286-0.429-1.286-1.286zM16.798 34.714c0-0.857 0.429-1.286 1.286-1.286s1.286 0.429 1.286 1.286c0 0.857-0.429 1.286-1.286 1.286s-1.286-0.429-1.286-1.286zM41.226 33.429c0-0.857 0.429-1.286 1.286-1.286s1.286 0.429 1.286 1.286c0 0.857-0.429 1.286-1.286 1.286s-1.286-0.429-1.286-1.286zM34.798 34.714c0-0.857 0.429-1.286 1.286-1.286s1.286 0.429 1.286 1.286c0 0.857-0.429 1.286-1.286 1.286s-1.286-0.429-1.286-1.286zM23.226 32.143c0-0.857 0.429-1.286 1.286-1.286s1.286 0.429 1.286 1.286-0.429 1.286-1.286 1.286-1.286-0.429-1.286-1.286zM43.798 28.286c0-0.857 0.429-1.286 1.286-1.286s1.286 0.429 1.286 1.286c0 0.857-0.429 1.286-1.286 1.286s-1.286-0.429-1.286-1.286zM47.655 32.143c0-0.857 0.429-1.286 1.286-1.286s1.286 0.429 1.286 1.286-0.429 1.286-1.286 1.286c-0.857 0-1.286-0.429-1.286-1.286zM54.084 29.571c0-0.857 0.429-1.286 1.286-1.286s1.286 0.429 1.286 1.286c0 0.857-0.429 1.286-1.286 1.286s-1.286-0.429-1.286-1.286zM51.512 37.286c0-0.857 0.429-1.286 1.286-1.286s1.286 0.429 1.286 1.286c0 0.857-0.429 1.286-1.286 1.286s-1.286-0.429-1.286-1.286zM30.154 33.672c0-0.857 0.429-1.286 1.286-1.286s1.286 0.429 1.286 1.286-0.429 1.286-1.286 1.286-1.286-0.429-1.286-1.286zM50.584 42.098l-1.944 7.145 5.176 5.174-2.33 8.564-8.565 2.331-5.165-5.165-7.136 1.94-6.249-6.249 2.33-8.564 7.122-1.936 1.947-7.158 8.565-2.331zM37.864 40.274l-1.551 5.707 4.126 4.126 5.724-1.557 1.547-5.688-4.14-4.14zM27.246 55.075l4.14 4.14 5.664-1.539 1.565-5.747-4.111-4.11-5.706 1.551zM49.391 60.886l1.552-5.709-4.126-4.126-5.683 1.547-1.558 5.729 4.109 4.111zM55.653 13.359c1.283 0.459 2.284 0.86 3.004 1.204s1.601 0.891 2.642 1.64c1.041 0.749 1.813 1.714 2.316 2.893s0.754 2.571 0.754 4.174v1.828c0 1.516-0.669 2.632-2.007 3.349-0.228 0.123-0.509 0.228-0.843 0.314v30.002c0 3.65-1.294 6.768-3.881 9.355s-5.706 3.881-9.355 3.881h-24.565c-3.649 0-6.768-1.294-9.355-3.881s-3.882-5.705-3.882-9.354v-32.486l-1.088 0.435c-0.421 0.168-0.821 0.125-1.198-0.13-0.376-0.256-0.564-0.61-0.564-1.065v-2.249c0-1.603 0.251-2.994 0.754-4.174s1.274-2.144 2.315-2.893 1.922-1.296 2.642-1.641c0.721-0.345 1.722-0.746 3.004-1.205 2.457-0.877 3.802-1.676 4.036-2.397-1.224-0.301-2.23-0.944-3.017-1.929s-1.181-2.114-1.181-3.385v-0.171c0-1.51 0.535-2.8 1.606-3.871s2.361-1.606 3.871-1.606h28.678c1.51 0 2.8 0.535 3.871 1.606s1.606 2.361 1.606 3.871v0.171c0 1.277-0.396 2.41-1.187 3.401s-1.794 1.632-3.007 1.924c0.239 0.714 1.583 1.509 4.032 2.385zM58.947 58.764h-0.001v-30.234c-0.174-0.081-0.335-0.171-0.485-0.271l-2.665-1.777c-0.644-0.429-1.199-0.334-1.664 0.286l-0.093 0.125c-0.898 1.197-2.092 1.692-3.581 1.484-1.486-0.214-2.493-1.023-3.020-2.427l-0.877-2.34c-0.178-0.476-0.521-0.739-1.027-0.789-0.495-0.068-0.883 0.122-1.164 0.571l-2.485 3.978c-0.709 1.132-1.729 1.726-3.061 1.782-1.329 0.061-2.395-0.444-3.2-1.516-0.311-0.384-0.666-0.577-1.064-0.576s-0.721 0.163-0.967 0.489l-0.526 0.701c-0.692 0.925-1.616 1.428-2.771 1.511-1.144 0.092-2.129-0.275-2.956-1.102l-0.685-0.685c-0.5-0.501-1.035-0.54-1.605-0.115l-1.728 1.296c-0.172 0.129-0.379 0.253-0.622 0.372-0.025 0.012-0.063 0.028-0.114 0.049s-0.077 0.031-0.079 0.032c-0.163 0.069-0.33 0.126-0.503 0.171-0.094 0.025-0.162 0.042-0.203 0.050-0.208 0.042-0.413 0.067-0.615 0.075-0.010 0-0.027 0.002-0.049 0.004s-0.040 0.004-0.052 0.004l-0.046 0.004c-0.24 0-0.483-0.024-0.729-0.071-1.105-0.217-1.948-0.809-2.528-1.774l-1.741-2.901c-0.361-0.599-0.864-0.769-1.509-0.509l-1.48 0.591v33.515c0 2.94 1.042 5.453 3.127 7.538s4.597 3.127 7.538 3.127h24.565c2.94 0 5.453-1.042 7.538-3.127s3.127-4.597 3.127-7.538zM61.798 25.098v-1.828c0-1.188-0.172-2.205-0.515-3.050s-0.914-1.552-1.712-2.12c-0.798-0.569-1.496-0.991-2.095-1.266s-1.495-0.627-2.69-1.055c-1.121-0.401-1.989-0.742-2.604-1.024s-1.258-0.746-1.93-1.394c-0.672-0.648-1.072-1.393-1.201-2.236h-14.516c-0.857 0-1.286-0.429-1.286-1.286s0.429-1.286 1.286-1.286h15.718c0.839 0 1.547-0.283 2.124-0.849s0.866-1.252 0.866-2.057v-0.171c0-0.801-0.284-1.485-0.852-2.054s-1.253-0.852-2.054-0.852h-28.679c-0.801 0-1.485 0.284-2.054 0.852s-0.852 1.253-0.852 2.054v0.175c0 0.801 0.284 1.485 0.852 2.054s1.253 0.852 2.054 0.852l0.042 0.009 0.042-0.009h4.401c0.857 0 1.286 0.429 1.286 1.286s-0.429 1.286-1.286 1.286h-3.2c-0.129 0.843-0.529 1.588-1.201 2.236s-1.315 1.113-1.93 1.394c-0.615 0.282-1.483 0.624-2.604 1.024-1.194 0.427-2.091 0.779-2.69 1.055s-1.297 0.698-2.095 1.266c-0.797 0.568-1.368 1.275-1.711 2.12s-0.515 1.862-0.515 3.050v0.35l3.375-1.351c0.218-0.087 0.446-0.154 0.684-0.201 0.032-0.006 0.077-0.012 0.136-0.017s0.098-0.009 0.119-0.012c0.216-0.027 0.361-0.040 0.436-0.041l0.048-0.004c0.014 0 0.033 0.002 0.058 0.007s0.044 0.007 0.056 0.007c0.235 0.007 0.473 0.038 0.714 0.093 0.104 0.023 0.176 0.041 0.219 0.053 0.296 0.086 0.557 0.191 0.783 0.316 0.009 0.005 0.021 0.013 0.036 0.024s0.028 0.020 0.037 0.024c0.211 0.123 0.42 0.279 0.629 0.468 0.067 0.060 0.121 0.112 0.162 0.154 0.235 0.24 0.42 0.474 0.557 0.702l1.741 2.901c0.187 0.312 0.46 0.503 0.818 0.573 0.36 0.067 0.684-0.007 0.973-0.222l1.727-1.296c0.752-0.564 1.601-0.812 2.549-0.745s1.753 0.433 2.418 1.097l0.685 0.685c0.261 0.262 0.579 0.38 0.955 0.356 0.374-0.028 0.673-0.191 0.896-0.49l0.526-0.699c0.759-1.014 1.772-1.521 3.040-1.521s2.28 0.507 3.039 1.521c0.289 0.384 0.655 0.576 1.099 0.576 0.43-0.019 0.76-0.211 0.99-0.576l2.485-3.978c0.829-1.323 2.029-1.912 3.601-1.766 1.567 0.157 2.627 0.972 3.18 2.445l0.877 2.34c0.17 0.454 0.496 0.716 0.976 0.784 0.484 0.064 0.869-0.096 1.157-0.48l0.093-0.125c0.965-1.287 2.235-1.769 3.81-1.445 0.482 0.098 0.929 0.285 1.341 0.561l2.665 1.777c0.051 0.035 0.142 0.076 0.273 0.122 0.083 0.026 0.164 0.044 0.244 0.055l0.195 0.027c0.204-0.009 0.387-0.057 0.548-0.144 0.433-0.231 0.649-0.591 0.649-1.083z"></path>
</svg>
