<!-- Generated by IcoMoon.io -->
<svg version="1.1" xmlns="http://www.w3.org/2000/svg" width="72" height="72" viewBox="0 0 72 72">
<title>uniF13B</title>
<path d="M71.734 27.139c0.169 1.039 0.266 2.094 0.266 3.166v11.441c0 14.632-16.194 26.536-36.098 26.536-20.122 0-35.883-11.431-35.883-26.022l-0.019-11.952c0-1.625 0.209-3.213 0.587-4.758 0.019-0.089 0.023-0.179 0.046-0.268 0.021-0.084 0.056-0.163 0.078-0.246 0.146-0.535 0.318-1.064 0.506-1.588 0.114-0.317 0.235-0.629 0.362-0.941 0.108-0.261 0.23-0.518 0.349-0.776 0.267-0.585 0.559-1.158 0.878-1.723 0.021-0.036 0.042-0.072 0.063-0.108 3.189-5.565 8.832-10.095 15.869-12.93 0.225-0.090 0.456-0.174 0.683-0.262 0.695-0.266 1.399-0.519 2.118-0.751 0.386-0.125 0.777-0.245 1.171-0.36 0.544-0.159 1.091-0.309 1.647-0.449 0.487-0.122 0.977-0.238 1.472-0.345 0.354-0.077 0.705-0.156 1.064-0.225 0.703-0.135 1.415-0.251 2.134-0.354 0.356-0.052 0.714-0.099 1.074-0.143 0.734-0.089 1.472-0.165 2.22-0.22 0.35-0.026 0.704-0.041 1.056-0.060 0.607-0.031 1.216-0.051 1.831-0.060 0.232-0.002 0.459-0.022 0.693-0.022 17.211 0 31.932 8.971 35.347 21.182 0.015 0.051 0.027 0.102 0.041 0.153 0.097 0.354 0.184 0.711 0.261 1.071 0.023 0.108 0.045 0.215 0.066 0.323 0.032 0.166 0.072 0.33 0.101 0.498 0.011 0.065 0.010 0.129 0.019 0.194zM67.933 30.409c1.001-0.611 1.514-1.771 1.338-2.973-0.029-0.168-0.057-0.334-0.089-0.5-0.030-0.154-0.059-0.309-0.094-0.462-0.056-0.251-0.119-0.499-0.186-0.746-0.034-0.128-0.066-0.256-0.103-0.382-0.086-0.295-0.181-0.588-0.283-0.879-0.025-0.074-0.048-0.15-0.076-0.225-3.76-10.359-16.92-18.030-32.535-18.030-0.237 0-0.472 0.009-0.708 0.013-0.54 0.009-1.077 0.026-1.613 0.052-0.349 0.017-0.699 0.032-1.045 0.057-0.677 0.048-1.347 0.116-2.014 0.194-0.361 0.042-0.72 0.088-1.076 0.139-0.644 0.091-1.284 0.192-1.915 0.31-0.369 0.069-0.731 0.148-1.094 0.225-0.413 0.088-0.822 0.183-1.229 0.282-0.581 0.143-1.156 0.295-1.722 0.459-0.313 0.091-0.624 0.184-0.932 0.281-0.736 0.232-1.459 0.484-2.166 0.752-0.155 0.058-0.313 0.114-0.467 0.175-5.601 2.208-10.233 5.539-13.311 9.57-0.076 0.099-0.149 0.2-0.223 0.3-0.363 0.492-0.7 0.996-1.017 1.507-0.145 0.237-0.289 0.474-0.425 0.715-0.15 0.264-0.3 0.53-0.437 0.799-0.235 0.466-0.447 0.939-0.643 1.418-0.082 0.199-0.163 0.398-0.237 0.6-0.199 0.536-0.375 1.081-0.524 1.634-0.035 0.128-0.065 0.258-0.097 0.387-0.392 1.858 0.428 3.82 2.099 4.937 1.552 1.038 1.81 4.304 2.026 9.169 0.058 1.316 0.119 2.676 0.233 3.152 0.206 0.852 0.802 1.489 1.554 1.663 0.345 0.081 0.933 0.108 1.557 0.135 2.202 0.099 5.887 0.267 6.79 3.639 0.159 0.592 0.292 1.085 0.36 1.604 0.032 0.246 0.186 0.356 0.251 0.391 0.109 0.062 0.221 0.063 0.34 0.008 0.207-0.096 0.695-0.533 1.088-0.883 1.084-0.967 2.432-2.171 4.033-2.427 0.564-0.089 1.084-0.135 1.564-0.135 1.263 0 2.246 0.313 2.979 0.945 1.438 1.236 1.421 3.282 1.408 4.925-0.007 0.859-0.016 1.929 0.241 2.313 0.415 0.618 1.193 0.803 1.891 0.457 0.077-0.073 0.306-0.498 0.458-0.78 0.569-1.050 1.568-2.803 3.748-2.773 2.799 0.047 3.497 2.045 3.833 3.004 0.053 0.153 0.123 0.35 0.176 0.467 0.807 0.303 1.734 0.055 2.201-0.601 0.384-0.538 0.79-1.372 1.22-2.256 1.207-2.478 2.572-5.286 5.168-5.571 3.188-0.356 4.666 1.639 5.551 2.825 0.2 0.267 0.472 0.632 0.593 0.713 0.127 0.067 0.232 0.034 0.283 0.007 0.083-0.042 0.132-0.118 0.145-0.222 0.21-1.58 0.601-4.52 2.878-5.995 1.457-0.946 3.395-1.084 5.759-0.411 0.135-0.156 0.339-0.509 0.452-0.956 0.202-0.797 0.41-2.005 0.629-3.285 0.858-5.002 1.605-8.628 3.414-9.73zM35.902 65.798c18.536 0 33.615-10.79 33.615-24.053v-9.427c-0.098 0.069-0.189 0.147-0.292 0.21-0.984 0.601-1.846 5.62-2.259 8.032-0.238 1.385-0.444 2.583-0.67 3.476-0.111 0.439-0.565 1.928-1.709 2.576-0.529 0.302-1.11 0.369-1.68 0.199-1.717-0.513-3.022-0.489-3.879 0.065-1.316 0.852-1.596 2.971-1.765 4.237-0.12 0.903-0.668 1.688-1.467 2.1-0.807 0.417-1.775 0.408-2.592-0.025-0.586-0.309-0.988-0.848-1.413-1.418-0.781-1.046-1.526-2.037-3.29-1.841-1.234 0.135-2.328 2.383-3.207 4.19-0.477 0.979-0.927 1.905-1.431 2.612-1.193 1.668-3.457 2.238-5.386 1.363-0.843-0.385-1.127-1.199-1.356-1.851-0.317-0.907-0.462-1.322-1.531-1.341-0.628-0.031-0.921 0.359-1.522 1.471-0.384 0.71-0.781 1.446-1.536 1.822-0.59 0.296-1.213 0.436-1.824 0.436-1.27 0-2.485-0.613-3.236-1.732-0.684-1.020-0.673-2.391-0.662-3.717 0.010-1.188 0.022-2.535-0.544-3.022-0.413-0.356-1.291-0.436-2.533-0.24-0.884 0.143-1.93 1.078-2.772 1.829-0.62 0.552-1.155 1.032-1.697 1.282-0.838 0.389-1.78 0.356-2.583-0.084-0.824-0.454-1.392-1.294-1.516-2.246-0.046-0.356-0.151-0.749-0.263-1.164-0.433-1.616-2.231-1.815-4.537-1.919-0.772-0.035-1.44-0.066-2.006-0.197-1.673-0.386-2.979-1.728-3.408-3.498-0.171-0.708-0.227-1.995-0.3-3.624-0.087-1.95-0.289-6.52-0.968-7.251-0.447-0.297-0.837-0.65-1.199-1.025 0.005 3.302 0.016 10.235 0.016 10.236 0 13.2 14.672 23.539 33.401 23.539zM35.374 20.488c7.658 0 13.655 3.817 13.658 8.69 0 0.863-0.215 1.733-0.628 2.587-0.014 0.035-0.012 0.072-0.029 0.106-1.79 3.588-7.014 5.997-13 5.997s-11.21-2.409-13-5.997c-0.017-0.034-0.015-0.071-0.029-0.106-0.413-0.854-0.628-1.723-0.628-2.587 0-4.872 5.998-8.69 13.655-8.69zM35.374 22.971c-6.055 0-11.172 2.843-11.17 6.207 0 0.16 0.013 0.319 0.038 0.48 0.010-0.005 0.022-0.007 0.032-0.011 0.759-0.292 1.546-0.545 2.349-0.773 0.12-0.035 0.238-0.071 0.36-0.103 0.778-0.21 1.577-0.388 2.388-0.538 0.144-0.026 0.289-0.051 0.436-0.076 0.821-0.139 1.654-0.251 2.5-0.328 0.119-0.011 0.241-0.016 0.36-0.026 0.893-0.071 1.795-0.115 2.707-0.115s1.815 0.045 2.707 0.115c0.12 0.010 0.241 0.015 0.36 0.026 0.847 0.077 1.68 0.189 2.5 0.328 0.145 0.025 0.29 0.050 0.436 0.076 0.812 0.149 1.61 0.328 2.388 0.538 0.122 0.032 0.239 0.068 0.36 0.103 0.803 0.228 1.59 0.482 2.349 0.773 0.010 0.005 0.022 0.007 0.032 0.011 0.026-0.161 0.038-0.32 0.038-0.48 0-3.364-5.117-6.207-11.172-6.207zM25.371 31.886c1.876 2.107 5.737 3.498 10.003 3.498s8.126-1.392 10.003-3.498c-0.042-0.016-0.087-0.029-0.13-0.045-0.643-0.236-1.306-0.444-1.984-0.632-0.108-0.030-0.212-0.062-0.32-0.091-0.694-0.183-1.407-0.334-2.13-0.464-0.144-0.026-0.289-0.052-0.435-0.076-0.729-0.12-1.469-0.216-2.221-0.282-0.123-0.011-0.247-0.017-0.371-0.027-0.796-0.060-1.598-0.099-2.412-0.099s-1.616 0.038-2.412 0.099c-0.123 0.010-0.248 0.016-0.371 0.027-0.752 0.067-1.492 0.163-2.221 0.282-0.145 0.023-0.289 0.050-0.435 0.076-0.724 0.13-1.436 0.282-2.13 0.464-0.108 0.029-0.214 0.061-0.32 0.091-0.678 0.186-1.342 0.396-1.984 0.632-0.043 0.015-0.088 0.029-0.13 0.045z"></path>
</svg>
