<!-- Generated by IcoMoon.io -->
<svg version="1.1" xmlns="http://www.w3.org/2000/svg" width="72" height="72" viewBox="0 0 72 72">
<title>uniF1B7</title>
<path d="M71.417 1.419c0.632 0.462 0.772 1.348 0.308 1.98l-13.698 18.793c0.299 0.139 0.577 0.332 0.796 0.598 0.473 0.571 0.639 1.31 0.489 2 0.704 0.071 1.354 0.458 1.752 1.086 0.398 0.626 0.472 1.378 0.235 2.045 0.69 0.157 1.287 0.622 1.603 1.295 0.316 0.672 0.295 1.427-0.023 2.059 0.364 0.133 0.692 0.356 0.95 0.653 0.079 0.092 0.142 0.194 0.206 0.296h3.33c0.924 0 1.818 0.388 2.45 1.066 0.641 0.685 0.969 1.611 0.907 2.547-0.839 12.397-8.725 18.621-20.306 24.151-1.294 0.618-2.361 1.645-3.007 2.895-0.631 1.22-0.531 2.795 0.261 4.112 0.622 1.035 0.639 2.248 0.060 3.274-0.578 1.026-1.628 1.638-2.806 1.638h-19.116c-1.178 0-2.227-0.611-2.806-1.638-0.58-1.026-0.563-2.239 0.045-3.248 0.806-1.341 0.907-2.917 0.275-4.138-0.646-1.249-1.715-2.276-3.007-2.894-11.583-5.53-19.469-11.755-20.308-24.151-0.062-0.935 0.268-1.864 0.907-2.547 0.634-0.677 1.526-1.066 2.451-1.066h3.454c0.064-0.102 0.126-0.204 0.205-0.296 0.258-0.298 0.585-0.52 0.95-0.653-0.319-0.632-0.34-1.387-0.024-2.059 0.316-0.673 0.913-1.138 1.603-1.295-0.237-0.667-0.163-1.419 0.237-2.045 0.397-0.629 1.047-1.015 1.752-1.086-0.152-0.69 0.016-1.428 0.489-2 0.473-0.573 1.189-0.828 1.874-0.857-0.042-0.476 0.062-0.958 0.309-1.38 0.082-0.142 0.186-0.265 0.293-0.384-1.212-4.606 0.711-9.316 0.823-9.582l0.506-1.203 1.236 0.407c2.391 0.781 4.673 2.779 6.385 4.666 0.224-0.224 0.478-0.421 0.788-0.544 0.693-0.274 1.444-0.205 2.055 0.152 0.285-0.648 0.853-1.145 1.573-1.329 0.723-0.189 1.458-0.023 2.020 0.408 0.364-0.608 0.989-1.030 1.726-1.122 0.738-0.098 1.45 0.159 1.953 0.658 0.875-1.115 2.834-1.115 3.709 0 0.502-0.497 1.209-0.76 1.95-0.658 0.737 0.092 1.365 0.514 1.728 1.122 0.563-0.431 1.302-0.594 2.020-0.408 0.72 0.183 1.288 0.682 1.573 1.329 0.612-0.356 1.363-0.421 2.055-0.152 0.69 0.274 1.192 0.839 1.393 1.518 0.652-0.278 1.407-0.251 2.058 0.106 0.507 0.278 0.873 0.721 1.066 1.233l5.524-15.723c0.259-0.738 1.069-1.132 1.807-0.867 0.738 0.258 1.127 1.067 0.867 1.806l-5.619 15.995c0.336 0.401 0.529 0.897 0.549 1.414 0.672-0.102 1.366 0.096 1.9 0.566l13.288-18.229c0.461-0.634 1.348-0.772 1.98-0.31zM17.492 13.068c-0.459 1.691-0.967 4.64 0.052 7.245 0.184 0.472 0.405 0.907 0.669 1.311 0.011 0.018 0.023 0.035 0.034 0.052 0.271 0.408 0.584 0.785 0.942 1.134 0.004 0.004 0.007 0.009 0.011 0.013l0.055 0.054 0.055 0.052c1.326 1.24 2.846 0.819 3.747 0.085 0.442-0.359 0.839-0.88 1.012-1.498 0.173-0.619 0.122-1.336-0.333-2.085-0.125-0.206-0.286-0.449-0.47-0.711-0.009-0.013-0.020-0.027-0.028-0.040-0.176-0.247-0.368-0.51-0.574-0.775-1.257-1.627-3.196-3.709-5.173-4.837zM67.747 35.224c-0.071-0.077-0.194-0.166-0.38-0.166h-64.004c-0.186 0-0.309 0.089-0.38 0.166-0.061 0.067-0.163 0.21-0.149 0.421 0.75 11.062 7.711 16.536 18.702 21.783 1.845 0.882 3.374 2.355 4.303 4.15 1.081 2.090 0.947 4.725-0.35 6.878-0.112 0.186-0.071 0.327-0.020 0.418s0.152 0.198 0.339 0.198h19.114c0.187 0 0.286-0.109 0.339-0.198s0.092-0.232-0.004-0.393c-1.312-2.177-1.447-4.811-0.366-6.901 0.93-1.796 2.457-3.27 4.304-4.151 10.989-5.248 17.951-10.723 18.7-21.784 0.014-0.213-0.088-0.354-0.149-0.421zM56.26 24.911c-0.067-0.001-0.13-0.017-0.193-0.020l-3.624 4.972c-0.278 0.38-0.709 0.583-1.147 0.583-0.289 0-0.581-0.088-0.833-0.272-0.632-0.461-0.771-1.346-0.31-1.979l3.821-5.242c-0.030-0.17-0.044-0.34-0.035-0.513-0.574 0.062-1.156-0.094-1.643-0.448l-2.19 6.233c-0.204 0.584-0.751 0.948-1.336 0.948-0.156 0-0.315-0.025-0.471-0.081-0.738-0.258-1.127-1.067-0.867-1.806l2.496-7.103c-0.146-0.055-0.286-0.125-0.422-0.211-0.557-0.353-0.925-0.901-1.050-1.515-0.585 0.221-1.246 0.204-1.841-0.074-0.597-0.281-1.030-0.779-1.232-1.373-0.553 0.295-1.212 0.361-1.837 0.156-0.626-0.204-1.12-0.643-1.392-1.206-0.51 0.36-1.155 0.509-1.801 0.385-0.648-0.123-1.192-0.499-1.533-1.023-0.464 0.424-1.086 0.649-1.742 0.609-0.658-0.041-1.244-0.344-1.648-0.822-0.405 0.478-0.992 0.781-1.651 0.822-0.653 0.055-1.277-0.186-1.739-0.609-0.342 0.524-0.886 0.9-1.534 1.023-0.649 0.125-1.292-0.024-1.801-0.385-0.274 0.564-0.767 1.003-1.393 1.207-0.598 0.193-1.22 0.143-1.755-0.116 0.020 0.028 0.033 0.051 0.052 0.079 0.222 0.319 0.405 0.597 0.54 0.816 0.003 0.006 0.009 0.013 0.011 0.019 0.79 1.298 0.988 2.749 0.675 4.103-0.274 1.185-0.936 2.295-1.988 3.15-0.281 0.228-0.574 0.425-0.876 0.595-0.086 0.050-0.179 0.079-0.266 0.123-0.217 0.108-0.434 0.215-0.656 0.295-0.122 0.043-0.245 0.064-0.368 0.098-0.196 0.055-0.39 0.115-0.588 0.148-0.133 0.023-0.266 0.023-0.4 0.035-0.164 0.016-0.33 0.044-0.495 0.044-0.024 0-0.048-0.007-0.072-0.007-0.184-0.003-0.366-0.031-0.549-0.052-0.15-0.017-0.3-0.023-0.449-0.052-0.181-0.038-0.359-0.102-0.537-0.157-0.145-0.045-0.291-0.077-0.432-0.135-0.183-0.075-0.356-0.177-0.531-0.272-0.129-0.069-0.264-0.123-0.388-0.204-0.208-0.135-0.403-0.3-0.598-0.465-0.081-0.068-0.169-0.119-0.247-0.191l-0.055-0.052-0.105-0.098c-0.286-0.278-0.555-0.571-0.805-0.88-0.045 0.059-0.095 0.118-0.148 0.174-0.451 0.481-1.059 0.738-1.685 0.747 0.111 0.617-0.030 1.263-0.418 1.796-0.387 0.534-0.958 0.866-1.577 0.953 0.187 0.598 0.128 1.256-0.19 1.832-0.317 0.58-0.842 0.981-1.446 1.144 0.224 0.492 0.272 1.052 0.125 1.59h48.677c-0.148-0.539-0.099-1.098 0.126-1.59-0.605-0.165-1.13-0.567-1.447-1.144-0.317-0.578-0.376-1.236-0.19-1.832-0.621-0.086-1.19-0.418-1.577-0.953-0.388-0.533-0.529-1.179-0.418-1.796zM34.951 23.305c-0.276 0.276-0.639 0.415-1.002 0.415s-0.726-0.139-1.002-0.415c-0.554-0.554-0.554-1.45 0-2.004l1.417-1.417c0.554-0.554 1.45-0.554 2.004 0s0.554 1.45 0 2.004zM29.282 24.136l1.417 1.417c0.554 0.554 0.554 1.45 0 2.004-0.276 0.276-0.639 0.415-1.002 0.415s-0.726-0.139-1.002-0.415l-1.417-1.417c-0.554-0.554-0.554-1.45 0-2.004s1.45-0.554 2.004 0zM35.781 26.97c0.554-0.554 1.45-0.554 2.004 0s0.554 1.45 0 2.004l-1.417 1.417c-0.276 0.276-0.639 0.415-1.002 0.415s-0.726-0.139-1.002-0.415c-0.554-0.554-0.554-1.45 0-2.004zM42.452 25.138c-0.363 0-0.726-0.139-1.002-0.415l-1.417-1.417c-0.554-0.554-0.554-1.45 0-2.004s1.45-0.554 2.004 0l1.417 1.417c0.554 0.554 0.554 1.45 0 2.004-0.276 0.276-0.639 0.415-1.002 0.415zM42.867 26.97c0.554-0.554 1.451-0.554 2.004 0 0.554 0.554 0.554 1.45 0 2.004l-1.417 1.417c-0.276 0.276-0.639 0.415-1.002 0.415s-0.726-0.139-1.002-0.415c-0.554-0.554-0.554-1.45 0-2.004zM17.357 26.97c0.554-0.554 1.45-0.554 2.004 0s0.554 1.45 0 2.004l-1.417 1.417c-0.276 0.276-0.639 0.415-1.002 0.415s-0.726-0.139-1.002-0.415c-0.554-0.554-0.554-1.45 0-2.004zM25.445 27.972c0.782 0 1.417 0.634 1.417 1.417s-0.635 1.417-1.417 1.417h-1.417c-0.782 0-1.417-0.634-1.417-1.417s0.635-1.417 1.417-1.417h1.417zM30.437 55.046c0.73 0.282 1.094 1.103 0.812 1.831-0.217 0.563-0.754 0.907-1.322 0.907-0.17 0-0.343-0.030-0.51-0.095-5.813-2.242-10.206-4.698-13.825-7.73-0.601-0.502-0.679-1.396-0.177-1.997 0.503-0.599 1.396-0.679 1.997-0.176 3.373 2.825 7.511 5.132 13.026 7.259zM11.719 40.441c0.561 1.3 1.297 2.547 2.185 3.708 0.475 0.621 0.356 1.511-0.265 1.985-0.256 0.197-0.56 0.292-0.86 0.292-0.427 0-0.848-0.191-1.127-0.557-1.029-1.345-1.882-2.793-2.535-4.303-0.31-0.717 0.020-1.552 0.738-1.864 0.717-0.31 1.552 0.020 1.864 0.738z"></path>
</svg>
