<!-- Generated by IcoMoon.io -->
<svg version="1.1" xmlns="http://www.w3.org/2000/svg" width="72" height="72" viewBox="0 0 72 72">
<title>uniF137</title>
<path d="M26.224 42.712c0-0.814 0.407-1.22 1.22-1.22s1.22 0.407 1.22 1.22c0 0.814-0.407 1.22-1.22 1.22s-1.22-0.407-1.22-1.22zM26.224 47.593c0-0.814 0.407-1.22 1.22-1.22s1.22 0.407 1.22 1.22c0 0.814-0.407 1.22-1.22 1.22s-1.22-0.407-1.22-1.22zM43.322 42.712c0-0.814 0.407-1.22 1.22-1.22s1.22 0.407 1.22 1.22c0 0.814-0.407 1.22-1.22 1.22s-1.22-0.407-1.22-1.22zM43.322 47.593c0-0.814 0.407-1.22 1.22-1.22s1.22 0.407 1.22 1.22c0 0.814-0.407 1.22-1.22 1.22s-1.22-0.407-1.22-1.22zM32.326 0c0.814 0 1.22 0.407 1.22 1.22v15.864c0 1.461-0.463 2.751-1.388 3.87s-2.090 1.822-3.493 2.108v12.5c1.063 0.276 1.939 0.85 2.628 1.72s1.033 1.867 1.033 2.988v26.847c0 1.346-0.477 2.496-1.431 3.45s-2.104 1.431-3.45 1.431-2.496-0.477-3.45-1.431-1.431-2.104-1.431-3.45v-26.847c0-1.121 0.344-2.117 1.033-2.988s1.565-1.444 2.628-1.72v-12.5c-1.403-0.286-2.567-0.989-3.493-2.109s-1.388-2.409-1.388-3.87v-15.864c0-0.814 0.407-1.22 1.22-1.22s1.22 0.407 1.22 1.22v15.864c0 1.711 0.814 2.856 2.441 3.437v-19.301c0-0.814 0.407-1.22 1.22-1.22s1.22 0.407 1.22 1.22v19.301c1.627-0.58 2.441-1.726 2.441-3.437v-15.864c0-0.814 0.407-1.22 1.22-1.22zM29.885 40.271c0-0.673-0.238-1.248-0.716-1.725s-1.052-0.716-1.725-0.716c-0.673 0-1.248 0.239-1.725 0.716s-0.716 1.052-0.716 1.725v26.847c0 0.673 0.239 1.248 0.716 1.725s1.052 0.716 1.725 0.716c0.673 0 1.248-0.239 1.725-0.716s0.716-1.052 0.716-1.725v-26.847zM48.119 2.053c0.813 0.817 1.414 1.959 1.805 3.426s0.613 2.808 0.666 4.024c0.053 1.215 0.073 3.074 0.061 5.574l-0.007 2.692c0.001 3.638-0.036 6.323-0.11 8.055s-0.348 3.615-0.822 5.649c-0.474 2.034-1.203 3.688-2.187 4.963 1.266 0.987 1.899 2.266 1.899 3.837v26.847c0 1.346-0.477 2.496-1.431 3.45s-2.104 1.431-3.45 1.431-2.496-0.477-3.45-1.431-1.431-2.104-1.431-3.45v-26.847c0-1.249 0.432-2.344 1.296-3.286-0.050-0.155-0.076-0.28-0.076-0.375v-35.39c0-0.814 0.407-1.22 1.22-1.22 2.651 0 4.656 0.684 6.017 2.053zM46.983 67.119v-26.847c0-0.673-0.239-1.248-0.716-1.725s-1.052-0.716-1.725-0.716c-0.673 0-1.248 0.239-1.725 0.716s-0.716 1.052-0.716 1.725v26.847c0 0.673 0.239 1.248 0.716 1.725s1.052 0.716 1.725 0.716c0.673 0 1.248-0.239 1.725-0.716s0.716-1.052 0.716-1.725zM48.211 15.064c0.011-2.256-0.002-3.928-0.039-5.015s-0.197-2.258-0.479-3.51-0.716-2.174-1.304-2.765c-0.685-0.689-1.707-1.109-3.067-1.261v33.050c0.443-0.116 0.85-0.173 1.22-0.173 0.092 0 0.299 0.021 0.621 0.063 0.96-1.062 1.671-2.535 2.132-4.422s0.728-3.671 0.8-5.353c0.073-1.683 0.109-4.319 0.108-7.909z"></path>
</svg>
