<!-- Generated by IcoMoon.io -->
<svg version="1.1" xmlns="http://www.w3.org/2000/svg" width="72" height="72" viewBox="0 0 72 72">
<title>uniF19C</title>
<path d="M33.6 38.4v3.6h-2.4v-13.2h6c2.647 0 4.8 2.153 4.8 4.8s-2.153 4.8-4.8 4.8h-3.6zM33.6 31.2v4.8h3.6c1.324 0 2.4-1.076 2.4-2.4s-1.076-2.4-2.4-2.4h-3.6zM50.674 59.573c0.757 1.033 1.044 2.287 0.853 3.553 0.040 0.175 0.073 0.362 0.073 0.575v8.299h-31.2v-8.299c0-0.214 0.032-0.4 0.072-0.575-0.19-1.267 0.097-2.521 0.854-3.555 0.337-0.462 0.337-1.082 0-1.544-0.804-1.098-1.099-2.443-0.83-3.787 0.029-0.143 0.082-0.275 0.122-0.412-0.13-0.349-0.218-0.692-0.218-1.028v-0.432c0-2.1 0.466-4.22 1.384-6.299 2.96-6.709 2.957-12.203-0.018-18.964-0.906-2.057-1.366-4.162-1.366-6.256v-1.65c0-0.972 0.442-1.882 1.312-2.712-0.826-1.301-1.312-2.837-1.312-4.488 0-4.631 3.769-8.4 8.4-8.4h3.6v-3.6h7.2v3.6h3.6c4.631 0 8.4 3.769 8.4 8.4 0 1.651-0.486 3.189-1.312 4.488 0.87 0.832 1.312 1.74 1.312 2.712v1.657c0 2.089-0.457 4.189-1.358 6.241-2.98 6.784-2.989 12.277-0.031 18.962 0.922 2.084 1.39 4.208 1.39 6.315v0.424c0 0.337-0.089 0.679-0.218 1.030 0.041 0.138 0.094 0.27 0.122 0.413 0.269 1.343-0.027 2.688-0.83 3.786-0.337 0.462-0.337 1.082 0 1.544zM23.167 63.658c0.453 0.684 1.283 1.142 2.19 1.142h21.286c0.907 0 1.737-0.458 2.191-1.145 0.139-0.223 0.244-0.47 0.304-0.736l0.022-0.096c0.112-0.653-0.032-1.303-0.421-1.834-0.225-0.308-0.395-0.643-0.514-0.99h-11.024c-0.664 0-1.2-0.536-1.2-1.2s0.536-1.2 1.2-1.2h11.023c0.12-0.347 0.288-0.682 0.514-0.99 0.402-0.549 0.548-1.224 0.414-1.901-0.024-0.126-0.064-0.247-0.11-0.365l-0.029-0.067c-0.006-0.012-0.013-0.022-0.018-0.034-0.070-0.16-0.168-0.298-0.268-0.436-0.374-0.484-0.938-0.834-1.582-0.956-0.048-0.007-0.095-0.017-0.143-0.022-0.119-0.016-0.238-0.030-0.36-0.030h-21.283c-0.122 0-0.241 0.014-0.361 0.029-0.049 0.005-0.095 0.014-0.143 0.022-0.643 0.122-1.207 0.473-1.58 0.955-0.101 0.139-0.2 0.28-0.271 0.442-0.004 0.008-0.010 0.017-0.013 0.025l-0.031 0.073c-0.047 0.118-0.085 0.238-0.11 0.362-0.134 0.678 0.012 1.354 0.414 1.902 0.226 0.308 0.395 0.643 0.514 0.99h3.824c0.664 0 1.2 0.536 1.2 1.2s-0.536 1.2-1.2 1.2h-3.823c-0.12 0.347-0.288 0.682-0.514 0.99-0.388 0.53-0.532 1.179-0.421 1.834l0.022 0.097c0.060 0.266 0.164 0.514 0.303 0.737zM34.8 2.4v1.2h2.4v-1.2h-2.4zM28.8 6c-3.308 0-6 2.691-6 6 0 1.562 0.616 2.976 1.597 4.043 0.095 0.104 0.191 0.209 0.293 0.305 0.193 0.182 0.398 0.35 0.613 0.506 0.103 0.074 0.21 0.144 0.317 0.212 0.24 0.151 0.487 0.29 0.748 0.407 0.086 0.040 0.176 0.071 0.265 0.106 0.296 0.116 0.6 0.218 0.917 0.286 0.047 0.009 0.094 0.014 0.14 0.023 0.36 0.068 0.73 0.113 1.11 0.113h14.4c0.38 0 0.75-0.044 1.109-0.11 0.047-0.008 0.095-0.013 0.14-0.023 0.317-0.068 0.62-0.17 0.917-0.286 0.089-0.035 0.179-0.067 0.265-0.106 0.26-0.116 0.508-0.256 0.748-0.407 0.108-0.067 0.214-0.138 0.317-0.212 0.216-0.156 0.42-0.324 0.613-0.506 0.102-0.097 0.197-0.2 0.293-0.305 0.983-1.069 1.598-2.483 1.598-4.045 0-3.308-2.692-6-6-6h-14.4zM23.978 47.038c-0.581 1.316-0.949 2.644-1.1 3.964 0.697-0.386 1.493-0.601 2.322-0.601h21.6c0.829 0 1.625 0.215 2.321 0.6-0.152-1.321-0.522-2.651-1.104-3.968-3.263-7.373-3.254-13.427 0.026-20.898 0.768-1.746 1.157-3.522 1.157-5.276v-1.657c0-0.258-0.168-0.565-0.478-0.887-0.373 0.326-0.775 0.618-1.202 0.876-0.011 0.007-0.023 0.013-0.034 0.020-0.196 0.116-0.396 0.224-0.601 0.325-0.031 0.016-0.064 0.030-0.095 0.046-0.189 0.090-0.38 0.174-0.577 0.25-0.054 0.022-0.109 0.041-0.163 0.060-0.179 0.065-0.359 0.126-0.542 0.179-0.083 0.024-0.167 0.043-0.251 0.065-0.161 0.041-0.322 0.082-0.486 0.113-0.128 0.025-0.259 0.041-0.389 0.060-0.127 0.018-0.252 0.041-0.38 0.053-0.265 0.026-0.533 0.041-0.802 0.041h-14.4c-0.269 0-0.536-0.014-0.8-0.040-0.128-0.012-0.253-0.035-0.38-0.053-0.131-0.019-0.262-0.035-0.39-0.060-0.164-0.031-0.324-0.072-0.485-0.113-0.084-0.022-0.168-0.041-0.251-0.065-0.184-0.053-0.364-0.114-0.542-0.179-0.054-0.020-0.109-0.040-0.163-0.060-0.197-0.077-0.389-0.16-0.577-0.25-0.031-0.016-0.064-0.030-0.095-0.046-0.205-0.101-0.406-0.209-0.601-0.325-0.012-0.006-0.023-0.013-0.035-0.020-0.426-0.257-0.828-0.55-1.201-0.876-0.311 0.32-0.479 0.628-0.479 0.886v1.65c0 1.759 0.39 3.538 1.16 5.288 3.278 7.448 3.283 13.504 0.018 20.899zM49.2 69.6v-3.055c-0.714 0.418-1.537 0.655-2.4 0.655h-21.6c-0.863 0-1.686-0.238-2.4-0.655v3.055h26.4z"></path>
</svg>
