<!-- Generated by IcoMoon.io -->
<svg version="1.1" xmlns="http://www.w3.org/2000/svg" width="72" height="72" viewBox="0 0 72 72">
<title>uniF1C5</title>
<path d="M18.401 62.204c0.676 0 1.225 0.547 1.225 1.225v2.449c0 0.677-0.549 1.225-1.225 1.225s-1.224-0.547-1.224-1.225v-2.449c0-0.677 0.549-1.225 1.224-1.225zM18.401 47.511c-0.676 0-1.224-0.547-1.224-1.225v-2.449c0-0.677 0.549-1.225 1.224-1.225s1.225 0.547 1.225 1.225v2.449c0 0.677-0.549 1.225-1.225 1.225zM15.804 53.992l-0.867-0.866c-0.477-0.477-0.477-1.253 0-1.731 0.479-0.479 1.254-0.479 1.733 0l0.867 0.866c0.478 0.478 0.478 1.253 0 1.731-0.24 0.239-0.553 0.359-0.867 0.359s-0.627-0.12-0.866-0.359zM20.998 55.723l0.866 0.866c0.479 0.479 0.479 1.253 0 1.731-0.239 0.239-0.552 0.359-0.866 0.359s-0.627-0.12-0.866-0.359l-0.866-0.866c-0.479-0.479-0.479-1.253 0-1.731s1.253-0.479 1.731 0zM11.054 54.857c0 0.677-0.549 1.224-1.224 1.224h-2.449c-0.676 0-1.225-0.547-1.225-1.224s0.549-1.225 1.225-1.225h2.449c0.676 0 1.224 0.547 1.224 1.225zM25.748 54.857c0-0.677 0.549-1.225 1.224-1.225h2.449c0.676 0 1.224 0.547 1.224 1.225s-0.549 1.224-1.224 1.224h-2.449c-0.676 0-1.224-0.547-1.224-1.224zM11.475 60.053c0.479-0.479 1.253-0.479 1.731 0s0.479 1.253 0 1.731l-1.731 1.731c-0.239 0.239-0.552 0.359-0.866 0.359s-0.627-0.12-0.866-0.359c-0.479-0.479-0.479-1.253 0-1.731zM24.462 50.021c-0.314 0-0.627-0.12-0.866-0.359-0.479-0.479-0.479-1.253 0-1.731l1.731-1.731c0.479-0.479 1.253-0.479 1.731 0s0.479 1.253 0 1.731l-1.731 1.731c-0.239 0.239-0.552 0.359-0.866 0.359zM11.475 46.198l1.731 1.731c0.479 0.479 0.479 1.253 0 1.731-0.239 0.239-0.552 0.359-0.866 0.359s-0.627-0.12-0.866-0.359l-1.731-1.731c-0.479-0.479-0.479-1.253 0-1.731s1.253-0.479 1.731 0zM25.328 60.053l1.731 1.731c0.479 0.479 0.479 1.253 0 1.731-0.239 0.239-0.552 0.359-0.866 0.359s-0.627-0.12-0.866-0.359l-1.731-1.731c-0.479-0.479-0.479-1.253 0-1.731s1.253-0.479 1.731 0zM20.133 51.395c0.479-0.479 1.253-0.479 1.731 0s0.479 1.253 0 1.731l-0.866 0.866c-0.239 0.239-0.552 0.359-0.866 0.359s-0.627-0.12-0.866-0.359c-0.479-0.479-0.479-1.253 0-1.731zM17.537 55.723c0.478 0.478 0.478 1.254 0 1.731l-0.867 0.866c-0.239 0.239-0.552 0.359-0.866 0.359s-0.628-0.12-0.867-0.359c-0.479-0.479-0.479-1.254 0-1.731l0.867-0.866c0.479-0.479 1.254-0.479 1.733 0zM63.099 4.166c0.479 0.479 0.479 1.255-0.001 1.731l-2.853 2.853c-0.24 0.239-0.553 0.359-0.867 0.359s-0.627-0.12-0.866-0.359c-0.478-0.477-0.478-1.253 0-1.731l2.854-2.853c0.479-0.479 1.254-0.479 1.733 0zM57.168 11.828l-8.099 8.099c-0.239 0.239-0.552 0.359-0.866 0.359s-0.627-0.12-0.866-0.359c-0.479-0.479-0.479-1.253 0-1.731l8.099-8.099c0.479-0.479 1.253-0.479 1.731 0s0.479 1.253 0 1.731zM51.51 20.951c0.478-0.477 1.254-0.477 1.73 0.001 0.479 0.479 0.479 1.254 0 1.731l-2.897 2.897c-0.239 0.239-0.552 0.359-0.866 0.359s-0.627-0.12-0.866-0.359c-0.479-0.479-0.479-1.253 0-1.731zM60.877 11.583c0.478-0.479 1.253-0.479 1.731 0s0.479 1.253 0 1.731l-5.903 5.903c-0.239 0.239-0.552 0.359-0.866 0.359s-0.627-0.12-0.866-0.359c-0.479-0.479-0.479-1.253 0-1.731zM65.088 7.373c0.478-0.477 1.253-0.479 1.731 0s0.479 1.253 0 1.731l-1.456 1.456c-0.239 0.239-0.552 0.359-0.866 0.359s-0.627-0.12-0.866-0.359c-0.479-0.479-0.479-1.253 0-1.731zM70.728 8.104l0.012 0.348-0.17 0.303c-9.512 16.836-22.182 22.427-22.718 22.657l-0.221 0.094-0.24 0.005h-0.072c-1.495 0-2.914-0.803-3.926-1.553l-12.832 12.831c3.077 3.1 4.984 7.365 4.984 12.069 0 9.453-7.69 17.142-17.143 17.142s-17.142-7.69-17.142-17.142 7.69-17.143 17.142-17.143c3.868 0 7.428 1.302 10.299 3.47l12.885-12.886c-2.183-2.41-2.358-4.636-2.368-4.893l-0.012-0.347 0.17-0.302c9.512-16.835 22.182-22.427 22.718-22.658l0.222-0.094 0.241-0.005h0.070c2.639 0 5.086 2.504 5.357 2.792 2.569 2.568 2.734 5.039 2.745 5.312zM18.401 69.551c8.102 0 14.694-6.591 14.694-14.693s-6.591-14.694-14.694-14.694c-8.102 0-14.693 6.591-14.693 14.694s6.591 14.693 14.693 14.693zM47.12 29.052c1.742-0.837 12.752-6.566 21.115-21.146-0.111-0.551-0.487-1.771-1.735-3.125l-0.289-0.3c-0.52-0.54-2.084-1.892-3.384-2.022-1.744 0.838-12.753 6.566-21.115 21.149 0.011 0.051 0.026 0.114 0.042 0.176l2.832-2.832c0.479-0.479 1.253-0.479 1.731 0s0.479 1.253 0 1.731l-3.189 3.189c-0.073 0.073-0.164 0.114-0.25 0.165 0.168 0.225 0.35 0.456 0.568 0.692l0.29 0.302c0.519 0.54 2.083 1.891 3.383 2.020z"></path>
</svg>
