<!-- Generated by IcoMoon.io -->
<svg version="1.1" xmlns="http://www.w3.org/2000/svg" width="72" height="72" viewBox="0 0 72 72">
<title>uniF18C</title>
<path d="M63.089 42.637c1.806 1.823 1.76 6.528 1.707 11.977-0.010 0.882-0.018 1.771-0.018 2.65 0 8.187-3.378 11.108-6.543 11.112v0c-0.237 0.001-0.474 0.002-0.709 0.002-4.042 0-7.866-0.235-11.423-0.681l-0.817 2.514c-0.414 1.274-1.873 1.788-3.75 1.788-1.592 0-3.484-0.369-5.298-0.959-1.934-0.628-3.685-1.481-4.93-2.401-2.044-1.509-2.161-2.787-1.899-3.592l0.529-1.626c-3.711-1.67-6.95-3.779-9.65-6.283l-1.578 1.179c-0.367 0.273-0.784 0.397-1.234 0.397-1.842 0-4.245-2.088-6.092-4.563h-0.001c-2.298-3.080-3.78-6.813-1.911-8.209l2.592-1.935c-0.846-2.697-1.367-5.581-1.551-8.608l-0.622-0.062c-2.323-0.228-2.982-4.189-2.605-8.014 0.182-1.858 0.602-3.597 1.183-4.896 0.972-2.178 2.137-2.533 2.936-2.457l0.794 0.078c1.981-7.356 5.568-14.522 9.734-19.329 0.62-0.715 1.605-0.922 2.446-0.516 0.89 0.431 1.362 1.387 1.177 2.38-1.827 9.792-1.991 24.234 3.272 33.621 0.617-0.134 1.459-0.081 2.619 0.361 1.329 0.508 2.857 1.439 4.301 2.621 2.368 1.939 4.325 4.403 4.28 6.238 3.337 0.578 8.554-0.698 13.629-1.947 1.984-0.488 4.035-0.992 5.997-1.393l0.023 0.076c0.503-0.223 0.994-0.348 1.457-0.348 0.746 0 1.423 0.285 1.956 0.823zM34.217 41.057c-2.337-1.915-4.199-2.569-4.804-2.507l-2.115 2.581c0.057 0.57 1.065 2.3 3.405 4.216 2.341 1.917 4.246 2.56 4.804 2.508l2.115-2.583c-0.058-0.57-1.066-2.3-3.405-4.216zM9.688 27.561c-0.296 3.011 0.216 4.948 0.578 5.39l0.124 0.012 3.197 0.315c0.442-0.362 1.323-2.162 1.619-5.171 0.297-3.010-0.215-4.948-0.578-5.39l-3.321-0.327c-0.442 0.362-1.323 2.161-1.619 5.171zM17.379 56.298l1.155-0.862-0.001-0.001 1.52-1.132c0.083-0.565-0.479-2.488-2.289-4.912-0.1-0.133-0.197-0.246-0.295-0.372-0.13-0.165-0.262-0.34-0.39-0.491-0.069-0.081-0.133-0.148-0.2-0.225-0.161-0.183-0.322-0.367-0.477-0.529-0.030-0.033-0.058-0.057-0.088-0.088-1.225-1.253-2.218-1.816-2.627-1.876l-2.657 1.984c-0.082 0.565 0.481 2.488 2.289 4.913 1.811 2.424 3.494 3.511 4.060 3.592zM36.987 68.744c3.36 1.093 5.568 0.898 6.037 0.616l1.16-3.568c-0.215-0.502-1.888-1.959-5.247-3.051-0.419-0.136-0.821-0.252-1.204-0.351-1.531-0.395-2.755-0.506-3.601-0.482-0.634 0.018-1.055 0.111-1.231 0.217l-1.16 3.568c0.215 0.502 1.888 1.959 5.247 3.051zM46.565 65.334c2.287 0.28 4.695 0.469 7.201 0.559-0.932-1.316-1.642-3.209-1.938-5.801-0.099-0.864-0.152-1.806-0.152-2.831 0-4.273 1.928-8.816 4.29-11.865-0.582 0.142-1.161 0.285-1.736 0.426-5.924 1.459-11.543 2.84-15.429 1.817l-1.518 1.852c-0.074 0.089-0.162 0.176-0.261 0.26-0.029 0.024-0.062 0.046-0.093 0.069-0.078 0.058-0.164 0.112-0.258 0.163-0.041 0.023-0.085 0.044-0.129 0.064-0.107 0.047-0.225 0.086-0.351 0.12-0.042 0.011-0.080 0.024-0.123 0.034-0.175 0.036-0.367 0.058-0.581 0.059-0.007 0-0.013 0.002-0.020 0.002-0.151 0-0.315-0.013-0.487-0.034-0.048-0.007-0.103-0.017-0.153-0.025-0.147-0.023-0.302-0.054-0.465-0.094-0.063-0.015-0.124-0.030-0.189-0.048-0.222-0.062-0.453-0.134-0.703-0.23-1.329-0.507-2.858-1.439-4.3-2.621-0.342-0.279-0.674-0.571-0.994-0.869-0.019-0.018-0.039-0.035-0.058-0.053-0.299-0.281-0.583-0.569-0.855-0.86-0.028-0.030-0.057-0.060-0.085-0.090-0.25-0.272-0.482-0.546-0.7-0.821-0.041-0.052-0.081-0.103-0.121-0.153-0.191-0.248-0.366-0.495-0.525-0.741-0.024-0.036-0.057-0.075-0.080-0.112-0.040-0.063-0.065-0.118-0.101-0.18-0.051-0.086-0.098-0.171-0.145-0.257-0.265-0.483-0.435-0.913-0.526-1.293-0.002-0.010-0.006-0.020-0.009-0.031-0.033-0.139-0.054-0.269-0.068-0.395-0.004-0.033-0.007-0.065-0.010-0.098-0.008-0.116-0.011-0.226-0.005-0.33 0.001-0.044 0.005-0.087 0.010-0.13 0.010-0.095 0.024-0.186 0.045-0.272 0.011-0.047 0.023-0.094 0.037-0.14 0.028-0.087 0.058-0.168 0.094-0.245 0.018-0.039 0.034-0.077 0.054-0.115 0.064-0.118 0.133-0.227 0.209-0.32l1.58-1.928c-6.933-11.854-4.834-29.085-3.927-34.558-3.542 4.426-6.592 10.643-8.375 17.066l0.386 0.039c0.703 0.069 1.608 0.523 2.178 2.191 0.082 0.239 0.156 0.502 0.222 0.792 0.315 1.387 0.388 3.174 0.205 5.031s-0.602 3.597-1.183 4.896c-0.116 0.262-0.235 0.495-0.357 0.706-0.044 0.076-0.088 0.135-0.132 0.205-0.079 0.124-0.156 0.25-0.236 0.356-0.053 0.072-0.107 0.132-0.162 0.196-0.070 0.083-0.14 0.168-0.21 0.239-0.057 0.058-0.115 0.105-0.171 0.156-0.068 0.059-0.135 0.117-0.202 0.167-0.058 0.041-0.114 0.076-0.17 0.111-0.068 0.041-0.134 0.081-0.2 0.113-0.053 0.027-0.106 0.048-0.158 0.069-0.069 0.028-0.135 0.051-0.203 0.070-0.048 0.013-0.094 0.025-0.141 0.035-0.070 0.015-0.136 0.024-0.203 0.030-0.044 0.004-0.086 0.008-0.127 0.010-0.022 0-0.045 0.005-0.065 0.005-0.069 0-0.134-0.004-0.199-0.010l-0.566-0.055c0.199 2.767 0.695 5.402 1.484 7.855 0.024 0.007 0.051 0.020 0.075 0.028 0.158 0.047 0.318 0.106 0.479 0.175 0.115 0.049 0.228 0.105 0.343 0.163 0.069 0.035 0.138 0.072 0.206 0.111 0.414 0.229 0.829 0.516 1.242 0.847 0.072 0.058 0.145 0.117 0.217 0.179 0.114 0.095 0.226 0.191 0.338 0.292 0.134 0.121 0.266 0.246 0.398 0.374 0.092 0.089 0.182 0.179 0.273 0.271 0.154 0.156 0.307 0.316 0.458 0.482 0.059 0.065 0.117 0.13 0.175 0.196 0.142 0.159 0.283 0.322 0.42 0.489 0.050 0.058 0.098 0.116 0.146 0.175 0.178 0.218 0.353 0.442 0.523 0.669 0.412 0.552 0.774 1.112 1.108 1.669 0.572 0.953 1.033 1.892 1.316 2.745 0.118 0.36 0.192 0.677 0.247 0.978 0.016 0.085 0.028 0.166 0.039 0.245 0.033 0.231 0.048 0.444 0.047 0.64 0 0.048 0.005 0.101 0.002 0.149-0.010 0.229-0.042 0.435-0.091 0.618-0.012 0.047-0.028 0.087-0.042 0.13-0.046 0.139-0.099 0.266-0.161 0.379-0.012 0.022-0.018 0.051-0.030 0.071 2.41 2.191 5.28 4.053 8.559 5.555 0.019-0.045 0.047-0.082 0.069-0.126 0.034-0.066 0.066-0.132 0.105-0.193 0.040-0.063 0.086-0.121 0.133-0.179 0.045-0.054 0.087-0.109 0.136-0.159 0.054-0.057 0.115-0.106 0.176-0.157 0.052-0.042 0.104-0.087 0.161-0.127 0.070-0.048 0.147-0.092 0.223-0.135 0.059-0.033 0.116-0.066 0.177-0.097 0.086-0.041 0.179-0.077 0.272-0.112 0.063-0.023 0.122-0.048 0.187-0.070 0.101-0.034 0.21-0.062 0.319-0.088 0.065-0.017 0.127-0.034 0.193-0.048 0.118-0.024 0.243-0.043 0.367-0.062 0.064-0.009 0.127-0.020 0.192-0.028 0.135-0.016 0.277-0.025 0.418-0.034 0.062-0.004 0.121-0.010 0.184-0.012 0.151-0.006 0.308-0.006 0.465-0.005 0.058 0 0.115-0.001 0.174 0 0.166 0.005 0.333 0.014 0.503 0.025 0.057 0.004 0.112 0.005 0.169 0.010 0.176 0.013 0.355 0.034 0.535 0.054 0.054 0.006 0.107 0.011 0.162 0.018 0.186 0.024 0.374 0.053 0.564 0.084 0.051 0.009 0.101 0.016 0.153 0.024 0.192 0.033 0.386 0.071 0.582 0.111 0.049 0.010 0.099 0.018 0.15 0.029 0.197 0.042 0.395 0.089 0.594 0.138 0.048 0.011 0.097 0.022 0.146 0.034 0.197 0.050 0.394 0.104 0.59 0.159 0.052 0.014 0.104 0.027 0.155 0.041 0.246 0.072 0.493 0.147 0.738 0.227 1.934 0.628 3.685 1.481 4.93 2.401 0.232 0.171 0.43 0.338 0.614 0.502 0.035 0.033 0.071 0.064 0.105 0.095 0.17 0.158 0.322 0.314 0.454 0.466 0.020 0.024 0.039 0.047 0.058 0.071 0.117 0.141 0.22 0.279 0.307 0.414 0.012 0.019 0.027 0.039 0.039 0.058 0.089 0.144 0.159 0.281 0.217 0.417 0.013 0.029 0.024 0.057 0.035 0.086 0.051 0.13 0.094 0.258 0.121 0.38zM62.382 54.59c0.039-4.074 0.087-9.146-1.009-10.253-0.090-0.090-0.15-0.107-0.24-0.107-0.704 0-1.876 0.922-3.065 2.421-1.885 2.585-3.975 6.892-3.975 10.614 0 5.364 1.585 8.698 4.135 8.698 2.551 0 4.136-3.334 4.136-8.698 0-0.887 0.009-1.784 0.018-2.674zM42.437 66.095c0.562 0.361 0.723 1.108 0.364 1.669-0.232 0.359-0.619 0.554-1.017 0.554-0.225 0-0.45-0.063-0.652-0.192-1.912-1.233-4.401-1.961-7.395-2.166-0.665-0.046-1.167-0.622-1.123-1.287 0.047-0.666 0.627-1.158 1.287-1.123 3.406 0.234 6.278 1.090 8.536 2.545zM18.842 53.541c0.28 0.606 0.014 1.323-0.593 1.6-0.164 0.076-0.334 0.111-0.503 0.111-0.458 0-0.895-0.261-1.097-0.703-0.95-2.067-2.111-3.808-3.449-5.176-0.465-0.476-0.458-1.24 0.019-1.707 0.476-0.465 1.24-0.458 1.707 0.019 1.532 1.566 2.851 3.536 3.917 5.856zM28.975 40.077c0.516-0.424 1.275-0.35 1.7 0.163 1.291 1.565 2.686 2.849 4.151 3.821 0.555 0.368 0.708 1.118 0.338 1.673-0.232 0.35-0.616 0.54-1.007 0.54-0.23 0-0.461-0.065-0.666-0.202-1.663-1.102-3.237-2.549-4.679-4.296-0.424-0.516-0.351-1.275 0.163-1.7zM11.781 32.467c-0.64-0.192-1.002-0.866-0.81-1.504 0.681-2.264 0.968-4.351 0.851-6.205-0.042-0.665 0.463-1.239 1.13-1.281 0.617-0.031 1.24 0.462 1.281 1.13 0.134 2.139-0.183 4.512-0.948 7.051-0.158 0.523-0.637 0.86-1.157 0.86-0.115 0-0.232-0.017-0.348-0.051z"></path>
</svg>
