<!-- Generated by IcoMoon.io -->
<svg version="1.1" xmlns="http://www.w3.org/2000/svg" width="72" height="72" viewBox="0 0 72 72">
<title>uniF1B5</title>
<path d="M41.284 24.595c5.108 0.61 16.329 3.213 17.11 14.324 0.521 7.393-1.146 11.15-7.13 16.079-0.268 0.221-0.521 0.431-0.779 0.644l-0.001 0.001-0.251 0.207c0 0.001-0.001 0.001-0.001 0.001-6.281 5.216-9.375 8.335-10.065 15.052-0.065 0.622-0.588 1.096-1.214 1.096s-1.15-0.472-1.214-1.095c-0.715-6.956-3.967-9.903-11.258-15.906-5.985-4.929-7.65-8.686-7.13-16.079 0.935-13.288 16.804-14.411 19.289-14.505 0.019-0.002 0.040-0.004 0.060-0.005-1.816-3.543-2.245-9.417-2.264-9.681-0.046-0.672 0.46-1.255 1.132-1.302 0.675-0.043 1.255 0.46 1.302 1.133 0.005 0.062 0.461 6.298 2.261 9.205 0.16 0.259 0.198 0.552 0.154 0.83zM38.936 65.361c1.588-4.15 4.591-7.076 9.116-10.866-2.709-3.657-5.937-5.669-9.179-5.669s-6.465 2.020-9.173 5.673c4.58 3.834 7.626 6.779 9.237 10.861zM49.92 52.938c5.188-4.325 6.496-7.348 6.039-13.846-0.353-5.009-3.28-8.585-8.702-10.627-3.881-1.461-7.747-1.602-8.385-1.616-0.638 0.013-4.504 0.155-8.385 1.616-5.422 2.040-8.35 5.617-8.702 10.627-0.456 6.5 0.852 9.523 6.039 13.847 3.167-4.222 7.046-6.553 11.048-6.553s7.88 2.331 11.048 6.552zM29.361 22.265c-1.126 0.234-2.253 0.349-3.364 0.349-5.814 0-11.232-3.125-14.127-8.4l-2.998-5.463c-0.187-0.339-0.2-0.746-0.039-1.097 0.162-0.351 0.481-0.605 0.859-0.685l6.099-1.275c7.013-1.464 14.044 1.767 17.491 8.051l2.998 5.463c0.187 0.338 0.201 0.746 0.039 1.097s-0.481 0.605-0.859 0.685zM14.009 13.040c2.929 5.334 8.898 8.084 14.853 6.835l4.486-0.938-2.205-4.019c-2.929-5.334-8.893-8.083-14.853-6.835l-4.486 0.939zM62.922 0.358c0.273 0.274 0.4 0.66 0.343 1.042l-0.918 6.164c-1.056 7.088-6.526 12.56-13.615 13.615l-6.164 0.918c-0.060 0.010-0.12 0.013-0.179 0.013-0.321 0-0.632-0.127-0.863-0.358-0.273-0.273-0.4-0.66-0.344-1.042l0.918-6.164c1.056-7.088 6.528-12.56 13.617-13.615l6.164-0.918c0.382-0.059 0.769 0.069 1.042 0.344zM59.933 7.205l0.676-4.534-4.534 0.676c-6.019 0.896-10.666 5.541-11.562 11.56l-0.675 4.534 4.534-0.675c6.019-0.897 10.664-5.543 11.56-11.562z"></path>
</svg>
