<!-- Generated by IcoMoon.io -->
<svg version="1.1" xmlns="http://www.w3.org/2000/svg" width="72" height="72" viewBox="0 0 72 72">
<title>uniF12C</title>
<path d="M23.143 45c0.711 0 1.286 0.575 1.286 1.286s-0.575 1.286-1.286 1.286h-9c-0.711 0-1.286-0.575-1.286-1.286s0.575-1.286 1.286-1.286h9zM23.143 39.857c0.711 0 1.286 0.575 1.286 1.286s-0.575 1.286-1.286 1.286h-6.429c-0.711 0-1.286-0.575-1.286-1.286s0.575-1.286 1.286-1.286h6.429zM23.143 34.714c0.711 0 1.286 0.575 1.286 1.286s-0.575 1.286-1.286 1.286h-9c-0.711 0-1.286-0.575-1.286-1.286s0.575-1.286 1.286-1.286h9zM23.143 29.571c0.711 0 1.286 0.575 1.286 1.286s-0.575 1.286-1.286 1.286h-6.429c-0.711 0-1.286-0.575-1.286-1.286s0.575-1.286 1.286-1.286h6.429zM71.996 35.376l0.004 0.624c0 1.142-0.501 2.218-1.376 2.953-0.699 0.589-1.58 0.904-2.486 0.904-0.225 0-0.451-0.019-0.678-0.059-1.806-0.315-3.171-1.966-3.174-3.843-0.001-0.364-0.012-0.724-0.035-1.077-0.444-7.062-5.857-12.772-12.823-14.039v1.957c7.507 5.513 12.857 16.498 12.857 26.704 0 7.602-3.008 13.869-8.718 18.282-0.095 0.073-0.192 0.145-0.288 0.219-0.568 0.427-1.153 0.842-1.774 1.232-0.204 0.129-0.442 0.197-0.684 0.197h-41.356c-0.242 0-0.48-0.068-0.685-0.195-0.566-0.356-1.102-0.733-1.624-1.119-0.156-0.114-0.306-0.23-0.458-0.347-0.409-0.316-0.804-0.641-1.184-0.977-0.107-0.095-0.22-0.185-0.325-0.28-0.435-0.397-0.845-0.81-1.241-1.232-0.156-0.165-0.303-0.333-0.453-0.501-0.28-0.318-0.55-0.643-0.81-0.973-0.118-0.152-0.244-0.3-0.359-0.455-0.343-0.463-0.665-0.94-0.968-1.427-0.090-0.145-0.174-0.294-0.261-0.442-0.255-0.432-0.494-0.872-0.717-1.32-0.053-0.108-0.109-0.212-0.161-0.32-0.276-0.58-0.527-1.174-0.752-1.782-0.017-0.044-0.031-0.090-0.046-0.134-0.216-0.594-0.405-1.202-0.572-1.822-0.010-0.040-0.026-0.076-0.036-0.116-0.003-0.009 0-0.017-0.003-0.026-0.531-2.026-0.81-4.181-0.81-6.459 0-10.205 5.35-21.191 12.857-26.704v-5.549l-7.338-7.338c-0.35-0.347-0.467-0.865-0.305-1.331 0.161-0.465 0.575-0.797 1.063-0.855l43.714-5.143c0.366-0.044 0.73 0.072 1.004 0.316 0.275 0.243 0.432 0.594 0.432 0.96v5.615c0 0.845-0.243 1.628-0.636 2.312 11.773 1.489 21.036 11.489 21.204 23.593zM48.857 5.304l-39.644 4.663 5.462 5.462h25.251c0.005-0.024 0.014-0.046 0.019-0.071 0.019-0.097 0.053-0.188 0.077-0.283 0.049-0.189 0.101-0.374 0.172-0.553 0.042-0.105 0.095-0.203 0.144-0.305 0.077-0.157 0.157-0.311 0.249-0.458 0.063-0.1 0.131-0.194 0.202-0.288 0.1-0.135 0.206-0.265 0.32-0.388 0.081-0.087 0.163-0.171 0.251-0.252 0.123-0.115 0.253-0.22 0.388-0.32 0.094-0.071 0.186-0.141 0.287-0.204 0.147-0.094 0.301-0.172 0.458-0.249 0.102-0.049 0.199-0.103 0.305-0.145 0.18-0.072 0.368-0.123 0.557-0.174 0.094-0.024 0.183-0.058 0.279-0.077 0.289-0.057 0.588-0.090 0.894-0.090h2.229c1.159 0 2.1-0.941 2.1-2.1v-4.168zM11.84 66.857v0.003h40.604c0.478-0.31 0.928-0.638 1.371-0.972 0.156-0.118 0.309-0.239 0.46-0.36 0.287-0.23 0.563-0.467 0.835-0.707 0.24-0.213 0.476-0.431 0.703-0.653 0.24-0.235 0.477-0.472 0.703-0.715 0.207-0.222 0.405-0.451 0.599-0.683 0.123-0.147 0.243-0.297 0.363-0.446 0.449-0.564 0.868-1.147 1.246-1.754 0.003-0.004 0.006-0.009 0.009-0.013 0.159-0.256 0.306-0.521 0.453-0.784 0.111-0.198 0.217-0.397 0.32-0.599 0.12-0.235 0.239-0.471 0.35-0.711 0.195-0.429 0.381-0.865 0.545-1.313 0.049-0.133 0.090-0.269 0.136-0.403 0.147-0.426 0.283-0.856 0.401-1.296 0.017-0.062 0.033-0.122 0.050-0.184-1.587-0.74-3.54-0.477-4.823 0.732-2.611 2.464-6.866 2.464-9.477 0-1.642-1.547-4.31-1.547-5.952 0-2.611 2.464-6.866 2.464-9.477 0-1.642-1.547-4.31-1.547-5.952 0-2.611 2.464-6.866 2.464-9.477 0-1.642-1.547-4.31-1.547-5.952 0-1.547 1.459-3.695 2.071-5.745 1.777 0.068 0.163 0.131 0.329 0.203 0.49 0.034 0.075 0.067 0.147 0.1 0.22 0.828 1.797 1.929 3.443 3.29 4.922 0.055 0.059 0.109 0.121 0.166 0.18 0.221 0.234 0.451 0.463 0.685 0.688 0.117 0.112 0.235 0.222 0.355 0.332 0.204 0.188 0.411 0.372 0.625 0.553 0.186 0.157 0.379 0.31 0.572 0.462 0.171 0.135 0.339 0.271 0.516 0.402 0.386 0.286 0.78 0.566 1.193 0.833zM61.714 49.5c0-9.719-5.197-20.188-12.405-25.071h-34.335c-7.206 4.883-12.403 15.351-12.403 25.071 0 1.86 0.202 3.63 0.598 5.301 1.617 0.814 3.627 0.571 4.947-0.672 2.614-2.463 6.867-2.463 9.478 0 1.642 1.547 4.31 1.547 5.952 0 2.611-2.463 6.866-2.463 9.477 0 1.642 1.547 4.31 1.547 5.952 0 2.611-2.463 6.866-2.463 9.477 0 1.642 1.547 4.31 1.547 5.952 0 1.891-1.783 4.684-2.26 7.088-1.403 0.141-1.043 0.222-2.116 0.222-3.226zM48.857 21.857v-1.269c-0.117-0.002-0.23-0.017-0.347-0.017h-8.653v-2.571h-24.429v3.857h33.429zM68.97 36.985c0.292-0.246 0.459-0.604 0.459-0.985l-0.004-0.59c-0.163-11.726-9.881-21.267-21.66-21.267h-3.236c-1.158 0-2.1 0.942-2.1 2.1v1.758h7.030c0.168 0 0.329 0.028 0.485 0.069 9.026 0.684 16.316 7.742 16.874 16.649 0.024 0.404 0.039 0.814 0.040 1.232 0.001 0.636 0.46 1.214 1.045 1.315 0.391 0.068 0.773-0.031 1.067-0.28z"></path>
</svg>
