<!-- Generated by IcoMoon.io -->
<svg version="1.1" xmlns="http://www.w3.org/2000/svg" width="72" height="72" viewBox="0 0 72 72">
<title>uniF1CC</title>
<path d="M68.892 19.595c3.264 8.042 3.973 16.504 2.048 24.468-2.739 11.335-9.659 19.37-20.565 23.882-7.486 3.098-15.024 3.71-19.812 3.71-1.918 0-3.396-0.099-4.252-0.175l-0.406-0.036c-2.566-0.226-5.219-0.461-7.78-1.309-11.858-3.92-16.478-13.715-16.668-14.13l-0.050-0.125c-2.666-7.668-1.049-11.952 0.778-14.196 2.387-2.928 6.429-4.109 11.697-3.419 3.303 0.425 6.476-0.84 8.481-3.409 2.002-2.564 2.466-5.941 1.243-9.034-3.942-9.97-0.77-17.895 8.929-22.316 7.757-3.535 14.751-4.112 20.787-1.709 8.228 3.274 13.008 11.484 15.571 17.796zM68.24 43.41c1.788-7.397 1.124-15.269-1.923-22.771-2.36-5.811-6.707-13.348-14.023-16.26-5.304-2.11-11.565-1.553-18.607 1.656-8.388 3.823-10.91 10.137-7.499 18.767 1.588 4.017 0.978 8.415-1.635 11.765-2.616 3.353-6.733 5.022-11.035 4.454-4.258-0.557-7.432 0.276-9.178 2.418-1.941 2.385-2.059 6.45-0.333 11.455 0.369 0.75 4.745 9.215 14.993 12.604 2.256 0.746 4.634 0.957 7.153 1.179l0.407 0.036c2.838 0.251 12.855 0.76 22.754-3.334 10.041-4.154 16.409-11.545 18.927-21.969zM46.48 26.099c-3.83 0-6.946-3.116-6.946-6.946s3.116-6.946 6.946-6.946 6.946 3.116 6.946 6.946-3.116 6.946-6.946 6.946zM46.48 14.986c-2.298 0-4.167 1.87-4.167 4.167s1.87 4.167 4.167 4.167 4.167-1.87 4.167-4.167c0-2.298-1.87-4.167-4.167-4.167zM66.379 33.681c0.010 0.085 0.019 0.167 0.011 0.254 0.11 2.987-0.156 5.952-0.853 8.838-1.696 7.021-8.475 23.347-34.716 23.347-1.317 0-2.581-0.053-3.759-0.158l-0.393-0.035c-2.325-0.206-4.524-0.4-6.537-1.066-8.857-2.93-12.765-9.825-13.458-11.178l-0.081-0.19c-1.367-4.052-1.379-7.326-0.036-9.217 1.267-1.785 4.013-2.511 7.674-2.023 4.915 0.649 9.667-1.464 12.413-5.502 2.425-3.563 2.892-7.95 1.279-12.031-4.43-11.205 3.76-14.939 6.453-16.167 13.447-6.122 23.351-1.604 29.383 13.245 1.584 3.902 2.444 7.91 2.62 11.883zM35.53 11.081c-4.194 1.912-8.069 4.906-5.023 12.618 1.286 3.253 1.459 6.664 0.604 9.854 1.056 1.34 4.904 5.129 13.212 2.486 1.839-0.947 12.859-6.405 19.081-4.649-0.351-2.864-1.077-5.734-2.218-8.547-3.821-9.407-9.213-14.179-16.024-14.179-2.873 0-6.114 0.813-9.632 2.417zM28.944 38.314c-1.171 1.721-2.655 3.137-4.329 4.24 0.697 1.375 2.271 3.821 5.083 5 2.907 1.218 6.483 0.831 10.624-1.156 12.109-5.808 19.446-4.954 22.472-4.102 0.014-0.057 0.031-0.118 0.044-0.174 0.6-2.488 0.856-5.045 0.799-7.625-3.184-2.248-12.666 1.214-18.138 4.065-0.069 0.036-0.14 0.065-0.214 0.089-2.367 0.764-4.455 1.072-6.28 1.072-4.449 0-7.34-1.824-8.964-3.312-0.322 0.65-0.679 1.289-1.097 1.903zM27.312 63.193c1.094 0.097 2.277 0.147 3.51 0.149 1.235 0 2.41-0.047 3.553-0.121-0.087-2.024-2.020-3.802-4.879-5.773-3.994-2.757-6.692-7.108-7.4-11.94-0.081-0.551-0.168-1.063-0.251-1.514-2.471 0.989-5.198 1.379-7.976 1.013-2.491-0.329-4.441 0.026-5.045 0.878-0.604 0.853-0.821 3.035 0.369 6.619 0.557 1.053 4.079 7.161 11.812 9.72 1.707 0.564 3.749 0.745 5.912 0.935zM37.154 62.972c16.346-1.997 22.519-11.656 24.828-18.013-2.431-0.663-9.081-1.514-20.456 3.942-4.905 2.353-9.256 2.756-12.936 1.199-1.113-0.471-2.070-1.084-2.887-1.757 1.067 2.741 2.931 5.133 5.372 6.816 2.138 1.475 5.855 4.048 6.079 7.812z"></path>
</svg>
