<!-- Generated by IcoMoon.io -->
<svg version="1.1" xmlns="http://www.w3.org/2000/svg" width="72" height="72" viewBox="0 0 72 72">
<title>uniF10D</title>
<path d="M72 22.759v0c0 0.001 0 0.001 0.001 0v0.203c0 19.85-16.15 36-36 36-19.851 0-36.001-16.15-36.001-36v-0.203c0-5.584 13.867-8.838 29.317-9.565 2.208-0.105 4.448-0.156 6.684-0.156s4.475 0.053 6.682 0.156c15.451 0.726 29.316 3.98 29.316 9.565zM69.28 22.76c-0.001-2.856-12.964-7.002-33.279-7.002s-33.28 4.146-33.282 7.002c0.003 2.854 12.965 7.002 33.28 7.002s33.279-4.146 33.28-7.002zM36.001 56.242c17.027 0 31.1-12.856 33.042-29.372-5.846 3.696-19.503 5.611-33.042 5.611s-27.197-1.913-33.044-5.611c1.94 16.514 16.015 29.372 33.044 29.372z"></path>
</svg>
