<!-- Generated by IcoMoon.io -->
<svg version="1.1" xmlns="http://www.w3.org/2000/svg" width="72" height="72" viewBox="0 0 72 72">
<title>uniF14F</title>
<path d="M66.821 5.649l-2.131 25.57c-0.003 0.086-0.012 0.171-0.022 0.257l-2.961 35.523c0.007 1.666-1.562 2.923-9.578 3.981-4.831 0.638-10.862 1.020-16.13 1.020s-11.299-0.382-16.13-1.020c-8.016-1.058-9.585-2.313-9.585-4.123l-0.643-7.723c-0.002-0.010-0.007-0.021-0.009-0.033l-2.294-27.519c-0.002-0.007 0-0.014 0-0.021l-2.162-25.913c-0.007-0.043-0.005-0.089-0.010-0.134-0.015-0.122-0.026-0.245-0.026-0.372 0-1.865 1.644-3.137 10.049-4.126 5.57-0.655 12.958-1.017 20.808-1.017s15.238 0.362 20.808 1.017c8.405 0.989 10.049 2.261 10.049 4.126 0 0.129-0.010 0.254-0.027 0.377-0.003 0.043-0.002 0.087-0.009 0.129zM11.477 39.936l1.478 17.724c4.521 1.209 14.371 2.146 23.045 2.146s18.525-0.938 23.045-2.146l1.966-23.594c-1.66 0.444-4.070 0.845-7.534 1.188-0.207 0.3-0.442 0.585-0.72 0.843l-5.88 5.494c-0.691 0.644-1.529 1.070-2.434 1.26l0.823 0.881c0.936 1.001 1.425 2.309 1.378 3.684-0.048 1.377-0.624 2.65-1.625 3.585l-5.88 5.494c-0.989 0.924-2.249 1.383-3.507 1.383-1.375 0-2.748-0.547-3.759-1.63l-5.494-5.88c-0.811-0.868-1.262-1.97-1.344-3.142-0.015 0-0.029 0.003-0.045 0.003-0.060 0-0.12-0.002-0.18-0.003-1.375-0.046-2.649-0.624-3.583-1.625l-5.494-5.88c-1.287-1.378-1.651-3.278-1.152-4.968-0.159-0.024-0.309-0.050-0.463-0.074-0.072-0.012-0.144-0.024-0.214-0.036-1.156-0.189-2.121-0.389-2.918-0.603zM63.137 8.585c-3.996 1.145-11.94 1.701-27.137 1.701-15.196 0-23.141-0.555-27.135-1.701l1.635 19.663c2.146-0.645 5.762-1.234 11.84-1.654 1.666-1.226 3.876-1.31 5.618-0.29 2.657-0.099 5.402-0.154 8.181-0.154l0.411 0.002 3.693-3.449c2.071-1.937 5.331-1.824 7.269 0.247l3.485 3.73c5.242 0.406 8.503 0.929 10.507 1.529zM15.933 31.481c0.298 0.041 0.609 0.082 0.939 0.122 0.003 0 0.009 0.002 0.014 0.002l0.449-0.417 0.855-0.801c-2.050 0.218-3.631 0.454-4.819 0.682 0.662 0.129 1.467 0.262 2.441 0.396 0.039 0.005 0.081 0.010 0.12 0.016zM24.201 29.465l-2.765 2.582c2.326 0.182 4.978 0.327 7.917 0.418l-2.727-2.919c-0.338-0.36-0.794-0.542-1.253-0.542-0.42 0-0.84 0.153-1.171 0.461zM38.393 29.121l-1.69 1.579c-0.504 0.471-0.651 1.178-0.446 1.795 0.005 0.014 0.002 0.029 0.007 0.043 0.005 0.012 0.016 0.021 0.021 0.033 5.827-0.003 10.721-0.214 14.62-0.523-0.010-0.057-0.012-0.113-0.027-0.168-0.019-0.070-0.041-0.141-0.069-0.209-0.076-0.178-0.168-0.353-0.309-0.502l-5.494-5.882c-0.336-0.36-0.792-0.542-1.251-0.542-0.42 0-0.84 0.153-1.171 0.461l-4.19 3.916zM54.002 30.393c0.007 0.015 0.007 0.033 0.014 0.046 0.159 0.405 0.266 0.821 0.319 1.246 0 0.010 0.005 0.019 0.007 0.029 1.91-0.213 3.333-0.435 4.385-0.641-1.162-0.225-2.712-0.463-4.725-0.681zM33.242 29.745c0.024-0.050 0.038-0.101 0.062-0.151-0.639 0.007-1.279 0.019-1.913 0.033l1.411 1.51c0.009-0.060 0.029-0.117 0.041-0.175 0.024-0.12 0.053-0.238 0.086-0.356 0.050-0.183 0.112-0.365 0.182-0.543 0.043-0.106 0.082-0.213 0.132-0.317zM18.148 35.198c-0.489 0.653-0.485 1.567 0.089 2.184l5.494 5.88c0.31 0.331 0.734 0.523 1.195 0.538 0.463 0.009 0.896-0.148 1.227-0.458l5.882-5.493c0.53-0.497 0.665-1.25 0.411-1.887-3.674-0.067-9.319-0.255-14.299-0.765zM28.965 45.605c-0.689 0.644-0.725 1.73-0.081 2.422l5.494 5.88c0.31 0.331 0.734 0.523 1.195 0.538 0.453 0.019 0.895-0.146 1.227-0.456l5.88-5.494c0.691-0.646 0.727-1.733 0.082-2.424l-5.494-5.88c-0.31-0.331-0.734-0.521-1.195-0.538h-0.062c-0.437 0-0.85 0.161-1.167 0.458zM42.115 39.003c0.643 0.689 1.731 0.727 2.422 0.082l3.677-3.435c-3.399 0.197-6.628 0.283-8.933 0.321zM36 3.429c-12.026 0-20.907 0.842-25.145 1.714 4.238 0.873 13.119 1.714 25.145 1.714s20.907-0.842 25.145-1.714c-4.238-0.873-13.119-1.714-25.145-1.714zM36 68.571c9.72 0 20.098-1.296 22.342-2.393l0.41-4.929c-5.614 1.251-15.321 1.982-22.752 1.982-7.43 0-17.133-0.729-22.747-1.98l0.411 4.929c2.256 1.099 12.624 2.391 22.335 2.391z"></path>
</svg>
