<!-- Generated by IcoMoon.io -->
<svg version="1.1" xmlns="http://www.w3.org/2000/svg" width="72" height="72" viewBox="0 0 72 72">
<title>uniF1C0</title>
<path d="M72 38.42c0 2.377-2.443 4.301-6.063 5.075-0.126 5.563-4.682 10.051-10.274 10.051h-39.933c-5.641 0-10.234-4.567-10.281-10.197-3.278-0.853-5.45-2.69-5.45-4.929 0-2.167 2.112-4.023 5.445-4.903v-4.172c0-0.081 0.006-0.161 0.016-0.239l-0.001-0.029c-0.007-0.111-0.015-0.223-0.015-0.336 0-5.672 4.614-10.286 10.286-10.286 2.438 0 4.804 0.883 6.656 2.457 1.851-1.573 4.217-2.457 6.655-2.457 0.108 0 0.213 0.011 0.322 0.021 0.096-0.002 0.189-0.015 0.286-0.015 0.062 0 0.115 0.027 0.174 0.035 2.159 0.167 4.223 1.017 5.876 2.421 0.002-0.002 0.006-0.005 0.008-0.007 0.199-0.168 0.407-0.325 0.617-0.479 0.039-0.029 0.076-0.059 0.116-0.087 0.208-0.146 0.423-0.282 0.643-0.414 0.045-0.027 0.090-0.056 0.136-0.082 0.215-0.125 0.436-0.239 0.661-0.348 0.054-0.027 0.109-0.054 0.165-0.080 0.218-0.102 0.439-0.194 0.664-0.279 0.070-0.028 0.142-0.053 0.213-0.079 0.212-0.075 0.426-0.145 0.645-0.207 0.099-0.028 0.2-0.052 0.3-0.077 0.196-0.050 0.391-0.097 0.59-0.134 0.151-0.029 0.305-0.048 0.457-0.070 0.156-0.023 0.311-0.050 0.47-0.064 0.322-0.031 0.645-0.050 0.969-0.050 2.438 0 4.804 0.883 6.655 2.456 0.002-0.002 0.006-0.005 0.009-0.007 0.198-0.168 0.407-0.325 0.617-0.479 0.039-0.029 0.076-0.059 0.116-0.087 0.208-0.147 0.423-0.282 0.643-0.414 0.045-0.027 0.090-0.056 0.135-0.082 0.215-0.125 0.436-0.24 0.661-0.349 0.054-0.027 0.109-0.054 0.165-0.080 0.218-0.102 0.439-0.194 0.664-0.28 0.070-0.028 0.141-0.053 0.213-0.079 0.212-0.075 0.426-0.145 0.645-0.207 0.099-0.028 0.2-0.052 0.3-0.077 0.196-0.050 0.391-0.097 0.59-0.134 0.151-0.029 0.305-0.048 0.457-0.070 0.156-0.023 0.311-0.050 0.47-0.064 0.322-0.031 0.645-0.050 0.969-0.050 5.672 0 10.286 4.614 10.286 10.286 0 0.113-0.007 0.224-0.015 0.336l-0.001 0.030c0.010 0.084 0.016 0.16 0.016 0.237v4.025c3.7 0.8 6.050 2.712 6.050 5.051zM7.866 28.74l0.023 0.431-0.023 0.209v4.771l0.009 0.080c0.002 0.057 0.023 0.108 0.033 0.162 0.022 0.119 0.052 0.234 0.104 0.336 0.014 0.028 0.036 0.052 0.053 0.079 0.058 0.097 0.123 0.189 0.204 0.264 0.042 0.039 0.095 0.063 0.142 0.096 0.071 0.050 0.139 0.104 0.22 0.137 0.138 0.054 0.288 0.090 0.445 0.090h53.246c0.158 0 0.31-0.035 0.449-0.091 0.121-0.050 0.229-0.125 0.327-0.211 0.012-0.011 0.027-0.016 0.039-0.027 0.105-0.099 0.192-0.218 0.258-0.35 0.001-0.001 0.002-0.002 0.004-0.005 0.058-0.12 0.090-0.254 0.105-0.392 0.002-0.025 0.013-0.048 0.015-0.074l0.017-0.169v-5.339c0-4.337-3.529-7.866-7.866-7.866-0.271 0-0.54 0.015-0.806 0.041-0.243 0.025-0.483 0.063-0.72 0.11-0.019 0.005-0.039 0.006-0.058 0.010-0.229 0.047-0.451 0.106-0.672 0.173-0.029 0.009-0.058 0.015-0.086 0.023-0.189 0.059-0.371 0.131-0.554 0.203-0.060 0.024-0.123 0.044-0.183 0.069-0.144 0.062-0.282 0.134-0.421 0.203-0.098 0.050-0.198 0.096-0.295 0.149-0.099 0.054-0.194 0.117-0.289 0.175-0.137 0.084-0.273 0.166-0.405 0.259-0.058 0.040-0.114 0.085-0.171 0.127-0.166 0.123-0.33 0.251-0.488 0.388-0.028 0.024-0.053 0.050-0.081 0.074-0.179 0.161-0.353 0.329-0.52 0.508-1.31 1.406-2.119 3.285-2.119 5.353 0 0.669-0.541 1.21-1.21 1.21s-1.21-0.541-1.21-1.21c0-2.259 0.742-4.345 1.982-6.044-1.406-1.177-3.147-1.821-5.007-1.821-0.271 0-0.54 0.014-0.806 0.041-0.243 0.025-0.483 0.063-0.72 0.11-0.019 0.005-0.039 0.006-0.058 0.010-0.229 0.047-0.451 0.106-0.672 0.173-0.029 0.008-0.058 0.014-0.086 0.023-0.189 0.059-0.371 0.131-0.554 0.203-0.060 0.024-0.123 0.044-0.183 0.069-0.144 0.062-0.282 0.134-0.421 0.203-0.098 0.050-0.198 0.096-0.295 0.149-0.099 0.054-0.194 0.117-0.289 0.175-0.137 0.084-0.273 0.166-0.405 0.259-0.058 0.040-0.114 0.085-0.171 0.127-0.166 0.123-0.33 0.251-0.488 0.388-0.028 0.024-0.053 0.050-0.081 0.074-0.179 0.161-0.353 0.329-0.52 0.508-1.311 1.406-2.119 3.285-2.119 5.354 0 0.669-0.541 1.21-1.21 1.21s-1.21-0.541-1.21-1.21c0-2.259 0.742-4.346 1.982-6.044-1.33-1.112-2.96-1.74-4.706-1.805-4.195 0.161-7.562 3.616-7.562 7.85 0 0.669-0.541 1.21-1.21 1.21s-1.21-0.541-1.21-1.21c0-2.115 0.643-4.083 1.743-5.719-1.464-1.383-3.348-2.147-5.373-2.147-4.337 0-7.866 3.529-7.866 7.866zM57.967 38.875c0.071-0.156 0.117-0.309 0.117-0.455 0-0.138-0.045-0.282-0.111-0.428-0.013-0.029-0.027-0.058-0.042-0.088-0.016-0.028-0.047-0.059-0.065-0.088h-10.729c0.037 0.2 0.057 0.401 0.057 0.605 0 0.203-0.021 0.403-0.053 0.597-0.004 0.016-0.008 0.030-0.012 0.046-0.035 0.186-0.086 0.369-0.152 0.548-0.001 0.002-0.002 0.006-0.004 0.008-0.144 0.387-0.359 0.755-0.634 1.104 0.044 0.016 0.088 0.031 0.133 0.047 0.242 0.082 0.493 0.157 0.752 0.225 0.058 0.016 0.113 0.033 0.172 0.047 0.318 0.079 0.649 0.145 0.987 0.201 0.077 0.013 0.157 0.022 0.235 0.034 0.274 0.041 0.551 0.074 0.833 0.099 0.098 0.010 0.195 0.018 0.293 0.025 0.357 0.025 0.719 0.042 1.084 0.042 0.522 0 1.014-0.029 1.487-0.072 0.456-0.044 0.901-0.107 1.331-0.19 0.004 0 0.006-0.001 0.010-0.001 0.888-0.173 1.709-0.428 2.418-0.757 0.133-0.063 0.259-0.127 0.381-0.194 0.061-0.033 0.119-0.066 0.177-0.1 0.194-0.113 0.37-0.23 0.529-0.35 0.101-0.076 0.195-0.154 0.28-0.232 0.080-0.073 0.152-0.147 0.218-0.22 0.115-0.133 0.221-0.266 0.289-0.397 0.010-0.018 0.013-0.036 0.022-0.054zM36.151 41.379c0.447 0.039 0.899 0.067 1.361 0.067 0.479 0 0.928-0.029 1.368-0.067 0.123-0.011 0.249-0.018 0.37-0.031 0.334-0.037 0.645-0.090 0.952-0.145 0.22-0.040 0.438-0.084 0.65-0.133 0.044-0.010 0.082-0.022 0.125-0.033 0.439-0.11 0.856-0.238 1.243-0.387 0.064-0.024 0.128-0.050 0.19-0.075 0.408-0.167 0.783-0.352 1.11-0.56 0.149-0.094 0.275-0.195 0.399-0.294 0.068-0.054 0.137-0.109 0.196-0.163 0.092-0.084 0.173-0.168 0.247-0.254 0.071-0.084 0.13-0.166 0.182-0.248 0.041-0.064 0.087-0.129 0.116-0.192 0.068-0.151 0.114-0.3 0.114-0.442 0-0.145-0.044-0.3-0.127-0.461-0.001-0.002-0.002-0.005-0.004-0.007-0.023-0.044-0.074-0.092-0.103-0.137h-11.925c0.039 0.201 0.058 0.402 0.058 0.605 0 0.179-0.017 0.356-0.046 0.531-0.012 0.080-0.035 0.157-0.053 0.236-0.022 0.090-0.040 0.18-0.069 0.269-0.033 0.105-0.075 0.208-0.119 0.31-0.024 0.054-0.046 0.111-0.073 0.166-0.060 0.125-0.128 0.246-0.202 0.365-0.007 0.012-0.012 0.025-0.021 0.037 0.018 0.010 0.033 0.019 0.051 0.028 0.306 0.15 0.641 0.284 0.996 0.405 0.081 0.028 0.167 0.053 0.251 0.080 0.335 0.105 0.686 0.2 1.053 0.278 0.047 0.010 0.092 0.023 0.139 0.033 0.405 0.082 0.829 0.143 1.262 0.19 0.103 0.012 0.206 0.021 0.31 0.030zM21.907 41.403c0.357 0.025 0.719 0.042 1.084 0.044 0.476 0 0.92-0.030 1.355-0.067 0.152-0.013 0.306-0.025 0.457-0.044 0.316-0.036 0.615-0.085 0.906-0.138 0.272-0.051 0.534-0.11 0.79-0.174 0.13-0.033 0.259-0.065 0.382-0.102 0.217-0.063 0.431-0.128 0.633-0.201 0.067-0.024 0.126-0.051 0.19-0.076 0.409-0.157 0.784-0.335 1.117-0.533 0.041-0.024 0.088-0.048 0.127-0.072 0.157-0.098 0.297-0.202 0.432-0.309 0.076-0.061 0.154-0.121 0.22-0.183 0.079-0.071 0.153-0.146 0.226-0.23 0.093-0.108 0.173-0.215 0.235-0.322 0.027-0.046 0.053-0.091 0.075-0.138 0.068-0.15 0.114-0.299 0.114-0.439 0-0.142-0.045-0.292-0.12-0.446-0.007-0.013-0.013-0.028-0.021-0.042-0.021-0.037-0.063-0.077-0.087-0.116h-10.72c0.037 0.2 0.057 0.401 0.057 0.605 0 0.203-0.021 0.403-0.056 0.598-0.004 0.016-0.009 0.030-0.012 0.046-0.035 0.186-0.086 0.369-0.153 0.548-0.001 0.002-0.002 0.006-0.004 0.009-0.144 0.387-0.359 0.755-0.634 1.104 0.044 0.016 0.088 0.031 0.133 0.047 0.242 0.082 0.492 0.157 0.752 0.225 0.058 0.016 0.113 0.033 0.172 0.047 0.318 0.079 0.649 0.145 0.987 0.201 0.077 0.013 0.157 0.022 0.235 0.034 0.273 0.041 0.551 0.074 0.832 0.099 0.098 0.010 0.195 0.018 0.293 0.025zM2.42 38.42c0 0.926 1.494 2.113 4.055 2.685l0.408 0.079c0.661 0.127 1.346 0.194 2.033 0.225 0.154 0.007 0.3 0.019 0.457 0.022 0.324 0.006 0.648-0.002 0.969-0.017 0.103-0.004 0.203-0.009 0.304-0.015 1.974-0.127 3.828-0.615 5.041-1.386 0.149-0.094 0.275-0.195 0.399-0.294 0.068-0.054 0.137-0.109 0.196-0.163 0.092-0.084 0.173-0.168 0.247-0.254 0.071-0.084 0.13-0.166 0.182-0.248 0.041-0.064 0.087-0.129 0.116-0.192 0.068-0.151 0.114-0.3 0.114-0.442 0-0.145-0.044-0.3-0.127-0.461-0.001-0.002-0.002-0.005-0.004-0.007-0.023-0.044-0.074-0.092-0.103-0.137h-7.632c-0.221 0-0.436-0.027-0.644-0.063-0.062-0.011-0.121-0.024-0.18-0.039-0.167-0.039-0.329-0.090-0.486-0.151-0.042-0.017-0.086-0.028-0.127-0.046-0.177-0.077-0.344-0.172-0.505-0.275-0.071-0.045-0.137-0.095-0.203-0.144-0.094-0.071-0.185-0.146-0.272-0.225-0.069-0.062-0.138-0.121-0.202-0.188-0.115-0.121-0.221-0.251-0.32-0.387-0.070-0.097-0.129-0.201-0.19-0.305-0.021-0.035-0.045-0.066-0.064-0.103-2.257 0.629-3.462 1.716-3.462 2.53zM63.509 43.826c-0.004 0-0.007 0-0.013 0.002-0.386 0.024-0.778 0.040-1.179 0.040-0.117 0-0.23-0.015-0.346-0.017-0.264-0.005-0.522-0.020-0.783-0.037-0.334-0.022-0.662-0.048-0.989-0.088-0.246-0.030-0.484-0.067-0.724-0.106-0.328-0.054-0.646-0.117-0.961-0.191-0.229-0.053-0.451-0.109-0.672-0.172-0.3-0.086-0.586-0.182-0.869-0.284-0.125-0.045-0.264-0.076-0.384-0.125-1.192 0.484-2.604 0.812-4.164 0.947-0.046 0.004-0.091 0.007-0.137 0.011-0.479 0.039-0.967 0.064-1.47 0.064-0.578 0-1.146-0.035-1.705-0.088-0.073-0.007-0.146-0.011-0.219-0.019-0.529-0.057-1.042-0.142-1.54-0.244-0.086-0.017-0.172-0.035-0.258-0.054-0.49-0.11-0.961-0.241-1.409-0.393-0.072-0.024-0.142-0.052-0.213-0.077-0.453-0.163-0.886-0.344-1.283-0.548-0.006-0.004-0.013-0.005-0.019-0.009-1.711 0.895-4.030 1.434-6.664 1.434-0.384 0-0.764-0.013-1.139-0.038-0.121-0.007-0.24-0.022-0.359-0.031-0.253-0.022-0.503-0.045-0.75-0.076-0.137-0.018-0.271-0.040-0.407-0.060-0.224-0.035-0.445-0.071-0.663-0.115-0.138-0.028-0.274-0.057-0.409-0.087-0.211-0.047-0.416-0.099-0.62-0.155-0.13-0.035-0.258-0.069-0.384-0.108-0.206-0.063-0.404-0.132-0.6-0.202-0.111-0.040-0.225-0.079-0.334-0.121-0.221-0.087-0.433-0.183-0.641-0.281-0.071-0.034-0.148-0.063-0.217-0.098-0.256-0.128-0.502-0.265-0.732-0.409-1.746 1.102-4.307 1.78-7.267 1.78-0.578 0-1.146-0.035-1.705-0.088-0.073-0.007-0.147-0.011-0.219-0.019-0.529-0.057-1.042-0.142-1.54-0.244-0.086-0.017-0.172-0.035-0.258-0.054-0.49-0.11-0.961-0.241-1.409-0.393-0.073-0.024-0.142-0.052-0.213-0.077-0.453-0.163-0.886-0.344-1.283-0.548-0.006-0.004-0.013-0.005-0.019-0.009-1.344 0.703-3.065 1.181-5.019 1.355h-0.004c-0.319 0.028-0.646 0.047-0.978 0.059-0.112 0.004-0.225 0.006-0.338 0.009-0.109 0.001-0.214 0.008-0.324 0.008-0.143 0-0.281-0.008-0.421-0.011-0.116-0.004-0.231-0.005-0.346-0.010-0.35-0.014-0.695-0.037-1.031-0.070 0.265 4.099 3.685 7.351 7.848 7.351h39.933c4.146 0 7.554-3.226 7.845-7.301zM64.282 41.312c3.316-0.418 5.298-1.826 5.298-2.892 0-0.922-1.475-2.090-3.999-2.669-0.004 0.009-0.010 0.017-0.015 0.025-0.132 0.267-0.295 0.513-0.486 0.739-0.027 0.031-0.051 0.064-0.079 0.094-0.090 0.098-0.183 0.189-0.282 0.277-0.053 0.047-0.108 0.091-0.163 0.134-0.094 0.075-0.188 0.151-0.29 0.217-0.149 0.097-0.305 0.18-0.467 0.254-0.074 0.034-0.151 0.059-0.229 0.087-0.13 0.048-0.261 0.090-0.397 0.123-0.070 0.017-0.139 0.035-0.211 0.047-0.209 0.039-0.423 0.065-0.642 0.065h-1.872c0.037 0.2 0.057 0.402 0.057 0.605 0 0.225-0.028 0.444-0.070 0.659-0.015 0.071-0.036 0.14-0.054 0.211-0.039 0.146-0.085 0.292-0.143 0.433-0.030 0.075-0.061 0.15-0.097 0.224-0.075 0.155-0.163 0.307-0.261 0.456-0.030 0.046-0.053 0.093-0.086 0.138-0.143 0.202-0.309 0.396-0.491 0.583l-0.002 0.002c0.060 0.013 0.119 0.028 0.179 0.040 0.376 0.074 0.764 0.137 1.16 0.18 0.133 0.015 0.27 0.022 0.405 0.034 0.341 0.028 0.686 0.047 1.036 0.052 0.119 0.001 0.236 0.007 0.355 0.006 0.448-0.004 0.872-0.027 1.284-0.063 0.189-0.017 0.376-0.040 0.564-0.064zM13.311 46.286c0-0.807 0.403-1.21 1.21-1.21s1.21 0.403 1.21 1.21c0 0.807-0.403 1.21-1.21 1.21s-1.21-0.403-1.21-1.21zM19.361 48.706c0-0.807 0.403-1.21 1.21-1.21s1.21 0.403 1.21 1.21c0 0.807-0.403 1.21-1.21 1.21s-1.21-0.403-1.21-1.21zM24.202 46.286c0-0.807 0.403-1.21 1.21-1.21s1.21 0.403 1.21 1.21c0 0.807-0.403 1.21-1.21 1.21s-1.21-0.403-1.21-1.21zM27.832 48.706c0-0.807 0.403-1.21 1.21-1.21s1.21 0.403 1.21 1.21c0 0.807-0.403 1.21-1.21 1.21s-1.21-0.403-1.21-1.21zM32.672 46.286c0-0.807 0.403-1.21 1.21-1.21s1.21 0.403 1.21 1.21c0 0.807-0.403 1.21-1.21 1.21s-1.21-0.403-1.21-1.21zM37.513 48.706c0-0.807 0.403-1.21 1.21-1.21s1.21 0.403 1.21 1.21c0 0.807-0.403 1.21-1.21 1.21s-1.21-0.403-1.21-1.21zM42.353 45.076c0-0.807 0.403-1.21 1.21-1.21s1.21 0.403 1.21 1.21c0 0.807-0.403 1.21-1.21 1.21s-1.21-0.403-1.21-1.21zM45.983 48.706c0-0.807 0.403-1.21 1.21-1.21s1.21 0.403 1.21 1.21c0 0.807-0.403 1.21-1.21 1.21s-1.21-0.403-1.21-1.21zM52.034 46.286c0-0.807 0.403-1.21 1.21-1.21s1.21 0.403 1.21 1.21c0 0.807-0.403 1.21-1.21 1.21s-1.21-0.403-1.21-1.21zM56.874 47.496c0-0.807 0.403-1.21 1.21-1.21s1.21 0.403 1.21 1.21c0 0.807-0.403 1.21-1.21 1.21s-1.21-0.403-1.21-1.21z"></path>
</svg>
