<!-- Generated by IcoMoon.io -->
<svg version="1.1" xmlns="http://www.w3.org/2000/svg" width="72" height="72" viewBox="0 0 72 72">
<title>uniF180</title>
<path d="M19.8 0c8.272 0 15 6.728 15 15v42c0 8.272-6.728 15-15 15s-15-6.728-15-15v-42c0-8.272 6.728-15 15-15zM19.8 69.6c6.948 0 12.6-5.652 12.6-12.6 0-0.462-0.029-0.918-0.078-1.368-0.25 3.364-1.642 6.532-3.922 8.812-2.15 2.15-4.974 3.226-7.799 3.226s-5.65-1.075-7.8-3.226c-1.712-1.712-2.656-3.988-2.656-6.409s0.943-4.698 2.656-6.409c1.415-1.416 3.295-2.195 5.297-2.195 2 0 3.881 0.779 5.297 2.195 2.429 2.43 2.429 6.384 0 8.815-2.036 2.036-5.352 2.036-7.391 0-0.835-0.835-1.295-1.945-1.295-3.126s0.46-2.291 1.295-3.126c0.469-0.469 1.228-0.469 1.697 0s0.469 1.228 0 1.697c-0.382 0.382-0.592 0.889-0.592 1.429s0.21 1.048 0.592 1.429c1.102 1.102 2.896 1.099 3.997 0 1.494-1.496 1.494-3.928 0-5.422-0.962-0.962-2.24-1.492-3.6-1.492-1.361 0-2.638 0.529-3.6 1.492-1.259 1.259-1.952 2.932-1.952 4.712s0.694 3.454 1.952 4.712c3.367 3.366 8.84 3.364 12.205 0 4.315-4.315 4.369-11.83 0.157-16.177-2.016-1.368-4.446-2.169-7.061-2.169-6.948 0-12.6 5.652-12.6 12.6s5.652 12.6 12.6 12.6zM32.4 48.89v-33.89c0-6.948-5.652-12.6-12.6-12.6s-12.6 5.652-12.6 12.6v33.89c2.673-4.139 7.318-6.89 12.6-6.89 3.148 0 6.068 0.979 8.484 2.642 0.054 0.038 0.115 0.060 0.164 0.109 0.013 0.013 0.025 0.029 0.038 0.042 1.549 1.106 2.879 2.495 3.913 4.097zM13.696 12.106c1.93-0.866 3.982-1.306 6.104-1.306 4.92 0 9.538 2.435 12.352 6.512 0.376 0.546 0.239 1.295-0.306 1.67-0.208 0.143-0.446 0.212-0.68 0.212-0.38 0-0.756-0.181-0.989-0.518-2.365-3.429-6.246-5.477-10.376-5.477-1.78 0-3.503 0.368-5.12 1.094-0.61 0.27-1.315 0.001-1.586-0.602-0.272-0.605-0.001-1.314 0.602-1.586zM19.8 18c4.92 0 9.538 2.435 12.352 6.512 0.376 0.546 0.239 1.295-0.306 1.67-0.208 0.143-0.446 0.212-0.68 0.212-0.38 0-0.756-0.181-0.989-0.518-2.365-3.429-6.246-5.477-10.376-5.477-1.78 0-3.503 0.368-5.12 1.094-0.61 0.271-1.315 0-1.586-0.602-0.272-0.605-0.001-1.314 0.602-1.586 1.93-0.866 3.982-1.306 6.104-1.306zM19.8 25.2c4.92 0 9.538 2.435 12.352 6.512 0.376 0.546 0.239 1.295-0.306 1.67-0.208 0.143-0.446 0.212-0.68 0.212-0.38 0-0.756-0.181-0.989-0.518-2.365-3.43-6.246-5.477-10.376-5.477-1.78 0-3.503 0.368-5.12 1.094-0.61 0.269-1.315 0-1.586-0.602-0.272-0.605-0.001-1.314 0.602-1.586 1.93-0.866 3.982-1.306 6.104-1.306zM67.164 53.963l0.036 0.515v4.322c-0.359 4.816-5.005 9.6-13.2 9.6s-12.841-4.784-13.194-9.51v-5.419l0.002-0.002c-0.001-1.002 0.18-2.008 0.551-2.977 1.039-2.716 3.509-4.908 6.653-6.154 0.038-0.020 0.074-0.047 0.114-0.067 0.102-0.053 0.21-0.070 0.317-0.091 1.709-0.618 3.596-0.967 5.557-0.967 5.803 0 11.002 2.993 12.642 7.279 0.432 1.13 0.593 2.306 0.522 3.472zM64.402 51.349c-1.273-3.324-5.647-5.737-10.403-5.734-1.765 0-3.478 0.334-4.998 0.922-1.692 0.958-2.846 2.457-3.098 4.065-0.226 1.447 0.282 2.848 1.47 4.049 2.875 2.908 8.663 2.899 11.682-0.019 0.768-0.742 1.12-1.598 1.016-2.477-0.12-1.032-0.847-2.016-1.996-2.698-1.61-0.955-4.051-0.964-5.561-0.016-0.49 0.308-0.784 0.713-0.808 1.111-0.028 0.468 0.313 0.847 0.604 1.081 0.902 0.727 2.604 0.728 3.506 0.001 0.513-0.418 1.268-0.337 1.687 0.178 0.418 0.514 0.338 1.27-0.176 1.687-1.799 1.453-4.724 1.454-6.524 0.001-1.031-0.833-1.561-1.93-1.493-3.091 0.070-1.181 0.772-2.276 1.926-3.001 2.278-1.434 5.67-1.44 8.064-0.016 1.796 1.066 2.946 2.7 3.154 4.481 0.191 1.627-0.425 3.218-1.73 4.481-1.973 1.907-4.784 2.86-7.576 2.86-2.802 0-5.584-0.959-7.481-2.878-1.324-1.339-2.071-2.934-2.191-4.6-0.168 0.542-0.261 1.092-0.27 1.64l0.043 0.482c0.103 1.518 0.828 3.041 2.116 4.304 0.151 0.145 0.305 0.288 0.469 0.425 0.089 0.074 0.174 0.151 0.268 0.223 1.609 1.235 3.764 2.033 6.208 2.285 0.072 0.007 0.142 0.017 0.215 0.023 0.482 0.043 0.974 0.068 1.476 0.068 0.506 0 1.002-0.026 1.488-0.070 0.059-0.005 0.115-0.012 0.173-0.018 2.441-0.247 4.592-1.042 6.205-2.267 0.091-0.071 0.181-0.143 0.268-0.216 0.161-0.131 0.308-0.272 0.456-0.413 0.278-0.27 0.536-0.547 0.761-0.836 0.005-0.007 0.011-0.013 0.016-0.019 0.748-0.972 1.195-2.035 1.342-3.073l0.079-0.559c0.034-0.792-0.088-1.59-0.385-2.369zM54 66c6.217 0 9.93-3.127 10.676-6.457-0.263 0.282-0.556 0.539-0.851 0.793-0.005 0.004-0.008 0.007-0.012 0.011-0.245 0.21-0.505 0.406-0.77 0.598-0.137 0.1-0.274 0.198-0.418 0.294-0.221 0.145-0.446 0.284-0.679 0.417-0.232 0.133-0.473 0.257-0.719 0.378-0.185 0.090-0.367 0.181-0.559 0.264-0.337 0.146-0.692 0.276-1.055 0.401-0.132 0.044-0.258 0.096-0.391 0.137-0.444 0.138-0.911 0.256-1.393 0.358-0.073 0.016-0.142 0.037-0.215 0.052-0.52 0.102-1.061 0.181-1.622 0.239-0.046 0.005-0.088 0.013-0.133 0.018-0.596 0.055-1.214 0.088-1.859 0.088-0.635 0-1.247-0.032-1.838-0.088-0.112-0.010-0.217-0.032-0.328-0.044-0.481-0.054-0.953-0.119-1.404-0.206-0.151-0.029-0.293-0.071-0.442-0.104-0.395-0.089-0.784-0.184-1.153-0.296-0.193-0.059-0.378-0.131-0.566-0.197-0.3-0.107-0.596-0.214-0.878-0.335-0.228-0.097-0.446-0.204-0.666-0.312-0.214-0.106-0.424-0.214-0.626-0.329-0.248-0.14-0.491-0.287-0.726-0.442-0.138-0.091-0.269-0.186-0.401-0.282-0.265-0.191-0.526-0.384-0.769-0.593-0.032-0.028-0.060-0.058-0.091-0.085-0.277-0.244-0.557-0.485-0.805-0.752 0.696 3.292 4.419 6.478 10.694 6.478z"></path>
</svg>
