<!-- Generated by IcoMoon.io -->
<svg version="1.1" xmlns="http://www.w3.org/2000/svg" width="72" height="72" viewBox="0 0 72 72">
<title>uniF1DC</title>
<path d="M22.22 7.961c0.494 0.493 0.494 1.292 0 1.786l-13.895 13.895c-0.246 0.246-0.57 0.37-0.893 0.37s-0.647-0.124-0.893-0.37c-0.494-0.494-0.494-1.292 0-1.786l13.895-13.895c0.494-0.494 1.292-0.494 1.786 0zM30.43 12.383c0.494 0.493 0.494 1.292 0 1.786l-18.947 18.947c-0.246 0.246-0.57 0.37-0.893 0.37s-0.647-0.124-0.893-0.37c-0.494-0.494-0.494-1.292 0-1.786l18.947-18.947c0.494-0.494 1.292-0.494 1.786 0zM51.272 55.961c0.494 0.493 0.494 1.292 0 1.786l-7.579 7.579c-0.246 0.246-0.57 0.37-0.893 0.37s-0.647-0.124-0.893-0.37c-0.494-0.494-0.494-1.292 0-1.786l7.579-7.579c0.494-0.494 1.292-0.494 1.786 0zM51.272 43.329c0.494 0.493 0.494 1.292 0 1.786l-18.947 18.947c-0.246 0.246-0.57 0.37-0.893 0.37s-0.647-0.124-0.893-0.37c-0.494-0.494-0.494-1.292 0-1.786l18.947-18.947c0.494-0.494 1.292-0.494 1.786 0zM15.272 41.958c-0.246 0.246-0.57 0.37-0.893 0.37s-0.647-0.124-0.893-0.37c-0.494-0.494-0.494-1.292 0-1.786l31.578-31.578c0.494-0.494 1.292-0.494 1.786 0s0.494 1.292 0 1.786zM56.324 13.014c0.494 0.493 0.494 1.292 0 1.786l-40.42 40.42c-0.246 0.246-0.57 0.37-0.893 0.37s-0.647-0.124-0.893-0.37c-0.494-0.494-0.494-1.292 0-1.786l40.42-40.42c0.494-0.494 1.292-0.494 1.786 0zM60.114 21.856c0.494 0.493 0.494 1.292 0 1.786l-40.42 40.42c-0.246 0.246-0.57 0.37-0.893 0.37s-0.647-0.124-0.893-0.37c-0.494-0.494-0.494-1.292 0-1.786l40.42-40.42c0.494-0.494 1.292-0.494 1.786 0zM71.726 19.595c1.070 6.643-1.019 13.144-5.731 17.842-2.827 2.818-4.384 6.401-4.384 10.091v13.831c0 4.468-3.635 8.103-8.104 8.103h-35.579c-4.468 0-8.103-3.635-8.103-8.103v-14.391c0-3.585-1.458-7.071-4.104-9.816-4.563-4.732-6.535-11.209-5.413-17.771 1.487-8.687 8.372-15.368 17.133-16.627 2.717-0.39 5.415-0.251 8.020 0.41 5.194 1.323 10.683 1.323 15.878 0.001 2.486-0.633 5.059-0.775 7.652-0.447 1.862-0.236 3.735-0.227 5.569 0.035 8.851 1.273 15.749 8.040 17.166 16.84zM12.351 61.358c0 3.076 2.501 5.577 5.577 5.578h30.378c3.076 0 5.577-2.501 5.577-5.577v-13.831c0-3.274 1.024-6.466 2.932-9.247 0.637-0.927 1.371-1.809 2.197-2.632 4.13-4.116 5.961-9.821 5.021-15.65-1.24-7.704-7.281-13.627-15.031-14.741l-0.157-0.014c-0.003 0-0.004-0.001-0.006-0.001-2.336-0.315-4.647-0.194-6.878 0.373-5.602 1.426-11.524 1.425-17.123-0.001-1.436-0.365-2.905-0.548-4.393-0.548-0.877 0-1.758 0.062-2.644 0.191-7.672 1.102-13.7 6.95-15.001 14.553-0.986 5.761 0.742 11.444 4.741 15.591 3.102 3.219 4.811 7.327 4.811 11.569v14.39zM64.211 35.647c4.129-4.117 5.96-9.821 5.020-15.65-1.005-6.248-5.169-11.324-10.841-13.614 0.035 0.025 0.066 0.056 0.101 0.081 0.446 0.324 0.877 0.669 1.293 1.029 0.134 0.116 0.263 0.237 0.394 0.357 0.32 0.292 0.63 0.591 0.931 0.903 0.135 0.14 0.269 0.28 0.4 0.424 0.301 0.328 0.586 0.669 0.864 1.018 0.101 0.128 0.207 0.25 0.306 0.38 0.366 0.485 0.716 0.983 1.038 1.501 0.020 0.033 0.037 0.067 0.057 0.1 0.297 0.482 0.57 0.979 0.826 1.487 0.085 0.169 0.16 0.341 0.24 0.512 0.182 0.388 0.354 0.781 0.512 1.181 0.078 0.197 0.153 0.395 0.225 0.596 0.145 0.407 0.277 0.821 0.397 1.242 0.053 0.186 0.111 0.368 0.159 0.555 0.155 0.605 0.292 1.219 0.393 1.845 1.070 6.642-1.019 13.144-5.731 17.841-1.060 1.057-1.942 2.222-2.63 3.46-1.146 2.063-1.755 4.328-1.755 6.634v13.829c0 0.274-0.015 0.544-0.042 0.811-0.008 0.086-0.025 0.169-0.037 0.254-0.024 0.179-0.047 0.359-0.082 0.534-0.020 0.102-0.049 0.201-0.073 0.301-0.037 0.155-0.073 0.31-0.119 0.461-0.032 0.105-0.071 0.205-0.107 0.308-0.051 0.141-0.099 0.284-0.155 0.422-0.043 0.102-0.092 0.201-0.139 0.302-0.062 0.133-0.123 0.267-0.191 0.395-0.053 0.1-0.111 0.195-0.168 0.292-0.072 0.124-0.144 0.248-0.222 0.366-0.062 0.095-0.13 0.187-0.197 0.279-0.082 0.114-0.164 0.227-0.251 0.337-0.072 0.090-0.148 0.175-0.224 0.261-0.061 0.068-0.116 0.141-0.178 0.208 2.737-0.354 4.859-2.699 4.859-5.531v-13.831c0-4.365 1.82-8.584 5.127-11.88z"></path>
</svg>
