<!-- Generated by IcoMoon.io -->
<svg version="1.1" xmlns="http://www.w3.org/2000/svg" width="72" height="72" viewBox="0 0 72 72">
<title>uniF1A1</title>
<path d="M55.094 18.328c-4.626 1.109-8.298 4-10.066 5.953 4.145 1.126 7.024 3.183 8.827 6.255 0.934 1.59 1.523 3.391 1.905 5.336l0.066 0.099-0.038 0.024c0.658 3.435 0.662 7.323 0.662 11.356v0.268c0 13.444-9.266 24.382-20.656 24.382h-0.556c-11.39 0-20.657-10.938-20.657-24.382v-0.268c0-6.371-0.001-12.39 2.597-16.815 1.986-3.384 5.276-5.536 10.129-6.57-0.75-1.063-2.336-2.394-5.696-3.2l-1.234-0.296 0.344-1.22c0.054-0.19 1.398-4.659 8.71-3.306 0.462 0.085 0.886 0.205 1.293 0.336-1.538-3.751-6.626-6.816-10.334-7.705l-2.475-0.594 2.013-1.557c0.172-0.132 4.26-3.237 9.41-2.686 2.582 0.278 4.629 0.989 6.25 1.971 2.214-3.218 5.571-5.119 10.018-5.633 5.478-0.64 9.8 2.908 9.982 3.059l1.831 1.523-2.306 0.595c-3.362 0.868-8.037 3.7-10.262 7.357 0.39-0.135 0.789-0.248 1.202-0.324 5.717-1.055 8.952 2.377 9.862 4.344l0.625 1.351zM45.888 2.499c-3.751 0.433-6.561 2.011-8.37 4.691 1.144 1.084 1.974 2.328 2.575 3.621 0.012 0.027 0.024 0.052 0.037 0.079 0.13 0.285 0.252 0.57 0.362 0.859 0.029 0.076 0.055 0.151 0.083 0.227 0.089 0.248 0.174 0.495 0.25 0.742 0.038 0.124 0.071 0.246 0.105 0.369 0.057 0.207 0.115 0.413 0.163 0.618 0.039 0.166 0.071 0.329 0.105 0.494 0.034 0.167 0.071 0.334 0.1 0.497 0.005 0.026 0.011 0.051 0.016 0.077 0.017-0.016 0.033-0.033 0.051-0.049 1.136-5.086 6.32-9.087 10.663-10.966-1.502-0.763-3.71-1.539-6.139-1.261zM23.65 7.097c4.606 1.93 9.555 5.976 9.96 10.762 1.42 1.215 2.21 2.776 2.599 4.201 0.265-0.569 0.594-1.225 0.984-1.926 0.022-0.040 0.045-0.081 0.068-0.121 0.168-0.299 0.346-0.601 0.536-0.91 0.055-0.089 0.11-0.177 0.166-0.267 0.165-0.26 0.337-0.519 0.517-0.781 0.056-0.083 0.105-0.165 0.163-0.248 0.074-0.135 0.182-0.293 0.319-0.438 0.051-0.068 0.108-0.136 0.161-0.205-0.010-0.18-0.018-0.357-0.034-0.544-0.006-0.066-0.010-0.132-0.016-0.198-0.072-0.747-0.195-1.536-0.396-2.333-0.004-0.012-0.006-0.024-0.010-0.037-0.207-0.812-0.494-1.63-0.886-2.416-0.004-0.006-0.006-0.012-0.010-0.018-0.182-0.362-0.39-0.716-0.619-1.061-0.031-0.045-0.058-0.091-0.090-0.136-0.238-0.344-0.5-0.678-0.791-0.996-0.049-0.052-0.105-0.101-0.155-0.152-0.235-0.245-0.491-0.478-0.763-0.702-1.487-1.223-3.511-2.113-6.275-2.41-2.115-0.224-4.039 0.327-5.428 0.935zM29.883 23.543c0.002 0 0.006-0.001 0.010-0.004 1.228-0.15 2.536-0.245 3.934-0.282 0.045-0.001 0.086-0.005 0.132-0.006-0.124-0.653-0.375-1.49-0.885-2.3-0.028-0.045-0.060-0.089-0.090-0.134-0.127-0.189-0.273-0.374-0.43-0.556-0.072-0.082-0.149-0.16-0.227-0.239-0.144-0.145-0.301-0.284-0.469-0.418-0.711-0.566-1.63-1.034-2.871-1.264-2.748-0.509-4.255-0.013-5.059 0.557 3.647 1.245 5.253 3.156 5.956 4.646zM51.75 31.769c-1.516-2.583-4.050-4.308-7.778-5.243l4.384 4.384-1.724 1.724-2.795-2.795-2.795 2.795-1.724-1.724 4.436-4.436c-0.2-0.048-0.406-0.090-0.612-0.134l-0.442-0.085c-1.774-0.339-3.829-0.529-6.11-0.564l-0.026-0.002c-0.257-0.004-0.508-0.011-0.772-0.011h-0.488c-2.25 0-4.257 0.139-6.035 0.413l-0.26 0.040c-0.726 0.119-1.419 0.26-2.071 0.428l4.351 4.351-1.724 1.724-2.795-2.795-2.795 2.795-1.724-1.724 4.222-4.222c-3.406 0.967-5.76 2.637-7.195 5.082-0.068 0.115-0.115 0.244-0.178 0.361l3.655 3.655-1.724 1.724-2.795-2.795-0.275 0.275c-0.58 2.121-0.799 4.547-0.884 7.189l1.159-1.159 4.519 4.519-1.724 1.724-2.795-2.795-1.217 1.217c-0.001 0.551-0.002 1.102-0.002 1.668v0.268c0 1.384 0.119 2.733 0.324 4.047l0.895-0.895 4.519 4.519-1.724 1.724-2.795-2.795-0.286 0.286c2.405 8.734 9.239 15.057 17.287 15.057h0.556c8.126 0 15.024-6.444 17.363-15.312l-0.544-0.272-3.036 3.036-1.724-1.724 4.279-4.279 1.541 0.77c0.217-1.35 0.339-2.739 0.339-4.163v-0.268c0-0.463-0.001-0.913-0.002-1.368l-0.061 0.061-1.576-1.576-2.795 2.795-1.724-1.724 4.519-4.519 1.597 1.597c-0.055-2.069-0.185-4.005-0.494-5.774l-1.292-1.94-2.606 2.605-1.724-1.724 3.936-3.936c-0.015-0.026-0.024-0.054-0.039-0.079zM38.325 23.305c1.435 0.072 2.78 0.204 4.021 0.407 1.557-2.122 5.461-5.579 10.478-7.265-1.017-1.074-2.997-2.381-6.328-1.762-1.050 0.195-2.017 0.683-2.898 1.341l-0.002 0.013-0.347 0.286c-0.652 0.539-1.273 1.175-1.849 1.885l-0.725 0.946c-0.221 0.311-0.429 0.624-0.625 0.934-0.004 0.006-0.007 0.011-0.011 0.017-0.19 0.3-0.367 0.596-0.534 0.886-0.041 0.073-0.081 0.144-0.121 0.217-0.096 0.172-0.188 0.34-0.277 0.506-0.079 0.15-0.158 0.3-0.232 0.444-0.022 0.045-0.044 0.088-0.066 0.132-0.183 0.363-0.347 0.706-0.486 1.012h0.004zM26.771 55.647l4.519 4.519-1.724 1.724-2.795-2.795-2.795 2.795-1.724-1.724zM30.785 66.262l4.519-4.519 4.519 4.519-1.724 1.724-2.795-2.795-2.795 2.795zM39.319 60.166l4.519-4.519 4.519 4.519-1.724 1.724-2.795-2.795-2.795 2.795zM26.771 49.342l-2.795 2.795-1.724-1.724 4.519-4.519 4.519 4.519-1.724 1.724zM30.785 55.29l4.519-4.519 4.519 4.519-1.724 1.724-2.795-2.795-2.795 2.795zM39.319 50.414l4.519-4.519 4.519 4.519-1.724 1.724-2.795-2.795-2.795 2.795zM26.771 39.589l-2.795 2.795-1.724-1.724 4.519-4.519 4.519 4.519-1.724 1.724zM35.305 41.018l4.519 4.519-1.724 1.724-2.795-2.795-2.795 2.795-1.724-1.724zM39.319 40.661l4.519-4.519 4.519 4.519-1.724 1.724-2.795-2.795-2.795 2.795zM35.305 34.713l-2.795 2.795-1.724-1.724 4.519-4.519 4.519 4.519-1.724 1.724z"></path>
</svg>
