<!-- Generated by IcoMoon.io -->
<svg version="1.1" xmlns="http://www.w3.org/2000/svg" width="72" height="72" viewBox="0 0 72 72">
<title>uniF1A7</title>
<path d="M36.001 6.004c16.54 0 29.996 13.456 29.996 29.996s-13.456 29.995-29.996 29.995c-16.539 0-29.995-13.456-29.995-29.995s13.456-29.996 29.995-29.996zM36.001 63.595c15.216 0 27.596-12.379 27.596-27.596s-12.38-27.596-27.596-27.596c-15.216 0-27.596 12.379-27.596 27.596s12.38 27.596 27.596 27.596zM26.402 26.401c-3.97 0-7.199-3.229-7.199-7.199s3.229-7.199 7.199-7.199 7.199 3.229 7.199 7.199-3.229 7.199-7.199 7.199zM26.402 14.403c-2.647 0-4.799 2.152-4.799 4.799s2.152 4.799 4.799 4.799c2.647 0 4.799-2.152 4.799-4.799s-2.152-4.799-4.799-4.799zM24.002 16.802c0-0.8 0.4-1.2 1.2-1.2s1.2 0.4 1.2 1.2c0 0.8-0.4 1.2-1.2 1.2s-1.2-0.4-1.2-1.2zM24.002 21.602c0-0.8 0.4-1.2 1.2-1.2s1.2 0.4 1.2 1.2-0.4 1.2-1.2 1.2-1.2-0.4-1.2-1.2zM27.602 19.202c0-0.8 0.4-1.2 1.2-1.2s1.2 0.4 1.2 1.2-0.4 1.2-1.2 1.2c-0.8 0-1.2-0.4-1.2-1.2zM25.202 39.599c0 3.97-3.229 7.199-7.199 7.199s-7.199-3.229-7.199-7.199 3.229-7.199 7.199-7.199 7.199 3.229 7.199 7.199zM18.003 44.398c2.646 0 4.799-2.152 4.799-4.799s-2.152-4.799-4.799-4.799-4.799 2.152-4.799 4.799c0 2.647 2.152 4.799 4.799 4.799zM15.604 37.199c0-0.8 0.4-1.2 1.2-1.2s1.2 0.4 1.2 1.2c0 0.8-0.4 1.2-1.2 1.2s-1.2-0.4-1.2-1.2zM15.604 41.998c0-0.8 0.4-1.2 1.2-1.2s1.2 0.4 1.2 1.2-0.4 1.2-1.2 1.2-1.2-0.4-1.2-1.2zM19.203 39.599c0-0.8 0.4-1.2 1.2-1.2s1.2 0.4 1.2 1.2-0.4 1.2-1.2 1.2c-0.8 0-1.2-0.4-1.2-1.2zM47.999 32.4c-3.97 0-7.199-3.229-7.199-7.199s3.229-7.199 7.199-7.199c3.97 0 7.199 3.229 7.199 7.199s-3.229 7.199-7.199 7.199zM47.999 20.402c-2.647 0-4.799 2.152-4.799 4.799s2.152 4.799 4.799 4.799c2.647 0 4.799-2.152 4.799-4.799s-2.152-4.799-4.799-4.799zM45.599 22.802c0-0.8 0.4-1.2 1.2-1.2s1.2 0.4 1.2 1.2c0 0.8-0.4 1.2-1.2 1.2s-1.2-0.4-1.2-1.2zM45.599 27.601c0-0.8 0.4-1.2 1.2-1.2s1.2 0.4 1.2 1.2c0 0.8-0.4 1.2-1.2 1.2s-1.2-0.4-1.2-1.2zM49.198 25.201c0-0.8 0.4-1.2 1.2-1.2s1.2 0.4 1.2 1.2-0.4 1.2-1.2 1.2-1.2-0.4-1.2-1.2zM29.504 47.407c3.633-1.597 7.89 0.060 9.487 3.692 1.597 3.634-0.059 7.89-3.693 9.487-0.938 0.414-1.921 0.609-2.887 0.609-2.77 0-5.416-1.608-6.6-4.301-1.597-3.634 0.059-7.89 3.693-9.487zM34.332 58.39c2.422-1.064 3.528-3.903 2.462-6.325-0.789-1.795-2.553-2.868-4.4-2.868-0.644 0-1.298 0.131-1.925 0.406-2.422 1.064-3.528 3.902-2.462 6.325 1.064 2.425 3.902 3.528 6.324 2.462zM29.136 52.283c0-0.8 0.4-1.2 1.2-1.2s1.2 0.4 1.2 1.2-0.4 1.2-1.2 1.2-1.2-0.4-1.2-1.2zM31.068 56.676c0-0.8 0.4-1.2 1.2-1.2s1.2 0.4 1.2 1.2-0.4 1.2-1.2 1.2-1.2-0.4-1.2-1.2zM33.397 53.031c0-0.8 0.4-1.2 1.2-1.2s1.2 0.4 1.2 1.2-0.4 1.2-1.2 1.2c-0.8 0-1.2-0.4-1.2-1.2zM51.741 38.526c1.889 0.358 3.525 1.431 4.607 3.022 1.082 1.589 1.481 3.505 1.122 5.393-0.359 1.89-1.431 3.526-3.021 4.607-1.208 0.824-2.606 1.251-4.036 1.251-0.451 0-0.906-0.042-1.358-0.128-1.889-0.359-3.525-1.433-4.607-3.022-1.082-1.588-1.481-3.505-1.122-5.393 0.359-1.89 1.431-3.526 3.021-4.608 1.589-1.082 3.505-1.484 5.394-1.122zM55.112 46.493c0.239-1.26-0.026-2.535-0.747-3.596-0.721-1.059-1.812-1.776-3.072-2.015-0.301-0.058-0.605-0.085-0.905-0.085-0.954 0-1.886 0.284-2.691 0.833-1.061 0.722-1.776 1.813-2.015 3.073s0.027 2.535 0.749 3.596c0.721 1.059 1.812 1.776 3.072 2.014 1.257 0.238 2.535-0.026 3.596-0.747v-0.001c1.059-0.721 1.775-1.812 2.013-3.072zM50.506 43.256c0-0.8 0.4-1.2 1.2-1.2s1.2 0.4 1.2 1.2-0.4 1.2-1.2 1.2c-0.8 0-1.2-0.4-1.2-1.2zM46.54 45.957c0-0.8 0.4-1.2 1.2-1.2s1.2 0.4 1.2 1.2c0 0.8-0.4 1.2-1.2 1.2s-1.2-0.4-1.2-1.2zM50.548 47.581c0-0.8 0.4-1.2 1.2-1.2s1.2 0.4 1.2 1.2-0.4 1.2-1.2 1.2-1.2-0.4-1.2-1.2zM36.593 41.346c-0.954 0.435-1.969 0.655-2.987 0.655-0.85 0-1.7-0.152-2.52-0.458-1.802-0.672-3.233-2.005-4.033-3.754-0.799-1.748-0.87-3.704-0.198-5.506s2.005-3.234 3.754-4.033c1.748-0.8 3.703-0.871 5.506-0.197 1.802 0.672 3.234 2.005 4.033 3.754 0.799 1.748 0.87 3.704 0.198 5.506-0.671 1.802-2.004 3.234-3.753 4.033zM29.236 36.791c0.533 1.167 1.488 2.055 2.689 2.504 1.201 0.446 2.504 0.401 3.67-0.132 1.166-0.532 2.055-1.487 2.503-2.689 0.449-1.201 0.402-2.504-0.131-3.67s-1.488-2.055-2.689-2.504c-0.546-0.203-1.112-0.305-1.679-0.305-0.679 0-1.356 0.146-1.992 0.437-1.166 0.531-2.054 1.487-2.503 2.689-0.449 1.201-0.402 2.504 0.131 3.67zM32.117 32.13c0-0.8 0.4-1.2 1.2-1.2s1.2 0.4 1.2 1.2c0 0.8-0.4 1.2-1.2 1.2s-1.2-0.4-1.2-1.2zM30.439 36.627c0-0.8 0.4-1.2 1.2-1.2s1.2 0.4 1.2 1.2-0.4 1.2-1.2 1.2-1.2-0.4-1.2-1.2zM34.651 35.637c0-0.8 0.4-1.2 1.2-1.2s1.2 0.4 1.2 1.2-0.4 1.2-1.2 1.2c-0.8 0-1.2-0.4-1.2-1.2zM36.001 21.602c-0.663 0-1.2-0.536-1.2-1.2s0.538-1.2 1.2-1.2c1.985 0 3.6-1.615 3.6-3.599 0-0.664 0.538-1.2 1.2-1.2s1.2 0.536 1.2 1.2c0 3.308-2.691 5.999-5.999 5.999zM21.291 30.883c-2.514 0-4.86-1.592-5.697-4.102-0.21-0.63 0.13-1.309 0.758-1.518 0.63-0.21 1.308 0.131 1.518 0.758 0.628 1.882 2.672 2.904 4.553 2.276 0.631-0.205 1.309 0.132 1.518 0.761s-0.131 1.308-0.76 1.518c-0.627 0.209-1.264 0.307-1.891 0.307zM47.618 53.811c0.63-0.211 1.308 0.13 1.518 0.758 0.21 0.63-0.13 1.309-0.758 1.518-0.627 0.21-1.266 0.31-1.893 0.31-2.512 0-4.858-1.591-5.696-4.102-0.21-0.63 0.13-1.309 0.758-1.518 0.631-0.211 1.309 0.131 1.518 0.758 0.305 0.912 0.945 1.653 1.804 2.082 0.859 0.43 1.836 0.498 2.749 0.194zM52.418 34.802c0.324-0.577 1.053-0.785 1.633-0.461 0.841 0.472 1.813 0.586 2.737 0.324 0.925-0.263 1.693-0.87 2.162-1.71 0.323-0.578 1.053-0.787 1.633-0.462 0.578 0.323 0.786 1.055 0.462 1.633-0.782 1.399-2.063 2.411-3.603 2.846-0.542 0.154-1.093 0.229-1.641 0.229-1.013 0-2.013-0.259-2.92-0.767-0.578-0.323-0.786-1.055-0.462-1.633zM33.683 46.034c-0.578-0.323-0.785-1.053-0.462-1.632 0.324-0.578 1.053-0.786 1.633-0.462 0.841 0.47 1.814 0.585 2.737 0.324 0.925-0.263 1.693-0.87 2.162-1.71 0.323-0.578 1.053-0.785 1.633-0.462 0.578 0.323 0.786 1.055 0.462 1.633-0.782 1.399-2.063 2.41-3.603 2.846-0.542 0.154-1.093 0.229-1.641 0.229-1.013 0-2.013-0.259-2.92-0.767zM27.303 41.748c1.242 3.065-0.242 6.57-3.308 7.812-0.148 0.060-0.3 0.088-0.45 0.088-0.474 0-0.924-0.282-1.112-0.75-0.25-0.614 0.047-1.314 0.661-1.562 1.839-0.745 2.731-2.848 1.986-4.688-0.25-0.614 0.047-1.314 0.661-1.562s1.314 0.047 1.562 0.662zM48.215 35.191c-0.947 0.175-1.767 0.705-2.312 1.495-0.546 0.791-0.75 1.748-0.576 2.695 0.12 0.652-0.312 1.277-0.963 1.397-0.073 0.014-0.146 0.020-0.218 0.020-0.568 0-1.073-0.404-1.178-0.983-0.29-1.577 0.052-3.171 0.96-4.49 0.908-1.32 2.278-2.205 3.855-2.494 0.655-0.121 1.278 0.313 1.397 0.963 0.12 0.652-0.312 1.277-0.963 1.397zM71.442 34.002c-0.511 1.289-0.511 2.707 0 3.995 1.1 2.77 0.546 5.877-1.446 8.105-0.929 1.039-1.421 2.374-1.386 3.758 0.076 2.973-1.518 5.702-4.157 7.122-1.235 0.665-2.162 1.754-2.61 3.069-0.957 2.814-3.395 4.838-6.363 5.279-1.395 0.208-2.647 0.92-3.524 2.007-1.873 2.318-4.86 3.4-7.798 2.806-1.387-0.277-2.81-0.028-4.012 0.698-1.279 0.773-2.713 1.159-4.148 1.159s-2.869-0.386-4.148-1.158c-1.203-0.726-2.626-0.975-4.012-0.7-2.94 0.589-5.926-0.488-7.798-2.806-0.878-1.087-2.13-1.8-3.524-2.007-2.968-0.441-5.406-2.464-6.364-5.279-0.448-1.315-1.375-2.404-2.61-3.069-2.64-1.421-4.233-4.149-4.157-7.122 0.035-1.383-0.457-2.719-1.386-3.758-1.993-2.229-2.546-5.334-1.446-8.105 0.511-1.289 0.511-2.707 0-3.995-1.1-2.77-0.546-5.877 1.446-8.105 0.929-1.039 1.421-2.375 1.386-3.758-0.076-2.973 1.518-5.702 4.157-7.122 1.235-0.665 2.162-1.754 2.61-3.069 0.957-2.814 3.395-4.838 6.363-5.279 1.395-0.207 2.647-0.92 3.524-2.007 1.873-2.319 4.86-3.397 7.798-2.806 1.387 0.277 2.81 0.028 4.012-0.698 2.559-1.544 5.738-1.543 8.295-0.001v0.001c1.203 0.726 2.626 0.975 4.012 0.698 2.941-0.593 5.926 0.488 7.798 2.806 0.878 1.087 2.13 1.8 3.524 2.007 2.968 0.441 5.406 2.465 6.364 5.279 0.448 1.315 1.375 2.404 2.61 3.069 2.64 1.421 4.233 4.149 4.157 7.122-0.035 1.383 0.457 2.719 1.386 3.758 1.993 2.229 2.546 5.334 1.446 8.105zM69.213 38.883c-0.739-1.858-0.739-3.907 0-5.768 0.763-1.92 0.378-4.075-1.004-5.621-1.337-1.495-2.046-3.42-1.995-5.417 0.052-2.063-1.058-3.958-2.896-4.947-1.771-0.953-3.1-2.52-3.745-4.409-0.667-1.959-2.371-3.369-4.445-3.679-1.99-0.298-3.779-1.317-5.037-2.875-1.309-1.62-3.397-2.371-5.46-1.961-1.973 0.398-4.005 0.040-5.722-0.997-1.794-1.082-4.022-1.082-5.816 0-1.716 1.037-3.747 1.392-5.722 0.997-2.061-0.411-4.151 0.341-5.46 1.961-1.256 1.557-3.045 2.579-5.037 2.875-2.074 0.308-3.777 1.718-4.444 3.679-0.644 1.89-1.974 3.457-3.745 4.409-1.839 0.989-2.948 2.884-2.896 4.947 0.050 1.998-0.659 3.922-1.995 5.417-1.381 1.547-1.766 3.701-1.004 5.621 0.739 1.86 0.739 3.908 0 5.768-0.763 1.92-0.378 4.075 1.004 5.621 1.337 1.495 2.046 3.42 1.995 5.417-0.051 2.063 1.058 3.958 2.896 4.947 1.771 0.953 3.1 2.52 3.745 4.409 0.667 1.959 2.371 3.369 4.445 3.679 1.99 0.298 3.779 1.317 5.037 2.875 1.309 1.619 3.397 2.367 5.46 1.961 0.526-0.106 1.056-0.157 1.583-0.157 1.452 0 2.881 0.393 4.141 1.155 1.793 1.080 4.021 1.081 5.814-0.001 1.716-1.037 3.747-1.394 5.722-0.997 2.060 0.406 4.151-0.342 5.46-1.961 1.256-1.557 3.045-2.578 5.037-2.875 2.075-0.308 3.777-1.718 4.444-3.679 0.644-1.89 1.974-3.457 3.745-4.409 1.839-0.989 2.948-2.884 2.896-4.947-0.050-1.998 0.659-3.922 1.995-5.417 1.381-1.547 1.766-3.701 1.004-5.621z"></path>
</svg>
