<!-- Generated by IcoMoon.io -->
<svg version="1.1" xmlns="http://www.w3.org/2000/svg" width="72" height="72" viewBox="0 0 72 72">
<title>uniF162</title>
<path d="M32.386 6.159c0.597 0.396 0.762 1.201 0.366 1.799l-2.364 3.575c-0.249 0.378-0.663 0.582-1.084 0.582-0.247 0-0.495-0.070-0.715-0.215-0.597-0.396-0.762-1.201-0.366-1.799l2.364-3.575c0.396-0.598 1.199-0.762 1.799-0.366zM44.639 13.625l3.628 3.629c0.508 0.507 0.508 1.328 0 1.835-0.253 0.253-0.585 0.38-0.918 0.38-0.331 0-0.665-0.127-0.918-0.38l-3.628-3.629c-0.507-0.508-0.507-1.328 0-1.835s1.328-0.507 1.835 0zM37.348 15.651c0.685-0.218 1.415 0.152 1.637 0.832 0.221 0.683-0.152 1.415-0.833 1.637l-3.585 1.166c-0.134 0.043-0.269 0.064-0.402 0.064-0.546 0-1.055-0.348-1.234-0.896-0.221-0.683 0.152-1.415 0.833-1.637zM29.937 14.453c0.639 0.323 0.894 1.103 0.571 1.743-0.229 0.452-0.685 0.711-1.159 0.711-0.197 0-0.397-0.044-0.585-0.14l-2.408-1.22c-0.64-0.323-0.896-1.105-0.571-1.745 0.323-0.639 1.103-0.898 1.745-0.57zM38.832 7.908l1.22 2.408c0.323 0.64 0.069 1.421-0.571 1.745-0.188 0.096-0.388 0.14-0.585 0.14-0.474 0-0.931-0.26-1.159-0.71l-1.22-2.408c-0.323-0.64-0.069-1.421 0.571-1.745 0.64-0.328 1.42-0.069 1.745 0.57zM53.681 8.164c2.961 4.16 4.015 9.218 4.015 12.566 0 4.731-2.362 8.437-5.377 8.437-0.102 0-0.218-0.005-0.336-0.012l-14.057 41.958c-0.176 0.531-0.672 0.886-1.23 0.886s-1.054-0.357-1.23-0.886l-14.131-42.18c-0.627 0.178-1.216 0.232-1.648 0.232-3.015 0-5.377-3.706-5.377-8.437 0-5.766 3.897-20.729 21.694-20.729 9.814 0 15.032 4.439 17.68 8.164zM49.487 28.426c-0.010-0.006-0.021-0.016-0.031-0.025-0.431-0.264-0.85-0.604-1.216-1.071-0.213 0.274-0.448 0.493-0.689 0.693-0.062 0.053-0.127 0.105-0.193 0.154-0.239 0.175-0.482 0.328-0.729 0.448-0.1 0.049-0.206 0.088-0.312 0.131-0.27 0.108-0.537 0.196-0.794 0.254-0.082 0.018-0.166 0.032-0.251 0.047-0.419 0.075-0.806 0.105-1.111 0.105s-0.692-0.029-1.111-0.105c-0.083-0.014-0.166-0.029-0.247-0.047-0.26-0.060-0.528-0.147-0.8-0.256-0.103-0.041-0.206-0.081-0.305-0.129-0.251-0.119-0.496-0.274-0.737-0.452-0.062-0.047-0.125-0.096-0.184-0.147-0.244-0.2-0.48-0.422-0.696-0.697-0.214 0.274-0.449 0.495-0.692 0.694-0.062 0.053-0.127 0.104-0.192 0.153-0.238 0.176-0.482 0.328-0.728 0.448-0.101 0.049-0.208 0.090-0.314 0.132-0.269 0.108-0.535 0.195-0.792 0.253-0.083 0.018-0.167 0.034-0.252 0.048-0.106 0.019-0.212 0.039-0.313 0.052l1.28 1.28-1.835 1.835-1.835-1.835 1.238-1.237c-0.228-0.013-0.483-0.044-0.752-0.093-0.084-0.016-0.169-0.030-0.252-0.048-0.257-0.058-0.523-0.145-0.792-0.253-0.107-0.043-0.214-0.083-0.315-0.132-0.245-0.119-0.488-0.27-0.726-0.445-0.067-0.051-0.134-0.103-0.197-0.157-0.241-0.2-0.475-0.42-0.689-0.693-0.213 0.274-0.448 0.495-0.689 0.693-0.065 0.054-0.13 0.106-0.197 0.157-0.237 0.175-0.479 0.326-0.725 0.445-0.101 0.049-0.209 0.090-0.315 0.132-0.269 0.108-0.533 0.195-0.79 0.253-0.083 0.018-0.167 0.034-0.252 0.048-0.418 0.077-0.804 0.105-1.109 0.105-0.306 0-0.693-0.030-1.114-0.106-0.082-0.014-0.162-0.027-0.241-0.045-0.262-0.060-0.536-0.148-0.811-0.26-0.099-0.040-0.197-0.077-0.291-0.122-0.256-0.123-0.506-0.28-0.752-0.462-0.057-0.044-0.114-0.088-0.169-0.135-0.245-0.203-0.484-0.426-0.702-0.704-0.053 0.068-0.113 0.119-0.169 0.183l1.593 4.752 0.040-0.040 1.835 1.835-0.955 0.955 3.685 10.999 0.941-0.941 1.835 1.835-1.835 1.835-0.039-0.039 1.863 5.558 0.012-0.012 1.835 1.835-0.927 0.927 3.215 9.595zM52.317 26.57c1.314 0 2.782-2.499 2.782-5.841 0-0.741-0.217-18.133-19.098-18.133-15.668 0-19.099 13.089-19.102 18.131 0 3.342 1.468 5.841 2.782 5.841 0.402 0 1.066-0.005 1.643-0.445 0.021-0.019 0.030-0.048 0.052-0.066 0.402-0.321 0.696-0.842 0.874-1.554 0.008-0.027 0.029-0.047 0.036-0.073 0.11-0.472 0.176-1.049 0.176-1.756 0-0.718 0.582-1.298 1.298-1.298s1.298 0.58 1.298 1.298c0 0.637 0.057 1.16 0.148 1.607 0.009 0.029 0.029 0.049 0.035 0.078 0.343 1.548 1.12 2.209 2.6 2.209 1.508 0 2.292-0.688 2.619-2.301 0.006-0.033 0.026-0.058 0.035-0.090 0.078-0.424 0.127-0.915 0.127-1.503 0-0.718 0.582-1.298 1.298-1.298s1.298 0.58 1.298 1.298c0 0.589 0.049 1.079 0.127 1.503 0.009 0.031 0.029 0.057 0.035 0.090 0.327 1.613 1.111 2.301 2.619 2.301s2.292-0.688 2.619-2.301c0.006-0.033 0.026-0.058 0.035-0.090 0.078-0.424 0.127-0.915 0.127-1.503 0-0.718 0.581-1.298 1.298-1.298s1.298 0.58 1.298 1.298c0 0.589 0.049 1.079 0.127 1.503 0.009 0.031 0.029 0.057 0.035 0.090 0.328 1.613 1.111 2.301 2.619 2.301s2.291-0.688 2.619-2.301c0.006-0.033 0.026-0.058 0.035-0.090 0.078-0.424 0.127-0.915 0.127-1.503 0-0.718 0.581-1.298 1.298-1.298s1.298 0.58 1.298 1.298c0 0.589 0.049 1.079 0.127 1.503 0.009 0.031 0.029 0.057 0.035 0.090 0.334 1.638 1.138 2.027 1.715 2.178 0.052 0.013 0.090 0.047 0.138 0.066 0.292 0.057 0.563 0.058 0.767 0.058zM45.418 34.063l-1.835-1.835 1.835-1.835 1.835 1.835zM39.91 32.226l1.835 1.835-1.835 1.835-1.835-1.835zM43.586 39.569l-1.835-1.835 1.835-1.835 1.835 1.835zM30.733 30.39l1.835 1.835-1.835 1.835-1.835-1.835zM36.239 35.901l-1.835 1.835-1.835-1.835 1.835-1.835zM39.913 39.571l-1.835 1.835-1.835-1.835 1.835-1.835zM41.749 45.076l-1.835-1.835 1.835-1.835 1.835 1.835zM27.062 37.736l1.835-1.835 1.835 1.835-1.835 1.835zM32.567 39.569l1.835 1.835-1.835 1.835-1.835-1.835zM36.242 46.913l-1.835-1.835 1.835-1.835 1.835 1.835zM39.911 50.585l-1.835-1.835 1.835-1.835 1.835 1.835zM34.402 48.747l1.835 1.835-1.835 1.835-1.835-1.835zM38.079 56.091l-1.835-1.835 1.835-1.835 1.835 1.835zM36.243 61.598l-1.835-1.835 1.835-1.835 1.835 1.835z"></path>
</svg>
