<!-- Generated by IcoMoon.io -->
<svg version="1.1" xmlns="http://www.w3.org/2000/svg" width="72" height="72" viewBox="0 0 72 72">
<title>uniF1A6</title>
<path d="M37.115 36l24.161 24.161-0.863 0.863c-6.899 6.899-15.962 10.348-25.024 10.348s-18.126-3.45-25.024-10.348c-6.684-6.685-10.366-15.571-10.366-25.024s3.682-18.339 10.366-25.024c13.798-13.801 36.25-13.798 50.048 0l0.863 0.863-14.177 14.177zM46.373 21.356c0 0.533 0.173 1.036 0.486 1.45l3.405-3.406c-0.412-0.31-0.916-0.484-1.45-0.484-1.346 0-2.441 1.095-2.441 2.441zM48.814 16.474c1.193 0 2.306 0.437 3.178 1.198l2.364-2.364c-5.35-4.91-12.158-7.364-18.965-7.364-7.188 0-14.376 2.736-19.848 8.207-10.943 10.943-10.943 28.75 0 39.694 10.654 10.655 27.813 10.935 38.813 0.844l-20.691-20.691 11.465-11.466c-0.76-0.871-1.197-1.984-1.197-3.178 0-2.692 2.189-4.881 4.881-4.881zM35.39 68.949c8.393 0 16.307-3.117 22.42-8.803l-1.732-1.732c-5.827 5.383-13.257 8.080-20.688 8.080-7.813 0-15.625-2.974-21.573-8.922-11.895-11.895-11.895-31.251 0-43.145 11.605-11.607 30.311-11.882 42.261-0.841l1.732-1.732c-6.113-5.687-14.027-8.803-22.42-8.803-8.801 0-17.076 3.427-23.299 9.65s-9.651 14.498-9.651 23.299 3.427 17.076 9.651 23.299 14.498 9.65 23.299 9.65zM63.967 17.788c5.106 4.337 8.033 11.162 8.033 18.724s-2.928 14.387-8.035 18.724l-0.808 0.687-3.374-2.998-0.081 0.068-19.297-17.295 22.402-18.865zM44.132 35.753l15.646 13.9c3.084-3.118 4.9-7.932 4.9-13.141 0-5.444-1.981-10.463-5.322-13.558l-1.809 1.521c0.654 0.843 1.029 1.884 1.029 2.983 0 2.692-2.189 4.881-4.881 4.881-1.394 0-2.688-0.603-3.597-1.6zM56.136 27.458c0-0.515-0.162-1.007-0.453-1.414l-3.721 3.128c0.45 0.456 1.071 0.727 1.733 0.727 1.346 0 2.441-1.095 2.441-2.441zM63.171 52.667c4.073-3.89 6.389-9.715 6.389-16.156 0-6.629-2.453-12.604-6.749-16.49l-1.615 1.359c3.711 3.565 5.922 9.124 5.922 15.132 0 5.793-2.055 11.176-5.531 14.749zM58.576 36c2.692 0 4.881 2.189 4.881 4.881s-2.189 4.881-4.881 4.881-4.881-2.189-4.881-4.881 2.189-4.881 4.881-4.881zM58.576 43.322c1.346 0 2.441-1.095 2.441-2.441s-1.095-2.441-2.441-2.441c-1.346 0-2.441 1.095-2.441 2.441s1.095 2.441 2.441 2.441zM35.39 54.305c0-2.692 2.189-4.881 4.881-4.881s4.881 2.189 4.881 4.881c0 2.692-2.189 4.881-4.881 4.881s-4.881-2.189-4.881-4.881zM40.271 51.864c-1.346 0-2.441 1.095-2.441 2.441s1.095 2.441 2.441 2.441c1.346 0 2.441-1.095 2.441-2.441s-1.095-2.441-2.441-2.441zM23.187 45.763c2.692 0 4.881 2.189 4.881 4.881s-2.189 4.881-4.881 4.881c-2.692 0-4.881-2.189-4.881-4.881s2.189-4.881 4.881-4.881zM23.187 53.085c1.346 0 2.441-1.095 2.441-2.441s-1.095-2.441-2.441-2.441c-1.346 0-2.441 1.095-2.441 2.441s1.095 2.441 2.441 2.441zM14.644 32.339c2.692 0 4.881 2.189 4.881 4.881s-2.189 4.881-4.881 4.881-4.881-2.189-4.881-4.881 2.189-4.881 4.881-4.881zM14.644 39.661c1.346 0 2.441-1.095 2.441-2.441s-1.095-2.441-2.441-2.441c-1.346 0-2.441 1.095-2.441 2.441s1.095 2.441 2.441 2.441zM19.526 26.237c-2.692 0-4.881-2.189-4.881-4.881s2.189-4.881 4.881-4.881 4.881 2.189 4.881 4.881-2.189 4.881-4.881 4.881zM19.526 18.915c-1.346 0-2.441 1.095-2.441 2.441s1.095 2.441 2.441 2.441c1.346 0 2.441-1.095 2.441-2.441s-1.095-2.441-2.441-2.441zM34.169 10.373c2.692 0 4.881 2.189 4.881 4.881s-2.189 4.881-4.881 4.881-4.881-2.189-4.881-4.881 2.189-4.881 4.881-4.881zM34.169 17.695c1.346 0 2.441-1.094 2.441-2.441s-1.095-2.441-2.441-2.441c-1.346 0-2.441 1.094-2.441 2.441s1.095 2.441 2.441 2.441zM58.576 34.78c-0.674 0-1.22-0.545-1.22-1.22 0-2.692 2.189-4.881 4.881-4.881 0.674 0 1.22 0.545 1.22 1.22s-0.547 1.22-1.22 1.22c-1.346 0-2.441 1.095-2.441 2.441 0 0.675-0.547 1.22-1.22 1.22zM18.305 31.119c0-2.692 2.189-4.881 4.881-4.881 0.674 0 1.22 0.545 1.22 1.22s-0.547 1.22-1.22 1.22c-1.346 0-2.441 1.095-2.441 2.441 0 0.675-0.547 1.22-1.22 1.22s-1.22-0.545-1.22-1.22zM31.392 53.808c2.194 1.558 2.713 4.612 1.154 6.808-0.237 0.336-0.614 0.514-0.996 0.514-0.245 0-0.492-0.073-0.705-0.226-0.55-0.39-0.68-1.152-0.289-1.702 0.779-1.097 0.519-2.624-0.579-3.404-0.549-0.39-0.678-1.153-0.288-1.702 0.391-0.548 1.153-0.679 1.702-0.288zM35.39 23.797c0.674 0 1.22 0.545 1.22 1.22 0 1.513-1.231 2.746-2.746 2.746-0.168 0-0.305 0.137-0.305 0.305 0 1.513-1.231 2.746-2.746 2.746-0.168 0-0.305 0.137-0.305 0.305 0 0.675-0.547 1.22-1.22 1.22s-1.22-0.545-1.22-1.22c0-1.513 1.231-2.746 2.746-2.746 0.168 0 0.305-0.137 0.305-0.305 0-1.513 1.231-2.746 2.746-2.746 0.168 0 0.305-0.137 0.305-0.305 0-0.675 0.547-1.22 1.22-1.22zM30.867 41.61c-0.243 0-0.486-0.033-0.726-0.098-0.708-0.194-1.298-0.652-1.662-1.289-0.084-0.145-0.27-0.199-0.416-0.113-1.314 0.752-2.995 0.293-3.746-1.021-0.052-0.091-0.129-0.128-0.184-0.144-0.055-0.015-0.14-0.023-0.232 0.029-0.586 0.338-1.33 0.132-1.665-0.454-0.334-0.585-0.131-1.331 0.454-1.665 0.637-0.365 1.377-0.46 2.084-0.266s1.298 0.652 1.662 1.289c0.084 0.144 0.27 0.197 0.416 0.113 1.313-0.754 2.995-0.293 3.746 1.021 0.052 0.092 0.129 0.128 0.184 0.144s0.142 0.023 0.232-0.029c0.588-0.334 1.331-0.13 1.665 0.454 0.334 0.585 0.13 1.331-0.454 1.665-0.42 0.24-0.886 0.364-1.358 0.364zM33.346 46.808c0.048-0.032 0.11-0.091 0.133-0.194 0.151-0.718 0.574-1.334 1.187-1.734 0.614-0.401 1.347-0.539 2.066-0.386 0.159 0.037 0.326-0.072 0.361-0.236 0.139-0.66 0.786-1.079 1.446-0.942 0.659 0.14 1.081 0.787 0.942 1.446-0.312 1.481-1.772 2.427-3.252 2.121-0.103-0.019-0.182 0.011-0.231 0.043-0.048 0.031-0.109 0.089-0.131 0.192-0.151 0.719-0.573 1.335-1.187 1.735-0.615 0.401-1.351 0.538-2.066 0.386-0.101-0.021-0.181 0.011-0.23 0.043-0.049 0.031-0.11 0.090-0.132 0.193-0.122 0.575-0.628 0.969-1.193 0.969-0.084 0-0.168-0.007-0.253-0.026-0.66-0.139-1.082-0.786-0.943-1.446 0.151-0.718 0.572-1.334 1.186-1.734s1.349-0.542 2.066-0.387c0.105 0.024 0.182-0.011 0.229-0.043z"></path>
</svg>
