<!-- Generated by IcoMoon.io -->
<svg version="1.1" xmlns="http://www.w3.org/2000/svg" width="72" height="72" viewBox="0 0 72 72">
<title>uniF1CA</title>
<path d="M69.655 38.311c2.944 5.026 3.13 11.027 0.482 15.66-2.356 4.127-7.951 9.057-21.23 9.097h-26.383c-0.262 0-0.482-0.024-0.726-0.035-12.335-0.353-17.658-5.075-19.936-9.062-2.648-4.635-2.462-10.636 0.482-15.66 2.471-4.212 6.285-6.725 10.288-6.678 3.009 0.031 5.227-0.721 6.35-2.22 1.109-1.481 1.091-3.488 0.931-4.766h-6.041c-2.833 0-5.136-2.303-5.136-5.136v-5.444c0-2.833 2.304-5.136 5.136-5.136h43.865c2.833 0 5.136 2.304 5.136 5.136v5.445c0 2.833-2.303 5.136-5.136 5.136h-5.651c-0.162 1.282-0.18 3.292 0.943 4.78s3.231 2.157 6.34 2.206h0.075c3.945 0 7.758 2.49 10.211 6.677zM13.872 21.156v-0.002h43.865c0.907 0 1.643-0.735 1.643-1.643v-5.444c0-0.906-0.735-1.643-1.643-1.643h-43.865c-0.906 0-1.643 0.735-1.643 1.643v5.445c0 0.906 0.735 1.643 1.643 1.643zM23.104 59.578v0.002h23.933c3.739 0 6.53-0.983 7.286-2.566 0.704-1.469-0.51-3.315-1.292-4.286-1.495-1.851-3.463-5.059-5.367-8.159-1.808-2.944-3.676-5.989-4.963-7.576-1.891-2.335-4.17-3.61-6.439-3.61-0.058 0-0.113 0.002-0.169 0.002-2.309 0.065-4.56 1.457-6.338 3.917-1.36 1.886-3.252 5.237-5.082 8.479-1.909 3.381-3.882 6.877-5.398 8.97-1.053 1.453-1.462 2.756-1.090 3.484 0.363 0.711 1.589 1.177 3.343 1.305 0.515 0.018 1.030 0.037 1.577 0.038zM67.105 52.241c2.426-4.246 1.35-9.067-0.465-12.166-1.818-3.103-4.506-4.951-7.197-4.951-0.068 0.002-0.148 0-0.224 0-4.172 0-7.199-1.215-8.998-3.619-1.68-2.244-1.822-4.976-1.649-6.86h-25.143c0.173 1.884 0.031 4.616-1.649 6.86-1.799 2.403-4.824 3.619-8.998 3.619h-0.224c-2.691 0-5.379 1.848-7.199 4.951-1.813 3.096-2.889 7.917-0.463 12.164 1.35 2.363 4.13 5.047 9.785 6.42-0.374-1.766 0.218-3.833 1.762-5.962 1.399-1.93 3.324-5.339 5.183-8.636 1.963-3.477 3.818-6.762 5.293-8.807 2.426-3.362 5.65-5.267 9.071-5.363 0.089-0.002 0.18-0.003 0.269-0.003 3.341 0 6.581 1.734 9.15 4.904 1.43 1.767 3.273 4.771 5.224 7.948 1.846 3.009 3.755 6.118 5.106 7.791 3.032 3.751 2.386 6.615 1.731 7.986-0.021 0.045-0.056 0.084-0.079 0.128 5.604-1.378 8.365-4.048 9.71-6.402zM35.321 40.367c0-1.164 0.582-1.746 1.746-1.746s1.747 0.582 1.747 1.746-0.582 1.746-1.747 1.746c-1.164 0-1.746-0.582-1.746-1.746zM30.082 45.606c0-1.164 0.582-1.746 1.746-1.746s1.746 0.582 1.746 1.746c0 1.164-0.582 1.747-1.746 1.747s-1.746-0.582-1.746-1.747zM38.814 49.099c0-1.164 0.582-1.746 1.746-1.746s1.746 0.582 1.746 1.746-0.582 1.746-1.746 1.746-1.746-0.582-1.746-1.746z"></path>
</svg>
