<!-- Generated by IcoMoon.io -->
<svg version="1.1" xmlns="http://www.w3.org/2000/svg" width="72" height="72" viewBox="0 0 72 72">
<title>uniF145</title>
<path d="M34.78 42.712c0-0.814 0.407-1.22 1.22-1.22s1.22 0.407 1.22 1.22c0 0.814-0.407 1.22-1.22 1.22s-1.22-0.407-1.22-1.22zM34.78 47.593c0-0.814 0.407-1.22 1.22-1.22s1.22 0.407 1.22 1.22c0 0.814-0.407 1.22-1.22 1.22s-1.22-0.407-1.22-1.22zM42.102 17.085c0 1.461-0.463 2.75-1.388 3.87s-2.090 1.822-3.493 2.109v12.5c1.063 0.276 1.939 0.85 2.628 1.72s1.033 1.867 1.033 2.988v26.847c0 1.346-0.477 2.496-1.431 3.45s-2.104 1.431-3.45 1.431-2.496-0.477-3.45-1.431-1.431-2.104-1.431-3.45v-26.847c0-1.121 0.344-2.117 1.033-2.988s1.565-1.444 2.628-1.72v-12.5c-1.403-0.286-2.567-0.989-3.493-2.109s-1.388-2.409-1.388-3.87v-15.864c0-0.814 0.407-1.22 1.22-1.22s1.22 0.407 1.22 1.22v15.864c0 1.711 0.814 2.856 2.441 3.437v-19.301c0-0.814 0.407-1.22 1.22-1.22s1.22 0.407 1.22 1.22v19.301c1.627-0.58 2.441-1.726 2.441-3.437v-15.864c0-0.814 0.407-1.22 1.22-1.22s1.22 0.407 1.22 1.22v15.864zM38.441 40.271c0-0.673-0.239-1.248-0.716-1.725s-1.052-0.716-1.725-0.716c-0.673 0-1.248 0.239-1.725 0.716s-0.715 1.052-0.715 1.725v26.847c0 0.673 0.239 1.248 0.715 1.725s1.052 0.716 1.725 0.716c0.673 0 1.248-0.239 1.725-0.716s0.716-1.052 0.716-1.725v-26.847z"></path>
</svg>
