<!-- Generated by IcoMoon.io -->
<svg version="1.1" xmlns="http://www.w3.org/2000/svg" width="72" height="72" viewBox="0 0 72 72">
<title>uniF19F</title>
<path d="M25.705 25.226l4.096 3.030c0.566 0.418 0.685 1.215 0.266 1.781l-3.031 4.097c-0.2 0.271-0.501 0.453-0.836 0.503-0.061 0.009-0.125 0.014-0.187 0.014-0.271 0-0.538-0.086-0.758-0.25l-4.096-3.032c-0.566-0.418-0.685-1.217-0.266-1.781l3.031-4.096c0.418-0.566 1.215-0.688 1.781-0.266zM25.746 31.595l1.515-2.047-2.047-1.515-1.515 2.047zM64.141 28.854c0.69 0.139 1.138 0.809 0.999 1.498l-0.998 4.998c-0.12 0.606-0.652 1.026-1.247 1.026-0.082 0-0.167-0.008-0.25-0.025l-4.998-0.998c-0.69-0.139-1.138-0.809-1-1.498l0.998-4.998c0.138-0.69 0.81-1.145 1.498-1zM61.893 33.602l0.499-2.498-2.498-0.499-0.499 2.498zM49.108 31.161l1.385 4.906c0.192 0.676-0.201 1.381-0.879 1.571l-4.905 1.385c-0.115 0.033-0.231 0.048-0.347 0.048-0.555 0-1.066-0.368-1.224-0.929l-1.385-4.905c-0.192-0.676 0.201-1.381 0.879-1.571l4.905-1.385c0.671-0.195 1.38 0.201 1.571 0.879zM45.242 36.222l2.452-0.692-0.692-2.452-2.453 0.692zM72 34.714c0 4.964-3.561 8.764-8.374 9.079l-2.851 2.733c-1.539 1.475-2.228 2.366-3.272 3.715-0.345 0.447-0.725 0.938-1.178 1.506-3.41 4.272-6.818 6.095-11.395 6.095h-17.305c-4.575 0-7.983-1.822-11.395-6.095-0.456-0.571-0.835-1.060-1.18-1.507-1.042-1.349-1.731-2.238-3.27-3.714l-2.849-2.729c-5.017-0.313-8.932-4.261-8.932-9.082 0-1.679 0.885-3.195 2.635-4.52-0.059-0.352-0.087-0.684-0.087-1.018 0-1.805 0.68-3.502 1.924-4.811l1.403-3.789c0.242-0.661 0.977-1 1.636-0.753l5.779 2.136c1.317-1.479 3.191-2.339 5.184-2.339 1.329 0 2.609 0.374 3.716 1.074 1.316-1.474 3.208-2.348 5.202-2.348 1.094 0 2.161 0.257 3.135 0.753 1.405-1.299 3.228-2.027 5.146-2.027 0.242 0 0.489 0.014 0.75 0.043l0.877-0.736 2.279-1.919c0.103-0.088 0.224-0.144 0.347-0.196 0.182-0.078 0.377-0.125 0.584-0.099 0.336 0.029 0.648 0.191 0.865 0.45l3.163 3.757c1.777 0.152 3.431 0.994 4.618 2.322 1.107-0.699 2.387-1.074 3.716-1.074 2.412 0 4.625 1.261 5.892 3.253 0.942-0.465 1.967-0.705 3.026-0.705 3.863 0 7.007 3.144 7.007 7.007 0 0.191-0.009 0.383-0.025 0.578 2.144 1.426 3.23 3.091 3.23 4.96zM40.244 17.23l-1.948 1.641 1.64 1.948 1.949-1.64zM12.457 24.369l-4.637-1.715-1.715 4.637 4.637 1.715zM59.014 44.687l1.208-1.154c-0.396-0.084-0.778-0.191-1.152-0.308-0.093-0.029-0.182-0.061-0.274-0.093-0.292-0.099-0.574-0.209-0.851-0.327-0.089-0.038-0.18-0.075-0.266-0.116-0.689-0.317-1.32-0.694-1.883-1.124-0.073-0.056-0.141-0.115-0.213-0.172-0.208-0.168-0.404-0.343-0.59-0.525-0.068-0.066-0.136-0.131-0.201-0.199-0.233-0.243-0.452-0.494-0.646-0.759-1.745 2.338-5.081 3.92-8.899 3.92-3.832 0-7.178-1.595-8.918-3.947-1.74 2.352-5.086 3.947-8.918 3.947s-7.178-1.595-8.918-3.947c-0.196 0.265-0.418 0.516-0.654 0.761-0.069 0.071-0.143 0.14-0.215 0.21-0.183 0.177-0.377 0.348-0.58 0.512-0.079 0.064-0.155 0.129-0.237 0.19-0.566 0.428-1.196 0.807-1.882 1.125-0.098 0.046-0.199 0.087-0.299 0.13-0.264 0.113-0.534 0.218-0.812 0.313-0.104 0.036-0.208 0.074-0.315 0.107-0.374 0.119-0.757 0.225-1.153 0.31l1.196 1.147c1.677 1.605 2.451 2.607 3.524 3.994 0.338 0.437 0.708 0.917 1.154 1.475 2.914 3.649 5.639 5.137 9.405 5.137h17.303c3.766 0 6.491-1.488 9.405-5.137 0.443-0.557 0.815-1.036 1.153-1.474 1.074-1.387 1.85-2.389 3.526-3.995zM63.031 41.276c3.655-0.018 6.421-2.839 6.425-6.564 0-1.098-0.91-2.179-2.703-3.214-0.48-0.278-0.727-0.833-0.608-1.375 0.073-0.333 0.107-0.642 0.107-0.948 0-2.459-2-4.459-4.459-4.459-0.99 0-1.94 0.34-2.748 0.981-0.324 0.256-0.749 0.34-1.142 0.228-0.396-0.113-0.712-0.408-0.851-0.795-0.636-1.77-2.315-2.961-4.177-2.961-1.152 0-2.247 0.445-3.086 1.252-0.283 0.271-0.666 0.405-1.062 0.345-0.388-0.055-0.73-0.284-0.926-0.624-0.813-1.408-2.251-2.247-3.845-2.247-0.056 0-0.11 0.010-0.166 0.014l-3.185 2.681c-0.239 0.2-0.53 0.298-0.819 0.298-0.364 0-0.725-0.154-0.976-0.453l-3.203-3.805c-1.493 0.020-2.901 0.705-3.869 1.898-0.427 0.524-1.187 0.626-1.737 0.228-0.776-0.563-1.678-0.86-2.608-0.86-1.594 0-3.032 0.841-3.845 2.247-0.198 0.339-0.538 0.57-0.926 0.624-0.395 0.054-0.78-0.075-1.062-0.345-0.838-0.806-1.934-1.252-3.086-1.252-1.185 0-2.292 0.502-3.117 1.344 0.015 0.183 0 0.369-0.066 0.545l-2.599 7.027c-0.19 0.515-0.678 0.832-1.195 0.832-0.148 0-0.297-0.025-0.442-0.080l-5.919-2.189c0.031 0.231 0.078 0.474 0.157 0.75 0.153 0.54-0.065 1.116-0.536 1.419-1.465 0.943-2.208 1.916-2.208 2.894 0 3.621 3.107 6.565 6.928 6.565 4.241 0 7.742-2.334 7.742-5.096 0-0.705 0.57-1.274 1.274-1.274s1.274 0.57 1.274 1.274c0 2.762 3.501 5.096 7.644 5.096s7.644-2.334 7.644-5.096c0-0.705 0.57-1.274 1.274-1.274s1.274 0.57 1.274 1.274c0 2.762 3.501 5.096 7.644 5.096s7.644-2.334 7.644-5.096c0-0.705 0.57-1.274 1.274-1.274s1.274 0.57 1.274 1.274c0 2.79 3.407 5.074 7.593 5.094z"></path>
</svg>
