<!-- Generated by IcoMoon.io -->
<svg version="1.1" xmlns="http://www.w3.org/2000/svg" width="72" height="72" viewBox="0 0 72 72">
<title>uniF197</title>
<path d="M72 43.8c0 1.962-1.579 3.557-3.533 3.593-1.547 2.070-4.321 4.195-7.26 6.437-5.066 3.862-10.807 8.239-10.807 12.77v1.2h-28.8v-1.2c0-4.531-5.741-8.909-10.807-12.77-2.94-2.242-5.713-4.367-7.26-6.437-1.954-0.036-3.533-1.631-3.533-3.593 0-1.985 1.615-3.6 3.6-3.6h64.8c1.985 0 3.6 1.615 3.6 3.6zM3.6 42.6c-0.662 0-1.2 0.538-1.2 1.2s0.538 1.2 1.2 1.2h64.8c0.662 0 1.2-0.538 1.2-1.2s-0.538-1.2-1.2-1.2h-64.8zM23.909 65.4h24.182c0.063-0.406 0.163-0.804 0.283-1.2h-24.749c0.12 0.396 0.222 0.794 0.283 1.2zM59.752 51.922c2.080-1.586 4.080-3.11 5.519-4.522h-58.542c1.44 1.411 3.44 2.937 5.52 4.522 3.89 2.966 8.142 6.212 10.307 9.878h26.89c2.165-3.666 6.416-6.912 10.307-9.878zM12 39c-0.664 0-1.2-0.536-1.2-1.2 0-7.278 5.922-13.2 13.2-13.2h2.4c0.664 0 1.2 0.536 1.2 1.2s-0.536 1.2-1.2 1.2h-2.4c-5.956 0-10.8 4.844-10.8 10.8 0 0.664-0.536 1.2-1.2 1.2zM30 31.8c0.664 0 1.2 0.536 1.2 1.2s-0.536 1.2-1.2 1.2h-6c-1.985 0-3.6 1.615-3.6 3.6 0 0.664-0.536 1.2-1.2 1.2s-1.2-0.536-1.2-1.2c0-3.308 2.692-6 6-6h6zM28.8 30.6h-4.8c-3.971 0-7.2 3.229-7.2 7.2 0 0.664-0.536 1.2-1.2 1.2s-1.2-0.536-1.2-1.2c0-5.293 4.307-9.6 9.6-9.6h4.8c0.664 0 1.2 0.536 1.2 1.2s-0.536 1.2-1.2 1.2zM30 35.4c0.664 0 1.2 0.536 1.2 1.2s-0.536 1.2-1.2 1.2h-6c-0.664 0-1.2-0.536-1.2-1.2s0.536-1.2 1.2-1.2h6zM38.4 24.6h8.4c7.278 0 13.2 5.922 13.2 13.2 0 0.664-0.536 1.2-1.2 1.2s-1.2-0.536-1.2-1.2c0-5.956-4.844-10.8-10.8-10.8h-8.4c-0.664 0-1.2-0.536-1.2-1.2s0.536-1.2 1.2-1.2zM50.4 37.8c0-1.985-1.615-3.6-3.6-3.6h-6c-0.664 0-1.2-0.536-1.2-1.2s0.536-1.2 1.2-1.2h6c3.308 0 6 2.691 6 6 0 0.664-0.536 1.2-1.2 1.2s-1.2-0.536-1.2-1.2zM55.2 39c-0.664 0-1.2-0.536-1.2-1.2 0-3.971-3.229-7.2-7.2-7.2h-7.2c-0.664 0-1.2-0.536-1.2-1.2s0.536-1.2 1.2-1.2h7.2c5.293 0 9.6 4.307 9.6 9.6 0 0.664-0.536 1.2-1.2 1.2zM40.8 35.4h6c0.664 0 1.2 0.536 1.2 1.2s-0.536 1.2-1.2 1.2h-6c-0.664 0-1.2-0.536-1.2-1.2s0.536-1.2 1.2-1.2zM33.6 39c-0.664 0-1.2-0.536-1.2-1.2 0-10.498-3.14-15.6-9.6-15.6-0.662 0-1.2 0.538-1.2 1.2 0 0.664-0.536 1.2-1.2 1.2s-1.2-0.536-1.2-1.2c0-1.985 1.615-3.6 3.6-3.6 5.474 0 12 3.124 12 18 0 0.664-0.536 1.2-1.2 1.2zM15.6 27c-0.664 0-1.2-0.536-1.2-1.2v-1.2c0-4.631 3.769-8.4 8.4-8.4 9.769 0 15.6 8.075 15.6 21.6 0 0.664-0.536 1.2-1.2 1.2s-1.2-0.536-1.2-1.2c0-5.773-1.286-19.2-13.2-19.2-3.308 0-6 2.692-6 6v1.2c0 0.664-0.536 1.2-1.2 1.2zM39.6 23.4c-2.647 0-4.8-2.153-4.8-4.8s2.153-4.8 4.8-4.8c2.647 0 4.8 2.153 4.8 4.8s-2.153 4.8-4.8 4.8zM39.6 16.2c-1.324 0-2.4 1.076-2.4 2.4s1.076 2.4 2.4 2.4c1.324 0 2.4-1.076 2.4-2.4s-1.076-2.4-2.4-2.4zM30.6 17.4c-2.977 0-5.4-2.423-5.4-5.4s2.423-5.4 5.4-5.4c2.977 0 5.4 2.423 5.4 5.4s-2.423 5.4-5.4 5.4zM30.6 9c-1.655 0-3 1.345-3 3s1.345 3 3 3c1.655 0 3-1.345 3-3s-1.345-3-3-3zM45.6 19.8c0-2.647 2.153-4.8 4.8-4.8s4.8 2.153 4.8 4.8c0 2.647-2.153 4.8-4.8 4.8s-4.8-2.153-4.8-4.8zM50.4 17.4c-1.324 0-2.4 1.076-2.4 2.4s1.076 2.4 2.4 2.4c1.324 0 2.4-1.076 2.4-2.4s-1.076-2.4-2.4-2.4zM43.2 13.8c-2.647 0-4.8-2.153-4.8-4.8s2.153-4.8 4.8-4.8c2.647 0 4.8 2.153 4.8 4.8s-2.153 4.8-4.8 4.8zM43.2 6.6c-1.324 0-2.4 1.076-2.4 2.4s1.076 2.4 2.4 2.4 2.4-1.076 2.4-2.4-1.076-2.4-2.4-2.4z"></path>
</svg>
