<!-- Generated by IcoMoon.io -->
<svg version="1.1" xmlns="http://www.w3.org/2000/svg" width="72" height="72" viewBox="0 0 72 72">
<title>uniF1DB</title>
<path d="M54.295 23.141c0 0.028 0.001 0.054 0 0.081-0.002 0.024 0.002 0.048-0.001 0.071l-5.639 42.712c-0.317 3.399-3.169 5.996-6.629 5.996h-12.053c-3.459 0-6.31-2.597-6.631-6.042l-5.633-42.667c-0.004-0.023 0-0.046-0.001-0.070-0.002-0.027-0.001-0.052-0.001-0.081-0.001-0.156 0.020-0.309 0.076-0.452 0.001-0.002 0-0.006 0.001-0.010l3.796-9.492c0.785-1.961 2.583-3.264 4.658-3.443v-5.825c0-2.162 1.759-3.921 3.921-3.921h11.683c2.163 0 3.921 1.759 3.921 3.921v5.824c2.075 0.179 3.873 1.481 4.659 3.443l3.796 9.493c0.001 0.002 0 0.006 0.001 0.010 0.055 0.143 0.077 0.295 0.076 0.452zM28.678 3.921v5.788h14.644v-5.788c0-0.816-0.664-1.48-1.48-1.48h-11.683c-0.816 0-1.48 0.664-1.48 1.48zM23.845 14.095l-3.259 8.153c0.515 0.118 1.031 0.232 1.549 0.337 0.578 0.118 1.156 0.243 1.737 0.345 0.772 0.138 1.55 0.247 2.326 0.358 0.57 0.081 1.137 0.173 1.71 0.24 0.831 0.098 1.666 0.162 2.5 0.229 0.519 0.041 1.036 0.1 1.555 0.131 1.17 0.067 2.343 0.098 3.515 0.106 0.353 0.002 0.705 0.002 1.058 0 1.173-0.010 2.344-0.039 3.516-0.107 0.493-0.028 0.985-0.084 1.477-0.123 0.863-0.070 1.726-0.136 2.585-0.237 0.55-0.065 1.097-0.154 1.646-0.232 0.798-0.113 1.595-0.227 2.388-0.367 0.57-0.101 1.137-0.223 1.706-0.339 0.523-0.107 1.044-0.222 1.566-0.34l-3.262-8.154c-0.472-1.181-1.601-1.944-2.873-1.944h-18.565c-1.272 0-2.4 0.763-2.873 1.945zM46.23 65.73l5.411-41.003c-0.488 0.11-0.981 0.188-1.472 0.287-0.56 0.112-1.119 0.228-1.682 0.327-0.859 0.153-1.723 0.277-2.588 0.398-0.514 0.071-1.026 0.152-1.541 0.212-0.985 0.115-1.972 0.197-2.961 0.271-0.399 0.031-0.797 0.076-1.197 0.099-2.796 0.164-5.601 0.164-8.398 0-0.409-0.024-0.816-0.071-1.225-0.101-0.979-0.074-1.956-0.155-2.931-0.268-0.522-0.061-1.041-0.143-1.562-0.215-0.858-0.12-1.715-0.244-2.569-0.394-0.565-0.1-1.128-0.216-1.69-0.33-0.489-0.099-0.981-0.177-1.468-0.286l5.407 40.958c0.21 2.228 2.017 3.875 4.209 3.875h12.053c2.192 0 4-1.646 4.204-3.83zM32.821 64.68c0.672 0.041 1.184 0.622 1.142 1.294-0.040 0.648-0.578 1.145-1.217 1.145-0.027 0-0.051-0.001-0.077-0.002-3.378-0.212-4.615-3.19-4.797-4.736l-1.624-12.185c-0.090-0.668 0.38-1.281 1.048-1.371 0.674-0.091 1.281 0.38 1.371 1.048l1.627 12.203c0.034 0.261 0.387 2.471 2.527 2.604z"></path>
</svg>
