<!-- Generated by IcoMoon.io -->
<svg version="1.1" xmlns="http://www.w3.org/2000/svg" width="72" height="72" viewBox="0 0 72 72">
<title>uniF104</title>
<path d="M70.585 1.693c0.596 0.46 0.707 1.316 0.248 1.911-0.461 0.596-1.316 0.708-1.913 0.248-1.385-1.068-3.236-1.386-5.216-0.9-1.855 0.457-3.589 1.589-4.991 3.169 3.581 4.11 4.214 9.587 1.723 15.778l-6.929 23.311c-1.626 5.462-4.080 10.215-7.291 14.126-6.024 7.334-14.993 12.663-23.899 12.663-4.24 0-8.462-1.207-12.348-3.981-12.048-8.6-10.916-25.173-3.57-37.099 2.656-4.309 6.353-8.174 10.99-11.486l19.892-14.208c6.053-5.247 12.714-5.845 18.653-1.606 0.271 0.194 0.524 0.397 0.778 0.6 1.76-1.957 3.977-3.333 6.341-3.915 2.802-0.69 5.476-0.196 7.533 1.389zM57.863 21.001c1.825-4.551 2.655-10.758-3.515-15.163-2.29-1.634-4.503-2.277-6.566-2.277-3.491 0-6.545 1.838-8.817 3.803l-19.99 14.287c-4.339 3.099-7.788 6.699-10.252 10.698-6.683 10.849-7.855 25.821 2.832 33.448 10.688 7.63 24.463 1.655 32.553-8.193 2.981-3.629 5.263-8.061 6.785-13.172zM52.763 8.059c4.383 3.128 3.694 7.023 2.296 10.769-0.944 2.528-1.671 4.86-2.223 7.133l-3.925 16.12c-1.581 4.63-3.73 8.609-6.421 11.946-5.335 6.613-13.109 11.58-20.408 11.58-2.968 0-5.858-0.821-8.473-2.687-9.043-6.455-7.336-20.079-0.977-30.202 2.28-3.63 5.343-6.954 9.108-9.883l10.868-6.949c2.9-1.852 6.296-4.094 9.493-6.679 2.846-2.297 6.338-4.233 10.661-1.147zM52.503 17.872c1.464-3.923 1.129-5.839-1.325-7.591-2.408-1.718-4.263-1.452-7.361 1.049-3.303 2.668-6.777 4.963-9.741 6.855l-10.765 6.875c-3.409 2.66-6.26 5.75-8.37 9.108-5.68 9.040-7.417 21.056 0.252 26.53 7.669 5.476 18.468-0.075 25.171-8.385 2.491-3.088 4.485-6.788 5.929-10.998l3.891-16c0.58-2.379 1.337-4.814 2.319-7.443zM37.221 29.857c2.479 1.769 3.378 5.596 2.532 10.775-0.684 4.177-2.465 8.754-4.541 11.662-2.052 2.878-4.93 4.92-8.103 5.751-1.026 0.269-2.045 0.401-3.038 0.401-2.162 0-4.2-0.63-5.926-1.862-5.117-3.652-5.785-11.518-1.491-17.536 3.877-5.429 14.905-13.229 20.567-9.192zM37.060 40.193c0.651-3.98 0.119-7.014-1.423-8.115-0.578-0.412-1.315-0.598-2.16-0.598-4.369 0-11.616 4.97-14.602 9.154-3.42 4.794-3.037 10.953 0.857 13.73 1.844 1.318 4.219 1.685 6.686 1.042 2.556-0.67 4.892-2.338 6.574-4.697h0.001c1.85-2.592 3.447-6.721 4.066-10.516zM18.202 47.807c0-1.364 0.682-2.046 2.046-2.046s2.046 0.682 2.046 2.046-0.682 2.046-2.046 2.046c-1.364 0-2.046-0.682-2.046-2.046zM23.694 43.431c0-1.364 0.682-2.046 2.046-2.046s2.046 0.682 2.046 2.046c0 1.364-0.682 2.046-2.046 2.046s-2.046-0.682-2.046-2.046zM24.259 50.943c0-1.364 0.682-2.046 2.046-2.046s2.046 0.682 2.046 2.046-0.682 2.046-2.046 2.046-2.046-0.682-2.046-2.046z"></path>
</svg>
