<!-- Generated by IcoMoon.io -->
<svg version="1.1" xmlns="http://www.w3.org/2000/svg" width="72" height="72" viewBox="0 0 72 72">
<title>uniF17C</title>
<path d="M66.951 39.19v0.001h5.048v1.262c0 15.313-12.457 27.77-27.77 27.77-2.256 0-4.448-0.278-6.55-0.788-3.782 1.264-7.584 1.906-11.246 1.906-4.816 0-9.382-1.084-13.328-3.229-2.473 2.282-6.343 2.222-8.741-0.178-2.319-2.317-2.453-6.006-0.403-8.482-7.542-12.216-4.090-29.865 8.437-42.392 12.526-12.526 30.173-15.983 42.392-8.436 2.477-2.049 6.165-1.916 8.484 0.403 1.188 1.188 1.843 2.772 1.843 4.462 0 1.603-0.588 3.113-1.665 4.278 3.611 6.646 4.217 15.044 1.704 23.423h1.795zM29.092 53.806l12.091-12.091h-17.11c0.286 4.62 2.133 8.825 5.019 12.091zM42.968 43.499l-12.078 12.077c3.266 2.883 7.46 4.722 12.078 5.010v-17.087zM45.492 43.499v17.087c4.617-0.288 8.812-2.127 12.077-5.010zM59.368 53.806c2.886-3.267 4.732-7.471 5.019-12.091h-17.11zM13.547 63.458c5.544 3.308 12.618 4.191 19.857 2.564-1.842-0.781-3.577-1.763-5.19-2.907-0.076-0.054-0.15-0.107-0.226-0.162-0.492-0.356-0.974-0.722-1.442-1.108-0.083-0.068-0.162-0.143-0.245-0.212-0.352-0.299-0.698-0.607-1.035-0.924-0.164-0.153-0.326-0.307-0.486-0.463-0.327-0.321-0.646-0.649-0.957-0.986-0.192-0.208-0.378-0.422-0.563-0.635-0.227-0.261-0.451-0.526-0.669-0.798-0.162-0.202-0.323-0.404-0.48-0.611-0.274-0.36-0.539-0.726-0.795-1.099-0.148-0.216-0.289-0.435-0.43-0.655-0.206-0.321-0.408-0.644-0.601-0.973-0.115-0.193-0.227-0.388-0.337-0.585-0.264-0.473-0.518-0.953-0.754-1.444-0.057-0.119-0.107-0.24-0.163-0.36-0.2-0.429-0.388-0.866-0.566-1.307-0.064-0.16-0.128-0.319-0.189-0.481-0.208-0.547-0.405-1.101-0.579-1.664-0.019-0.059-0.033-0.119-0.051-0.177-0.16-0.528-0.3-1.063-0.429-1.603-0.034-0.143-0.067-0.284-0.098-0.427-0.133-0.597-0.251-1.198-0.343-1.809-0.004-0.027-0.006-0.053-0.010-0.080-0.087-0.582-0.15-1.17-0.2-1.762-0.013-0.155-0.025-0.309-0.035-0.465-0.042-0.621-0.071-1.245-0.071-1.876v-1.262h46.053c2.684-8.304 2.071-16.638-1.714-22.983l-0.504-0.843 1.195-1.195c0.711-0.712 1.103-1.662 1.103-2.678 0-1.015-0.392-1.967-1.103-2.677-1.476-1.476-3.878-1.478-5.356 0l-1.038 1.038-0.863-0.582c-11.054-7.456-28.274-4.201-40.049 7.576-11.776 11.776-15.034 28.993-7.577 40.049l0.581 0.862-1.035 1.039c-1.478 1.477-1.478 3.879-0.001 5.356 1.476 1.475 3.878 1.477 5.356 0l1.195-1.195zM44.23 65.697c13.498 0 24.555-10.647 25.214-23.983h-2.557c-0.66 11.94-10.555 21.459-22.657 21.459s-21.995-9.519-22.657-21.459h-2.557c0.038 0.769 0.119 1.526 0.225 2.276 0.035 0.249 0.086 0.492 0.128 0.738 0.086 0.501 0.182 1 0.297 1.491 0.064 0.274 0.136 0.545 0.21 0.817 0.126 0.467 0.265 0.929 0.418 1.385 0.085 0.254 0.168 0.506 0.26 0.756 0.187 0.507 0.394 1.003 0.612 1.495 0.080 0.179 0.151 0.362 0.235 0.539 0.641 1.354 1.399 2.643 2.261 3.854 0.090 0.127 0.188 0.249 0.282 0.374 0.346 0.467 0.706 0.925 1.083 1.367 0.136 0.159 0.276 0.314 0.417 0.471 0.351 0.393 0.716 0.772 1.091 1.142 0.168 0.165 0.336 0.331 0.509 0.491 0.364 0.338 0.741 0.66 1.124 0.977 0.199 0.164 0.392 0.335 0.597 0.492 0.355 0.276 0.725 0.53 1.094 0.788 1.291 0.894 2.665 1.683 4.127 2.33 0.053 0.024 0.105 0.051 0.159 0.075 0.588 0.255 1.19 0.488 1.802 0.701 0.038 0.013 0.076 0.028 0.115 0.040 0.632 0.216 1.277 0.409 1.935 0.577 1.999 0.51 4.081 0.809 6.237 0.809zM37.742 15.631c-2.157 0.322-4.205-1.135-4.569-3.253-0.179-1.040 0.082-2.138 0.714-3.014 0.626-0.867 1.534-1.43 2.559-1.585 1.659-0.253 3.254-0.182 5.023 0.218 0.939 0.212 1.731 0.834 2.232 1.751 0.569 1.040 0.688 2.338 0.309 3.387-0.583 1.618-2.034 2.568-3.784 2.568-0.223 0-0.451-0.015-0.684-0.047-0.111-0.002-0.232-0.013-0.364-0.034l-0.226-0.035c-0.148-0.014-0.312-0.029-0.475-0.030h-0.175c-0.175 0.023-0.367 0.047-0.559 0.076zM35.936 10.842c-0.24 0.331-0.339 0.735-0.276 1.107 0.135 0.775 0.901 1.308 1.704 1.184 0.229-0.035 0.453-0.063 0.683-0.088l0.307-0.016 0.177 0.001c0.208 0.002 0.435 0.021 0.665 0.042 0.063 0.006 0.231 0.030 0.39 0.057l0.033 0.005 0.006-0.028c0.476 0.107 1.622 0.245 2.011-0.828v0c0.135-0.371 0.073-0.913-0.149-1.318-0.106-0.192-0.29-0.435-0.573-0.5-1.452-0.327-2.752-0.387-4.089-0.184-0.347 0.053-0.663 0.254-0.889 0.567z"></path>
</svg>
