<!-- Generated by IcoMoon.io -->
<svg version="1.1" xmlns="http://www.w3.org/2000/svg" width="72" height="72" viewBox="0 0 72 72">
<title>uniF192</title>
<path d="M70.498 6.927c2.003 2.002 2.003 5.261 0.001 7.263l-25.785 25.786 4.125 4.125c0.475 0.474 0.734 1.105 0.732 1.778s-0.268 1.302-0.747 1.773l-11.61 11.42c-5.001 5.001-11.573 7.502-18.144 7.502-6.577 0-13.153-2.503-18.158-7.51l-0.911-0.911 29.785-29.579c0.976-0.967 2.56-0.967 3.53 0.006l4.135 4.135 25.787-25.787c2.004-2.003 5.261-2 7.261 0zM52.504 21.29l-0.693 0.694 5.447 1.815 0.693-0.695zM46.975 45.869l-4.078-4.078-1.662 1.662c-0.529 0.529-1.234 0.822-1.982 0.822s-1.453-0.293-1.982-0.822l-3.298-3.298c-0.529-0.529-0.822-1.234-0.822-1.982s0.293-1.453 0.822-1.982l1.663-1.662-4.135-4.135-27.84 27.737c9.063 8.114 23.042 7.82 31.745-0.883zM37.45 36.345l-1.662 1.662c-0.091 0.092-0.091 0.243 0 0.334l3.298 3.298c0.092 0.092 0.241 0.092 0.334 0l1.662-1.662zM39.265 34.529l3.632 3.632 12.331-12.333-5.447-1.815zM68.683 12.375c0.481-0.483 0.747-1.127 0.747-1.815 0-0.689-0.265-1.334-0.747-1.815-0.481-0.483-1.126-0.747-1.815-0.747-0.688 0-1.334 0.264-1.815 0.746l-10.519 10.519 5.447 1.815z"></path>
</svg>
