<!-- Generated by IcoMoon.io -->
<svg version="1.1" xmlns="http://www.w3.org/2000/svg" width="72" height="72" viewBox="0 0 72 72">
<title>uniF16E</title>
<path d="M43.266 37.643c-3.011 0-5.467 2.307-5.765 5.241 4.375 0.518 7.033 3.232 7.033 7.354 0 2.857-1.948 5.801-3.771 7.604-1.665 1.647-3.419 2.587-4.818 2.587h-0.035c-3.258 0-8.595-5.693-8.595-10.191 0-4.263 2.841-7.024 7.489-7.403-0.321-2.911-2.767-5.192-5.761-5.192-0.71 0-1.286-0.575-1.286-1.286s0.576-1.286 1.286-1.286c2.997 0 5.625 1.584 7.111 3.954 1.486-2.369 4.114-3.954 7.111-3.954 0.71 0 1.286 0.575 1.286 1.286s-0.576 1.286-1.286 1.286zM41.961 50.238c0-4.247-3.781-4.881-6.036-4.881s-6.038 0.634-6.038 4.881c0 3.48 4.607 7.619 6.038 7.619h0.009c0.566 0 1.737-0.575 3.020-1.844 1.827-1.806 3.007-4.074 3.007-5.775zM55.653 13.359c3.678 1.315 8.716 3.117 8.716 9.912v1.828c0 1.403-0.769 2.686-2.007 3.349-0.27 0.144-0.555 0.239-0.843 0.314v30.002c0 7.299-5.937 13.236-13.236 13.236h-24.565c-7.299 0-13.236-5.937-13.236-13.235v-32.486l-1.088 0.435c-0.397 0.157-0.845 0.108-1.198-0.13-0.352-0.239-0.564-0.638-0.564-1.065v-2.249c0-6.794 5.038-8.596 8.716-9.912 2.859-1.023 4.113-1.608 4.113-2.919v-0.248c-2.658-0.404-4.276-2.1-4.276-4.544v-0.171c0-3.020 2.457-5.477 5.477-5.477h28.679c3.020 0 5.477 2.457 5.477 5.477v0.171c0 2.462-1.642 4.163-4.276 4.553v0.239c0 1.31 1.252 1.895 4.113 2.919zM58.947 58.764h-0.003v-30.232c-0.168-0.078-0.329-0.167-0.485-0.271l-2.665-1.777c-0.541-0.361-1.273-0.234-1.664 0.286l-0.093 0.125c-0.849 1.131-2.184 1.68-3.581 1.484-1.396-0.201-2.525-1.108-3.020-2.427l-0.877-2.34c-0.167-0.446-0.552-0.742-1.027-0.79-0.476-0.051-0.91 0.166-1.164 0.571l-2.434 3.896c0.994 0.554 1.944 1.233 2.826 2.064 1.67 1.571 3.754 2.436 5.871 2.436v0.031c2.66 0.291 4.738 2.557 4.738 5.302v17.232c0 2.66-1.948 4.87-4.488 5.272v0.064c-2.164 0-4.278 0.895-5.953 2.52-2.569 2.489-5.588 3.804-8.73 3.804s-6.161-1.315-8.729-3.804c-1.675-1.625-3.789-2.52-5.953-2.52v-0.034c-2.651-0.298-4.718-2.562-4.718-5.301v-17.231c0-2.823 2.197-5.14 4.967-5.323v-0.012c2.116 0 4.2-0.865 5.871-2.436 0.090-0.084 0.184-0.154 0.274-0.235-0.202-0.136-0.395-0.285-0.57-0.46l-0.685-0.685c-0.429-0.429-1.119-0.477-1.605-0.115l-1.728 1.296c-0.195 0.147-0.406 0.266-0.622 0.372-0.063 0.031-0.127 0.054-0.191 0.081-0.166 0.069-0.334 0.127-0.507 0.172-0.066 0.018-0.131 0.036-0.198 0.049-0.207 0.042-0.417 0.068-0.629 0.076-0.028 0-0.057 0.006-0.086 0.006-0.017 0-0.034 0.004-0.050 0.004-0.243 0-0.487-0.024-0.729-0.071-1.054-0.207-1.975-0.854-2.528-1.774l-1.741-2.901c-0.311-0.521-0.949-0.737-1.509-0.509l-1.48 0.591v33.515c0 5.881 4.784 10.665 10.665 10.665h24.565c5.881 0 10.665-4.784 10.665-10.665zM52.798 37.12c0-1.522-1.232-2.762-2.745-2.76v-0.017c-2.569-0.144-5.053-1.238-7.052-3.118-1.031-0.971-2.154-1.712-3.344-2.213-0.27 0.073-0.548 0.126-0.833 0.138-0.95 0.040-1.861-0.275-2.574-0.863-0.017-0.001-0.033-0.001-0.050-0.001-2.407 0-4.758 1.016-6.801 2.938-2.058 1.936-4.631 3.040-7.282 3.128v0.006c-1.513 0-2.745 1.238-2.745 2.762v17.23c0 1.524 1.232 2.763 2.745 2.763v0.018c2.621 0.149 5.139 1.283 7.145 3.228 2.078 2.015 4.478 3.079 6.939 3.079s4.86-1.066 6.939-3.079c1.947-1.889 4.375-3.012 6.915-3.213v-0.032c1.513 0 2.745-1.238 2.745-2.763v-17.231zM61.798 25.098v-1.83c0-4.982-3.406-6.2-7.011-7.491-2.727-0.975-5.818-2.080-5.818-5.338v-1.44c0-0.711 0.576-1.286 1.286-1.286 1.17 0 2.99-0.269 2.99-2.066v-0.171c0-1.602-1.304-2.906-2.906-2.906h-28.679c-1.602 0-2.906 1.304-2.906 2.906v0.171c0 1.797 1.821 2.066 2.906 2.066 0.71 0 1.371 0.575 1.371 1.286v1.446c0 3.258-3.091 4.362-5.818 5.338-3.606 1.291-7.011 2.508-7.011 7.491v0.35l3.375-1.351c0.225-0.090 0.455-0.156 0.685-0.201 0.078-0.016 0.157-0.017 0.235-0.027 0.152-0.021 0.303-0.042 0.455-0.044 0.014 0 0.030-0.004 0.045-0.004 0.037 0 0.073 0.013 0.111 0.014 0.244 0.008 0.483 0.039 0.719 0.093 0.073 0.017 0.145 0.032 0.217 0.053 0.271 0.078 0.535 0.179 0.783 0.316 0.027 0.014 0.050 0.035 0.076 0.050 0.224 0.131 0.431 0.289 0.625 0.465 0.057 0.050 0.111 0.102 0.165 0.157 0.206 0.211 0.397 0.437 0.555 0.701l1.741 2.901c0.181 0.302 0.472 0.505 0.818 0.573 0.346 0.066 0.689-0.012 0.973-0.222l1.727-1.296c1.504-1.128 3.639-0.976 4.967 0.352l0.685 0.685c0.255 0.255 0.595 0.372 0.955 0.356 0.36-0.027 0.679-0.199 0.896-0.49l0.526-0.699c0.724-0.967 1.832-1.521 3.040-1.521 1.102 0 2.107 0.48 2.827 1.296l0.014 0.001 0.351 0.387c0.081 0.090 0.175 0.161 0.274 0.221 0.013 0.008 0.024 0.018 0.037 0.024 0.215 0.119 0.46 0.172 0.706 0.147 0.152-0.016 0.294-0.058 0.426-0.123l0.089-0.039c0.159-0.098 0.3-0.226 0.404-0.393l2.485-3.978c0.773-1.234 2.159-1.9 3.601-1.766 1.45 0.145 2.668 1.081 3.18 2.445l0.877 2.34c0.23 0.613 0.76 0.753 0.976 0.784 0.215 0.030 0.762 0.046 1.157-0.48l0.093-0.125c1.061-1.416 2.925-1.886 4.497-1.233 0.225 0.093 0.444 0.208 0.653 0.349l2.665 1.777c0.094 0.063 0.184 0.090 0.274 0.122 0.075 0.023 0.153 0.042 0.244 0.055l0.195 0.027c0.244-0.010 0.444-0.087 0.548-0.144 0.195-0.104 0.649-0.418 0.649-1.083zM45.084 7.714c0.71 0 1.286 0.575 1.286 1.286s-0.576 1.286-1.286 1.286c-2.361 0-3.749 0.004-5.139 0.008-1.391 0.005-2.782 0.009-5.147 0.009-0.71 0-1.286-0.575-1.286-1.286s0.576-1.286 1.286-1.286c2.361 0 3.749-0.004 5.139-0.008 1.391-0.005 2.782-0.009 5.147-0.009zM29.655 7.714c0.71 0 1.286 0.575 1.286 1.286s-0.576 1.286-1.286 1.286h-2.571c-0.71 0-1.286-0.575-1.286-1.286s0.576-1.286 1.286-1.286h2.571zM34.425 49.23c0.231 0.231 0.373 0.564 0.373 0.913 0 0.334-0.141 0.669-0.373 0.913-0.244 0.232-0.579 0.373-0.913 0.373s-0.669-0.141-0.913-0.373c-0.231-0.244-0.373-0.579-0.373-0.913 0-0.348 0.141-0.67 0.373-0.913 0.476-0.476 1.337-0.476 1.826 0zM38.655 51.429c-0.334 0-0.669-0.141-0.913-0.373-0.231-0.244-0.373-0.579-0.373-0.913 0-0.348 0.141-0.681 0.386-0.913 0.463-0.476 1.337-0.476 1.813 0 0.232 0.243 0.373 0.564 0.373 0.913 0 0.334-0.141 0.669-0.373 0.913-0.244 0.232-0.579 0.373-0.913 0.373zM34.798 54c0-0.348 0.141-0.67 0.373-0.913 0.476-0.476 1.35-0.476 1.826 0 0.231 0.243 0.373 0.579 0.373 0.913s-0.141 0.669-0.373 0.913c-0.244 0.231-0.579 0.373-0.913 0.373s-0.669-0.141-0.913-0.373c-0.231-0.244-0.373-0.579-0.373-0.913z"></path>
</svg>
