<!-- Generated by IcoMoon.io -->
<svg version="1.1" xmlns="http://www.w3.org/2000/svg" width="72" height="72" viewBox="0 0 72 72">
<title>uniF191</title>
<path d="M68.055 8.845c-1.485 3.742-4.101 6.737-7.347 8.696 4.69 5.926 7.285 13.246 7.285 20.833 0 18.541-15.085 33.626-33.626 33.626s-33.626-15.085-33.626-33.626 15.085-33.626 33.626-33.626c4.316 0 8.51 0.819 12.487 2.416 3.602-4.858 9.469-7.62 15.749-7.102l8.655 0.711zM65.303 38.374c0-7.162-2.487-14.085-7.021-19.609-1.88 0.771-3.906 1.219-6.007 1.306-0.1 0.004-0.198 0.008-0.297 0.011-0.152 0.004-0.303 0.017-0.455 0.017-0.498 0-0.997-0.020-1.5-0.062l-3.93-0.324c0.325 0.451 0.608 0.943 0.825 1.488 0.273 0.69-0.065 1.471-0.754 1.746-0.163 0.065-0.331 0.096-0.496 0.096-0.535 0-1.041-0.321-1.251-0.85-0.385-0.971-1.126-1.724-1.966-2.303-0.823 0.541-1.583 1.177-2.246 1.905-0.265 0.292-0.63 0.44-0.994 0.44-0.323 0-0.648-0.116-0.905-0.35-0.549-0.5-0.589-1.352-0.089-1.9 0.46-0.506 0.967-0.966 1.494-1.402-0.869-0.284-1.51-0.4-1.528-0.402-0.732-0.124-1.227-0.817-1.104-1.548 0.12-0.73 0.81-1.227 1.543-1.106 0.139 0.022 1.871 0.326 3.762 1.24l2.188-5.515c0.239-0.601 0.518-1.177 0.812-1.739 0.007-0.013 0.012-0.027 0.019-0.040-3.524-1.35-7.23-2.034-11.035-2.034-17.059 0-30.936 13.878-30.936 30.936s13.877 30.936 30.936 30.936 30.936-13.878 30.936-30.936zM58.704 15.581c3.038-1.644 5.497-4.32 6.852-7.727l1.864-4.696-5.035-0.414c-5.404-0.44-10.459 1.971-13.506 6.203l-0.398 0.609c-0.574 0.881-1.048 1.786-1.407 2.69l-0.637 1.605c7.010-5.879 14.159-7.976 15.144-7.746 0.472 0.114 0.862 0.486 0.993 0.954s-0.008 0.989-0.352 1.332c-0.297 0.297-0.697 0.43-1.084 0.387-1.384 0.281-7.981 2.479-14.3 8.297l3.408 0.281c0.613 0.050 1.228 0.052 1.84 0.027 0.094-0.003 0.188-0.005 0.283-0.011 1.962-0.117 3.895-0.613 5.688-1.478zM50.202 26.224c0-1.793 0.897-2.69 2.69-2.69s2.69 0.897 2.69 2.69c0 1.793-0.897 2.69-2.69 2.69s-2.69-0.897-2.69-2.69zM57.357 41.228c0-1.793 0.897-2.69 2.69-2.69s2.69 0.897 2.69 2.69c0 1.793-0.897 2.69-2.69 2.69s-2.69-0.897-2.69-2.69zM56.927 32.95c0-1.793 0.897-2.69 2.69-2.69s2.69 0.897 2.69 2.69c0 1.793-0.897 2.69-2.69 2.69s-2.69-0.897-2.69-2.69zM48.797 38.374c0-1.793 0.897-2.69 2.69-2.69s2.69 0.897 2.69 2.69c0 1.793-0.897 2.69-2.69 2.69s-2.69-0.897-2.69-2.69zM50.202 47.745c0-1.793 0.897-2.69 2.69-2.69s2.69 0.897 2.69 2.69c0 1.793-0.897 2.69-2.69 2.69s-2.69-0.897-2.69-2.69zM25.992 15.464c0-1.793 0.897-2.69 2.69-2.69s2.69 0.897 2.69 2.69c0 1.793-0.897 2.69-2.69 2.69s-2.69-0.897-2.69-2.69zM16.576 19.499c0-1.793 0.897-2.69 2.69-2.69s2.69 0.897 2.69 2.69c0 1.793-0.897 2.69-2.69 2.69s-2.69-0.897-2.69-2.69z"></path>
</svg>
