<!-- Generated by IcoMoon.io -->
<svg version="1.1" xmlns="http://www.w3.org/2000/svg" width="72" height="72" viewBox="0 0 72 72">
<title>uniF19A</title>
<path d="M69.71 1.037c0.628 0.358 0.849 1.161 0.489 1.79-0.359 0.628-1.161 0.846-1.789 0.49-2.558-1.457-6.271-0.531-8.184 1.852 0.335 0.426 0.576 0.812 0.714 1.066 3.708 3.266 0.215 13.299-0.539 15.319-0.194 0.519-0.69 0.852-1.228 0.852-0.083 0-0.167-0.008-0.251-0.025-0.434-0.084-0.77-0.383-0.939-0.767-4.484 13.716-13.404 34.591-24.514 43.305-1.334 1.047-2.883 1.611-4.402 1.611-0.134 0-0.268-0.004-0.401-0.013-1.414-0.093-4.683-0.833-4.487-5.667 0.097-2.39 2.096-5.035 5.122-9.041 3.069-4.064 6.992-9.26 10.731-16.442-7.878 8.273-16.882 16.034-24.581 18.304-0.599 0.177-1.209 0.264-1.806 0.264-1.012 0-1.991-0.251-2.828-0.74-1.102-0.645-3.46-2.596-1.533-6.761 0.821-1.779 3.188-3.83 6.735-6.625-3.069 1.137-5.84 1.819-8.277 2.018-0.197 0.016-0.392 0.024-0.584 0.024-1.474 0-2.832-0.464-3.874-1.331-0.986-0.821-2.992-3.116-0.33-6.685 1.385-1.857 5.107-3.621 10.744-6.29 7.368-3.491 18.090-8.579 28.537-16.549-0.488 0.012-0.952-0.235-1.188-0.681-0.285-0.535-0.165-1.195 0.289-1.596 5.716-5.063 10.627-7.177 14.608-6.282 0.915 0.206 1.672 0.56 2.32 0.967 1.152-1.377 2.763-2.439 4.604-2.992 2.392-0.719 4.887-0.492 6.844 0.624zM7.528 39.213c4.619-0.378 10.635-2.666 17.875-6.802 1.166-0.952 2.371-1.957 3.6-3.014 0.064-0.055 0.127-0.109 0.192-0.164 0.591-0.509 1.188-1.031 1.79-1.566 0.097-0.087 0.197-0.177 0.294-0.264 0.948-0.846 1.908-1.731 2.875-2.641 0.336-0.316 0.668-0.624 1.007-0.952 0.365-0.35 0.729-0.714 1.095-1.073 0.563-0.555 1.128-1.12 1.698-1.704 0.243-0.247 0.484-0.492 0.725-0.742 0.889-0.926 1.784-1.878 2.681-2.874 0.007-0.008 0.014-0.017 0.021-0.025 0.947-1.052 1.895-2.144 2.838-3.276 0.031-0.038 0.063-0.075 0.095-0.113 0.956-1.149 1.907-2.337 2.846-3.568-11.679 9.692-24.085 15.569-32.341 19.48-4.706 2.23-8.768 4.154-9.763 5.488-1.462 1.961-0.539 2.731-0.094 3.1 0.647 0.539 1.552 0.791 2.567 0.708zM14.71 51.157c9.252-2.729 20.982-14.503 29.591-24.449 0.051-0.059 0.1-0.117 0.151-0.176 0.644-0.745 1.27-1.478 1.876-2.197 0.046-0.055 0.093-0.11 0.139-0.165 1.647-1.959 3.144-3.801 4.44-5.432 0.005-0.008 0.012-0.016 0.018-0.023 0.244-0.307 0.479-0.606 0.708-0.897 0.010-0.014 0.021-0.027 0.033-0.042-1.197 0.302-2.209 0.471-2.711 0.544-0.047 0.008-0.080 0.013-0.092 0.014h-0.001c-0.022 0.003-0.043-0.007-0.066-0.004-0.666 0.062-1.276-0.38-1.406-1.044v-0.001c-0.1-0.514 0.116-1.019 0.516-1.31 0.134-0.097 0.287-0.171 0.456-0.212 2.004-0.496 3.216-3.389 3.739-5.262-0.031-0.009-0.069-0.014-0.102-0.023-0.265-0.072-0.548-0.126-0.838-0.173-0.157-0.026-0.316-0.051-0.485-0.071-0.024-0.003-0.050-0.004-0.073-0.007-0.351 0.483-0.711 0.946-1.068 1.417-0.039 0.052-0.079 0.105-0.118 0.157-0.495 0.651-0.99 1.291-1.491 1.92-0.042 0.052-0.085 0.105-0.127 0.159-1.457 1.826-2.937 3.566-4.431 5.224-0.118 0.131-0.236 0.268-0.354 0.397-0.331 0.365-0.662 0.72-0.994 1.077-0.323 0.348-0.644 0.691-0.965 1.030-0.239 0.251-0.476 0.5-0.715 0.746-0.518 0.537-1.035 1.062-1.548 1.575-0.060 0.060-0.119 0.122-0.18 0.181-4.298 4.282-8.36 7.741-11.619 10.397-0.011 0.009-0.021 0.014-0.032 0.022-2.409 1.965-4.66 3.713-6.66 5.266-4.407 3.422-7.889 6.126-8.637 7.742-1.133 2.453-0.004 3.114 0.479 3.396 0.708 0.416 1.643 0.496 2.567 0.226zM31.85 62.856c12.201-9.569 21.772-34.891 25.284-47.444-0.079 0.062-0.174 0.119-0.258 0.181-0.092 0.066-0.184 0.131-0.279 0.195-0.059 0.039-0.109 0.081-0.172 0.121-2.48 3.279-6.15 7.957-10.47 12.932-4.773 11.588-10.658 19.381-14.561 24.549-2.531 3.351-4.53 5.999-4.594 7.568-0.1 2.467 0.974 2.871 2.041 2.942 1.009 0.064 2.068-0.306 3.010-1.044zM59.657 14.388c0.513-2.875 0.539-5.472-0.534-6.25-0.191-0.139-0.344-0.328-0.437-0.547-0.033-0.075-0.956-2.085-3.364-2.605-1.643-0.358-4.303-0.075-8.295 2.598 0.622-0.050 1.266-0.080 1.912-0.080 0.681 0 1.36 0.049 2.028 0.127 0.164 0.018 0.329 0.037 0.485 0.060 0.197 0.030 0.387 0.067 0.578 0.106 0.268 0.054 0.522 0.117 0.767 0.186 0.127 0.037 0.253 0.071 0.376 0.112 0.382 0.127 0.745 0.27 1.073 0.441 0.508 0.265 0.784 0.829 0.683 1.394-0.030 0.165-0.453 2.428-1.626 4.58 0.56-0.213 1.096-0.455 1.566-0.729 0.724-0.421 1.044-0.771 1.187-1.010 0.028-0.051 0.052-0.104 0.071-0.156 0.005-0.014 0.018-0.035 0.022-0.048 0.028-0.093 0.070-0.18 0.116-0.264 0.008-0.013 0.010-0.029 0.018-0.042 0.045-0.075 0.102-0.14 0.16-0.205 0.016-0.017 0.026-0.038 0.043-0.055 0.062-0.062 0.134-0.112 0.206-0.159 0.020-0.013 0.035-0.031 0.056-0.043 0.066-0.039 0.14-0.064 0.214-0.092 0.031-0.012 0.060-0.030 0.093-0.039h0.001c0.001 0 0.001-0.001 0.003-0.001 0.034-0.009 0.068-0.008 0.102-0.014 0.298-0.059 0.602-0.020 0.866 0.122 0.026 0.014 0.048 0.037 0.073 0.052 0.068 0.042 0.136 0.084 0.197 0.139 0.018 0.016 0.046 0.042 0.080 0.079 0.013 0.014 0.031 0.034 0.047 0.052 0.024 0.025 0.045 0.048 0.072 0.081 0.026 0.031 0.055 0.069 0.085 0.108 0.024 0.030 0.045 0.056 0.070 0.090 0.037 0.051 0.077 0.109 0.118 0.169 0.021 0.031 0.041 0.060 0.063 0.095 0.047 0.073 0.096 0.155 0.147 0.241 0.018 0.030 0.035 0.059 0.052 0.090 0.055 0.1 0.113 0.208 0.171 0.325 0.012 0.026 0.025 0.051 0.038 0.079 0.063 0.129 0.125 0.266 0.187 0.416 0.009 0.021 0.018 0.043 0.028 0.066 0.066 0.159 0.13 0.329 0.194 0.512 0.001 0.007 0.004 0.012 0.007 0.018zM61.837 53.638c4.339 0 7.869 3.529 7.869 7.869s-3.529 7.869-7.869 7.869c-0.595 0-1.196-0.101-1.795-0.248-1.445 1.752-3.63 2.871-6.074 2.871-4.34 0-7.869-3.529-7.869-7.869s3.529-7.869 7.869-7.869c0.635 0 1.247 0.083 1.839 0.226 1.49-1.799 3.679-2.849 6.031-2.849zM53.968 69.377c1.85 0 3.472-0.968 4.405-2.422 0.008-0.014 0.007-0.032 0.016-0.046 0.223-0.353 0.392-0.728 0.526-1.111 0.045-0.131 0.090-0.262 0.125-0.399 0.031-0.125 0.059-0.251 0.083-0.376 0.051-0.291 0.090-0.588 0.090-0.893 0-0.316-0.039-0.622-0.093-0.922-0.024-0.13-0.058-0.258-0.092-0.386-0.038-0.149-0.085-0.296-0.136-0.441-0.060-0.165-0.122-0.33-0.198-0.488-0.028-0.058-0.062-0.112-0.092-0.169-0.337-0.637-0.799-1.209-1.367-1.666-0.012-0.009-0.022-0.018-0.034-0.028-0.197-0.156-0.405-0.298-0.624-0.425l-0.051-0.028c-0.22-0.126-0.451-0.237-0.691-0.33-0.005-0.001-0.009-0.007-0.014-0.009-0.578-0.219-1.197-0.354-1.852-0.354-2.893 0-5.246 2.353-5.246 5.246s2.353 5.246 5.246 5.246zM61.386 66.733c3.1 0.278 5.696-2.182 5.696-5.225 0-2.893-2.353-5.246-5.246-5.246-1.301 0-2.526 0.488-3.476 1.344 1.574 1.064 2.735 2.684 3.22 4.572 0.005 0.022 0.012 0.045 0.017 0.067 0.066 0.262 0.117 0.53 0.155 0.801 0.008 0.055 0.018 0.108 0.025 0.163 0.035 0.303 0.059 0.61 0.059 0.923 0 0.426-0.043 0.842-0.109 1.251-0.005 0.035-0.009 0.071-0.016 0.106-0.075 0.428-0.184 0.842-0.325 1.243z"></path>
</svg>
