<!-- Generated by IcoMoon.io -->
<svg version="1.1" xmlns="http://www.w3.org/2000/svg" width="72" height="72" viewBox="0 0 72 72">
<title>uniF143</title>
<path d="M60.218 62.182c0-0.873 0.436-1.309 1.309-1.309s1.309 0.436 1.309 1.309c0 0.873-0.436 1.309-1.309 1.309s-1.309-0.436-1.309-1.309zM57.6 58.255c0-0.873 0.436-1.309 1.309-1.309s1.309 0.436 1.309 1.309c0 0.873-0.436 1.309-1.309 1.309s-1.309-0.436-1.309-1.309zM54.982 54.327c0-0.873 0.436-1.309 1.309-1.309s1.309 0.436 1.309 1.309c0 0.873-0.436 1.309-1.309 1.309s-1.309-0.436-1.309-1.309zM60.218 54.327c0-0.873 0.436-1.309 1.309-1.309s1.309 0.436 1.309 1.309c0 0.873-0.436 1.309-1.309 1.309s-1.309-0.436-1.309-1.309zM52.364 50.4c0-0.873 0.436-1.309 1.309-1.309s1.309 0.436 1.309 1.309c0 0.873-0.436 1.309-1.309 1.309s-1.309-0.436-1.309-1.309zM57.6 50.4c0-0.873 0.436-1.309 1.309-1.309s1.309 0.436 1.309 1.309c0 0.873-0.436 1.309-1.309 1.309s-1.309-0.436-1.309-1.309zM49.745 46.473c0-0.873 0.436-1.309 1.309-1.309s1.309 0.436 1.309 1.309c0 0.873-0.436 1.309-1.309 1.309s-1.309-0.436-1.309-1.309zM54.982 46.473c0-0.873 0.436-1.309 1.309-1.309s1.309 0.436 1.309 1.309c0 0.873-0.436 1.309-1.309 1.309s-1.309-0.436-1.309-1.309zM62.836 66.109c0-0.873 0.436-1.309 1.309-1.309s1.309 0.436 1.309 1.309c0 0.873-0.436 1.309-1.309 1.309s-1.309-0.436-1.309-1.309zM57.6 66.109c0-0.873 0.436-1.309 1.309-1.309s1.309 0.436 1.309 1.309c0 0.873-0.436 1.309-1.309 1.309s-1.309-0.436-1.309-1.309zM54.982 62.182c0-0.873 0.436-1.309 1.309-1.309s1.309 0.436 1.309 1.309c0 0.873-0.436 1.309-1.309 1.309s-1.309-0.436-1.309-1.309zM52.364 58.255c0-0.873 0.436-1.309 1.309-1.309s1.309 0.436 1.309 1.309c0 0.873-0.436 1.309-1.309 1.309s-1.309-0.436-1.309-1.309zM49.745 54.327c0-0.873 0.436-1.309 1.309-1.309s1.309 0.436 1.309 1.309c0 0.873-0.436 1.309-1.309 1.309s-1.309-0.436-1.309-1.309zM47.127 50.4c0-0.873 0.436-1.309 1.309-1.309s1.309 0.436 1.309 1.309c0 0.873-0.436 1.309-1.309 1.309s-1.309-0.436-1.309-1.309zM49.745 62.182c0-0.873 0.436-1.309 1.309-1.309s1.309 0.436 1.309 1.309c0 0.873-0.436 1.309-1.309 1.309s-1.309-0.436-1.309-1.309zM47.127 58.255c0-0.873 0.436-1.309 1.309-1.309s1.309 0.436 1.309 1.309c0 0.873-0.436 1.309-1.309 1.309s-1.309-0.436-1.309-1.309zM44.509 54.327c0-0.873 0.436-1.309 1.309-1.309s1.309 0.436 1.309 1.309c0 0.873-0.436 1.309-1.309 1.309s-1.309-0.436-1.309-1.309zM52.364 66.109c0-0.873 0.436-1.309 1.309-1.309s1.309 0.436 1.309 1.309c0 0.873-0.436 1.309-1.309 1.309s-1.309-0.436-1.309-1.309zM47.127 66.109c0-0.873 0.436-1.309 1.309-1.309s1.309 0.436 1.309 1.309c0 0.873-0.436 1.309-1.309 1.309s-1.309-0.436-1.309-1.309zM44.509 62.182c0-0.873 0.436-1.309 1.309-1.309s1.309 0.436 1.309 1.309c0 0.873-0.436 1.309-1.309 1.309s-1.309-0.436-1.309-1.309zM41.891 58.255c0-0.873 0.436-1.309 1.309-1.309s1.309 0.436 1.309 1.309c0 0.873-0.436 1.309-1.309 1.309s-1.309-0.436-1.309-1.309zM39.273 62.182c0-0.873 0.436-1.309 1.309-1.309s1.309 0.436 1.309 1.309c0 0.873-0.436 1.309-1.309 1.309s-1.309-0.436-1.309-1.309zM41.891 66.109c0-0.873 0.436-1.309 1.309-1.309s1.309 0.436 1.309 1.309c0 0.873-0.436 1.309-1.309 1.309s-1.309-0.436-1.309-1.309zM36.654 66.109c0-0.873 0.436-1.309 1.309-1.309s1.309 0.436 1.309 1.309c0 0.873-0.436 1.309-1.309 1.309s-1.309-0.436-1.309-1.309zM69.871 59.807c2.152 2.662 2.695 5.108 1.63 7.34-1.336 2.799-4.596 4.198-9.78 4.198h-23.773c-3.59 0-5.886-0.981-6.887-2.943-0.139-0.273-0.251-0.601-0.336-0.985h-20.283c-0.179 0-0.351-0.035-0.517-0.106l-9.132-3.927c-0.528-0.227-0.792-0.629-0.792-1.203v-60.218c0-0.873 0.436-1.309 1.309-1.309h49.744c0.873 0 1.309 0.436 1.309 1.309v38.024c2.79 0.319 5.285 1.837 7.487 4.553 0.92 1.136 2.599 3.691 5.036 7.665 2.431 3.962 4.093 6.496 4.986 7.602zM9.132 64.121v-60.848h-6.514v58.048zM11.79 3.273v61.527h19.069c0.006-0.020 0.016-0.050 0.031-0.089s0.024-0.066 0.029-0.083c0.011-0.034 0.037-0.107 0.077-0.217 0.074-0.206 0.156-0.407 0.245-0.603 0.061-0.13 0.096-0.208 0.107-0.232 0.091-0.188 0.201-0.393 0.33-0.617 0.010-0.017 0.025-0.044 0.044-0.079 0.037-0.066 0.065-0.116 0.085-0.149 0.167-0.271 0.336-0.526 0.508-0.766 0.006-0.008 0.013-0.019 0.023-0.035s0.017-0.027 0.023-0.035c0.764-1.053 1.858-2.821 3.285-5.302 0.45-0.783 1.041-1.823 1.773-3.121 0.282-0.501 0.601-1.064 0.957-1.691 1.866-3.292 3.249-5.562 4.148-6.807 0.246-0.341 0.524-0.691 0.834-1.051 0.037-0.043 0.091-0.102 0.161-0.176s0.115-0.122 0.133-0.142c0.241-0.261 0.44-0.468 0.597-0.619 0.048-0.045 0.169-0.155 0.364-0.33 0.215-0.192 0.409-0.356 0.581-0.491 0.11-0.087 0.241-0.187 0.394-0.297 0.196-0.142 0.398-0.278 0.603-0.407 0.192-0.121 0.327-0.203 0.403-0.246 0.167-0.096 0.385-0.208 0.653-0.338 0.25-0.119 0.379-0.181 0.386-0.185 0.208-0.091 0.472-0.189 0.792-0.293 0.025-0.008 0.068-0.024 0.131-0.047s0.111-0.040 0.145-0.050c0.352-0.104 0.7-0.186 1.042-0.245v-36.786h-37.956zM37.948 68.727h23.773c3.134 0 5.36-0.593 6.678-1.778-0.217-0.255-0.326-0.536-0.326-0.84 0-0.858 0.431-1.293 1.292-1.305-0.039-1.022-0.548-2.139-1.528-3.35-0.013-0.016-0.033-0.040-0.058-0.074s-0.042-0.054-0.048-0.062c0.228 0.255 0.342 0.543 0.342 0.864 0 0.873-0.436 1.309-1.309 1.309s-1.309-0.436-1.309-1.309c0-0.873 0.436-1.309 1.309-1.309 0.353 0 0.658 0.125 0.914 0.376-0.617-0.784-1.377-1.875-2.279-3.273 0.037 0.167 0.056 0.26 0.056 0.279 0 0.873-0.436 1.309-1.309 1.309s-1.309-0.436-1.309-1.309c0-0.873 0.436-1.309 1.309-1.309 0.267 0 0.526 0.094 0.776 0.282-0.549-0.865-1.305-2.083-2.267-3.652-2.387-3.889-4-6.351-4.84-7.386-1.968-2.43-4.15-3.645-6.546-3.645-0.034 0-0.092 0.001-0.173 0.003l-0.005 0.001c-1.18 0.033-2.325 0.39-3.435 1.071-0.008 0.005-0.019 0.013-0.035 0.024-0.017 0.011-0.028 0.019-0.035 0.024-0.266 0.167-0.511 0.337-0.734 0.511-0.321 0.249-0.682 0.581-1.083 0.995l0.048-0.009c0.873 0 1.309 0.436 1.309 1.309s-0.436 1.309-1.309 1.309c-0.742 0-1.166-0.377-1.273-1.13-0.458 0.647-0.994 1.477-1.609 2.493 0.16-0.036 0.247-0.054 0.263-0.054 0.873 0 1.309 0.436 1.309 1.309s-0.436 1.309-1.309 1.309c-0.63 0-1.040-0.309-1.232-0.928-0.388 0.666-0.82 1.418-1.295 2.255 0.812 0.059 1.217 0.49 1.217 1.291 0 0.873-0.436 1.309-1.309 1.309-0.435 0-0.787-0.191-1.055-0.573-0.346 0.612-0.613 1.084-0.803 1.418-0.040 0.071-0.097 0.171-0.171 0.301s-0.122 0.214-0.145 0.254c0.576 0.21 0.864 0.617 0.864 1.219 0 0.873-0.436 1.309-1.309 1.309-0.301 0-0.578-0.106-0.83-0.319-0.393 0.667-0.763 1.282-1.11 1.845 0.421 0.263 0.631 0.627 0.631 1.093 0 0.873-0.436 1.309-1.309 1.309-0.242 0-0.485-0.083-0.73-0.25-0.016 0.022-0.039 0.055-0.070 0.1s-0.052 0.076-0.065 0.094c-0.163 0.226-0.316 0.459-0.461 0.7-0.012 0.020-0.030 0.049-0.052 0.088s-0.034 0.059-0.035 0.061c-0.112 0.194-0.21 0.38-0.292 0.559-0.005 0.010-0.013 0.028-0.025 0.054s-0.021 0.045-0.027 0.059c-0.008 0.018-0.017 0.043-0.028 0.076s-0.020 0.057-0.027 0.072c0.335 0.268 0.503 0.603 0.503 1.005 0 0.473-0.214 0.84-0.643 1.102v0.003c0.515 1.009 2.033 1.513 4.554 1.513zM27.491 33.679h-4.789c-2.289 0-4.245-0.811-5.868-2.434s-2.434-3.578-2.434-5.867v-4.79c0-0.873 0.436-1.309 1.309-1.309h4.789c1.044 0 2.059 0.196 3.045 0.587-0.619-2.943 0.129-5.472 2.244-7.586l3.387-3.388c0.617-0.617 1.234-0.617 1.851 0l3.387 3.387c2.117 2.117 2.864 4.649 2.242 7.595 0.992-0.396 2.014-0.594 3.067-0.594h4.789c0.873 0 1.309 0.436 1.309 1.309v4.79c0 2.288-0.811 4.244-2.434 5.867s-3.579 2.434-5.868 2.434h-4.789c-0.873 0-1.309-0.436-1.309-1.309v-4.789c0-0.133 0.010-0.333 0.031-0.599l-0.424 0.424c-0.256 0.256-0.564 0.384-0.925 0.384s-0.67-0.128-0.925-0.384l-0.403-0.403c0.019 0.279 0.029 0.472 0.029 0.579v4.789c0 0.873-0.436 1.309-1.309 1.309zM43.2 21.897h-3.48c-1.567 0-2.906 0.555-4.017 1.666s-1.667 2.45-1.667 4.018v3.48h3.48c1.567 0 2.906-0.555 4.017-1.666s1.667-2.45 1.667-4.017v-3.481zM27.637 14.13c-1.107 1.107-1.661 2.447-1.661 4.018s0.554 2.911 1.661 4.019l2.461 2.461 2.461-2.461c1.107-1.108 1.661-2.448 1.661-4.019s-0.554-2.911-1.661-4.018l-2.461-2.461zM17.018 25.379c0 1.566 0.556 2.905 1.667 4.016s2.45 1.666 4.017 1.667h3.479v-3.479c0-1.567-0.556-2.907-1.667-4.018s-2.45-1.666-4.017-1.666h-3.479v3.481zM41.891 42.546c0 0.873-0.436 1.309-1.309 1.309h-19.636c-0.873 0-1.309-0.436-1.309-1.309s0.436-1.309 1.309-1.309h19.636c0.873 0 1.309 0.436 1.309 1.309zM24.873 37.309h13.091c0.873 0 1.309 0.436 1.309 1.309s-0.436 1.309-1.309 1.309h-13.091c-0.873 0-1.309-0.436-1.309-1.309s0.436-1.309 1.309-1.309zM39.273 46.473c0 0.873-0.436 1.309-1.309 1.309h-13.091c-0.873 0-1.309-0.436-1.309-1.309s0.436-1.309 1.309-1.309h13.091c0.873 0 1.309 0.436 1.309 1.309z"></path>
</svg>
