<!-- Generated by IcoMoon.io -->
<svg version="1.1" xmlns="http://www.w3.org/2000/svg" width="72" height="72" viewBox="0 0 72 72">
<title>uniF112</title>
<path d="M66.509 3.666c2.544 2.544 3.742 4.823 3.558 6.778-0.152 1.625-1.203 2.39-1.324 2.471l-0.432 0.295-0.514-0.102c-2.302-0.457-2.895 0.685-2.955 0.817l-0.080 0.161c-3.647 6.131-10.134 11.619-10.408 11.85-3.525 2.614-7.239 3.782-9.604 4.296l0.755 0.762 0.001-0.001 0.461 0.467 3.038 3.069c4.234 4.133-8.938 18.47-13.079 22.77-4.451 4.62-8.942 8.613-12.645 11.241-3.265 2.317-5.715 3.457-7.488 3.457-0.863 0-1.566-0.269-2.123-0.807l-2.845-2.483-0.005-0.001-0.879-0.769 0.001-0.001-8.030-7.008 60.931-60.93zM47.264 36.312l-0.020-0.021-1.142-1.154c-2.063 6.245-11.437 16.256-13.59 18.502-2.206 2.298-12.047 12.309-18.34 14.684l1.182 1.033c0.313 0.291 2.050 0.303 6.485-2.846 3.581-2.541 7.947-6.427 12.294-10.939 4.35-4.516 8.072-9.029 10.483-12.706 2.986-4.557 2.91-6.302 2.65-6.554zM43.733 32.746v0 0l-5.031-5.082-33.143 33.142 6.356 5.55c2.494-0.013 9.974-5.241 18.799-14.44 8.902-9.279 13.39-16.471 13.315-18.871zM67.515 10.549c0.039-0.108 0.071-0.245 0.078-0.416 0.030-0.664-0.3-2.159-2.846-4.705l-1.905-1.905-22.374 22.374 2.178 2.178c1.538-0.211 6.073-1.060 10.165-4.093 0.005-0.006 6.327-5.359 9.768-11.096 0.463-1.043 1.997-2.638 4.937-2.337zM45.069 23.434c0-1.2 0.6-1.8 1.8-1.8s1.8 0.6 1.8 1.8c0 1.2-0.6 1.8-1.8 1.8s-1.8-0.6-1.8-1.8zM59.467 9.036c0-1.2 0.6-1.8 1.8-1.8s1.8 0.6 1.8 1.8c0 1.2-0.6 1.8-1.8 1.8s-1.8-0.6-1.8-1.8z"></path>
</svg>
