<!-- Generated by IcoMoon.io -->
<svg version="1.1" xmlns="http://www.w3.org/2000/svg" width="72" height="72" viewBox="0 0 72 72">
<title>uniF128</title>
<path d="M59.143 9c4.962 0 9 4.038 9 9v14.143c0 2.836-2.307 5.143-5.143 5.143s-5.143-2.307-5.143-5.143v-11.904c0-0.526-0.427-0.953-0.953-0.953h-3.159l-5.143 23.143h-4.888v2.571h4.782l6.191 18.406c0.22 0.835 0.283 1.669 0.207 2.478 0 0.006 0.004 0.013 0.003 0.019-0.003 0.028-0.013 0.053-0.016 0.081-0.040 0.373-0.113 0.739-0.215 1.098-0.010 0.039-0.018 0.077-0.030 0.116-0.105 0.346-0.242 0.68-0.402 1.007-0.042 0.087-0.089 0.172-0.135 0.257-0.143 0.26-0.301 0.513-0.478 0.756-0.068 0.093-0.136 0.181-0.208 0.27-0.181 0.224-0.377 0.433-0.581 0.63-0.082 0.078-0.165 0.157-0.252 0.231-0.257 0.224-0.526 0.429-0.81 0.609-0.050 0.031-0.103 0.056-0.153 0.086-0.279 0.166-0.568 0.31-0.868 0.433-0.063 0.026-0.123 0.054-0.186 0.078-0.337 0.127-0.687 0.226-1.044 0.3-0.072 0.014-0.144 0.024-0.217 0.037-0.377 0.063-0.76 0.107-1.151 0.107h-32.014c-0.392 0-0.775-0.044-1.152-0.107-0.072-0.012-0.144-0.023-0.216-0.037-0.357-0.072-0.707-0.171-1.045-0.3-0.063-0.024-0.122-0.053-0.184-0.078-0.301-0.125-0.593-0.27-0.873-0.437-0.049-0.028-0.099-0.053-0.147-0.082-0.287-0.181-0.557-0.388-0.815-0.613-0.085-0.073-0.165-0.149-0.246-0.226-0.211-0.202-0.413-0.418-0.599-0.649-0.063-0.078-0.123-0.158-0.184-0.239-0.185-0.252-0.348-0.516-0.496-0.786-0.042-0.077-0.084-0.152-0.122-0.23-0.168-0.339-0.31-0.688-0.418-1.046-0.004-0.012-0.005-0.022-0.009-0.034-0.347-1.171-0.379-2.425-0.058-3.649l6.218-18.486h4.782v-2.571h-5.224l0.084-1.364c0.432-7.044-0.258-25.804-8.522-27.986-1.797-0.474-3.052-2.079-3.052-3.902 0-2.224 1.809-4.033 4.033-4.033h12.811c0.598-2.93 3.195-5.143 6.299-5.143h10.286c3.104 0 5.701 2.213 6.299 5.143h13.303l-0.856 3.857h3.111zM27 2.571c-1.677 0-3.106 1.075-3.637 2.571h17.56c-0.531-1.497-1.961-2.571-3.637-2.571h-10.286zM16.136 69.429h32.014c0.293 0 0.579-0.040 0.861-0.098 0.068-0.014 0.135-0.030 0.202-0.046 0.27-0.071 0.536-0.159 0.786-0.28 0.022-0.012 0.042-0.026 0.064-0.037 0.236-0.121 0.462-0.267 0.672-0.432 0.041-0.032 0.084-0.064 0.125-0.098 0.219-0.185 0.423-0.392 0.604-0.624 0.023-0.031 0.042-0.063 0.066-0.094 0.157-0.212 0.289-0.436 0.402-0.667 0.024-0.050 0.054-0.096 0.076-0.148 0.006-0.015 0.009-0.033 0.015-0.049h-39.761c0.005 0.012 0.008 0.026 0.013 0.038 0.027 0.060 0.060 0.117 0.090 0.176 0.109 0.222 0.237 0.437 0.387 0.64 0.026 0.035 0.048 0.072 0.075 0.105 0.18 0.229 0.382 0.433 0.599 0.617 0.042 0.037 0.089 0.069 0.133 0.104 0.208 0.163 0.428 0.307 0.662 0.427 0.024 0.013 0.046 0.028 0.071 0.041 0.248 0.121 0.513 0.21 0.783 0.279 0.067 0.018 0.135 0.032 0.203 0.046 0.28 0.058 0.564 0.098 0.858 0.098zM46.648 47.571h-29.010l-5.603 16.653c-0.006 0.021-0.004 0.041-0.009 0.062h40.22c-0.010-0.048-0.008-0.096-0.021-0.144zM41.143 45v-2.571h-18v2.571h18zM46.54 39.857l4.571-20.571h-0.968c-2.836 0-5.143-2.307-5.143-5.143s2.307-5.143 5.143-5.143h3.254l0.286-1.286h-45.792c-0.806 0-1.462 0.656-1.462 1.462 0 0.667 0.456 1.237 1.137 1.415 10.574 2.793 10.664 23.63 10.491 29.265h28.484zM65.571 32.143v-14.143c0-3.545-2.884-6.429-6.429-6.429h-9c-1.418 0-2.571 1.153-2.571 2.571s1.153 2.571 2.571 2.571h6.762c1.944 0 3.524 1.58 3.524 3.524v11.904c0 1.418 1.153 2.571 2.571 2.571s2.571-1.153 2.571-2.571zM19.191 51.018c0.226-0.672 0.95-1.034 1.629-0.81 0.674 0.228 1.035 0.958 0.809 1.63l-3.461 10.286c-0.181 0.536-0.683 0.876-1.219 0.876-0.135 0-0.274-0.022-0.41-0.066-0.674-0.228-1.035-0.958-0.809-1.63zM46.117 62.118l-3.459-10.279c-0.226-0.674 0.136-1.403 0.809-1.63 0.675-0.222 1.403 0.139 1.629 0.809l3.459 10.279c0.226 0.674-0.136 1.403-0.809 1.63-0.136 0.045-0.275 0.067-0.41 0.067-0.537 0-1.038-0.339-1.219-0.875zM46.581 21.887c0.694 0.156 1.131 0.842 0.977 1.535l-2.858 12.857c-0.133 0.599-0.665 1.007-1.254 1.007-0.093 0-0.186-0.010-0.282-0.031-0.693-0.154-1.13-0.841-0.976-1.534l2.858-12.857c0.154-0.692 0.841-1.126 1.534-0.977zM19.071 10.304c0.698-0.108 1.364 0.354 1.482 1.053l4.144 24.429c0.118 0.699-0.352 1.363-1.053 1.482-0.072 0.012-0.145 0.018-0.216 0.018-0.616 0-1.161-0.444-1.266-1.071l-4.144-24.429c-0.118-0.699 0.352-1.363 1.053-1.482zM28.286 63.003c-0.71 0-1.286-0.575-1.286-1.286v-10.288c0-0.711 0.576-1.286 1.286-1.286s1.286 0.575 1.286 1.286v10.288c0 0.711-0.576 1.286-1.286 1.286zM37.286 63.003c-0.71 0-1.286-0.575-1.286-1.286v-10.288c0-0.711 0.576-1.286 1.286-1.286s1.286 0.575 1.286 1.286v10.288c0 0.711-0.576 1.286-1.286 1.286zM29.571 10.286c0.71 0 1.286 0.575 1.286 1.286v24.429c0 0.711-0.576 1.286-1.286 1.286s-1.286-0.575-1.286-1.286v-24.429c0-0.711 0.576-1.286 1.286-1.286zM37.286 10.286c0.71 0 1.286 0.575 1.286 1.286v24.429c0 0.711-0.576 1.286-1.286 1.286s-1.286-0.575-1.286-1.286v-24.429c0-0.711 0.576-1.286 1.286-1.286z"></path>
</svg>
