<!-- Generated by IcoMoon.io -->
<svg version="1.1" xmlns="http://www.w3.org/2000/svg" width="72" height="72" viewBox="0 0 72 72">
<title>uniF12B</title>
<path d="M59.77 7.855c2.536 0 4.601 2.064 4.602 4.601v5.87c0 2.536-2.064 4.601-4.601 4.601h-0.075l-4.461 45.073c0.005 1.602-1.041 3.052-2.53 3.676-0.497 0.208-1.043 0.325-1.615 0.325h-30.109c-2.291 0-4.153-1.863-4.153-4.151l-4.453-44.921h-0.144c-2.536 0-4.601-2.064-4.601-4.601v-5.872c0-2.536 2.064-4.601 4.601-4.601h0.635v-3.704c0-2.288 1.862-4.151 4.153-4.151l38.074 2.621c2.182 0 4.041 1.862 4.041 4.15v1.084h0.637zM15.933 4.151v3.703h40.135v-1.084c0-0.6-0.488-1.086-1.086-1.086l-38.069-2.621c-0.494 0.003-0.98 0.489-0.98 1.087zM55.364 35.124l1.245-12.196h-41.147l1.244 12.195 8.264 1.472c2.786-3.254 6.774-5.102 11.081-5.102 4.306 0 8.293 1.848 11.080 5.101zM55.096 38.287l-9.247 1.652-0.567-0.753c-2.211-2.94-5.576-4.627-9.229-4.627-3.654 0-7.019 1.687-9.23 4.627l-0.567 0.751-9.278-1.65 1.193 12.049 8.082-1.483 0.57 0.756c2.211 2.94 5.576 4.627 9.23 4.627 3.653 0 7.017-1.687 9.229-4.627l0.57-0.757 8.054 1.483zM51.089 68.933c0.589 0 1.084-0.497 1.086-1.084l1.405-14.457-6.452-1.187c-2.786 3.249-6.772 5.096-11.077 5.096-4.306 0-8.292-1.846-11.078-5.097l-6.481 1.188 1.376 14.105 0.020 0.199c0.006 0.555 0.287 0.972 0.675 1.147 0.129 0.058 0.27 0.089 0.417 0.089h30.109zM61.304 18.327v-5.872c0-0.846-0.689-1.534-1.533-1.534h-47.539c-0.845 0-1.534 0.687-1.534 1.534v5.872c0 0.846 0.689 1.534 1.534 1.534h47.539c0.845 0 1.533-0.687 1.533-1.534zM36.001 36.804c4.65 0 8.434 3.44 8.434 7.668s-3.783 7.668-8.434 7.668c-4.651 0-8.434-3.44-8.434-7.668s3.783-7.668 8.434-7.668zM36.001 49.072c2.958 0 5.367-2.064 5.367-4.601s-2.408-4.601-5.367-4.601c-2.96 0-5.367 2.064-5.367 4.601s2.408 4.601 5.367 4.601z"></path>
</svg>
