<!-- Generated by IcoMoon.io -->
<svg version="1.1" xmlns="http://www.w3.org/2000/svg" width="72" height="72" viewBox="0 0 72 72">
<title>uniF1B4</title>
<path d="M67.038 17.269c6.485 9.277 6.636 28.772 0.318 40.902-3.504 6.722-8.479 10.276-14.391 10.276-1.949 0-3.87-0.443-5.597-1.285-0.946 0.448-1.943 0.768-2.96 0.978-0.514 0.113-1.037 0.195-1.567 0.245-0.102 0.026-0.201 0.063-0.313 0.063-0.17 0-0.335-0.014-0.503-0.020-0.13 0.004-0.258 0.020-0.389 0.020-0.060 0-0.11-0.026-0.168-0.034-1.873-0.030-3.734-0.44-5.423-1.252-1.709 0.82-3.594 1.234-5.491 1.255-0.051 0.006-0.096 0.030-0.149 0.030-0.973 0-1.924-0.119-2.85-0.329-0.12-0.026-0.238-0.064-0.358-0.094-0.279-0.072-0.559-0.143-0.832-0.233-0.355-0.113-0.704-0.248-1.050-0.391-0.024-0.010-0.048-0.019-0.071-0.029-0.173-0.073-0.35-0.13-0.52-0.21-1.727 0.843-3.647 1.285-5.597 1.285-11.435-0.815-18.667-16.177-19.106-30.558-0.534-17.537 7.914-24.936 15.999-26.011l0.165-0.011c2.29 0 4.584 0.605 6.678 1.759 0.146-0.084 0.303-0.143 0.453-0.221 0.35-0.184 0.699-0.37 1.063-0.521 0.246-0.104 0.503-0.175 0.755-0.263 0.29-0.101 0.576-0.216 0.873-0.296 0.318-0.086 0.644-0.135 0.967-0.198 0.24-0.046 0.478-0.111 0.722-0.144 0.571-0.077 1.149-0.117 1.729-0.117 1.263 0 2.516 0.201 3.735 0.56 0.118-1.961 0.029-4.709-1.144-6.306-0.42-0.574-0.424-1.342-0.011-1.913 0.406-0.56 1.125-0.793 1.782-0.576 1.667 0.543 4.118 1.060 6.332 0.458 0.666-0.183 1.374 0.076 1.764 0.644 0.383 0.559 0.366 1.3-0.039 1.847-0.738 0.993-1.881 2.937-2.25 5.687 0.58-0.136 1.167-0.23 1.756-0.288 0.376-0.048 0.755-0.071 1.137-0.086 0.045-0.005 0.084-0.026 0.13-0.026 0.061 0 0.122 0.009 0.185 0.010 0.061-0.001 0.122-0.010 0.185-0.010 0.046 0 0.085 0.021 0.13 0.026 0.957 0.036 1.896 0.176 2.807 0.414 0.085 0.021 0.168 0.045 0.251 0.067 0.393 0.11 0.778 0.239 1.158 0.385 0.166 0.063 0.331 0.12 0.495 0.189 0.293 0.125 0.576 0.271 0.86 0.418 0.179 0.090 0.364 0.161 0.539 0.261 2.068-1.139 4.331-1.744 6.596-1.759 4.484-0.554 8.353 1.312 11.212 5.402zM35.598 13.396c0.12 0.060 0.234 0.121 0.348 0.181 0.034 0.019 0.069 0.030 0.101 0.049 0.119-0.066 0.245-0.113 0.365-0.175 0.19-0.095 0.373-0.193 0.579-0.285 0.144-2.678 0.938-4.813 1.747-6.331-1.302 0.080-2.582-0.059-3.724-0.293 0.79 2.234 0.764 4.917 0.584 6.853zM65.135 57.016c5.848-11.222 5.777-29.841-0.148-38.314-2.341-3.349-5.338-4.807-8.918-4.345l-0.162 0.011c-1.481 0-2.966 0.326-4.378 0.929 0.334 0.295 0.659 0.604 0.972 0.934 3.086 3.265 4.702 7.869 4.433 12.634-0.036 0.665-0.589 1.179-1.247 1.179-0.025 0-0.048-0.001-0.072-0.002-0.688-0.039-1.215-0.629-1.177-1.319 0.23-4.080-1.139-8.008-3.754-10.775-0.76-0.804-1.607-1.473-2.51-2.016-0.21-0.125-0.424-0.241-0.64-0.351-0.166-0.085-0.331-0.176-0.501-0.254-0.431-0.191-0.872-0.36-1.322-0.491-0.009-0.003-0.019-0.005-0.029-0.008-1.35-0.39-2.762-0.493-4.16-0.346-2.47 0.343-4.775 1.537-6.601 3.469-2.615 2.767-3.983 6.693-3.753 10.773l0.275 4.878c0.040 0.69-0.488 1.282-1.177 1.319-0.025 0.001-0.049 0.002-0.072 0.002-0.658 0-1.21-0.514-1.247-1.179l-0.275-4.878c-0.27-4.764 1.345-9.369 4.431-12.634 0.279-0.295 0.573-0.569 0.869-0.835-0.055-0.025-0.101-0.050-0.158-0.075-3.341-1.447-7.192-1.185-10.257 0.808l-0.22 0.143c-1.389 0.944-2.618 2.203-3.594 3.776-0.236 0.383-0.645 0.593-1.064 0.593-0.224 0-0.451-0.059-0.656-0.188-0.587-0.364-0.768-1.134-0.404-1.721 0.822-1.327 1.826-2.465 2.938-3.437-1.385-0.591-2.84-0.918-4.291-0.929-10.613 1.472-14.060 13.067-13.743 23.446 0.395 12.984 6.891 27.434 16.694 28.139 0.982-0.002 1.954-0.166 2.9-0.455-3.147-2.482-5.299-6.3-5.541-10.584l-0.634-11.25c-0.040-0.69 0.488-1.282 1.177-1.319 0.698-0.031 1.282 0.488 1.319 1.177l0.634 11.25c0.259 4.565 3.117 8.494 6.98 10.227 0.066 0.029 0.13 0.063 0.196 0.090 0.224 0.095 0.455 0.176 0.685 0.256 0.187 0.064 0.375 0.125 0.565 0.179 0.165 0.048 0.33 0.091 0.496 0.131 0.311 0.071 0.623 0.13 0.937 0.174 0.071 0.010 0.14 0.025 0.211 0.034 1.648 0.196 3.32 0 4.884-0.573-1.902-1.634-3.392-3.835-4.259-6.457-0.218-0.656 0.14-1.363 0.795-1.579 0.653-0.223 1.363 0.14 1.579 0.795 1.513 4.575 5.29 7.599 9.732 7.871 0.36-0.006 0.719-0.024 1.078-0.066 0.079-0.010 0.156-0.026 0.235-0.037 0.274-0.037 0.546-0.091 0.817-0.15 0.261-0.061 0.523-0.126 0.778-0.206 0.037-0.013 0.075-0.025 0.112-0.036 4.408-1.434 7.793-5.667 8.074-10.655l0.726-12.889c0.039-0.689 0.648-1.218 1.319-1.177 0.688 0.039 1.215 0.629 1.177 1.319l-0.726 12.889c-0.24 4.276-2.385 8.089-5.522 10.571 0.967 0.298 1.972 0.465 3.020 0.465 6.213 0 10.050-4.857 12.171-8.932z"></path>
</svg>
