<!-- Generated by IcoMoon.io -->
<svg version="1.1" xmlns="http://www.w3.org/2000/svg" width="72" height="72" viewBox="0 0 72 72">
<title>uniF142</title>
<path d="M41.381 11.333c0-1.088 0.544-1.632 1.632-1.632s1.632 0.544 1.632 1.632-0.544 1.632-1.632 1.632c-1.088 0-1.632-0.544-1.632-1.632zM31.592 11.333c0-1.088 0.544-1.632 1.632-1.632s1.632 0.544 1.632 1.632-0.544 1.632-1.632 1.632-1.632-0.544-1.632-1.632zM36.487 8.070c0-1.088 0.544-1.632 1.632-1.632s1.632 0.544 1.632 1.632c0 1.088-0.544 1.632-1.632 1.632s-1.632-0.544-1.632-1.632zM50.582 44.043c0.959 0 1.439 0.479 1.441 1.438v3.586c0 2.517-0.892 4.668-2.677 6.452s-3.935 2.677-6.452 2.677h-3.586c-0.96 0-1.439-0.48-1.439-1.44v-3.586c0-0.351 0.028-0.744 0.085-1.179l-0.144 0.144c-0.281 0.281-0.621 0.422-1.018 0.422s-0.736-0.141-1.018-0.422l-0.119-0.119c0.054 0.43 0.081 0.815 0.081 1.155v3.586c0 0.96-0.48 1.44-1.44 1.44h-3.587c-2.516 0-4.667-0.892-6.451-2.677s-2.677-3.935-2.677-6.452v-3.586c0-0.96 0.48-1.44 1.44-1.44h3.586c1.463 0 2.853 0.339 4.169 1.018-0.692-3.246 0.129-6.035 2.462-8.368l2.536-2.536c0.679-0.679 1.357-0.679 2.035 0l2.536 2.536c2.336 2.335 3.155 5.128 2.459 8.379 1.321-0.685 2.718-1.028 4.192-1.028h3.587zM32.856 55.318v-2.146c0-1.724-0.611-3.196-1.832-4.418s-2.694-1.832-4.418-1.832h-2.146v2.146c0 1.724 0.611 3.196 1.832 4.418s2.694 1.832 4.417 1.832h2.148zM36.791 49.084l1.519-1.519c1.218-1.219 1.827-2.692 1.827-4.42s-0.609-3.201-1.827-4.419l-1.519-1.519-1.519 1.519c-1.218 1.218-1.827 2.692-1.827 4.42s0.609 3.201 1.827 4.419zM49.143 49.068v-2.146h-2.148c-1.723 0-3.195 0.611-4.417 1.832s-1.832 2.694-1.832 4.418v2.146h2.146c1.724 0 3.196-0.611 4.418-1.832s1.832-2.694 1.832-4.418zM70.956 64.372c1.197 1.199 1.417 2.555 0.658 4.068-0.76 1.525-1.976 2.162-3.649 1.913l-7.69-1.1c-0.076 0.019-0.128 0.031-0.154 0.037l-1.487 0.314c-7.585 1.597-15.201 2.395-22.847 2.395-8.052 0-16.067-0.886-24.045-2.657-0.081-0.018-0.155-0.039-0.225-0.062l-7.485 1.071c-1.683 0.223-2.899-0.414-3.65-1.912-0.756-1.514-0.536-2.87 0.661-4.068l4.009-4.012c0.003-0.121 0.011-0.235 0.023-0.344l3.119-32.025c-1.101-0.102-2.016-0.469-2.744-1.102s-1.092-1.387-1.092-2.265v-0.286c0-2 0.886-3.8 2.659-5.4s3.931-2.584 6.476-2.952c0.653-1.13 1.46-2.326 2.421-3.588s2.352-2.853 4.175-4.775c1.823-1.922 4.056-3.582 6.698-4.98s5.419-2.273 8.329-2.624l0.173-0.020 0.173 0.020c2.921 0.352 5.707 1.232 8.358 2.639s4.889 3.076 6.713 5.007c1.825 1.932 3.215 3.527 4.17 4.786s1.755 2.448 2.399 3.568c2.487 0.41 4.588 1.408 6.303 2.993s2.573 3.361 2.573 5.325v0.286c0 1.644-0.996 2.718-2.988 3.223l3.892 32.084c0.014 0.134 0.023 0.265 0.026 0.393zM35.29 2.901c-7.026 0.912-13.126 5.226-18.301 12.944h36.598c-5.193-7.718-11.292-12.033-18.297-12.944zM7.238 24.625c0.107 0.268 0.52 0.435 1.238 0.502l0.003-0.029 10.691 1.631c3.624 0.552 8.815 0.835 15.573 0.848 6.752 0.013 11.964-0.25 15.635-0.789l12.050-1.771c0.401-0.134 0.626-0.272 0.675-0.416l-0.003-0.263c0-1.364-0.804-2.64-2.413-3.83s-3.512-1.785-5.71-1.785h-39.617c-2.199 0-4.102 0.595-5.71 1.785s-2.412 2.467-2.412 3.831v0.286zM69.042 67.15c0.139-0.275 0.099-0.523-0.121-0.744l-4.891-4.891 0.003-0.831c0.002-0.214-0.001-0.354-0.009-0.42l-3.882-32-9.343 1.372c-0.499 0.072-1.007 0.138-1.524 0.196-0.016 0.002-0.294 0.029-0.832 0.082-0.571 0.057-0.86 0.086-0.868 0.086-0.128 0.011-0.527 0.042-1.196 0.092-0.051 0.004-0.151 0.011-0.301 0.023s-0.267 0.020-0.353 0.026c-0.323 0.022-0.808 0.050-1.457 0.086-0.017 0.001-0.090 0.005-0.219 0.013-0.13 0.008-0.23 0.014-0.301 0.017-0.429 0.023-0.991 0.047-1.687 0.073-0.044 0.001-0.108 0.004-0.193 0.008s-0.149 0.006-0.192 0.008c-0.491 0.018-1.112 0.037-1.864 0.056-0.15 0.005-0.246 0.007-0.288 0.009-0.515 0.013-1.169 0.024-1.962 0.035-0.154 0.003-0.236 0.004-0.246 0.004-0.716 0.008-1.396 0.012-2.040 0.012-0.036 0.001-0.091 0.001-0.164 0.001h-0.029c-4.985 0-9.317-0.166-12.995-0.497l-0.033-0.003c-0.644-0.059-1.216-0.117-1.716-0.176l-0.040-0.004c-0.58-0.069-1.1-0.139-1.56-0.209l-7.689-1.172-3.108 31.914c-0.009 0.079-0.012 0.22-0.010 0.42l0.003 0.816-4.854 4.854c-0.219 0.221-0.259 0.47-0.121 0.746 0.14 0.272 0.363 0.388 0.669 0.348l8.13-1.163 0.297 0.086c0.053 0.016 0.139 0.045 0.256 0.086 15.245 3.395 30.49 3.487 45.733 0.276l1.488-0.314c0.088-0.035 0.173-0.063 0.253-0.085l0.282-0.075 8.307 1.186c0.307 0.038 0.53-0.078 0.668-0.35z"></path>
</svg>
