<!-- Generated by IcoMoon.io -->
<svg version="1.1" xmlns="http://www.w3.org/2000/svg" width="72" height="72" viewBox="0 0 72 72">
<title>uniF159</title>
<path d="M59.189 12.659c11.575 11.573 15.376 24.794 10.705 37.225l-0.599 1.592-1.462-0.866c-0.698-0.413-1.352-0.828-1.981-1.244-1.667 3.401-4.044 6.659-7.090 9.705-8.951 8.951-24.875 12.93-36.826 12.93-0.111 0-0.222 0-0.333-0.001-7.568-0.047-13.36-1.624-16.483-4.429-0.026-0.020-0.048-0.044-0.074-0.064-0.128-0.117-0.282-0.222-0.4-0.345-0.019-0.019-0.036-0.043-0.054-0.061-0.009-0.007-0.017-0.014-0.024-0.021-0.004-0.003-0.010-0.004-0.014-0.009s-0.006-0.009-0.010-0.013c-0.009-0.007-0.017-0.014-0.024-0.021-0.014-0.014-0.017-0.031-0.030-0.046-0.017-0.019-0.030-0.040-0.047-0.058-0.070-0.076-0.137-0.154-0.205-0.234-0.054-0.040-0.117-0.060-0.167-0.108-0.819-0.799-1.406-1.886-1.783-3.2-2.005-4.853-2.666-12.498-1.663-21.040 1.449-12.345 5.871-23.017 12.135-29.281 2.962-2.961 6.111-5.287 9.385-6.941-0.438-0.6-0.875-1.224-1.312-1.899l-0.948-1.463 1.62-0.638c12.572-4.943 25.951-1.198 37.685 10.533zM56.746 57.055c2.952-2.952 5.218-6.099 6.754-9.366-6.428-4.932-8.406-9.724-8.958-12.702-0.426 0.303-0.845 0.561-1.265 0.831-0.232 0.15-0.469 0.322-0.7 0.46-0.319 0.192-0.631 0.346-0.948 0.52-0.329 0.18-0.661 0.378-0.985 0.539-0.221 0.11-0.435 0.191-0.653 0.292-0.413 0.189-0.828 0.389-1.233 0.55-0.083 0.033-0.164 0.054-0.247 0.087-0.533 0.205-1.062 0.398-1.579 0.557-0.003 0-0.004 0.001-0.007 0.001-7.167 2.203-12.74 0.155-14.131-0.446l-0.517-0.224-0.224-0.517c-0.65-1.498-2.962-7.846 0.144-15.807 0.020-0.054 0.034-0.105 0.056-0.16 0.184-0.463 0.406-0.935 0.628-1.408 0.074-0.16 0.133-0.315 0.212-0.476 0.172-0.346 0.383-0.701 0.577-1.052 0.162-0.295 0.305-0.586 0.483-0.882 0.134-0.224 0.301-0.452 0.445-0.677 0.274-0.429 0.537-0.855 0.846-1.288-2.736-0.512-7.006-2.212-11.509-7.471-3.182 1.526-6.261 3.763-9.164 6.666-5.732 5.733-9.964 16.050-11.318 27.598-0.379 3.227-0.502 6.362-0.396 9.238 2.099-7.155 6.754-15.077 13.151-18.994 0.673-0.41 1.549-0.201 1.959 0.47 0.412 0.671 0.201 1.549-0.47 1.959-7.008 4.292-12.069 14.648-12.914 22.18-0.111 0.99-0.138 1.902-0.103 2.74 1.914-4.863 6.26-11.233 10.916-14.688 0.63-0.469 1.522-0.338 1.992 0.295 0.469 0.631 0.336 1.523-0.295 1.992-6.81 5.053-11.555 15.411-10.738 17.15 0.019 0.020 0.036 0.046 0.056 0.066 1.174 1.146 3.692 1.593 6.961 1.231 7.531-0.844 17.886-5.906 22.179-12.914 0.41-0.67 1.285-0.881 1.959-0.47 0.671 0.41 0.882 1.288 0.47 1.959-4.473 7.303-14.167 12.337-21.977 13.885 1.679 0.222 3.487 0.356 5.415 0.368 11.348 0.055 26.67-3.638 35.126-12.093zM67.786 47.233c3.331-10.848-0.396-22.343-10.616-32.557-10.348-10.349-21.974-14.031-32.936-10.5 0.275 0.388 0.549 0.731 0.822 1.086l0.407 0.506c5.817 7.237 10.986 7.522 12.25 7.474 0.041-0.003 0.080-0.004 0.113-0.007 0.024-0.001 0.053-0.003 0.071-0.004 0.058-0.004 0.101-0.010 0.118-0.013l0.116-0.017 3.695-0.597-2.504 2.945c-4.494 5.289-5.74 10.343-5.819 14.174-0.036 1.703 0.16 3.163 0.403 4.295 0.182 0.848 0.392 1.512 0.551 1.953 2.354 0.849 11.019 3.123 20.423-4.865l2.975-2.528-0.644 3.834c-0.047 0.346-0.747 6.684 8.889 13.645l0.496 0.358c0.39 0.272 0.764 0.544 1.188 0.818z"></path>
</svg>
