<!-- Generated by IcoMoon.io -->
<svg version="1.1" xmlns="http://www.w3.org/2000/svg" width="72" height="72" viewBox="0 0 72 72">
<title>uniF124</title>
<path d="M71.876 22.087c0.302 0.624 0.039 1.376-0.585 1.677-0.217 0.105-21.84 10.651-36.847 26.59 0.339 0.49 0.313 1.156-0.123 1.592-0.245 0.245-0.567 0.368-0.888 0.368-0.154 0-0.309-0.031-0.455-0.088-0.298 0.461-0.587 0.937-0.843 1.459-0.055 0.112-0.118 0.251-0.177 0.378-0.031 0.112-0.083 0.214-0.147 0.315-0.358 0.8-0.779 1.824-1.247 2.97-1.984 4.839-4.697 11.468-7.824 13.565-1.026 0.688-2.087 1.029-3.145 1.029-1.951 0-3.892-1.158-5.603-3.412-1.019 0.663-2.019 1.018-2.98 1.018-0.231 0-0.457-0.019-0.684-0.057-1.246-0.211-2.361-1.011-3.224-2.315-0.294-0.446-0.632-0.859-0.999-1.227-0.371-0.368-0.784-0.705-1.226-0.996-1.304-0.863-2.104-1.977-2.316-3.224-0.19-1.127 0.126-2.31 0.882-3.524-0.001-0.001-0.004-0.001-0.005-0.003-3.499-2.642-4.377-5.839-2.411-8.772 2.098-3.127 8.725-5.842 13.565-7.824 1.086-0.445 2.058-0.844 2.838-1.19 0.004-0.005 0.005-0.011 0.010-0.016 0.215-0.215 0.491-0.319 0.773-0.345 0.013-0.005 0.029-0.013 0.041-0.019 0.568-0.279 1.093-0.589 1.588-0.918-0.196-0.459-0.112-1.008 0.263-1.382 0.437-0.436 1.104-0.461 1.594-0.121 15.88-15.004 26.487-36.631 26.593-36.849 0.303-0.624 1.055-0.884 1.678-0.582 0.624 0.303 0.884 1.054 0.582 1.678-0.107 0.221-10.867 22.174-27.045 37.499l1.127 1.127c15.338-15.222 32.515-36.192 32.698-36.416 0.44-0.538 1.231-0.618 1.768-0.178 0.538 0.438 0.618 1.23 0.178 1.768-0.183 0.226-17.432 21.282-32.867 36.603l3.39 3.39c15.436-15.356 37.286-31.844 37.52-32.020 0.558-0.417 1.343-0.304 1.759 0.249 0.417 0.554 0.306 1.342-0.248 1.759-0.232 0.176-21.955 16.567-37.255 31.79l1.118 1.118c15.33-16.24 37.279-26.941 37.501-27.047 0.626-0.302 1.377-0.039 1.677 0.585zM30.408 51.59c0.217-0.378 0.446-0.741 0.687-1.091l-1.283-1.283c-0.295 0.303-0.585 0.603-0.874 0.903zM23.714 44.897l3.445 3.445c0.289-0.3 0.579-0.602 0.874-0.903l-3.415-3.415c-0.303 0.295-0.604 0.584-0.905 0.873zM20.496 41.677l1.442 1.442c0.3-0.289 0.602-0.579 0.905-0.873l-1.268-1.268c-0.345 0.244-0.704 0.477-1.079 0.698zM3.114 50.831c-0.437 0.653-1.77 2.641 1.839 5.367 0.019 0.014 0.028 0.035 0.045 0.050 3.49-3.674 10.498-8.557 13.529-10.441 0.529-0.329 1.026-0.678 1.504-1.039l-1.911-1.911c-0.75 0.325-1.614 0.682-2.574 1.075-4.287 1.755-10.76 4.407-12.433 6.898zM10.745 67.015c0.636 0.108 1.391-0.181 2.27-0.849 3.251-2.477 8.834-10.317 11.101-13.963 0.434-0.696 0.898-1.349 1.382-1.969l-3.676-3.676c-0.619 0.485-1.271 0.95-1.967 1.382-3.646 2.265-11.484 7.848-13.964 11.102-0.67 0.881-0.956 1.643-0.851 2.269 0.094 0.55 0.506 1.071 1.225 1.547 0.579 0.382 1.122 0.824 1.614 1.314 0.489 0.491 0.931 1.034 1.319 1.618 0.327 0.495 0.86 1.109 1.546 1.225zM21.34 68.828c2.491-1.671 5.143-8.146 6.897-12.429 0.366-0.893 0.698-1.704 1.006-2.418l-1.955-1.955c-0.361 0.477-0.71 0.975-1.038 1.504-1.528 2.457-5.024 7.523-8.25 11.216 0.494-0.451 1.254-0.447 1.731 0.030l1.256 1.256c0.491 0.491 0.491 1.285 0 1.776-0.245 0.245-0.567 0.368-0.888 0.368s-0.643-0.123-0.888-0.368l-1.256-1.256c-0.462-0.464-0.472-1.19-0.062-1.683-0.676 0.768-1.338 1.475-1.966 2.081 0.013 0.016 0.033 0.024 0.045 0.040 2.725 3.608 4.714 2.278 5.367 1.838zM29.766 42.29c-0.49-0.491-0.49-1.286 0-1.776l32.982-32.982c0.491-0.491 1.285-0.491 1.777 0s0.491 1.285 0 1.777l-32.982 32.982c-0.245 0.245-0.567 0.368-0.888 0.368s-0.643-0.123-0.888-0.368zM8.425 59.75l3.769 3.769c0.491 0.491 0.491 1.285 0 1.777-0.245 0.245-0.567 0.368-0.888 0.368s-0.643-0.123-0.888-0.368l-3.769-3.769c-0.491-0.491-0.491-1.285 0-1.777s1.285-0.491 1.776 0zM5.392 53.988l-1.256-1.256c-0.491-0.491-0.491-1.285 0-1.777s1.285-0.491 1.777 0l1.256 1.256c0.491 0.491 0.491 1.285 0 1.777-0.245 0.245-0.567 0.368-0.888 0.368s-0.643-0.123-0.888-0.368z"></path>
</svg>
