<!-- Generated by IcoMoon.io -->
<svg version="1.1" xmlns="http://www.w3.org/2000/svg" width="72" height="72" viewBox="0 0 72 72">
<title>uniF141</title>
<path d="M13.745 48.881v0c0.859 0.859 1.332 2 1.332 3.215 0 1.214-0.474 2.356-1.332 3.214-0.886 0.886-2.050 1.329-3.214 1.329s-2.327-0.442-3.214-1.329c-0.858-0.857-1.332-2-1.332-3.214 0-1.215 0.474-2.358 1.332-3.215 1.771-1.77 4.653-1.77 6.428 0zM11.602 53.167c0.286-0.288 0.444-0.668 0.444-1.071 0-0.406-0.158-0.785-0.444-1.070v-0.001c-0.295-0.296-0.683-0.442-1.071-0.442s-0.776 0.147-1.071 0.442c-0.286 0.286-0.444 0.665-0.444 1.071 0 0.405 0.159 0.785 0.444 1.071 0.592 0.592 1.55 0.592 2.142 0zM71.657 20.739c0.223 1.083-0.077 2.2-0.804 2.985l-0.005 0.005c-0.485 0.518-1.103 0.847-1.793 0.953l-0.121 0.020-9.572-0.089v15.379c0.001 1.461-0.132 2.899-0.323 4.323 6.635 1.221 10.531 8.897 10.705 9.25l0.57 1.148-1.038 0.752c-5.402 3.914-10.837 4.962-15.111 4.962-0.742 0-1.433-0.039-2.1-0.094-0.653 0.79-1.344 1.556-2.077 2.29-6.046 6.047-14.082 9.376-22.633 9.376h-27.086v-27.297c0-9.244 3.991-17.555 10.311-23.371-1.036-2.412-1.18-4.832-0.423-7.212 1.871-5.887 8.658-9.31 8.946-9.452l1.148-0.567 0.752 1.038c1.912 2.64 3.252 5.524 4.061 8.573 2.258-0.511 4.594-0.803 7.003-0.803h15.47l0.035-9.49c0.165-1.735 0.952-2.53 1.583-2.92 1.324-0.812 2.92-0.427 3.502-0.242 3.294 0.444 3.741 2.805 3.958 3.95 0.017 0.089 0.036 0.195 0.056 0.291 1.683-0.058 3.145 0.459 4.215 1.527 1.133 1.135 1.668 2.706 1.509 4.428-0.076 0.806 0.15 1.518 0.633 2.002 0.485 0.483 1.194 0.714 2.002 0.633 2.385-0.203 3.017 1.903 3.364 3.042 0.341 1.111 0.596 1.808 1.279 2.112 1.012 0.447 1.755 1.383 1.983 2.497zM13.037 19.251c0.209-0.157 0.433-0.292 0.648-0.444 0.361-0.257 0.723-0.511 1.095-0.753 0.411-0.267 0.83-0.515 1.253-0.762 0.414-0.241 0.821-0.488 1.246-0.712 0.304-0.161 0.621-0.3 0.932-0.45 1.282-0.624 2.6-1.179 3.97-1.629-0.603-2.271-1.561-4.438-2.862-6.465-1.799 1.123-5.202 3.624-6.275 7.014-0.441 1.391-0.445 2.779-0.008 4.202zM58.507 47.282c-0.020 0.083-0.048 0.164-0.070 0.247-0.844 3.506-2.256 6.837-4.228 9.865 3.467-0.008 7.793-0.801 12.166-3.617-1.214-1.947-4.049-5.782-7.869-6.496zM68.632 21.668l-0.001-0.001c0.091-0.099 0.073-0.253 0.059-0.315-0.024-0.123-0.101-0.277-0.246-0.341-1.996-0.889-2.567-2.759-2.944-3.996-0.088-0.283-0.209-0.679-0.311-0.899-1.674 0.108-3.2-0.421-4.3-1.52-1.133-1.133-1.668-2.705-1.509-4.426 0.076-0.806-0.15-1.518-0.633-2.003-0.486-0.483-1.198-0.709-2.003-0.633-2.532 0.229-2.947-1.944-3.105-2.764-0.194-1.039-0.261-1.388-1.488-1.524l-0.379-0.094c-0.351-0.129-0.876-0.167-1.026-0.073-0.036 0.021-0.117 0.17-0.149 0.494l-0.039 12.363h-18.489c-2.68 0-5.264 0.397-7.726 1.085-0.988 0.274-1.953 0.598-2.894 0.971-0.021 0.009-0.044 0.015-0.067 0.024-2.855 1.138-5.484 2.723-7.852 4.723-6.247 5.282-10.231 13.163-10.231 21.965v24.268h24.057c7.74 0 15.017-3.015 20.49-8.488 0.614-0.614 1.185-1.256 1.736-1.914l0.586-0.748c2.433-3.109 4.205-6.706 5.2-10.497 0.050-0.194 0.098-0.388 0.145-0.583 0.109-0.453 0.214-0.909 0.3-1.367l0.039-0.214c0.302-1.689 0.477-3.414 0.477-5.167v-18.437zM68.838 21.899l0.905 0.795-0.905-0.838v0.042zM10.531 37.723c13.367 0 24.243 10.876 24.243 24.243h-3.030c0-11.697-9.516-21.213-21.213-21.213v-3.030zM15.463 32.792c13.367 0 24.243 10.875 24.243 24.243h-3.030c0-11.698-9.516-21.213-21.213-21.213v-3.030zM20.174 28.080c13.369 0 24.243 10.876 24.243 24.243h-3.030c0-11.697-9.516-21.213-21.213-21.213v-3.030zM25.105 23.148c13.369 0 24.243 10.876 24.243 24.243h-3.030c0-11.698-9.516-21.213-21.213-21.213v-3.030z"></path>
</svg>
