<!-- Generated by IcoMoon.io -->
<svg version="1.1" xmlns="http://www.w3.org/2000/svg" width="72" height="72" viewBox="0 0 72 72">
<title>uniF18B</title>
<path d="M46.401 42.945l-1.057-1.31c-0.129 1.454-0.351 2.875-0.647 4.265l3.185 0.206c3.764-0.22 6.815 2.237 7.405 5.987l1.21 4.276-4.436-0.289c-3.793 0.219-6.815-2.24-7.405-5.987l-0.535-1.891c-0.468 1.631-1.033 3.216-1.725 4.728l3.843 1.569c3.66 1.001 5.756 4.281 5.128 8.025l-0.207 4.438-4.114-1.677c-3.66-1.002-5.755-4.283-5.128-8.025l0.175-3.723c-4.545 9.41-13.349 16.261-24.751 18.437-0.080 0.015-0.158 0.023-0.238 0.023-0.595 0-1.125-0.423-1.241-1.029-0.13-0.686 0.319-1.349 1.006-1.481 11.213-2.141 19.718-9.148 23.669-18.693l-0.175 0.173c-1.436 1.811-3.423 2.756-5.478 2.756-1.319 0-2.665-0.388-3.914-1.188l-4.002-1.931 3.157-3.128c1.306-1.648 3.070-2.549 4.924-2.704-0.504-0.073-1.009-0.185-1.516-0.368l-4.332-0.999 2.389-3.747c0.452-0.943 1.063-1.721 1.772-2.351-0.057-0.001-0.109 0.009-0.165 0.006l-4.434 0.297 1.202-4.279c0.057-0.367 0.156-0.711 0.258-1.052-0.316 0.125-0.633 0.251-0.977 0.337l-4.151 1.587-0.109-4.443c-0.176-1.212-0.042-2.356 0.306-3.399-0.96 0.508-2.040 0.787-3.184 0.787-0.64 0-1.3-0.085-1.964-0.259l-4.403-0.609 2.046-3.947c0.76-2.029 2.226-3.455 4.015-4.148-0.378 0.063-0.757 0.106-1.131 0.106-2.237 0-4.356-1.106-5.759-3.174l-2.917-3.352 4.136-1.629c3.34-1.802 7.12-0.877 9.251 2.26l2.301 2.645c0.318-0.448 0.886-0.664 1.43-0.477 0.315 0.109 0.616 0.242 0.925 0.363l-1.4-1.572c-2.844-2.515-3.279-6.383-1.066-9.465l2.142-3.893 2.956 3.323c2.842 2.513 3.278 6.381 1.063 9.462l-1.678 3.051c1.341 0.681 2.612 1.477 3.79 2.388l-0.539-3.632c-1.004-3.66 0.75-7.135 4.29-8.502l3.926-2.084 0.653 4.396c1.003 3.66-0.751 7.135-4.29 8.5l-3.432 1.822c1.038 0.859 2.003 1.8 2.885 2.817l1.428-3.251c1.101-3.632 4.431-5.633 8.159-4.91l4.433 0.327-1.789 4.070c-0.454 1.498-1.296 2.711-2.382 3.578 1.529-0.482 3.237-0.429 4.913 0.271l4.274 1.212-2.569 3.624c-0.53 0.976-1.225 1.767-2.022 2.375 0.955 0.34 1.869 0.875 2.675 1.655l3.541 2.69-3.718 2.436c-1.261 1.063-2.708 1.614-4.166 1.709 1.924 0.302 3.676 1.414 4.843 3.275l2.795 3.455-4.193 1.479c-1.081 0.534-2.194 0.791-3.276 0.791-2.327 0-4.51-1.191-5.886-3.384zM40.567 8.428c-2.369 0.887-3.495 3.118-2.801 5.551l0.034 0.161 0.138 0.93 0.979-0.509c2.369-0.886 3.495-3.117 2.801-5.549l-0.034-0.161-0.138-0.931zM29.665 5.322c-1.496 2.039-1.216 4.522 0.696 6.178l0.118 0.115 0.625 0.704 0.543-0.964c1.496-2.038 1.217-4.52-0.695-6.177l-0.118-0.115-0.626-0.705zM44.426 57.624c-0.444 2.49 0.901 4.595 3.348 5.239l0.154 0.052 0.872 0.354 0.062-1.103c0.444-2.491-0.901-4.596-3.347-5.239l-0.157-0.052-0.871-0.354zM47.879 48.644l-1.021-0.066 0.29 1.067c0.367 2.503 2.325 4.095 4.833 3.908l0.082-0.005 1.021 0.066-0.29-1.067c-0.367-2.502-2.321-4.085-4.833-3.908zM45.479 38.828l2.32-0.819c0.904-0.448 1.831-0.687 2.745-0.758-1.355-0.237-2.663-0.883-3.776-1.962l-1.586-1.205c0.192 1.198 0.307 2.418 0.327 3.657 0.005 0.367-0.024 0.723-0.029 1.086zM43.711 28.743c0.376 0.947 0.696 1.918 0.957 2.915l2.277-1.493c0.148-0.125 0.31-0.215 0.463-0.327-0.195-0.065-0.39-0.132-0.584-0.213zM54.849 41.998c-1.323-2.156-3.726-2.836-5.983-1.693l-0.151 0.066-0.887 0.313 0.687 0.867c1.321 2.156 3.726 2.835 5.982 1.693l0.151-0.066 0.887-0.313zM55.615 33.030l-0.872-0.677c-1.797-1.778-4.294-1.867-6.212-0.214l-0.132 0.099-0.786 0.515 0.872 0.677c1.798 1.779 4.293 1.868 6.212 0.215l0.132-0.099zM53.179 23.983c-2.323-1.004-4.68-0.171-5.862 2.067l-0.086 0.139-0.544 0.767 1.058 0.31c2.323 1 4.68 0.171 5.864-2.065l0.086-0.139 0.544-0.767zM43.117 19.234l-0.38 0.862 1.102 0.091c2.471 0.513 4.617-0.776 5.325-3.204l0.057-0.154 0.378-0.862-1.101-0.091c-2.483-0.516-4.618 0.777-5.326 3.204zM43.413 22.684l-3.33-0.246c1.226 1.555 2.265 3.261 3.099 5.081l1.938-2.731c0.506-0.933 1.167-1.687 1.92-2.284-0.669 0.211-1.381 0.328-2.122 0.328-0.491 0-0.995-0.049-1.505-0.148zM40.169 27.144c-1.44-2.637-3.381-4.959-5.724-6.805l0.108 4.371c0.158 1.096 0.063 2.136-0.21 3.098 0.921-0.347 1.931-0.53 3.017-0.476zM16.977 13.649c1.398 2.106 3.826 2.701 6.038 1.476l0.148-0.071 0.876-0.344-0.716-0.842c-1.398-2.106-3.826-2.702-6.038-1.476l-0.148 0.071-0.876 0.344zM24.166 17.379c-0.304 0.165-0.611 0.302-0.921 0.421 0.958-0.143 1.968-0.111 3.002 0.161l4.403 0.61-2.046 3.945c0 0.001-0.001 0.003-0.001 0.003 0.524-0.273 1.077-0.511 1.689-0.664l4.093-1.564c-1.816-1.419-3.862-2.558-6.096-3.332-0.418-0.145-0.69-0.494-0.791-0.892zM20.733 24.43c2.436 0.667 4.657-0.48 5.52-2.856l0.067-0.152 0.434-0.834-1.093-0.163c-2.439-0.671-4.658 0.478-5.52 2.856l-0.067 0.151-0.434 0.835zM28.575 30.179c2.46-0.588 3.852-2.663 3.461-5.162l-0.015-0.165-0.023-0.94-1.037 0.385c-2.459 0.588-3.851 2.663-3.461 5.162l0.015 0.165 0.023 0.94zM33.192 34.779l0.082 0.006c2.551 0.167 4.463-1.414 4.825-3.917l0.033-0.162 0.254-0.906-1.021 0.068-0.082-0.005c-0.116-0.008-0.233-0.011-0.348-0.011-2.353 0-4.132 1.541-4.477 3.928l-0.033 0.162-0.254 0.905zM40.591 31.314c-0.277 1.791-1.12 3.27-2.329 4.319 0.705 0.043 1.421 0.162 2.14 0.421l2.512 0.58c-0.17-2.599-0.762-5.103-1.735-7.415zM33.263 41.747l1.074 0.258c2.367 0.888 4.682-0.061 5.753-2.354l0.080-0.143 0.505-0.793-1.076-0.26c-2.369-0.883-4.681 0.062-5.752 2.354l-0.080 0.144zM38.523 49.227l0.669-0.662-0.991-0.49c-2.117-1.387-4.58-0.974-6.131 1.024l-0.109 0.124-0.669 0.662 0.991 0.49c2.116 1.387 4.579 0.974 6.131-1.024zM39.518 45.911l2.307 1.114c0.615-2.272 0.986-4.655 1.097-7.126l-0.575 0.901c-1.157 2.41-3.29 3.837-5.696 4.029 0.974 0.153 1.948 0.494 2.866 1.082z"></path>
</svg>
