<!-- Generated by IcoMoon.io -->
<svg version="1.1" xmlns="http://www.w3.org/2000/svg" width="72" height="72" viewBox="0 0 72 72">
<title>uniF18F</title>
<path d="M72 41.177c0 10.313-12.733 18.242-30.965 19.284-0.559 0.031-1.074 0.057-1.572 0.080l5.47 1.094c0.672 0.135 1.107 0.788 0.973 1.461-0.117 0.59-0.636 0.998-1.215 0.998-0.081 0-0.163-0.009-0.245-0.025l-4.67-0.934 2.315 2.315c0.485 0.485 0.485 1.27 0 1.755-0.242 0.242-0.56 0.364-0.878 0.364s-0.636-0.122-0.878-0.364l-3.095-3.095v3.955c0 0.685-0.556 1.241-1.241 1.241s-1.241-0.556-1.241-1.241v-3.955l-3.096 3.094c-0.242 0.242-0.56 0.364-0.878 0.364s-0.636-0.122-0.878-0.364c-0.485-0.485-0.485-1.27 0-1.755l2.302-2.301-4.695 0.782c-0.069 0.012-0.139 0.017-0.206 0.017-0.596 0-1.121-0.43-1.223-1.037-0.113-0.676 0.345-1.316 1.020-1.429l5.836-0.972c-0.627-0.036-1.279-0.078-2.001-0.134-18.217-1.395-30.94-9.291-30.94-19.198 0-5.756 4.443-11.203 12.19-14.947 15.899-8.51 18.842-22.398 18.869-22.537l0.199-0.998h9.481l0.202 0.997c0.029 0.139 3.025 14.046 18.893 22.55 7.733 3.743 12.167 9.186 12.167 14.936zM35.963 12.94c-0.452 2.319-1.086 5.169-1.987 8.563-0.574 2.158-1.213 4.108-1.901 5.795-0.421 1.032-0.586 1.408-0.876 2.072-0.248 0.566-0.588 1.344-1.267 2.941-1.050 2.467-1.547 5.761-1.439 9.529 0.258 8.996 3.882 15.286 7.291 16.288 0.117 0.001 0.236 0.002 0.353 0.002 3.411-0.994 7.040-7.287 7.298-16.291 0.108-3.768-0.39-7.064-1.439-9.529-0.681-1.604-1.022-2.381-1.27-2.948-0.289-0.66-0.454-1.037-0.874-2.064-0.686-1.682-1.326-3.632-1.9-5.795-0.901-3.394-1.536-6.244-1.987-8.563zM45.915 41.911c-0.171 5.985-1.778 11.301-4.217 14.75 7.198-3.012 13.64-9.226 14.167-16.708 0.251-3.569-0.874-6.579-3.344-8.948-1.644-1.575-2.469-2.344-3.069-2.902-0.706-0.658-1.106-1.030-2.126-2.051-4.463-4.463-7.252-9.591-8.875-13.35 0.441 2.233 1.042 4.931 1.899 8.162 0.549 2.061 1.153 3.91 1.8 5.496 0.408 0.998 0.569 1.365 0.849 2.006 0.25 0.571 0.593 1.356 1.281 2.972 1.204 2.833 1.754 6.389 1.635 10.573zM31.577 20.866c0.816-3.076 1.403-5.678 1.837-7.848-1.641 3.727-4.402 8.697-8.739 13.034-1.020 1.020-1.42 1.393-2.126 2.051-0.6 0.559-1.425 1.327-3.069 2.902-2.469 2.369-3.595 5.379-3.344 8.948 0.524 7.443 6.904 13.63 14.058 16.659-2.419-3.451-4.012-8.747-4.182-14.702-0.122-4.182 0.429-7.739 1.635-10.573 0.685-1.609 1.029-2.393 1.279-2.964 0.283-0.644 0.442-1.010 0.852-2.014 0.648-1.589 1.254-3.438 1.8-5.494zM58.684 28.441c-14.628-7.829-18.94-19.737-19.928-23.265h-0.639c0.474 0.895 0.95 2.135 1.537 3.805 1.195 3.394 4.008 9.898 9.427 15.316 0.991 0.991 1.378 1.352 2.063 1.99 0.606 0.564 1.439 1.338 3.095 2.927 2.985 2.861 4.404 6.636 4.103 10.914-0.523 7.433-6.1 13.72-12.841 17.418 14.16-1.876 24.017-8.417 24.017-16.37 0-4.766-3.931-9.398-10.789-12.712zM2.483 41.177c0 7.534 9.653 13.954 23.576 16.132-6.543-3.727-11.89-9.909-12.401-17.181-0.3-4.278 1.119-8.053 4.104-10.914 1.657-1.588 2.49-2.364 3.095-2.927 0.685-0.639 1.073-0.999 2.063-1.99 5.419-5.42 8.233-11.922 9.427-15.316 0.588-1.668 1.063-2.908 1.538-3.804h-0.639c-0.989 3.528-5.301 15.435-19.93 23.265-6.901 3.336-10.832 7.97-10.832 12.735z"></path>
</svg>
