<!-- Generated by IcoMoon.io -->
<svg version="1.1" xmlns="http://www.w3.org/2000/svg" width="72" height="72" viewBox="0 0 72 72">
<title>uniF1BB</title>
<path d="M68.057 25.081c-0.095 4.626-3.041 8.831-7.502 10.717-0.645 0.274-1.303 0.484-1.967 0.632 0.149 0.144 0.293 0.295 0.429 0.454 2.351 2.738 1.983 6.768 1.965 6.938l-0.129 1.291-1.286-0.175c-0.109-0.019-11.162-1.441-15.926 4.346-2.753 3.345-2.946 8.571-0.574 15.529 0.827 2.424-0.135 4.792-2.509 6.178-0.495 0.289-1.053 0.515-1.638 0.687-0.005 0.002-0.009 0.006-0.014 0.009-0.011 0.004-0.023 0.002-0.034 0.006-0.688 0.195-1.417 0.309-2.156 0.309-1.244 0-2.503-0.311-3.606-1.003l-0.088-0.037c-7.848-3.327-12.947-6.642-17.057-14.36-2.609-0.254-5.086-1.837-6.463-4.186-0.978-1.672-1.282-3.52-0.881-5.201-1.202-1.011-2.234-2.24-3.013-3.597-1.697-2.954-2.121-6.259-1.163-9.063 0.603-1.767 1.727-3.216 3.23-4.193-0.209-0.344-0.4-0.694-0.575-1.047-1.6-3.233-1.937-6.763-0.926-9.689 0.602-1.742 1.631-3.132 3.008-4.078-1.022-2.949-1.021-6.050 0.036-8.462 0.797-1.82 2.115-3.097 3.813-3.695 1.591-0.56 3.352-0.425 5.078 0.369 0.954-2.011 2.58-3.345 4.543-3.664 2.991-0.483 6.218 1.62 8.045 5.237 0.138 0.273 0.259 0.553 0.377 0.837 0.125-0.030 0.248-0.066 0.375-0.093 0.518-3.435 3.49-6.076 7.066-6.076 1.388 0 2.743 0.415 3.907 1.186 1.311-0.919 2.921-1.331 4.552-1.137 2.553 0.303 4.763 2.19 5.497 4.697 0.119 0.408 0.198 0.821 0.235 1.235 4.163 0.55 7.512 3.799 8.159 7.955 4.433 1.894 7.293 6.275 7.193 11.146zM17.855 54.815c2.83 5.559 6.078 8.671 10.672 11.23-0.014-0.017-0.028-0.035-0.041-0.052-0.159-0.198-0.309-0.391-0.464-0.588-0.254-0.32-0.508-0.64-0.751-0.957-0.164-0.213-0.319-0.424-0.478-0.635-0.223-0.298-0.444-0.595-0.658-0.891-0.156-0.215-0.308-0.43-0.458-0.645-0.204-0.29-0.403-0.579-0.597-0.868-0.144-0.215-0.286-0.43-0.425-0.645-0.189-0.291-0.371-0.583-0.55-0.874-0.128-0.208-0.256-0.417-0.38-0.625-0.183-0.306-0.355-0.616-0.527-0.924-0.108-0.194-0.218-0.387-0.32-0.579-0.191-0.36-0.37-0.722-0.547-1.084-0.070-0.143-0.145-0.285-0.213-0.429-0.239-0.507-0.463-1.018-0.672-1.534-0.045-0.111-0.084-0.226-0.128-0.338-0.16-0.408-0.315-0.817-0.456-1.231-0.064-0.188-0.121-0.379-0.181-0.568-0.111-0.344-0.219-0.69-0.318-1.042-0.059-0.214-0.114-0.43-0.169-0.647-0.086-0.335-0.169-0.674-0.244-1.016-0.050-0.229-0.098-0.459-0.143-0.69-0.068-0.343-0.129-0.689-0.185-1.039-0.038-0.234-0.075-0.47-0.108-0.708-0.051-0.364-0.094-0.735-0.133-1.109-0.024-0.233-0.051-0.464-0.071-0.701-0.035-0.414-0.060-0.838-0.081-1.263-0.010-0.206-0.026-0.409-0.034-0.618-0.023-0.639-0.033-1.291-0.026-1.96-2.61-1.291-4.309-3.973-4.309-6.93 0-1.979 0.748-3.854 2.080-5.278-0.593-1.305-0.902-2.723-0.902-4.154 0-4.949 3.54-9.068 8.28-9.921-0.017-0.233-0.027-0.462-0.027-0.69 0-0.353 0.027-0.699 0.069-1.042 0.013-0.103 0.026-0.203 0.041-0.304 0.043-0.278 0.096-0.552 0.165-0.821 0.039-0.158 0.086-0.31 0.134-0.464 0.058-0.185 0.118-0.368 0.188-0.548 0.066-0.173 0.136-0.342 0.213-0.509 0.041-0.088 0.086-0.174 0.13-0.26 0.176-0.354 0.374-0.694 0.595-1.022 0.029-0.041 0.055-0.083 0.084-0.124 0.384-0.549 0.831-1.052 1.333-1.503 0.088-0.079 0.176-0.158 0.268-0.234 0.136-0.114 0.271-0.226 0.415-0.331 0.239-0.178 0.488-0.343 0.744-0.495 0.029-0.016 0.053-0.037 0.081-0.054-0.090-0.218-0.188-0.43-0.293-0.639-1.312-2.597-3.533-4.213-5.408-3.894-1.438 0.233-2.559 1.447-3.077 3.331l-0.46 1.68-1.443-0.973c-1.47-0.988-2.962-1.293-4.21-0.853-1.297 0.456-1.996 1.525-2.353 2.339-0.896 2.041-0.772 4.802 0.328 7.398l0.055 0.119 0.457 1.097-1.071 0.513c-1.273 0.608-2.221 1.724-2.739 3.224-0.783 2.263-0.482 5.165 0.803 7.761 0.315 0.637 0.703 1.266 1.149 1.87l0.954 1.287-1.482 0.612c-1.518 0.628-2.608 1.799-3.151 3.387-0.725 2.124-0.373 4.679 0.964 7.010 0.758 1.32 1.809 2.489 3.038 3.385l0.798 0.582-0.38 0.912c-0.49 1.177-0.334 2.599 0.429 3.902 1.047 1.789 3.069 2.984 5.039 2.984h0.033l0.772-0.005zM54.035 33.929c1.944 0.459 3.759 0.316 5.547-0.438 3.554-1.501 5.899-4.822 5.974-8.462 0.084-4.054-2.433-7.68-6.264-9.023l-0.777-0.273-0.058-0.822c-0.251-3.654-3.315-6.515-6.976-6.515h-1.407l0.129-1.395c0.061-0.517 0.016-1.039-0.135-1.553-0.455-1.559-1.819-2.731-3.39-2.916-1.255-0.149-2.467 0.269-3.35 1.142l-0.841 0.83-0.877-0.792c-0.867-0.782-1.967-1.212-3.098-1.212-2.539 0-4.607 2.046-4.649 4.575l0.002 0.098v1.163l-1.156 0.088c-0.754 0.056-1.465 0.261-2.123 0.558-0.141 0.063-0.276 0.133-0.412 0.205-0.215 0.116-0.423 0.243-0.623 0.383-0.084 0.059-0.17 0.114-0.251 0.176-0.592 0.458-1.106 1.009-1.509 1.64-0.007 0.011-0.013 0.024-0.020 0.035-0.185 0.293-0.34 0.605-0.477 0.927-0.031 0.074-0.060 0.148-0.088 0.223-0.103 0.271-0.184 0.553-0.249 0.839-0.020 0.091-0.046 0.181-0.063 0.275-0.066 0.368-0.109 0.742-0.109 1.126 0 0.483 0.061 0.987 0.184 1.495l0.355 1.478-1.52 0.064c-4.078 0.171-7.272 3.497-7.272 7.575 0 1.325 0.354 2.637 1.023 3.794l0.533 0.919-0.821 0.673c-1.216 0.998-1.914 2.473-1.914 4.045 0 2.209 1.403 4.19 3.491 4.929l0.861 0.303-0.026 0.912c-0.311 11.027 3.608 17.621 11.441 26.636l0.525 0.598c0.006 0.006 0.014 0.013 0.020 0.019 0.12 0.134 0.258 0.243 0.394 0.354 0.11 0.085 0.223 0.169 0.358 0.255l-0.001 0.004c0.666 0.419 1.445 0.615 2.235 0.627-2.301-5.729-3.779-10.886-4.619-15.499-3.461-1.069-4.958-3.837-5.024-3.964-0.323-0.612-0.086-1.368 0.524-1.69 0.608-0.321 1.361-0.089 1.687 0.518 0.046 0.086 0.772 1.363 2.358 2.237-0.435-3.283-0.56-6.282-0.43-8.985-0.010-0.12-0.005-0.238 0.020-0.359 0.218-3.856 0.923-7.123 1.854-9.86-4.214-2.513-4.734-7.191-4.371-9.461 0.109-0.682 0.752-1.153 1.432-1.038 0.682 0.109 1.146 0.748 1.039 1.428-0.031 0.201-0.593 4.352 2.819 6.684 0.17-0.394 0.341-0.787 0.519-1.152 3.29-6.789 7.991-10.168 9.811-11.282-0.004-2.505 1.637-4.682 1.716-4.783 0.419-0.55 1.206-0.653 1.752-0.234 0.549 0.419 0.654 1.203 0.235 1.751-0.279 0.37-0.826 1.292-1.072 2.306 2.881-0.326 5.692 1.3 5.835 1.385 0.597 0.351 0.793 1.117 0.443 1.712-0.233 0.395-0.65 0.616-1.078 0.616-0.216 0-0.434-0.055-0.633-0.173-0.872-0.509-3.527-1.633-5.345-0.763-0.317 0.161-2.445 1.307-4.868 3.835 4.962-0.361 8.413 1.111 8.587 1.187 0.632 0.278 0.921 1.016 0.643 1.648-0.206 0.468-0.666 0.748-1.147 0.748-0.165 0-0.335-0.033-0.499-0.105-0.094-0.039-4.325-1.794-9.934-0.627-1.123 1.58-2.203 3.473-3.1 5.73-0.002 0.165-0.036 0.333-0.109 0.493-0.048 0.106-0.111 0.199-0.181 0.284-0.712 1.949-1.286 4.143-1.631 6.619 2.829-1.774 6.395-1.851 6.599-1.854h0.015c0.683 0 1.24 0.548 1.25 1.233 0.010 0.69-0.542 1.257-1.232 1.268-0.052 0.001-5.2 0.121-6.951 3.107-0.123 3.051 0.089 6.457 0.739 10.247 0.006 0.029 0.009 0.058 0.014 0.088 0.823 4.75 2.35 10.105 4.797 16.124 0.056-0.030 0.119-0.051 0.174-0.084 0.778-0.454 1.995-1.473 1.403-3.211-2.672-7.84-2.33-13.873 1.017-17.932 4.579-5.554 13.327-5.587 16.768-5.363-0.081-1.089-0.382-2.672-1.373-3.819-0.817-0.944-1.962-1.443-3.502-1.522l-1.248-0.066 0.133-2.761 1.211-0.28z"></path>
</svg>
