<!-- Generated by IcoMoon.io -->
<svg version="1.1" xmlns="http://www.w3.org/2000/svg" width="72" height="72" viewBox="0 0 72 72">
<title>uniF194</title>
<path d="M71.877 55.201c0.281 0.776 0.073 1.616-0.528 2.169l-5.598 6.132c-0.363 0.301-0.82 0.466-1.289 0.466h-2.331v3.47h-53.046v-3.47h-2.467c-0.535 0-1.041-0.208-1.424-0.588l-0.115-0.13-4.558-6.010c-0.522-0.579-0.666-1.401-0.366-2.127 0.315-0.756 1.046-1.245 1.865-1.245h5.032c-0.269-0.563-0.433-1.185-0.433-1.85 0-1.209 0.502-2.299 1.305-3.084-0.803-0.785-1.305-1.875-1.305-3.084s0.502-2.299 1.305-3.084c-0.803-0.785-1.305-1.875-1.305-3.084s0.502-2.3 1.305-3.084c-0.803-0.785-1.305-1.875-1.305-3.084s0.502-2.299 1.305-3.084c-0.803-0.785-1.305-1.875-1.305-3.084 0-1.172 0.473-2.234 1.234-3.012v-6.24h22.934c-0.548-2.217 0.060-5.816 1.882-7.637 2.071-2.071 4.73-2.23 6.998-0.527 0.137-0.349 0.213-0.724 0.213-1.11 0-0.812-0.317-1.575-0.893-2.151-0.482-0.481-0.482-1.262 0-1.744s1.262-0.482 1.744 0c1.042 1.041 1.616 2.425 1.616 3.896 0 0.208-0.038 0.409-0.061 0.614 1.659-0.237 3.404 0.263 4.678 1.537 0.482 0.482 0.482 1.262 0 1.744-0.241 0.241-0.556 0.361-0.872 0.361s-0.632-0.121-0.872-0.361c-0.966-0.966-2.423-1.13-3.573-0.522 1.083 1.965 0.844 4.117-0.727 5.902h23.677v6.24c0.761 0.78 1.234 1.841 1.234 3.012 0 1.209-0.502 2.3-1.305 3.084 0.803 0.785 1.305 1.875 1.305 3.084s-0.502 2.299-1.305 3.084c0.803 0.785 1.305 1.875 1.305 3.084s-0.502 2.299-1.305 3.084c0.803 0.785 1.305 1.875 1.305 3.084s-0.502 2.299-1.305 3.084c0.803 0.785 1.305 1.875 1.305 3.084 0 0.665-0.163 1.288-0.433 1.85h4.581c0.86 0 1.605 0.523 1.897 1.331zM34.413 12.2c-1.448 1.448-1.599 4.994-1.126 5.655 0.576 0.479 4.117 0.324 5.61-1.171 1.485-1.485 1.040-2.867 0.232-3.875-0.046-0.035-0.099-0.052-0.141-0.094-0.077-0.076-0.12-0.169-0.171-0.258-0.028-0.031-0.054-0.064-0.084-0.094-0.6-0.601-1.39-1.144-2.29-1.144-0.634 0-1.321 0.27-2.031 0.979zM63.365 45.851c0-1.021-0.83-1.85-1.85-1.85h-31.898c0.036 0.032 0.062 0.073 0.096 0.105 0.143 0.133 0.27 0.28 0.396 0.429 0.088 0.104 0.178 0.201 0.257 0.311 0.118 0.165 0.215 0.344 0.312 0.523 0.062 0.113 0.131 0.221 0.184 0.339 0.091 0.205 0.154 0.422 0.217 0.64 0.031 0.109 0.075 0.208 0.099 0.32 0.072 0.333 0.114 0.678 0.114 1.034h30.224c1.020 0 1.85-0.83 1.85-1.85zM27.040 50.059c0.038-0.010 0.077-0.022 0.116-0.036 0.688-0.242 1.258-0.782 1.514-1.503l0.001-0.004c0.049-0.143 0.086-0.279 0.112-0.411 0.022-0.133 0.041-0.266 0.041-0.406 0-1.361-1.107-2.467-2.467-2.467s-2.467 1.106-2.467 2.467c0 0.139 0.019 0.273 0.041 0.406 0.025 0.132 0.062 0.269 0.112 0.411l0.001 0.004c0.255 0.72 0.824 1.261 1.514 1.503 0.037 0.014 0.075 0.025 0.114 0.036 0.219 0.065 0.448 0.108 0.685 0.108s0.465-0.043 0.685-0.108zM63.365 33.515c0-1.021-0.83-1.85-1.85-1.854h-23.503c-0.009 0.015-0.020 0.028-0.028 0.043-0.093 0.155-0.192 0.305-0.301 0.449-0.047 0.063-0.099 0.12-0.148 0.18-0.18 0.216-0.375 0.415-0.588 0.597-0.087 0.075-0.175 0.152-0.268 0.221-0.113 0.085-0.23 0.163-0.35 0.237-0.141 0.087-0.286 0.164-0.435 0.237-0.117 0.057-0.232 0.114-0.354 0.16-0.215 0.085-0.435 0.152-0.661 0.206-0.084 0.020-0.168 0.037-0.254 0.052-0.283 0.052-0.57 0.087-0.865 0.087-0.898 0-1.741-0.24-2.467-0.662v1.897h30.224c1.020 0 1.85-0.83 1.85-1.85zM38.692 29.197h22.822c1.020 0 1.85-0.83 1.85-1.85s-0.83-1.85-1.85-1.85h-22.822v3.701zM10.319 20.562v2.467h6.168v2.467c0 1.361 1.106 2.467 2.467 2.467s2.467-1.107 2.467-2.467h2.467v9.869c0 0.139 0.019 0.273 0.041 0.405 0.026 0.131 0.063 0.266 0.113 0.407l0.002 0.006c0.258 0.723 0.829 1.266 1.52 1.507 0.033 0.012 0.068 0.022 0.102 0.032 0.221 0.067 0.45 0.11 0.688 0.11s0.468-0.043 0.688-0.11c0.035-0.010 0.069-0.021 0.102-0.032 0.69-0.242 1.261-0.785 1.52-1.507l0.002-0.006c0.051-0.141 0.088-0.276 0.113-0.407 0.022-0.133 0.041-0.267 0.041-0.405v-6.168h2.467c0 0.238 0.046 0.464 0.108 0.682l0.048 0.136c0.258 0.723 0.829 1.266 1.52 1.507 0.033 0.012 0.068 0.022 0.102 0.032 0.221 0.067 0.45 0.11 0.688 0.11s0.467-0.043 0.688-0.11c0.035-0.010 0.069-0.021 0.102-0.032 0.69-0.242 1.261-0.785 1.52-1.507l0.002-0.006c0.051-0.141 0.088-0.276 0.114-0.407 0.022-0.133 0.041-0.266 0.041-0.405v-6.168h25.906v-2.467h-51.812zM9.086 27.347c0 1.020 0.829 1.85 1.85 1.85h4.758c-0.036-0.032-0.062-0.073-0.096-0.105-0.143-0.133-0.27-0.28-0.396-0.429-0.087-0.104-0.178-0.201-0.256-0.311-0.118-0.165-0.215-0.344-0.312-0.523-0.062-0.114-0.131-0.221-0.184-0.339-0.091-0.205-0.154-0.422-0.217-0.64-0.031-0.108-0.075-0.208-0.099-0.319-0.072-0.333-0.113-0.679-0.113-1.034h-3.084c-1.020 0-1.85 0.83-1.85 1.85zM9.086 33.515c0 1.020 0.829 1.85 1.85 1.85h10.486v-3.701h-10.486c-1.020 0-1.85 0.83-1.85 1.85zM9.086 39.683c0 1.020 0.829 1.85 1.85 1.85h50.578c1.020 0 1.85-0.83 1.85-1.85s-0.83-1.85-1.85-1.85h-30.905c-0.009 0.015-0.020 0.028-0.028 0.043-0.093 0.155-0.193 0.305-0.301 0.449-0.047 0.063-0.099 0.12-0.148 0.18-0.18 0.216-0.375 0.414-0.588 0.597-0.088 0.075-0.175 0.152-0.268 0.221-0.114 0.085-0.23 0.163-0.35 0.237-0.141 0.088-0.286 0.164-0.435 0.237-0.117 0.057-0.232 0.113-0.354 0.16-0.215 0.085-0.435 0.152-0.661 0.206-0.084 0.020-0.168 0.037-0.254 0.052-0.283 0.052-0.571 0.088-0.865 0.088s-0.581-0.036-0.865-0.088c-0.086-0.015-0.17-0.032-0.254-0.052-0.226-0.054-0.447-0.121-0.661-0.206-0.122-0.048-0.237-0.104-0.354-0.16-0.149-0.073-0.295-0.149-0.435-0.237-0.121-0.075-0.237-0.153-0.35-0.237-0.092-0.069-0.18-0.146-0.268-0.221-0.213-0.183-0.408-0.381-0.588-0.597-0.049-0.060-0.101-0.117-0.148-0.18-0.108-0.144-0.208-0.294-0.301-0.449-0.009-0.015-0.020-0.028-0.028-0.043h-11.167c-1.020 0-1.85 0.83-1.85 1.85zM9.086 45.851c0 1.020 0.829 1.85 1.85 1.85h10.486c0-0.355 0.042-0.699 0.114-1.034 0.023-0.111 0.068-0.212 0.099-0.32 0.063-0.218 0.126-0.435 0.217-0.64 0.053-0.12 0.122-0.226 0.184-0.339 0.098-0.18 0.194-0.358 0.312-0.523 0.079-0.11 0.169-0.207 0.257-0.311 0.126-0.149 0.253-0.296 0.396-0.429 0.034-0.032 0.060-0.073 0.096-0.105h-12.16c-1.020 0-1.85 0.83-1.85 1.85zM9.086 52.019c0 1.020 0.829 1.85 1.85 1.85h50.578c1.020 0 1.85-0.83 1.85-1.85s-0.83-1.85-1.85-1.85h-30.901c-0.015 0.026-0.033 0.048-0.048 0.073-0.081 0.137-0.168 0.267-0.263 0.394-0.075 0.101-0.158 0.196-0.24 0.291-0.138 0.159-0.284 0.307-0.44 0.448-0.119 0.106-0.238 0.208-0.366 0.302-0.1 0.073-0.201 0.141-0.306 0.206-0.163 0.101-0.333 0.192-0.507 0.275-0.089 0.042-0.176 0.085-0.269 0.122-0.227 0.091-0.463 0.162-0.703 0.218-0.081 0.020-0.163 0.036-0.246 0.051-0.284 0.052-0.574 0.088-0.868 0.088s-0.584-0.036-0.868-0.088c-0.084-0.015-0.164-0.032-0.246-0.051-0.24-0.057-0.476-0.127-0.703-0.218-0.093-0.037-0.179-0.080-0.269-0.122-0.174-0.083-0.344-0.173-0.507-0.275-0.105-0.066-0.206-0.133-0.306-0.206-0.127-0.094-0.248-0.196-0.366-0.302-0.158-0.141-0.302-0.289-0.44-0.448-0.083-0.095-0.165-0.189-0.24-0.291-0.094-0.127-0.18-0.258-0.263-0.394-0.015-0.026-0.033-0.047-0.048-0.073h-11.163c-1.020 0-1.85 0.83-1.85 1.85zM59.664 64.972v-1.003h-48.111v1.003h48.111zM64.252 61.501l4.701-5.165h-66.021l3.917 5.165h57.403z"></path>
</svg>
