<!-- Generated by IcoMoon.io -->
<svg version="1.1" xmlns="http://www.w3.org/2000/svg" width="72" height="72" viewBox="0 0 72 72">
<title>uniF123</title>
<path d="M43.672 1.184c1.576 1.261 2.31 3.424 2.31 6.805 0 1.533-0.155 3.012-0.448 4.428 0.296 1.043 0.448 2.267 0.448 3.749 0 1.531-0.155 3.010-0.448 4.427 0.296 1.043 0.448 2.267 0.448 3.75 0 1.531-0.155 3.010-0.448 4.426 0.296 1.043 0.448 2.267 0.448 3.749 0 1.398-0.141 2.746-0.386 4.048 0.255 0.999 0.386 2.155 0.386 3.541 0 1.531-0.155 3.010-0.448 4.426 0.296 1.043 0.448 2.267 0.448 3.75 0 12.144-9.577 20.956-22.773 20.956s-22.773-8.814-22.773-20.956c0-1.483 0.154-2.707 0.448-3.75-0.293-1.415-0.448-2.894-0.448-4.426 0-1.386 0.131-2.543 0.386-3.541-0.245-1.301-0.386-2.65-0.386-4.048 0-1.482 0.154-2.706 0.448-3.749-0.293-1.415-0.448-2.893-0.448-4.426 0-1.483 0.154-2.707 0.448-3.75-0.293-1.415-0.448-2.894-0.448-4.427 0-1.482 0.154-2.706 0.448-3.749-0.293-1.416-0.448-2.895-0.448-4.428 0-3.38 0.733-5.544 2.308-6.805 2.404-1.927 5.912-1.143 10.354-0.152 3.039 0.679 6.482 1.447 10.108 1.447s7.069-0.769 10.108-1.447c4.442-0.991 7.949-1.776 10.356 0.152zM25.030 58.15c5.325-0.39 9.962-2.486 13.207-5.783 0.013-0.013 0.026-0.026 0.038-0.038 0.295-0.3 0.571-0.618 0.841-0.938 0.085-0.1 0.172-0.198 0.255-0.3 0.198-0.245 0.382-0.501 0.565-0.757 0.137-0.192 0.276-0.383 0.406-0.581 0.122-0.186 0.235-0.38 0.35-0.572 0.165-0.278 0.329-0.555 0.478-0.843 0.074-0.14 0.139-0.283 0.209-0.426 0.165-0.342 0.324-0.686 0.468-1.040 0.047-0.12 0.091-0.242 0.137-0.363 0.141-0.371 0.272-0.749 0.387-1.133 0.043-0.142 0.081-0.287 0.119-0.433 0.117-0.428 0.228-0.86 0.313-1.302-0.036 0.055-0.076 0.107-0.111 0.161-2.181 3.333-5.35 5.961-9.234 7.63-0.009 0.004-0.017 0.007-0.026 0.011-0.798 0.342-1.623 0.645-2.478 0.902-0.088 0.027-0.174 0.058-0.262 0.084-0.357 0.102-0.72 0.196-1.086 0.285-0.326 0.080-0.656 0.151-0.989 0.218-0.31 0.061-0.619 0.127-0.935 0.178-0.572 0.095-1.157 0.166-1.746 0.225-0.202 0.020-0.406 0.036-0.611 0.051-0.696 0.051-1.399 0.088-2.115 0.088s-1.419-0.036-2.115-0.088c-0.205-0.016-0.408-0.031-0.611-0.051-0.589-0.058-1.173-0.13-1.746-0.225-0.318-0.051-0.625-0.115-0.935-0.178-0.333-0.068-0.663-0.138-0.989-0.218-0.367-0.088-0.729-0.181-1.086-0.285-0.088-0.027-0.175-0.057-0.263-0.084-0.854-0.258-1.679-0.559-2.476-0.901-0.010-0.004-0.019-0.007-0.027-0.011-3.884-1.671-7.054-4.298-9.234-7.63-0.036-0.055-0.076-0.107-0.111-0.161 0.085 0.443 0.196 0.874 0.313 1.302 0.040 0.145 0.077 0.29 0.12 0.433 0.115 0.384 0.246 0.763 0.387 1.134 0.046 0.119 0.088 0.24 0.137 0.359 0.142 0.354 0.302 0.7 0.468 1.042 0.068 0.142 0.135 0.286 0.208 0.426 0.149 0.288 0.313 0.565 0.478 0.843 0.115 0.192 0.228 0.386 0.35 0.572 0.13 0.198 0.269 0.388 0.406 0.581 0.184 0.256 0.367 0.513 0.565 0.757 0.083 0.102 0.169 0.201 0.255 0.302 0.27 0.32 0.545 0.636 0.84 0.937 0.013 0.014 0.027 0.027 0.041 0.041 3.245 3.295 7.881 5.39 13.205 5.78 0.598 0.043 1.204 0.067 1.82 0.067s1.223-0.024 1.82-0.067zM16.919 28.208c-5.848-1.386-10.555-4.701-13.416-9.29-0.009-0.013-0.017-0.024-0.024-0.036 0.080 0.548 0.185 1.085 0.312 1.611 0.023 0.097 0.054 0.189 0.078 0.286 0.115 0.445 0.24 0.887 0.388 1.316 0.026 0.077 0.058 0.151 0.085 0.226 0.155 0.428 0.322 0.85 0.508 1.26 0.053 0.117 0.114 0.231 0.169 0.346 0.168 0.349 0.343 0.693 0.534 1.028 0.105 0.185 0.219 0.363 0.332 0.542 0.152 0.245 0.307 0.488 0.471 0.726 0.175 0.251 0.359 0.494 0.548 0.734 0.114 0.147 0.229 0.295 0.347 0.437 0.253 0.303 0.518 0.598 0.793 0.884 0.063 0.066 0.125 0.131 0.189 0.196 0.335 0.336 0.68 0.662 1.042 0.972 0.009 0.009 0.017 0.016 0.027 0.024 2.364 2.018 5.313 3.479 8.638 4.229 0.026 0.006 0.053 0.010 0.078 0.016 0.521 0.117 1.050 0.215 1.59 0.296 0.174 0.026 0.353 0.040 0.529 0.061 0.404 0.051 0.808 0.104 1.223 0.134 0.606 0.044 1.223 0.070 1.849 0.070s1.241-0.026 1.849-0.070c0.413-0.030 0.817-0.083 1.223-0.134 0.175-0.021 0.356-0.036 0.529-0.061 0.538-0.081 1.069-0.181 1.59-0.296 0.026-0.006 0.053-0.010 0.078-0.016 3.325-0.75 6.274-2.21 8.638-4.229 0.009-0.009 0.018-0.016 0.027-0.024 0.363-0.31 0.709-0.636 1.042-0.972 0.064-0.064 0.127-0.131 0.189-0.196 0.275-0.286 0.539-0.581 0.793-0.884 0.12-0.144 0.233-0.29 0.347-0.437 0.189-0.24 0.373-0.484 0.548-0.734 0.165-0.238 0.32-0.481 0.473-0.727 0.111-0.179 0.225-0.357 0.33-0.541 0.189-0.336 0.366-0.679 0.534-1.028 0.055-0.117 0.117-0.229 0.169-0.346 0.186-0.411 0.354-0.831 0.508-1.26 0.027-0.077 0.058-0.149 0.085-0.226 0.148-0.43 0.273-0.871 0.389-1.316 0.024-0.097 0.055-0.189 0.078-0.286 0.127-0.526 0.232-1.063 0.312-1.611-0.009 0.013-0.017 0.024-0.024 0.036-2.864 4.589-7.57 7.904-13.419 9.29-0.186 0.045-0.379 0.084-0.568 0.125-0.5 0.107-1.002 0.204-1.517 0.282-0.474 0.074-0.952 0.137-1.436 0.185-0.223 0.023-0.448 0.041-0.675 0.058-0.689 0.053-1.386 0.088-2.094 0.088s-1.403-0.037-2.094-0.088c-0.226-0.017-0.451-0.037-0.675-0.058-0.484-0.048-0.962-0.111-1.436-0.185-0.515-0.078-1.018-0.175-1.517-0.282-0.189-0.041-0.38-0.080-0.568-0.125zM42.942 27.058c-0.003 0.004-0.006 0.009-0.013 0.011-2.862 4.601-7.576 7.926-13.436 9.314-0.185 0.046-0.374 0.083-0.562 0.124-0.5 0.107-1.005 0.205-1.52 0.283-0.474 0.074-0.952 0.137-1.436 0.185-0.224 0.023-0.448 0.041-0.675 0.058-0.689 0.053-1.386 0.088-2.094 0.088s-1.403-0.037-2.094-0.088c-0.226-0.017-0.451-0.037-0.675-0.058-0.484-0.048-0.962-0.111-1.436-0.185-0.515-0.078-1.019-0.176-1.52-0.283-0.188-0.041-0.377-0.080-0.562-0.124-5.86-1.388-10.574-4.711-13.436-9.314-0.003-0.004-0.006-0.007-0.009-0.011 0.080 0.549 0.186 1.087 0.313 1.615 0.021 0.088 0.050 0.174 0.073 0.262 0.117 0.455 0.245 0.905 0.396 1.342 0.023 0.067 0.051 0.132 0.075 0.199 0.158 0.437 0.329 0.867 0.52 1.287 0.048 0.107 0.104 0.211 0.155 0.316 0.172 0.36 0.354 0.715 0.551 1.059 0.098 0.172 0.205 0.34 0.31 0.508 0.159 0.259 0.323 0.514 0.495 0.763 0.166 0.239 0.343 0.471 0.522 0.7 0.122 0.159 0.246 0.317 0.374 0.473 0.246 0.292 0.501 0.576 0.764 0.853 0.072 0.077 0.145 0.152 0.219 0.228 0.323 0.326 0.659 0.642 1.010 0.944 0.020 0.017 0.041 0.036 0.061 0.053 2.361 2.011 5.303 3.467 8.619 4.216 0.033 0.007 0.066 0.013 0.098 0.020 0.515 0.114 1.039 0.212 1.571 0.292 0.181 0.026 0.367 0.040 0.549 0.063 0.398 0.051 0.798 0.102 1.206 0.132 0.606 0.044 1.223 0.070 1.849 0.070s1.241-0.026 1.849-0.070c0.407-0.030 0.806-0.083 1.206-0.132 0.182-0.021 0.369-0.036 0.549-0.063 0.532-0.080 1.056-0.178 1.571-0.292 0.033-0.007 0.065-0.013 0.098-0.020 3.318-0.75 6.26-2.205 8.619-4.216 0.020-0.017 0.041-0.036 0.061-0.053 0.35-0.302 0.686-0.618 1.011-0.944 0.074-0.075 0.147-0.152 0.219-0.228 0.266-0.276 0.521-0.561 0.766-0.853 0.128-0.155 0.252-0.313 0.374-0.473 0.179-0.229 0.356-0.461 0.522-0.7 0.174-0.249 0.336-0.505 0.495-0.763 0.104-0.168 0.211-0.336 0.31-0.508 0.196-0.346 0.379-0.699 0.551-1.059 0.051-0.105 0.107-0.209 0.155-0.316 0.191-0.418 0.363-0.85 0.52-1.287 0.024-0.067 0.053-0.132 0.075-0.199 0.151-0.438 0.279-0.888 0.396-1.342 0.023-0.088 0.051-0.172 0.073-0.262 0.127-0.528 0.233-1.066 0.313-1.615zM42.942 35.235c-0.004 0.007-0.009 0.013-0.010 0.019-2.862 4.599-7.575 7.919-13.432 9.307-0.186 0.044-0.377 0.083-0.565 0.124-0.5 0.107-1.005 0.205-1.52 0.283-0.473 0.074-0.949 0.137-1.433 0.185-0.226 0.023-0.451 0.041-0.679 0.058-0.689 0.053-1.385 0.088-2.092 0.088s-1.403-0.037-2.092-0.088c-0.228-0.017-0.454-0.037-0.679-0.058-0.484-0.050-0.961-0.111-1.433-0.185-0.515-0.078-1.019-0.176-1.52-0.283-0.189-0.041-0.379-0.080-0.565-0.124-5.857-1.388-10.569-4.708-13.432-9.307-0.004-0.007-0.009-0.013-0.013-0.019 0.071 0.491 0.171 0.971 0.28 1.445 0.043 0.189 0.094 0.374 0.142 0.561 0.098 0.366 0.201 0.729 0.32 1.083 0.047 0.142 0.1 0.282 0.151 0.421 0.138 0.376 0.285 0.746 0.447 1.107 0.058 0.13 0.12 0.258 0.181 0.386 0.166 0.35 0.346 0.693 0.535 1.029 0.081 0.142 0.164 0.285 0.249 0.424 0.182 0.3 0.374 0.595 0.574 0.882 0.118 0.168 0.238 0.336 0.361 0.5 0.181 0.239 0.367 0.474 0.559 0.703 0.166 0.198 0.336 0.394 0.511 0.585 0.162 0.176 0.33 0.349 0.5 0.52 0.223 0.225 0.451 0.447 0.687 0.659 0.134 0.121 0.273 0.238 0.411 0.354 0.286 0.242 0.576 0.478 0.878 0.703 0.101 0.075 0.206 0.148 0.31 0.222 0.346 0.246 0.699 0.485 1.065 0.71 0.071 0.044 0.144 0.085 0.216 0.128 0.4 0.238 0.808 0.467 1.231 0.679 0.050 0.026 0.102 0.050 0.154 0.074 0.444 0.218 0.897 0.423 1.362 0.611 0.045 0.019 0.094 0.034 0.139 0.053 0.47 0.185 0.949 0.357 1.44 0.511 0.064 0.020 0.132 0.036 0.196 0.055 0.475 0.144 0.958 0.278 1.45 0.39 0.117 0.027 0.24 0.046 0.359 0.071 0.448 0.095 0.898 0.185 1.358 0.255 0.232 0.036 0.473 0.054 0.709 0.083 0.359 0.043 0.716 0.093 1.082 0.12 0.615 0.046 1.238 0.071 1.873 0.071s1.258-0.026 1.873-0.071c0.366-0.027 0.723-0.077 1.082-0.12 0.236-0.028 0.477-0.048 0.709-0.083 0.461-0.070 0.911-0.159 1.358-0.255 0.118-0.026 0.24-0.044 0.359-0.071 0.492-0.114 0.975-0.246 1.45-0.39 0.066-0.020 0.132-0.036 0.197-0.055 0.491-0.152 0.969-0.326 1.44-0.511 0.046-0.019 0.094-0.034 0.139-0.053 0.465-0.188 0.918-0.393 1.362-0.611 0.051-0.026 0.102-0.048 0.154-0.074 0.421-0.211 0.831-0.44 1.231-0.679 0.071-0.044 0.145-0.084 0.216-0.128 0.366-0.225 0.719-0.464 1.065-0.71 0.104-0.074 0.209-0.147 0.31-0.222 0.303-0.225 0.592-0.463 0.878-0.703 0.138-0.117 0.278-0.233 0.411-0.354 0.236-0.213 0.464-0.434 0.687-0.659 0.169-0.171 0.337-0.342 0.5-0.52 0.175-0.191 0.344-0.387 0.511-0.585 0.192-0.231 0.38-0.464 0.559-0.703 0.124-0.164 0.243-0.33 0.361-0.5 0.201-0.288 0.391-0.582 0.574-0.882 0.084-0.141 0.168-0.282 0.249-0.424 0.189-0.336 0.367-0.679 0.535-1.029 0.061-0.128 0.122-0.256 0.181-0.386 0.162-0.361 0.309-0.732 0.447-1.107 0.051-0.141 0.104-0.279 0.151-0.421 0.119-0.354 0.223-0.717 0.32-1.083 0.048-0.186 0.1-0.371 0.142-0.561 0.11-0.474 0.209-0.954 0.28-1.445zM4.526 3.405c-0.825 0.66-1.243 2.203-1.243 4.584 0 3.238 0.801 6.198 2.245 8.75 0.078 0.137 0.165 0.268 0.243 0.404 0.194 0.322 0.397 0.639 0.612 0.947 0.151 0.215 0.31 0.425 0.473 0.633 0.154 0.201 0.313 0.399 0.477 0.592 0.223 0.263 0.451 0.521 0.69 0.77 0.103 0.107 0.209 0.211 0.315 0.316 0.305 0.302 0.615 0.599 0.942 0.88 0.006 0.004 0.011 0.009 0.016 0.013 1.933 1.65 4.26 2.922 6.86 3.743 0.091 0.030 0.182 0.060 0.275 0.087 0.421 0.127 0.85 0.239 1.284 0.342 0.197 0.046 0.393 0.087 0.592 0.128 0.369 0.077 0.739 0.148 1.116 0.208 0.32 0.048 0.645 0.085 0.971 0.122 0.287 0.034 0.572 0.073 0.864 0.095 0.64 0.050 1.288 0.081 1.95 0.081s1.309-0.031 1.95-0.081c0.292-0.024 0.576-0.063 0.864-0.095 0.326-0.036 0.652-0.072 0.971-0.122 0.377-0.060 0.747-0.131 1.116-0.208 0.199-0.040 0.396-0.083 0.592-0.128 0.434-0.104 0.864-0.215 1.284-0.342 0.092-0.028 0.184-0.058 0.275-0.087 2.602-0.821 4.927-2.092 6.86-3.743 0.006-0.004 0.011-0.009 0.016-0.013 0.327-0.28 0.638-0.578 0.942-0.88 0.105-0.105 0.212-0.208 0.315-0.316 0.239-0.249 0.467-0.508 0.69-0.77 0.164-0.195 0.322-0.391 0.477-0.592 0.161-0.208 0.32-0.419 0.473-0.633 0.215-0.307 0.417-0.625 0.612-0.947 0.083-0.135 0.169-0.268 0.248-0.404 1.443-2.55 2.246-5.512 2.246-8.75 0-2.381-0.418-3.924-1.243-4.584-1.339-1.076-4.405-0.39-7.956 0.404-3.181 0.71-6.788 1.514-10.727 1.514s-7.546-0.804-10.727-1.514c-2.242-0.5-4.288-0.956-5.831-0.956-0.902 0-1.631 0.157-2.125 0.552zM42.942 51.002c-0.009 0.011-0.017 0.023-0.026 0.036-2.862 4.587-7.568 7.902-13.414 9.288-0.191 0.045-0.386 0.085-0.579 0.127-0.495 0.105-0.994 0.204-1.504 0.28-0.475 0.074-0.957 0.137-1.442 0.185-0.223 0.021-0.447 0.040-0.673 0.057-0.69 0.053-1.386 0.088-2.095 0.088s-1.405-0.037-2.095-0.088c-0.225-0.016-0.45-0.036-0.673-0.057-0.487-0.048-0.967-0.111-1.442-0.185-0.51-0.078-1.009-0.175-1.504-0.28-0.194-0.041-0.388-0.081-0.579-0.127-5.846-1.386-10.552-4.7-13.415-9.288-0.009-0.013-0.017-0.024-0.024-0.036 1.317 9.065 9.212 15.391 19.734 15.391s18.416-6.327 19.733-15.391zM15.382 17.085c-2.747 0-4.982-2.234-4.982-4.982s2.235-4.981 4.982-4.981c2.747 0 4.982 2.235 4.982 4.981s-2.235 4.982-4.982 4.982zM15.382 9.969c-1.179 0-2.135 0.958-2.135 2.135s0.958 2.135 2.135 2.135 2.135-0.958 2.135-2.135-0.958-2.135-2.135-2.135zM27.479 17.797c0-1.423 0.712-2.135 2.135-2.135s2.135 0.712 2.135 2.135c0 1.423-0.712 2.135-2.135 2.135s-2.135-0.712-2.135-2.135zM31.749 9.969c0-0.949 0.474-1.423 1.423-1.423s1.423 0.474 1.423 1.423-0.474 1.423-1.423 1.423-1.423-0.474-1.423-1.423zM20.363 21.355c0-0.949 0.474-1.423 1.423-1.423s1.423 0.474 1.423 1.423-0.474 1.423-1.423 1.423-1.423-0.474-1.423-1.423zM6.13 7.122c0-0.949 0.474-1.423 1.423-1.423s1.423 0.474 1.423 1.423-0.474 1.423-1.423 1.423-1.423-0.474-1.423-1.423zM59.055 58.22c0.871 0.581 1.247 1.678 0.912 2.67l-0.763 2.291c-0.251 0.754-0.861 1.321-1.633 1.517-0.189 0.048-0.384 0.074-0.575 0.074-0.581 0-1.144-0.218-1.581-0.625-3.15-2.94-3.405-3.451-3.543-3.725-0.457-0.912-0.155-1.993 1.003-3.615 0.737-1.029 2.135-1.282 3.184-0.585zM56.764 61.506l0.38-1.14-2.232-1.489c-0.141 0.218-0.231 0.384-0.29 0.505 0.305 0.332 0.964 1.008 2.142 2.124zM70.017 65.059c0.569 0.528 2.294 2.128 1.177 3.564-0.194 0.255-0.492 0.645-4.304 2.958-0.456 0.276-0.975 0.418-1.497 0.418-0.263 0-0.525-0.036-0.781-0.108-0.767-0.216-1.415-0.747-1.779-1.458l-0.33-0.645c-0.361-0.706-0.416-1.54-0.148-2.287 0.269-0.747 0.84-1.356 1.568-1.672l2.995-1.296c1.048-0.454 2.263-0.246 3.1 0.527zM65.369 69.136c1.494-0.888 2.385-1.452 2.912-1.799-0.058-0.058-0.124-0.121-0.197-0.188l-0.034-0.003-2.995 1.297zM66.519 54.091v0.003h-2.43c-1.010 0-1.934-0.554-2.411-1.445s-0.426-1.968 0.135-2.81l1.204-1.808c0.382-0.569 0.954-0.974 1.614-1.137l2.431-0.608c1.052-0.265 2.121 0.098 2.798 0.941s0.797 1.968 0.313 2.936l-1.207 2.414c-0.467 0.934-1.405 1.513-2.448 1.513zM65.32 49.654l-1.028 1.59h2.158l1.069-2.139z"></path>
</svg>
