<!-- Generated by IcoMoon.io -->
<svg version="1.1" xmlns="http://www.w3.org/2000/svg" width="72" height="72" viewBox="0 0 72 72">
<title>uniF1D4</title>
<path d="M69.649 18.905c0.403 0.401 0.47 0.996 0.229 1.479-0.004 0.037 0.009 0.075 0.003 0.112-0.065 0.35-0.272 0.66-0.573 0.852l-0.769 0.492-49.781 49.781c-0.252 0.252-0.582 0.378-0.913 0.378s-0.661-0.126-0.913-0.378c-0.711-0.711-1.381-1.452-2.027-2.209l-0.43 0.43c-0.252 0.252-0.582 0.378-0.913 0.378s-0.661-0.126-0.913-0.378c-0.505-0.505-0.505-1.32 0-1.825l0.63-0.63c-0.28-0.379-0.549-0.767-0.815-1.155-0.598 0.547-1.386 0.891-2.259 0.891-1.623 0-2.943-1.319-2.943-2.943 0-0.714 0.578-1.291 1.291-1.291s1.291 0.577 1.291 1.291c0 0.199 0.163 0.361 0.361 0.361 0.4 0 0.72-0.308 0.759-0.7-0.227-0.394-0.453-0.789-0.665-1.19-0.185-0.102-0.386-0.175-0.611-0.175-0.712 0-1.291-0.577-1.291-1.291 0-0.484 0.278-0.889 0.671-1.11-0.529-1.221-0.997-2.469-1.39-3.743l-2.746 0.915c-0.135 0.045-0.274 0.067-0.408 0.067-0.541 0-1.044-0.342-1.225-0.883-0.226-0.678 0.139-1.408 0.816-1.633l2.889-0.963c-0.563-2.402-0.888-4.874-0.966-7.39-0.19-0.356-0.231-0.785-0.036-1.173 0.006-0.012 0.002-0.021 0.008-0.032 0-0.063 0.005-0.126 0.005-0.19-0.079-0.136-0.13-0.28-0.157-0.439-0.034-0.030-0.055-0.063-0.103-0.086-0.503-0.254-1.115-0.045-1.366 0.457-0.394 0.786-0.074 1.747 0.714 2.14 0.636 0.319 0.896 1.096 0.576 1.732-0.226 0.453-0.682 0.714-1.155 0.714-0.194 0-0.391-0.044-0.576-0.136-2.059-1.031-2.898-3.545-1.868-5.605 0.736-1.474 2.353-2.209 3.9-1.91 0.043-0.584 0.089-1.162 0.139-1.727l-2.171-1.086c-0.638-0.319-0.896-1.095-0.577-1.732s1.093-0.895 1.732-0.577l1.299 0.649c0.327-2.691 0.773-5.159 1.336-7.455-1.852-0.564-3.213-2.268-3.213-4.302 0-2.491 2.027-4.518 4.518-4.518 0.616 0 1.202 0.126 1.736 0.35 0.514-1.021 1.079-1.994 1.683-2.931h-2.774c-0.712 0-1.291-0.577-1.291-1.291s0.578-1.291 1.291-1.291h4.612c0.772-0.963 1.623-1.874 2.518-2.758-0.396-0.221-0.676-0.627-0.676-1.114 0-2.848 2.316-5.163 5.163-5.163 0.937 0 1.802 0.302 2.517 0.803 0.978-0.611 1.974-1.158 2.984-1.647l-1.536-3.84c-0.265-0.662 0.057-1.414 0.719-1.678 0.665-0.266 1.412 0.058 1.678 0.72l1.505 3.761c1.2-0.462 2.42-0.834 3.65-1.136l0.478-0.478c0.359-0.359 0.873-0.449 1.323-0.298 0.71-1.566 2.28-2.662 4.107-2.662 0.87 0 1.677 0.259 2.367 0.688 0.046-0.671 0.591-1.204 1.273-1.204 2.437 0 4.474 1.703 5.012 3.982 0.394 0.094 0.786 0.198 1.179 0.307l0.755-2.94c0.177-0.689 0.876-1.106 1.571-0.929 0.691 0.178 1.106 0.882 0.929 1.572l-0.795 3.098c1.056 0.386 2.103 0.825 3.137 1.321 0.24-0.598 0.602-1.157 1.086-1.641 1.642-1.641 4.314-1.641 5.956 0 0.685 0.684 1.062 1.594 1.062 2.564s-0.377 1.879-1.061 2.565c-0.178 0.178-0.378 0.321-0.585 0.448 0.685 0.514 1.361 1.053 2.025 1.621l1.974-0.987c0.639-0.316 1.414-0.061 1.732 0.577 0.093 0.187 0.124 0.383 0.123 0.58 0.004 0 0.008-0.003 0.013-0.003 2.135 0 3.873 1.737 3.873 3.872 0 0.995-0.444 1.881-1.133 2.495 0.141 0.137 0.285 0.266 0.423 0.404zM65.224 13.564l-0.537 0.269c0.922 0.894 1.816 1.843 2.684 2.844 0.239-0.132 0.407-0.377 0.407-0.669 0-0.713-0.58-1.291-1.291-1.291-0.663 0-1.19-0.507-1.262-1.153zM57.073 6.592c-0.296 0.297-0.488 0.653-0.594 1.027 0.166 0.095 0.332 0.191 0.497 0.289 0.498-0.31 1.151-0.271 1.584 0.161 0.225 0.225 0.592 0.225 0.818 0 0.198-0.198 0.306-0.459 0.306-0.74 0-0.279-0.108-0.541-0.306-0.738-0.318-0.318-0.736-0.476-1.153-0.476s-0.835 0.159-1.153 0.476zM53.883 9.107c-1.162-0.59-2.33-1.093-3.498-1.521l-0.265 1.029c1.31 0.241 2.602 0.547 3.871 0.925-0.039-0.145-0.083-0.287-0.108-0.434zM47.592 8.079l0.329-1.281c-0.219-0.059-0.438-0.108-0.656-0.163-0.199 0.556-0.502 1.059-0.895 1.486 0.407 0.032 0.811 0.071 1.213 0.117 0.006-0.054-0.007-0.106 0.008-0.16zM34.019 6.412l-4.009 4.011c1.967-0.749 3.998-1.337 6.080-1.743-0.79-0.576-1.375-1.399-1.663-2.356-0.137 0.028-0.272 0.058-0.408 0.088zM43.149 6.97c0.648 0 1.212-0.345 1.531-0.858-0.507-0.079-1.012-0.145-1.517-0.196-0.068 0.347-0.185 0.676-0.329 0.991 0.102 0.028 0.203 0.063 0.315 0.063zM39.534 6.792c-0.090-0.323-0.155-0.657-0.155-1.009 0-0.005 0.001-0.010 0.001-0.017-0.794 0.021-1.58 0.072-2.357 0.156 0.323 0.62 0.964 1.048 1.71 1.048 0.287 0 0.555-0.066 0.8-0.178zM27.853 8.74l-0.076-0.194c-0.818 0.392-1.61 0.822-2.37 1.286 0.178 0.476 0.289 0.988 0.289 1.526 0 0.396-0.079 0.772-0.192 1.131 0.454-0.248 0.915-0.482 1.38-0.71-0.010-0.010-0.024-0.013-0.035-0.023-0.505-0.505-0.505-1.321 0-1.825l1.073-1.074c-0.021-0.040-0.052-0.072-0.069-0.116zM18.716 17.244c0.87-0.765 1.767-1.487 2.695-2.164-0.702-0.112-1.324-0.452-1.803-0.937-0.684 0.618-1.339 1.251-1.95 1.908 0.585 0.105 1.033 0.584 1.059 1.193zM23.114 11.349c-0.518 0.365-1.009 0.74-1.493 1.118 0.093 0.046 0.195 0.080 0.307 0.080 0.655 0 1.188-0.533 1.188-1.188 0-0.004-0.001-0.006-0.001-0.010zM19.004 10.971c0.21-0.225 0.506-0.355 0.83-0.385 0.432-0.342 0.871-0.682 1.328-1.013-0.941 0.055-1.754 0.599-2.158 1.398zM17.264 18.588v-0.001h-1.69c-1.048 1.424-1.982 2.937-2.777 4.589 0.077 0.115 0.132 0.245 0.199 0.367 1.176-1.633 2.485-3.187 3.936-4.638 0.108-0.108 0.222-0.209 0.332-0.316zM7.109 25.688c0 0.848 0.551 1.562 1.31 1.824 0.385-1.266 0.807-2.485 1.283-3.638-0.207-0.075-0.426-0.123-0.657-0.123-1.068 0-1.936 0.869-1.936 1.936zM17.861 68.868l48.348-48.348c0.068-0.151 0.163-0.293 0.29-0.413l0.204-0.191c-0.187-0.236-0.374-0.467-0.563-0.696-0.783-0.243-1.425-0.796-1.779-1.526-6.021-4.622-13.354-7.127-21.072-7.127-9.267 0-17.98 3.609-24.534 10.163-6.392 6.392-9.974 14.842-10.146 23.854 0.043 0.3 0.032 0.6-0.012 0.897 0.034 5.462 1.317 10.724 3.721 15.462 0.59 0.549 1.011 1.274 1.168 2.096 1.241 2.069 2.695 4.026 4.372 5.828zM43.252 26.978c0-1.291 0.645-1.936 1.936-1.936s1.936 0.645 1.936 1.936c0 1.291-0.645 1.936-1.936 1.936s-1.936-0.645-1.936-1.936zM9.69 47.632c0-1.291 0.645-1.936 1.936-1.936s1.936 0.645 1.936 1.936c0 1.291-0.645 1.936-1.936 1.936s-1.936-0.645-1.936-1.936zM20.017 33.432c0-2.151 1.076-3.227 3.227-3.227s3.227 1.076 3.227 3.227-1.076 3.227-3.227 3.227-3.227-1.076-3.227-3.227zM34.216 42.468c0-2.151 1.076-3.227 3.227-3.227s3.227 1.076 3.227 3.227-1.076 3.227-3.227 3.227-3.227-1.076-3.227-3.227zM35.507 16.652c0-2.151 1.076-3.227 3.227-3.227s3.227 1.076 3.227 3.227-1.076 3.227-3.227 3.227-3.227-1.076-3.227-3.227zM21.308 55.377c0-1.291 0.645-1.936 1.936-1.936s1.936 0.645 1.936 1.936c0 1.291-0.645 1.936-1.936 1.936s-1.936-0.645-1.936-1.936zM22.599 23.106c0-1.291 0.645-1.936 1.936-1.936s1.936 0.645 1.936 1.936-0.645 1.936-1.936 1.936c-1.291 0-1.936-0.645-1.936-1.936zM12.272 34.723c0-1.291 0.645-1.936 1.936-1.936s1.936 0.645 1.936 1.936-0.645 1.936-1.936 1.936-1.936-0.645-1.936-1.936zM30.344 30.205c0-0.86 0.43-1.291 1.291-1.291s1.291 0.43 1.291 1.291c0 0.861-0.43 1.291-1.291 1.291s-1.291-0.43-1.291-1.291zM20.017 45.695c0-0.861 0.43-1.291 1.291-1.291s1.291 0.43 1.291 1.291-0.43 1.291-1.291 1.291c-0.86 0-1.291-0.43-1.291-1.291zM56.16 21.17c0-0.861 0.43-1.291 1.291-1.291s1.291 0.43 1.291 1.291c0 0.86-0.43 1.291-1.291 1.291s-1.291-0.43-1.291-1.291zM27.762 43.114c0-0.861 0.43-1.291 1.291-1.291s1.291 0.43 1.291 1.291c0 0.86-0.43 1.291-1.291 1.291s-1.291-0.43-1.291-1.291zM14.854 57.313c0-0.861 0.43-1.291 1.291-1.291s1.291 0.43 1.291 1.291-0.43 1.291-1.291 1.291c-0.86 0-1.291-0.43-1.291-1.291z"></path>
</svg>
