<!-- Generated by IcoMoon.io -->
<svg version="1.1" xmlns="http://www.w3.org/2000/svg" width="72" height="72" viewBox="0 0 72 72">
<title>uniF11B</title>
<path d="M70.464 32.94c-0.093 0.119-0.2 0.235-0.304 0.355 0.783 1.493 1.304 3.777-0.165 5.893-0.988 1.421-2.588 2.249-4.39 2.269h-0.069c-2.162 0-4.33-1.14-5.674-2.984-0.922-1.266-2.691-2.861-6.037-4.499-0.011 0.899-0.152 1.773-0.451 2.606-2.19 6.099-38.256 30.495-50.004 34.875-0.331 0.123-0.666 0.183-0.992 0.183-0.644 0-1.248-0.236-1.696-0.683-0.675-0.676-0.865-1.704-0.499-2.688 4.349-11.665 28.867-47.585 35.066-49.811 1.039-0.374 2.14-0.495 3.278-0.417-1.913-3.347-3.972-5.172-5.691-6.158-1.878-1.077-2.966-3.167-2.771-5.325 0.183-2.030 1.423-3.642 3.316-4.313 1.393-0.493 2.799-0.385 4.063-0.028 0.456-0.386 0.939-0.737 1.474-1.009 4.315-2.192 8.013 0.54 8.593 1.004 2.471 1.606 3.999 3.855 4.551 6.684 0.087-0.111 0.171-0.237 0.259-0.344l0.215-0.205c0.238-0.178 5.879-4.308 10.905-0.895l0.057 0.041c0.122 0.094 2.974 2.323 3.153 5.762 0.116 2.247-0.913 4.415-3.056 6.444-0.298 0.281-0.614 0.559-0.943 0.836 0.255 0.032 0.512 0.048 0.765 0.095 3.194 0.602 5.754 2.321 7.608 5.11 0.848 1.041 1.923 4.022-0.559 7.203zM69.049 27.166c-1.553-2.329-3.523-3.658-6.081-4.14-1.363-0.255-2.796-0.237-4.229-0.051-0.183 0.023-0.366 0.048-0.549 0.077-0.339 0.054-0.677 0.117-1.014 0.189-0.24 0.051-0.48 0.108-0.717 0.167-0.243 0.060-0.484 0.122-0.725 0.189-0.216 0.061-0.433 0.123-0.647 0.189-0.221 0.067-0.439 0.14-0.658 0.214-0.35 0.117-0.694 0.24-1.033 0.367-0.184 0.069-0.37 0.139-0.55 0.211-0.217 0.085-0.431 0.172-0.642 0.261-0.196 0.083-0.388 0.167-0.579 0.251-0.138 0.060-0.278 0.121-0.414 0.182 1.258-0.231 2.608-0.378 4.009-0.378 3.95 0 8.303 1.177 12.122 4.918 0.072 0.071 0.144 0.144 0.216 0.217 0.236 0.238 0.467 0.486 0.698 0.743 0.090 0.1 0.179 0.199 0.268 0.301 0.052 0.060 0.106 0.115 0.157 0.176 1.646-2.274 0.505-3.902 0.366-4.083zM54.107 10.22c-0.648 0.805-1.273 1.706-1.901 2.739-0.011 0.107-0.033 0.213-0.045 0.321-0.035 0.306-0.077 0.612-0.128 0.919-0.034 0.206-0.073 0.41-0.113 0.615-0.061 0.309-0.125 0.616-0.198 0.922-0.048 0.199-0.101 0.395-0.154 0.593-0.083 0.311-0.165 0.62-0.259 0.926-0.054 0.178-0.115 0.353-0.172 0.528-0.106 0.323-0.211 0.645-0.326 0.961-0.040 0.112-0.085 0.22-0.127 0.331-0.669 1.773-1.454 3.416-2.202 4.802 0.012-0.006 0.027-0.013 0.039-0.019 0.885-0.451 1.872-0.911 2.932-1.349 0.163-0.067 0.323-0.136 0.489-0.201 0.245-0.098 0.497-0.189 0.748-0.282 0.214-0.079 0.427-0.157 0.645-0.233 0.243-0.084 0.488-0.164 0.736-0.243 0.239-0.076 0.479-0.148 0.722-0.218 0.242-0.071 0.483-0.139 0.728-0.202 0.264-0.070 0.53-0.129 0.797-0.19 0.232-0.052 0.461-0.107 0.695-0.154 0.338-0.066 0.678-0.117 1.020-0.168 0.162-0.024 0.323-0.057 0.486-0.078 1.315-0.846 2.457-1.724 3.395-2.612 1.602-1.516 2.374-3.046 2.297-4.547-0.111-2.167-1.962-3.757-2.18-3.936-3.278-2.189-7.215 0.293-7.925 0.777zM40.069 3.358c0.015 0.009 0.027 0.017 0.043 0.028 0.483 0.287 0.889 0.566 1.202 0.799 0.002 0.001 0.004 0.004 0.006 0.005 0.306 0.229 0.521 0.406 0.619 0.492 0.004 0.002 0.012 0.010 0.015 0.012 0.365 0.272 0.708 0.55 1.036 0.832 0.181 0.152 0.347 0.31 0.516 0.466 0.111 0.102 0.224 0.205 0.331 0.309 0.22 0.212 0.426 0.428 0.627 0.647 0.039 0.043 0.078 0.087 0.117 0.129 1.407 1.562 2.353 3.233 2.951 4.94 0.021 0.059 0.043 0.118 0.062 0.177 0.073 0.217 0.14 0.434 0.203 0.653 0.039 0.132 0.073 0.265 0.107 0.397 0.041 0.16 0.083 0.321 0.118 0.482 0.059 0.264 0.109 0.526 0.154 0.788 0.006 0.037 0.015 0.073 0.021 0.111 0.198 1.213 0.254 2.418 0.204 3.588 0.695-1.841 1.243-3.821 1.402-5.743l0.009-0.11c0.074-1.013 0.048-2.008-0.133-2.957-0.422-2.224-1.582-3.919-3.545-5.179-0.046-0.031-0.090-0.063-0.133-0.1-0.11-0.091-2.82-2.313-5.929-0.765zM34.051 9.763c2.652 1.52 5.996 4.713 8.622 11.356 0.038 0.096 0.073 0.194 0.111 0.29 0.218 0.569 0.433 1.163 0.64 1.781 0.038 0.112 0.077 0.221 0.114 0.334 0.222 0.68 0.44 1.38 0.647 2.122 0.583-1.408 1.198-3.229 1.534-5.235 0.483-2.895 0.288-5.493-0.57-7.781-0.027-0.069-0.059-0.139-0.086-0.209-0.177-0.448-0.386-0.882-0.615-1.305-0.076-0.14-0.155-0.281-0.238-0.42-0.211-0.355-0.448-0.699-0.697-1.036-0.11-0.149-0.212-0.299-0.332-0.446-0.272-0.335-0.575-0.658-0.886-0.975-0.122-0.125-0.228-0.253-0.357-0.376-0.455-0.432-0.944-0.848-1.476-1.242-0.031-0.023-0.060-0.046-0.088-0.072-0.006-0.004-0.035-0.029-0.083-0.069-0.248-0.201-0.752-0.592-1.405-0.986-0.055-0.033-0.112-0.066-0.17-0.099-0.146-0.084-0.304-0.167-0.462-0.249-0.095-0.048-0.187-0.096-0.284-0.143-0.198-0.094-0.404-0.179-0.614-0.259-0.016-0.006-0.031-0.013-0.046-0.019-0.001 0-0.004-0.001-0.004-0.001-0.609-0.226-1.255-0.382-1.902-0.382-0.406 0-0.812 0.060-1.207 0.2-1.397 0.494-1.654 1.725-1.701 2.231-0.109 1.211 0.501 2.385 1.556 2.989zM51.078 35.753c0.326-0.907 0.406-1.856 0.246-2.887-0.001 0-0.002-0.001-0.004-0.001-0.526-0.211-1.075-0.417-1.64-0.621-0.084-0.031-0.168-0.060-0.254-0.090-0.492-0.174-1.002-0.345-1.521-0.514-0.126-0.041-0.246-0.082-0.374-0.122-0.499-0.157-1.014-0.311-1.536-0.462-0.148-0.043-0.288-0.087-0.439-0.129-0.666-0.189-1.348-0.373-2.050-0.552-0.039-0.010-0.072-0.032-0.11-0.045-0.028-0.011-0.055-0.018-0.083-0.031-0.029-0.013-0.060-0.024-0.088-0.040-0.015-0.007-0.029-0.012-0.043-0.021-0.034-0.021-0.062-0.050-0.094-0.074-0.009-0.007-0.017-0.013-0.026-0.021-0.039-0.031-0.081-0.056-0.115-0.090-0.004-0.002-0.007-0.005-0.011-0.009h-0.001c-0.007-0.007-0.012-0.016-0.019-0.023-0.032-0.034-0.055-0.076-0.083-0.113-0.007-0.009-0.013-0.017-0.019-0.026-0.024-0.034-0.054-0.063-0.074-0.101-0.007-0.013-0.012-0.027-0.018-0.040-0.023-0.045-0.035-0.095-0.052-0.143-0.017-0.050-0.043-0.095-0.054-0.146-0.169-0.781-0.354-1.538-0.547-2.279-0.038-0.143-0.077-0.276-0.115-0.416-0.168-0.623-0.343-1.236-0.527-1.829-0.028-0.093-0.057-0.183-0.086-0.274-0.447-1.403-0.937-2.721-1.474-3.933-0.671-0.193-1.31-0.289-1.923-0.289-0.648 0-1.268 0.107-1.865 0.322-1.080 0.388-3.256 2.578-6.003 5.845 0.012 0.050 0.040 0.093 0.046 0.145 0.218 1.99 1.248 4.57 3.056 5.846 0.55 0.389 0.681 1.149 0.293 1.701-0.237 0.337-0.615 0.516-0.998 0.516-0.244 0-0.489-0.072-0.703-0.223-1.922-1.355-3.087-3.567-3.669-5.578-2.374 2.967-5.035 6.517-7.736 10.313 0.018 0.066 0.054 0.123 0.061 0.193 0.137 1.252 0.774 2.866 1.89 3.654 0.55 0.389 0.681 1.151 0.293 1.701-0.238 0.337-0.615 0.516-0.998 0.516-0.244 0-0.489-0.072-0.703-0.223-1.142-0.807-1.909-2.029-2.374-3.238-3.472 4.99-6.902 10.235-9.758 15.009 0.133 0.038 0.265 0.090 0.383 0.177 0.754 0.553 1.553 1.032 2.375 1.425 0.608 0.289 0.865 1.017 0.575 1.626-0.21 0.438-0.647 0.694-1.102 0.694-0.177 0-0.356-0.039-0.526-0.119-0.959-0.458-1.89-1.016-2.766-1.659-0.051-0.038-0.079-0.091-0.123-0.135-2.309 3.985-4.138 7.542-5.123 10.182-0.010 0.027-0.017 0.051-0.022 0.072 0.018-0.007 0.043-0.015 0.070-0.024 4.005-1.493 11.469-5.746 19.368-10.778-1.335-0.443-2.743-1.242-3.638-2.512-0.389-0.551-0.257-1.313 0.293-1.701 0.553-0.39 1.313-0.257 1.701 0.293 0.787 1.115 2.402 1.753 3.653 1.89 0.259 0.029 0.475 0.153 0.656 0.312 4.301-2.8 8.622-5.757 12.502-8.569-2.008-0.583-4.213-1.747-5.566-3.665-0.389-0.551-0.257-1.313 0.294-1.701 0.549-0.388 1.313-0.257 1.701 0.294 1.274 1.808 3.854 2.838 5.846 3.056 0.118 0.013 0.221 0.061 0.324 0.104 6.183-4.621 10.768-8.608 11.426-10.437zM67.991 37.793c1.122-1.615 0.059-3.365-0.356-3.932-0.004-0.006-0.011-0.009-0.016-0.015l-0.155-0.206c-0.801-1.053-1.642-1.947-2.508-2.7-0.137-0.118-0.277-0.214-0.415-0.324-0.287-0.233-0.573-0.467-0.865-0.671-5.647-3.919-12.16-2.575-15.967-1.187-0.035 0.012-0.073 0.004-0.11 0.013-0.102 0.039-0.215 0.077-0.314 0.116 0.205 0.061 0.388 0.127 0.589 0.189 0.536 0.166 1.064 0.333 1.574 0.506 0.372 0.126 0.731 0.254 1.087 0.382 0.35 0.127 0.692 0.255 1.028 0.384 0.389 0.149 0.776 0.299 1.146 0.453 0.048 0.019 0.099 0.038 0.147 0.057 0.009 0.004 0.013 0.011 0.021 0.015 4.253 1.786 7.267 3.844 8.955 6.16 0.893 1.225 2.307 1.981 3.702 1.981h0.044c0.72-0.007 1.723-0.227 2.413-1.221zM49.262 35.309c0.63 0.24 0.945 0.945 0.706 1.575-0.187 0.487-0.649 0.787-1.141 0.787-0.145 0-0.292-0.027-0.434-0.081-2.883-1.099-5.53-3.044-7.869-5.779-0.438-0.512-0.378-1.282 0.134-1.72s1.282-0.378 1.72 0.134c2.070 2.422 4.387 4.132 6.883 5.084z"></path>
</svg>
