<!-- Generated by IcoMoon.io -->
<svg version="1.1" xmlns="http://www.w3.org/2000/svg" width="72" height="72" viewBox="0 0 72 72">
<title>uniF153</title>
<path d="M53.143 23.695l4.321 42.115c0.161 1.578-0.354 3.158-1.418 4.336s-2.583 1.854-4.17 1.854h-31.752c-1.588 0-3.106-0.676-4.169-1.854s-1.58-2.758-1.418-4.336l4.319-42.115c-1.42-0.854-2.382-2.394-2.382-4.17 0-1.953 1.159-3.627 2.818-4.408 1.618-8.79 8.554-15.118 16.708-15.118s15.089 6.327 16.708 15.118c1.658 0.781 2.818 2.455 2.818 4.408 0 1.774-0.962 3.316-2.382 4.17zM36 2.441c-6.686 0-12.438 5.052-14.13 12.204h28.261c-1.693-7.151-7.444-12.204-14.13-12.204zM21.356 17.085c-1.346 0-2.441 1.095-2.441 2.441s1.095 2.441 2.441 2.441h29.288c1.346 0 2.441-1.095 2.441-2.441s-1.095-2.441-2.441-2.441h-29.288zM50.644 24.407h-29.407l-1.212 11.808 1.33-1.33 3.303 3.303c0.477 0.477 0.477 1.248 0 1.726-0.238 0.238-0.55 0.358-0.863 0.358s-0.625-0.12-0.863-0.358l-1.578-1.578-1.578 1.578c-0.041 0.041-0.095 0.060-0.14 0.094l-1.285 12.524 3.003-3.003 3.303 3.303c0.477 0.477 0.477 1.248 0 1.726-0.238 0.238-0.55 0.358-0.863 0.358s-0.625-0.12-0.863-0.358l-1.578-1.578-1.578 1.578c-0.45 0.452-1.159 0.46-1.639 0.057l-1.032 10.063h37.787l-1.032-10.063c-0.226 0.19-0.498 0.3-0.776 0.3-0.312 0-0.625-0.12-0.863-0.358l-1.578-1.578-1.578 1.578c-0.477 0.477-1.248 0.477-1.726 0s-0.477-1.248 0-1.726l3.303-3.303 3.002 3.003-1.285-12.524c-0.045-0.034-0.099-0.052-0.14-0.094l-1.578-1.578-1.578 1.578c-0.477 0.477-1.248 0.477-1.726 0s-0.477-1.248 0-1.726l3.303-3.303 1.33 1.33-1.211-11.808h-0.118zM20.165 69.559h31.67c0.915 0 1.755-0.376 2.365-1.057 0.363-0.404 0.608-0.877 0.727-1.384h-37.855c0.12 0.506 0.366 0.98 0.727 1.384 0.61 0.681 1.45 1.057 2.365 1.057zM24.659 32.592c-0.477 0.477-1.248 0.477-1.726 0s-0.477-1.248 0-1.726l3.303-3.303 3.303 3.303c0.477 0.477 0.477 1.248 0 1.726-0.238 0.238-0.55 0.357-0.863 0.357s-0.625-0.119-0.863-0.357l-1.578-1.578zM34.422 32.592c-0.477 0.477-1.248 0.477-1.726 0s-0.477-1.248 0-1.726l3.303-3.303 3.303 3.303c0.477 0.477 0.477 1.248 0 1.726-0.238 0.238-0.55 0.357-0.863 0.357s-0.625-0.119-0.863-0.357l-1.578-1.578zM44.185 32.592c-0.477 0.477-1.248 0.477-1.726 0s-0.477-1.248 0-1.726l3.303-3.303 3.303 3.303c0.477 0.477 0.477 1.248 0 1.726-0.238 0.238-0.55 0.357-0.863 0.357s-0.625-0.119-0.863-0.357l-1.578-1.578zM27.815 47.236l-1.578-1.578-1.578 1.578c-0.477 0.477-1.248 0.477-1.726 0s-0.477-1.248 0-1.726l3.303-3.303 3.303 3.303c0.477 0.477 0.477 1.248 0 1.726-0.238 0.238-0.55 0.357-0.863 0.357s-0.625-0.12-0.863-0.357zM34.422 47.236c-0.477 0.477-1.248 0.477-1.726 0s-0.477-1.248 0-1.726l3.303-3.303 3.303 3.303c0.477 0.477 0.477 1.248 0 1.726-0.238 0.238-0.55 0.357-0.863 0.357s-0.625-0.12-0.863-0.357l-1.578-1.578zM42.459 45.51l3.303-3.303 3.303 3.303c0.477 0.477 0.477 1.248 0 1.726-0.238 0.238-0.55 0.357-0.863 0.357s-0.625-0.12-0.863-0.357l-1.578-1.578-1.578 1.578c-0.477 0.477-1.248 0.477-1.726 0s-0.477-1.248 0-1.726zM26.237 56.851l3.303 3.303c0.477 0.477 0.477 1.248 0 1.726-0.238 0.238-0.55 0.358-0.863 0.358s-0.625-0.12-0.863-0.358l-1.578-1.578-1.578 1.578c-0.477 0.477-1.248 0.477-1.726 0s-0.477-1.248 0-1.726zM36 56.851l3.303 3.303c0.477 0.477 0.477 1.248 0 1.726-0.238 0.238-0.55 0.358-0.863 0.358s-0.625-0.12-0.863-0.358l-1.578-1.578-1.578 1.578c-0.477 0.477-1.248 0.477-1.726 0s-0.477-1.248 0-1.726zM42.459 60.154l3.303-3.303 3.303 3.303c0.477 0.477 0.477 1.248 0 1.726-0.238 0.238-0.55 0.358-0.863 0.358s-0.625-0.12-0.863-0.358l-1.578-1.578-1.578 1.578c-0.477 0.477-1.248 0.477-1.726 0s-0.477-1.248 0-1.726zM27.815 39.914c-0.477-0.477-0.477-1.248 0-1.726l3.303-3.303 3.303 3.303c0.477 0.477 0.477 1.248 0 1.726-0.238 0.238-0.55 0.358-0.863 0.358s-0.625-0.12-0.863-0.358l-1.578-1.578-1.578 1.578c-0.477 0.477-1.248 0.477-1.726 0zM37.578 39.914c-0.477-0.477-0.477-1.248 0-1.726l3.303-3.303 3.303 3.303c0.477 0.477 0.477 1.248 0 1.726-0.238 0.238-0.55 0.358-0.863 0.358s-0.625-0.12-0.863-0.358l-1.578-1.578-1.578 1.578c-0.477 0.477-1.248 0.477-1.726 0zM33.559 54.915c-0.312 0-0.625-0.12-0.863-0.358l-1.578-1.578-1.578 1.578c-0.477 0.477-1.248 0.477-1.726 0s-0.477-1.248 0-1.726l3.303-3.303 3.303 3.303c0.477 0.477 0.477 1.248 0 1.726-0.238 0.238-0.55 0.358-0.863 0.358zM43.322 54.915c-0.312 0-0.625-0.12-0.863-0.358l-1.578-1.578-1.578 1.578c-0.477 0.477-1.248 0.477-1.726 0s-0.477-1.248 0-1.726l3.303-3.303 3.303 3.303c0.477 0.477 0.477 1.248 0 1.726-0.238 0.238-0.55 0.358-0.863 0.358z"></path>
</svg>
