<!-- Generated by IcoMoon.io -->
<svg version="1.1" xmlns="http://www.w3.org/2000/svg" width="72" height="72" viewBox="0 0 72 72">
<title>uniF1C3</title>
<path d="M66.232 30.436c0.92 3.687 1.667 9.815-0.001 18.085-0.991 3.452-2.388 6.74-4.183 9.888-1.789 3.149-3.903 6.029-6.283 8.563-4.235 3.832-7.563 5.030-10.201 5.030-2.776 0-4.784-1.328-6.277-2.314-0.572-0.377-3.554-2.075-4.172-2.374-1.748-0.847-4.152-2.017-5.544-4.847-0.456 0.105-3.265 0.893-3.913 1.118-1.231 0.426-2.771 0.962-4.553 0.962-2.991 0-6.659-1.508-10.683-7.564-1.74-3.144-3.077-6.458-4.033-9.95-0.96-3.491-1.502-7.024-1.611-10.497 0.3-5.981 1.484-10.651 2.896-14.205 0.022-0.071 0.046-0.136 0.078-0.201 2.388-5.907 5.392-8.652 5.905-9.091 0.316-0.271 0.738-0.387 1.147-0.314 1.009 0.176 4.436 1.002 8.912 4.212 0.502-0.913 1.022-1.809 1.581-2.671 9.862-12.811 19.599-14.149 20.677-14.259 0.003 0 0.004 0.001 0.007 0.001 0.193-0.020 0.388 0.008 0.576 0.071 0.054 0.018 0.096 0.056 0.148 0.080 0.103 0.049 0.211 0.085 0.303 0.162 0.017 0.014 0.024 0.035 0.041 0.050 0.015 0.013 0.035 0.015 0.049 0.029 0.772 0.76 7.533 7.888 7.223 23.945 0 0.004-0.001 0.007-0.001 0.011 0.802-0.266 1.551-0.479 2.231-0.644l2.439-0.594-0.872 2.668c1.379-0.173 2.342-0.145 2.781-0.113l0.655 0.050 0.379 0.54c0.341 0.485 1.083 1.674 1.793 3.647l1.978-1.6zM57.136 28.778l-2.873 8.788 7.143-5.78c-0.495-1.61-1.036-2.707-1.402-3.343-0.622 0.008-1.596 0.074-2.868 0.335zM42.642 3.743c-3.548 1.342-9.21 4.534-15.064 12.135-0.762 1.179-1.466 2.443-2.124 3.755-0.004 0.007-0.003 0.015-0.007 0.022-0.845 1.688-1.575 3.399-2.165 5.084-1.131 3.21-1.87 6.479-2.198 9.716-0.176 9.323 3.65 10.388 6.726 11.242 0.27 0.076 0.51 0.154 0.762 0.231 1.104-9.531 3.207-18.48 6.286-26.612 0.272-0.721 1.079-1.084 1.801-0.812 0.723 0.274 1.086 1.080 0.812 1.803-2.907 7.679-4.923 16.116-6.026 25.104 0.048-0.102 0.092-0.205 0.141-0.307 0.001-0.001 0-0.004 0.001-0.005h0.001c0.015-0.031 0.028-0.062 0.042-0.091v0l0.031-0.067c0.014-0.031 0.025-0.054 0.034-0.071 0.418-0.871 0.861-1.733 1.337-2.583 0.056-0.099 0.106-0.205 0.162-0.305 0.417-0.729 0.853-1.449 1.308-2.156l0.004-0.004c1.001-1.56 2.081-3.044 3.238-4.439 0.56-0.676 1.138-1.33 1.733-1.964 0.453-0.41 0.903-0.801 1.349-1.179 0.249-0.211 0.499-0.411 0.748-0.615 0.192-0.157 0.383-0.316 0.573-0.467 0.296-0.235 0.593-0.461 0.889-0.686 0.136-0.102 0.27-0.205 0.404-0.305 0.321-0.239 0.643-0.471 0.966-0.697 0.092-0.064 0.183-0.129 0.275-0.191 1.404-0.974 2.82-1.839 4.243-2.594 0.148-0.078 0.295-0.155 0.442-0.231 0.252-0.13 0.503-0.259 0.756-0.382 0.386-0.189 0.766-0.366 1.136-0.531 0.038-0.017 0.074-0.035 0.11-0.052 0.062-0.436 0.117-0.875 0.162-1.312 0.224-11.678-3.469-18.072-5.365-20.576-1.469 1.961-2.884 4.263-4.464 7.26-0.25 0.475-0.737 0.746-1.238 0.746-0.219 0-0.442-0.052-0.65-0.161-0.682-0.36-0.943-1.205-0.584-1.888 1.194-2.264 2.302-4.152 3.413-5.815zM28.711 59.792c-0.003-0.014-0.004-0.031-0.006-0.045-0.085-0.456-0.148-0.942-0.189-1.458-0.013-0.15-0.022-0.302-0.031-0.454-0.020-0.39-0.022-0.801-0.015-1.226 0.003-0.214 0.001-0.423 0.013-0.643 0.020-0.411 0.063-0.851 0.109-1.294 0.022-0.225 0.035-0.44 0.066-0.672 0.088-0.675 0.203-1.382 0.354-2.131 0.008-0.038 0.018-0.075 0.028-0.112 0.194-0.676 0.422-1.375 0.685-2.114 0.027-0.077 0.049-0.157 0.076-0.233-0.009 0.001-0.049 0.003-0.060 0.003-0.048 0-2.017-0.837-2.678-1.022-3.362-0.935-8.992-2.5-8.767-14.103 0.359-3.572 1.147-7.058 2.349-10.475 0.263-0.749 0.553-1.502 0.865-2.257 0.256-0.626 0.534-1.237 0.815-1.846 0.041-0.090 0.075-0.179 0.117-0.267-3.451-2.548-6.188-3.492-7.459-3.821-0.796 0.802-2.324 2.59-3.794 5.589 1.463-0.136 2.917-0.369 4.339-0.72 0.743-0.189 1.507 0.271 1.691 1.022 0.186 0.749-0.273 1.507-1.022 1.691-2.039 0.503-4.132 0.794-6.234 0.89-1.165 3.167-2.127 7.259-2.391 12.466 0.103 3.137 0.612 6.45 1.515 9.73 0.897 3.28 2.151 6.388 3.726 9.241 5.162 7.765 8.914 6.459 11.931 5.41 0.907-0.315 3.434-1.016 3.968-1.149zM63.518 47.859c1.245-6.194 1.033-11.103 0.457-14.557l-15.307 12.389 6.056-18.524c-0.6 0.21-1.242 0.468-1.905 0.751-0.353 0.15-0.706 0.302-1.058 0.467-0.284 0.133-0.579 0.285-0.871 0.432-0.21 0.105-0.418 0.203-0.626 0.313-1.023 0.542-2.098 1.174-3.211 1.909-0.126 0.084-0.252 0.173-0.377 0.259-0.422 0.284-0.848 0.581-1.282 0.897-0.169 0.123-0.338 0.25-0.507 0.377-0.408 0.306-0.819 0.627-1.235 0.961-0.166 0.134-0.333 0.266-0.499 0.403-0.567 0.468-1.139 0.956-1.719 1.48-1.124 1.201-2.198 2.518-3.213 3.92-0.003 0.004-0.003 0.007-0.005 0.011-0.003 0.006-0.008 0.010-0.013 0.015-0.463 0.641-0.914 1.298-1.349 1.976v0c-0.426 0.665-0.839 1.34-1.23 2.028-0.001 0.001-0.003 0.001-0.003 0.003-0.491 0.861-0.957 1.759-1.398 2.685l-0.001 0.001c-0.001 0.003 0 0.005-0.001 0.007-0.003 0.004-0.043 0.092-0.074 0.159-0.425 0.901-0.829 1.827-1.201 2.777-0.239 0.611-0.444 1.168-0.633 1.706-0.203 0.593-0.401 1.188-0.574 1.785-0.658 3.298-0.653 5.959 0.018 7.909 0.010 0.025 0.003 0.050 0.010 0.075 0.922 2.539 2.865 3.497 4.569 4.323 0.865 0.419 3.694 2.029 4.495 2.559 2.665 1.761 5.98 3.954 12.98-2.377 2.147-2.291 4.13-4.993 5.811-7.951 1.685-2.957 2.996-6.040 3.898-9.168zM45.532 35.823c0.66-0.4 1.518-0.185 1.915 0.477 0.398 0.66 0.187 1.519-0.472 1.917-0.092 0.057-9.344 5.794-9.903 16.926-0.038 0.748-0.655 1.328-1.395 1.328-0.024 0-0.048 0-0.071-0.001-0.77-0.039-1.364-0.694-1.325-1.466 0.634-12.653 10.818-18.92 11.251-19.18z"></path>
</svg>
