<!-- Generated by IcoMoon.io -->
<svg version="1.1" xmlns="http://www.w3.org/2000/svg" width="72" height="72" viewBox="0 0 72 72">
<title>uniF186</title>
<path d="M8.684 17.329l-0.109-0.167c-1.473-2.626-1.096-5.617 1.118-8.886 2.638-3.32 6.016-5.849 9.839-7.408l0.013-0.006c3.842-1.524 6.872-1.032 9.005 1.472 1.132 1.506 1.582 3.276 1.327 5.057-0.257 1.781-1.186 3.352-2.619 4.425l-0.218 0.136c-0.475 0.242-1.162 0.692-1.725 1.091 1.229 1.512 2.487 2.505 3.441 2.68 0.261 0.039 1.808 0.342 2.55 1.681 0.326 0.584 0.595 1.557 0.031 2.879-0.148 0.35-0.394 0.665-0.713 0.908l-4.338 3.248c-0.333 0.247-0.708 0.396-1.094 0.439-0.181 0.021-0.356 0.031-0.518 0.031-1.112 0-1.817-0.457-2.226-0.872-1.076-1.089-0.929-2.658-0.889-2.961 0.097-0.931-0.506-2.419-1.61-4.020-0.572 0.448-1.253 1.020-1.663 1.455l-0.191 0.172c-2.967 2.219-7.189 1.615-9.41-1.352zM12.101 10.047c-2.127 3.149-1.33 4.903-0.968 5.566 1.229 1.558 3.479 1.885 5.097 0.73 0.56-0.551 2.952-2.823 4.074-2.823h0.031l0.678 0.027 0.435 0.533c1.268 1.564 3.36 4.606 3.078 7.343-0.019 0.179 0.006 0.406 0.048 0.505 0.010-0.004 0.040-0.004 0.087-0.006l3.99-2.986c0.027-0.096 0.025-0.137 0.024-0.139 0.016 0.012-0.26-0.1-0.438-0.131-2.729-0.502-5.058-3.367-6.206-5.030l-0.382-0.554 0.16-0.662c0.27-1.085 3.073-2.688 3.738-3.054 0.75-0.592 1.237-1.439 1.376-2.399 0.142-0.99-0.106-1.972-0.701-2.765-0.792-0.923-2.198-1.897-5.563-0.562-3.349 1.367-6.307 3.582-8.557 6.408zM36.525 14.364c-1.739-0.802-3.066-2.239-3.735-4.047-0.666-1.806-0.592-3.76 0.211-5.501l0.094-0.172c1.724-2.729 4.746-3.899 8.976-3.479 4.521 0.802 8.68 2.722 12.141 5.56l0.012 0.009c3.411 2.852 4.495 5.965 3.224 9.249-0.838 1.827-2.275 3.154-4.083 3.82-1.805 0.663-3.759 0.59-5.501-0.211l-0.223-0.128c-0.535-0.369-1.394-0.823-2.087-1.162-0.865 2.045-1.185 3.865-0.842 4.921 0.052 0.146 0.608 1.82-0.273 3.204-0.376 0.589-1.14 1.321-2.644 1.463-0.069 0.006-0.137 0.009-0.205 0.009-0.333 0-0.666-0.073-0.977-0.215l-5.359-2.471c-0.391-0.185-0.711-0.451-0.935-0.778-0.863-1.226-0.802-2.281-0.598-2.949 0.478-1.57 2.112-2.233 2.298-2.305 1.010-0.42 2.16-1.818 3.158-3.826-0.75-0.329-1.731-0.722-2.41-0.902zM35.678 6.158c-0.43 0.992-0.46 2.097-0.081 3.127 0.379 1.031 1.124 1.855 2.099 2.329 0.793 0.247 4.253 1.374 4.761 2.399l0.302 0.605-0.256 0.636c-0.839 2.021-2.652 5.572-5.38 6.702-0.236 0.099-0.503 0.299-0.545 0.402 0.001 0 0.012 0.072 0.096 0.218l5.017 2.313c0.176-0.034 0.236-0.081 0.237-0.082 0.051-0.1 0.003-0.483-0.046-0.623-0.925-2.848 0.598-6.532 1.587-8.478l0.308-0.604 0.665-0.172c1.119-0.29 4.081 1.555 4.761 1.987 0.991 0.43 2.102 0.46 3.131 0.082 1.058-0.39 1.899-1.164 2.366-2.18 0.495-1.288 0.708-3.198-2.386-5.787-3.067-2.514-6.751-4.211-10.652-4.909-2.892-0.285-4.89 0.376-5.985 2.035zM70.4 27.497c0.308 1.858-0.112 3.636-1.165 5.1-1.050 1.46-2.601 2.423-4.368 2.712l-0.127 0.021-0.129-0.001c-0.583-0.013-1.368 0.075-2.036 0.167 0.388 1.905 1.047 3.373 1.812 3.969 0.212 0.155 1.443 1.138 1.484 2.668 0.018 0.668-0.194 1.657-1.304 2.567-0.293 0.243-0.66 0.409-1.059 0.477l-5.341 0.872c-0.125 0.019-0.251 0.030-0.375 0.030-0.27 0-0.536-0.048-0.784-0.142-1.346-0.512-1.862-1.38-2.057-2.020-0.448-1.463 0.405-2.788 0.581-3.037 0.515-0.781 0.669-2.378 0.43-4.31-0.713 0.133-1.582 0.324-2.145 0.52l-0.249 0.064c-3.648 0.604-7.12-1.893-7.718-5.552l-0.019-0.196c-0.091-3.012 1.625-5.489 5.102-7.362 3.874-1.723 8.030-2.401 12.149-2.020l0.015 0.001c4.116 0.424 6.573 2.265 7.305 5.471zM66.81 30.85c0.586-0.813 0.819-1.799 0.656-2.779-0.273-1.186-1.070-2.701-4.675-3.073-3.606-0.332-7.249 0.261-10.549 1.724-3.343 1.808-3.448 3.732-3.432 4.488 0.176 0.94 0.705 1.767 1.493 2.334 0.79 0.566 1.736 0.801 2.689 0.672 0.759-0.232 3.981-1.153 4.945-0.602l0.592 0.339 0.139 0.675c0.4 1.974 0.847 5.64-0.671 7.933-0.097 0.148-0.181 0.361-0.19 0.468 0.012 0.001 0.039 0.013 0.081 0.034l4.92-0.802c0.067-0.072 0.085-0.111 0.085-0.111-0.031-0.028-0.238-0.254-0.311-0.306-2.205-1.719-2.946-5.338-3.194-7.343l-0.084-0.674 0.456-0.515c0.73-0.816 3.95-0.95 4.716-0.971 0.941-0.176 1.767-0.704 2.334-1.491zM25.941 62.461c0.263 0.015 1.832 0.173 2.694 1.442 0.376 0.551 0.734 1.495 0.296 2.862-0.12 0.371-0.339 0.707-0.635 0.977l-4.013 3.629c-0.302 0.27-0.657 0.453-1.034 0.535-0.318 0.066-0.611 0.097-0.88 0.097-0.917 0-1.548-0.345-1.944-0.678-1.171-0.986-1.171-2.562-1.159-2.868 0.009-0.934-0.726-2.359-1.975-3.854-0.529 0.499-1.155 1.132-1.521 1.6l-0.175 0.19c-1.328 1.198-3.039 1.806-4.846 1.721-1.797-0.091-3.447-0.871-4.648-2.199l-0.121-0.154c-1.712-2.482-1.613-5.493 0.291-8.953 2.323-3.55 5.454-6.381 9.113-8.284l0.012-0.006c3.687-1.879 6.748-1.666 9.105 0.632 2.55 2.815 2.336 7.075-0.412 9.561l-0.205 0.155c-0.453 0.284-1.094 0.798-1.619 1.246 1.362 1.389 2.71 2.263 3.675 2.35zM26.133 65.667c0.018-0.094 0.010-0.137 0.009-0.136-0.042-0.009-0.338-0.085-0.429-0.091-2.782-0.25-5.368-2.886-6.664-4.436l-0.435-0.518 0.102-0.678c0.167-1.082 2.803-2.946 3.436-3.379 0.695-0.66 1.102-1.552 1.152-2.52 0.049-0.999-0.29-1.956-0.955-2.691-0.872-0.846-2.365-1.69-5.59-0.043-3.206 1.669-5.947 4.149-7.93 7.171-1.83 3.333-0.871 5.005-0.448 5.631 0.659 0.695 1.551 1.102 2.519 1.15 0.965 0.066 1.899-0.267 2.625-0.893 0.511-0.605 2.716-3.127 3.821-3.19l0.675-0.037 0.484 0.486c1.415 1.451 3.78 4.289 3.748 7.036-0.001 0.179 0.043 0.402 0.094 0.496 0.010-0.004 0.040-0.007 0.087-0.013zM48.668 46.723c-1.073 1.433-2.646 2.362-4.427 2.619-1.779 0.255-3.551-0.194-4.985-1.267l-0.191-0.172c-0.409-0.433-1.091-1.007-1.661-1.455-1.104 1.606-1.706 3.1-1.606 4.065 0.034 0.261 0.181 1.829-0.895 2.919-0.408 0.414-1.113 0.872-2.232 0.872-0.166 0-0.339-0.009-0.521-0.031-0.388-0.046-0.759-0.197-1.079-0.433l-4.334-3.245c-0.32-0.24-0.569-0.557-0.723-0.914-0.562-1.324-0.294-2.296 0.030-2.88 0.744-1.34 2.29-1.642 2.592-1.688 0.919-0.169 2.175-1.164 3.4-2.674-0.55-0.388-1.226-0.834-1.727-1.089l-0.218-0.136c-1.433-1.073-2.362-2.646-2.619-4.425-0.255-1.781 0.194-3.551 1.267-4.985 2.193-2.576 5.224-3.070 9.065-1.545l0.013 0.006c3.818 1.557 7.196 4.087 9.77 7.314 2.283 3.363 2.659 6.354 1.186 8.98zM46.219 45.006c0.362-0.662 1.158-2.419-1.037-5.659-2.186-2.734-5.145-4.949-8.488-6.315-3.358-1.333-4.773-0.362-5.623 0.635-0.536 0.722-0.784 1.705-0.642 2.695 0.139 0.959 0.627 1.809 1.379 2.401 0.669 0.373 3.464 1.984 3.733 3.046l0.164 0.659-0.388 0.568c-1.146 1.658-3.475 4.522-6.182 5.021-0.176 0.033-0.387 0.121-0.469 0.188 0.008 0.011 0.015 0.037 0.030 0.082l3.992 2.989c0.097-0.001 0.136-0.016 0.137-0.018 0-0.043 0.018-0.347 0.006-0.438-0.287-2.776 1.803-5.819 3.075-7.39l0.429-0.529 0.689-0.028c1.098-0.012 3.535 2.269 4.099 2.823 0.78 0.554 1.728 0.778 2.695 0.648 0.959-0.139 1.811-0.627 2.402-1.379zM9.528 39.952c-2.861 1.321-6.269 0.063-7.592-2.8-1.046-2.694-0.202-5.148 2.466-7.38l0.012-0.010c2.616-2.145 5.761-3.596 9.094-4.192 3.415-0.347 5.771 0.586 7.134 2.741l0.094 0.173c1.319 2.864 0.064 6.268-2.8 7.591l-0.243 0.088c-0.375 0.099-0.884 0.293-1.348 0.486 0.645 1.191 1.373 2.048 1.982 2.301 0.214 0.081 1.495 0.629 1.897 1.941 0.176 0.577 0.232 1.485-0.503 2.529-0.205 0.293-0.493 0.535-0.834 0.693l-3.978 1.834c-0.275 0.129-0.58 0.197-0.884 0.197-0.066 0-0.131-0.003-0.197-0.010-1.268-0.118-1.921-0.752-2.247-1.261-0.737-1.155-0.321-2.486-0.23-2.741 0.197-0.608 0.021-1.69-0.471-2.957-0.412 0.214-0.847 0.454-1.128 0.65zM17.071 41.661c-1.645-0.743-2.837-2.496-3.633-4.131 0.723 1.67 1.286 3.723 0.78 5.447zM4.686 35.989c0.583 1.252 2.151 1.855 3.5 1.292 0.562-0.368 2.81-1.776 3.818-1.51l0.66 0.17 0.063-0.031 0.302-0.617c0.463-0.934 3.072-1.769 3.742-1.971 1.279-0.647 1.845-2.181 1.288-3.503-0.317-0.482-1.212-1.585-4.14-1.291-2.716 0.49-5.384 1.719-7.606 3.541-2.093 1.752-1.997 2.964-1.628 3.92zM61.49 52.66c2.616 2.214 3.588 4.558 2.982 7.041l-0.060 0.187c-0.551 1.421-1.628 2.541-3.030 3.158-1.403 0.614-2.958 0.65-4.376 0.097l-0.23-0.112c-0.332-0.202-0.826-0.435-1.288-0.634-0.411 1.294-0.521 2.41-0.279 3.024 0.090 0.211 0.584 1.513-0.081 2.712-0.293 0.529-0.907 1.2-2.169 1.395-0.102 0.018-0.209 0.027-0.315 0.027-0.258 0-0.526-0.052-0.78-0.152l-4.065-1.584c-0.342-0.13-0.648-0.353-0.878-0.638-0.801-1.004-0.801-1.914-0.659-2.502 0.321-1.333 1.566-1.957 1.812-2.069 0.565-0.276 1.229-1.17 1.799-2.393-0.441-0.148-0.913-0.293-1.249-0.36l-0.247-0.073c-1.421-0.551-2.541-1.628-3.158-3.030-0.616-1.403-0.65-2.956-0.097-4.376 1.212-2.623 3.564-3.72 7.023-3.349l0.013 0.001c3.36 0.39 6.587 1.646 9.331 3.63zM52.388 66.396c-0.608-1.699-0.175-3.774 0.447-5.483-0.696 1.679-1.782 3.506-3.376 4.343zM61.595 58.886c0.127-0.565 0.3-1.969-1.947-3.875-2.239-1.613-4.976-2.68-7.827-3.012-2.714-0.291-3.523 0.62-3.953 1.549-0.226 0.59-0.208 1.331 0.087 2.003 0.281 0.639 0.781 1.137 1.415 1.41 0.662 0.155 3.224 0.801 3.735 1.697l0.403 0.624 0.645-0.214c1.016-0.332 3.429 0.98 4.031 1.321 0.65 0.226 1.355 0.197 1.997-0.084 0.641-0.282 1.14-0.784 1.413-1.421z"></path>
</svg>
