<!-- Generated by IcoMoon.io -->
<svg version="1.1" xmlns="http://www.w3.org/2000/svg" width="72" height="72" viewBox="0 0 72 72">
<title>uniF1C1</title>
<path d="M68.38 10.486c8.011 9.832 2.307 29.558-13.012 44.877-10.623 10.622-23.365 16.622-33.468 16.622-4.466 0-8.415-1.172-11.439-3.636-0.272-0.209-1.087-0.993-1.087-0.993-0.499-0.538-0.915-1.121-1.266-1.727l-4.324 1.622c-0.299 0.112-0.609 0.167-0.915 0.167-0.715 0-1.409-0.301-1.911-0.858-0.715-0.796-0.868-1.927-0.39-2.883l1.327-2.654-1.792-6.269c-0.309-1.084 0.091-2.198 1.019-2.835 0.931-0.642 2.111-0.619 3.012 0.060l4.549 3.411c0.271-0.361 0.56-0.714 0.889-1.043 1.449-1.449 3.293-2.363 5.332-2.642 0.331-0.027 1.539-0.105 2.307-0.034 6.697-0.079 14.768-1.412 23.91-10.553 9.156-9.157 10.478-17.032 10.524-24.179-0.222-2.743 0.763-5.426 2.707-7.37 0.321-0.322 0.666-0.606 1.021-0.872l-3.408-4.545c-0.676-0.9-0.701-2.083-0.063-3.012 0.642-0.93 1.76-1.326 2.838-1.021l6.271 1.792 2.653-1.327c0.956-0.479 2.087-0.325 2.883 0.39 0.793 0.715 1.065 1.825 0.689 2.825l-1.608 4.286c0.59 0.342 1.156 0.747 1.678 1.231 0.056 0.055 0.84 0.869 1.074 1.172zM54.797 3.127l3.15 4.201c1.612-0.551 3.341-0.646 4.997-0.285l1.333-3.549-2.081 1.042c-0.583 0.289-1.242 0.35-1.867 0.171zM7.064 62.944c-0.001-0.004-0.003-0.012-0.001-0.012-0.363-1.651-0.273-3.363 0.265-4.963l-4.213-3.159 1.582 5.534c0.177 0.62 0.117 1.284-0.174 1.864l-1.041 2.081zM53.334 53.327c14.288-14.288 19.905-32.321 12.789-41.053-0.204-0.268-0.822-0.895-0.828-0.901-0.459-0.422-0.976-0.737-1.513-1l-0.498-0.194c-1.66-0.642-3.545-0.56-5.17 0.23l-0.384 0.187c-0.476 0.278-0.937 0.596-1.346 1.005-1.357 1.356-2.038 3.235-1.87 5.153l0.006 0.135c-0.039 7.405-1.422 16.318-11.366 26.262-9.968 9.968-19.132 11.327-26 11.398h-0.094l-0.094-0.013c-0.356-0.042-1.248-0.009-1.765 0.027-1.32 0.184-2.596 0.817-3.597 1.818-0.472 0.472-0.829 1.009-1.126 1.57l-0.088 0.18c-0.792 1.626-0.875 3.51-0.229 5.168l0.022 0.056c0.288 0.712 0.694 1.389 1.245 1.988 0.003 0 0.592 0.576 0.818 0.751 8.764 7.14 26.796 1.521 41.085-12.766zM58.726 22.963c0.792 0.085 1.361 0.794 1.275 1.586-1.472 13.582-11.501 26.382-25.554 32.608-0.19 0.085-0.387 0.124-0.581 0.124-0.553 0-1.080-0.32-1.317-0.856-0.321-0.727 0.006-1.576 0.733-1.898 12.929-5.728 22.516-17.9 23.858-30.286 0.086-0.792 0.8-1.364 1.586-1.277zM28.552 56.209c0.761-0.204 1.556 0.251 1.76 1.019 0.206 0.769-0.252 1.557-1.019 1.762-2.111 0.563-4.233 0.878-6.307 0.938h-0.042c-0.776 0-1.415-0.617-1.438-1.399-0.022-0.793 0.603-1.455 1.399-1.479 1.851-0.052 3.752-0.335 5.646-0.841z"></path>
</svg>
