<!-- Generated by IcoMoon.io -->
<svg version="1.1" xmlns="http://www.w3.org/2000/svg" width="72" height="72" viewBox="0 0 72 72">
<title>uniF19E</title>
<path d="M69.842 45.019c-0.101 0.119-0.201 0.237-0.311 0.344-0.087 0.090-0.177 0.176-0.268 0.262-0.111 0.108-0.222 0.215-0.339 0.316-0.095 0.083-0.195 0.161-0.294 0.238-0.12 0.095-0.239 0.19-0.366 0.279-0.103 0.074-0.212 0.143-0.318 0.212-0.129 0.084-0.259 0.166-0.392 0.242-0.112 0.064-0.227 0.124-0.341 0.182-0.136 0.070-0.274 0.139-0.415 0.203-0.12 0.053-0.242 0.103-0.364 0.152-0.145 0.057-0.291 0.112-0.438 0.162-0.126 0.043-0.255 0.081-0.385 0.118-0.15 0.043-0.302 0.084-0.456 0.12-0.134 0.031-0.269 0.057-0.405 0.083-0.155 0.029-0.313 0.055-0.473 0.076-0.14 0.019-0.282 0.034-0.424 0.047-0.080 0.008-0.158 0.022-0.238 0.027l-2.838 2.719c-2.116 2.028-3.989 4.321-5.724 6.495-3.092 3.873-7.709 6.095-12.669 6.095h-12.209c-4.958 0-9.575-2.222-12.669-6.095-1.735-2.173-3.608-4.467-5.724-6.495l-2.832-2.712c-0.078-0.004-0.154-0.017-0.232-0.023-0.148-0.010-0.293-0.026-0.438-0.043-0.166-0.020-0.329-0.045-0.492-0.073-0.143-0.025-0.285-0.052-0.427-0.085-0.159-0.036-0.316-0.074-0.473-0.117-0.139-0.037-0.276-0.078-0.413-0.121-0.153-0.048-0.303-0.103-0.452-0.159-0.134-0.051-0.266-0.102-0.396-0.158-0.145-0.063-0.287-0.13-0.428-0.199-0.127-0.063-0.255-0.125-0.376-0.192-0.138-0.075-0.27-0.155-0.403-0.236-0.121-0.074-0.241-0.147-0.358-0.225-0.129-0.087-0.253-0.178-0.377-0.271-0.112-0.083-0.224-0.167-0.333-0.255-0.12-0.097-0.233-0.2-0.348-0.303-0.103-0.094-0.208-0.186-0.307-0.284-0.109-0.108-0.213-0.222-0.317-0.335-0.094-0.102-0.189-0.203-0.278-0.308-0.099-0.119-0.191-0.242-0.284-0.366-0.083-0.11-0.168-0.217-0.246-0.33-0.089-0.129-0.169-0.263-0.251-0.396-0.070-0.115-0.144-0.228-0.209-0.345-0.078-0.139-0.145-0.284-0.215-0.428-0.059-0.118-0.121-0.236-0.173-0.358-0.065-0.15-0.118-0.306-0.176-0.46-0.045-0.122-0.094-0.241-0.134-0.364-0.052-0.166-0.092-0.338-0.135-0.507-0.031-0.119-0.066-0.233-0.092-0.353-0.040-0.19-0.065-0.385-0.092-0.58-0.014-0.103-0.036-0.205-0.047-0.31-0.032-0.301-0.048-0.606-0.048-0.915 0-4.619 3.591-8.448 8.231-9.035 0.648-12.82 11.755-21.345 28.048-21.345 15.968 0 26.855 8.526 27.49 21.342 4.64 0.589 8.231 4.416 8.231 9.035 0 0.317-0.015 0.629-0.043 0.935-0.010 0.101-0.029 0.196-0.041 0.296-0.024 0.205-0.048 0.41-0.085 0.609-0.022 0.115-0.052 0.223-0.078 0.335-0.040 0.178-0.078 0.359-0.127 0.533-0.034 0.119-0.078 0.232-0.116 0.348-0.054 0.161-0.104 0.322-0.166 0.479-0.046 0.116-0.101 0.227-0.15 0.34-0.066 0.15-0.13 0.301-0.204 0.446-0.056 0.111-0.12 0.215-0.18 0.322-0.079 0.14-0.157 0.282-0.242 0.417-0.068 0.104-0.14 0.204-0.212 0.306-0.090 0.13-0.18 0.26-0.276 0.383-0.076 0.098-0.159 0.191-0.239 0.285zM9.476 32.423c-3.821 0-6.928 2.944-6.928 6.565s3.107 6.566 6.929 6.566h0.098c4.143 0 7.644-2.334 7.644-5.096 0-0.705 0.569-1.274 1.274-1.274s1.274 0.57 1.274 1.274c0 2.762 3.501 5.096 7.644 5.096s7.644-2.334 7.644-5.096c0-0.705 0.57-1.274 1.274-1.274s1.274 0.57 1.274 1.274c0 2.762 3.501 5.096 7.644 5.096s7.644-2.334 7.644-5.096c0-0.705 0.57-1.274 1.274-1.274s1.274 0.57 1.274 1.274c0 2.744 3.452 5.063 7.559 5.095 0.256 0 0.496-0.045 0.741-0.071 0.2-0.022 0.408-0.023 0.6-0.061 0.237-0.047 0.453-0.133 0.678-0.204 0.182-0.057 0.374-0.096 0.548-0.168 0.217-0.092 0.411-0.218 0.615-0.331 0.161-0.089 0.331-0.159 0.482-0.261 0.195-0.133 0.363-0.297 0.541-0.45 0.134-0.115 0.282-0.213 0.405-0.339 0.172-0.175 0.312-0.38 0.463-0.574 0.102-0.131 0.219-0.248 0.311-0.389 0.139-0.213 0.242-0.452 0.357-0.684 0.073-0.147 0.163-0.279 0.224-0.432 0.106-0.265 0.172-0.553 0.245-0.836 0.036-0.139 0.093-0.268 0.12-0.41 0.083-0.435 0.126-0.887 0.126-1.354 0-3.619-3.108-6.565-6.928-6.565-0.705 0-1.274-0.57-1.274-1.274 0-12.145-9.802-19.992-24.972-19.992-12.708 0-25.53 6.181-25.53 19.992 0 0.705-0.57 1.274-1.274 1.274zM53.061 55.706c1.79-2.241 3.723-4.608 5.953-6.743l1.215-1.166c-2.602-0.57-4.776-1.896-6.067-3.641-1.74 2.352-5.086 3.947-8.918 3.947s-7.178-1.595-8.918-3.947c-1.74 2.352-5.086 3.947-8.918 3.947s-7.178-1.595-8.918-3.947c-1.303 1.762-3.51 3.1-6.146 3.659l1.197 1.148c2.23 2.136 4.163 4.502 5.952 6.743 2.607 3.264 6.5 5.137 10.679 5.137h12.209c4.179 0 8.072-1.872 10.679-5.137zM36.328 34.088c-2.81 0-5.096-2.858-5.096-6.37 0-1.944 1.389-11.466 5.096-11.466s5.096 9.522 5.096 11.466c0 3.512-2.286 6.37-5.096 6.37zM36.328 18.851c-1.023 0.809-2.548 6.040-2.548 8.867 0 2.071 1.167 3.822 2.548 3.822s2.548-1.751 2.548-3.822c0-2.828-1.525-8.058-2.548-8.867zM50.348 33.935c-1.985 0-3.874-1.164-4.696-3.1-0.717-1.683-2.037-8.825 1.197-10.201 3.246-1.382 7.464 4.529 8.18 6.211 1.101 2.585-0.108 5.584-2.693 6.683-0.65 0.275-1.325 0.406-1.989 0.406zM47.841 22.982c-0.764 0.487-0.674 4.911 0.154 6.855 0.55 1.293 2.049 1.9 3.343 1.348 1.293-0.55 1.898-2.049 1.348-3.342-0.8-1.88-3.747-4.873-4.748-4.873-0.034 0-0.068 0.004-0.097 0.011zM20.319 33.529c-2.585-1.099-3.793-4.098-2.692-6.685 0.716-1.682 4.93-7.594 8.18-6.211 3.235 1.376 1.915 8.518 1.197 10.201-0.824 1.936-2.714 3.101-4.697 3.101-0.665 0-1.339-0.13-1.989-0.406zM19.97 27.843c-0.55 1.293 0.055 2.791 1.348 3.343 1.293 0.55 2.793-0.055 3.343-1.348 0.827-1.945 0.917-6.369 0.141-6.862-0.028-0.008-0.060-0.011-0.093-0.011-0.989 0-3.938 2.995-4.739 4.878zM38.858 55.727c0.713-0.005 1.282 0.552 1.291 1.256 0.010 0.703-0.552 1.282-1.256 1.292-0.94 0.013-1.799 0.020-2.582 0.020-6.448 0-7.996-0.466-11.393-1.753-0.659-0.25-0.989-0.985-0.74-1.644 0.251-0.659 0.985-0.986 1.643-0.74 3.333 1.263 4.45 1.691 13.038 1.568zM21.313 49.013c0.581 0.822 1.19 1.6 1.812 2.316 0.463 0.53 0.406 1.335-0.124 1.798-0.241 0.21-0.54 0.313-0.837 0.313-0.354 0-0.708-0.148-0.96-0.437-0.679-0.781-1.344-1.628-1.973-2.521-0.406-0.576-0.268-1.371 0.307-1.776s1.37-0.268 1.776 0.307z"></path>
</svg>
