<!-- Generated by IcoMoon.io -->
<svg version="1.1" xmlns="http://www.w3.org/2000/svg" width="72" height="72" viewBox="0 0 72 72">
<title>uniF11C</title>
<path d="M55.526 6.711c9.084 0 16.474 6.569 16.474 14.644 0 4.452-2.328 8.701-6.258 11.469-0.816 4.631-4.851 8.055-9.609 8.055-1.252 0-2.496-0.251-3.652-0.719l-6.741 22.15c-0.206 0.672-0.356 1.362-0.515 2.093-0.077 0.354-0.155 0.707-0.238 1.058-0.653 2.769-3.095 4.704-5.938 4.704h-4.881c-2.843 0-5.285-1.934-5.939-4.706l-0.139-0.607c-0.178-0.778-0.347-1.514-0.592-2.217l-7.836-22.53c-1.198 0.505-2.494 0.772-3.799 0.772-4.758 0-8.793-3.425-9.609-8.055-3.927-2.769-6.255-7.018-6.255-11.47 0-8.075 7.39-14.644 16.475-14.644 0.379 0 0.775 0.015 1.196 0.044 1.727-2.333 4.42-3.705 7.346-3.705 1.672 0 3.273 0.445 4.689 1.297l0.019-0.018c0.214-0.198 0.376-0.343 0.545-0.48 0.083-0.066 0.164-0.124 0.243-0.183 0.194-0.145 0.356-0.261 0.525-0.37 0.104-0.067 0.214-0.132 0.323-0.197 0.162-0.095 0.324-0.187 0.493-0.272 0.118-0.060 0.236-0.117 0.357-0.172 0.17-0.077 0.345-0.149 0.522-0.217 0.166-0.062 0.268-0.101 0.373-0.136 0.182-0.061 0.372-0.115 0.564-0.165 0.183-0.049 0.275-0.073 0.369-0.094 0.207-0.045 0.425-0.079 0.642-0.111 0.157-0.026 0.237-0.039 0.316-0.048 0.671-0.071 1.342-0.071 1.999 0l0.243 0.035c0.298 0.045 0.514 0.078 0.726 0.126 0.093 0.020 0.184 0.043 0.276 0.068 0.282 0.073 0.472 0.127 0.658 0.189 0.112 0.038 0.225 0.079 0.336 0.122 0.207 0.079 0.381 0.151 0.554 0.23 0.126 0.057 0.243 0.115 0.359 0.173 0.168 0.087 0.333 0.178 0.495 0.275 0.104 0.060 0.216 0.126 0.325 0.197 0.164 0.105 0.323 0.22 0.482 0.338 0.12 0.088 0.2 0.146 0.278 0.209 0.175 0.141 0.339 0.288 0.499 0.438l0.068 0.063c1.416-0.852 3.018-1.297 4.69-1.297 2.928 0 5.621 1.372 7.346 3.705 0.42-0.029 0.815-0.044 1.196-0.044zM43.407 61.6l6.091-20.011c-0.766 0.26-1.566 0.423-2.386 0.485l-6.99 12.815c-0.268 0.489-0.836 0.736-1.373 0.598-0.541-0.138-0.919-0.625-0.919-1.182v-11.060c-0.382 0.049-0.766 0.069-1.153 0.072-0.022 0.001-0.044 0.006-0.067 0.006-0.3 0-0.598-0.013-0.893-0.040l-0.327 15.929c-0.012 0.591-0.444 1.087-1.027 1.18-0.586 0.094-1.148-0.244-1.345-0.801l-6.179-17.578c-1.444 0.205-2.764 0.057-4.048-0.335l7.011 20.158c0.289 0.828 0.482 1.666 0.666 2.476l0.137 0.591c0.386 1.638 1.884 2.826 3.563 2.826h4.881c1.679 0 3.178-1.187 3.563-2.825 0.082-0.339 0.155-0.679 0.23-1.017 0.162-0.747 0.331-1.518 0.565-2.286zM29.21 41.391l3.879 11.037 0.199-9.689c-1.112-0.403-2.147-1.007-3.058-1.8-0.329 0.177-0.674 0.317-1.020 0.453zM42.534 41.306c-0.694 0.533-1.463 0.94-2.263 1.267v6.945l4.17-7.645c-0.65-0.128-1.292-0.303-1.907-0.566zM63.946 31.097c3.567-2.337 5.614-5.888 5.614-9.741 0-6.729-6.296-12.203-14.034-12.203-0.509 0-1.058 0.031-1.677 0.095l-0.76 0.078-0.403-0.649c-1.239-1.995-3.369-3.186-5.703-3.186-1.498 0-2.92 0.489-4.109 1.416l-0.936 0.727-0.754-0.915c-0.148-0.18-0.304-0.349-0.47-0.511l-0.148-0.133c-0.124-0.116-0.243-0.223-0.368-0.325l-0.147-0.109c-0.176-0.129-0.289-0.214-0.411-0.292-0.078-0.050-0.155-0.095-0.233-0.14-0.128-0.076-0.249-0.143-0.373-0.206l-0.257-0.125c-0.122-0.055-0.251-0.107-0.382-0.157l-0.27-0.099c-0.135-0.045-0.276-0.084-0.415-0.121l-0.266-0.068c-0.16-0.035-0.318-0.059-0.478-0.082l-0.132-0.022c-0.683-0.084-1.086-0.067-1.569-0.016l-0.23 0.037c-0.161 0.023-0.32 0.046-0.475 0.081l-0.165 0.039c-0.244 0.066-0.385 0.104-0.52 0.149l-0.214 0.077c-0.184 0.071-0.312 0.123-0.439 0.181-0.088 0.040-0.173 0.081-0.255 0.123-0.126 0.065-0.248 0.132-0.37 0.204l-0.233 0.143c-0.123 0.079-0.238 0.162-0.351 0.247l-0.215 0.16c-0.122 0.098-0.242 0.207-0.361 0.317l-0.098 0.088c-0.217 0.21-0.375 0.378-0.52 0.556l-0.753 0.92-0.94-0.73c-1.19-0.925-2.612-1.414-4.11-1.414-2.333 0-4.464 1.191-5.703 3.186l-0.403 0.649-0.76-0.078c-0.619-0.065-1.168-0.095-1.677-0.095-7.738 0-14.034 5.474-14.034 12.203 0 3.854 2.047 7.405 5.614 9.742l0.478 0.314 0.066 0.566c0.43 3.685 3.555 6.464 7.267 6.464 1.2 0 2.393-0.299 3.447-0.864l0.759-0.406 0.637 0.58c0.259 0.236 0.541 0.438 0.829 0.63 0.125 0.085 0.256 0.159 0.386 0.236 0.266 0.154 0.533 0.303 0.815 0.421 0.017 0.007 0.035 0.015 0.052 0.022 2.232 0.916 4.886 0.725 6.923-0.657l0.86-0.583 0.713 0.757c0.976 1.035 2.193 1.738 3.524 2.075 0.006 0.001 0.011-0.001 0.016 0 0.635 0.161 1.256 0.228 1.866 0.223 0.4-0.005 0.797-0.041 1.186-0.111 0.090-0.016 0.179-0.043 0.27-0.062 1.248-0.271 2.417-0.854 3.383-1.734l0.637-0.582 0.761 0.408c1.987 1.064 4.364 1.101 6.381 0.225 0.051-0.023 0.105-0.043 0.156-0.067 0.239-0.111 0.467-0.243 0.693-0.379 0.133-0.082 0.267-0.162 0.395-0.253 0.253-0.176 0.503-0.358 0.735-0.567l0.637-0.58 0.759 0.406c1.054 0.565 2.248 0.864 3.447 0.864 3.712 0 6.836-2.779 7.267-6.464l0.066-0.566zM19.967 22.501c-1.284 2.555-3.873 4.033-6.553 4.032-1.106 0-2.225-0.25-3.277-0.779-3.606-1.813-5.066-6.223-3.255-9.83 0.303-0.602 1.032-0.846 1.639-0.543 0.602 0.303 0.844 1.035 0.542 1.638-1.209 2.405-0.236 5.345 2.17 6.554 2.406 1.209 5.344 0.236 6.553-2.17 0.301-0.6 1.034-0.845 1.639-0.542 0.602 0.303 0.844 1.036 0.542 1.639zM31.331 26.071c0.663-0.123 1.301 0.312 1.425 0.973 0.748 3.969-1.869 7.805-5.837 8.553-0.458 0.086-0.918 0.129-1.373 0.129-1.458 0-2.881-0.437-4.111-1.276-1.617-1.103-2.706-2.768-3.068-4.69-0.125-0.663 0.31-1.3 0.973-1.425 0.663-0.121 1.301 0.311 1.425 0.973 0.242 1.281 0.968 2.392 2.045 3.126 1.076 0.736 2.376 1.006 3.656 0.765 2.644-0.499 4.39-3.058 3.892-5.703-0.124-0.663 0.31-1.3 0.973-1.425zM45.871 22.573c-2.821 0-5.516-1.639-6.718-4.385-0.27-0.616 0.011-1.336 0.628-1.607 0.62-0.27 1.338 0.012 1.607 0.629 1.081 2.465 3.964 3.594 6.43 2.513 1.194-0.523 2.112-1.48 2.588-2.694 0.473-1.215 0.447-2.541-0.077-3.735-0.27-0.616 0.011-1.336 0.629-1.607 0.621-0.27 1.337 0.012 1.607 0.628 0.786 1.79 0.825 3.781 0.113 5.603s-2.090 3.257-3.882 4.042c-0.953 0.417-1.947 0.615-2.926 0.615zM52.454 30.251c0.618 0.27 0.901 0.99 0.632 1.605-1.202 2.748-3.897 4.39-6.719 4.39-0.979 0-1.973-0.198-2.924-0.614-1.793-0.783-3.172-2.217-3.886-4.038-0.713-1.822-0.675-3.811 0.11-5.604 0.268-0.617 0.989-0.902 1.606-0.628 0.618 0.27 0.901 0.99 0.63 1.607-0.522 1.195-0.549 2.521-0.073 3.735s1.395 2.171 2.589 2.693c1.194 0.522 2.521 0.548 3.735 0.073 1.214-0.476 2.17-1.396 2.693-2.591 0.267-0.617 0.989-0.901 1.606-0.628zM32.285 11.009c0.545-0.397 1.308-0.276 1.704 0.27 1.15 1.581 1.616 3.517 1.309 5.449-0.305 1.932-1.343 3.629-2.926 4.779-1.297 0.942-2.803 1.396-4.296 1.396-2.266 0.001-4.502-1.046-5.932-3.014-0.397-0.545-0.275-1.308 0.27-1.705 0.545-0.397 1.308-0.274 1.704 0.27 1.584 2.177 4.641 2.66 6.819 1.079 1.056-0.766 1.748-1.898 1.951-3.185 0.204-1.289-0.106-2.579-0.873-3.633-0.397-0.545-0.276-1.308 0.27-1.705zM62.376 15.553c0.506-0.442 1.278-0.392 1.721 0.12 1.285 1.474 1.917 3.362 1.783 5.313-0.134 1.95-1.021 3.733-2.497 5.017-1.384 1.206-3.098 1.796-4.803 1.796-2.045 0-4.081-0.849-5.527-2.51-0.443-0.509-0.389-1.28 0.12-1.722 0.503-0.443 1.278-0.391 1.721 0.118 1.768 2.029 4.857 2.244 6.889 0.476 0.982-0.856 1.574-2.044 1.663-3.345 0.090-1.301-0.333-2.558-1.189-3.541-0.443-0.509-0.389-1.28 0.12-1.722z"></path>
</svg>
