<!-- Generated by IcoMoon.io -->
<svg version="1.1" xmlns="http://www.w3.org/2000/svg" width="72" height="72" viewBox="0 0 72 72">
<title>uniF1C2</title>
<path d="M33.474 40.848c0-0.86 0-2.651 10.619-7.828 0.667-0.325 1.463-0.189 1.987 0.332 0.522 0.523 0.657 1.321 0.334 1.986-5.174 10.621-6.966 10.621-7.828 10.621-2.819 0-5.112-2.294-5.112-5.111zM38.473 43.43c0.534-0.31 2.059-2.14 4.607-7.076-4.939 2.549-6.768 4.072-7.078 4.607 0.057 1.336 1.133 2.413 2.471 2.469zM34.737 31.579c-0.699 0-1.263-0.565-1.263-1.263s0.565-1.263 1.263-1.263h1.263c0.698 0 1.263 0.565 1.263 1.263s-0.565 1.263-1.263 1.263h-1.263zM36 53.053c0.698 0 1.263 0.565 1.263 1.263s-0.565 1.263-1.263 1.263h-1.263c-0.699 0-1.263-0.565-1.263-1.263s0.565-1.263 1.263-1.263h1.263zM24.632 40.421c0.698 0 1.263 0.565 1.263 1.263s-0.565 1.263-1.263 1.263h-1.263c-0.699 0-1.263-0.565-1.263-1.263s0.565-1.263 1.263-1.263h1.263zM46.105 41.684c0-0.698 0.565-1.263 1.263-1.263h1.263c0.699 0 1.263 0.565 1.263 1.263s-0.565 1.263-1.263 1.263h-1.263c-0.698 0-1.263-0.565-1.263-1.263zM65.053 1.263c0 8.644-8.752 16.43-20.211 19.166v5.797c5.96 3.186 10.027 9.466 10.027 16.682 0 2.711-0.585 5.285-1.617 7.618h5.664c1.586 0 3.078 0.776 3.99 2.077 0.91 1.3 1.129 2.966 0.586 4.458l-3.595 9.887h-5.981c0.523 1.467 1.912 2.526 3.557 2.526 0.698 0 1.263 0.565 1.263 1.263s-0.565 1.263-1.263 1.263c-3.051 0-5.601-2.174-6.188-5.053h-29.308c-0.587 2.879-3.139 5.053-6.188 5.053-0.698 0-1.263-0.565-1.263-1.263s0.565-1.263 1.263-1.263c1.645 0 3.034-1.060 3.557-2.526h-5.981l-3.594-9.887c-0.543-1.491-0.323-3.158 0.586-4.458 0.911-1.301 2.403-2.077 3.99-2.077h4.321c-1.033-2.333-1.617-4.907-1.617-7.618 0-7.248 4.104-13.549 10.105-16.72v-5.759c-11.458-2.736-20.211-10.522-20.211-19.166v-1.263h58.105v1.263zM9.558 2.526c0.853 6.407 8.060 13.074 18.298 15.479l0.822 0.174c1.017 0.215 2.044 0.375 3.075 0.499 0.317 0.038 0.634 0.076 0.955 0.105 0.365 0.034 0.731 0.063 1.098 0.086 0.585 0.035 1.175 0.058 1.772 0.064 0.279 0.003 0.56 0.003 0.839 0 0.598-0.006 1.188-0.029 1.772-0.064 0.366-0.023 0.733-0.052 1.098-0.086 0.322-0.029 0.638-0.067 0.955-0.105 1.031-0.124 2.058-0.284 3.075-0.499l0.822-0.174c10.243-2.405 17.451-9.072 18.302-15.479h-52.882zM51.898 53.053c-0.023 0.037-0.049 0.069-0.067 0.105-0.15 0.231-0.306 0.457-0.466 0.682-0.145 0.205-0.298 0.404-0.451 0.602-0.255 0.328-0.52 0.648-0.796 0.96-0.17 0.193-0.341 0.385-0.519 0.571-0.201 0.21-0.405 0.412-0.615 0.611-0.147 0.139-0.297 0.273-0.447 0.407-0.398 0.355-0.81 0.692-1.235 1.013-0.119 0.088-0.235 0.179-0.355 0.265-0.274 0.197-0.552 0.385-0.836 0.567-0.082 0.053-0.167 0.101-0.25 0.153-0.528 0.326-1.071 0.624-1.631 0.898-0.122 0.059-0.244 0.12-0.366 0.177-0.303 0.14-0.608 0.277-0.92 0.4-0.155 0.062-0.315 0.115-0.472 0.173-0.464 0.17-0.932 0.327-1.412 0.461-0.275 0.078-0.552 0.149-0.831 0.215-0.216 0.049-0.428 0.104-0.647 0.147-0.489 0.097-0.984 0.169-1.482 0.227-0.153 0.018-0.304 0.030-0.457 0.044-0.557 0.051-1.115 0.085-1.68 0.085s-1.123-0.034-1.68-0.085c-0.153-0.014-0.306-0.027-0.457-0.044-0.498-0.058-0.993-0.13-1.482-0.227-0.219-0.042-0.432-0.097-0.647-0.147-0.279-0.066-0.556-0.136-0.831-0.215-0.48-0.135-0.949-0.291-1.412-0.461-0.157-0.058-0.317-0.111-0.472-0.173-0.312-0.124-0.617-0.26-0.92-0.4-0.124-0.057-0.245-0.118-0.366-0.177-0.56-0.273-1.104-0.572-1.631-0.898-0.083-0.052-0.168-0.1-0.25-0.153-0.284-0.182-0.562-0.371-0.836-0.567-0.12-0.086-0.235-0.175-0.352-0.264-0.427-0.322-0.839-0.659-1.237-1.014-0.15-0.134-0.301-0.268-0.447-0.407-0.21-0.2-0.416-0.403-0.615-0.611-0.178-0.186-0.349-0.378-0.519-0.571-0.277-0.311-0.541-0.63-0.796-0.96-0.153-0.198-0.304-0.398-0.451-0.602-0.159-0.225-0.316-0.451-0.466-0.682-0.023-0.035-0.049-0.068-0.072-0.105h-5.675c-0.775 0-1.475 0.364-1.92 0.999s-0.548 1.416-0.283 2.145l2.99 8.225h42.995l2.991-8.225c0.265-0.729 0.162-1.509-0.283-2.145-0.446-0.635-1.146-0.999-1.921-0.999h-7.018zM52.343 42.908c0-6.523-3.842-12.152-9.374-14.786-0.522-0.248-1.052-0.467-1.59-0.657-0.025-0.009-0.051-0.019-0.077-0.028-0.565-0.196-1.138-0.361-1.717-0.494-0.001 0-0.002-0.001-0.004-0.001-2.943-0.672-6.018-0.514-8.903 0.474-0.011 0.004-0.022 0.009-0.033 0.013-0.548 0.189-1.088 0.411-1.619 0.659-5.572 2.617-9.449 8.267-9.449 14.821 0 2.805 0.711 5.445 1.958 7.756l0.143 0.244c0.098 0.177 0.21 0.345 0.315 0.518 0.26 0.427 0.539 0.839 0.835 1.235 0.087 0.119 0.174 0.239 0.265 0.355 0.173 0.218 0.351 0.432 0.534 0.642 0.095 0.109 0.193 0.214 0.291 0.32 0.38 0.413 0.778 0.806 1.196 1.176 0.047 0.042 0.092 0.086 0.14 0.128 0.235 0.205 0.479 0.399 0.725 0.59 0.069 0.054 0.14 0.105 0.211 0.158 0.782 0.582 1.612 1.096 2.482 1.531 0.073 0.037 0.149 0.072 0.224 0.107 0.504 0.243 1.019 0.456 1.546 0.647 0.106 0.038 0.21 0.081 0.316 0.116 0.249 0.085 0.5 0.159 0.753 0.231 0.227 0.064 0.457 0.122 0.688 0.177 0.23 0.054 0.46 0.109 0.692 0.154 0.39 0.074 0.786 0.136 1.185 0.182 0.144 0.018 0.289 0.032 0.435 0.044 0.479 0.042 0.961 0.073 1.45 0.073s0.971-0.032 1.45-0.073c0.145-0.014 0.291-0.028 0.435-0.044 0.4-0.047 0.795-0.107 1.185-0.182 0.233-0.044 0.461-0.1 0.691-0.154 0.231-0.055 0.461-0.114 0.688-0.178 0.253-0.072 0.504-0.145 0.753-0.23 0.106-0.037 0.21-0.078 0.316-0.116 0.527-0.189 1.043-0.404 1.546-0.647 0.075-0.035 0.149-0.071 0.224-0.107 0.87-0.436 1.7-0.949 2.482-1.531 0.071-0.053 0.142-0.105 0.211-0.158 0.246-0.191 0.489-0.385 0.725-0.59 0.048-0.042 0.094-0.087 0.141-0.129 0.418-0.37 0.815-0.763 1.195-1.175 0.097-0.106 0.196-0.211 0.29-0.32 0.183-0.208 0.361-0.422 0.534-0.642 0.091-0.116 0.177-0.236 0.265-0.355 0.296-0.397 0.573-0.808 0.835-1.235 0.105-0.173 0.216-0.341 0.315-0.518l0.143-0.244c1.248-2.31 1.958-4.952 1.958-7.756zM42.316 25.113v-4.172c-1.018 0.171-2.053 0.303-3.101 0.391-0.025 0.003-0.051 0.005-0.076 0.008-1.036 0.086-2.083 0.134-3.139 0.134s-2.103-0.048-3.138-0.134c-0.025-0.003-0.051-0.005-0.076-0.008-1.048-0.088-2.083-0.221-3.101-0.391v4.143c0.052-0.019 0.105-0.032 0.158-0.049 0.351-0.121 0.706-0.23 1.066-0.33 0.231-0.064 0.464-0.124 0.697-0.179 0.296-0.069 0.591-0.138 0.892-0.193 0.336-0.063 0.676-0.11 1.016-0.155 0.225-0.029 0.449-0.066 0.676-0.087 0.586-0.056 1.177-0.090 1.771-0.090 0.598 0 1.19 0.034 1.78 0.090 0.231 0.023 0.456 0.059 0.685 0.090 0.341 0.045 0.681 0.091 1.018 0.155 0.307 0.058 0.608 0.129 0.909 0.201 0.231 0.055 0.461 0.114 0.691 0.178 0.369 0.104 0.731 0.217 1.090 0.342 0.061 0.020 0.121 0.035 0.182 0.057zM34.723 15.158c-3.469 0-6.663-0.533-9.496-1.584-0.654-0.243-0.988-0.969-0.745-1.623s0.969-0.989 1.623-0.745c2.55 0.946 5.45 1.426 8.618 1.426h0.014c0.697 0 1.263 0.565 1.263 1.263 0 0.697-0.565 1.263-1.263 1.263h-0.014zM20.842 6.282c0.027 0.963 0.524 1.924 1.403 2.703 0.522 0.462 0.568 1.262 0.106 1.783-0.249 0.282-0.597 0.424-0.945 0.424-0.298 0-0.599-0.105-0.839-0.318-1.407-1.248-2.207-2.856-2.252-4.525-0.018-0.697 0.532-1.277 1.229-1.297 0.675-0.029 1.278 0.531 1.297 1.229z"></path>
</svg>
