<!-- Generated by IcoMoon.io -->
<svg version="1.1" xmlns="http://www.w3.org/2000/svg" width="72" height="72" viewBox="0 0 72 72">
<title>uniF177</title>
<path d="M68.265 7.122c2.656 2.655 3.906 5.033 3.718 7.064-0.156 1.682-1.243 2.471-1.367 2.556l-0.436 0.299-0.521-0.102c-2.459-0.484-3.085 0.742-3.149 0.883l-0.082 0.165c-3.821 6.419-10.612 12.167-10.9 12.408-3.706 2.748-7.615 3.968-10.088 4.502l5.304 5.304-0.889 0.889c-18.338 18.338-33.066 27.599-43.864 27.599-1.318 0-2.576-0.137-3.776-0.414l-2.215-0.508 5.282-5.282-0.013-0.051c0.030-0.008 0.058-0.015 0.087-0.023l59.1-59.099zM39.155 32.169l-28.869 28.868c10.187-3.163 17.026-7.859 33.832-23.906l-1.796-1.795zM5.173 66.149c9.855 0.503 24.283-8.401 42.012-25.952l-1.287-1.287c-18.382 17.557-25.356 22.144-39.25 25.764zM69.385 14.354c0.048-0.122 0.088-0.28 0.098-0.479 0.033-0.704-0.312-2.288-2.997-4.974l-2.031-2.031-23.52 23.522 2.333 2.333c1.596-0.216 6.382-1.103 10.702-4.304 0.006-0.009 6.642-5.626 10.251-11.646 0.479-1.085 2.066-2.759 5.164-2.421zM45.825 27.809c0-1.258 0.629-1.887 1.886-1.887s1.886 0.629 1.886 1.887c0 1.258-0.629 1.886-1.886 1.886s-1.886-0.629-1.886-1.886zM60.917 12.716c0-1.258 0.629-1.886 1.886-1.886s1.887 0.629 1.887 1.886c0 1.258-0.629 1.887-1.887 1.887s-1.886-0.629-1.886-1.887z"></path>
</svg>
