<!-- Generated by IcoMoon.io -->
<svg version="1.1" xmlns="http://www.w3.org/2000/svg" width="72" height="72" viewBox="0 0 72 72">
<title>uniF139</title>
<path d="M71.728 50.585c0.419 0.815 0.35 1.785-0.182 2.531l-2.856 3.997c-1.574 2.204-4.131 3.519-6.838 3.519h-51.705c-2.707 0-5.264-1.315-6.838-3.519l-2.855-3.997c-0.533-0.747-0.604-1.715-0.184-2.531s1.249-1.321 2.166-1.321h0.12c0.586-15.404 11.826-28.12 26.55-30.973-0.023-0.202-0.054-0.406-0.054-0.606 0-3.483 2.833-6.316 6.316-6.316s6.316 2.833 6.316 6.316c0 0.201-0.033 0.403-0.054 0.606 14.722 2.855 25.962 15.569 26.548 30.973h1.383c0.917 0 1.747 0.505 2.166 1.321zM31.587 17.902c0.059-0.008 0.119-0.009 0.178-0.016 0.435-0.047 0.872-0.082 1.311-0.112 0.162-0.011 0.322-0.028 0.484-0.037 0.599-0.033 1.202-0.052 1.809-0.052s1.209 0.019 1.81 0.053c0.162 0.009 0.322 0.025 0.484 0.037 0.44 0.030 0.877 0.064 1.311 0.112 0.058 0.006 0.118 0.009 0.177 0.015 0.005-0.073 0.008-0.145 0.008-0.217 0-2.089-1.7-3.79-3.789-3.79s-3.79 1.7-3.79 3.79c0 0.071 0.002 0.144 0.008 0.217zM30.829 20.551c-14.164 2.136-25.149 14.107-25.751 28.714h60.581c-0.601-14.606-11.587-26.577-25.749-28.714-0.677-0.101-1.358-0.174-2.040-0.23-0.139-0.010-0.278-0.020-0.417-0.030-1.387-0.094-2.78-0.094-4.167 0-0.139 0.009-0.278 0.019-0.417 0.030-0.682 0.056-1.364 0.129-2.040 0.23zM66.634 55.644l2.754-3.854h-66.775l2.754 3.855c1.102 1.54 2.889 2.461 4.782 2.461h51.703c1.894 0 3.681-0.921 4.782-2.462zM35.351 22.737c0.72-0.024 1.281 0.561 1.279 1.264 0 0.697-0.566 1.262-1.263 1.262v0h-0.016c-1.889 0-3.767 0.207-5.583 0.617-0.094 0.020-0.187 0.030-0.279 0.030-0.577 0-1.099-0.398-1.232-0.985-0.153-0.681 0.274-1.357 0.955-1.51 1.998-0.45 4.064-0.678 6.139-0.678zM21.664 26.399c0.601-0.355 1.374-0.157 1.732 0.443 0.355 0.6 0.157 1.376-0.443 1.73-5.953 3.527-10.291 9.931-11.603 17.129-0.111 0.609-0.643 1.036-1.242 1.036-0.076 0-0.152-0.006-0.227-0.021-0.687-0.125-1.142-0.782-1.017-1.469 1.443-7.907 6.227-14.954 12.801-18.848z"></path>
</svg>
