<!-- Generated by IcoMoon.io -->
<svg version="1.1" xmlns="http://www.w3.org/2000/svg" width="72" height="72" viewBox="0 0 72 72">
<title>uniF176</title>
<path d="M34.8 43.2c0-0.8 0.4-1.2 1.2-1.2s1.2 0.4 1.2 1.2-0.4 1.2-1.2 1.2c-0.8 0-1.2-0.4-1.2-1.2zM34.8 48c0-0.8 0.4-1.2 1.2-1.2s1.2 0.4 1.2 1.2c0 0.8-0.4 1.2-1.2 1.2s-1.2-0.4-1.2-1.2zM36 0c2.316 0 4.295 0.821 5.937 2.463s2.463 3.621 2.463 5.937v18c0 2.097-0.688 3.932-2.065 5.504s-3.088 2.505-5.135 2.8v1.466c1.045 0.272 1.906 0.836 2.584 1.692s1.016 1.836 1.016 2.938v26.4c0 1.324-0.469 2.454-1.407 3.393s-2.069 1.407-3.393 1.407c-1.324 0-2.454-0.469-3.393-1.407s-1.407-2.069-1.407-3.393v-26.4c0-1.102 0.339-2.082 1.016-2.938s1.539-1.42 2.584-1.692v-1.466c-2.046-0.295-3.758-1.228-5.135-2.8s-2.065-3.407-2.065-5.504v-18c0-2.316 0.821-4.294 2.463-5.937s3.621-2.463 5.937-2.463zM38.4 40.8c0-0.662-0.235-1.227-0.704-1.696s-1.035-0.704-1.696-0.704c-0.662 0-1.227 0.235-1.696 0.704s-0.704 1.035-0.704 1.696v26.4c0 0.662 0.235 1.227 0.704 1.696s1.035 0.704 1.696 0.704 1.227-0.235 1.696-0.704 0.704-1.035 0.704-1.696v-26.4zM42 26.4v-18c0-1.654-0.586-3.068-1.759-4.241s-2.586-1.759-4.241-1.759-3.068 0.586-4.241 1.759-1.759 2.586-1.759 4.241v18c0 1.654 0.586 3.068 1.759 4.241s2.586 1.759 4.241 1.759 3.068-0.586 4.241-1.759 1.759-2.586 1.759-4.241z"></path>
</svg>
