<!-- Generated by IcoMoon.io -->
<svg version="1.1" xmlns="http://www.w3.org/2000/svg" width="72" height="72" viewBox="0 0 72 72">
<title>uniF17A</title>
<path d="M24.665 61.741c0.503-0.504 1.315-0.506 1.819-0.005 0.503 0.501 0.504 1.315 0.004 1.818-2.4 2.412-5.763 3.725-9.422 3.725-0.587 0-1.183-0.034-1.783-0.103-0.706-0.080-1.212-0.717-1.131-1.422 0.081-0.706 0.723-1.212 1.423-1.131 3.502 0.404 6.896-0.676 9.091-2.881zM63.976 4.505c0.503 0.503 0.503 1.318-0.001 1.818l-2.996 2.996c-0.252 0.251-0.581 0.377-0.91 0.377s-0.658-0.126-0.909-0.377c-0.502-0.501-0.502-1.315 0-1.818l2.997-2.996c0.503-0.503 1.317-0.503 1.819 0zM57.749 12.55l-8.503 8.503c-0.251 0.251-0.58 0.377-0.909 0.377s-0.658-0.126-0.909-0.377c-0.503-0.503-0.503-1.315 0-1.818l8.503-8.503c0.503-0.503 1.315-0.503 1.818 0s0.503 1.315 0 1.818zM51.809 22.127c0.503-0.5 1.315-0.499 1.818 0.001 0.501 0.504 0.501 1.316-0.001 1.819l-3.040 3.040c-0.252 0.251-0.581 0.377-0.91 0.377s-0.658-0.126-0.909-0.377c-0.501-0.501-0.501-1.315 0-1.818zM61.642 12.293c0.503-0.503 1.315-0.503 1.818 0s0.503 1.315 0 1.818l-6.198 6.198c-0.251 0.251-0.58 0.377-0.909 0.377s-0.658-0.126-0.909-0.377c-0.503-0.503-0.503-1.315 0-1.818zM66.063 7.872c0.501-0.501 1.315-0.503 1.818 0s0.503 1.315 0 1.818l-1.529 1.529c-0.251 0.251-0.58 0.377-0.909 0.377s-0.658-0.126-0.909-0.377c-0.503-0.503-0.503-1.315 0-1.818zM71.986 8.639l0.013 0.364-0.179 0.318c-9.987 17.677-23.29 23.549-23.852 23.79l-0.233 0.099-0.252 0.005h-0.076c-1.667 0-3.253-0.951-4.32-1.776l-11.203 11.202c3.037 5.779 5.558 15.853-2.296 23.707-4.306 4.307-9.284 5.521-13.526 5.521-1.4 0-2.72-0.132-3.911-0.329-5.284-0.876-9.805-3.345-11.198-4.738-1.544-1.544-1.207-4.484 0.974-8.502 1.893-3.488 4.937-7.409 8.567-11.042 3.137-3.138 6.417-5.742 9.372-7.454 0.423-0.246 0.838-0.472 1.246-0.679 2.335-1.188 4.069-1.584 5.355-1.548 1.287 0.036 2.124 0.504 2.664 1.044 0.404 0.403 0.885 0.996 1.394 1.742l10.701-10.7c-2.141-2.459-2.315-4.694-2.326-4.957l-0.013-0.364 0.179-0.318c9.988-17.676 23.292-23.549 23.852-23.789l0.233-0.099 0.253-0.005h0.073c2.77 0 5.339 2.629 5.626 2.931 2.696 2.696 2.87 5.29 2.881 5.577zM4.187 59.527c-1.774 3.268-1.819 5.055-1.417 5.459 0.402 0.402 2.191 0.359 5.459-1.417 3.228-1.752 7.037-4.716 10.451-8.129 3.399-3.401 6.12-6.939 7.658-9.965 1.4-2.754 1.499-4.513 0.977-5.035-0.184-0.184-0.521-0.291-1.001-0.291-0.883 0-2.25 0.36-4.033 1.268-3.026 1.538-6.564 4.258-9.965 7.658-3.413 3.413-6.377 7.223-8.129 10.451zM27.771 64.531c6.805-6.806 4.385-15.48 1.916-20.39-0.244 0.746-0.586 1.574-1.057 2.499-1.659 3.262-4.546 7.032-8.133 10.618-3.634 3.635-7.556 6.678-11.042 8.571-1.075 0.584-2.062 1.018-2.976 1.337 1.687 0.743 3.788 1.455 6.093 1.837 4.196 0.696 10.244 0.483 15.2-4.473zM47.199 30.634c1.83-0.879 13.388-6.894 22.171-22.203-0.118-0.579-0.513-1.859-1.822-3.278l-0.305-0.318c-0.546-0.567-2.188-1.986-3.553-2.123-1.831 0.879-13.39 6.894-22.171 22.205 0.012 0.054 0.027 0.12 0.044 0.185l2.974-2.974c0.503-0.503 1.315-0.503 1.818 0s0.503 1.315 0 1.818l-3.348 3.348c-0.077 0.077-0.172 0.12-0.262 0.174 0.176 0.237 0.368 0.478 0.597 0.726l0.305 0.318c0.546 0.567 2.188 1.985 3.553 2.121z"></path>
</svg>
