<!-- Generated by IcoMoon.io -->
<svg version="1.1" xmlns="http://www.w3.org/2000/svg" width="72" height="72" viewBox="0 0 72 72">
<title>uniF15A</title>
<path d="M37.392 60.43c0-0.857 0.429-1.286 1.286-1.286s1.286 0.428 1.286 1.286c0 0.857-0.428 1.286-1.286 1.286s-1.286-0.429-1.286-1.286zM33.536 65.572c0-0.857 0.429-1.286 1.286-1.286s1.286 0.429 1.286 1.286c0 0.857-0.428 1.286-1.286 1.286s-1.286-0.428-1.286-1.286zM41.249 64.287c0-0.857 0.428-1.286 1.286-1.286s1.286 0.428 1.286 1.286c0 0.857-0.429 1.286-1.286 1.286s-1.286-0.429-1.286-1.286zM46.391 61.715c0-0.857 0.429-1.286 1.286-1.286s1.286 0.429 1.286 1.286c0 0.857-0.428 1.286-1.286 1.286s-1.286-0.428-1.286-1.286zM18.501 56.654h4.358l2.18 3.776-2.18 3.776h-4.358l-2.18-3.776zM21.374 61.633l0.695-1.205-0.695-1.205h-1.391l-0.696 1.205 0.696 1.205h1.391zM26.214 51.431h4.358l2.18 3.776-2.18 3.776h-4.358l-2.18-3.776zM29.087 56.41l0.696-1.205-0.696-1.205h-1.391l-0.695 1.205 0.695 1.205h1.391zM61.228 0.377c0.606 0.606 0.606 1.212 0 1.818l-10.165 10.165c0.314 0.587 0.47 1.183 0.47 1.79v2.571c0 1.040-0.362 1.933-1.087 2.681s-1.605 1.139-2.639 1.173c0.21 0.508 1.078 1.113 2.605 1.815 1.248 0.574 2.219 1.087 2.916 1.538s1.428 1.338 2.197 2.661 1.153 2.928 1.153 4.816v28.532c0 3.326-1.179 6.168-3.537 8.526s-5.2 3.537-8.526 3.537h-22.154c-3.326 0-6.169-1.179-8.527-3.537s-3.537-5.2-3.537-8.526v-28.532c0-1.887 0.384-3.493 1.153-4.816s1.501-2.21 2.197-2.662c0.696-0.451 1.668-0.964 2.915-1.537 1.526-0.702 2.394-1.308 2.605-1.815-1.035-0.035-1.914-0.426-2.639-1.173s-1.088-1.642-1.088-2.681v-2.571c0-1.063 0.377-1.972 1.131-2.726s1.663-1.131 2.726-1.131h22.829l9.905-9.905c0.606-0.606 1.212-0.606 1.818 0s0.606 1.212 0 1.818l-8.088 8.087-14.595 14.623-0.9 1.103-1.007-1.007c-0.922-0.919-1.837-0.925-2.746-0.019-0.909 0.909-0.909 1.819 0 2.728l3.636 3.637c0.91 0.908 1.819 0.908 2.727 0 0.374-0.375 0.562-0.829 0.562-1.364 0-0.536-0.187-0.99-0.56-1.364l-1.007-1.005 1.085-0.919 0.135-0.105 26.222-26.223c0.606-0.606 1.212-0.606 1.818 0zM29.793 34.538l-6.362-6.364c-0.375-0.375-0.829-0.562-1.364-0.562s-0.988 0.187-1.363 0.562c-0.374 0.375-0.562 0.829-0.562 1.364s0.187 0.99 0.56 1.364l1.36 1.36 0.004 0.002 5 5.001c0.908 0.908 1.817 0.908 2.727 0 0.909-0.909 0.909-1.819 0-2.728zM23.885 37.721l-3.637-3.636c-0.375-0.375-0.83-0.563-1.363-0.563s-0.989 0.188-1.364 0.563c-0.909 0.909-0.909 1.819 0 2.728l3.636 3.636c0.91 0.908 1.819 0.908 2.727 0v0c0.375-0.374 0.562-0.829 0.562-1.364s-0.187-0.99-0.561-1.364zM44.613 69.429c2.617 0 4.853-0.928 6.708-2.783s2.783-4.092 2.782-6.708v-10.683c-2.295 1.465-4.409 2.197-6.341 2.197-2.287 0-4.795-1.051-7.523-3.154-2.694-2.076-4.985-3.177-6.873-3.302s-3.965 0.686-6.23 2.433c-3.344 2.576-6.282 3.864-8.816 3.864-1.734 0-3.519-0.532-5.354-1.597v10.24c0 2.617 0.928 4.853 2.784 6.709s4.092 2.784 6.709 2.784h22.154zM49.337 24.724c-1.366-0.628-2.413-1.275-3.141-1.94s-1.093-1.648-1.095-2.951v-1.517l-9.536 9.538c0.358 0.663 0.537 1.376 0.537 2.139 0 1.247-0.438 2.307-1.314 3.182-0.577 0.577-1.298 0.96-2.162 1.149 0.197 0.528 0.296 1.054 0.296 1.579 0 1.245-0.438 2.306-1.314 3.182-0.878 0.877-1.939 1.315-3.182 1.315-0.507 0-1.021-0.095-1.543-0.284-0.195 0.839-0.59 1.555-1.184 2.149-0.877 0.876-1.938 1.314-3.182 1.314-1.245 0-2.306-0.438-3.182-1.314l-3.636-3.636c-0.877-0.877-1.315-1.938-1.315-3.182s0.438-2.304 1.315-3.182c0.593-0.591 1.311-0.985 2.153-1.183-0.189-0.522-0.284-1.036-0.284-1.544 0-1.247 0.438-2.308 1.315-3.182 1.301-1.302 2.873-1.636 4.717-1.003 0.194-0.853 0.591-1.58 1.192-2.179 1.583-1.581 3.357-1.84 5.322-0.776l9.536-9.536h-20.258c-0.857 0-1.286 0.428-1.286 1.286v2.571c0 0.857 0.428 1.286 1.286 1.286h2.571v1.828c0 0.912-0.245 1.711-0.735 2.398s-0.97 1.17-1.44 1.451c-0.47 0.281-1.156 0.628-2.057 1.042-1.080 0.497-1.885 0.918-2.414 1.262s-1.054 0.983-1.573 1.917-0.779 2.101-0.779 3.499v15.223c2.141 1.544 4.127 2.224 5.958 2.041s4.046-1.275 6.644-3.276c2.025-1.561 3.978-2.494 5.86-2.8s3.596-0.145 5.143 0.481c1.547 0.626 3.294 1.689 5.239 3.188 2.272 1.759 4.278 2.632 6.018 2.617s3.832-0.931 6.276-2.746v-14.728c0-1.399-0.26-2.565-0.78-3.499s-1.044-1.574-1.574-1.917c-0.529-0.344-1.334-0.765-2.414-1.262zM48.963 16.72v-2.26l-3.546 3.546h2.26c0.857 0 1.286-0.428 1.286-1.286z"></path>
</svg>
