<!-- Generated by IcoMoon.io -->
<svg version="1.1" xmlns="http://www.w3.org/2000/svg" width="72" height="72" viewBox="0 0 72 72">
<title>uniF1B2</title>
<path d="M6.107 31.232c0 0.675-0.547 1.221-1.221 1.221s-1.221-0.546-1.221-1.221v-1.727c0-0.675 0.547-1.221 1.221-1.221s1.221 0.546 1.221 1.221v1.727zM7.382 37.985c0.534 0.413 0.633 1.18 0.219 1.712l-1.056 1.367c-0.241 0.311-0.602 0.475-0.967 0.475-0.261 0-0.524-0.083-0.746-0.255-0.532-0.413-0.631-1.179-0.219-1.712l1.057-1.367c0.414-0.534 1.181-0.631 1.714-0.22zM8.805 50.599c0.414-0.531 1.181-0.63 1.714-0.219 0.534 0.413 0.632 1.179 0.219 1.714l-1.056 1.365c-0.242 0.31-0.602 0.474-0.967 0.474-0.261 0-0.524-0.083-0.746-0.255-0.534-0.413-0.631-1.179-0.219-1.714zM23.484 53.333c0.672 0.061 1.168 0.655 1.107 1.328-0.057 0.633-0.59 1.11-1.215 1.11-0.037 0-0.073-0.001-0.111-0.005l-1.72-0.156c-0.673-0.061-1.168-0.655-1.107-1.328 0.061-0.671 0.653-1.159 1.326-1.105zM53.067 52.538l0.286 0.482c0.343 0.58 0.151 1.33-0.43 1.672-0.195 0.116-0.409 0.171-0.62 0.171-0.418 0-0.825-0.215-1.053-0.6l-0.286-0.484c-0.343-0.58-0.151-1.33 0.43-1.672 0.581-0.343 1.33-0.15 1.673 0.43zM37.692 53.311l0.286 0.481c0.343 0.579 0.151 1.329-0.429 1.673-0.195 0.116-0.41 0.171-0.622 0.171-0.417 0-0.823-0.214-1.052-0.599l-0.286-0.482c-0.343-0.579-0.151-1.329 0.429-1.673 0.579-0.343 1.329-0.151 1.673 0.429zM36.471 25.219l0.286 0.481c0.343 0.579 0.151 1.329-0.429 1.673-0.195 0.116-0.41 0.171-0.622 0.171-0.417 0-0.823-0.214-1.052-0.599l-0.286-0.482c-0.343-0.579-0.151-1.329 0.429-1.673 0.579-0.343 1.329-0.153 1.673 0.429zM27.042 19.136l-0.286-0.484c-0.343-0.579-0.151-1.329 0.429-1.673 0.579-0.343 1.329-0.153 1.673 0.429l0.286 0.482c0.343 0.579 0.151 1.329-0.429 1.673-0.195 0.116-0.41 0.171-0.622 0.171-0.417 0-0.823-0.214-1.052-0.598zM13.755 20.791c-0.581-0.342-0.778-1.089-0.437-1.671l0.283-0.484c0.341-0.583 1.087-0.778 1.671-0.437 0.581 0.341 0.778 1.088 0.437 1.671l-0.283 0.484c-0.227 0.388-0.635 0.605-1.055 0.605-0.209 0-0.421-0.054-0.616-0.167zM24.257 36.212l0.286 0.481c0.343 0.579 0.151 1.329-0.429 1.673-0.195 0.116-0.41 0.171-0.622 0.171-0.417 0-0.823-0.214-1.052-0.599l-0.286-0.482c-0.343-0.579-0.151-1.329 0.429-1.673 0.579-0.343 1.33-0.151 1.673 0.429zM16.133 43.695c0.65 0.177 1.033 0.85 0.855 1.501l-0.149 0.54c-0.149 0.542-0.641 0.898-1.177 0.898-0.108 0-0.216-0.015-0.325-0.044-0.65-0.178-1.032-0.851-0.854-1.501l0.149-0.54c0.178-0.651 0.85-1.036 1.501-0.854zM29.637 30.231c0.65 0.178 1.033 0.85 0.855 1.501l-0.149 0.54c-0.149 0.542-0.641 0.898-1.177 0.898-0.108 0-0.216-0.015-0.325-0.044-0.65-0.178-1.032-0.851-0.854-1.501l0.149-0.54c0.178-0.651 0.849-1.035 1.501-0.854zM44.443 30.772c0.65 0.177 1.032 0.85 0.854 1.501l-0.149 0.54c-0.149 0.542-0.641 0.898-1.177 0.898-0.106 0-0.215-0.015-0.324-0.044-0.65-0.178-1.032-0.851-0.854-1.501l0.149-0.54c0.178-0.651 0.851-1.032 1.501-0.854zM52.031 39.046c0.57-0.359 1.325-0.188 1.686 0.381 0.36 0.57 0.189 1.325-0.381 1.686l-0.474 0.299c-0.203 0.127-0.428 0.188-0.651 0.188-0.406 0-0.803-0.201-1.035-0.569-0.36-0.57-0.189-1.325 0.381-1.686zM61.304 47.563c0.674 0.016 1.208 0.575 1.192 1.25-0.016 0.664-0.558 1.193-1.22 1.193h-0.029l-0.559-0.013c-0.674-0.016-1.208-0.575-1.192-1.249s0.546-1.237 1.249-1.193zM67.057 37.116l0.331 0.452c0.397 0.545 0.277 1.309-0.268 1.706-0.216 0.157-0.469 0.235-0.718 0.235-0.377 0-0.75-0.173-0.988-0.501l-0.33-0.452c-0.398-0.545-0.279-1.309 0.266-1.706 0.545-0.398 1.309-0.276 1.706 0.266zM64.967 29.77c-0.396-0.545-0.276-1.308 0.269-1.705 0.546-0.396 1.309-0.276 1.706 0.27l0.33 0.453c0.397 0.545 0.277 1.308-0.269 1.705-0.216 0.156-0.468 0.233-0.717 0.233-0.379 0-0.75-0.173-0.989-0.503zM59.216 18.526c0.674 0.017 1.208 0.576 1.192 1.25-0.016 0.664-0.558 1.193-1.22 1.193h-0.029l-0.559-0.013c-0.674-0.016-1.208-0.575-1.192-1.249 0.016-0.675 0.58-1.219 1.25-1.193zM46.688 16.102c0.657 0.151 1.068 0.807 0.917 1.464l-0.126 0.546c-0.131 0.564-0.634 0.947-1.19 0.947-0.092 0-0.183-0.009-0.276-0.031-0.657-0.151-1.067-0.807-0.916-1.464l0.126-0.546c0.151-0.658 0.805-1.069 1.464-0.916zM68.072 22.565c3.511 5.079 4.724 11.060 3.413 16.845-0.756 3.344-2.205 6.434-4.298 9.204l2.471 2.471c0.875 0.857 1.364 2.012 1.37 3.242 0.005 1.231-0.473 2.39-1.345 3.262-0.934 0.934-2.144 1.399-3.345 1.399-1.176 0-2.345-0.443-3.242-1.324l-2.792-2.793c-4.143 2.576-8.874 3.949-13.76 3.949h-22.117c-4.252 0-8.425-1.124-12.132-3.259l-2.103 2.096c-0.299 0.305-0.646 0.545-1.009 0.752-0.674 0.385-1.431 0.612-2.232 0.616v0h-0.022c-1.221 0-2.372-0.476-3.238-1.344-0.463-0.463-0.81-0.992-1.042-1.555-0.698-1.688-0.366-3.674 0.967-5.033l1.624-1.629c-3.387-4.302-5.241-9.612-5.241-15.073 0-10.357 7.277-18.888 17.696-20.744 2.724-0.484 5.087-0.739 7.766-0.406 3.559 0.446 7.073 1.9 10.161 4.208l0.904 0.674 1.695-1.695c5.008-4.548 11.739-3.493 15.352-2.928 0.336 0.052 0.644 0.101 0.919 0.139 5.134 0.715 10.211 4.053 13.581 8.926zM2.443 34.391c0 4.814 1.62 9.488 4.553 13.317l3.496-3.503c-1.678-2.319-2.729-5.005-3.050-7.833-0.050-0.436-0.083-0.872-0.1-1.305-0.227-5.853 2.934-11.112 8.252-13.73 5.345-2.631 11.464-1.987 16.082 1.645l3.107-3.113-0.623-0.464c-2.749-2.054-5.863-3.348-9.003-3.741-2.086-0.26-3.992-0.156-7.034 0.386-9.233 1.645-15.68 9.187-15.68 18.34zM12.221 42.426l17.714-17.713c-2.235-1.676-4.867-2.534-7.543-2.534-1.927 0-3.878 0.445-5.719 1.351-4.44 2.184-7.079 6.569-6.891 11.441 0.015 0.371 0.044 0.747 0.087 1.126 0.257 2.268 1.064 4.431 2.352 6.329zM46.545 56.376c4.239 0 8.357-1.126 11.995-3.27l-3.433-3.435c-2.282 1.305-5.412 3.040-11.137 3.040h-15.878c-5.673 0-8.040-1.343-9.943-2.424-0.125-0.072-0.247-0.132-0.369-0.2l-3.685 3.676c3.189 1.711 6.73 2.613 10.333 2.613h22.117zM43.97 50.269c4.658 0 7.215-1.198 9.344-2.39l-16.668-16.67-17.063 17.082c1.688 0.953 3.7 1.977 8.509 1.977h15.878zM68.586 54.339c-0.002-0.573-0.232-1.113-0.645-1.518l-26.457-26.457-3.113 3.117 26.442 26.442c0.861 0.843 2.24 0.845 3.079 0.005 0.473-0.474 0.696-1.015 0.694-1.589zM43.231 24.656l17.036 17.037c1.031-1.727 1.704-3.63 1.926-5.595 0.044-0.387 0.073-0.771 0.087-1.153 0.225-6.070-3.861-10.454-8.009-12.108-4.051-1.615-8.091-0.91-11.040 1.819zM69.104 38.871c1.157-5.109 0.077-10.408-3.040-14.917-2.987-4.321-7.439-7.273-11.908-7.896-0.287-0.039-0.608-0.090-0.96-0.145-3.212-0.503-9.19-1.44-13.289 2.283l-34.553 34.616c-0.837 0.855-0.84 2.236-0.001 3.077 0.474 0.474 1.014 0.684 1.588 0.694 0.574-0.002 1.114-0.232 1.519-0.645l9.29-9.267 23.738-23.759c3.613-3.393 8.75-4.309 13.691-2.343 4.944 1.971 9.814 7.209 9.545 14.467-0.017 0.443-0.050 0.889-0.101 1.34-0.285 2.512-1.166 4.949-2.564 7.107l3.391 3.391c1.773-2.422 3.001-5.108 3.656-8.003z"></path>
</svg>
