<!-- Generated by IcoMoon.io -->
<svg version="1.1" xmlns="http://www.w3.org/2000/svg" width="72" height="72" viewBox="0 0 72 72">
<title>uniF185</title>
<path d="M54.463 3.564c11.242 3.044 16.974 8.848 17.541 17.75 0.003 9.94-8.016 17.959-17.874 17.959l-0.227-0.020c-3.501-0.609-7.018-1.016-10.539-1.265 0.073 0.324 0.121 0.655 0.108 0.997-0.166 4.392-0.058 15.142 4.529 20.117 0.256 0.268 2.856 3.076 2.41 6.339-0.267 1.954-1.519 3.592-3.719 4.869-0.55 0.317-1.196 0.485-1.87 0.485h-17.112c-0.676 0-1.322-0.168-1.87-0.485-2.202-1.277-3.454-2.915-3.72-4.87-0.459-3.357 2.309-6.233 2.427-6.354 4.57-4.943 4.678-15.705 4.512-20.101-0.015-0.354 0.037-0.696 0.117-1.030-3.699 0.243-7.394 0.66-11.072 1.3l-0.227 0.020c-9.857 0-17.876-8.019-17.876-17.875l0.012-0.174c1.066-8.071 6.93-14.002 17.431-17.63 12.177-3.183 24.942-3.179 37.021-0.031zM40.502 38.046c-0.105-0.109-0.23-0.192-0.363-0.251-2.57-0.102-5.143-0.101-7.714-0.012-0.149 0.058-0.284 0.145-0.398 0.263-0.218 0.225-0.33 0.524-0.318 0.838 0.223 5.869-0.162 16.536-5.24 22.029-0.042 0.044-2.009 2.11-1.72 4.178 0.154 1.097 0.968 2.080 2.422 2.923 0.142 0.084 0.333 0.129 0.539 0.129h17.112c0.204 0 0.397-0.045 0.54-0.129 1.455-0.845 2.271-1.832 2.421-2.932 0.281-2.055-1.675-4.122-1.695-4.142l-0.027-0.028c-5.079-5.492-5.463-16.159-5.24-22.029 0.012-0.314-0.101-0.612-0.317-0.837zM54.239 36.62c8.343-0.061 15.111-6.866 15.11-15.222-0.484-7.648-5.433-12.526-15.57-15.27-11.621-3.032-23.928-3.033-35.568 0.004-9.469 3.275-14.591 8.307-15.558 15.352 0.048 8.317 6.798 15.075 15.112 15.136 4.735-0.817 9.498-1.305 14.265-1.483 0.267-0.058 0.54-0.093 0.82-0.093h6.829c0.294 0 0.581 0.041 0.859 0.105 4.58 0.195 9.153 0.686 13.701 1.471zM33.849 8.365c0.733 0.008 1.323 0.608 1.314 1.338-0.009 0.732-0.635 1.296-1.34 1.313-2.903-0.032-5.693 0.147-8.316 0.524-0.064 0.009-0.127 0.013-0.19 0.013-0.649 0-1.216-0.476-1.312-1.138-0.103-0.724 0.401-1.397 1.126-1.501 2.755-0.395 5.682-0.582 8.717-0.549zM20.168 9.94c0.703-0.198 1.436 0.219 1.629 0.926 0.195 0.707-0.221 1.436-0.927 1.63-3.328 0.915-11.034 3.877-10.714 11.627 0.029 0.732-0.538 1.35-1.271 1.379-0.019 0.001-0.036 0.001-0.056 0.001-0.707 0-1.295-0.558-1.324-1.272-0.277-6.697 4.458-12.039 12.663-14.291z"></path>
</svg>
