<!-- Generated by IcoMoon.io -->
<svg version="1.1" xmlns="http://www.w3.org/2000/svg" width="72" height="72" viewBox="0 0 72 72">
<title>uniF179</title>
<path d="M72 18.767h-7.2v3.6h2.4v1.2c0 2.719-0.558 5.051-1.264 8-1.409 5.891-3.536 14.792-3.536 35.922v3.744l-2.176-3.047c-4.073-5.7-6.224-12.415-6.224-19.421v-26.4h1.2v-3.6h-14.4v4.8h4.8v2.123c0 20.855-2.353 30.016-7.297 41.551l-0.788 1.841-6.315-7.892v-42.421h-15.6v3.6h5.344c1.685 0 3.056 1.372 3.056 3.055v35.888c0 1.685-1.372 3.056-3.056 3.056h-17.344v-42h2.4v-3.6h-6v-12h6v-1.2c0-2.647 2.153-4.8 4.8-4.8s4.8 2.153 4.8 4.8v1.2h15.6v-1.2c0-2.647 2.153-4.8 4.8-4.8s4.8 2.153 4.8 4.8v1.2h14.4v-1.2c0-2.647 2.153-4.8 4.8-4.8s4.8 2.153 4.8 4.8v1.2h7.2v12zM69.6 9.167h-4.8v7.2h4.8v-7.2zM2.4 16.367h3.6v-7.2h-3.6v7.2zM21.6 25.422c0-0.361-0.294-0.655-0.656-0.655h-1.744v37.2h1.744c0.362 0 0.656-0.294 0.656-0.656v-35.888zM16.8 24.767h-10.8v37.2h10.8v-37.2zM13.2 22.367v-16.8c0-1.324-1.076-2.4-2.4-2.4s-2.4 1.076-2.4 2.4v16.8h4.8zM15.6 16.367h15.6v-7.2h-15.6v7.2zM43.2 25.967h-9.6v34.379l3.276 4.096c4.26-10.355 6.304-19.363 6.324-38.475zM38.4 23.567v-18c0-1.324-1.076-2.4-2.4-2.4s-2.4 1.076-2.4 2.4v18h4.8zM40.8 16.367h14.4v-7.2h-14.4v7.2zM63.602 31.010c0.578-2.422 1.024-4.282 1.157-6.244h-8.359v24c0 5.132 1.244 10.098 3.628 14.566 0.26-18.461 2.238-26.726 3.575-32.322zM62.4 22.367v-16.8c0-1.324-1.076-2.4-2.4-2.4s-2.4 1.076-2.4 2.4v16.8h4.8zM36 35.567c-0.664 0-1.2-0.538-1.2-1.2v-6c0-0.664 0.536-1.2 1.2-1.2s1.2 0.536 1.2 1.2v6c0 0.664-0.536 1.2-1.2 1.2zM58.8 35.567c-0.664 0-1.2-0.538-1.2-1.2v-6c0-0.664 0.536-1.2 1.2-1.2s1.2 0.536 1.2 1.2v6c0 0.664-0.536 1.2-1.2 1.2zM8.4 35.567c-0.664 0-1.2-0.538-1.2-1.2v-6c0-0.664 0.536-1.2 1.2-1.2s1.2 0.536 1.2 1.2v6c0 0.664-0.536 1.2-1.2 1.2z"></path>
</svg>
