<!-- Generated by IcoMoon.io -->
<svg version="1.1" xmlns="http://www.w3.org/2000/svg" width="72" height="72" viewBox="0 0 72 72">
<title>uniF1BD</title>
<path d="M67.928 26.085c0.721 5.325-0.482 11.048-3.388 16.117-5.304 9.256-8.266 16.278-8.128 19.267 0.043 0.91-0.037 1.706-0.246 2.43-1.513 5.225-4.658 8.101-8.854 8.101l-6.634-0.102c-0.417 0.062-0.839 0.102-1.273 0.102-1.465 0-2.835-0.664-3.859-1.869-0.737-0.868-1.224-1.953-1.441-3.113-0.005-0.029-0.013-0.057-0.017-0.087-0.065-0.369-0.101-0.742-0.108-1.121-0.001-0.067 0.001-0.134 0.001-0.201 0.002-0.385 0.025-0.771 0.088-1.157l0.395-2.694 1.186-8.085 1.274-8.694c-0.004-0.293-0.043-0.572-0.077-0.855-0.129-0.631-0.687-0.729-0.885-0.704-0.156 0.002-0.946 0.060-1.010 0.932-0.145 1.974 0.041 3.553 0.205 4.945 0.266 2.252 0.495 4.196-0.814 6.435-0.448 0.763-0.684 1.732-0.684 2.796v9.845c0 2-1.627 3.627-3.627 3.627l-5.388-0.015c-0.046 0.001-0.088 0.015-0.133 0.015-0.123 0-0.242-0.011-0.364-0.019h-0.185c-0.026-0.001-0.050-0.010-0.074-0.011-0.443-0.031-0.876-0.099-1.3-0.196-0.066-0.014-0.13-0.029-0.195-0.045-0.417-0.105-0.822-0.243-1.217-0.411-0.063-0.026-0.127-0.053-0.189-0.082-0.39-0.176-0.767-0.381-1.131-0.616-0.058-0.037-0.116-0.077-0.173-0.116-0.361-0.244-0.708-0.515-1.039-0.814-0.050-0.045-0.097-0.093-0.146-0.139-0.33-0.312-0.646-0.647-0.941-1.010-0.038-0.047-0.074-0.098-0.113-0.147-0.297-0.379-0.577-0.779-0.834-1.21-0.026-0.043-0.048-0.091-0.075-0.134-0.259-0.448-0.501-0.919-0.716-1.419-0.013-0.030-0.022-0.061-0.035-0.089-0.221-0.523-0.418-1.070-0.585-1.645-0.256-0.883-0.335-1.896-0.245-3.096 0.052-0.683-0.053-1.568-0.29-2.617l-0.13-0.51c-0.592-2.321-1.771-5.333-3.504-8.948l-0.407-0.849c-0.931-1.897-1.997-3.934-3.198-6.095-1.911-3.437-3.072-7.077-3.435-10.691l-0.072 0.036-0.032-1.61c-0.023-0.649-0.025-1.297 0.005-1.942 0-0.016 0.002-0.032 0.004-0.048 0.034-0.689 0.094-1.374 0.183-2.056 0.025-0.191 0.066-0.379 0.094-0.569 0.077-0.506 0.155-1.013 0.262-1.514 0.042-0.196 0.099-0.39 0.145-0.585 0.116-0.492 0.235-0.982 0.379-1.467 0.056-0.185 0.124-0.368 0.184-0.551 0.156-0.487 0.317-0.973 0.502-1.452 0.071-0.185 0.154-0.365 0.23-0.549 0.192-0.467 0.388-0.934 0.607-1.393 0.097-0.202 0.205-0.4 0.307-0.6 0.215-0.425 0.432-0.849 0.67-1.265 0.14-0.246 0.294-0.485 0.443-0.727 0.216-0.351 0.43-0.704 0.662-1.049 0.214-0.318 0.443-0.626 0.669-0.936 0.144-0.197 0.274-0.401 0.425-0.595l0.207-0.269 0.009-0.004c3.651-4.647 8.791-8.398 14.95-10.644 0.736-0.268 1.48-0.496 2.227-0.684 0.023-0.006 0.047-0.008 0.069-0.014 0.724-0.179 1.45-0.321 2.175-0.422 0.077-0.010 0.156-0.020 0.235-0.030l-0.040-0.128 1.688-0.026c0.166 0 0.366 0.002 0.581 0.007 0.067-0.001 0.135-0.007 0.202-0.007 0.113 0 0.227 0.009 0.342 0.019l0.134 0.010c2.655 0.088 13.204 0.709 16.291 2.107 0.481 0.216 0.955 0.452 1.423 0.703 10.029 5.388 16.509 13.86 17.78 23.247zM52.746 44.909c0.377-0.699 0.755-1.387 1.132-2.064-4.87 1.887-9.793 3.163-14.692 3.807l-0.669 4.563c4.758-1.1 9.536-3.217 14.229-6.306zM40.322 69.432c2.201-0.326 4.038-1.832 5.22-4.227-2.861 1.177-5.743 2.023-8.61 2.516 0.053 0.109 0.12 0.204 0.182 0.305 0.073 0.12 0.145 0.242 0.231 0.353 0.119 0.154 0.245 0.3 0.384 0.427v0c0.314 0.287 0.675 0.498 1.071 0.607zM46.483 61.585c-0.042-0.922 0.13-2.051 0.452-3.311-3.271 1.471-6.588 2.504-9.904 3.081l-0.509 3.478c-0.022 0.139-0.015 0.274-0.026 0.413 3.318-0.571 6.664-1.629 9.978-3.179 0.005-0.16 0.017-0.308 0.009-0.483zM47.981 55.027c0.7-1.857 1.598-3.863 2.588-5.889-4.11 2.281-8.276 3.86-12.436 4.712l-0.721 4.92c3.54-0.7 7.087-1.957 10.569-3.743zM35.581 37.388c0.117 0.077 0.23 0.161 0.34 0.245 0.093 0.069 0.186 0.138 0.277 0.212 0.118 0.098 0.232 0.201 0.346 0.306 0.078 0.072 0.155 0.144 0.231 0.22 0.114 0.116 0.225 0.235 0.333 0.358 0.069 0.078 0.138 0.159 0.205 0.241 0.053 0.066 0.113 0.125 0.165 0.194 0.448-0.782 0.685-1.65 0.685-2.544 0-3.080-2.785-5.586-6.207-5.586s-6.207 2.506-6.207 5.586c0 0.894 0.238 1.763 0.685 2.544 0.052-0.067 0.11-0.127 0.164-0.193 0.068-0.084 0.138-0.165 0.209-0.246 0.107-0.12 0.215-0.237 0.326-0.35 0.078-0.079 0.159-0.154 0.241-0.23 0.11-0.103 0.221-0.204 0.336-0.298 0.094-0.078 0.191-0.149 0.289-0.222 0.109-0.081 0.217-0.161 0.329-0.236 0.114-0.076 0.233-0.144 0.351-0.212 0.103-0.059 0.204-0.123 0.309-0.176 0.135-0.069 0.276-0.129 0.415-0.189 0.094-0.041 0.187-0.087 0.284-0.123 0.151-0.057 0.305-0.101 0.461-0.147 0.092-0.027 0.181-0.060 0.274-0.083 0.151-0.037 0.305-0.061 0.459-0.087 0.102-0.017 0.201-0.042 0.304-0.055 0.122-0.015 0.247-0.016 0.37-0.024 0.133-0.009 0.266-0.025 0.4-0.025s0.267 0.016 0.4 0.025c0.124 0.009 0.248 0.009 0.37 0.024 0.103 0.012 0.204 0.037 0.305 0.055 0.153 0.026 0.306 0.050 0.457 0.087 0.094 0.022 0.186 0.057 0.279 0.084 0.153 0.045 0.307 0.089 0.456 0.145 0.099 0.037 0.195 0.084 0.293 0.127 0.136 0.060 0.273 0.117 0.406 0.185 0.109 0.056 0.214 0.12 0.32 0.183 0.114 0.067 0.228 0.132 0.339 0.205zM24.794 69.466l0.329-0.043c0.498-0.14 0.965-0.443 1.352-0.899 0.132-0.154 0.23-0.334 0.335-0.509-2.632-0.287-5.24-0.832-7.791-1.686 1.353 2.025 3.269 3.188 5.491 3.188 0.134-0.027 0.207-0.041 0.284-0.051zM11.136 43.422c0.669 1.266 1.336 2.571 1.973 3.883 2.835 1.624 7.112 3.555 12.368 4.39l-0.721-4.941c-4.67-0.557-9.233-1.673-13.619-3.332zM25.845 54.276c-3.758-0.515-7.514-1.639-11.061-3.298 0.827 1.933 1.522 3.8 1.995 5.491 0.001 0.002 0.002 0.008 0.002 0.008 3.177 1.39 6.458 2.3 9.783 2.714zM26.939 61.721c-3.241-0.341-6.445-1.121-9.564-2.325 0.063 0.571 0.089 1.111 0.053 1.593-0.065 0.863-0.014 1.557 0.14 2.136 3.205 1.316 6.517 2.134 9.872 2.463-0.004-0.245-0.005-0.488-0.045-0.734zM9 17.906c-0.084 0.166-0.175 0.332-0.254 0.499-0.067 0.139-0.122 0.283-0.186 0.423 8.013-3.445 15.468-4.874 22.157-5.049v-3.802c-5.864 0.159-12.332 1.295-19.275 4.018-0.108 0.144-0.217 0.287-0.322 0.432-0.177 0.247-0.353 0.494-0.52 0.745-0.211 0.315-0.412 0.637-0.61 0.96-0.125 0.205-0.252 0.408-0.371 0.616-0.218 0.381-0.422 0.769-0.62 1.158zM33.199 16.268h0.001v4.881c11.071 0.217 19.773 3.713 24.927 6.456-0.030-0.395-0.053-0.791-0.105-1.18-0.001-0.002-0.001-0.009-0.001-0.009-0.075-0.544-0.168-1.084-0.279-1.62-0.029-0.138-0.069-0.273-0.101-0.411-0.091-0.399-0.183-0.797-0.294-1.191-0.032-0.11-0.072-0.22-0.105-0.33-0.027-0.092-0.060-0.183-0.088-0.273-5.255-2.837-13.537-6.115-23.954-6.324zM33.199 13.777c9.345 0.18 17.064 2.726 22.552 5.325-0.857-1.737-1.919-3.424-3.211-5.046-5.004-2.092-11.585-3.934-19.341-4.090v3.811zM6.497 26.266c-0.031 0.282-0.056 0.565-0.074 0.848 8.828-4.144 17.021-5.765 24.295-5.947v-4.896c-7.005 0.191-14.888 1.817-23.395 5.838-0.16 0.544-0.307 1.091-0.428 1.645-0.031 0.14-0.050 0.283-0.078 0.423-0.093 0.463-0.179 0.927-0.243 1.397-0.032 0.23-0.051 0.462-0.076 0.693zM55.767 39.387c1.394-2.878 2.199-5.925 2.381-8.932-4.692-2.674-13.479-6.586-24.949-6.819v5.008c4.203 0.562 7.448 3.92 7.448 7.977 0 1.817-0.653 3.552-1.851 4.969 0.261 0.71 0.437 1.47 0.53 2.26 0.005 0.035 0.017 0.068 0.021 0.104 0.004 0.030 0.002 0.061 0.005 0.091 0.002 0.027 0.007 0.052 0.010 0.079 5.472-0.77 10.981-2.357 16.405-4.738zM33.199 7.476c5.883 0.114 11.112 1.157 15.546 2.56-2.107-1.869-4.519-3.559-7.217-5.009-0.42-0.226-0.844-0.436-1.274-0.629-2.342-1.060-4.752-1.668-7.055-1.839v4.917zM25.671 3.636c-4.165 1.518-7.822 3.774-10.808 6.544 5.641-1.765 10.95-2.565 15.853-2.691v-4.937c-0.356 0.025-0.714 0.044-1.070 0.091-0.005 0-0.011 0.001-0.016 0.001h-0.001c-1.318 0.183-2.65 0.515-3.958 0.992zM6.396 29.891c0.192 3.385 1.177 6.828 2.897 10.102 4.863 2.138 9.985 3.558 15.252 4.233 0.074-0.928 0.273-1.815 0.573-2.638-1.198-1.416-1.851-3.151-1.851-4.968 0-4.057 3.245-7.415 7.448-7.977v-4.995c-7.248 0.191-15.461 1.899-24.32 6.243zM32.476 44.171c0.147-1.99 1.695-3.089 3.224-3.213-0.023-0.034-0.045-0.070-0.068-0.103-0.13-0.183-0.267-0.354-0.411-0.515-0.117-0.13-0.236-0.259-0.362-0.376-0.108-0.099-0.221-0.191-0.334-0.279-0.139-0.108-0.282-0.204-0.43-0.294-0.115-0.072-0.23-0.142-0.348-0.201-0.22-0.109-0.446-0.197-0.678-0.266-0.082-0.025-0.164-0.045-0.247-0.063-0.282-0.063-0.569-0.111-0.864-0.111-0.297 0-0.582 0.047-0.864 0.111-0.083 0.020-0.166 0.040-0.25 0.065-0.228 0.068-0.451 0.156-0.667 0.262-0.125 0.062-0.246 0.137-0.366 0.211-0.141 0.087-0.279 0.18-0.413 0.283-0.117 0.092-0.232 0.186-0.344 0.289-0.115 0.108-0.225 0.227-0.333 0.346-0.159 0.175-0.309 0.364-0.451 0.565-0.094 0.134-0.187 0.268-0.272 0.412-0.082 0.138-0.158 0.279-0.231 0.426-0.472 0.95-0.761 2.059-0.775 3.259l0.303 2.055h-0.002l0.733 4.996 1.824 12.445c0.292 1.779-0.089 3.615-1.025 5.044h1.207c0.632 0 1.145-0.513 1.145-1.144v-9.845c0-1.506 0.354-2.906 1.023-4.049 0.889-1.521 0.731-2.86 0.492-4.89-0.169-1.429-0.379-3.207-0.215-5.417zM62.387 40.967c2.634-4.596 3.729-9.762 3.081-14.549-1.162-8.588-7.174-16.385-16.492-21.39-0.418-0.223-0.843-0.435-1.274-0.629-0.698-0.315-2.082-0.611-3.791-0.87 6.717 3.888 11.709 9.2 14.436 15.231 0.031 0.069 0.066 0.138 0.097 0.207 0.194 0.438 0.37 0.881 0.54 1.327 0.060 0.153 0.124 0.305 0.18 0.459 0.136 0.38 0.256 0.764 0.375 1.148 0.066 0.209 0.138 0.415 0.197 0.623 0.108 0.381 0.195 0.766 0.286 1.151 0.048 0.207 0.107 0.412 0.15 0.621 0.123 0.593 0.227 1.191 0.309 1.791 0.080 0.595 0.134 1.203 0.164 1.831 0.031 0.579 0.031 1.159 0.019 1.743-0.001 0.046 0.002 0.087 0.001 0.133l-0.001 0.045c-0.005 0.148-0.005 0.296-0.013 0.444l-0.042 1.623-0.089-0.052c-0.397 3.534-1.552 7.078-3.427 10.351-0.847 1.478-1.63 2.9-2.359 4.268-0.469 0.88-0.909 1.729-1.323 2.551-0.076 0.148-0.148 0.295-0.221 0.442-0.359 0.721-0.698 1.418-1.013 2.089-0.129 0.277-0.248 0.542-0.371 0.811-0.18 0.393-0.348 0.775-0.511 1.15-0.2 0.459-0.388 0.906-0.564 1.338-0.122 0.298-0.238 0.592-0.348 0.876-0.974 2.537-1.476 4.514-1.419 5.741 0.043 0.909-0.037 1.705-0.246 2.428-0.67 2.314-1.799 4.216-3.24 5.597l1.851 0.022c3.82 0 5.619-3.431 6.45-6.31 0.132-0.457 0.181-0.987 0.151-1.623-0.207-4.485 4.484-13.687 8.456-20.618z"></path>
</svg>
