<!-- Generated by IcoMoon.io -->
<svg version="1.1" xmlns="http://www.w3.org/2000/svg" width="72" height="72" viewBox="0 0 72 72">
<title>uniF1C9</title>
<path d="M17.842 61.804l14.899-14.9c0.487-0.487 1.274-0.487 1.761 0s0.487 1.274 0 1.761l-14.899 14.9c-0.243 0.243-0.562 0.365-0.881 0.365s-0.638-0.122-0.881-0.365c-0.487-0.487-0.487-1.274 0-1.761zM13.437 59.161c-0.486-0.486-0.486-1.274 0-1.761l17.391-17.391c0.487-0.487 1.274-0.487 1.761 0s0.487 1.274 0 1.761l-17.391 17.391c-0.243 0.243-0.562 0.365-0.881 0.365s-0.638-0.122-0.881-0.365zM25.694 38.096c0.487 0.487 0.487 1.274 0 1.761l-14.899 14.9c-0.243 0.243-0.562 0.365-0.881 0.365s-0.638-0.122-0.881-0.365c-0.487-0.487-0.487-1.274 0-1.761l14.899-14.9c0.487-0.487 1.274-0.487 1.761 0zM63.873 4.238c0.487 0.487 0.487 1.277-0.001 1.761l-2.902 2.902c-0.244 0.243-0.563 0.365-0.882 0.365s-0.638-0.122-0.881-0.365c-0.486-0.486-0.486-1.274 0-1.761l2.904-2.902c0.487-0.487 1.276-0.487 1.763 0zM57.839 12.033l-8.239 8.239c-0.243 0.243-0.562 0.365-0.881 0.365s-0.638-0.122-0.881-0.365c-0.487-0.487-0.487-1.274 0-1.761l8.239-8.239c0.487-0.487 1.274-0.487 1.761 0s0.487 1.274 0 1.761zM52.085 21.312c0.486-0.485 1.274-0.483 1.761 0.001 0.486 0.488 0.486 1.276-0.001 1.763l-2.946 2.946c-0.244 0.243-0.563 0.365-0.882 0.365s-0.638-0.122-0.881-0.365c-0.486-0.486-0.486-1.274 0-1.761zM61.611 11.784c0.487-0.487 1.274-0.487 1.761 0s0.487 1.274 0 1.761l-6.005 6.005c-0.243 0.243-0.562 0.365-0.881 0.365s-0.638-0.122-0.881-0.365c-0.487-0.487-0.487-1.274 0-1.761zM65.895 7.5c0.486-0.486 1.274-0.487 1.761 0s0.487 1.274 0 1.761l-1.481 1.481c-0.243 0.243-0.562 0.365-0.881 0.365s-0.638-0.122-0.881-0.365c-0.487-0.487-0.487-1.274 0-1.761zM71.634 8.244l0.013 0.353-0.173 0.308c-9.677 17.128-22.566 22.815-23.111 23.050l-0.225 0.096-0.244 0.005h-0.073c-1.57 0-3.057-0.868-4.090-1.649l-6.698 6.698 4.405 4.405c0.959 0.959 1.169 2.456 0.509 3.643l-1.059 1.907c-0.506 0.909-0.967 1.864-1.456 2.874-1.206 2.489-2.451 5.062-4.431 7.043l-13.462 13.462c-1.008 1.009-2.347 1.563-3.772 1.563s-2.764-0.556-3.772-1.563l-12.083-12.082c-2.079-2.080-2.079-5.465 0-7.545l13.463-13.461c1.967-1.968 4.532-3.196 7.012-4.386 1.033-0.495 2.007-0.962 2.93-1.475l1.91-1.060c1.183-0.659 2.682-0.451 3.641 0.509v0l4.403 4.403 6.639-6.639c-2.147-2.419-2.322-4.633-2.332-4.892l-0.013-0.353 0.173-0.308c9.678-17.126 22.566-22.815 23.111-23.049l0.225-0.096 0.245-0.005h0.071c2.684 0 5.174 2.547 5.451 2.84 2.612 2.612 2.78 5.126 2.791 5.404zM39.769 43.94c0.122-0.218 0.084-0.495-0.093-0.673l-10.569-10.569c-0.108-0.107-0.254-0.164-0.4-0.164-0.093 0-0.187 0.024-0.271 0.071l-1.91 1.060c-0.988 0.549-2.043 1.054-3.062 1.543-2.292 1.099-4.661 2.235-6.328 3.901l-13.462 13.462c-1.109 1.109-1.109 2.914 0 4.022l12.083 12.082c1.075 1.075 2.948 1.076 4.022 0l13.462-13.463c1.682-1.682 2.834-4.063 3.949-6.367 0.483-0.998 0.981-2.028 1.521-2.997zM47.618 29.554c1.773-0.852 12.972-6.679 21.481-21.512-0.115-0.561-0.497-1.801-1.765-3.176l-0.295-0.308c-0.529-0.549-2.12-1.925-3.443-2.056-1.774 0.852-12.973 6.679-21.481 21.515 0.011 0.052 0.026 0.116 0.042 0.179l2.881-2.881c0.487-0.487 1.274-0.487 1.761 0s0.487 1.274 0 1.761l-3.244 3.244c-0.075 0.075-0.167 0.116-0.254 0.168 0.171 0.229 0.356 0.463 0.578 0.704l0.295 0.308c0.529 0.549 2.12 1.923 3.443 2.055z"></path>
</svg>
