<!-- Generated by IcoMoon.io -->
<svg version="1.1" xmlns="http://www.w3.org/2000/svg" width="72" height="72" viewBox="0 0 72 72">
<title>uniF1D0</title>
<path d="M58.618 20.171c2.464 3.273 3.666 7.899 3.667 14.061 0 16.669-16.298 37.768-26.285 37.768s-26.285-21.1-26.282-37.766c0-6.009 1.142-10.556 3.482-13.812-0.431-0.106-0.863-0.225-1.297-0.354-0.353-0.106-0.638-0.365-0.779-0.705-0.076-0.183-0.096-0.378-0.079-0.57 0-0.201 0.038-0.402 0.137-0.582 2.050-3.75 5.776-6.165 11.345-7.348-0.722-0.979-1.263-2.046-1.607-3.197-0.049-0.163-0.057-0.328-0.039-0.488 0.015-0.483 0.305-0.93 0.782-1.107 4.375-1.628 7.074-0.995 8.586-0.155l-0.849-2.53c-0.105-0.315-0.078-0.659 0.076-0.953 0.155-0.295 0.421-0.514 0.741-0.606l6.102-1.777c0.352-0.102 0.73-0.041 1.031 0.165s0.494 0.538 0.526 0.902l0.328 3.84c0.697 0.211 1.269 0.549 1.677 1.015 1.491-0.868 4.216-1.567 8.691 0.099 0.477 0.177 0.768 0.624 0.782 1.107 0.018 0.16 0.010 0.325-0.039 0.488-0.328 1.096-0.844 2.123-1.536 3.077 5.628 1.187 9.624 3.677 11.89 7.421 0.11 0.183 0.155 0.388 0.161 0.597 0.022 0.194 0.005 0.391-0.067 0.577-0.135 0.352-0.426 0.622-0.788 0.73-0.119 0.035-0.237 0.070-0.355 0.104zM14.26 18.076c10.032 2.458 13.101-2.028 13.236-2.231 0.229-0.353 0.622-0.56 1.031-0.56 0.096 0 0.193 0.011 0.289 0.035 0.504 0.126 0.879 0.549 0.926 1.066 0.613 6.627 5.219 9.106 6.875 9.79 1.656-0.683 6.263-3.163 6.876-9.79 0.055-0.597 0.537-1.065 1.135-1.106 0.614-0.040 1.137 0.363 1.27 0.947 0.005 0.017 0.287 0.998 1.619 1.738 1.383 0.768 4.053 1.356 9.028 0.131-2.341-2.771-6.085-4.493-11.387-5.235-0.469-0.065-0.858-0.395-0.997-0.848-0.041-0.132-0.052-0.267-0.048-0.4-0.018-0.36 0.117-0.716 0.392-0.965 0.864-0.786 1.528-1.655 1.994-2.592-4.563-1.317-6.015 0.592-6.080 0.681-0.301 0.415-0.838 0.61-1.331 0.473-0.212-0.060-0.401-0.173-0.55-0.322l0.315 3.683c0.052 0.614-0.362 1.172-0.967 1.298l-3.584 0.749c-0.083 0.017-0.167 0.026-0.25 0.026-0.049 0-0.094-0.017-0.14-0.023-0.028-0.002-0.059 0.006-0.087 0.001-0.021-0.004-0.038-0.018-0.059-0.023-0.111-0.028-0.215-0.071-0.314-0.128-0.023-0.013-0.050-0.015-0.072-0.029-0.006-0.004-0.010-0.011-0.016-0.015-0.212-0.146-0.381-0.356-0.469-0.616l-1.379-4.111-0.183-0.544c-0.067 0.032-0.138 0.057-0.212 0.076-0.508 0.13-1.042-0.081-1.327-0.52-0.049-0.066-1.5-1.973-6.067-0.654 0.483 0.99 1.178 1.893 2.082 2.693 0.279 0.248 0.42 0.606 0.404 0.969 0.006 0.133-0.005 0.267-0.044 0.399-0.137 0.455-0.526 0.79-0.997 0.857-5.195 0.735-8.783 2.412-10.913 5.101zM35.568 2.808l-3.451 1.003 0.949 2.832v0.001l1.799 5.362 1.464-0.305-0.483-5.635v-0.002zM36 69.559c8.633 0 23.843-20.424 23.845-35.328 0-6.252-1.309-10.663-3.967-13.497-4.138 0.844-7.397 0.62-9.681-0.713-0.295-0.172-0.559-0.354-0.794-0.539-1.815 6.532-7.201 8.739-8.386 9.151-0.131 0.045-0.266 0.068-0.401 0.068-0.137 0-0.272-0.023-0.402-0.068-1.214-0.422-6.836-2.73-8.512-9.638-1.945 1.407-5.598 2.925-11.741 1.915-2.549 2.837-3.805 7.191-3.805 13.321 0 14.904 15.212 35.328 23.844 35.328zM21.355 26.447c0.148-0.477 0.823-0.477 0.971 0 0 0 1.85 6.46 1.85 7.084 0 0.625-0.243 1.211-0.685 1.652-0.441 0.442-1.027 0.685-1.651 0.685s-1.211-0.243-1.651-0.685c-0.442-0.442-0.685-1.029-0.685-1.652s1.85-7.084 1.85-7.084zM35.789 31.328c0.148-0.477 0.824-0.477 0.971 0 0 0 1.85 6.461 1.85 7.084 0 0.625-0.243 1.211-0.685 1.652-0.44 0.442-1.027 0.685-1.651 0.685s-1.211-0.243-1.651-0.685c-0.442-0.442-0.685-1.029-0.685-1.652s1.85-7.084 1.85-7.084zM50.394 26.433c0 0 1.85 6.459 1.85 7.084s-0.243 1.211-0.685 1.652c-0.441 0.442-1.028 0.685-1.651 0.685s-1.211-0.243-1.651-0.685c-0.442-0.442-0.685-1.029-0.685-1.652s1.85-7.084 1.85-7.084c0.148-0.477 0.822-0.477 0.971 0zM27.247 42.326c0.148-0.477 0.824-0.477 0.971 0 0 0 1.85 6.461 1.85 7.084 0 0.625-0.243 1.211-0.685 1.652-0.441 0.442-1.027 0.685-1.651 0.685s-1.211-0.243-1.651-0.685c-0.442-0.442-0.685-1.029-0.685-1.652s1.85-7.084 1.85-7.084zM35.789 53.28c0.148-0.477 0.824-0.477 0.971 0 0 0 1.85 6.461 1.85 7.084 0 0.625-0.243 1.211-0.685 1.652-0.44 0.442-1.027 0.685-1.651 0.685s-1.211-0.243-1.651-0.685c-0.442-0.442-0.685-1.029-0.685-1.652s1.85-7.084 1.85-7.084zM44.331 42.312c0.148-0.477 0.824-0.477 0.971 0 0 0 1.85 6.46 1.85 7.084 0 0.625-0.243 1.211-0.685 1.652-0.441 0.442-1.027 0.685-1.651 0.685s-1.211-0.243-1.651-0.685c-0.442-0.442-0.685-1.029-0.685-1.652s1.85-7.084 1.85-7.084z"></path>
</svg>
