<!-- Generated by IcoMoon.io -->
<svg version="1.1" xmlns="http://www.w3.org/2000/svg" width="72" height="72" viewBox="0 0 72 72">
<title>uniF174</title>
<path d="M71.346 52.363v7.856h-7.855v11.782h-47.128v-12.929c0-1.739-0.721-3.417-1.979-4.605-3.794-3.579-10.787-10.456-10.858-10.525-2.003-2.003-3.039-4.772-2.851-7.605 0.187-2.824 1.584-5.434 3.836-7.158 3.452-2.644 8.293-2.565 11.853 0.014v-5.63c0-12.82 10.428-23.389 23.246-23.561 6.175-0.067 12.045 2.329 16.567 6.789 4.65 4.585 7.315 10.917 7.315 17.373v28.2h7.855zM60.872 69.382v-5.237h-41.892v5.237h41.892zM60.872 61.527h-0.001v-37.364c0-5.76-2.381-11.413-6.535-15.51-4.019-3.965-9.263-6.133-14.693-6.034-11.393 0.152-20.663 9.547-20.663 20.943v7.235c0 0.153-0.030 0.3-0.066 0.444l3.859 3.499c0.535 0.486 0.575 1.314 0.090 1.85-0.259 0.285-0.614 0.429-0.97 0.429-0.314 0-0.63-0.113-0.88-0.339l-4.574-4.147c-0.241-0.094-0.471-0.219-0.662-0.41-2.673-2.672-6.832-3.046-9.676-0.868-1.677 1.286-2.677 3.151-2.815 5.252-0.137 2.080 0.622 4.112 2.082 5.573 0.063 0.062 7.038 6.919 10.812 10.481 1.78 1.681 2.8 4.054 2.8 6.509v2.456h41.892zM68.727 57.6v-2.618h-5.236v2.618h5.236zM36.925 47.51l-1.851 1.851-2.347-2.347-2.347 2.347-1.851-1.851 2.347-2.347-2.347-2.347 1.851-1.851 2.347 2.347 2.347-2.347 1.851 1.851-2.346 2.347zM49.474 49.361l-2.347-2.347-2.347 2.347-1.851-1.851 2.347-2.347-2.347-2.347 1.851-1.851 2.347 2.347 2.347-2.347 1.851 1.851-2.346 2.347 2.346 2.347zM29.837 51.438l1.851 1.851-2.346 2.347 2.346 2.347-1.851 1.851-2.347-2.347-2.347 2.347-1.851-1.851 2.347-2.347-2.347-2.347 1.851-1.851 2.347 2.347zM42.929 51.438l1.851 1.851-2.346 2.347 2.346 2.347-1.851 1.851-2.347-2.347-2.347 2.347-1.851-1.851 2.347-2.347-2.347-2.347 1.851-1.851 2.347 2.347zM56.020 51.438l1.851 1.851-2.346 2.347 2.346 2.347-1.851 1.851-2.347-2.347-2.347 2.347-1.851-1.851 2.347-2.347-2.347-2.347 1.851-1.851 2.347 2.347z"></path>
</svg>
