<!-- Generated by IcoMoon.io -->
<svg version="1.1" xmlns="http://www.w3.org/2000/svg" width="72" height="72" viewBox="0 0 72 72">
<title>UTIL</title>
<path d="M65.598 22.962c-2.517 2.509-5.032 5.018-7.548 7.527-1.297 1.293-2.593 2.585-3.889 3.878-2.9 2.892-6.208-0.744-8.217-2.752-1.996-1.996-5.655-5.318-2.768-8.202 1.227-1.225 2.452-2.45 3.679-3.675 2.624-2.621 5.248-5.241 7.872-7.862-0.707 0-1.414 0-2.121 0 4.33 4.403 8.661 8.805 12.991 13.208 1.358 1.381 3.479-0.741 2.121-2.121-4.33-4.403-8.661-8.805-12.991-13.208-0.573-0.583-1.547-0.574-2.121 0-3.538 3.533-7.075 7.066-10.612 10.6-4.355 4.351-2.853 8.701 1.143 12.695 3.707 3.707 8.522 8.050 13.396 3.189 3.729-3.718 7.457-7.437 11.186-11.155 1.371-1.368-0.75-3.489-2.121-2.122v0zM43.159 31.239c-9.699 9.678-19.398 19.355-29.097 29.033-1.371 1.367 0.75 3.488 2.121 2.121 9.699-9.678 19.398-19.355 29.097-29.033 1.371-1.367-0.751-3.488-2.121-2.121v0zM22.918 15.9c3.727 4.013 5.705 10.251 1.627 14.758-4.065 4.492-11.11 1.716-14.753-1.692-3.994-3.737-5.513-10.463-1.625-14.758 4.069-4.493 11.106-1.721 14.751 1.692 1.41 1.321 3.536-0.796 2.121-2.121-5.261-4.926-13.208-6.89-18.993-1.692-5.772 5.186-2.853 14.177 1.625 19 4.898 5.277 13.482 6.64 18.995 1.692 5.775-5.182 2.85-14.181-1.627-19-1.319-1.421-3.435 0.706-2.121 2.121zM25.116 33.221c9.9 9.94 19.802 19.881 29.702 29.821 1.366 1.372 3.487-0.749 2.121-2.121-9.9-9.94-19.801-19.881-29.702-29.821-1.366-1.372-3.487 0.749-2.121 2.121v0zM9.433 17.475c4.033 4.049 8.065 8.099 12.098 12.148 1.366 1.372 3.487-0.75 2.121-2.121-4.033-4.049-8.065-8.099-12.098-12.148-1.366-1.372-3.488 0.75-2.121 2.121v0zM14.063 16.909c2.576 2.56 5.152 5.119 7.729 7.679 1.373 1.365 3.495-0.756 2.121-2.121-2.576-2.56-5.152-5.119-7.729-7.679-1.373-1.365-3.496 0.756-2.121 2.121v0zM8.628 22.25c2.563 2.573 5.126 5.146 7.689 7.72 1.366 1.371 3.487-0.75 2.121-2.122-2.563-2.573-5.126-5.146-7.689-7.719-1.366-1.372-3.487 0.749-2.121 2.121v0z"></path>
</svg>
