<?xml version="1.0" encoding="utf-8"?>
<!-- Generator: Adobe Illustrator 19.0.0, SVG Export Plug-In . SVG Version: 6.00 Build 0)  -->
<svg version="1.1" id="Layer_1" xmlns="http://www.w3.org/2000/svg" xmlns:xlink="http://www.w3.org/1999/xlink" x="0px" y="0px"
	 viewBox="-252.3 376.3 39.2 39.3" style="enable-background:new -252.3 376.3 39.2 39.3;" xml:space="preserve">
<style type="text/css">
	.st0{fill:#9A3D58;}
</style>
<g>
	<g>
		<path class="st0" d="M-236.9,389.8c0.5-2.3,1.4-9.1,5.2-7.5c2,0.8,3.7,5.9,4,7.8c0.1,0.6,0.8,1.2,1.4,1.1c1.8-0.2,7.1-1.2,8.4,0.1
			c2.5,2.6-3.1,7.4-5.1,8.5c-0.6,0.3-0.8,1-0.7,1.7c0.4,2.1,1.2,5,0.7,7.1c-1,4.7-7.2-0.5-8.9-2.8c-0.6-0.8-1.6-1-2.4-0.3
			c-1.6,1.6-4,4.3-6.3,4.7c-3.8,0.8-2.5-7-1.5-9.3c0.3-0.6,0.3-1.4-0.2-1.8c-1.7-1.4-5.6-4.4-6-6.6c-0.7-3.8,7.2-1.9,9.7-1.6
			c1.9,0.2,1.9-2.8,0-3c-3.3-0.4-12.2-2.5-13.2,2.6c-0.8,4,4.8,8.5,7.4,10.7c-0.1-0.6-0.2-1.2-0.2-1.8c-1.5,3.3-3,11.7,1.1,13.9
			c3.7,2,8.9-3.4,11.3-5.7c-0.8-0.1-1.6-0.2-2.4-0.3c2.1,3,8.7,8.7,12.6,6c3.4-2.4,1.7-9.3,1-12.6c-0.2,0.6-0.5,1.1-0.7,1.7
			c3.2-1.8,8.5-7,7.4-11.2c-1.3-4.5-8.9-3.4-12.2-3c0.5,0.4,1,0.7,1.4,1.1c-0.6-3.6-3.7-10.5-7.9-11c-4.9-0.6-6.3,7.3-7.1,10.7
			C-240.2,390.9-237.3,391.7-236.9,389.8L-236.9,389.8z"/>
		<path class="st0" d="M-239.8,392.3c-1.8,1.9-1.4,3.3-0.5,5.6c0.9,2.4-0.7,5.2,1.7,7.2c0.8,0.7,1.9,0.9,2.9,0.8
			c1.1-0.2,1.7-1,2.7-1.3c1.5-0.5,3.2,0.5,4.8,0.3c1.1-0.2,2.2-0.6,2.9-1.5c2-2.2,0-3.7,0.1-5.9c0-2.2,0.6-4.3-1.5-5.9
			c-0.7-0.6-1.6-0.8-2.5-0.8c-1.5,0-2.4,0-3.8-0.5c-2.7-0.9-4.2,0.7-6.5,1.9c-1.7,0.9-0.2,3.5,1.5,2.6c0.6-0.3,1.3-0.6,1.9-0.9
			c1.3-0.6,1.4-0.8,2.8-0.5c1,0.2,1.7,0.5,2.8,0.5c1,0,2.1-0.1,2.5,1.1c0.4,1-0.2,1.7-0.3,2.5c-0.2,1.2,0.5,1.6,0.7,2.7
			c0.5,2.7-2.8,1.3-4.4,1.2c-1.3-0.1-1.8,0.6-2.9,0.9c-3.1,0.8-1.8-2.3-2-3.7c-0.2-1.3-2-2.7-0.8-4
			C-236.4,393-238.5,390.9-239.8,392.3z"/>
		<path class="st0" d="M-232.1,399.5c0.5-0.7,1-1.4,1.4-2.2c0.3-0.7,0.2-1.6-0.5-2.1c-0.7-0.4-1.7-0.2-2.1,0.5
			c-0.4,0.8-0.9,1.5-1.4,2.2c-0.5,0.7-0.1,1.7,0.5,2.1C-233.4,400.5-232.6,400.1-232.1,399.5L-232.1,399.5z"/>
		<path class="st0" d="M-235.2,397.6c1,0.9,2.2,1.6,3.3,2.4c0.6,0.5,1.7,0.1,2.1-0.5c0.5-0.8,0.1-1.6-0.5-2.1
			c-0.9-0.7-1.9-1.2-2.7-1.9C-234.5,394.2-236.6,396.3-235.2,397.6L-235.2,397.6z"/>
		<path class="st0" d="M-234.3,396.2c0.1,0.4,0.1,0.7,0.3,1.1c0.3,0.8,1,1.3,1.8,1c0.7-0.2,1.3-1.1,1-1.8c-0.1-0.4-0.2-0.7-0.3-1.1
			c-0.2-0.8-1.1-1.3-1.8-1C-234.1,394.5-234.4,395.4-234.3,396.2L-234.3,396.2z"/>
	</g>
</g>
</svg>
