<!-- Generated by IcoMoon.io -->
<svg version="1.1" xmlns="http://www.w3.org/2000/svg" width="72" height="72" viewBox="0 0 72 72">
<title>VANILLA</title>
<path d="M28.214 24.733c0.916-4.214 2.565-16.672 9.527-13.74 3.664 1.466 6.779 10.809 7.328 14.29 0.183 1.099 1.466 2.198 2.565 2.015 3.298-0.366 13.008-2.198 15.389 0.183 4.58 4.763-5.679 13.557-9.343 15.573-1.099 0.55-1.466 1.832-1.282 3.114 0.733 3.847 2.198 9.16 1.282 13.008-1.832 8.611-13.191-0.916-16.305-5.13-1.099-1.466-2.931-1.832-4.397-0.55-2.931 2.931-7.328 7.878-11.542 8.611-6.962 1.466-4.58-12.824-2.748-17.038 0.55-1.099 0.55-2.565-0.366-3.298-3.114-2.565-10.26-8.061-10.992-12.092-1.282-6.962 13.191-3.481 17.771-2.931 3.481 0.366 3.481-5.13 0-5.496-6.046-0.733-22.351-4.58-24.183 4.763-1.466 7.328 8.794 15.573 13.557 19.603-0.183-1.099-0.366-2.198-0.366-3.298-2.748 6.046-5.496 21.435 2.015 25.466 6.779 3.664 16.305-6.229 20.702-10.443-1.466-0.183-2.931-0.366-4.397-0.55 3.847 5.496 15.939 15.939 23.084 10.992 6.229-4.397 3.114-17.038 1.832-23.084-0.366 1.099-0.916 2.015-1.282 3.114 5.863-3.298 15.573-12.824 13.557-20.519-2.382-8.244-16.305-6.229-22.351-5.496 0.916 0.733 1.832 1.282 2.565 2.015-1.099-6.595-6.779-19.237-14.473-20.153-8.977-1.099-11.542 13.374-13.008 19.603-0.183 3.481 5.13 4.947 5.863 1.466v0zM22.901 29.313c-3.298 3.481-2.565 6.046-0.916 10.26 1.649 4.397-1.282 9.527 3.114 13.191 1.466 1.282 3.481 1.649 5.313 1.466 2.015-0.366 3.114-1.832 4.947-2.382 2.748-0.916 5.863 0.916 8.794 0.55 2.015-0.366 4.031-1.099 5.313-2.748 3.664-4.031 0-6.779 0.183-10.809 0-4.031 1.099-7.878-2.748-10.809-1.282-1.099-2.931-1.466-4.58-1.466-2.748 0-4.397 0-6.962-0.916-4.947-1.649-7.695 1.282-11.908 3.481-3.114 1.649-0.366 6.412 2.748 4.763 1.099-0.55 2.382-1.099 3.481-1.649 2.382-1.099 2.565-1.466 5.13-0.916 1.832 0.366 3.114 0.916 5.13 0.916 1.832 0 3.847-0.183 4.58 2.015 0.733 1.832-0.366 3.114-0.55 4.58-0.366 2.198 0.916 2.931 1.282 4.947 0.916 4.947-5.13 2.382-8.061 2.198-2.382-0.183-3.298 1.099-5.313 1.649-5.679 1.466-3.298-4.214-3.664-6.779-0.366-2.382-3.664-4.947-1.466-7.328 2.382-2.931-1.466-6.779-3.847-4.214zM37.008 42.504c0.916-1.282 1.832-2.565 2.565-4.031 0.55-1.282 0.366-2.931-0.916-3.847-1.282-0.733-3.114-0.366-3.847 0.916-0.733 1.466-1.649 2.748-2.565 4.031s-0.183 3.114 0.916 3.847c1.466 0.916 2.931 0.183 3.847-0.916v0zM31.328 39.023c1.832 1.649 4.031 2.931 6.046 4.397 1.099 0.916 3.114 0.183 3.847-0.916 0.916-1.466 0.183-2.931-0.916-3.847-1.649-1.282-3.481-2.198-4.947-3.481-2.748-2.382-6.595 1.466-4.031 3.847v0zM32.977 36.458c0.183 0.733 0.183 1.282 0.55 2.015 0.55 1.466 1.832 2.382 3.298 1.832 1.282-0.366 2.382-2.015 1.832-3.298-0.183-0.733-0.366-1.282-0.55-2.015-0.366-1.466-2.015-2.382-3.298-1.832-1.466 0.183-2.015 1.832-1.832 3.298v0z"></path>
</svg>
