<!-- Generated by IcoMoon.io -->
<svg version="1.1" xmlns="http://www.w3.org/2000/svg" width="72" height="72" viewBox="0 0 72 72">
<title>VEG_OIL</title>
<path d="M32.471 6.353c2.259 0 4.518 0 6.776 0 2.682 0 2.682-4.235 0-4.235-2.259 0-4.518 0-6.776 0-2.682 0-2.682 4.235 0 4.235v0zM32.471 12c2.259 0 4.518 0 6.776 0 2.682 0 2.682-4.235 0-4.235-2.259 0-4.518 0-6.776 0-2.682 0-2.682 4.235 0 4.235v0zM32.471 12c2.682 0 2.682-4.235 0-4.235s-2.682 4.235 0 4.235v0zM39.812 6.212c-0.141 0-0.565 0-0.424 0s-0.282-0.141-0.282-0.141c-0.141-0.141 0 0.141-0.141-0.141 0 0.141 0.141 0.141 0.141 0.282-0.141-0.565 0.141 0.282 0.141 0.424-0.141-0.424 0 0.282 0 0.424 0 0 0 0.424 0 0.141s-0.141 0.282-0.141 0.282c0 0.141 0 0.141 0 0 0 0.141-0.141 0.282-0.141 0.424 0 0 0.141 0 0 0 0.282 0 0.141 0 0 0 0.424 0-0.141 0-0.141 0-2.682-0.141-2.682 4.094 0 4.235 6.212 0.424 6.212-11.012 0-9.882-1.129 0.141-1.694 1.553-1.412 2.541 0.141 1.129 1.271 1.694 2.4 1.412v0zM33.035 2.118c-6.212-1.129-6.212 10.306 0 9.882 2.682-0.141 2.682-4.376 0-4.235-0.141 0-0.565 0.141-0.282 0 0.141-0.141-0.141 0 0 0s0.141 0 0 0c0 0 0.141 0.141 0.141 0.141-0.141 0-0.141-0.282 0 0 0-0.141-0.141-0.282-0.282-0.424-0.141-0.282 0.141 0.424 0-0.141 0-0.141 0-0.282-0.141-0.424 0 0.282 0 0.141 0-0.141 0-0.141 0.141-0.847 0-0.424 0-0.141 0-0.282 0.141-0.282 0 0 0.141-0.565 0-0.282s0-0.141 0.141-0.141c0 0-0.282 0.141 0 0-0.424 0.282-0.282 0.282-0.847 0.282 1.129 0.141 2.259-0.282 2.541-1.412 0.424-0.706-0.282-2.118-1.412-2.4v0zM38.541 11.294c3.671 3.106 9.318 3.953 10.871 8.894 1.694 5.365-0.988 8.471-4.235 11.859-0.706 0.706-0.706 1.694-0.282 2.541 1.835 4.235 3.106 7.2 2.118 12-0.847 3.812-0.988 7.341-0.424 11.153 0.141 1.412 1.835 6.635 1.553 7.059-0.282 0.706-3.953 0.988-4.376 0.988-2.118 0.282-4.376 0.282-6.494 0.282s-4.376 0-6.494-0.282c-0.282 0-3.953-0.424-4.376-0.988 0-0.141 0.988-4.235 0.988-5.365 0.424-4.235 0-8.612-0.988-12.847-0.988-4.8 0.282-7.624 2.118-12 0.424-0.847 0.424-1.835-0.282-2.541-3.247-3.388-5.082-5.082-4.518-10.306 0.565-6.071 6.494-7.059 10.447-10.447 2.118-1.835-0.988-4.8-2.965-2.965-5.365 4.518-10.729 4.659-11.576 12.424-0.847 6.918 1.271 9.741 5.647 14.4-0.141-0.847-0.282-1.694-0.282-2.541-1.694 3.812-3.812 6.918-3.388 11.153 0.424 3.247 1.271 6.353 1.553 9.6 0.141 2.682 0.282 5.224-0.282 7.906-0.282 1.129-0.988 2.4-0.988 3.529 0.565 6.212 11.012 5.506 15.388 5.506 4.235 0 14.541 0.706 15.388-5.224 0.424-3.529-2.118-8.047-2.118-11.718 0-3.106 0.988-5.788 1.412-8.894 0.706-4.659-1.412-7.765-3.247-11.859-0.141 0.847-0.282 1.694-0.282 2.541 4.518-4.8 6.776-8.188 5.506-15.388-1.271-7.059-7.2-7.2-12.141-11.435-2.259-1.694-5.365 1.271-3.247 2.965v0zM23.435 45.318c8.753 0 17.506 0 26.259 0 2.682 0 2.682-4.235 0-4.235-8.753 0-17.506 0-26.259 0-2.682 0-2.682 4.235 0 4.235v0zM24.988 62.4c7.906 0 15.953 0 23.859 0 2.682 0 2.682-4.235 0-4.235-7.906 0-15.953 0-23.859 0-2.682 0-2.682 4.235 0 4.235v0zM35.294 55.765c-0.282-0.282 0.282-2.541 0.424-3.106 0.424-1.271 0.988-2.541 1.835-3.529 0.282-0.282 0.847-0.706 0.988-0.988 0.424-0.141 0.424-0.141 0-0.282-0.282-0.141-0.424 0-0.282 0.424-0.282 0.565-0.141 1.412-0.282 1.976-0.141 0.706-0.424 1.271-0.706 1.976-0.565 1.271 1.553 1.835 1.976 0.565 0.565-1.553 1.694-4.659 0.565-6.212-0.847-1.129-2.118-0.565-3.106 0.141-1.835 1.412-2.965 3.812-3.529 6.071-0.424 1.553-0.706 3.671 0.706 4.8 1.412 0.847 2.4-0.988 1.412-1.835v0zM35.012 56.188c2.118-1.976 5.506-3.247 8.471-3.388-0.282-0.424-0.706-0.847-0.988-1.271-0.282 1.129-2.118 1.694-3.106 2.118-1.694 0.706-3.388 1.412-5.082 2.259-1.271 0.706-0.141 2.4 1.129 1.835 1.976-0.988 4.094-1.835 6.071-2.682 1.271-0.565 2.824-1.412 3.106-2.965 0.141-0.706-0.282-1.412-0.988-1.271-3.529 0.141-7.482 1.694-10.024 4.094-1.129 0.706 0.424 2.259 1.412 1.271v0zM35.859 49.835c-0.988-1.129-1.976-1.976-3.529-1.271-1.271 0.565-2.824 1.694-3.812 2.682-0.565 0.706-0.141 1.694 0.706 1.835 1.129 0.141 2.541-0.706 3.247 0.282 0.565 0.847 0.847 1.976 0.988 2.824 0.282 1.271 2.4 0.706 1.976-0.565-0.424-1.412-0.706-2.965-1.694-4.094-1.271-1.553-2.965-0.565-4.659-0.706 0.282 0.565 0.565 1.271 0.706 1.835 0.565-0.706 1.412-1.129 2.118-1.694 0.282-0.141 0.847-0.706 1.129-0.706 0.424 0 0.706 0.565 0.988 0.847 1.271 1.271 2.682-0.282 1.835-1.271v0z"></path>
</svg>
