<?xml version="1.0" encoding="utf-8"?>
<!-- Generator: Adobe Illustrator 19.0.0, SVG Export Plug-In . SVG Version: 6.00 Build 0)  -->
<svg version="1.1" id="Layer_1" xmlns="http://www.w3.org/2000/svg" xmlns:xlink="http://www.w3.org/1999/xlink" x="0px" y="0px"
	 viewBox="-252.3 371.8 39.2 51.2" style="enable-background:new -252.3 371.8 39.2 51.2;" xml:space="preserve">
<style type="text/css">
	.st0{fill:#9A3D58;}
</style>
<g>
	<g>
		<path class="st0" d="M-235.3,376.3c1.6,0,3.2,0,4.8,0c1.9,0,1.9-3,0-3c-1.6,0-3.2,0-4.8,0C-237.2,373.3-237.2,376.3-235.3,376.3
			L-235.3,376.3z"/>
	</g>
</g>
<g>
	<g>
		<path class="st0" d="M-235.3,380.3c1.6,0,3.2,0,4.8,0c1.9,0,1.9-3,0-3c-1.6,0-3.2,0-4.8,0C-237.2,377.3-237.2,380.3-235.3,380.3
			L-235.3,380.3z"/>
	</g>
</g>
<g>
	<g>
		<path class="st0" d="M-235.3,380.3c1.9,0,1.9-3,0-3C-237.2,377.3-237.2,380.3-235.3,380.3L-235.3,380.3z"/>
	</g>
</g>
<g>
	<g>
		<path class="st0" d="M-230.1,376.2c-0.1,0-0.4,0-0.3,0c0.1,0-0.2-0.1-0.2-0.1c-0.1-0.1,0,0.1-0.1-0.1c0,0.1,0.1,0.1,0.1,0.2
			c-0.1-0.4,0.1,0.2,0.1,0.3c-0.1-0.3,0,0.2,0,0.3c0,0,0,0.3,0,0.1c0-0.2-0.1,0.2-0.1,0.2c0,0.1,0,0.1,0,0c0,0.1-0.1,0.2-0.1,0.3
			c0,0,0.1,0,0,0c0.2,0,0.1,0,0,0c0.3,0-0.1,0-0.1,0c-1.9-0.1-1.9,2.9,0,3c4.4,0.3,4.4-7.8,0-7c-0.8,0.1-1.2,1.1-1,1.8
			C-231.7,376-230.9,376.4-230.1,376.2L-230.1,376.2z"/>
	</g>
</g>
<g>
	<g>
		<path class="st0" d="M-234.9,373.3c-4.4-0.8-4.4,7.3,0,7c1.9-0.1,1.9-3.1,0-3c-0.1,0-0.4,0.1-0.2,0c0.1-0.1-0.1,0,0,0
			c0.1,0,0.1,0,0,0c0,0,0.1,0.1,0.1,0.1c-0.1,0-0.1-0.2,0,0c0-0.1-0.1-0.2-0.2-0.3c-0.1-0.2,0.1,0.3,0-0.1c0-0.1,0-0.2-0.1-0.3
			c0,0.2,0,0.1,0-0.1c0-0.1,0.1-0.6,0-0.3c0-0.1,0-0.2,0.1-0.2c0,0,0.1-0.4,0-0.2c-0.1,0.2,0-0.1,0.1-0.1c0,0-0.2,0.1,0,0
			c-0.3,0.2-0.2,0.2-0.6,0.2c0.8,0.1,1.6-0.2,1.8-1C-233.6,374.5-234.1,373.5-234.9,373.3L-234.9,373.3z"/>
	</g>
</g>
<g>
	<g>
		<path class="st0" d="M-231,379.8c2.6,2.2,6.6,2.8,7.7,6.3c1.2,3.8-0.7,6-3,8.4c-0.5,0.5-0.5,1.2-0.2,1.8c1.3,3,2.2,5.1,1.5,8.5
			c-0.6,2.7-0.7,5.2-0.3,7.9c0.1,1,1.3,4.7,1.1,5c-0.2,0.5-2.8,0.7-3.1,0.7c-1.5,0.2-3.1,0.2-4.6,0.2c-1.5,0-3.1,0-4.6-0.2
			c-0.2,0-2.8-0.3-3.1-0.7c0-0.1,0.7-3,0.7-3.8c0.3-3,0-6.1-0.7-9.1c-0.7-3.4,0.2-5.4,1.5-8.5c0.3-0.6,0.3-1.3-0.2-1.8
			c-2.3-2.4-3.6-3.6-3.2-7.3c0.4-4.3,4.6-5,7.4-7.4c1.5-1.3-0.7-3.4-2.1-2.1c-3.8,3.2-7.6,3.3-8.2,8.8c-0.6,4.9,0.9,6.9,4,10.2
			c-0.1-0.6-0.2-1.2-0.2-1.8c-1.2,2.7-2.7,4.9-2.4,7.9c0.3,2.3,0.9,4.5,1.1,6.8c0.1,1.9,0.2,3.7-0.2,5.6c-0.2,0.8-0.7,1.7-0.7,2.5
			c0.4,4.4,7.8,3.9,10.9,3.9c3,0,10.3,0.5,10.9-3.7c0.3-2.5-1.5-5.7-1.5-8.3c0-2.2,0.7-4.1,1-6.3c0.5-3.3-1-5.5-2.3-8.4
			c-0.1,0.6-0.2,1.2-0.2,1.8c3.2-3.4,4.8-5.8,3.9-10.9c-0.9-5-5.1-5.1-8.6-8.1C-230.3,376.5-232.5,378.6-231,379.8L-231,379.8z"/>
	</g>
</g>
<g>
	<g>
		<path class="st0" d="M-241.7,403.9c6.2,0,12.4,0,18.6,0c1.9,0,1.9-3,0-3c-6.2,0-12.4,0-18.6,0
			C-243.6,400.9-243.6,403.9-241.7,403.9L-241.7,403.9z"/>
	</g>
</g>
<g>
	<g>
		<path class="st0" d="M-240.6,416c5.6,0,11.3,0,16.9,0c1.9,0,1.9-3,0-3c-5.6,0-11.3,0-16.9,0C-242.5,413-242.5,416-240.6,416
			L-240.6,416z"/>
	</g>
</g>
<g>
	<g>
		<path class="st0" d="M-233.3,411.3c-0.2-0.2,0.2-1.8,0.3-2.2c0.3-0.9,0.7-1.8,1.3-2.5c0.2-0.2,0.6-0.5,0.7-0.7
			c0.3-0.1,0.3-0.1,0-0.2c-0.2-0.1-0.3,0-0.2,0.3c-0.2,0.4-0.1,1-0.2,1.4c-0.1,0.5-0.3,0.9-0.5,1.4c-0.4,0.9,1.1,1.3,1.4,0.4
			c0.4-1.1,1.2-3.3,0.4-4.4c-0.6-0.8-1.5-0.4-2.2,0.1c-1.3,1-2.1,2.7-2.5,4.3c-0.3,1.1-0.5,2.6,0.5,3.4
			C-233.3,413.2-232.6,411.9-233.3,411.3L-233.3,411.3z"/>
	</g>
</g>
<g>
	<g>
		<path class="st0" d="M-233.5,411.6c1.5-1.4,3.9-2.3,6-2.4c-0.2-0.3-0.5-0.6-0.7-0.9c-0.2,0.8-1.5,1.2-2.2,1.5
			c-1.2,0.5-2.4,1-3.6,1.6c-0.9,0.5-0.1,1.7,0.8,1.3c1.4-0.7,2.9-1.3,4.3-1.9c0.9-0.4,2-1,2.2-2.1c0.1-0.5-0.2-1-0.7-0.9
			c-2.5,0.1-5.3,1.2-7.1,2.9C-235.3,411.2-234.2,412.3-233.5,411.6L-233.5,411.6z"/>
	</g>
</g>
<g>
	<g>
		<path class="st0" d="M-232.9,407.1c-0.7-0.8-1.4-1.4-2.5-0.9c-0.9,0.4-2,1.2-2.7,1.9c-0.4,0.5-0.1,1.2,0.5,1.3
			c0.8,0.1,1.8-0.5,2.3,0.2c0.4,0.6,0.6,1.4,0.7,2c0.2,0.9,1.7,0.5,1.4-0.4c-0.3-1-0.5-2.1-1.2-2.9c-0.9-1.1-2.1-0.4-3.3-0.5
			c0.2,0.4,0.4,0.9,0.5,1.3c0.4-0.5,1-0.8,1.5-1.2c0.2-0.1,0.6-0.5,0.8-0.5c0.3,0,0.5,0.4,0.7,0.6
			C-233.3,408.9-232.3,407.8-232.9,407.1L-232.9,407.1z"/>
	</g>
</g>
</svg>
